<?xml version="1.0" encoding="UTF-8" standalone="no"?>
<!DOCTYPE svg PUBLIC "-//W3C//DTD SVG 1.1//EN" "http://www.w3.org/Graphics/SVG/1.1/DTD/svg11.dtd">
<svg width="45in" height="60in" viewBox="0 0 45 60" version="1.1" xmlns="http://www.w3.org/2000/svg" xmlns:xlink="http://www.w3.org/1999/xlink" xml:space="preserve" xmlns:serif="http://www.serif.com/" style="fill-rule:evenodd;clip-rule:evenodd;stroke-linecap:round;stroke-linejoin:round;stroke-miterlimit:2.613;">
    <g transform="matrix(0.0033333333,0,0,0.0033333333,0,0)">
        <g transform="matrix(3.125,0,0,3.125,-17862.2,-17509.4)">
            <g id="IPD" transform="matrix(7.05882,0,0,7.27273,5715.91,5603)">
                <g id="Playfield-Outline---Top-Bottom-WoodWalls-Habitrails-Sticker-Drill-HDrill-BDrill-TDrill-TRout-BRout-Rout-Plastic-Bevel-Art-Assembly-Rubber-Todo" serif:id="Playfield Outline - Top Bottom WoodWalls Habitrails Sticker Drill HDrill BDrill TDrill TRout BRout Rout Plastic Bevel Art Assembly Rubber Todo" transform="matrix(1.05169,0,0,0.866669,32.5794,17.9763)">
                    <g id="PF-Outline" serif:id="PF Outline" transform="matrix(0.750103,0,4.21225e-33,0.883468,-586.674,-986.887)">
                        <path d="M827.024,1179.78L1176.1,1179.78L1176.1,1903.64L1165.33,1903.64L1165.33,1885.32L1165.33,1885.32C1165.33,1884.14 1164.36,1883.17 1163.17,1883.17L1157.8,1883.17L1157.81,1851.75L1157.81,1851.75C1157.81,1850.86 1157.08,1850.13 1156.19,1850.13C1155.3,1850.13 1154.58,1850.86 1154.58,1851.75L1154.58,1851.75L1154.59,1883.17L1143.78,1883.17C1142.59,1883.17 1141.63,1884.14 1141.63,1885.32L1141.63,1955.57L983.96,1955.57L943.665,1907.54L943.663,1907.54C942.855,1906.58 941.626,1906.01 940.364,1906.01L920.759,1906.01C918.386,1906.01 916.449,1907.94 916.449,1910.31L916.449,1955.57L881.116,1955.57L849.469,1928.2L849.469,1910.59C849.469,1908.22 847.533,1906.28 845.159,1906.28L827.024,1906.28L827.024,1179.78Z" style="fill:none;stroke:rgb(35,31,32);stroke-width:0.2px;"/>
                    </g>
                    <g id="Guidemarks">
                        <g transform="matrix(0.750103,0,4.21225e-33,0.883468,-628.983,-986.887)">
                            <path d="M916.449,1955.57L878.956,1955.57" style="fill:none;stroke:black;stroke-width:0.2px;"/>
                        </g>
                        <g transform="matrix(0.750103,0,4.21225e-33,0.883468,-371.974,-986.887)">
                            <path d="M892.931,1955.57L872.923,1955.57" style="fill:none;stroke:black;stroke-width:0.2px;"/>
                        </g>
                        <g transform="matrix(1.00014,0,0,1.17796,-153.867,-17.0334)">
                            <path d="M449.348,658.327L449.348,638.487" style="fill:none;stroke:black;stroke-width:0.1px;stroke-miterlimit:10;"/>
                        </g>
                        <g transform="matrix(1.00014,0,0,0.4476,-153.867,444.547)">
                            <path d="M187.536,701.957L187.536,647.213" style="fill:none;stroke:black;stroke-width:0.1px;stroke-miterlimit:10;"/>
                        </g>
                        <g transform="matrix(0.116723,0,0,0.137476,-898.582,-175.651)">
                            <path d="M9030.7,6763.28L9048.69,6763.28L9048.69,6770.14L9016.24,6770.14L9033.01,6749.82C9034.66,6747.8 9036.04,6746.05 9037.16,6744.57C9038.28,6743.08 9039.13,6741.84 9039.71,6740.84C9040.9,6738.88 9041.49,6737.12 9041.49,6735.55C9041.49,6733.3 9040.7,6731.41 9039.12,6729.89C9037.53,6728.36 9035.57,6727.6 9033.23,6727.6C9028.35,6727.6 9025.55,6730.49 9024.84,6736.27L9017.58,6736.27C9018.75,6726.09 9023.89,6721 9033.01,6721C9037.42,6721 9041.11,6722.4 9044.09,6725.19C9047.1,6727.99 9048.6,6731.45 9048.6,6735.58C9048.6,6738.21 9047.9,6740.79 9046.5,6743.31C9045.79,6744.63 9044.76,6746.19 9043.39,6747.99C9042.02,6749.8 9040.3,6751.93 9038.21,6754.39L9030.7,6763.28Z" style="fill-rule:nonzero;"/>
                            <path d="M9056.93,6745.66C9056.93,6737.96 9058.72,6731.82 9062.31,6727.23C9065.52,6723.07 9069.41,6721 9073.98,6721C9078.55,6721 9082.44,6723.07 9085.66,6727.23C9089.25,6731.82 9091.04,6738.07 9091.04,6745.97C9091.04,6753.86 9089.25,6760.1 9085.66,6764.69C9082.44,6768.84 9078.56,6770.92 9074.01,6770.92C9069.47,6770.92 9065.56,6768.84 9062.31,6764.69C9058.72,6760.1 9056.93,6753.76 9056.93,6745.66ZM9064.09,6745.69C9064.09,6751.06 9065.02,6755.51 9066.88,6759.06C9068.74,6762.54 9071.1,6764.28 9073.98,6764.28C9076.84,6764.28 9079.21,6762.54 9081.09,6759.06C9082.97,6755.59 9083.91,6751.22 9083.91,6745.94C9083.91,6740.66 9082.97,6736.28 9081.09,6732.8C9079.21,6729.33 9076.84,6727.6 9073.98,6727.6C9071.15,6727.6 9068.79,6729.33 9066.91,6732.8C9065.03,6736.24 9064.09,6740.54 9064.09,6745.69Z" style="fill-rule:nonzero;"/>
                            <path d="M9099.3,6766.63C9099.3,6765.46 9099.73,6764.45 9100.59,6763.6C9101.44,6762.74 9102.47,6762.31 9103.65,6762.31C9104.84,6762.31 9105.87,6762.74 9106.72,6763.6C9107.58,6764.45 9108.01,6765.47 9108.01,6766.66C9108.01,6767.87 9107.58,6768.91 9106.72,6769.76C9105.89,6770.6 9104.86,6771.01 9103.65,6771.01C9102.42,6771.01 9101.39,6770.6 9100.56,6769.76C9099.72,6768.93 9099.3,6767.88 9099.3,6766.63Z" style="fill-rule:nonzero;"/>
                            <path d="M9129.6,6763.28L9147.6,6763.28L9147.6,6770.14L9115.14,6770.14L9131.92,6749.82C9133.57,6747.8 9134.95,6746.05 9136.06,6744.57C9137.18,6743.08 9138.03,6741.84 9138.61,6740.84C9139.81,6738.88 9140.4,6737.12 9140.4,6735.55C9140.4,6733.3 9139.61,6731.41 9138.02,6729.89C9136.43,6728.36 9134.47,6727.6 9132.14,6727.6C9127.25,6727.6 9124.46,6730.49 9123.75,6736.27L9116.49,6736.27C9117.66,6726.09 9122.8,6721 9131.92,6721C9136.32,6721 9140.01,6722.4 9143,6725.19C9146,6727.99 9147.5,6731.45 9147.5,6735.58C9147.5,6738.21 9146.81,6740.79 9145.41,6743.31C9144.7,6744.63 9143.66,6746.19 9142.29,6747.99C9140.93,6749.8 9139.2,6751.93 9137.11,6754.39L9129.6,6763.28Z" style="fill-rule:nonzero;"/>
                            <path d="M9186.82,6728.63L9171.92,6728.63L9169.54,6736.65C9169.89,6736.61 9170.23,6736.57 9170.56,6736.55C9170.88,6736.53 9171.18,6736.52 9171.45,6736.52C9176.14,6736.52 9179.99,6738.11 9183,6741.28C9186.02,6744.43 9187.54,6748.47 9187.54,6753.39C9187.54,6758.48 9185.83,6762.68 9182.4,6765.97C9178.98,6769.27 9174.67,6770.92 9169.48,6770.92C9163.07,6770.92 9158.02,6767.91 9154.33,6761.9L9159.84,6757.24C9161.36,6759.83 9162.89,6761.65 9164.44,6762.72C9165.98,6763.76 9167.87,6764.28 9170.1,6764.28C9173.02,6764.28 9175.48,6763.26 9177.46,6761.22C9179.44,6759.11 9180.43,6756.55 9180.43,6753.55C9180.43,6750.46 9179.45,6747.94 9177.49,6745.97C9175.53,6743.95 9173.08,6742.94 9170.13,6742.94C9166.86,6742.94 9164.03,6744.37 9161.65,6747.23L9159.24,6747.23L9166.85,6721.81L9186.82,6721.81L9186.82,6728.63Z" style="fill-rule:nonzero;"/>
                            <path d="M9202.75,6741.25L9197.43,6741.25L9196.08,6721.81L9204.09,6721.81L9202.75,6741.25ZM9214.2,6741.25L9208.88,6741.25L9207.54,6721.81L9215.55,6721.81L9214.2,6741.25Z" style="fill-rule:nonzero;"/>
                        </g>
                        <g transform="matrix(0.136744,0,0,0.216494,-783.982,-1557.69)">
                            <path d="M5997.79,10694.6L5997.79,10704.8L5979.49,10691.2L5997.79,10677.6L5997.79,10687.8L7876.19,10687.8L7876.19,10677.6L7894.49,10691.2L7876.19,10704.8L7876.19,10694.6L5997.79,10694.6Z" style="fill-opacity:0.717647;"/>
                        </g>
                    </g>
                </g>
                <g id="Alignment-Marker" serif:id="Alignment Marker" transform="matrix(1.05169,0,0,1,-339.984,118.8)">
                    <g id="Top-Bottom-WoodWalls-Habitrails-Sticker-TDrill-BDrill-HDrill-TRout-BRout-Plastic-Bevel-Art-Assembly-Rubber-Todo" serif:id="Top Bottom WoodWalls Habitrails Sticker TDrill BDrill HDrill TRout BRout Plastic Bevel Art Assembly Rubber Todo">
                        <g transform="matrix(0.0756179,0,0,0.1375,-250.985,-770.161)">
                            <path d="M8705.99,9345.17L8877,9345.17" style="fill:none;stroke:black;stroke-width:1.44px;stroke-miterlimit:10;"/>
                        </g>
                        <g transform="matrix(4.63026e-18,0.0771876,-0.134704,8.41945e-18,1672.64,-163.795)">
                            <path d="M8705.99,9345.17L8877,9345.17" style="fill:none;stroke:black;stroke-width:1.44px;stroke-miterlimit:10;"/>
                        </g>
                    </g>
                </g>
                <g id="Alignment-Marker1" serif:id="Alignment Marker" transform="matrix(1.05169,0,0,1,-353.584,-435.6)">
                    <g id="Top-Bottom-WoodWalls-Habitrails-Sticker-TDrill-BDrill-HDrill-TRout-BRout-Plastic-Bevel-Art-Assembly-Rubber-Todo1" serif:id="Top Bottom WoodWalls Habitrails Sticker TDrill BDrill HDrill TRout BRout Plastic Bevel Art Assembly Rubber Todo">
                        <g transform="matrix(0.0756179,0,0,0.1375,-250.985,-770.161)">
                            <path d="M8705.99,9345.17L8877,9345.17" style="fill:none;stroke:black;stroke-width:1.44px;stroke-miterlimit:10;"/>
                        </g>
                        <g transform="matrix(4.63026e-18,0.0771876,-0.134704,8.41945e-18,1672.64,-163.795)">
                            <path d="M8705.99,9345.17L8877,9345.17" style="fill:none;stroke:black;stroke-width:1.44px;stroke-miterlimit:10;"/>
                        </g>
                    </g>
                </g>
                <g id="Alignment-Marker2" serif:id="Alignment Marker" transform="matrix(1.05169,0,0,1,-108.784,-435.6)">
                    <g id="Top-Bottom-WoodWalls-Habitrails-Sticker-TDrill-BDrill-HDrill-TRout-BRout-Plastic-Bevel-Art-Assembly-Rubber-Todo2" serif:id="Top Bottom WoodWalls Habitrails Sticker TDrill BDrill HDrill TRout BRout Plastic Bevel Art Assembly Rubber Todo">
                        <g transform="matrix(0.0756179,0,0,0.1375,-250.985,-770.161)">
                            <path d="M8705.99,9345.17L8877,9345.17" style="fill:none;stroke:black;stroke-width:1.44px;stroke-miterlimit:10;"/>
                        </g>
                        <g transform="matrix(4.63026e-18,0.0771876,-0.134704,8.41945e-18,1672.64,-163.795)">
                            <path d="M8705.99,9345.17L8877,9345.17" style="fill:none;stroke:black;stroke-width:1.44px;stroke-miterlimit:10;"/>
                        </g>
                    </g>
                </g>
                <g id="Alignment-Marker3" serif:id="Alignment Marker" transform="matrix(1.05169,0,0,1,-149.584,118.8)">
                    <g id="Top-Bottom-WoodWalls-Habitrails-Sticker-TDrill-BDrill-HDrill-TRout-BRout-Plastic-Bevel-Art-Assembly-Rubber-Todo3" serif:id="Top Bottom WoodWalls Habitrails Sticker TDrill BDrill HDrill TRout BRout Plastic Bevel Art Assembly Rubber Todo">
                        <g transform="matrix(0.0756179,0,0,0.1375,-250.985,-770.161)">
                            <path d="M8705.99,9345.17L8877,9345.17" style="fill:none;stroke:black;stroke-width:1.44px;stroke-miterlimit:10;"/>
                        </g>
                        <g transform="matrix(4.63026e-18,0.0771876,-0.134704,8.41945e-18,1672.64,-163.795)">
                            <path d="M8705.99,9345.17L8877,9345.17" style="fill:none;stroke:black;stroke-width:1.44px;stroke-miterlimit:10;"/>
                        </g>
                    </g>
                </g>
                <g id="Flasher-Caps" serif:id="Flasher Caps" transform="matrix(1.05169,0,0,1,32.5794,0)">
                    <g id="Flasher-Cap" serif:id="Flasher Cap" transform="matrix(0.179605,0,0,0.183333,111.043,-310.55)">
                        <g transform="matrix(1.3708,0,0,1.25768,-12798.1,-2573.17)">
                            <g id="Plastic9" serif:id="Plastic">
                                <path id="TODO-CUTOUT" serif:id="TODO CUTOUT" d="M10024.7,4759.41L10036.7,4796.33L10075.5,4796.33L10044.1,4819.15L10056.1,4856.07L10024.7,4833.26L9993.27,4856.07L10005.3,4819.15L9973.86,4796.33L10012.7,4796.33L10024.7,4759.41Z" style="fill:none;stroke:black;stroke-width:0.68px;stroke-miterlimit:10;"/>
                            </g>
                        </g>
                    </g>
                    <g id="Flasher-Cap1" serif:id="Flasher Cap" transform="matrix(0.179605,0,0,0.183333,113.331,-529.902)">
                        <g transform="matrix(1.3708,0,0,1.25768,-12798.1,-2573.17)">
                            <g id="Plastic10" serif:id="Plastic">
                                <path id="TODO-CUTOUT1" serif:id="TODO CUTOUT" d="M10024.7,4759.41L10036.7,4796.33L10075.5,4796.33L10044.1,4819.15L10056.1,4856.07L10024.7,4833.26L9993.27,4856.07L10005.3,4819.15L9973.86,4796.33L10012.7,4796.33L10024.7,4759.41Z" style="fill:none;stroke:black;stroke-width:0.68px;stroke-miterlimit:10;"/>
                            </g>
                        </g>
                    </g>
                    <g id="Flasher-Cap2" serif:id="Flasher Cap" transform="matrix(0.179605,0,0,0.183333,-123.909,-362.555)">
                        <g transform="matrix(1.3708,0,0,1.25768,-12798.1,-2573.17)">
                            <g id="Plastic11" serif:id="Plastic">
                                <path id="TODO-CUTOUT2" serif:id="TODO CUTOUT" d="M10024.7,4759.41L10036.7,4796.33L10075.5,4796.33L10044.1,4819.15L10056.1,4856.07L10024.7,4833.26L9993.27,4856.07L10005.3,4819.15L9973.86,4796.33L10012.7,4796.33L10024.7,4759.41Z" style="fill:none;stroke:black;stroke-width:0.68px;stroke-miterlimit:10;"/>
                            </g>
                        </g>
                    </g>
                    <g id="Flasher-Cap3" serif:id="Flasher Cap" transform="matrix(0.179605,0,0,0.183333,-122.839,-256.867)">
                        <g transform="matrix(1.3708,0,0,1.25768,-12798.1,-2573.17)">
                            <g id="Plastic12" serif:id="Plastic">
                                <path id="TODO-CUTOUT3" serif:id="TODO CUTOUT" d="M10024.7,4759.41L10036.7,4796.33L10075.5,4796.33L10044.1,4819.15L10056.1,4856.07L10024.7,4833.26L9993.27,4856.07L10005.3,4819.15L9973.86,4796.33L10012.7,4796.33L10024.7,4759.41Z" style="fill:none;stroke:black;stroke-width:0.68px;stroke-miterlimit:10;"/>
                            </g>
                        </g>
                    </g>
                    <g id="Flasher-Cap4" serif:id="Flasher Cap" transform="matrix(0.123086,0.133512,-0.130796,0.125641,390.909,-469.497)">
                        <g transform="matrix(1.3708,0,0,1.25768,-12798.1,-2573.17)">
                            <g id="Plastic13" serif:id="Plastic">
                                <path id="TODO-CUTOUT4" serif:id="TODO CUTOUT" d="M10024.7,4759.41L10036.7,4796.33L10075.5,4796.33L10044.1,4819.15L10056.1,4856.07L10024.7,4833.26L9993.27,4856.07L10005.3,4819.15L9973.86,4796.33L10012.7,4796.33L10024.7,4759.41Z" style="fill:none;stroke:black;stroke-width:0.68px;stroke-miterlimit:10;"/>
                            </g>
                        </g>
                    </g>
                    <g id="Flasher-Cap5" serif:id="Flasher Cap" transform="matrix(0.179605,0,0,0.183333,114.172,-216.477)">
                        <g transform="matrix(1.3708,0,0,1.25768,-12798.1,-2573.17)">
                            <g id="Plastic14" serif:id="Plastic">
                                <path id="TODO-CUTOUT5" serif:id="TODO CUTOUT" d="M10024.7,4759.41L10036.7,4796.33L10075.5,4796.33L10044.1,4819.15L10056.1,4856.07L10024.7,4833.26L9993.27,4856.07L10005.3,4819.15L9973.86,4796.33L10012.7,4796.33L10024.7,4759.41Z" style="fill:none;stroke:black;stroke-width:0.68px;stroke-miterlimit:10;"/>
                            </g>
                        </g>
                    </g>
                </g>
                <g id="Ramps" transform="matrix(1.05169,0,0,1,32.5794,0)">
                    <g id="Spring-Steel" serif:id="Spring Steel" transform="matrix(0.565323,-0.141238,0.141219,0.588959,-4667.31,1411.49)">
                        <g id="TDrill-TODO" serif:id="TDrill TODO">
                            <g transform="matrix(0.102597,2.9948e-33,8.96592e-33,0.100524,7044.7,-527.758)">
                                <circle cx="13487.4" cy="4969.46" r="6.768" style="fill:rgb(52,94,242);"/>
                            </g>
                            <g transform="matrix(0.102597,2.9948e-33,8.96592e-33,0.100524,7070.13,-527.758)">
                                <circle cx="13487.4" cy="4969.46" r="6.768" style="fill:rgb(52,94,242);"/>
                            </g>
                        </g>
                    </g>
                </g>
            </g>
        </g>
    </g>
    <defs>
        <linearGradient id="_Linear6" x1="0" y1="0" x2="1" y2="0" gradientUnits="userSpaceOnUse" gradientTransform="matrix(1459.95,0,0,892.062,8278.37,6179.04)">
            <stop offset="0" style="stop-color:rgb(47,47,48);stop-opacity:1"/>
            <stop offset="1" style="stop-color:rgb(103,103,103);stop-opacity:1"/>
        </linearGradient>
        <linearGradient id="_Linear10" x1="0" y1="0" x2="1" y2="0" gradientUnits="userSpaceOnUse" gradientTransform="matrix(1489.09,0,0,1254.82,6254.41,7418.5)">
            <stop offset="0" style="stop-color:rgb(20,20,20);stop-opacity:0.180133"/>
            <stop offset="0.5" style="stop-color:rgb(166,179,97);stop-opacity:0.180133"/>
            <stop offset="1" style="stop-color:rgb(123,123,123);stop-opacity:0.180133"/>
        </linearGradient>
        <radialGradient id="_Radial36" cx="0" cy="0" r="1" gradientUnits="userSpaceOnUse" gradientTransform="matrix(144.364,0,0,137.297,8735.86,1135.19)">
            <stop offset="0" style="stop-color:white;stop-opacity:1"/>
            <stop offset="1" style="stop-color:rgb(84,84,84);stop-opacity:1"/>
        </radialGradient>
        <linearGradient id="_Linear41" x1="0" y1="0" x2="1" y2="0" gradientUnits="userSpaceOnUse" gradientTransform="matrix(8.6165,0,0,116.697,905.28,3850.42)">
            <stop offset="0" style="stop-color:rgb(150,150,152);stop-opacity:1"/>
            <stop offset="0.59" style="stop-color:rgb(144,144,146);stop-opacity:1"/>
            <stop offset="0.81" style="stop-color:rgb(132,132,133);stop-opacity:1"/>
            <stop offset="1" style="stop-color:rgb(119,119,119);stop-opacity:1"/>
        </linearGradient>
        <linearGradient id="_Linear42" x1="0" y1="0" x2="1" y2="0" gradientUnits="userSpaceOnUse" gradientTransform="matrix(8.6165,0,0,116.697,905.28,3850.42)">
            <stop offset="0" style="stop-color:rgb(150,150,152);stop-opacity:1"/>
            <stop offset="0.59" style="stop-color:rgb(144,144,146);stop-opacity:1"/>
            <stop offset="0.81" style="stop-color:rgb(132,132,133);stop-opacity:1"/>
            <stop offset="1" style="stop-color:rgb(119,119,119);stop-opacity:1"/>
        </linearGradient>
        <linearGradient id="_Linear43" x1="0" y1="0" x2="1" y2="0" gradientUnits="userSpaceOnUse" gradientTransform="matrix(8.6165,0,0,116.697,905.28,3850.42)">
            <stop offset="0" style="stop-color:rgb(150,150,152);stop-opacity:1"/>
            <stop offset="0.59" style="stop-color:rgb(144,144,146);stop-opacity:1"/>
            <stop offset="0.81" style="stop-color:rgb(132,132,133);stop-opacity:1"/>
            <stop offset="1" style="stop-color:rgb(119,119,119);stop-opacity:1"/>
        </linearGradient>
        <linearGradient id="_Linear44" x1="0" y1="0" x2="1" y2="0" gradientUnits="userSpaceOnUse" gradientTransform="matrix(8.6165,0,0,116.697,905.28,3850.42)">
            <stop offset="0" style="stop-color:rgb(150,150,152);stop-opacity:1"/>
            <stop offset="0.59" style="stop-color:rgb(144,144,146);stop-opacity:1"/>
            <stop offset="0.81" style="stop-color:rgb(132,132,133);stop-opacity:1"/>
            <stop offset="1" style="stop-color:rgb(119,119,119);stop-opacity:1"/>
        </linearGradient>
        <linearGradient id="_Linear47" x1="0" y1="0" x2="1" y2="0" gradientUnits="userSpaceOnUse" gradientTransform="matrix(2.52279,0.00495987,-0.00495987,2.52279,1032.25,787.278)">
            <stop offset="0" style="stop-color:rgb(150,150,152);stop-opacity:0.840996"/>
            <stop offset="0.59" style="stop-color:rgb(144,144,146);stop-opacity:0.840996"/>
            <stop offset="0.81" style="stop-color:rgb(132,132,133);stop-opacity:0.840996"/>
            <stop offset="1" style="stop-color:rgb(119,119,119);stop-opacity:0.840996"/>
        </linearGradient>
        <linearGradient id="_Linear49" x1="0" y1="0" x2="1" y2="0" gradientUnits="userSpaceOnUse" gradientTransform="matrix(2.52279,0.00495987,-0.00495987,2.52279,1032.25,787.278)">
            <stop offset="0" style="stop-color:rgb(150,150,152);stop-opacity:0.840996"/>
            <stop offset="0.59" style="stop-color:rgb(144,144,146);stop-opacity:0.840996"/>
            <stop offset="0.81" style="stop-color:rgb(132,132,133);stop-opacity:0.840996"/>
            <stop offset="1" style="stop-color:rgb(119,119,119);stop-opacity:0.840996"/>
        </linearGradient>
        <linearGradient id="_Linear51" x1="0" y1="0" x2="1" y2="0" gradientUnits="userSpaceOnUse" gradientTransform="matrix(2.52279,0.00495987,-0.00495987,2.52279,1032.25,787.278)">
            <stop offset="0" style="stop-color:rgb(150,150,152);stop-opacity:0.840996"/>
            <stop offset="0.59" style="stop-color:rgb(144,144,146);stop-opacity:0.840996"/>
            <stop offset="0.81" style="stop-color:rgb(132,132,133);stop-opacity:0.840996"/>
            <stop offset="1" style="stop-color:rgb(119,119,119);stop-opacity:0.840996"/>
        </linearGradient>
        <linearGradient id="_Linear53" x1="0" y1="0" x2="1" y2="0" gradientUnits="userSpaceOnUse" gradientTransform="matrix(2.52279,0.00495987,-0.00495987,2.52279,1032.25,787.278)">
            <stop offset="0" style="stop-color:rgb(150,150,152);stop-opacity:0.840996"/>
            <stop offset="0.59" style="stop-color:rgb(144,144,146);stop-opacity:0.840996"/>
            <stop offset="0.81" style="stop-color:rgb(132,132,133);stop-opacity:0.840996"/>
            <stop offset="1" style="stop-color:rgb(119,119,119);stop-opacity:0.840996"/>
        </linearGradient>
        <linearGradient id="_Linear55" x1="0" y1="0" x2="1" y2="0" gradientUnits="userSpaceOnUse" gradientTransform="matrix(2.52279,0.00495987,-0.00495987,2.52279,1032.25,787.278)">
            <stop offset="0" style="stop-color:rgb(150,150,152);stop-opacity:0.840996"/>
            <stop offset="0.59" style="stop-color:rgb(144,144,146);stop-opacity:0.840996"/>
            <stop offset="0.81" style="stop-color:rgb(132,132,133);stop-opacity:0.840996"/>
            <stop offset="1" style="stop-color:rgb(119,119,119);stop-opacity:0.840996"/>
        </linearGradient>
        <linearGradient id="_Linear57" x1="0" y1="0" x2="1" y2="0" gradientUnits="userSpaceOnUse" gradientTransform="matrix(2.52279,0.00495987,-0.00495987,2.52279,1032.25,787.278)">
            <stop offset="0" style="stop-color:rgb(150,150,152);stop-opacity:0.840996"/>
            <stop offset="0.59" style="stop-color:rgb(144,144,146);stop-opacity:0.840996"/>
            <stop offset="0.81" style="stop-color:rgb(132,132,133);stop-opacity:0.840996"/>
            <stop offset="1" style="stop-color:rgb(119,119,119);stop-opacity:0.840996"/>
        </linearGradient>
        <linearGradient id="_Linear59" x1="0" y1="0" x2="1" y2="0" gradientUnits="userSpaceOnUse" gradientTransform="matrix(2.52279,0.00495987,-0.00495987,2.52279,1032.25,787.278)">
            <stop offset="0" style="stop-color:rgb(150,150,152);stop-opacity:0.840996"/>
            <stop offset="0.59" style="stop-color:rgb(144,144,146);stop-opacity:0.840996"/>
            <stop offset="0.81" style="stop-color:rgb(132,132,133);stop-opacity:0.840996"/>
            <stop offset="1" style="stop-color:rgb(119,119,119);stop-opacity:0.840996"/>
        </linearGradient>
        <linearGradient id="_Linear61" x1="0" y1="0" x2="1" y2="0" gradientUnits="userSpaceOnUse" gradientTransform="matrix(2.52279,0.00495987,-0.00495987,2.52279,1032.25,787.278)">
            <stop offset="0" style="stop-color:rgb(150,150,152);stop-opacity:0.840996"/>
            <stop offset="0.59" style="stop-color:rgb(144,144,146);stop-opacity:0.840996"/>
            <stop offset="0.81" style="stop-color:rgb(132,132,133);stop-opacity:0.840996"/>
            <stop offset="1" style="stop-color:rgb(119,119,119);stop-opacity:0.840996"/>
        </linearGradient>
        <linearGradient id="_Linear63" x1="0" y1="0" x2="1" y2="0" gradientUnits="userSpaceOnUse" gradientTransform="matrix(2.52279,0.00495987,-0.00495987,2.52279,1032.25,787.278)">
            <stop offset="0" style="stop-color:rgb(150,150,152);stop-opacity:0.840996"/>
            <stop offset="0.59" style="stop-color:rgb(144,144,146);stop-opacity:0.840996"/>
            <stop offset="0.81" style="stop-color:rgb(132,132,133);stop-opacity:0.840996"/>
            <stop offset="1" style="stop-color:rgb(119,119,119);stop-opacity:0.840996"/>
        </linearGradient>
        <linearGradient id="_Linear65" x1="0" y1="0" x2="1" y2="0" gradientUnits="userSpaceOnUse" gradientTransform="matrix(2.52279,0.00495987,-0.00495987,2.52279,1032.25,787.278)">
            <stop offset="0" style="stop-color:rgb(150,150,152);stop-opacity:0.840996"/>
            <stop offset="0.59" style="stop-color:rgb(144,144,146);stop-opacity:0.840996"/>
            <stop offset="0.81" style="stop-color:rgb(132,132,133);stop-opacity:0.840996"/>
            <stop offset="1" style="stop-color:rgb(119,119,119);stop-opacity:0.840996"/>
        </linearGradient>
        <linearGradient id="_Linear67" x1="0" y1="0" x2="1" y2="0" gradientUnits="userSpaceOnUse" gradientTransform="matrix(2.52279,0.00495987,-0.00495987,2.52279,1032.25,787.278)">
            <stop offset="0" style="stop-color:rgb(150,150,152);stop-opacity:0.840996"/>
            <stop offset="0.59" style="stop-color:rgb(144,144,146);stop-opacity:0.840996"/>
            <stop offset="0.81" style="stop-color:rgb(132,132,133);stop-opacity:0.840996"/>
            <stop offset="1" style="stop-color:rgb(119,119,119);stop-opacity:0.840996"/>
        </linearGradient>
        <linearGradient id="_Linear69" x1="0" y1="0" x2="1" y2="0" gradientUnits="userSpaceOnUse" gradientTransform="matrix(2.52279,0.00495987,-0.00495987,2.52279,1032.25,787.278)">
            <stop offset="0" style="stop-color:rgb(150,150,152);stop-opacity:0.840996"/>
            <stop offset="0.59" style="stop-color:rgb(144,144,146);stop-opacity:0.840996"/>
            <stop offset="0.81" style="stop-color:rgb(132,132,133);stop-opacity:0.840996"/>
            <stop offset="1" style="stop-color:rgb(119,119,119);stop-opacity:0.840996"/>
        </linearGradient>
        <linearGradient id="_Linear71" x1="0" y1="0" x2="1" y2="0" gradientUnits="userSpaceOnUse" gradientTransform="matrix(2.52279,0.00495987,-0.00495987,2.52279,1032.25,787.278)">
            <stop offset="0" style="stop-color:rgb(150,150,152);stop-opacity:0.840996"/>
            <stop offset="0.59" style="stop-color:rgb(144,144,146);stop-opacity:0.840996"/>
            <stop offset="0.81" style="stop-color:rgb(132,132,133);stop-opacity:0.840996"/>
            <stop offset="1" style="stop-color:rgb(119,119,119);stop-opacity:0.840996"/>
        </linearGradient>
        <linearGradient id="_Linear73" x1="0" y1="0" x2="1" y2="0" gradientUnits="userSpaceOnUse" gradientTransform="matrix(2.52279,0.00495987,-0.00495987,2.52279,1032.25,787.278)">
            <stop offset="0" style="stop-color:rgb(150,150,152);stop-opacity:0.840996"/>
            <stop offset="0.59" style="stop-color:rgb(144,144,146);stop-opacity:0.840996"/>
            <stop offset="0.81" style="stop-color:rgb(132,132,133);stop-opacity:0.840996"/>
            <stop offset="1" style="stop-color:rgb(119,119,119);stop-opacity:0.840996"/>
        </linearGradient>
        <linearGradient id="_Linear75" x1="0" y1="0" x2="1" y2="0" gradientUnits="userSpaceOnUse" gradientTransform="matrix(2.52279,0.00495987,-0.00495987,2.52279,1032.25,787.278)">
            <stop offset="0" style="stop-color:rgb(150,150,152);stop-opacity:0.840996"/>
            <stop offset="0.59" style="stop-color:rgb(144,144,146);stop-opacity:0.840996"/>
            <stop offset="0.81" style="stop-color:rgb(132,132,133);stop-opacity:0.840996"/>
            <stop offset="1" style="stop-color:rgb(119,119,119);stop-opacity:0.840996"/>
        </linearGradient>
        <linearGradient id="_Linear78" x1="0" y1="0" x2="1" y2="0" gradientUnits="userSpaceOnUse" gradientTransform="matrix(2.52279,0.00495987,-0.00495987,2.52279,1032.25,787.278)">
            <stop offset="0" style="stop-color:rgb(150,150,152);stop-opacity:0.840996"/>
            <stop offset="0.59" style="stop-color:rgb(144,144,146);stop-opacity:0.840996"/>
            <stop offset="0.81" style="stop-color:rgb(132,132,133);stop-opacity:0.840996"/>
            <stop offset="1" style="stop-color:rgb(119,119,119);stop-opacity:0.840996"/>
        </linearGradient>
        <linearGradient id="_Linear80" x1="0" y1="0" x2="1" y2="0" gradientUnits="userSpaceOnUse" gradientTransform="matrix(2.52279,0.00495987,-0.00495987,2.52279,1032.25,787.278)">
            <stop offset="0" style="stop-color:rgb(150,150,152);stop-opacity:0.840996"/>
            <stop offset="0.59" style="stop-color:rgb(144,144,146);stop-opacity:0.840996"/>
            <stop offset="0.81" style="stop-color:rgb(132,132,133);stop-opacity:0.840996"/>
            <stop offset="1" style="stop-color:rgb(119,119,119);stop-opacity:0.840996"/>
        </linearGradient>
        <linearGradient id="_Linear82" x1="0" y1="0" x2="1" y2="0" gradientUnits="userSpaceOnUse" gradientTransform="matrix(2.52279,0.00495987,-0.00495987,2.52279,1032.25,787.278)">
            <stop offset="0" style="stop-color:rgb(150,150,152);stop-opacity:0.840996"/>
            <stop offset="0.59" style="stop-color:rgb(144,144,146);stop-opacity:0.840996"/>
            <stop offset="0.81" style="stop-color:rgb(132,132,133);stop-opacity:0.840996"/>
            <stop offset="1" style="stop-color:rgb(119,119,119);stop-opacity:0.840996"/>
        </linearGradient>
        <linearGradient id="_Linear84" x1="0" y1="0" x2="1" y2="0" gradientUnits="userSpaceOnUse" gradientTransform="matrix(2.52279,0.00495987,-0.00495987,2.52279,1032.25,787.278)">
            <stop offset="0" style="stop-color:rgb(150,150,152);stop-opacity:0.840996"/>
            <stop offset="0.59" style="stop-color:rgb(144,144,146);stop-opacity:0.840996"/>
            <stop offset="0.81" style="stop-color:rgb(132,132,133);stop-opacity:0.840996"/>
            <stop offset="1" style="stop-color:rgb(119,119,119);stop-opacity:0.840996"/>
        </linearGradient>
        <linearGradient id="_Linear86" x1="0" y1="0" x2="1" y2="0" gradientUnits="userSpaceOnUse" gradientTransform="matrix(2.52279,0.00495987,-0.00495987,2.52279,1032.25,787.278)">
            <stop offset="0" style="stop-color:rgb(150,150,152);stop-opacity:0.840996"/>
            <stop offset="0.59" style="stop-color:rgb(144,144,146);stop-opacity:0.840996"/>
            <stop offset="0.81" style="stop-color:rgb(132,132,133);stop-opacity:0.840996"/>
            <stop offset="1" style="stop-color:rgb(119,119,119);stop-opacity:0.840996"/>
        </linearGradient>
        <linearGradient id="_Linear92" x1="0" y1="0" x2="1" y2="0" gradientUnits="userSpaceOnUse" gradientTransform="matrix(270.535,0,0,156.388,6789.21,8186.67)">
            <stop offset="0" style="stop-color:rgb(82,82,84);stop-opacity:1"/>
            <stop offset="0.43" style="stop-color:rgb(93,93,95);stop-opacity:1"/>
            <stop offset="1" style="stop-color:rgb(119,119,119);stop-opacity:1"/>
        </linearGradient>
        <linearGradient id="_Linear95" x1="0" y1="0" x2="1" y2="0" gradientUnits="userSpaceOnUse" gradientTransform="matrix(270.535,0,0,156.388,6789.21,8186.67)">
            <stop offset="0" style="stop-color:rgb(82,82,84);stop-opacity:1"/>
            <stop offset="0.43" style="stop-color:rgb(93,93,95);stop-opacity:1"/>
            <stop offset="1" style="stop-color:rgb(119,119,119);stop-opacity:1"/>
        </linearGradient>
        <linearGradient id="_Linear96" x1="0" y1="0" x2="1" y2="0" gradientUnits="userSpaceOnUse" gradientTransform="matrix(-1.76937e-06,40.4785,-40.4785,-1.76937e-06,47.0503,375.968)">
            <stop offset="0" style="stop-color:rgb(241,234,48);stop-opacity:1"/>
            <stop offset="0.2" style="stop-color:rgb(241,234,50);stop-opacity:1"/>
            <stop offset="0.3" style="stop-color:rgb(243,235,69);stop-opacity:1"/>
            <stop offset="0.4" style="stop-color:rgb(247,242,142);stop-opacity:1"/>
            <stop offset="0.5" style="stop-color:rgb(254,253,243);stop-opacity:1"/>
            <stop offset="0.6" style="stop-color:rgb(235,192,54);stop-opacity:1"/>
            <stop offset="1" style="stop-color:rgb(229,161,43);stop-opacity:1"/>
        </linearGradient>
        <linearGradient id="_Linear97" x1="0" y1="0" x2="1" y2="0" gradientUnits="userSpaceOnUse" gradientTransform="matrix(-1.76937e-06,40.4785,-40.4785,-1.76937e-06,139.655,375.968)">
            <stop offset="0" style="stop-color:rgb(241,234,48);stop-opacity:1"/>
            <stop offset="0.2" style="stop-color:rgb(241,234,50);stop-opacity:1"/>
            <stop offset="0.3" style="stop-color:rgb(243,235,69);stop-opacity:1"/>
            <stop offset="0.4" style="stop-color:rgb(247,242,142);stop-opacity:1"/>
            <stop offset="0.5" style="stop-color:rgb(254,253,243);stop-opacity:1"/>
            <stop offset="0.6" style="stop-color:rgb(235,192,54);stop-opacity:1"/>
            <stop offset="1" style="stop-color:rgb(229,161,43);stop-opacity:1"/>
        </linearGradient>
        <linearGradient id="_Linear98" x1="0" y1="0" x2="1" y2="0" gradientUnits="userSpaceOnUse" gradientTransform="matrix(-1.76937e-06,40.4785,-40.4785,-1.76937e-06,432.999,375.969)">
            <stop offset="0" style="stop-color:rgb(241,234,48);stop-opacity:1"/>
            <stop offset="0.2" style="stop-color:rgb(241,234,50);stop-opacity:1"/>
            <stop offset="0.3" style="stop-color:rgb(243,235,69);stop-opacity:1"/>
            <stop offset="0.4" style="stop-color:rgb(247,242,142);stop-opacity:1"/>
            <stop offset="0.5" style="stop-color:rgb(254,253,243);stop-opacity:1"/>
            <stop offset="0.6" style="stop-color:rgb(235,192,54);stop-opacity:1"/>
            <stop offset="1" style="stop-color:rgb(229,161,43);stop-opacity:1"/>
        </linearGradient>
        <linearGradient id="_Linear99" x1="0" y1="0" x2="1" y2="0" gradientUnits="userSpaceOnUse" gradientTransform="matrix(-1.76937e-06,40.4785,-40.4785,-1.76937e-06,185.739,375.968)">
            <stop offset="0" style="stop-color:rgb(241,234,48);stop-opacity:1"/>
            <stop offset="0.2" style="stop-color:rgb(241,234,50);stop-opacity:1"/>
            <stop offset="0.3" style="stop-color:rgb(243,235,69);stop-opacity:1"/>
            <stop offset="0.4" style="stop-color:rgb(247,242,142);stop-opacity:1"/>
            <stop offset="0.5" style="stop-color:rgb(254,253,243);stop-opacity:1"/>
            <stop offset="0.6" style="stop-color:rgb(235,192,54);stop-opacity:1"/>
            <stop offset="1" style="stop-color:rgb(229,161,43);stop-opacity:1"/>
        </linearGradient>
        <linearGradient id="_Linear100" x1="0" y1="0" x2="1" y2="0" gradientUnits="userSpaceOnUse" gradientTransform="matrix(-1.76937e-06,40.4785,-40.4785,-1.76937e-06,228.959,375.968)">
            <stop offset="0" style="stop-color:rgb(241,234,48);stop-opacity:1"/>
            <stop offset="0.2" style="stop-color:rgb(241,234,50);stop-opacity:1"/>
            <stop offset="0.3" style="stop-color:rgb(243,235,69);stop-opacity:1"/>
            <stop offset="0.4" style="stop-color:rgb(247,242,142);stop-opacity:1"/>
            <stop offset="0.5" style="stop-color:rgb(254,253,243);stop-opacity:1"/>
            <stop offset="0.6" style="stop-color:rgb(235,192,54);stop-opacity:1"/>
            <stop offset="1" style="stop-color:rgb(229,161,43);stop-opacity:1"/>
        </linearGradient>
        <linearGradient id="_Linear101" x1="0" y1="0" x2="1" y2="0" gradientUnits="userSpaceOnUse" gradientTransform="matrix(-1.76937e-06,40.4785,-40.4785,-1.76937e-06,476.825,375.969)">
            <stop offset="0" style="stop-color:rgb(241,234,48);stop-opacity:1"/>
            <stop offset="0.2" style="stop-color:rgb(241,234,50);stop-opacity:1"/>
            <stop offset="0.3" style="stop-color:rgb(243,235,69);stop-opacity:1"/>
            <stop offset="0.4" style="stop-color:rgb(247,242,142);stop-opacity:1"/>
            <stop offset="0.5" style="stop-color:rgb(254,253,243);stop-opacity:1"/>
            <stop offset="0.6" style="stop-color:rgb(235,192,54);stop-opacity:1"/>
            <stop offset="1" style="stop-color:rgb(229,161,43);stop-opacity:1"/>
        </linearGradient>
        <linearGradient id="_Linear102" x1="0" y1="0" x2="1" y2="0" gradientUnits="userSpaceOnUse" gradientTransform="matrix(-1.76937e-06,40.4785,-40.4785,-1.76937e-06,271.791,375.968)">
            <stop offset="0" style="stop-color:rgb(241,234,48);stop-opacity:1"/>
            <stop offset="0.2" style="stop-color:rgb(241,234,50);stop-opacity:1"/>
            <stop offset="0.3" style="stop-color:rgb(243,235,69);stop-opacity:1"/>
            <stop offset="0.4" style="stop-color:rgb(247,242,142);stop-opacity:1"/>
            <stop offset="0.5" style="stop-color:rgb(254,253,243);stop-opacity:1"/>
            <stop offset="0.6" style="stop-color:rgb(235,192,54);stop-opacity:1"/>
            <stop offset="1" style="stop-color:rgb(229,161,43);stop-opacity:1"/>
        </linearGradient>
        <linearGradient id="_Linear103" x1="0" y1="0" x2="1" y2="0" gradientUnits="userSpaceOnUse" gradientTransform="matrix(-1.76937e-06,40.4785,-40.4785,-1.76937e-06,361.555,375.968)">
            <stop offset="0" style="stop-color:rgb(241,234,48);stop-opacity:1"/>
            <stop offset="0.2" style="stop-color:rgb(241,234,50);stop-opacity:1"/>
            <stop offset="0.3" style="stop-color:rgb(243,235,69);stop-opacity:1"/>
            <stop offset="0.4" style="stop-color:rgb(247,242,142);stop-opacity:1"/>
            <stop offset="0.5" style="stop-color:rgb(254,253,243);stop-opacity:1"/>
            <stop offset="0.6" style="stop-color:rgb(235,192,54);stop-opacity:1"/>
            <stop offset="1" style="stop-color:rgb(229,161,43);stop-opacity:1"/>
        </linearGradient>
        <linearGradient id="_Linear104" x1="0" y1="0" x2="1" y2="0" gradientUnits="userSpaceOnUse" gradientTransform="matrix(-1.76937e-06,40.4785,-40.4785,-1.76937e-06,389.875,375.968)">
            <stop offset="0" style="stop-color:rgb(241,234,48);stop-opacity:1"/>
            <stop offset="0.2" style="stop-color:rgb(241,234,50);stop-opacity:1"/>
            <stop offset="0.3" style="stop-color:rgb(243,235,69);stop-opacity:1"/>
            <stop offset="0.4" style="stop-color:rgb(247,242,142);stop-opacity:1"/>
            <stop offset="0.5" style="stop-color:rgb(254,253,243);stop-opacity:1"/>
            <stop offset="0.6" style="stop-color:rgb(235,192,54);stop-opacity:1"/>
            <stop offset="1" style="stop-color:rgb(229,161,43);stop-opacity:1"/>
        </linearGradient>
        <linearGradient id="_Linear105" x1="0" y1="0" x2="1" y2="0" gradientUnits="userSpaceOnUse" gradientTransform="matrix(-1.76937e-06,40.4785,-40.4785,-1.76937e-06,516.867,375.969)">
            <stop offset="0" style="stop-color:rgb(241,234,48);stop-opacity:1"/>
            <stop offset="0.2" style="stop-color:rgb(241,234,50);stop-opacity:1"/>
            <stop offset="0.3" style="stop-color:rgb(243,235,69);stop-opacity:1"/>
            <stop offset="0.4" style="stop-color:rgb(247,242,142);stop-opacity:1"/>
            <stop offset="0.5" style="stop-color:rgb(254,253,243);stop-opacity:1"/>
            <stop offset="0.6" style="stop-color:rgb(235,192,54);stop-opacity:1"/>
            <stop offset="1" style="stop-color:rgb(229,161,43);stop-opacity:1"/>
        </linearGradient>
        <linearGradient id="_Linear106" x1="0" y1="0" x2="1" y2="0" gradientUnits="userSpaceOnUse" gradientTransform="matrix(-1.76937e-06,40.4785,-40.4785,-1.76937e-06,557.414,375.969)">
            <stop offset="0" style="stop-color:rgb(241,234,48);stop-opacity:1"/>
            <stop offset="0.2" style="stop-color:rgb(241,234,50);stop-opacity:1"/>
            <stop offset="0.3" style="stop-color:rgb(243,235,69);stop-opacity:1"/>
            <stop offset="0.4" style="stop-color:rgb(247,242,142);stop-opacity:1"/>
            <stop offset="0.5" style="stop-color:rgb(254,253,243);stop-opacity:1"/>
            <stop offset="0.6" style="stop-color:rgb(235,192,54);stop-opacity:1"/>
            <stop offset="1" style="stop-color:rgb(229,161,43);stop-opacity:1"/>
        </linearGradient>
        <linearGradient id="_Linear107" x1="0" y1="0" x2="1" y2="0" gradientUnits="userSpaceOnUse" gradientTransform="matrix(-1.76937e-06,40.4785,-40.4785,-1.76937e-06,331.66,375.968)">
            <stop offset="0" style="stop-color:rgb(241,234,48);stop-opacity:1"/>
            <stop offset="0.2" style="stop-color:rgb(241,234,50);stop-opacity:1"/>
            <stop offset="0.3" style="stop-color:rgb(243,235,69);stop-opacity:1"/>
            <stop offset="0.4" style="stop-color:rgb(247,242,142);stop-opacity:1"/>
            <stop offset="0.5" style="stop-color:rgb(254,253,243);stop-opacity:1"/>
            <stop offset="0.6" style="stop-color:rgb(235,192,54);stop-opacity:1"/>
            <stop offset="1" style="stop-color:rgb(229,161,43);stop-opacity:1"/>
        </linearGradient>
        <linearGradient id="_Linear108" x1="0" y1="0" x2="1" y2="0" gradientUnits="userSpaceOnUse" gradientTransform="matrix(-1.76937e-06,40.4785,-40.4785,-1.76937e-06,93.8623,375.968)">
            <stop offset="0" style="stop-color:rgb(241,234,48);stop-opacity:1"/>
            <stop offset="0.2" style="stop-color:rgb(241,234,50);stop-opacity:1"/>
            <stop offset="0.3" style="stop-color:rgb(243,235,69);stop-opacity:1"/>
            <stop offset="0.4" style="stop-color:rgb(247,242,142);stop-opacity:1"/>
            <stop offset="0.5" style="stop-color:rgb(254,253,243);stop-opacity:1"/>
            <stop offset="0.6" style="stop-color:rgb(235,192,54);stop-opacity:1"/>
            <stop offset="1" style="stop-color:rgb(229,161,43);stop-opacity:1"/>
        </linearGradient>
        <linearGradient id="_Linear109" x1="0" y1="0" x2="1" y2="0" gradientUnits="userSpaceOnUse" gradientTransform="matrix(270.535,0,0,156.388,6789.21,8186.67)">
            <stop offset="0" style="stop-color:rgb(82,82,84);stop-opacity:1"/>
            <stop offset="0.43" style="stop-color:rgb(93,93,95);stop-opacity:1"/>
            <stop offset="1" style="stop-color:rgb(119,119,119);stop-opacity:1"/>
        </linearGradient>
        <linearGradient id="_Linear110" x1="0" y1="0" x2="1" y2="0" gradientUnits="userSpaceOnUse" gradientTransform="matrix(270.535,0,0,156.388,6789.21,8186.67)">
            <stop offset="0" style="stop-color:rgb(82,82,84);stop-opacity:1"/>
            <stop offset="0.43" style="stop-color:rgb(93,93,95);stop-opacity:1"/>
            <stop offset="1" style="stop-color:rgb(119,119,119);stop-opacity:1"/>
        </linearGradient>
        <linearGradient id="_Linear111" x1="0" y1="0" x2="1" y2="0" gradientUnits="userSpaceOnUse" gradientTransform="matrix(270.535,0,0,156.388,6789.21,8186.67)">
            <stop offset="0" style="stop-color:rgb(82,82,84);stop-opacity:1"/>
            <stop offset="0.43" style="stop-color:rgb(93,93,95);stop-opacity:1"/>
            <stop offset="1" style="stop-color:rgb(119,119,119);stop-opacity:1"/>
        </linearGradient>
        <linearGradient id="_Linear112" x1="0" y1="0" x2="1" y2="0" gradientUnits="userSpaceOnUse" gradientTransform="matrix(270.535,0,0,156.388,6789.21,8186.67)">
            <stop offset="0" style="stop-color:rgb(82,82,84);stop-opacity:1"/>
            <stop offset="0.43" style="stop-color:rgb(93,93,95);stop-opacity:1"/>
            <stop offset="1" style="stop-color:rgb(119,119,119);stop-opacity:1"/>
        </linearGradient>
        <linearGradient id="_Linear113" x1="0" y1="0" x2="1" y2="0" gradientUnits="userSpaceOnUse" gradientTransform="matrix(270.535,0,0,156.388,6789.21,8186.67)">
            <stop offset="0" style="stop-color:rgb(82,82,84);stop-opacity:1"/>
            <stop offset="0.43" style="stop-color:rgb(93,93,95);stop-opacity:1"/>
            <stop offset="1" style="stop-color:rgb(119,119,119);stop-opacity:1"/>
        </linearGradient>
        <linearGradient id="_Linear114" x1="0" y1="0" x2="1" y2="0" gradientUnits="userSpaceOnUse" gradientTransform="matrix(270.535,0,0,156.388,6789.21,8186.67)">
            <stop offset="0" style="stop-color:rgb(82,82,84);stop-opacity:1"/>
            <stop offset="0.43" style="stop-color:rgb(93,93,95);stop-opacity:1"/>
            <stop offset="1" style="stop-color:rgb(119,119,119);stop-opacity:1"/>
        </linearGradient>
        <linearGradient id="_Linear115" x1="0" y1="0" x2="1" y2="0" gradientUnits="userSpaceOnUse" gradientTransform="matrix(270.535,0,0,156.388,6789.21,8186.67)">
            <stop offset="0" style="stop-color:rgb(82,82,84);stop-opacity:1"/>
            <stop offset="0.43" style="stop-color:rgb(93,93,95);stop-opacity:1"/>
            <stop offset="1" style="stop-color:rgb(119,119,119);stop-opacity:1"/>
        </linearGradient>
        <linearGradient id="_Linear125" x1="0" y1="0" x2="1" y2="0" gradientUnits="userSpaceOnUse" gradientTransform="matrix(2.52279,0.00495987,-0.00495987,2.52279,1032.25,787.278)">
            <stop offset="0" style="stop-color:rgb(150,150,152);stop-opacity:0.840996"/>
            <stop offset="0.59" style="stop-color:rgb(144,144,146);stop-opacity:0.840996"/>
            <stop offset="0.81" style="stop-color:rgb(132,132,133);stop-opacity:0.840996"/>
            <stop offset="1" style="stop-color:rgb(119,119,119);stop-opacity:0.840996"/>
        </linearGradient>
        <linearGradient id="_Linear127" x1="0" y1="0" x2="1" y2="0" gradientUnits="userSpaceOnUse" gradientTransform="matrix(66.985,0,0,66.985,8133.46,7333.87)">
            <stop offset="0" style="stop-color:rgb(82,82,84);stop-opacity:1"/>
            <stop offset="0.43" style="stop-color:rgb(93,93,95);stop-opacity:1"/>
            <stop offset="1" style="stop-color:rgb(119,119,119);stop-opacity:1"/>
        </linearGradient>
        <linearGradient id="_Linear132" x1="0" y1="0" x2="1" y2="0" gradientUnits="userSpaceOnUse" gradientTransform="matrix(66.985,0,0,66.985,8133.46,7333.87)">
            <stop offset="0" style="stop-color:rgb(112,112,113);stop-opacity:1"/>
            <stop offset="0.43" style="stop-color:rgb(131,131,132);stop-opacity:1"/>
            <stop offset="1" style="stop-color:rgb(173,173,173);stop-opacity:1"/>
        </linearGradient>
    </defs>
</svg>
