<?xml version="1.0" encoding="UTF-8" standalone="no"?>
<!DOCTYPE svg PUBLIC "-//W3C//DTD SVG 1.1//EN" "http://www.w3.org/Graphics/SVG/1.1/DTD/svg11.dtd">
<svg width="4544px" height="4993px" version="1.1" xmlns="http://www.w3.org/2000/svg" xmlns:xlink="http://www.w3.org/1999/xlink" xml:space="preserve" style="fill-rule:evenodd;clip-rule:evenodd;stroke-linecap:round;stroke-linejoin:round;stroke-miterlimit:2.613;">
    <g id="Round-Hole-Small">
        <path id="Art" d="M2080.67,1885.37C2082.76,1885.44 2084.8,1885.91 2086.69,1886.82C2089.57,1888.21 2091.96,1890.55 2093.42,1893.39C2094.14,1894.8 2094.63,1896.31 2094.87,1897.87C2095.1,1899.35 2095.1,1900.87 2094.87,1902.35C2094.65,1903.79 2094.21,1905.19 2093.58,1906.5C2092.81,1908.1 2091.75,1909.56 2090.47,1910.78C2089.18,1912.01 2087.67,1913 2086.03,1913.69C2084.22,1914.46 2082.26,1914.86 2080.29,1914.86C2078.32,1914.86 2076.36,1914.46 2074.55,1913.69C2072.91,1913 2071.41,1912.01 2070.12,1910.78C2068.83,1909.56 2067.77,1908.1 2067,1906.5C2066.37,1905.19 2065.93,1903.79 2065.71,1902.35C2065.49,1900.87 2065.49,1899.35 2065.71,1897.87C2065.95,1896.31 2066.44,1894.8 2067.16,1893.4C2068.62,1890.55 2071.01,1888.21 2073.9,1886.82C2075.78,1885.91 2077.82,1885.44 2079.91,1885.37C2080.29,1885.36 2080.29,1885.36 2080.67,1885.37ZM2080.07,1891.65C2078.88,1891.69 2077.71,1891.96 2076.63,1892.48C2074.27,1893.62 2072.53,1895.84 2072,1898.4C2071.81,1899.32 2071.78,1900.26 2071.9,1901.19C2072,1902.02 2072.23,1902.83 2072.58,1903.59C2073,1904.52 2073.59,1905.37 2074.31,1906.09C2075.03,1906.81 2075.88,1907.4 2076.81,1907.82C2077.84,1908.29 2078.95,1908.54 2080.07,1908.57C2081.2,1908.6 2082.34,1908.4 2083.39,1907.99C2085.82,1907.03 2087.72,1904.94 2088.43,1902.43C2088.69,1901.53 2088.79,1900.6 2088.74,1899.67C2088.7,1898.83 2088.53,1897.99 2088.24,1897.2C2087.91,1896.31 2087.43,1895.47 2086.82,1894.73C2086.17,1893.94 2085.38,1893.28 2084.5,1892.77C2083.41,1892.14 2082.2,1891.78 2080.94,1891.67C2080.65,1891.65 2080.36,1891.65 2080.07,1891.65Z" style="stroke:white;stroke-width:2.23px;stroke-linecap:butt;stroke-miterlimit:1.41421;"/>
    </g>
    <g id="Round-Hole-Small1">
        <path id="Art1" d="M2080.67,2451.5C2082.76,2451.58 2084.8,2452.04 2086.69,2452.95C2089.57,2454.35 2091.96,2456.68 2093.42,2459.53C2094.14,2460.93 2094.63,2462.45 2094.87,2464C2095.1,2465.48 2095.1,2467 2094.87,2468.49C2094.65,2469.92 2094.21,2471.33 2093.58,2472.64C2092.81,2474.24 2091.75,2475.69 2090.47,2476.92C2089.18,2478.14 2087.67,2479.14 2086.03,2479.83C2084.22,2480.6 2082.26,2480.99 2080.29,2480.99C2078.32,2480.99 2076.36,2480.6 2074.55,2479.83C2072.91,2479.14 2071.41,2478.14 2070.12,2476.92C2068.83,2475.69 2067.77,2474.24 2067,2472.64C2066.37,2471.33 2065.93,2469.92 2065.71,2468.49C2065.49,2467 2065.49,2465.48 2065.71,2464C2065.95,2462.45 2066.44,2460.93 2067.16,2459.53C2068.62,2456.68 2071.01,2454.35 2073.9,2452.95C2075.78,2452.04 2077.82,2451.58 2079.91,2451.5C2080.29,2451.49 2080.29,2451.49 2080.67,2451.5ZM2080.07,2457.78C2078.88,2457.83 2077.71,2458.09 2076.63,2458.61C2074.27,2459.75 2072.53,2461.97 2072,2464.54C2071.81,2465.45 2071.78,2466.4 2071.9,2467.32C2072,2468.15 2072.23,2468.96 2072.58,2469.72C2073,2470.65 2073.59,2471.5 2074.31,2472.22C2075.03,2472.95 2075.88,2473.54 2076.81,2473.96C2077.84,2474.42 2078.95,2474.67 2080.07,2474.7C2081.2,2474.73 2082.34,2474.53 2083.39,2474.12C2085.82,2473.16 2087.72,2471.07 2088.43,2468.56C2088.69,2467.67 2088.79,2466.73 2088.74,2465.81C2088.7,2464.96 2088.53,2464.13 2088.24,2463.34C2087.91,2462.44 2087.43,2461.6 2086.82,2460.86C2086.17,2460.08 2085.38,2459.41 2084.5,2458.9C2083.41,2458.27 2082.2,2457.92 2080.94,2457.81C2080.65,2457.79 2080.36,2457.78 2080.07,2457.78Z" style="stroke:white;stroke-width:2.23px;stroke-linecap:butt;stroke-miterlimit:1.41421;"/>
    </g>
    <g id="Round-Hole-Small2">
        <path id="Art2" d="M2170.99,1468.62C2173.08,1468.7 2175.12,1469.16 2177.01,1470.08C2179.89,1471.47 2182.28,1473.8 2183.74,1476.65C2184.46,1478.05 2184.95,1479.57 2185.19,1481.12C2185.41,1482.61 2185.41,1484.12 2185.19,1485.61C2184.97,1487.04 2184.53,1488.45 2183.9,1489.76C2183.13,1491.36 2182.07,1492.81 2180.78,1494.04C2179.49,1495.27 2177.99,1496.26 2176.35,1496.95C2174.54,1497.72 2172.58,1498.11 2170.61,1498.11C2168.64,1498.11 2166.68,1497.72 2164.87,1496.95C2163.23,1496.26 2161.72,1495.27 2160.44,1494.04C2159.15,1492.81 2158.09,1491.36 2157.32,1489.76C2156.69,1488.45 2156.25,1487.05 2156.03,1485.61C2155.8,1484.12 2155.8,1482.61 2156.03,1481.12C2156.27,1479.57 2156.76,1478.05 2157.48,1476.65C2158.94,1473.8 2161.33,1471.47 2164.21,1470.08C2166.1,1469.16 2168.14,1468.7 2170.23,1468.62C2170.61,1468.62 2170.61,1468.62 2170.99,1468.62ZM2170.39,1474.91C2169.19,1474.95 2168.03,1475.21 2166.95,1475.74C2164.59,1476.87 2162.85,1479.09 2162.32,1481.66C2162.13,1482.57 2162.1,1483.52 2162.22,1484.44C2162.32,1485.27 2162.55,1486.08 2162.89,1486.84C2163.32,1487.77 2163.91,1488.62 2164.63,1489.35C2165.35,1490.07 2166.2,1490.66 2167.13,1491.08C2168.15,1491.54 2169.26,1491.8 2170.39,1491.82C2171.52,1491.85 2172.66,1491.66 2173.71,1491.24C2176.14,1490.28 2178.04,1488.19 2178.75,1485.68C2179,1484.79 2179.11,1483.86 2179.06,1482.93C2179.02,1482.09 2178.85,1481.25 2178.56,1480.46C2178.23,1479.56 2177.75,1478.72 2177.14,1477.99C2176.49,1477.2 2175.7,1476.53 2174.82,1476.02C2173.72,1475.39 2172.52,1475.04 2171.26,1474.93C2170.97,1474.91 2170.68,1474.9 2170.39,1474.91Z" style="stroke:white;stroke-width:2.23px;stroke-linecap:butt;stroke-miterlimit:1.41421;"/>
    </g>
    <g id="Round-Hole-Small3">
        <path id="Art3" d="M2170.99,2625.83C2173.08,2625.91 2175.12,2626.37 2177.01,2627.28C2179.89,2628.68 2182.28,2631.01 2183.74,2633.86C2184.46,2635.26 2184.95,2636.77 2185.19,2638.33C2185.41,2639.81 2185.41,2641.33 2185.19,2642.81C2184.97,2644.25 2184.53,2645.66 2183.9,2646.97C2183.13,2648.57 2182.07,2650.02 2180.78,2651.25C2179.49,2652.47 2177.99,2653.46 2176.35,2654.16C2174.54,2654.93 2172.58,2655.32 2170.61,2655.32C2168.64,2655.32 2166.68,2654.93 2164.87,2654.16C2163.23,2653.46 2161.72,2652.47 2160.44,2651.25C2159.15,2650.02 2158.09,2648.57 2157.32,2646.97C2156.69,2645.66 2156.25,2644.25 2156.03,2642.81C2155.8,2641.33 2155.8,2639.81 2156.03,2638.33C2156.27,2636.78 2156.76,2635.26 2157.48,2633.86C2158.93,2631.01 2161.33,2628.67 2164.21,2627.28C2166.1,2626.37 2168.14,2625.91 2170.23,2625.83C2170.61,2625.83 2170.61,2625.83 2170.99,2625.83ZM2170.39,2632.11C2169.19,2632.16 2168.03,2632.42 2166.95,2632.94C2164.59,2634.08 2162.85,2636.3 2162.32,2638.87C2162.13,2639.78 2162.1,2640.73 2162.22,2641.65C2162.32,2642.48 2162.55,2643.29 2162.89,2644.05C2163.31,2644.98 2163.91,2645.83 2164.63,2646.55C2165.35,2647.28 2166.2,2647.87 2167.13,2648.29C2168.15,2648.75 2169.26,2649 2170.39,2649.03C2171.52,2649.06 2172.65,2648.87 2173.71,2648.45C2176.14,2647.49 2178.04,2645.4 2178.75,2642.89C2179,2642 2179.11,2641.06 2179.06,2640.14C2179.02,2639.29 2178.85,2638.46 2178.56,2637.66C2178.23,2636.77 2177.75,2635.93 2177.14,2635.19C2176.49,2634.41 2175.7,2633.74 2174.82,2633.23C2173.72,2632.6 2172.52,2632.25 2171.26,2632.14C2170.97,2632.12 2170.68,2632.11 2170.39,2632.11Z" style="stroke:white;stroke-width:2.23px;stroke-linecap:butt;stroke-miterlimit:1.41421;"/>
    </g>
    <g id="Round-Hole-Small4">
        <path id="Art4" d="M2170.99,2655.49C2173.08,2655.56 2175.12,2656.03 2177,2656.94C2179.89,2658.33 2182.28,2660.66 2183.74,2663.51C2184.46,2664.92 2184.95,2666.43 2185.18,2667.99C2185.41,2669.47 2185.41,2670.99 2185.18,2672.47C2184.97,2673.91 2184.53,2675.31 2183.9,2676.62C2183.13,2678.22 2182.07,2679.68 2180.78,2680.9C2179.49,2682.13 2177.99,2683.12 2176.35,2683.82C2174.54,2684.58 2172.58,2684.98 2170.61,2684.98C2168.64,2684.98 2166.68,2684.58 2164.87,2683.82C2163.23,2683.12 2161.72,2682.13 2160.43,2680.9C2159.15,2679.68 2158.09,2678.22 2157.32,2676.62C2156.69,2675.31 2156.25,2673.91 2156.03,2672.47C2155.8,2670.99 2155.8,2669.47 2156.03,2667.99C2156.27,2666.43 2156.76,2664.92 2157.48,2663.52C2158.93,2660.67 2161.33,2658.33 2164.21,2656.94C2166.1,2656.03 2168.14,2655.56 2170.23,2655.49C2170.61,2655.48 2170.61,2655.48 2170.99,2655.49ZM2170.39,2661.77C2169.19,2661.82 2168.03,2662.08 2166.95,2662.6C2164.59,2663.74 2162.84,2665.96 2162.32,2668.52C2162.13,2669.44 2162.1,2670.38 2162.22,2671.31C2162.32,2672.14 2162.55,2672.95 2162.89,2673.71C2163.31,2674.64 2163.91,2675.49 2164.63,2676.21C2165.35,2676.93 2166.2,2677.52 2167.13,2677.94C2168.15,2678.41 2169.26,2678.66 2170.39,2678.69C2171.52,2678.72 2172.65,2678.52 2173.71,2678.11C2176.13,2677.14 2178.03,2675.06 2178.75,2672.55C2179,2671.65 2179.11,2670.72 2179.06,2669.79C2179.02,2668.95 2178.85,2668.11 2178.56,2667.32C2178.23,2666.43 2177.74,2665.59 2177.14,2664.85C2176.49,2664.07 2175.7,2663.39 2174.82,2662.89C2173.72,2662.26 2172.52,2661.9 2171.26,2661.79C2170.97,2661.77 2170.68,2661.77 2170.39,2661.77Z" style="stroke:white;stroke-width:2.23px;stroke-linecap:butt;stroke-miterlimit:1.41421;"/>
    </g>
    <g id="Round-Hole-Small5">
        <path id="Art5" d="M2047.02,2809.28C2049.11,2809.36 2051.15,2809.82 2053.03,2810.73C2055.92,2812.12 2058.31,2814.46 2059.77,2817.31C2060.49,2818.71 2060.98,2820.22 2061.22,2821.78C2061.44,2823.26 2061.44,2824.78 2061.22,2826.26C2060.99,2827.7 2060.56,2829.11 2059.93,2830.42C2059.16,2832.01 2058.1,2833.47 2056.81,2834.7C2055.52,2835.92 2054.02,2836.91 2052.38,2837.61C2050.57,2838.38 2048.61,2838.77 2046.64,2838.77C2044.67,2838.77 2042.71,2838.38 2040.9,2837.61C2039.26,2836.91 2037.75,2835.92 2036.46,2834.7C2035.18,2833.47 2034.12,2832.01 2033.35,2830.42C2032.72,2829.11 2032.28,2827.7 2032.06,2826.26C2031.83,2824.78 2031.83,2823.26 2032.06,2821.78C2032.3,2820.22 2032.79,2818.71 2033.51,2817.31C2034.96,2814.46 2037.36,2812.12 2040.24,2810.73C2042.13,2809.82 2044.17,2809.36 2046.26,2809.28C2046.64,2809.27 2046.63,2809.27 2047.02,2809.28ZM2046.42,2815.56C2045.22,2815.61 2044.05,2815.87 2042.97,2816.39C2040.62,2817.53 2038.87,2819.75 2038.35,2822.32C2038.16,2823.23 2038.13,2824.18 2038.24,2825.1C2038.35,2825.93 2038.58,2826.74 2038.92,2827.5C2039.34,2828.43 2039.93,2829.28 2040.66,2830C2041.38,2830.72 2042.23,2831.32 2043.16,2831.74C2044.18,2832.2 2045.29,2832.45 2046.42,2832.48C2047.55,2832.51 2048.68,2832.31 2049.74,2831.9C2052.16,2830.94 2054.06,2828.85 2054.78,2826.34C2055.03,2825.45 2055.14,2824.51 2055.09,2823.59C2055.05,2822.74 2054.88,2821.91 2054.59,2821.11C2054.26,2820.22 2053.78,2819.38 2053.17,2818.64C2052.52,2817.86 2051.73,2817.19 2050.85,2816.68C2049.75,2816.05 2048.55,2815.7 2047.29,2815.59C2047,2815.57 2046.71,2815.56 2046.42,2815.56Z" style="stroke:white;stroke-width:2.23px;stroke-linecap:butt;stroke-miterlimit:1.41421;"/>
    </g>
    <g id="Round-Hole-Small6">
        <path id="Art6" d="M1787.68,602.368C1789.77,602.445 1791.81,602.91 1793.7,603.821C1796.58,605.213 1798.98,607.546 1800.44,610.396C1801.15,611.797 1801.64,613.312 1801.88,614.868C1802.11,616.351 1802.11,617.869 1801.88,619.352C1801.66,620.79 1801.23,622.194 1800.6,623.505C1799.83,625.103 1798.76,626.559 1797.48,627.784C1796.19,629.011 1794.68,630.002 1793.05,630.696C1791.23,631.463 1789.27,631.857 1787.31,631.857C1785.34,631.857 1783.38,631.463 1781.56,630.696C1779.93,630.002 1778.42,629.011 1777.13,627.784C1775.85,626.559 1774.79,625.104 1774.02,623.505C1773.38,622.194 1772.95,620.79 1772.73,619.352C1772.5,617.869 1772.5,616.351 1772.73,614.868C1772.97,613.312 1773.46,611.798 1774.17,610.398C1775.63,607.547 1778.03,605.212 1780.91,603.821C1782.8,602.91 1784.84,602.445 1786.93,602.368C1787.31,602.363 1787.3,602.363 1787.68,602.368ZM1787.09,608.652C1785.89,608.696 1784.72,608.96 1783.64,609.482C1781.29,610.619 1779.54,612.839 1779.02,615.404C1778.83,616.318 1778.79,617.264 1778.91,618.19C1779.02,619.017 1779.25,619.828 1779.59,620.588C1780.01,621.519 1780.6,622.37 1781.32,623.092C1782.04,623.813 1782.89,624.405 1783.83,624.824C1784.85,625.287 1785.96,625.541 1787.09,625.569C1788.22,625.598 1789.35,625.403 1790.4,624.987C1792.83,624.027 1794.73,621.941 1795.45,619.427C1795.7,618.534 1795.8,617.6 1795.76,616.673C1795.71,615.831 1795.54,614.995 1795.25,614.203C1794.92,613.306 1794.44,612.467 1793.83,611.731C1793.19,610.946 1792.4,610.277 1791.52,609.77C1790.42,609.141 1789.21,608.785 1787.96,608.673C1787.67,608.655 1787.38,608.648 1787.09,608.652Z" style="fill-rule:nonzero;stroke:white;stroke-width:2.23px;stroke-linecap:butt;stroke-miterlimit:1.41421;"/>
    </g>
    <g id="Round-Hole-Small7">
        <path id="Art7" d="M1928.98,753.851C1931.07,753.928 1933.11,754.393 1935,755.304C1937.88,756.696 1940.27,759.029 1941.73,761.879C1942.45,763.28 1942.94,764.795 1943.18,766.351C1943.4,767.834 1943.4,769.352 1943.18,770.835C1942.96,772.273 1942.52,773.677 1941.89,774.988C1941.12,776.586 1940.06,778.042 1938.77,779.267C1937.49,780.494 1935.98,781.485 1934.34,782.179C1932.53,782.946 1930.57,783.34 1928.6,783.34C1926.63,783.34 1924.67,782.946 1922.86,782.179C1921.22,781.485 1919.71,780.494 1918.43,779.267C1917.14,778.042 1916.08,776.586 1915.31,774.988C1914.68,773.677 1914.24,772.273 1914.02,770.835C1913.8,769.352 1913.8,767.834 1914.02,766.351C1914.26,764.795 1914.75,763.281 1915.47,761.88C1916.93,759.03 1919.32,756.695 1922.2,755.304C1924.09,754.393 1926.13,753.928 1928.22,753.851C1928.6,753.846 1928.6,753.846 1928.98,753.851ZM1928.38,760.134C1927.18,760.179 1926.02,760.443 1924.94,760.964C1922.58,762.101 1920.84,764.322 1920.31,766.887C1920.12,767.801 1920.09,768.747 1920.21,769.673C1920.31,770.5 1920.54,771.311 1920.88,772.071C1921.31,773.001 1921.9,773.853 1922.62,774.575C1923.34,775.296 1924.19,775.888 1925.12,776.307C1926.14,776.77 1927.26,777.024 1928.38,777.052C1929.51,777.081 1930.65,776.886 1931.7,776.47C1934.13,775.509 1936.03,773.424 1936.74,770.91C1936.99,770.017 1937.1,769.083 1937.05,768.156C1937.01,767.314 1936.84,766.478 1936.55,765.686C1936.22,764.789 1935.74,763.95 1935.13,763.214C1934.48,762.429 1933.69,761.759 1932.81,761.253C1931.71,760.624 1930.51,760.268 1929.25,760.156C1928.96,760.138 1928.67,760.13 1928.38,760.134Z" style="fill-rule:nonzero;stroke:white;stroke-width:2.23px;stroke-linecap:butt;stroke-miterlimit:1.41421;"/>
    </g>
</svg>
