<?xml version="1.0" encoding="UTF-8" standalone="no"?>
<!DOCTYPE svg PUBLIC "-//W3C//DTD SVG 1.1//EN" "http://www.w3.org/Graphics/SVG/1.1/DTD/svg11.dtd">
<svg width="4544px" height="4993px" version="1.1" xmlns="http://www.w3.org/2000/svg" xmlns:xlink="http://www.w3.org/1999/xlink" xml:space="preserve" style="fill-rule:evenodd;clip-rule:evenodd;stroke-linecap:round;stroke-linejoin:round;stroke-miterlimit:2.613;">
    <g id="MAGNET">
        <path id="Art-Bleed" d="M394.334,1698.99C356.154,1733.85 353.446,1793.05 388.306,1831.23C423.17,1869.42 482.367,1872.12 520.547,1837.26C558.748,1802.41 561.435,1743.2 526.575,1705.02C491.732,1666.83 432.515,1664.13 394.334,1698.99" style="fill:none;stroke:black;stroke-width:7.42px;stroke-miterlimit:10;"/>
    </g>
    <g id="MAGNET1">
        <path id="Art-Bleed1" d="M1284.11,2274.97C1232.41,2274.97 1190.51,2316.88 1190.51,2368.58C1190.52,2420.29 1232.42,2462.18 1284.12,2462.18C1335.83,2462.19 1377.73,2420.27 1377.73,2368.57C1377.73,2316.87 1335.82,2274.96 1284.11,2274.97" style="fill:none;stroke:black;stroke-width:7.42px;stroke-miterlimit:10;"/>
    </g>
    <g id="MAGNET2">
        <path id="Art-Bleed2" d="M1815.48,2586.24C1790.56,2540.94 1733.65,2524.41 1688.35,2549.33C1643.04,2574.25 1626.52,2631.16 1651.44,2676.46C1676.34,2721.77 1733.27,2738.29 1778.57,2713.37C1823.87,2688.47 1840.4,2631.54 1815.48,2586.24" style="fill:none;stroke:black;stroke-width:7.42px;stroke-miterlimit:10;"/>
    </g>
    <g id="MAGNET3">
        <path id="Art-Bleed3" d="M1637.48,2853.38C1585.78,2853.39 1543.87,2895.29 1543.88,2946.99C1543.88,2998.7 1585.79,3040.6 1637.49,3040.59C1689.19,3040.61 1731.1,2998.68 1731.09,2946.98C1731.09,2895.29 1689.18,2853.37 1637.48,2853.38" style="fill:none;stroke:black;stroke-width:7.42px;stroke-miterlimit:10;"/>
    </g>
    <g id="Round-Hole-Small">
        <path id="Art" d="M2080.67,1885.37C2082.76,1885.44 2084.8,1885.91 2086.69,1886.82C2089.57,1888.21 2091.96,1890.55 2093.42,1893.39C2094.14,1894.8 2094.63,1896.31 2094.87,1897.87C2095.1,1899.35 2095.1,1900.87 2094.87,1902.35C2094.65,1903.79 2094.21,1905.19 2093.58,1906.5C2092.81,1908.1 2091.75,1909.56 2090.47,1910.78C2089.18,1912.01 2087.67,1913 2086.03,1913.69C2084.22,1914.46 2082.26,1914.86 2080.29,1914.86C2078.32,1914.86 2076.36,1914.46 2074.55,1913.69C2072.91,1913 2071.41,1912.01 2070.12,1910.78C2068.83,1909.56 2067.77,1908.1 2067,1906.5C2066.37,1905.19 2065.93,1903.79 2065.71,1902.35C2065.49,1900.87 2065.49,1899.35 2065.71,1897.87C2065.95,1896.31 2066.44,1894.8 2067.16,1893.4C2068.62,1890.55 2071.01,1888.21 2073.9,1886.82C2075.78,1885.91 2077.82,1885.44 2079.91,1885.37C2080.29,1885.36 2080.29,1885.36 2080.67,1885.37ZM2080.07,1891.65C2078.88,1891.69 2077.71,1891.96 2076.63,1892.48C2074.27,1893.62 2072.53,1895.84 2072,1898.4C2071.81,1899.32 2071.78,1900.26 2071.9,1901.19C2072,1902.02 2072.23,1902.83 2072.58,1903.59C2073,1904.52 2073.59,1905.37 2074.31,1906.09C2075.03,1906.81 2075.88,1907.4 2076.81,1907.82C2077.84,1908.29 2078.95,1908.54 2080.07,1908.57C2081.2,1908.6 2082.34,1908.4 2083.39,1907.99C2085.82,1907.03 2087.72,1904.94 2088.43,1902.43C2088.69,1901.53 2088.79,1900.6 2088.74,1899.67C2088.7,1898.83 2088.53,1897.99 2088.24,1897.2C2087.91,1896.31 2087.43,1895.47 2086.82,1894.73C2086.17,1893.94 2085.38,1893.28 2084.5,1892.77C2083.41,1892.14 2082.2,1891.78 2080.94,1891.67C2080.65,1891.65 2080.36,1891.65 2080.07,1891.65Z" style="stroke:white;stroke-width:2.23px;stroke-linecap:butt;stroke-miterlimit:1.41421;"/>
    </g>
    <g id="Round-Hole-Small1">
        <path id="Art1" d="M2080.67,2451.5C2082.76,2451.58 2084.8,2452.04 2086.69,2452.95C2089.57,2454.35 2091.96,2456.68 2093.42,2459.53C2094.14,2460.93 2094.63,2462.45 2094.87,2464C2095.1,2465.48 2095.1,2467 2094.87,2468.49C2094.65,2469.92 2094.21,2471.33 2093.58,2472.64C2092.81,2474.24 2091.75,2475.69 2090.47,2476.92C2089.18,2478.14 2087.67,2479.14 2086.03,2479.83C2084.22,2480.6 2082.26,2480.99 2080.29,2480.99C2078.32,2480.99 2076.36,2480.6 2074.55,2479.83C2072.91,2479.14 2071.41,2478.14 2070.12,2476.92C2068.83,2475.69 2067.77,2474.24 2067,2472.64C2066.37,2471.33 2065.93,2469.92 2065.71,2468.49C2065.49,2467 2065.49,2465.48 2065.71,2464C2065.95,2462.45 2066.44,2460.93 2067.16,2459.53C2068.62,2456.68 2071.01,2454.35 2073.9,2452.95C2075.78,2452.04 2077.82,2451.58 2079.91,2451.5C2080.29,2451.49 2080.29,2451.49 2080.67,2451.5ZM2080.07,2457.78C2078.88,2457.83 2077.71,2458.09 2076.63,2458.61C2074.27,2459.75 2072.53,2461.97 2072,2464.54C2071.81,2465.45 2071.78,2466.4 2071.9,2467.32C2072,2468.15 2072.23,2468.96 2072.58,2469.72C2073,2470.65 2073.59,2471.5 2074.31,2472.22C2075.03,2472.95 2075.88,2473.54 2076.81,2473.96C2077.84,2474.42 2078.95,2474.67 2080.07,2474.7C2081.2,2474.73 2082.34,2474.53 2083.39,2474.12C2085.82,2473.16 2087.72,2471.07 2088.43,2468.56C2088.69,2467.67 2088.79,2466.73 2088.74,2465.81C2088.7,2464.96 2088.53,2464.13 2088.24,2463.34C2087.91,2462.44 2087.43,2461.6 2086.82,2460.86C2086.17,2460.08 2085.38,2459.41 2084.5,2458.9C2083.41,2458.27 2082.2,2457.92 2080.94,2457.81C2080.65,2457.79 2080.36,2457.78 2080.07,2457.78Z" style="stroke:white;stroke-width:2.23px;stroke-linecap:butt;stroke-miterlimit:1.41421;"/>
    </g>
    <g id="Round-Hole-Small2">
        <path id="Art2" d="M2170.99,1468.62C2173.08,1468.7 2175.12,1469.16 2177.01,1470.08C2179.89,1471.47 2182.28,1473.8 2183.74,1476.65C2184.46,1478.05 2184.95,1479.57 2185.19,1481.12C2185.41,1482.61 2185.41,1484.12 2185.19,1485.61C2184.97,1487.04 2184.53,1488.45 2183.9,1489.76C2183.13,1491.36 2182.07,1492.81 2180.78,1494.04C2179.49,1495.27 2177.99,1496.26 2176.35,1496.95C2174.54,1497.72 2172.58,1498.11 2170.61,1498.11C2168.64,1498.11 2166.68,1497.72 2164.87,1496.95C2163.23,1496.26 2161.72,1495.27 2160.44,1494.04C2159.15,1492.81 2158.09,1491.36 2157.32,1489.76C2156.69,1488.45 2156.25,1487.05 2156.03,1485.61C2155.8,1484.12 2155.8,1482.61 2156.03,1481.12C2156.27,1479.57 2156.76,1478.05 2157.48,1476.65C2158.94,1473.8 2161.33,1471.47 2164.21,1470.08C2166.1,1469.16 2168.14,1468.7 2170.23,1468.62C2170.61,1468.62 2170.61,1468.62 2170.99,1468.62ZM2170.39,1474.91C2169.19,1474.95 2168.03,1475.21 2166.95,1475.74C2164.59,1476.87 2162.85,1479.09 2162.32,1481.66C2162.13,1482.57 2162.1,1483.52 2162.22,1484.44C2162.32,1485.27 2162.55,1486.08 2162.89,1486.84C2163.32,1487.77 2163.91,1488.62 2164.63,1489.35C2165.35,1490.07 2166.2,1490.66 2167.13,1491.08C2168.15,1491.54 2169.26,1491.8 2170.39,1491.82C2171.52,1491.85 2172.66,1491.66 2173.71,1491.24C2176.14,1490.28 2178.04,1488.19 2178.75,1485.68C2179,1484.79 2179.11,1483.86 2179.06,1482.93C2179.02,1482.09 2178.85,1481.25 2178.56,1480.46C2178.23,1479.56 2177.75,1478.72 2177.14,1477.99C2176.49,1477.2 2175.7,1476.53 2174.82,1476.02C2173.72,1475.39 2172.52,1475.04 2171.26,1474.93C2170.97,1474.91 2170.68,1474.9 2170.39,1474.91Z" style="stroke:white;stroke-width:2.23px;stroke-linecap:butt;stroke-miterlimit:1.41421;"/>
    </g>
    <g id="Round-Hole-Small3">
        <path id="Art3" d="M2170.99,2625.83C2173.08,2625.91 2175.12,2626.37 2177.01,2627.28C2179.89,2628.68 2182.28,2631.01 2183.74,2633.86C2184.46,2635.26 2184.95,2636.77 2185.19,2638.33C2185.41,2639.81 2185.41,2641.33 2185.19,2642.81C2184.97,2644.25 2184.53,2645.66 2183.9,2646.97C2183.13,2648.57 2182.07,2650.02 2180.78,2651.25C2179.49,2652.47 2177.99,2653.46 2176.35,2654.16C2174.54,2654.93 2172.58,2655.32 2170.61,2655.32C2168.64,2655.32 2166.68,2654.93 2164.87,2654.16C2163.23,2653.46 2161.72,2652.47 2160.44,2651.25C2159.15,2650.02 2158.09,2648.57 2157.32,2646.97C2156.69,2645.66 2156.25,2644.25 2156.03,2642.81C2155.8,2641.33 2155.8,2639.81 2156.03,2638.33C2156.27,2636.78 2156.76,2635.26 2157.48,2633.86C2158.93,2631.01 2161.33,2628.67 2164.21,2627.28C2166.1,2626.37 2168.14,2625.91 2170.23,2625.83C2170.61,2625.83 2170.61,2625.83 2170.99,2625.83ZM2170.39,2632.11C2169.19,2632.16 2168.03,2632.42 2166.95,2632.94C2164.59,2634.08 2162.85,2636.3 2162.32,2638.87C2162.13,2639.78 2162.1,2640.73 2162.22,2641.65C2162.32,2642.48 2162.55,2643.29 2162.89,2644.05C2163.31,2644.98 2163.91,2645.83 2164.63,2646.55C2165.35,2647.28 2166.2,2647.87 2167.13,2648.29C2168.15,2648.75 2169.26,2649 2170.39,2649.03C2171.52,2649.06 2172.65,2648.87 2173.71,2648.45C2176.14,2647.49 2178.04,2645.4 2178.75,2642.89C2179,2642 2179.11,2641.06 2179.06,2640.14C2179.02,2639.29 2178.85,2638.46 2178.56,2637.66C2178.23,2636.77 2177.75,2635.93 2177.14,2635.19C2176.49,2634.41 2175.7,2633.74 2174.82,2633.23C2173.72,2632.6 2172.52,2632.25 2171.26,2632.14C2170.97,2632.12 2170.68,2632.11 2170.39,2632.11Z" style="stroke:white;stroke-width:2.23px;stroke-linecap:butt;stroke-miterlimit:1.41421;"/>
    </g>
    <g id="Round-Hole-Small4">
        <path id="Art4" d="M2170.99,2655.49C2173.08,2655.56 2175.12,2656.03 2177,2656.94C2179.89,2658.33 2182.28,2660.66 2183.74,2663.51C2184.46,2664.92 2184.95,2666.43 2185.18,2667.99C2185.41,2669.47 2185.41,2670.99 2185.18,2672.47C2184.97,2673.91 2184.53,2675.31 2183.9,2676.62C2183.13,2678.22 2182.07,2679.68 2180.78,2680.9C2179.49,2682.13 2177.99,2683.12 2176.35,2683.82C2174.54,2684.58 2172.58,2684.98 2170.61,2684.98C2168.64,2684.98 2166.68,2684.58 2164.87,2683.82C2163.23,2683.12 2161.72,2682.13 2160.43,2680.9C2159.15,2679.68 2158.09,2678.22 2157.32,2676.62C2156.69,2675.31 2156.25,2673.91 2156.03,2672.47C2155.8,2670.99 2155.8,2669.47 2156.03,2667.99C2156.27,2666.43 2156.76,2664.92 2157.48,2663.52C2158.93,2660.67 2161.33,2658.33 2164.21,2656.94C2166.1,2656.03 2168.14,2655.56 2170.23,2655.49C2170.61,2655.48 2170.61,2655.48 2170.99,2655.49ZM2170.39,2661.77C2169.19,2661.82 2168.03,2662.08 2166.95,2662.6C2164.59,2663.74 2162.84,2665.96 2162.32,2668.52C2162.13,2669.44 2162.1,2670.38 2162.22,2671.31C2162.32,2672.14 2162.55,2672.95 2162.89,2673.71C2163.31,2674.64 2163.91,2675.49 2164.63,2676.21C2165.35,2676.93 2166.2,2677.52 2167.13,2677.94C2168.15,2678.41 2169.26,2678.66 2170.39,2678.69C2171.52,2678.72 2172.65,2678.52 2173.71,2678.11C2176.13,2677.14 2178.03,2675.06 2178.75,2672.55C2179,2671.65 2179.11,2670.72 2179.06,2669.79C2179.02,2668.95 2178.85,2668.11 2178.56,2667.32C2178.23,2666.43 2177.74,2665.59 2177.14,2664.85C2176.49,2664.07 2175.7,2663.39 2174.82,2662.89C2173.72,2662.26 2172.52,2661.9 2171.26,2661.79C2170.97,2661.77 2170.68,2661.77 2170.39,2661.77Z" style="stroke:white;stroke-width:2.23px;stroke-linecap:butt;stroke-miterlimit:1.41421;"/>
    </g>
    <g id="Round-Hole-Small5">
        <path id="Art5" d="M2047.02,2809.28C2049.11,2809.36 2051.15,2809.82 2053.03,2810.73C2055.92,2812.12 2058.31,2814.46 2059.77,2817.31C2060.49,2818.71 2060.98,2820.22 2061.22,2821.78C2061.44,2823.26 2061.44,2824.78 2061.22,2826.26C2060.99,2827.7 2060.56,2829.11 2059.93,2830.42C2059.16,2832.01 2058.1,2833.47 2056.81,2834.7C2055.52,2835.92 2054.02,2836.91 2052.38,2837.61C2050.57,2838.38 2048.61,2838.77 2046.64,2838.77C2044.67,2838.77 2042.71,2838.38 2040.9,2837.61C2039.26,2836.91 2037.75,2835.92 2036.46,2834.7C2035.18,2833.47 2034.12,2832.01 2033.35,2830.42C2032.72,2829.11 2032.28,2827.7 2032.06,2826.26C2031.83,2824.78 2031.83,2823.26 2032.06,2821.78C2032.3,2820.22 2032.79,2818.71 2033.51,2817.31C2034.96,2814.46 2037.36,2812.12 2040.24,2810.73C2042.13,2809.82 2044.17,2809.36 2046.26,2809.28C2046.64,2809.27 2046.63,2809.27 2047.02,2809.28ZM2046.42,2815.56C2045.22,2815.61 2044.05,2815.87 2042.97,2816.39C2040.62,2817.53 2038.87,2819.75 2038.35,2822.32C2038.16,2823.23 2038.13,2824.18 2038.24,2825.1C2038.35,2825.93 2038.58,2826.74 2038.92,2827.5C2039.34,2828.43 2039.93,2829.28 2040.66,2830C2041.38,2830.72 2042.23,2831.32 2043.16,2831.74C2044.18,2832.2 2045.29,2832.45 2046.42,2832.48C2047.55,2832.51 2048.68,2832.31 2049.74,2831.9C2052.16,2830.94 2054.06,2828.85 2054.78,2826.34C2055.03,2825.45 2055.14,2824.51 2055.09,2823.59C2055.05,2822.74 2054.88,2821.91 2054.59,2821.11C2054.26,2820.22 2053.78,2819.38 2053.17,2818.64C2052.52,2817.86 2051.73,2817.19 2050.85,2816.68C2049.75,2816.05 2048.55,2815.7 2047.29,2815.59C2047,2815.57 2046.71,2815.56 2046.42,2815.56Z" style="stroke:white;stroke-width:2.23px;stroke-linecap:butt;stroke-miterlimit:1.41421;"/>
    </g>
    <g id="Flipper-Right">
        <circle id="Art-Bleed4" cx="1533.04" cy="3927.18" r="34.642" style="fill:none;stroke:black;stroke-width:6.68px;stroke-miterlimit:1.5;"/>
    </g>
    <g id="Round-Hole-Small6">
        <path id="Art6" d="M1787.68,602.368C1789.77,602.445 1791.81,602.91 1793.7,603.821C1796.58,605.213 1798.98,607.546 1800.44,610.396C1801.15,611.797 1801.64,613.312 1801.88,614.868C1802.11,616.351 1802.11,617.869 1801.88,619.352C1801.66,620.79 1801.23,622.194 1800.6,623.505C1799.83,625.103 1798.76,626.559 1797.48,627.784C1796.19,629.011 1794.68,630.002 1793.05,630.696C1791.23,631.463 1789.27,631.857 1787.31,631.857C1785.34,631.857 1783.38,631.463 1781.56,630.696C1779.93,630.002 1778.42,629.011 1777.13,627.784C1775.85,626.559 1774.79,625.104 1774.02,623.505C1773.38,622.194 1772.95,620.79 1772.73,619.352C1772.5,617.869 1772.5,616.351 1772.73,614.868C1772.97,613.312 1773.46,611.798 1774.17,610.398C1775.63,607.547 1778.03,605.212 1780.91,603.821C1782.8,602.91 1784.84,602.445 1786.93,602.368C1787.31,602.363 1787.3,602.363 1787.68,602.368ZM1787.09,608.652C1785.89,608.696 1784.72,608.96 1783.64,609.482C1781.29,610.619 1779.54,612.839 1779.02,615.404C1778.83,616.318 1778.79,617.264 1778.91,618.19C1779.02,619.017 1779.25,619.828 1779.59,620.588C1780.01,621.519 1780.6,622.37 1781.32,623.092C1782.04,623.813 1782.89,624.405 1783.83,624.824C1784.85,625.287 1785.96,625.541 1787.09,625.569C1788.22,625.598 1789.35,625.403 1790.4,624.987C1792.83,624.027 1794.73,621.941 1795.45,619.427C1795.7,618.534 1795.8,617.6 1795.76,616.673C1795.71,615.831 1795.54,614.995 1795.25,614.203C1794.92,613.306 1794.44,612.467 1793.83,611.731C1793.19,610.946 1792.4,610.277 1791.52,609.77C1790.42,609.141 1789.21,608.785 1787.96,608.673C1787.67,608.655 1787.38,608.648 1787.09,608.652Z" style="fill-rule:nonzero;stroke:white;stroke-width:2.23px;stroke-linecap:butt;stroke-miterlimit:1.41421;"/>
    </g>
    <g id="Round-Hole-Small7">
        <path id="Art7" d="M1928.98,753.851C1931.07,753.928 1933.11,754.393 1935,755.304C1937.88,756.696 1940.27,759.029 1941.73,761.879C1942.45,763.28 1942.94,764.795 1943.18,766.351C1943.4,767.834 1943.4,769.352 1943.18,770.835C1942.96,772.273 1942.52,773.677 1941.89,774.988C1941.12,776.586 1940.06,778.042 1938.77,779.267C1937.49,780.494 1935.98,781.485 1934.34,782.179C1932.53,782.946 1930.57,783.34 1928.6,783.34C1926.63,783.34 1924.67,782.946 1922.86,782.179C1921.22,781.485 1919.71,780.494 1918.43,779.267C1917.14,778.042 1916.08,776.586 1915.31,774.988C1914.68,773.677 1914.24,772.273 1914.02,770.835C1913.8,769.352 1913.8,767.834 1914.02,766.351C1914.26,764.795 1914.75,763.281 1915.47,761.88C1916.93,759.03 1919.32,756.695 1922.2,755.304C1924.09,754.393 1926.13,753.928 1928.22,753.851C1928.6,753.846 1928.6,753.846 1928.98,753.851ZM1928.38,760.134C1927.18,760.179 1926.02,760.443 1924.94,760.964C1922.58,762.101 1920.84,764.322 1920.31,766.887C1920.12,767.801 1920.09,768.747 1920.21,769.673C1920.31,770.5 1920.54,771.311 1920.88,772.071C1921.31,773.001 1921.9,773.853 1922.62,774.575C1923.34,775.296 1924.19,775.888 1925.12,776.307C1926.14,776.77 1927.26,777.024 1928.38,777.052C1929.51,777.081 1930.65,776.886 1931.7,776.47C1934.13,775.509 1936.03,773.424 1936.74,770.91C1936.99,770.017 1937.1,769.083 1937.05,768.156C1937.01,767.314 1936.84,766.478 1936.55,765.686C1936.22,764.789 1935.74,763.95 1935.13,763.214C1934.48,762.429 1933.69,761.759 1932.81,761.253C1931.71,760.624 1930.51,760.268 1929.25,760.156C1928.96,760.138 1928.67,760.13 1928.38,760.134Z" style="fill-rule:nonzero;stroke:white;stroke-width:2.23px;stroke-linecap:butt;stroke-miterlimit:1.41421;"/>
    </g>
    <g id="Palette">
        <g id="Art8">
            <rect x="268.748" y="4269.89" width="120.305" height="27.124" style="fill:rgb(218,255,17);"/>
            <rect x="268.748" y="4297.02" width="120.305" height="27.124" style="fill:rgb(255,171,20);"/>
            <rect x="268.748" y="4161.4" width="120.305" height="27.124" style="fill:rgb(167,95,255);"/>
            <rect x="268.748" y="4351.27" width="120.305" height="27.124" style="fill:rgb(196,0,95);"/>
            <rect x="268.748" y="4324.14" width="120.305" height="27.124" style="fill:rgb(255,60,101);"/>
            <rect x="268.748" y="4215.65" width="120.305" height="27.124" style="fill:rgb(0,219,255);"/>
            <rect x="268.748" y="4242.77" width="120.305" height="27.124" style="fill:rgb(77,246,117);"/>
            <rect x="268.748" y="4188.52" width="120.305" height="27.124" style="fill:rgb(44,136,247);"/>
            <rect x="268.748" y="4107.15" width="120.305" height="27.124" style="fill:rgb(255,5,255);"/>
            <rect x="268.748" y="4134.27" width="120.305" height="27.124" style="fill:rgb(198,125,255);"/>
            <path d="M501.474,4089.04L441.84,4148.68L453.152,4159.99L512.787,4100.35L501.474,4089.04Z" style="fill:rgb(218,255,17);"/>
            <path d="M512.787,4100.35L453.152,4159.99L464.465,4171.3L524.099,4111.67L512.787,4100.35Z" style="fill:rgb(255,171,20);"/>
            <path d="M456.224,4043.79L396.59,4103.43L407.902,4114.74L467.537,4055.1L456.224,4043.79Z" style="fill:rgb(167,95,255);"/>
            <path d="M535.412,4122.98L475.777,4182.61L487.09,4193.93L546.724,4134.29L535.412,4122.98Z" style="fill:rgb(196,0,95);"/>
            <path d="M524.099,4111.67L464.465,4171.3L475.777,4182.61L535.412,4122.98L524.099,4111.67Z" style="fill:rgb(255,60,101);"/>
            <path d="M478.849,4066.42L419.215,4126.05L430.527,4137.36L490.162,4077.73L478.849,4066.42Z" style="fill:rgb(0,219,255);"/>
            <path d="M490.162,4077.73L430.527,4137.36L441.84,4148.68L501.474,4089.04L490.162,4077.73Z" style="fill:rgb(77,246,117);"/>
            <path d="M467.537,4055.1L407.902,4114.74L419.215,4126.05L478.849,4066.42L467.537,4055.1Z" style="fill:rgb(44,136,247);"/>
            <path d="M290.775,4033.76L290.775,4386.67L313.12,4386.67L313.12,4033.76L290.775,4033.76Z" style="fill:white;"/>
            <path d="M341.128,4033.76L341.128,4386.67L363.473,4386.67L363.473,4033.76L341.128,4033.76Z"/>
            <rect x="607.834" y="4235.38" width="161.162" height="22.345" style="fill:white;"/>
            <rect x="607.834" y="4255.88" width="161.162" height="22.345"/>
            <path d="M433.599,4021.17L373.964,4080.8L385.277,4092.11L444.911,4032.48L433.599,4021.17Z" style="fill:rgb(255,5,255);"/>
            <path d="M444.911,4032.48L385.277,4092.11L396.59,4103.43L456.224,4043.79L444.911,4032.48Z" style="fill:rgb(198,125,255);"/>
            <path d="M432.911,4230.83L432.911,4300.69L438.729,4300.69L438.729,4230.83L432.911,4230.83Z" style="fill:rgb(218,255,17);"/>
            <path d="M438.729,4230.83L438.729,4300.69L444.547,4300.69L444.547,4230.83L438.729,4230.83Z" style="fill:rgb(255,171,20);"/>
            <path d="M409.638,4230.83L409.638,4300.69L415.456,4300.69L415.456,4230.83L409.638,4230.83Z" style="fill:rgb(167,95,255);"/>
            <path d="M450.366,4230.83L450.366,4300.69L456.184,4300.69L456.184,4230.83L450.366,4230.83Z" style="fill:rgb(196,0,95);"/>
            <path d="M444.547,4230.83L444.547,4300.69L450.366,4300.69L450.366,4230.83L444.547,4230.83Z" style="fill:rgb(255,60,101);"/>
            <path d="M421.274,4230.83L421.274,4300.69L427.092,4300.69L427.092,4230.83L421.274,4230.83Z" style="fill:rgb(0,219,255);"/>
            <path d="M427.092,4230.83L427.092,4300.69L432.911,4300.69L432.911,4230.83L427.092,4230.83Z" style="fill:rgb(77,246,117);"/>
            <path d="M415.456,4230.83L415.456,4300.69L421.274,4300.69L421.274,4230.83L415.456,4230.83Z" style="fill:rgb(44,136,247);"/>
            <path d="M398.001,4230.83L398.001,4300.69L403.819,4300.69L403.819,4230.83L398.001,4230.83Z" style="fill:rgb(255,5,255);"/>
            <path d="M403.819,4230.83L403.819,4300.69L409.638,4300.69L409.638,4230.83L403.819,4230.83Z" style="fill:rgb(198,125,255);"/>
            <path d="M536.447,4153.1L585.845,4202.49L589.96,4198.38L540.562,4148.98L536.447,4153.1Z" style="fill:rgb(218,255,17);"/>
            <path d="M540.562,4148.98L589.96,4198.38L594.074,4194.27L544.676,4144.87L540.562,4148.98Z" style="fill:rgb(255,171,20);"/>
            <path d="M519.991,4169.55L569.389,4218.95L573.503,4214.84L524.105,4165.44L519.991,4169.55Z" style="fill:rgb(167,95,255);"/>
            <path d="M548.79,4140.75L598.188,4190.15L602.302,4186.04L552.904,4136.64L548.79,4140.75Z" style="fill:rgb(196,0,95);"/>
            <path d="M544.676,4144.87L594.074,4194.27L598.188,4190.15L548.79,4140.75L544.676,4144.87Z" style="fill:rgb(255,60,101);"/>
            <path d="M528.219,4161.32L577.617,4210.72L581.731,4206.61L532.333,4157.21L528.219,4161.32Z" style="fill:rgb(0,219,255);"/>
            <path d="M532.333,4157.21L581.731,4206.61L585.845,4202.49L536.447,4153.1L532.333,4157.21Z" style="fill:rgb(77,246,117);"/>
            <path d="M524.105,4165.44L573.503,4214.84L577.617,4210.72L528.219,4161.32L524.105,4165.44Z" style="fill:rgb(44,136,247);"/>
            <path d="M511.763,4177.78L561.161,4227.18L565.275,4223.07L515.877,4173.67L511.763,4177.78Z" style="fill:rgb(255,5,255);"/>
            <path d="M515.877,4173.67L565.275,4223.07L569.389,4218.95L519.991,4169.55L515.877,4173.67Z" style="fill:rgb(198,125,255);"/>
            <path d="M466.63,4309.44L466.63,4337.28L470.68,4337.28L470.68,4309.44L466.63,4309.44Z" style="fill:none;stroke:rgb(218,255,17);stroke-width:0.74px;stroke-miterlimit:1.5;"/>
            <path d="M472.204,4309.44L472.204,4337.28L476.254,4337.28L476.254,4309.44L472.204,4309.44Z" style="fill:none;stroke:rgb(255,171,20);stroke-width:0.74px;stroke-miterlimit:1.5;"/>
            <path d="M444.335,4309.44L444.335,4337.28L448.385,4337.28L448.385,4309.44L444.335,4309.44Z" style="fill:none;stroke:rgb(167,95,255);stroke-width:0.74px;stroke-miterlimit:1.5;"/>
            <path d="M483.351,4309.44L483.351,4337.28L487.401,4337.28L487.401,4309.44L483.351,4309.44Z" style="fill:none;stroke:rgb(196,0,95);stroke-width:0.74px;stroke-miterlimit:1.5;"/>
            <path d="M477.777,4309.44L477.777,4337.28L481.828,4337.28L481.828,4309.44L477.777,4309.44Z" style="fill:none;stroke:rgb(255,60,101);stroke-width:0.74px;stroke-miterlimit:1.5;"/>
            <path d="M455.482,4309.44L455.482,4337.28L459.533,4337.28L459.533,4309.44L455.482,4309.44Z" style="fill:none;stroke:rgb(0,219,255);stroke-width:0.74px;stroke-miterlimit:1.5;"/>
            <path d="M461.056,4309.44L461.056,4337.28L465.106,4337.28L465.106,4309.44L461.056,4309.44Z" style="fill:none;stroke:rgb(77,246,117);stroke-width:0.74px;stroke-miterlimit:1.5;"/>
            <path d="M449.909,4309.44L449.909,4337.28L453.959,4337.28L453.959,4309.44L449.909,4309.44Z" style="fill:none;stroke:rgb(44,136,247);stroke-width:0.74px;stroke-miterlimit:1.5;"/>
            <path d="M433.188,4309.44L433.188,4337.28L437.238,4337.28L437.238,4309.44L433.188,4309.44Z" style="fill:none;stroke:rgb(255,5,255);stroke-width:0.74px;stroke-miterlimit:1.5;"/>
            <path d="M438.761,4309.44L438.761,4337.28L442.812,4337.28L442.812,4309.44L438.761,4309.44Z" style="fill:none;stroke:rgb(198,125,255);stroke-width:0.74px;stroke-miterlimit:1.5;"/>
            <path d="M529.155,4309.44L529.155,4337.28L533.206,4337.28L533.206,4309.44L529.155,4309.44Z" style="stroke:rgb(218,255,17);stroke-width:0.74px;stroke-miterlimit:1.5;"/>
            <path d="M534.729,4309.44L534.729,4337.28L538.779,4337.28L538.779,4309.44L534.729,4309.44Z" style="stroke:rgb(255,171,20);stroke-width:0.74px;stroke-miterlimit:1.5;"/>
            <path d="M506.861,4309.44L506.861,4337.28L510.911,4337.28L510.911,4309.44L506.861,4309.44Z" style="stroke:rgb(167,95,255);stroke-width:0.74px;stroke-miterlimit:1.5;"/>
            <path d="M545.876,4309.44L545.876,4337.28L549.927,4337.28L549.927,4309.44L545.876,4309.44Z" style="stroke:rgb(196,0,95);stroke-width:0.74px;stroke-miterlimit:1.5;"/>
            <path d="M540.303,4309.44L540.303,4337.28L544.353,4337.28L544.353,4309.44L540.303,4309.44Z" style="stroke:rgb(255,60,101);stroke-width:0.74px;stroke-miterlimit:1.5;"/>
            <path d="M518.008,4309.44L518.008,4337.28L522.058,4337.28L522.058,4309.44L518.008,4309.44Z" style="stroke:rgb(0,219,255);stroke-width:0.74px;stroke-miterlimit:1.5;"/>
            <path d="M523.582,4309.44L523.582,4337.28L527.632,4337.28L527.632,4309.44L523.582,4309.44Z" style="stroke:rgb(77,246,117);stroke-width:0.74px;stroke-miterlimit:1.5;"/>
            <path d="M512.434,4309.44L512.434,4337.28L516.484,4337.28L516.484,4309.44L512.434,4309.44Z" style="stroke:rgb(44,136,247);stroke-width:0.74px;stroke-miterlimit:1.5;"/>
            <path d="M495.713,4309.44L495.713,4337.28L499.763,4337.28L499.763,4309.44L495.713,4309.44Z" style="stroke:rgb(255,5,255);stroke-width:0.74px;stroke-miterlimit:1.5;"/>
            <path d="M501.287,4309.44L501.287,4337.28L505.337,4337.28L505.337,4309.44L501.287,4309.44Z" style="stroke:rgb(198,125,255);stroke-width:0.74px;stroke-miterlimit:1.5;"/>
            <path d="M590.881,4309.44L590.881,4337.28L594.931,4337.28L594.931,4309.44L590.881,4309.44Z" style="fill:rgb(128,128,128);stroke:rgb(218,255,17);stroke-width:0.74px;stroke-miterlimit:1.5;"/>
            <path d="M596.455,4309.44L596.455,4337.28L600.505,4337.28L600.505,4309.44L596.455,4309.44Z" style="fill:rgb(128,128,128);stroke:rgb(255,171,20);stroke-width:0.74px;stroke-miterlimit:1.5;"/>
            <path d="M568.586,4309.44L568.586,4337.28L572.637,4337.28L572.637,4309.44L568.586,4309.44Z" style="fill:rgb(128,128,128);stroke:rgb(167,95,255);stroke-width:0.74px;stroke-miterlimit:1.5;"/>
            <path d="M607.602,4309.44L607.602,4337.28L611.653,4337.28L611.653,4309.44L607.602,4309.44Z" style="fill:rgb(128,128,128);stroke:rgb(196,0,95);stroke-width:0.74px;stroke-miterlimit:1.5;"/>
            <path d="M602.029,4309.44L602.029,4337.28L606.079,4337.28L606.079,4309.44L602.029,4309.44Z" style="fill:rgb(128,128,128);stroke:rgb(255,60,101);stroke-width:0.74px;stroke-miterlimit:1.5;"/>
            <path d="M579.734,4309.44L579.734,4337.28L583.784,4337.28L583.784,4309.44L579.734,4309.44Z" style="fill:rgb(128,128,128);stroke:rgb(0,219,255);stroke-width:0.74px;stroke-miterlimit:1.5;"/>
            <path d="M585.308,4309.44L585.308,4337.28L589.358,4337.28L589.358,4309.44L585.308,4309.44Z" style="fill:rgb(128,128,128);stroke:rgb(77,246,117);stroke-width:0.74px;stroke-miterlimit:1.5;"/>
            <path d="M574.16,4309.44L574.16,4337.28L578.21,4337.28L578.21,4309.44L574.16,4309.44Z" style="fill:rgb(128,128,128);stroke:rgb(44,136,247);stroke-width:0.74px;stroke-miterlimit:1.5;"/>
            <path d="M557.439,4309.44L557.439,4337.28L561.489,4337.28L561.489,4309.44L557.439,4309.44Z" style="fill:rgb(128,128,128);stroke:rgb(255,5,255);stroke-width:0.74px;stroke-miterlimit:1.5;"/>
            <path d="M563.013,4309.44L563.013,4337.28L567.063,4337.28L567.063,4309.44L563.013,4309.44Z" style="fill:rgb(128,128,128);stroke:rgb(198,125,255);stroke-width:0.74px;stroke-miterlimit:1.5;"/>
            <path d="M652.115,4309.44L652.115,4337.28L656.165,4337.28L656.165,4309.44L652.115,4309.44Z" style="fill:white;stroke:rgb(218,255,17);stroke-width:0.74px;stroke-miterlimit:1.5;"/>
            <path d="M657.689,4309.44L657.689,4337.28L661.739,4337.28L661.739,4309.44L657.689,4309.44Z" style="fill:white;stroke:rgb(255,171,20);stroke-width:0.74px;stroke-miterlimit:1.5;"/>
            <path d="M629.82,4309.44L629.82,4337.28L633.87,4337.28L633.87,4309.44L629.82,4309.44Z" style="fill:white;stroke:rgb(167,95,255);stroke-width:0.74px;stroke-miterlimit:1.5;"/>
            <path d="M668.836,4309.44L668.836,4337.28L672.886,4337.28L672.886,4309.44L668.836,4309.44Z" style="fill:white;stroke:rgb(196,0,95);stroke-width:0.74px;stroke-miterlimit:1.5;"/>
            <path d="M663.262,4309.44L663.262,4337.28L667.313,4337.28L667.313,4309.44L663.262,4309.44Z" style="fill:white;stroke:rgb(255,60,101);stroke-width:0.74px;stroke-miterlimit:1.5;"/>
            <path d="M640.967,4309.44L640.967,4337.28L645.018,4337.28L645.018,4309.44L640.967,4309.44Z" style="fill:white;stroke:rgb(0,219,255);stroke-width:0.74px;stroke-miterlimit:1.5;"/>
            <path d="M646.541,4309.44L646.541,4337.28L650.591,4337.28L650.591,4309.44L646.541,4309.44Z" style="fill:white;stroke:rgb(77,246,117);stroke-width:0.74px;stroke-miterlimit:1.5;"/>
            <path d="M635.394,4309.44L635.394,4337.28L639.444,4337.28L639.444,4309.44L635.394,4309.44Z" style="fill:white;stroke:rgb(44,136,247);stroke-width:0.74px;stroke-miterlimit:1.5;"/>
            <path d="M618.673,4309.44L618.673,4337.28L622.723,4337.28L622.723,4309.44L618.673,4309.44Z" style="fill:white;stroke:rgb(255,5,255);stroke-width:0.74px;stroke-miterlimit:1.5;"/>
            <path d="M624.246,4309.44L624.246,4337.28L628.297,4337.28L628.297,4309.44L624.246,4309.44Z" style="fill:white;stroke:rgb(198,125,255);stroke-width:0.74px;stroke-miterlimit:1.5;"/>
            <path d="M480.977,4354.91L480.977,4382.75L486.764,4382.75L486.764,4354.91L480.977,4354.91Z" style="fill:none;stroke:rgb(218,255,17);stroke-width:1.11px;stroke-miterlimit:1.5;"/>
            <path d="M488.941,4354.91L488.941,4382.75L494.729,4382.75L494.729,4354.91L488.941,4354.91Z" style="fill:none;stroke:rgb(255,171,20);stroke-width:1.11px;stroke-miterlimit:1.5;"/>
            <path d="M449.117,4354.91L449.117,4382.75L454.905,4382.75L454.905,4354.91L449.117,4354.91Z" style="fill:none;stroke:rgb(167,95,255);stroke-width:1.11px;stroke-miterlimit:1.5;"/>
            <path d="M504.871,4354.91L504.871,4382.75L510.659,4382.75L510.659,4354.91L504.871,4354.91Z" style="fill:none;stroke:rgb(196,0,95);stroke-width:1.11px;stroke-miterlimit:1.5;"/>
            <path d="M496.906,4354.91L496.906,4382.75L502.694,4382.75L502.694,4354.91L496.906,4354.91Z" style="fill:none;stroke:rgb(255,60,101);stroke-width:1.11px;stroke-miterlimit:1.5;"/>
            <path d="M465.047,4354.91L465.047,4382.75L470.835,4382.75L470.835,4354.91L465.047,4354.91Z" style="fill:none;stroke:rgb(0,219,255);stroke-width:1.11px;stroke-miterlimit:1.5;"/>
            <path d="M473.012,4354.91L473.012,4382.75L478.8,4382.75L478.8,4354.91L473.012,4354.91Z" style="fill:none;stroke:rgb(77,246,117);stroke-width:1.11px;stroke-miterlimit:1.5;"/>
            <path d="M457.082,4354.91L457.082,4382.75L462.87,4382.75L462.87,4354.91L457.082,4354.91Z" style="fill:none;stroke:rgb(44,136,247);stroke-width:1.11px;stroke-miterlimit:1.5;"/>
            <path d="M433.188,4354.91L433.188,4382.75L438.975,4382.75L438.975,4354.91L433.188,4354.91Z" style="fill:none;stroke:rgb(255,5,255);stroke-width:1.11px;stroke-miterlimit:1.5;"/>
            <path d="M441.152,4354.91L441.152,4382.75L446.94,4382.75L446.94,4354.91L441.152,4354.91Z" style="fill:none;stroke:rgb(198,125,255);stroke-width:1.11px;stroke-miterlimit:1.5;"/>
            <path d="M570.326,4354.91L570.326,4382.75L576.113,4382.75L576.113,4354.91L570.326,4354.91Z" style="stroke:rgb(218,255,17);stroke-width:1.11px;stroke-miterlimit:1.5;"/>
            <path d="M578.29,4354.91L578.29,4382.75L584.078,4382.75L584.078,4354.91L578.29,4354.91Z" style="stroke:rgb(255,171,20);stroke-width:1.11px;stroke-miterlimit:1.5;"/>
            <path d="M538.466,4354.91L538.466,4382.75L544.254,4382.75L544.254,4354.91L538.466,4354.91Z" style="stroke:rgb(167,95,255);stroke-width:1.11px;stroke-miterlimit:1.5;"/>
            <path d="M594.22,4354.91L594.22,4382.75L600.008,4382.75L600.008,4354.91L594.22,4354.91Z" style="stroke:rgb(196,0,95);stroke-width:1.11px;stroke-miterlimit:1.5;"/>
            <path d="M586.255,4354.91L586.255,4382.75L592.043,4382.75L592.043,4354.91L586.255,4354.91Z" style="stroke:rgb(255,60,101);stroke-width:1.11px;stroke-miterlimit:1.5;"/>
            <path d="M554.396,4354.91L554.396,4382.75L560.184,4382.75L560.184,4354.91L554.396,4354.91Z" style="stroke:rgb(0,219,255);stroke-width:1.11px;stroke-miterlimit:1.5;"/>
            <path d="M562.361,4354.91L562.361,4382.75L568.149,4382.75L568.149,4354.91L562.361,4354.91Z" style="stroke:rgb(77,246,117);stroke-width:1.11px;stroke-miterlimit:1.5;"/>
            <path d="M546.431,4354.91L546.431,4382.75L552.219,4382.75L552.219,4354.91L546.431,4354.91Z" style="stroke:rgb(44,136,247);stroke-width:1.11px;stroke-miterlimit:1.5;"/>
            <path d="M522.537,4354.91L522.537,4382.75L528.324,4382.75L528.324,4354.91L522.537,4354.91Z" style="stroke:rgb(255,5,255);stroke-width:1.11px;stroke-miterlimit:1.5;"/>
            <path d="M530.501,4354.91L530.501,4382.75L536.289,4382.75L536.289,4354.91L530.501,4354.91Z" style="stroke:rgb(198,125,255);stroke-width:1.11px;stroke-miterlimit:1.5;"/>
            <path d="M658.532,4354.91L658.532,4382.75L664.32,4382.75L664.32,4354.91L658.532,4354.91Z" style="fill:rgb(128,128,128);stroke:rgb(218,255,17);stroke-width:1.11px;stroke-miterlimit:1.5;"/>
            <path d="M666.497,4354.91L666.497,4382.75L672.285,4382.75L672.285,4354.91L666.497,4354.91Z" style="fill:rgb(128,128,128);stroke:rgb(255,171,20);stroke-width:1.11px;stroke-miterlimit:1.5;"/>
            <path d="M626.673,4354.91L626.673,4382.75L632.46,4382.75L632.46,4354.91L626.673,4354.91Z" style="fill:rgb(128,128,128);stroke:rgb(167,95,255);stroke-width:1.11px;stroke-miterlimit:1.5;"/>
            <path d="M682.426,4354.91L682.426,4382.75L688.214,4382.75L688.214,4354.91L682.426,4354.91Z" style="fill:rgb(128,128,128);stroke:rgb(196,0,95);stroke-width:1.11px;stroke-miterlimit:1.5;"/>
            <path d="M674.462,4354.91L674.462,4382.75L680.249,4382.75L680.249,4354.91L674.462,4354.91Z" style="fill:rgb(128,128,128);stroke:rgb(255,60,101);stroke-width:1.11px;stroke-miterlimit:1.5;"/>
            <path d="M642.602,4354.91L642.602,4382.75L648.39,4382.75L648.39,4354.91L642.602,4354.91Z" style="fill:rgb(128,128,128);stroke:rgb(0,219,255);stroke-width:1.11px;stroke-miterlimit:1.5;"/>
            <path d="M650.567,4354.91L650.567,4382.75L656.355,4382.75L656.355,4354.91L650.567,4354.91Z" style="fill:rgb(128,128,128);stroke:rgb(77,246,117);stroke-width:1.11px;stroke-miterlimit:1.5;"/>
            <path d="M634.637,4354.91L634.637,4382.75L640.425,4382.75L640.425,4354.91L634.637,4354.91Z" style="fill:rgb(128,128,128);stroke:rgb(44,136,247);stroke-width:1.11px;stroke-miterlimit:1.5;"/>
            <path d="M610.743,4354.91L610.743,4382.75L616.531,4382.75L616.531,4354.91L610.743,4354.91Z" style="fill:rgb(128,128,128);stroke:rgb(255,5,255);stroke-width:1.11px;stroke-miterlimit:1.5;"/>
            <path d="M618.708,4354.91L618.708,4382.75L624.496,4382.75L624.496,4354.91L618.708,4354.91Z" style="fill:rgb(128,128,128);stroke:rgb(198,125,255);stroke-width:1.11px;stroke-miterlimit:1.5;"/>
            <path d="M746.035,4354.91L746.035,4382.75L751.823,4382.75L751.823,4354.91L746.035,4354.91Z" style="fill:white;stroke:rgb(218,255,17);stroke-width:1.11px;stroke-miterlimit:1.5;"/>
            <path d="M754,4354.91L754,4382.75L759.787,4382.75L759.787,4354.91L754,4354.91Z" style="fill:white;stroke:rgb(255,171,20);stroke-width:1.11px;stroke-miterlimit:1.5;"/>
            <path d="M714.176,4354.91L714.176,4382.75L719.963,4382.75L719.963,4354.91L714.176,4354.91Z" style="fill:white;stroke:rgb(167,95,255);stroke-width:1.11px;stroke-miterlimit:1.5;"/>
            <path d="M769.929,4354.91L769.929,4382.75L775.717,4382.75L775.717,4354.91L769.929,4354.91Z" style="fill:white;stroke:rgb(196,0,95);stroke-width:1.11px;stroke-miterlimit:1.5;"/>
            <path d="M761.965,4354.91L761.965,4382.75L767.752,4382.75L767.752,4354.91L761.965,4354.91Z" style="fill:white;stroke:rgb(255,60,101);stroke-width:1.11px;stroke-miterlimit:1.5;"/>
            <path d="M730.105,4354.91L730.105,4382.75L735.893,4382.75L735.893,4354.91L730.105,4354.91Z" style="fill:white;stroke:rgb(0,219,255);stroke-width:1.11px;stroke-miterlimit:1.5;"/>
            <path d="M738.07,4354.91L738.07,4382.75L743.858,4382.75L743.858,4354.91L738.07,4354.91Z" style="fill:white;stroke:rgb(77,246,117);stroke-width:1.11px;stroke-miterlimit:1.5;"/>
            <path d="M722.14,4354.91L722.14,4382.75L727.928,4382.75L727.928,4354.91L722.14,4354.91Z" style="fill:white;stroke:rgb(44,136,247);stroke-width:1.11px;stroke-miterlimit:1.5;"/>
            <path d="M698.246,4354.91L698.246,4382.75L704.034,4382.75L704.034,4354.91L698.246,4354.91Z" style="fill:white;stroke:rgb(255,5,255);stroke-width:1.11px;stroke-miterlimit:1.5;"/>
            <path d="M706.211,4354.91L706.211,4382.75L711.999,4382.75L711.999,4354.91L706.211,4354.91Z" style="fill:white;stroke:rgb(198,125,255);stroke-width:1.11px;stroke-miterlimit:1.5;"/>
            <path d="M414.969,4308.4L414.969,4378.25L417.796,4378.25L417.796,4308.4L414.969,4308.4Z" style="fill:rgb(218,255,17);"/>
            <path d="M417.796,4308.4L417.796,4378.25L420.624,4378.25L420.624,4308.4L417.796,4308.4Z" style="fill:rgb(255,171,20);"/>
            <path d="M403.657,4308.4L403.657,4378.25L406.485,4378.25L406.485,4308.4L403.657,4308.4Z" style="fill:rgb(167,95,255);"/>
            <path d="M423.452,4308.4L423.452,4378.25L426.28,4378.25L426.28,4308.4L423.452,4308.4Z" style="fill:rgb(196,0,95);"/>
            <path d="M420.624,4308.4L420.624,4378.25L423.452,4378.25L423.452,4308.4L420.624,4308.4Z" style="fill:rgb(255,60,101);"/>
            <path d="M409.313,4308.4L409.313,4378.25L412.141,4378.25L412.141,4308.4L409.313,4308.4Z" style="fill:rgb(0,219,255);"/>
            <path d="M412.141,4308.4L412.141,4378.25L414.969,4378.25L414.969,4308.4L412.141,4308.4Z" style="fill:rgb(77,246,117);"/>
            <path d="M406.485,4308.4L406.485,4378.25L409.313,4378.25L409.313,4308.4L406.485,4308.4Z" style="fill:rgb(44,136,247);"/>
            <path d="M398.001,4308.4L398.001,4378.25L400.829,4378.25L400.829,4308.4L398.001,4308.4Z" style="fill:rgb(255,5,255);"/>
            <path d="M400.829,4308.4L400.829,4378.25L403.657,4378.25L403.657,4308.4L400.829,4308.4Z" style="fill:rgb(198,125,255);"/>
            <path d="M634.544,4192.85L608.659,4218.73L610.658,4220.73L636.544,4194.85L634.544,4192.85Z" style="fill:rgb(218,255,17);"/>
            <path d="M636.544,4194.85L610.658,4220.73L612.658,4222.73L638.543,4196.85L636.544,4194.85Z" style="fill:rgb(255,171,20);"/>
            <path d="M626.546,4184.85L600.66,4210.73L602.66,4212.73L628.545,4186.85L626.546,4184.85Z" style="fill:rgb(167,95,255);"/>
            <path d="M640.543,4198.85L614.658,4224.73L616.657,4226.73L642.543,4200.85L640.543,4198.85Z" style="fill:rgb(196,0,95);"/>
            <path d="M638.543,4196.85L612.658,4222.73L614.658,4224.73L640.543,4198.85L638.543,4196.85Z" style="fill:rgb(255,60,101);"/>
            <path d="M630.545,4188.85L604.659,4214.73L606.659,4216.73L632.544,4190.85L630.545,4188.85Z" style="fill:rgb(0,219,255);"/>
            <path d="M632.544,4190.85L606.659,4216.73L608.659,4218.73L634.544,4192.85L632.544,4190.85Z" style="fill:rgb(77,246,117);"/>
            <path d="M628.545,4186.85L602.66,4212.73L604.659,4214.73L630.545,4188.85L628.545,4186.85Z" style="fill:rgb(44,136,247);"/>
            <path d="M622.546,4180.85L596.661,4206.73L598.661,4208.73L624.546,4182.85L622.546,4180.85Z" style="fill:rgb(255,5,255);"/>
            <path d="M624.546,4182.85L598.661,4208.73L600.66,4210.73L626.546,4184.85L624.546,4182.85Z" style="fill:rgb(198,125,255);"/>
            <path d="M654.561,4188.86L680.446,4214.74L682.446,4212.74L656.56,4186.86L654.561,4188.86Z" style="fill:rgb(218,255,17);"/>
            <path d="M656.56,4186.86L682.446,4212.74L684.445,4210.74L658.56,4184.86L656.56,4186.86Z" style="fill:rgb(255,171,20);"/>
            <path d="M646.562,4196.86L672.448,4222.74L674.447,4220.74L648.562,4194.86L646.562,4196.86Z" style="fill:rgb(167,95,255);"/>
            <path d="M660.56,4182.86L686.445,4208.74L688.445,4206.74L662.559,4180.86L660.56,4182.86Z" style="fill:rgb(196,0,95);"/>
            <path d="M658.56,4184.86L684.445,4210.74L686.445,4208.74L660.56,4182.86L658.56,4184.86Z" style="fill:rgb(255,60,101);"/>
            <path d="M650.561,4192.86L676.447,4218.74L678.446,4216.74L652.561,4190.86L650.561,4192.86Z" style="fill:rgb(0,219,255);"/>
            <path d="M652.561,4190.86L678.446,4216.74L680.446,4214.74L654.561,4188.86L652.561,4190.86Z" style="fill:rgb(77,246,117);"/>
            <path d="M648.562,4194.86L674.447,4220.74L676.447,4218.74L650.561,4192.86L648.562,4194.86Z" style="fill:rgb(44,136,247);"/>
            <path d="M642.563,4200.86L668.448,4226.74L670.448,4224.74L644.563,4198.86L642.563,4200.86Z" style="fill:rgb(255,5,255);"/>
            <path d="M644.563,4198.86L670.448,4224.74L672.448,4222.74L646.562,4196.86L644.563,4198.86Z" style="fill:rgb(198,125,255);"/>
            <path d="M465.603,4233.65L465.603,4285.73" style="fill:none;stroke:white;stroke-width:0.74px;stroke-miterlimit:1.5;"/>
            <path d="M472.586,4233.65L472.586,4285.73" style="fill:none;stroke:white;stroke-width:1.11px;stroke-miterlimit:1.5;"/>
            <path d="M480.769,4233.65L480.769,4285.73" style="fill:none;stroke:white;stroke-width:2.23px;stroke-miterlimit:1.5;"/>
            <path d="M490.909,4233.65L490.909,4285.73" style="fill:none;stroke:white;stroke-width:2.97px;stroke-miterlimit:1.5;"/>
            <path d="M503.459,4233.65L503.459,4285.73" style="fill:none;stroke:white;stroke-width:3.71px;stroke-miterlimit:1.5;"/>
            <path d="M519.27,4233.65L519.27,4285.73" style="fill:none;stroke:white;stroke-width:7.42px;stroke-miterlimit:1.5;"/>
            <path d="M534.396,4233.47L534.396,4285.54" style="fill:none;stroke:black;stroke-width:0.74px;stroke-miterlimit:1.5;"/>
            <path d="M541.379,4233.47L541.379,4285.54" style="fill:none;stroke:black;stroke-width:1.11px;stroke-miterlimit:1.5;"/>
            <path d="M549.562,4233.47L549.562,4285.54" style="fill:none;stroke:black;stroke-width:2.23px;stroke-miterlimit:1.5;"/>
            <path d="M559.702,4233.47L559.702,4285.54" style="fill:none;stroke:black;stroke-width:2.97px;stroke-miterlimit:1.5;"/>
            <path d="M572.252,4233.47L572.252,4285.54" style="fill:none;stroke:black;stroke-width:3.71px;stroke-miterlimit:1.5;"/>
            <path d="M588.063,4233.47L588.063,4285.54" style="fill:none;stroke:black;stroke-width:7.42px;stroke-miterlimit:1.5;"/>
        </g>
    </g>
    <g id="Palette1">
        <g id="Art9">
            <path d="M1934.04,4368.65L1934.04,4426.88L1947.17,4426.88L1947.17,4368.65L1934.04,4368.65Z" style="fill:rgb(218,255,17);"/>
            <path d="M1947.17,4368.65L1947.17,4426.88L1960.3,4426.88L1960.3,4368.65L1947.17,4368.65Z" style="fill:rgb(255,171,20);"/>
            <path d="M1881.53,4368.65L1881.53,4426.88L1894.65,4426.88L1894.65,4368.65L1881.53,4368.65Z" style="fill:rgb(167,95,255);"/>
            <path d="M1973.43,4368.65L1973.43,4426.88L1986.56,4426.88L1986.56,4368.65L1973.43,4368.65Z" style="fill:rgb(196,0,95);"/>
            <path d="M1960.3,4368.65L1960.3,4426.88L1973.43,4426.88L1973.43,4368.65L1960.3,4368.65Z" style="fill:rgb(255,60,101);"/>
            <path d="M1907.79,4368.65L1907.79,4426.88L1920.91,4426.88L1920.91,4368.65L1907.79,4368.65Z" style="fill:rgb(0,219,255);"/>
            <path d="M1920.91,4368.65L1920.91,4426.88L1934.04,4426.88L1934.04,4368.65L1920.91,4368.65Z" style="fill:rgb(77,246,117);"/>
            <path d="M1894.65,4368.65L1894.65,4426.88L1907.79,4426.88L1907.79,4368.65L1894.65,4368.65Z" style="fill:rgb(44,136,247);"/>
            <path d="M1855.27,4368.65L1855.27,4426.88L1868.4,4426.88L1868.4,4368.65L1855.27,4368.65Z" style="fill:rgb(255,5,255);"/>
            <path d="M1868.4,4368.65L1868.4,4426.88L1881.53,4426.88L1881.53,4368.65L1868.4,4368.65Z" style="fill:rgb(198,125,255);"/>
            <path d="M1846.5,4314.23L1875.37,4343.09L1880.84,4337.62L1851.98,4308.75L1846.5,4314.23Z" style="fill:rgb(218,255,17);"/>
            <path d="M1851.98,4308.75L1880.84,4337.62L1886.32,4332.14L1857.45,4303.27L1851.98,4308.75Z" style="fill:rgb(255,171,20);"/>
            <path d="M1824.6,4336.13L1853.46,4365L1858.94,4359.52L1830.07,4330.65L1824.6,4336.13Z" style="fill:rgb(167,95,255);"/>
            <path d="M1862.93,4297.8L1891.8,4326.66L1897.27,4321.19L1868.4,4292.32L1862.93,4297.8Z" style="fill:rgb(196,0,95);"/>
            <path d="M1857.45,4303.27L1886.32,4332.14L1891.8,4326.66L1862.93,4297.8L1857.45,4303.27Z" style="fill:rgb(255,60,101);"/>
            <path d="M1835.55,4325.18L1864.42,4354.05L1869.89,4348.57L1841.03,4319.7L1835.55,4325.18Z" style="fill:rgb(0,219,255);"/>
            <path d="M1841.03,4319.7L1869.89,4348.57L1875.37,4343.09L1846.5,4314.23L1841.03,4319.7Z" style="fill:rgb(77,246,117);"/>
            <path d="M1830.07,4330.65L1858.94,4359.52L1864.42,4354.05L1835.55,4325.18L1830.07,4330.65Z" style="fill:rgb(44,136,247);"/>
            <rect x="1819.74" y="4405.4" width="170.833" height="10.816" style="fill:white;"/>
            <rect x="1819.74" y="4381.03" width="170.833" height="10.816"/>
            <path d="M1917.34,4184.73L1917.34,4262.74L1928.16,4262.74L1928.16,4184.73L1917.34,4184.73Z" style="fill:white;"/>
            <path d="M1927.26,4184.73L1927.26,4262.74L1938.08,4262.74L1938.08,4184.73L1927.26,4184.73Z"/>
            <path d="M1813.64,4347.08L1842.51,4375.95L1847.99,4370.47L1819.12,4341.61L1813.64,4347.08Z" style="fill:rgb(255,5,255);"/>
            <path d="M1819.12,4341.61L1847.99,4370.47L1853.46,4365L1824.6,4336.13L1819.12,4341.61Z" style="fill:rgb(198,125,255);"/>
            <rect x="1915.14" y="4344.6" width="33.816" height="2.816" style="fill:rgb(218,255,17);"/>
            <rect x="1915.14" y="4341.78" width="33.816" height="2.816" style="fill:rgb(255,171,20);"/>
            <rect x="1915.14" y="4355.86" width="33.816" height="2.816" style="fill:rgb(167,95,255);"/>
            <rect x="1915.14" y="4336.15" width="33.816" height="2.816" style="fill:rgb(196,0,95);"/>
            <rect x="1915.14" y="4338.97" width="33.816" height="2.816" style="fill:rgb(255,60,101);"/>
            <rect x="1915.14" y="4350.23" width="33.816" height="2.816" style="fill:rgb(0,219,255);"/>
            <rect x="1915.14" y="4347.41" width="33.816" height="2.816" style="fill:rgb(77,246,117);"/>
            <rect x="1915.14" y="4353.05" width="33.816" height="2.816" style="fill:rgb(44,136,247);"/>
            <rect x="1915.14" y="4361.5" width="33.816" height="2.816" style="fill:rgb(255,5,255);"/>
            <rect x="1915.14" y="4358.68" width="33.816" height="2.816" style="fill:rgb(198,125,255);"/>
            <path d="M1877.51,4297.3L1901.42,4273.39L1899.43,4271.39L1875.52,4295.31L1877.51,4297.3Z" style="fill:rgb(218,255,17);"/>
            <path d="M1875.52,4295.31L1899.43,4271.39L1897.44,4269.4L1873.52,4293.31L1875.52,4295.31Z" style="fill:rgb(255,171,20);"/>
            <path d="M1885.47,4305.26L1909.38,4281.35L1907.39,4279.36L1883.48,4303.27L1885.47,4305.26Z" style="fill:rgb(167,95,255);"/>
            <path d="M1871.53,4291.32L1895.44,4267.41L1893.45,4265.42L1869.54,4289.33L1871.53,4291.32Z" style="fill:rgb(196,0,95);"/>
            <path d="M1873.52,4293.31L1897.44,4269.4L1895.44,4267.41L1871.53,4291.32L1873.52,4293.31Z" style="fill:rgb(255,60,101);"/>
            <path d="M1881.49,4301.28L1905.4,4277.37L1903.41,4275.38L1879.5,4299.29L1881.49,4301.28Z" style="fill:rgb(0,219,255);"/>
            <path d="M1879.5,4299.29L1903.41,4275.38L1901.42,4273.39L1877.51,4297.3L1879.5,4299.29Z" style="fill:rgb(77,246,117);"/>
            <path d="M1883.48,4303.27L1907.39,4279.36L1905.4,4277.37L1881.49,4301.28L1883.48,4303.27Z" style="fill:rgb(44,136,247);"/>
            <path d="M1889.46,4309.25L1913.37,4285.34L1911.38,4283.34L1887.47,4307.26L1889.46,4309.25Z" style="fill:rgb(255,5,255);"/>
            <path d="M1887.47,4307.26L1911.38,4283.34L1909.38,4281.35L1885.47,4305.26L1887.47,4307.26Z" style="fill:rgb(198,125,255);"/>
            <rect x="1953.19" y="4329.13" width="13.475" height="1.961" style="fill:none;stroke:rgb(218,255,17);stroke-width:0.36px;stroke-miterlimit:1.5;"/>
            <rect x="1953.19" y="4326.44" width="13.475" height="1.961" style="fill:none;stroke:rgb(255,171,20);stroke-width:0.36px;stroke-miterlimit:1.5;"/>
            <rect x="1953.19" y="4339.93" width="13.475" height="1.961" style="fill:none;stroke:rgb(167,95,255);stroke-width:0.36px;stroke-miterlimit:1.5;"/>
            <rect x="1953.19" y="4321.04" width="13.475" height="1.961" style="fill:none;stroke:rgb(196,0,95);stroke-width:0.36px;stroke-miterlimit:1.5;"/>
            <rect x="1953.19" y="4323.74" width="13.475" height="1.961" style="fill:none;stroke:rgb(255,60,101);stroke-width:0.36px;stroke-miterlimit:1.5;"/>
            <rect x="1953.19" y="4334.53" width="13.475" height="1.961" style="fill:none;stroke:rgb(0,219,255);stroke-width:0.36px;stroke-miterlimit:1.5;"/>
            <rect x="1953.19" y="4331.83" width="13.475" height="1.961" style="fill:none;stroke:rgb(77,246,117);stroke-width:0.36px;stroke-miterlimit:1.5;"/>
            <rect x="1953.19" y="4337.23" width="13.475" height="1.961" style="fill:none;stroke:rgb(44,136,247);stroke-width:0.36px;stroke-miterlimit:1.5;"/>
            <rect x="1953.19" y="4345.32" width="13.475" height="1.961" style="fill:none;stroke:rgb(255,5,255);stroke-width:0.36px;stroke-miterlimit:1.5;"/>
            <rect x="1953.19" y="4342.62" width="13.475" height="1.961" style="fill:none;stroke:rgb(198,125,255);stroke-width:0.36px;stroke-miterlimit:1.5;"/>
            <rect x="1953.19" y="4298.87" width="13.475" height="1.961" style="stroke:rgb(218,255,17);stroke-width:0.36px;stroke-miterlimit:1.5;"/>
            <rect x="1953.19" y="4296.17" width="13.475" height="1.961" style="stroke:rgb(255,171,20);stroke-width:0.36px;stroke-miterlimit:1.5;"/>
            <rect x="1953.19" y="4309.66" width="13.475" height="1.961" style="stroke:rgb(167,95,255);stroke-width:0.36px;stroke-miterlimit:1.5;"/>
            <rect x="1953.19" y="4290.77" width="13.475" height="1.961" style="stroke:rgb(196,0,95);stroke-width:0.36px;stroke-miterlimit:1.5;"/>
            <rect x="1953.19" y="4293.47" width="13.475" height="1.961" style="stroke:rgb(255,60,101);stroke-width:0.36px;stroke-miterlimit:1.5;"/>
            <rect x="1953.19" y="4304.26" width="13.475" height="1.961" style="stroke:rgb(0,219,255);stroke-width:0.36px;stroke-miterlimit:1.5;"/>
            <rect x="1953.19" y="4301.57" width="13.475" height="1.961" style="stroke:rgb(77,246,117);stroke-width:0.36px;stroke-miterlimit:1.5;"/>
            <rect x="1953.19" y="4306.96" width="13.475" height="1.961" style="stroke:rgb(44,136,247);stroke-width:0.36px;stroke-miterlimit:1.5;"/>
            <rect x="1953.19" y="4315.06" width="13.475" height="1.961" style="stroke:rgb(255,5,255);stroke-width:0.36px;stroke-miterlimit:1.5;"/>
            <rect x="1953.19" y="4312.36" width="13.475" height="1.961" style="stroke:rgb(198,125,255);stroke-width:0.36px;stroke-miterlimit:1.5;"/>
            <rect x="1953.19" y="4268.99" width="13.475" height="1.961" style="fill:rgb(128,128,128);stroke:rgb(218,255,17);stroke-width:0.36px;stroke-miterlimit:1.5;"/>
            <rect x="1953.19" y="4266.29" width="13.475" height="1.961" style="fill:rgb(128,128,128);stroke:rgb(255,171,20);stroke-width:0.36px;stroke-miterlimit:1.5;"/>
            <rect x="1953.19" y="4279.78" width="13.475" height="1.961" style="fill:rgb(128,128,128);stroke:rgb(167,95,255);stroke-width:0.36px;stroke-miterlimit:1.5;"/>
            <rect x="1953.19" y="4260.89" width="13.475" height="1.961" style="fill:rgb(128,128,128);stroke:rgb(196,0,95);stroke-width:0.36px;stroke-miterlimit:1.5;"/>
            <rect x="1953.19" y="4263.59" width="13.475" height="1.961" style="fill:rgb(128,128,128);stroke:rgb(255,60,101);stroke-width:0.36px;stroke-miterlimit:1.5;"/>
            <rect x="1953.19" y="4274.38" width="13.475" height="1.961" style="fill:rgb(128,128,128);stroke:rgb(0,219,255);stroke-width:0.36px;stroke-miterlimit:1.5;"/>
            <rect x="1953.19" y="4271.69" width="13.475" height="1.961" style="fill:rgb(128,128,128);stroke:rgb(77,246,117);stroke-width:0.36px;stroke-miterlimit:1.5;"/>
            <rect x="1953.19" y="4277.08" width="13.475" height="1.961" style="fill:rgb(128,128,128);stroke:rgb(44,136,247);stroke-width:0.36px;stroke-miterlimit:1.5;"/>
            <rect x="1953.19" y="4285.18" width="13.475" height="1.961" style="fill:rgb(128,128,128);stroke:rgb(255,5,255);stroke-width:0.36px;stroke-miterlimit:1.5;"/>
            <rect x="1953.19" y="4282.48" width="13.475" height="1.961" style="fill:rgb(128,128,128);stroke:rgb(198,125,255);stroke-width:0.36px;stroke-miterlimit:1.5;"/>
            <rect x="1953.19" y="4239.35" width="13.475" height="1.961" style="fill:white;stroke:rgb(218,255,17);stroke-width:0.36px;stroke-miterlimit:1.5;"/>
            <rect x="1953.19" y="4236.65" width="13.475" height="1.961" style="fill:white;stroke:rgb(255,171,20);stroke-width:0.36px;stroke-miterlimit:1.5;"/>
            <rect x="1953.19" y="4250.14" width="13.475" height="1.961" style="fill:white;stroke:rgb(167,95,255);stroke-width:0.36px;stroke-miterlimit:1.5;"/>
            <rect x="1953.19" y="4231.25" width="13.475" height="1.961" style="fill:white;stroke:rgb(196,0,95);stroke-width:0.36px;stroke-miterlimit:1.5;"/>
            <rect x="1953.19" y="4233.95" width="13.475" height="1.961" style="fill:white;stroke:rgb(255,60,101);stroke-width:0.36px;stroke-miterlimit:1.5;"/>
            <rect x="1953.19" y="4244.74" width="13.475" height="1.961" style="fill:white;stroke:rgb(0,219,255);stroke-width:0.36px;stroke-miterlimit:1.5;"/>
            <rect x="1953.19" y="4242.05" width="13.475" height="1.961" style="fill:white;stroke:rgb(77,246,117);stroke-width:0.36px;stroke-miterlimit:1.5;"/>
            <rect x="1953.19" y="4247.44" width="13.475" height="1.961" style="fill:white;stroke:rgb(44,136,247);stroke-width:0.36px;stroke-miterlimit:1.5;"/>
            <rect x="1953.19" y="4255.53" width="13.475" height="1.961" style="fill:white;stroke:rgb(255,5,255);stroke-width:0.36px;stroke-miterlimit:1.5;"/>
            <rect x="1953.19" y="4252.84" width="13.475" height="1.961" style="fill:white;stroke:rgb(198,125,255);stroke-width:0.36px;stroke-miterlimit:1.5;"/>
            <rect x="1975.2" y="4321.35" width="13.475" height="2.802" style="fill:none;stroke:rgb(218,255,17);stroke-width:0.54px;stroke-miterlimit:1.5;"/>
            <rect x="1975.2" y="4317.49" width="13.475" height="2.802" style="fill:none;stroke:rgb(255,171,20);stroke-width:0.54px;stroke-miterlimit:1.5;"/>
            <rect x="1975.2" y="4336.77" width="13.475" height="2.802" style="fill:none;stroke:rgb(167,95,255);stroke-width:0.54px;stroke-miterlimit:1.5;"/>
            <rect x="1975.2" y="4309.78" width="13.475" height="2.802" style="fill:none;stroke:rgb(196,0,95);stroke-width:0.54px;stroke-miterlimit:1.5;"/>
            <rect x="1975.2" y="4313.64" width="13.475" height="2.802" style="fill:none;stroke:rgb(255,60,101);stroke-width:0.54px;stroke-miterlimit:1.5;"/>
            <rect x="1975.2" y="4329.06" width="13.475" height="2.802" style="fill:none;stroke:rgb(0,219,255);stroke-width:0.54px;stroke-miterlimit:1.5;"/>
            <rect x="1975.2" y="4325.2" width="13.475" height="2.802" style="fill:none;stroke:rgb(77,246,117);stroke-width:0.54px;stroke-miterlimit:1.5;"/>
            <rect x="1975.2" y="4332.91" width="13.475" height="2.802" style="fill:none;stroke:rgb(44,136,247);stroke-width:0.54px;stroke-miterlimit:1.5;"/>
            <rect x="1975.2" y="4344.48" width="13.475" height="2.802" style="fill:none;stroke:rgb(255,5,255);stroke-width:0.54px;stroke-miterlimit:1.5;"/>
            <rect x="1975.2" y="4340.62" width="13.475" height="2.802" style="fill:none;stroke:rgb(198,125,255);stroke-width:0.54px;stroke-miterlimit:1.5;"/>
            <rect x="1975.2" y="4278.1" width="13.475" height="2.802" style="stroke:rgb(218,255,17);stroke-width:0.54px;stroke-miterlimit:1.5;"/>
            <rect x="1975.2" y="4274.24" width="13.475" height="2.802" style="stroke:rgb(255,171,20);stroke-width:0.54px;stroke-miterlimit:1.5;"/>
            <rect x="1975.2" y="4293.52" width="13.475" height="2.802" style="stroke:rgb(167,95,255);stroke-width:0.54px;stroke-miterlimit:1.5;"/>
            <rect x="1975.2" y="4266.53" width="13.475" height="2.802" style="stroke:rgb(196,0,95);stroke-width:0.54px;stroke-miterlimit:1.5;"/>
            <rect x="1975.2" y="4270.39" width="13.475" height="2.802" style="stroke:rgb(255,60,101);stroke-width:0.54px;stroke-miterlimit:1.5;"/>
            <rect x="1975.2" y="4285.81" width="13.475" height="2.802" style="stroke:rgb(0,219,255);stroke-width:0.54px;stroke-miterlimit:1.5;"/>
            <rect x="1975.2" y="4281.95" width="13.475" height="2.802" style="stroke:rgb(77,246,117);stroke-width:0.54px;stroke-miterlimit:1.5;"/>
            <rect x="1975.2" y="4289.66" width="13.475" height="2.802" style="stroke:rgb(44,136,247);stroke-width:0.54px;stroke-miterlimit:1.5;"/>
            <rect x="1975.2" y="4301.23" width="13.475" height="2.802" style="stroke:rgb(255,5,255);stroke-width:0.54px;stroke-miterlimit:1.5;"/>
            <rect x="1975.2" y="4297.37" width="13.475" height="2.802" style="stroke:rgb(198,125,255);stroke-width:0.54px;stroke-miterlimit:1.5;"/>
            <rect x="1975.2" y="4235.4" width="13.475" height="2.802" style="fill:rgb(128,128,128);stroke:rgb(218,255,17);stroke-width:0.54px;stroke-miterlimit:1.5;"/>
            <rect x="1975.2" y="4231.54" width="13.475" height="2.802" style="fill:rgb(128,128,128);stroke:rgb(255,171,20);stroke-width:0.54px;stroke-miterlimit:1.5;"/>
            <rect x="1975.2" y="4250.82" width="13.475" height="2.802" style="fill:rgb(128,128,128);stroke:rgb(167,95,255);stroke-width:0.54px;stroke-miterlimit:1.5;"/>
            <rect x="1975.2" y="4223.83" width="13.475" height="2.802" style="fill:rgb(128,128,128);stroke:rgb(196,0,95);stroke-width:0.54px;stroke-miterlimit:1.5;"/>
            <rect x="1975.2" y="4227.69" width="13.475" height="2.802" style="fill:rgb(128,128,128);stroke:rgb(255,60,101);stroke-width:0.54px;stroke-miterlimit:1.5;"/>
            <rect x="1975.2" y="4243.11" width="13.475" height="2.802" style="fill:rgb(128,128,128);stroke:rgb(0,219,255);stroke-width:0.54px;stroke-miterlimit:1.5;"/>
            <rect x="1975.2" y="4239.26" width="13.475" height="2.802" style="fill:rgb(128,128,128);stroke:rgb(77,246,117);stroke-width:0.54px;stroke-miterlimit:1.5;"/>
            <rect x="1975.2" y="4246.97" width="13.475" height="2.802" style="fill:rgb(128,128,128);stroke:rgb(44,136,247);stroke-width:0.54px;stroke-miterlimit:1.5;"/>
            <rect x="1975.2" y="4258.53" width="13.475" height="2.802" style="fill:rgb(128,128,128);stroke:rgb(255,5,255);stroke-width:0.54px;stroke-miterlimit:1.5;"/>
            <rect x="1975.2" y="4254.68" width="13.475" height="2.802" style="fill:rgb(128,128,128);stroke:rgb(198,125,255);stroke-width:0.54px;stroke-miterlimit:1.5;"/>
            <rect x="1975.2" y="4193.04" width="13.475" height="2.802" style="fill:white;stroke:rgb(218,255,17);stroke-width:0.54px;stroke-miterlimit:1.5;"/>
            <rect x="1975.2" y="4189.19" width="13.475" height="2.802" style="fill:white;stroke:rgb(255,171,20);stroke-width:0.54px;stroke-miterlimit:1.5;"/>
            <rect x="1975.2" y="4208.47" width="13.475" height="2.802" style="fill:white;stroke:rgb(167,95,255);stroke-width:0.54px;stroke-miterlimit:1.5;"/>
            <rect x="1975.2" y="4181.48" width="13.475" height="2.802" style="fill:white;stroke:rgb(196,0,95);stroke-width:0.54px;stroke-miterlimit:1.5;"/>
            <rect x="1975.2" y="4185.33" width="13.475" height="2.802" style="fill:white;stroke:rgb(255,60,101);stroke-width:0.54px;stroke-miterlimit:1.5;"/>
            <rect x="1975.2" y="4200.75" width="13.475" height="2.802" style="fill:white;stroke:rgb(0,219,255);stroke-width:0.54px;stroke-miterlimit:1.5;"/>
            <rect x="1975.2" y="4196.9" width="13.475" height="2.802" style="fill:white;stroke:rgb(77,246,117);stroke-width:0.54px;stroke-miterlimit:1.5;"/>
            <rect x="1975.2" y="4204.61" width="13.475" height="2.802" style="fill:white;stroke:rgb(44,136,247);stroke-width:0.54px;stroke-miterlimit:1.5;"/>
            <rect x="1975.2" y="4216.18" width="13.475" height="2.802" style="fill:white;stroke:rgb(255,5,255);stroke-width:0.54px;stroke-miterlimit:1.5;"/>
            <rect x="1975.2" y="4212.32" width="13.475" height="2.802" style="fill:white;stroke:rgb(198,125,255);stroke-width:0.54px;stroke-miterlimit:1.5;"/>
            <rect x="1952.68" y="4354.73" width="33.816" height="1.369" style="fill:rgb(218,255,17);"/>
            <rect x="1952.68" y="4353.36" width="33.816" height="1.369" style="fill:rgb(255,171,20);"/>
            <rect x="1952.68" y="4360.21" width="33.816" height="1.369" style="fill:rgb(167,95,255);"/>
            <rect x="1952.68" y="4350.62" width="33.816" height="1.369" style="fill:rgb(196,0,95);"/>
            <rect x="1952.68" y="4351.99" width="33.816" height="1.369" style="fill:rgb(255,60,101);"/>
            <rect x="1952.68" y="4357.47" width="33.816" height="1.369" style="fill:rgb(0,219,255);"/>
            <rect x="1952.68" y="4356.1" width="33.816" height="1.369" style="fill:rgb(77,246,117);"/>
            <rect x="1952.68" y="4358.84" width="33.816" height="1.369" style="fill:rgb(44,136,247);"/>
            <rect x="1952.68" y="4362.94" width="33.816" height="1.369" style="fill:rgb(255,5,255);"/>
            <rect x="1952.68" y="4361.58" width="33.816" height="1.369" style="fill:rgb(198,125,255);"/>
            <path d="M1896.75,4249.81L1909.28,4262.34L1910.25,4261.38L1897.72,4248.85L1896.75,4249.81Z" style="fill:rgb(218,255,17);"/>
            <path d="M1897.72,4248.85L1910.25,4261.38L1911.22,4260.41L1898.68,4247.88L1897.72,4248.85Z" style="fill:rgb(255,171,20);"/>
            <path d="M1892.88,4253.69L1905.41,4266.22L1906.38,4265.25L1893.85,4252.72L1892.88,4253.69Z" style="fill:rgb(167,95,255);"/>
            <path d="M1899.65,4246.91L1912.18,4259.44L1913.15,4258.47L1900.62,4245.94L1899.65,4246.91Z" style="fill:rgb(196,0,95);"/>
            <path d="M1898.68,4247.88L1911.22,4260.41L1912.18,4259.44L1899.65,4246.91L1898.68,4247.88Z" style="fill:rgb(255,60,101);"/>
            <path d="M1894.81,4251.75L1907.34,4264.28L1908.31,4263.31L1895.78,4250.78L1894.81,4251.75Z" style="fill:rgb(0,219,255);"/>
            <path d="M1895.78,4250.78L1908.31,4263.31L1909.28,4262.34L1896.75,4249.81L1895.78,4250.78Z" style="fill:rgb(77,246,117);"/>
            <path d="M1893.85,4252.72L1906.38,4265.25L1907.34,4264.28L1894.81,4251.75L1893.85,4252.72Z" style="fill:rgb(44,136,247);"/>
            <path d="M1890.94,4255.62L1903.47,4268.15L1904.44,4267.18L1891.91,4254.65L1890.94,4255.62Z" style="fill:rgb(255,5,255);"/>
            <path d="M1891.91,4254.65L1904.44,4267.18L1905.41,4266.22L1892.88,4253.69L1891.91,4254.65Z" style="fill:rgb(198,125,255);"/>
            <path d="M1894.82,4240.12L1907.35,4227.59L1906.38,4226.63L1893.85,4239.16L1894.82,4240.12Z" style="fill:rgb(218,255,17);"/>
            <path d="M1893.85,4239.16L1906.38,4226.63L1905.41,4225.66L1892.88,4238.19L1893.85,4239.16Z" style="fill:rgb(255,171,20);"/>
            <path d="M1898.69,4243.99L1911.22,4231.47L1910.25,4230.5L1897.72,4243.03L1898.69,4243.99Z" style="fill:rgb(167,95,255);"/>
            <path d="M1891.91,4237.22L1904.44,4224.69L1903.48,4223.72L1890.95,4236.25L1891.91,4237.22Z" style="fill:rgb(196,0,95);"/>
            <path d="M1892.88,4238.19L1905.41,4225.66L1904.44,4224.69L1891.91,4237.22L1892.88,4238.19Z" style="fill:rgb(255,60,101);"/>
            <path d="M1896.75,4242.06L1909.28,4229.53L1908.32,4228.56L1895.79,4241.09L1896.75,4242.06Z" style="fill:rgb(0,219,255);"/>
            <path d="M1895.79,4241.09L1908.32,4228.56L1907.35,4227.59L1894.82,4240.12L1895.79,4241.09Z" style="fill:rgb(77,246,117);"/>
            <path d="M1897.72,4243.03L1910.25,4230.5L1909.28,4229.53L1896.75,4242.06L1897.72,4243.03Z" style="fill:rgb(44,136,247);"/>
            <path d="M1900.62,4245.93L1913.16,4233.4L1912.19,4232.43L1899.66,4244.96L1900.62,4245.93Z" style="fill:rgb(255,5,255);"/>
            <path d="M1899.66,4244.96L1912.19,4232.43L1911.22,4231.47L1898.69,4243.99L1899.66,4244.96Z" style="fill:rgb(198,125,255);"/>
            <path d="M1916.5,4331.59L1941.71,4331.59" style="fill:none;stroke:white;stroke-width:0.36px;stroke-miterlimit:1.5;"/>
            <path d="M1916.5,4328.21L1941.71,4328.21" style="fill:none;stroke:white;stroke-width:0.54px;stroke-miterlimit:1.5;"/>
            <path d="M1916.5,4324.25L1941.71,4324.25" style="fill:none;stroke:white;stroke-width:1.08px;stroke-miterlimit:1.5;"/>
            <path d="M1916.5,4319.34L1941.71,4319.34" style="fill:none;stroke:white;stroke-width:1.44px;stroke-miterlimit:1.5;"/>
            <path d="M1916.5,4313.27L1941.71,4313.27" style="fill:none;stroke:white;stroke-width:1.8px;stroke-miterlimit:1.5;"/>
            <path d="M1916.5,4305.61L1941.71,4305.61" style="fill:none;stroke:white;stroke-width:3.59px;stroke-miterlimit:1.5;"/>
            <path d="M1916.41,4298.29L1941.62,4298.29" style="fill:none;stroke:black;stroke-width:0.36px;stroke-miterlimit:1.5;"/>
            <path d="M1916.41,4294.91L1941.62,4294.91" style="fill:none;stroke:black;stroke-width:0.54px;stroke-miterlimit:1.5;"/>
            <path d="M1916.41,4290.95L1941.62,4290.95" style="fill:none;stroke:black;stroke-width:1.08px;stroke-miterlimit:1.5;"/>
            <path d="M1916.41,4286.04L1941.62,4286.04" style="fill:none;stroke:black;stroke-width:1.44px;stroke-miterlimit:1.5;"/>
            <path d="M1916.41,4279.97L1941.62,4279.97" style="fill:none;stroke:black;stroke-width:1.8px;stroke-miterlimit:1.5;"/>
            <path d="M1916.41,4272.31L1941.62,4272.31" style="fill:none;stroke:black;stroke-width:3.59px;stroke-miterlimit:1.5;"/>
        </g>
    </g>
    <g id="Flipper-Left">
        <circle id="Art-Bleed5" cx="884.95" cy="3927.14" r="34.642" style="fill:none;stroke:black;stroke-width:6.68px;stroke-miterlimit:1.5;"/>
    </g>
    <g id="Flipper-Left1">
        <path id="Art-Bleed6" d="M483.779,2075.14C499.648,2085.8 503.875,2107.34 493.211,2123.21C482.547,2139.08 461.006,2143.31 445.136,2132.64C429.267,2121.98 425.041,2100.44 435.705,2084.57C446.368,2068.7 467.91,2064.47 483.779,2075.14Z" style="fill:none;stroke:black;stroke-width:6.68px;stroke-miterlimit:1.5;"/>
    </g>
</svg>
