<?xml version="1.0" encoding="UTF-8" standalone="no"?>
<!DOCTYPE svg PUBLIC "-//W3C//DTD SVG 1.1//EN" "http://www.w3.org/Graphics/SVG/1.1/DTD/svg11.dtd">
<svg width="4544px" height="5760px" version="1.1" xmlns="http://www.w3.org/2000/svg" xmlns:xlink="http://www.w3.org/1999/xlink" xml:space="preserve" style="fill-rule:evenodd;clip-rule:evenodd;stroke-linecap:round;stroke-linejoin:round;stroke-miterlimit:10;">
    <g clip-path="url(#_clip1)">
        <g id="Playfield-Outline-.--Top-Bottom-Sticker-Drill-Rout-Plastic-Bevel-Art-Assembly-Rubber-Todo">
            <path d="M250.028,382.57L2193.89,382.57L2193.89,4510.83L2133.9,4510.83L2133.9,4408.84L2133.89,4408.84C2133.89,4402.23 2128.51,4396.84 2121.89,4396.84L2091.95,4396.84L2092.01,4221.88L2092,4221.87C2092,4216.92 2087.96,4212.88 2083.01,4212.88C2078.05,4212.88 2074.01,4216.92 2074.01,4221.87L2074.01,4221.88L2074.06,4396.84L2013.9,4396.84C2007.29,4396.84 2001.91,4402.23 2001.91,4408.84L2001.91,4799.99L1329.95,4799.99L1105.57,4532.58L1105.56,4532.54C1101.06,4527.19 1094.21,4524.01 1087.18,4524.01L771.991,4524.01C758.778,4524.01 747.992,4534.79 747.992,4548L747.992,4799.99L551.237,4799.99L375.011,4647.61L375.011,4549.55C375.011,4536.34 364.232,4525.56 351.012,4525.56L250.028,4525.56L250.028,382.57Z" style="fill:none;stroke:rgb(35,31,32);stroke-width:1.11px;stroke-miterlimit:2.613;"/>
        </g>
        <g id="Playfield-Guides-.--Top-Bottom-Sticker-Drill-Rout-Plastic-Bevel-Art-Assembly-Rubber-Todo">
            <path d="M433.899,4799.99L225.12,4799.99" style="fill:none;stroke:rgb(35,31,32);stroke-width:1.11px;stroke-miterlimit:2.613;"/>
            <path d="M2210.9,4799.99L2099.49,4799.99" style="fill:none;stroke:rgb(35,31,32);stroke-width:1.11px;stroke-miterlimit:2.613;"/>
            <path d="M2194.03,4817.86L2194.03,4763.96" style="fill:none;stroke:black;stroke-width:0.74px;"/>
            <path d="M250.14,4823.45L250.14,4758.68" style="fill:none;stroke:black;stroke-width:0.74px;"/>
        </g>
        <g id="Eject-Path">
            <g id="Bevel">
                <path d="M453.106,2360.55C457.726,2360.64 462.299,2361.42 466.661,2362.95C473.593,2365.4 479.836,2369.66 484.648,2375.22C488.125,2379.23 490.84,2383.89 492.604,2388.9C494.198,2393.42 494.976,2398.17 495.01,2402.96L495.01,2570.11C514.803,2600.91 535.163,2631.36 554.378,2662.53C554.731,2663.12 558.849,2670.09 561.311,2675.05C563.456,2679.36 565.176,2683.89 566.418,2688.55C569.286,2699.3 569.601,2710.69 567.372,2721.59C566.125,2727.69 564.078,2733.63 561.299,2739.2C558.325,2745.16 554.517,2750.7 550.022,2755.62C544.775,2761.37 538.603,2766.26 531.807,2770.05C524.629,2774.04 516.773,2776.8 508.668,2778.14C499.648,2779.64 490.344,2779.4 481.411,2777.45C472.034,2775.4 463.099,2771.45 455.268,2765.91C449.133,2761.56 443.687,2756.26 439.18,2750.24C437.371,2747.82 432.85,2740.77 432.525,2740.28C407.147,2701.38 382.093,2662.25 357.193,2623.03C356.404,2621.76 355.667,2620.45 355.009,2619.1C354.603,2618.27 354.235,2617.42 353.877,2616.57C352.718,2613.81 351.814,2610.96 351.239,2608.03C350.746,2605.51 350.501,2602.96 350.452,2600.4C350.116,2551.17 350.109,2451.68 350.452,2402.45C350.542,2397.66 351.378,2392.91 353.031,2388.4C354.973,2383.11 357.982,2378.22 361.827,2374.09C366.486,2369.08 372.346,2365.23 378.796,2362.95C383.158,2361.42 387.732,2360.64 392.352,2360.55C412.603,2360.41 432.855,2360.41 453.106,2360.55ZM392.9,2373.17C389.524,2373.19 386.178,2373.74 382.991,2374.86C378.91,2376.3 375.161,2378.64 372.066,2381.66C368.886,2384.77 366.411,2388.58 364.882,2392.75C363.721,2395.91 363.137,2399.25 363.073,2402.62C362.761,2451.87 362.125,2551.38 363.081,2600.63C363.139,2602.43 363.333,2604.21 363.701,2605.97C364.111,2607.93 364.734,2609.82 365.509,2611.67C366.189,2613.29 366.968,2614.84 367.892,2616.34C392.789,2655.59 417.361,2695.07 443.281,2733.66C443.591,2734.11 448.323,2741.44 449.845,2743.41C453.644,2748.32 458.209,2752.63 463.331,2756.14C469.866,2760.62 477.29,2763.76 485.056,2765.32C492.376,2766.79 499.975,2766.88 507.325,2765.57C513.982,2764.37 520.421,2762.03 526.288,2758.66C531.86,2755.47 536.908,2751.38 541.181,2746.58C545.001,2742.3 548.198,2737.46 550.634,2732.26C552.71,2727.83 554.23,2723.14 555.151,2718.33C556.943,2708.97 556.469,2699.2 553.731,2690.07C552.025,2684.38 545.467,2672.45 545.219,2671.91C544.962,2671.37 543.21,2668.48 543.21,2668.48L482.388,2573.81C482.388,2533.37 483.147,2442.67 482.378,2402.23C482.275,2398.99 481.692,2395.79 480.576,2392.75C479.088,2388.69 476.705,2384.97 473.647,2381.91C470.589,2378.86 466.871,2376.47 462.81,2374.98C459.644,2373.82 456.312,2373.24 452.944,2373.17C432.929,2373.05 412.914,2373.17 392.9,2373.17Z" style="fill:rgb(85,85,85);fill-rule:nonzero;stroke:black;stroke-width:0.53px;stroke-linecap:butt;stroke-miterlimit:1.41421;"/>
                <g transform="matrix(0.43323,0.689137,-0.689137,0.43323,-2960.12,-3848.07)">
                    <path d="M8924.18,795.892L8924.18,785.84L8925.69,785.84C8926.37,785.84 8926.9,785.892 8927.3,785.996C8927.71,786.1 8928.05,786.276 8928.33,786.523C8928.61,786.779 8928.83,787.098 8929,787.48C8929.17,787.866 8929.25,788.257 8929.25,788.652C8929.25,789.373 8928.97,789.982 8928.42,790.481C8928.96,790.664 8929.38,790.983 8929.68,791.438C8930,791.89 8930.15,792.415 8930.15,793.014C8930.15,793.8 8929.88,794.464 8929.32,795.006C8928.99,795.34 8928.61,795.573 8928.19,795.703C8927.74,795.829 8927.17,795.892 8926.48,795.892L8924.18,795.892ZM8925.7,790.156L8926.18,790.156C8926.74,790.156 8927.15,790.031 8927.42,789.782C8927.68,789.532 8927.81,789.164 8927.81,788.678C8927.81,788.205 8927.68,787.846 8927.41,787.601C8927.14,787.355 8926.75,787.233 8926.24,787.233L8925.7,787.233L8925.7,790.156ZM8925.7,794.466L8926.64,794.466C8927.32,794.466 8927.83,794.331 8928.15,794.062C8928.49,793.771 8928.66,793.402 8928.66,792.955C8928.66,792.521 8928.49,792.157 8928.17,791.862C8927.85,791.571 8927.28,791.425 8926.47,791.425L8925.7,791.425L8925.7,794.466Z" style="fill-rule:nonzero;"/>
                    <path d="M8937.61,787.265L8933.59,787.265L8933.59,789.681L8937.5,789.681L8937.5,791.106L8933.59,791.106L8933.59,794.466L8937.61,794.466L8937.61,795.892L8932.07,795.892L8932.07,785.84L8937.61,785.84L8937.61,787.265Z" style="fill-rule:nonzero;"/>
                    <path d="M8940.11,785.84L8942.9,792.806L8945.71,785.84L8947.37,785.84L8942.86,796.647L8938.45,785.84L8940.11,785.84Z" style="fill-rule:nonzero;"/>
                    <path d="M8954.17,787.265L8950.14,787.265L8950.14,789.681L8954.05,789.681L8954.05,791.106L8950.14,791.106L8950.14,794.466L8954.17,794.466L8954.17,795.892L8948.62,795.892L8948.62,785.84L8954.17,785.84L8954.17,787.265Z" style="fill-rule:nonzero;"/>
                    <path d="M8957.68,785.84L8957.68,794.466L8960.64,794.466L8960.64,795.892L8956.16,795.892L8956.16,785.84L8957.68,785.84Z" style="fill-rule:nonzero;"/>
                    <path d="M8971.74,787.265L8967.71,787.265L8967.71,789.681L8971.62,789.681L8971.62,791.106L8967.71,791.106L8967.71,794.466L8971.74,794.466L8971.74,795.892L8966.19,795.892L8966.19,785.84L8971.74,785.84L8971.74,787.265Z" style="fill-rule:nonzero;"/>
                    <path d="M8973.73,795.892L8973.73,785.84L8975.84,785.84C8976.85,785.84 8977.65,785.939 8978.23,786.139C8978.86,786.334 8979.43,786.666 8979.95,787.135C8980.98,788.081 8981.5,789.325 8981.5,790.866C8981.5,792.411 8980.96,793.661 8979.88,794.616C8979.34,795.093 8978.77,795.425 8978.18,795.612C8977.62,795.798 8976.83,795.892 8975.81,795.892L8973.73,795.892ZM8975.25,794.466L8975.93,794.466C8976.61,794.466 8977.18,794.394 8977.63,794.251C8978.08,794.099 8978.49,793.858 8978.85,793.528C8979.6,792.847 8979.97,791.959 8979.97,790.866C8979.97,789.763 8979.6,788.869 8978.86,788.183C8978.2,787.571 8977.22,787.265 8975.93,787.265L8975.25,787.265L8975.25,794.466Z" style="fill-rule:nonzero;"/>
                    <path d="M8988.58,790.657L8992.73,790.657L8992.73,790.989C8992.73,791.744 8992.64,792.413 8992.47,792.994C8992.29,793.533 8992,794.036 8991.59,794.505C8990.65,795.555 8989.47,796.08 8988.02,796.08C8986.62,796.08 8985.42,795.573 8984.41,794.557C8983.41,793.537 8982.91,792.313 8982.91,790.885C8982.91,789.427 8983.42,788.19 8984.44,787.174C8985.46,786.154 8986.7,785.644 8988.16,785.644C8988.95,785.644 8989.68,785.805 8990.36,786.126C8991.01,786.447 8991.65,786.968 8992.28,787.688L8991.2,788.724C8990.38,787.626 8989.37,787.077 8988.19,787.077C8987.12,787.077 8986.23,787.443 8985.51,788.177C8984.79,788.897 8984.43,789.8 8984.43,790.885C8984.43,792.005 8984.83,792.927 8985.64,793.652C8986.39,794.325 8987.2,794.661 8988.08,794.661C8988.82,794.661 8989.49,794.409 8990.09,793.906C8990.68,793.398 8991.02,792.79 8991.09,792.083L8988.58,792.083L8988.58,790.657Z" style="fill-rule:nonzero;"/>
                    <path d="M9000.19,787.265L8996.16,787.265L8996.16,789.681L9000.07,789.681L9000.07,791.106L8996.16,791.106L8996.16,794.466L9000.19,794.466L9000.19,795.892L8994.64,795.892L8994.64,785.84L9000.19,785.84L9000.19,787.265Z" style="fill-rule:nonzero;"/>
                    <path d="M9006.24,795.162C9006.24,794.919 9006.33,794.709 9006.51,794.531C9006.69,794.353 9006.9,794.264 9007.15,794.264C9007.39,794.264 9007.61,794.353 9007.78,794.531C9007.96,794.709 9008.05,794.922 9008.05,795.169C9008.05,795.421 9007.96,795.636 9007.78,795.813C9007.61,795.987 9007.4,796.074 9007.15,796.074C9006.89,796.074 9006.68,795.987 9006.5,795.813C9006.33,795.64 9006.24,795.423 9006.24,795.162Z" style="fill-rule:nonzero;"/>
                    <path d="M9011.75,787.259L9010.01,787.259L9010.84,785.84L9013.27,785.84L9013.27,795.892L9011.75,795.892L9011.75,787.259Z" style="fill-rule:nonzero;"/>
                    <path d="M9018.65,794.466L9022.39,794.466L9022.39,795.892L9015.64,795.892L9019.13,791.666C9019.48,791.245 9019.76,790.881 9020,790.573C9020.23,790.264 9020.4,790.006 9020.52,789.798C9020.77,789.39 9020.9,789.023 9020.9,788.698C9020.9,788.229 9020.73,787.836 9020.4,787.519C9020.07,787.202 9019.66,787.044 9019.18,787.044C9018.16,787.044 9017.58,787.645 9017.43,788.847L9015.92,788.847C9016.17,786.729 9017.24,785.67 9019.13,785.67C9020.05,785.67 9020.82,785.961 9021.44,786.543C9022.06,787.124 9022.37,787.845 9022.37,788.704C9022.37,789.251 9022.23,789.787 9021.94,790.312C9021.79,790.586 9021.58,790.91 9021.29,791.285C9021.01,791.661 9020.65,792.105 9020.21,792.617L9018.65,794.466Z" style="fill-rule:nonzero;"/>
                    <path d="M9030.55,787.259L9027.45,787.259L9026.96,788.925C9027.03,788.917 9027.1,788.91 9027.17,788.906C9027.24,788.902 9027.3,788.899 9027.35,788.899C9028.33,788.899 9029.13,789.229 9029.76,789.889C9030.39,790.544 9030.7,791.384 9030.7,792.409C9030.7,793.468 9030.34,794.34 9029.63,795.026C9028.92,795.711 9028.02,796.054 9026.94,796.054C9025.61,796.054 9024.56,795.429 9023.79,794.179L9024.94,793.209C9025.26,793.748 9025.58,794.127 9025.9,794.349C9026.22,794.566 9026.61,794.674 9027.08,794.674C9027.68,794.674 9028.19,794.461 9028.6,794.036C9029.02,793.598 9029.22,793.066 9029.22,792.441C9029.22,791.799 9029.02,791.274 9028.61,790.866C9028.2,790.445 9027.69,790.234 9027.08,790.234C9026.4,790.234 9025.81,790.531 9025.32,791.126L9024.82,791.126L9026.4,785.84L9030.55,785.84L9030.55,787.259Z" style="fill-rule:nonzero;"/>
                    <path d="M9037.58,785.84L9040.2,792.558L9042.93,785.351L9045.55,792.558L9048.33,785.84L9049.98,785.84L9045.49,796.53L9042.9,789.407L9040.21,796.536L9035.93,785.84L9037.58,785.84Z" style="fill-rule:nonzero;"/>
                    <path d="M9052.54,789.55L9052.54,795.892L9051.08,795.892L9051.08,789.55L9052.54,789.55ZM9050.86,786.914C9050.86,786.658 9050.95,786.436 9051.14,786.25C9051.32,786.063 9051.55,785.97 9051.81,785.97C9052.07,785.97 9052.3,786.063 9052.49,786.25C9052.67,786.432 9052.76,786.655 9052.76,786.92C9052.76,787.185 9052.67,787.411 9052.49,787.597C9052.3,787.784 9052.08,787.877 9051.81,787.877C9051.55,787.877 9051.32,787.784 9051.14,787.597C9050.95,787.411 9050.86,787.183 9050.86,786.914Z" style="fill-rule:nonzero;"/>
                    <path d="M9059.07,784.896L9060.55,784.896L9060.55,795.892L9059.07,795.892L9059.07,795.228C9058.5,795.792 9057.84,796.074 9057.11,796.074C9056.25,796.074 9055.52,795.757 9054.95,795.123C9054.38,794.477 9054.1,793.669 9054.1,792.702C9054.1,791.755 9054.38,790.965 9054.95,790.332C9055.52,789.694 9056.23,789.375 9057.08,789.375C9057.82,789.375 9058.49,789.678 9059.07,790.286L9059.07,784.896ZM9055.6,792.702C9055.6,793.309 9055.76,793.804 9056.09,794.186C9056.42,794.572 9056.84,794.765 9057.35,794.765C9057.89,794.765 9058.33,794.579 9058.66,794.205C9059,793.819 9059.17,793.329 9059.17,792.734C9059.17,792.139 9059,791.649 9058.66,791.263C9058.33,790.885 9057.9,790.696 9057.36,790.696C9056.86,790.696 9056.44,790.887 9056.1,791.269C9055.76,791.655 9055.6,792.133 9055.6,792.702Z" style="fill-rule:nonzero;"/>
                    <path d="M9068.17,793.066L9063.62,793.066C9063.66,793.587 9063.83,794.001 9064.13,794.31C9064.43,794.613 9064.82,794.765 9065.28,794.765C9065.65,794.765 9065.95,794.678 9066.19,794.505C9066.42,794.331 9066.69,794.01 9066.99,793.541L9068.23,794.231C9068.04,794.557 9067.83,794.836 9067.62,795.068C9067.41,795.3 9067.18,795.491 9066.94,795.641C9066.69,795.791 9066.43,795.9 9066.15,795.97C9065.87,796.039 9065.56,796.074 9065.23,796.074C9064.29,796.074 9063.53,795.77 9062.95,795.162C9062.38,794.55 9062.09,793.739 9062.09,792.728C9062.09,791.725 9062.37,790.913 9062.93,790.293C9063.49,789.681 9064.23,789.375 9065.15,789.375C9066.09,789.375 9066.83,789.672 9067.37,790.267C9067.91,790.857 9068.18,791.675 9068.18,792.721L9068.17,793.066ZM9066.67,791.868C9066.46,791.087 9065.97,790.696 9065.19,790.696C9065.01,790.696 9064.84,790.723 9064.68,790.778C9064.53,790.832 9064.39,790.91 9064.26,791.012C9064.13,791.114 9064.02,791.237 9063.93,791.38C9063.84,791.523 9063.77,791.686 9063.72,791.868L9066.67,791.868Z" style="fill-rule:nonzero;"/>
                    <path d="M8970.76,800.996L8970.76,809.622L8969.24,809.622L8969.24,800.996L8966.93,800.996L8966.93,799.57L8973.06,799.57L8973.06,800.996L8970.76,800.996Z" style="fill-rule:nonzero;"/>
                    <path d="M8973.59,804.55C8973.59,803.136 8974.11,801.92 8975.15,800.905C8976.18,799.889 8977.43,799.381 8978.88,799.381C8980.31,799.381 8981.53,799.893 8982.56,800.918C8983.59,801.942 8984.1,803.172 8984.1,804.609C8984.1,806.054 8983.59,807.28 8982.55,808.287C8981.52,809.299 8980.26,809.804 8978.8,809.804C8977.5,809.804 8976.33,809.355 8975.3,808.457C8974.16,807.463 8973.59,806.161 8973.59,804.55ZM8975.12,804.57C8975.12,805.681 8975.5,806.595 8976.25,807.311C8976.99,808.027 8977.84,808.385 8978.82,808.385C8979.87,808.385 8980.76,808.021 8981.49,807.291C8982.21,806.553 8982.57,805.655 8982.57,804.596C8982.57,803.524 8982.22,802.626 8981.5,801.901C8980.79,801.172 8979.91,800.807 8978.85,800.807C8977.81,800.807 8976.93,801.172 8976.21,801.901C8975.49,802.621 8975.12,803.511 8975.12,804.57Z" style="fill-rule:nonzero;"/>
                    <path d="M8987.53,805.54L8987.53,809.622L8986.01,809.622L8986.01,799.57L8987.73,799.57C8988.57,799.57 8989.21,799.629 8989.64,799.746C8990.07,799.863 8990.45,800.084 8990.78,800.41C8991.36,800.974 8991.65,801.686 8991.65,802.545C8991.65,803.465 8991.34,804.195 8990.72,804.733C8990.11,805.271 8989.28,805.54 8988.23,805.54L8987.53,805.54ZM8987.53,804.134L8988.09,804.134C8989.49,804.134 8990.18,803.598 8990.18,802.526C8990.18,801.488 8989.47,800.97 8988.03,800.97L8987.53,800.97L8987.53,804.134Z" style="fill-rule:nonzero;"/>
                    <path d="M9003.01,801.067L9001.78,801.797C9001.55,801.397 9001.33,801.137 9001.12,801.015C9000.9,800.876 9000.62,800.807 9000.28,800.807C8999.86,800.807 8999.51,800.926 8999.23,801.165C8998.95,801.399 8998.82,801.695 8998.82,802.05C8998.82,802.541 8999.18,802.936 8999.91,803.235L9000.91,803.646C9001.73,803.975 9002.33,804.378 9002.7,804.853C9003.08,805.328 9003.27,805.911 9003.27,806.601C9003.27,807.526 9002.96,808.29 9002.34,808.893C9001.72,809.501 9000.95,809.804 9000.03,809.804C8999.16,809.804 8998.44,809.546 8997.87,809.03C8997.31,808.513 8996.96,807.786 8996.82,806.849L8998.36,806.51C8998.43,807.1 8998.55,807.508 8998.73,807.734C8999.04,808.168 8999.49,808.385 9000.09,808.385C9000.57,808.385 9000.96,808.227 9001.27,807.91C9001.58,807.593 9001.74,807.192 9001.74,806.705C9001.74,806.51 9001.71,806.331 9001.66,806.168C9001.6,806.006 9001.52,805.856 9001.4,805.719C9001.29,805.582 9001.14,805.454 9000.96,805.335C9000.78,805.216 9000.56,805.102 9000.31,804.993L8999.34,804.59C8997.96,804.008 8997.27,803.157 8997.27,802.037C8997.27,801.282 8997.56,800.651 8998.14,800.143C8998.72,799.631 8999.43,799.375 9000.29,799.375C9001.45,799.375 9002.36,799.939 9003.01,801.067Z" style="fill-rule:nonzero;"/>
                    <rect x="9005.1" y="799.57" width="1.517" height="10.052" style="fill-rule:nonzero;"/>
                    <path d="M9009.03,809.622L9009.03,799.57L9011.14,799.57C9012.15,799.57 9012.95,799.67 9013.54,799.869C9014.17,800.065 9014.74,800.397 9015.25,800.866C9016.29,801.812 9016.81,803.055 9016.81,804.596C9016.81,806.141 9016.26,807.391 9015.18,808.346C9014.64,808.823 9014.07,809.155 9013.48,809.342C9012.92,809.529 9012.13,809.622 9011.11,809.622L9009.03,809.622ZM9010.55,808.196L9011.23,808.196C9011.91,808.196 9012.48,808.125 9012.93,807.981C9013.38,807.83 9013.79,807.589 9014.16,807.259C9014.9,806.577 9015.27,805.69 9015.27,804.596C9015.27,803.494 9014.91,802.6 9014.17,801.914C9013.5,801.302 9012.52,800.996 9011.23,800.996L9010.55,800.996L9010.55,808.196Z" style="fill-rule:nonzero;"/>
                    <path d="M9024.26,800.996L9020.23,800.996L9020.23,803.411L9024.14,803.411L9024.14,804.837L9020.23,804.837L9020.23,808.196L9024.26,808.196L9024.26,809.622L9018.71,809.622L9018.71,799.57L9024.26,799.57L9024.26,800.996Z" style="fill-rule:nonzero;"/>
                </g>
            </g>
        </g>
        <g id="Captive-Eject-Path">
            <g id="Bevel1">
                <g transform="matrix(-0.406374,0.705308,-0.705308,-0.406374,5995.61,-4226.06)">
                    <path d="M8924.18,795.892L8924.18,785.84L8925.69,785.84C8926.37,785.84 8926.9,785.892 8927.3,785.996C8927.71,786.1 8928.05,786.276 8928.33,786.523C8928.61,786.779 8928.83,787.098 8929,787.48C8929.17,787.866 8929.25,788.257 8929.25,788.652C8929.25,789.373 8928.97,789.982 8928.42,790.481C8928.96,790.664 8929.38,790.983 8929.68,791.438C8930,791.89 8930.15,792.415 8930.15,793.014C8930.15,793.8 8929.88,794.464 8929.32,795.006C8928.99,795.34 8928.61,795.573 8928.19,795.703C8927.74,795.829 8927.17,795.892 8926.48,795.892L8924.18,795.892ZM8925.7,790.156L8926.18,790.156C8926.74,790.156 8927.15,790.031 8927.42,789.782C8927.68,789.532 8927.81,789.164 8927.81,788.678C8927.81,788.205 8927.68,787.846 8927.41,787.601C8927.14,787.355 8926.75,787.233 8926.24,787.233L8925.7,787.233L8925.7,790.156ZM8925.7,794.466L8926.64,794.466C8927.32,794.466 8927.83,794.331 8928.15,794.062C8928.49,793.771 8928.66,793.402 8928.66,792.955C8928.66,792.521 8928.49,792.157 8928.17,791.862C8927.85,791.571 8927.28,791.425 8926.47,791.425L8925.7,791.425L8925.7,794.466Z" style="fill-rule:nonzero;"/>
                    <path d="M8937.61,787.265L8933.59,787.265L8933.59,789.681L8937.5,789.681L8937.5,791.106L8933.59,791.106L8933.59,794.466L8937.61,794.466L8937.61,795.892L8932.07,795.892L8932.07,785.84L8937.61,785.84L8937.61,787.265Z" style="fill-rule:nonzero;"/>
                    <path d="M8940.11,785.84L8942.9,792.806L8945.71,785.84L8947.37,785.84L8942.86,796.647L8938.45,785.84L8940.11,785.84Z" style="fill-rule:nonzero;"/>
                    <path d="M8954.17,787.265L8950.14,787.265L8950.14,789.681L8954.05,789.681L8954.05,791.106L8950.14,791.106L8950.14,794.466L8954.17,794.466L8954.17,795.892L8948.62,795.892L8948.62,785.84L8954.17,785.84L8954.17,787.265Z" style="fill-rule:nonzero;"/>
                    <path d="M8957.68,785.84L8957.68,794.466L8960.64,794.466L8960.64,795.892L8956.16,795.892L8956.16,785.84L8957.68,785.84Z" style="fill-rule:nonzero;"/>
                    <path d="M8971.74,787.265L8967.71,787.265L8967.71,789.681L8971.62,789.681L8971.62,791.106L8967.71,791.106L8967.71,794.466L8971.74,794.466L8971.74,795.892L8966.19,795.892L8966.19,785.84L8971.74,785.84L8971.74,787.265Z" style="fill-rule:nonzero;"/>
                    <path d="M8973.73,795.892L8973.73,785.84L8975.84,785.84C8976.85,785.84 8977.65,785.939 8978.23,786.139C8978.86,786.334 8979.43,786.666 8979.95,787.135C8980.98,788.081 8981.5,789.325 8981.5,790.866C8981.5,792.411 8980.96,793.661 8979.88,794.616C8979.34,795.093 8978.77,795.425 8978.18,795.612C8977.62,795.798 8976.83,795.892 8975.81,795.892L8973.73,795.892ZM8975.25,794.466L8975.93,794.466C8976.61,794.466 8977.18,794.394 8977.63,794.251C8978.08,794.099 8978.49,793.858 8978.85,793.528C8979.6,792.847 8979.97,791.959 8979.97,790.866C8979.97,789.763 8979.6,788.869 8978.86,788.183C8978.2,787.571 8977.22,787.265 8975.93,787.265L8975.25,787.265L8975.25,794.466Z" style="fill-rule:nonzero;"/>
                    <path d="M8988.58,790.657L8992.73,790.657L8992.73,790.989C8992.73,791.744 8992.64,792.413 8992.47,792.994C8992.29,793.533 8992,794.036 8991.59,794.505C8990.65,795.555 8989.47,796.08 8988.02,796.08C8986.62,796.08 8985.42,795.573 8984.41,794.557C8983.41,793.537 8982.91,792.313 8982.91,790.885C8982.91,789.427 8983.42,788.19 8984.44,787.174C8985.46,786.154 8986.7,785.644 8988.16,785.644C8988.95,785.644 8989.68,785.805 8990.36,786.126C8991.01,786.447 8991.65,786.968 8992.28,787.688L8991.2,788.724C8990.38,787.626 8989.37,787.077 8988.19,787.077C8987.12,787.077 8986.23,787.443 8985.51,788.177C8984.79,788.897 8984.43,789.8 8984.43,790.885C8984.43,792.005 8984.83,792.927 8985.64,793.652C8986.39,794.325 8987.2,794.661 8988.08,794.661C8988.82,794.661 8989.49,794.409 8990.09,793.906C8990.68,793.398 8991.02,792.79 8991.09,792.083L8988.58,792.083L8988.58,790.657Z" style="fill-rule:nonzero;"/>
                    <path d="M9000.19,787.265L8996.16,787.265L8996.16,789.681L9000.07,789.681L9000.07,791.106L8996.16,791.106L8996.16,794.466L9000.19,794.466L9000.19,795.892L8994.64,795.892L8994.64,785.84L9000.19,785.84L9000.19,787.265Z" style="fill-rule:nonzero;"/>
                    <path d="M9006.24,795.162C9006.24,794.919 9006.33,794.709 9006.51,794.531C9006.69,794.353 9006.9,794.264 9007.15,794.264C9007.39,794.264 9007.61,794.353 9007.78,794.531C9007.96,794.709 9008.05,794.922 9008.05,795.169C9008.05,795.421 9007.96,795.636 9007.78,795.813C9007.61,795.987 9007.4,796.074 9007.15,796.074C9006.89,796.074 9006.68,795.987 9006.5,795.813C9006.33,795.64 9006.24,795.423 9006.24,795.162Z" style="fill-rule:nonzero;"/>
                    <path d="M9011.75,787.259L9010.01,787.259L9010.84,785.84L9013.27,785.84L9013.27,795.892L9011.75,795.892L9011.75,787.259Z" style="fill-rule:nonzero;"/>
                    <path d="M9018.65,794.466L9022.39,794.466L9022.39,795.892L9015.64,795.892L9019.13,791.666C9019.48,791.245 9019.76,790.881 9020,790.573C9020.23,790.264 9020.4,790.006 9020.52,789.798C9020.77,789.39 9020.9,789.023 9020.9,788.698C9020.9,788.229 9020.73,787.836 9020.4,787.519C9020.07,787.202 9019.66,787.044 9019.18,787.044C9018.16,787.044 9017.58,787.645 9017.43,788.847L9015.92,788.847C9016.17,786.729 9017.24,785.67 9019.13,785.67C9020.05,785.67 9020.82,785.961 9021.44,786.543C9022.06,787.124 9022.37,787.845 9022.37,788.704C9022.37,789.251 9022.23,789.787 9021.94,790.312C9021.79,790.586 9021.58,790.91 9021.29,791.285C9021.01,791.661 9020.65,792.105 9020.21,792.617L9018.65,794.466Z" style="fill-rule:nonzero;"/>
                    <path d="M9030.55,787.259L9027.45,787.259L9026.96,788.925C9027.03,788.917 9027.1,788.91 9027.17,788.906C9027.24,788.902 9027.3,788.899 9027.35,788.899C9028.33,788.899 9029.13,789.229 9029.76,789.889C9030.39,790.544 9030.7,791.384 9030.7,792.409C9030.7,793.468 9030.34,794.34 9029.63,795.026C9028.92,795.711 9028.02,796.054 9026.94,796.054C9025.61,796.054 9024.56,795.429 9023.79,794.179L9024.94,793.209C9025.26,793.748 9025.58,794.127 9025.9,794.349C9026.22,794.566 9026.61,794.674 9027.08,794.674C9027.68,794.674 9028.19,794.461 9028.6,794.036C9029.02,793.598 9029.22,793.066 9029.22,792.441C9029.22,791.799 9029.02,791.274 9028.61,790.866C9028.2,790.445 9027.69,790.234 9027.08,790.234C9026.4,790.234 9025.81,790.531 9025.32,791.126L9024.82,791.126L9026.4,785.84L9030.55,785.84L9030.55,787.259Z" style="fill-rule:nonzero;"/>
                    <path d="M9037.58,785.84L9040.2,792.558L9042.93,785.351L9045.55,792.558L9048.33,785.84L9049.98,785.84L9045.49,796.53L9042.9,789.407L9040.21,796.536L9035.93,785.84L9037.58,785.84Z" style="fill-rule:nonzero;"/>
                    <path d="M9052.54,789.55L9052.54,795.892L9051.08,795.892L9051.08,789.55L9052.54,789.55ZM9050.86,786.914C9050.86,786.658 9050.95,786.436 9051.14,786.25C9051.32,786.063 9051.55,785.97 9051.81,785.97C9052.07,785.97 9052.3,786.063 9052.49,786.25C9052.67,786.432 9052.76,786.655 9052.76,786.92C9052.76,787.185 9052.67,787.411 9052.49,787.597C9052.3,787.784 9052.08,787.877 9051.81,787.877C9051.55,787.877 9051.32,787.784 9051.14,787.597C9050.95,787.411 9050.86,787.183 9050.86,786.914Z" style="fill-rule:nonzero;"/>
                    <path d="M9059.07,784.896L9060.55,784.896L9060.55,795.892L9059.07,795.892L9059.07,795.228C9058.5,795.792 9057.84,796.074 9057.11,796.074C9056.25,796.074 9055.52,795.757 9054.95,795.123C9054.38,794.477 9054.1,793.669 9054.1,792.702C9054.1,791.755 9054.38,790.965 9054.95,790.332C9055.52,789.694 9056.23,789.375 9057.08,789.375C9057.82,789.375 9058.49,789.678 9059.07,790.286L9059.07,784.896ZM9055.6,792.702C9055.6,793.309 9055.76,793.804 9056.09,794.186C9056.42,794.572 9056.84,794.765 9057.35,794.765C9057.89,794.765 9058.33,794.579 9058.66,794.205C9059,793.819 9059.17,793.329 9059.17,792.734C9059.17,792.139 9059,791.649 9058.66,791.263C9058.33,790.885 9057.9,790.696 9057.36,790.696C9056.86,790.696 9056.44,790.887 9056.1,791.269C9055.76,791.655 9055.6,792.133 9055.6,792.702Z" style="fill-rule:nonzero;"/>
                    <path d="M9068.17,793.066L9063.62,793.066C9063.66,793.587 9063.83,794.001 9064.13,794.31C9064.43,794.613 9064.82,794.765 9065.28,794.765C9065.65,794.765 9065.95,794.678 9066.19,794.505C9066.42,794.331 9066.69,794.01 9066.99,793.541L9068.23,794.231C9068.04,794.557 9067.83,794.836 9067.62,795.068C9067.41,795.3 9067.18,795.491 9066.94,795.641C9066.69,795.791 9066.43,795.9 9066.15,795.97C9065.87,796.039 9065.56,796.074 9065.23,796.074C9064.29,796.074 9063.53,795.77 9062.95,795.162C9062.38,794.55 9062.09,793.739 9062.09,792.728C9062.09,791.725 9062.37,790.913 9062.93,790.293C9063.49,789.681 9064.23,789.375 9065.15,789.375C9066.09,789.375 9066.83,789.672 9067.37,790.267C9067.91,790.857 9068.18,791.675 9068.18,792.721L9068.17,793.066ZM9066.67,791.868C9066.46,791.087 9065.97,790.696 9065.19,790.696C9065.01,790.696 9064.84,790.723 9064.68,790.778C9064.53,790.832 9064.39,790.91 9064.26,791.012C9064.13,791.114 9064.02,791.237 9063.93,791.38C9063.84,791.523 9063.77,791.686 9063.72,791.868L9066.67,791.868Z" style="fill-rule:nonzero;"/>
                    <path d="M8970.76,800.996L8970.76,809.622L8969.24,809.622L8969.24,800.996L8966.93,800.996L8966.93,799.57L8973.06,799.57L8973.06,800.996L8970.76,800.996Z" style="fill-rule:nonzero;"/>
                    <path d="M8973.59,804.55C8973.59,803.136 8974.11,801.92 8975.15,800.905C8976.18,799.889 8977.43,799.381 8978.88,799.381C8980.31,799.381 8981.53,799.893 8982.56,800.918C8983.59,801.942 8984.1,803.172 8984.1,804.609C8984.1,806.054 8983.59,807.28 8982.55,808.287C8981.52,809.299 8980.26,809.804 8978.8,809.804C8977.5,809.804 8976.33,809.355 8975.3,808.457C8974.16,807.463 8973.59,806.161 8973.59,804.55ZM8975.12,804.57C8975.12,805.681 8975.5,806.595 8976.25,807.311C8976.99,808.027 8977.84,808.385 8978.82,808.385C8979.87,808.385 8980.76,808.021 8981.49,807.291C8982.21,806.553 8982.57,805.655 8982.57,804.596C8982.57,803.524 8982.22,802.626 8981.5,801.901C8980.79,801.172 8979.91,800.807 8978.85,800.807C8977.81,800.807 8976.93,801.172 8976.21,801.901C8975.49,802.621 8975.12,803.511 8975.12,804.57Z" style="fill-rule:nonzero;"/>
                    <path d="M8987.53,805.54L8987.53,809.622L8986.01,809.622L8986.01,799.57L8987.73,799.57C8988.57,799.57 8989.21,799.629 8989.64,799.746C8990.07,799.863 8990.45,800.084 8990.78,800.41C8991.36,800.974 8991.65,801.686 8991.65,802.545C8991.65,803.465 8991.34,804.195 8990.72,804.733C8990.11,805.271 8989.28,805.54 8988.23,805.54L8987.53,805.54ZM8987.53,804.134L8988.09,804.134C8989.49,804.134 8990.18,803.598 8990.18,802.526C8990.18,801.488 8989.47,800.97 8988.03,800.97L8987.53,800.97L8987.53,804.134Z" style="fill-rule:nonzero;"/>
                    <path d="M9003.01,801.067L9001.78,801.797C9001.55,801.397 9001.33,801.137 9001.12,801.015C9000.9,800.876 9000.62,800.807 9000.28,800.807C8999.86,800.807 8999.51,800.926 8999.23,801.165C8998.95,801.399 8998.82,801.695 8998.82,802.05C8998.82,802.541 8999.18,802.936 8999.91,803.235L9000.91,803.646C9001.73,803.975 9002.33,804.378 9002.7,804.853C9003.08,805.328 9003.27,805.911 9003.27,806.601C9003.27,807.526 9002.96,808.29 9002.34,808.893C9001.72,809.501 9000.95,809.804 9000.03,809.804C8999.16,809.804 8998.44,809.546 8997.87,809.03C8997.31,808.513 8996.96,807.786 8996.82,806.849L8998.36,806.51C8998.43,807.1 8998.55,807.508 8998.73,807.734C8999.04,808.168 8999.49,808.385 9000.09,808.385C9000.57,808.385 9000.96,808.227 9001.27,807.91C9001.58,807.593 9001.74,807.192 9001.74,806.705C9001.74,806.51 9001.71,806.331 9001.66,806.168C9001.6,806.006 9001.52,805.856 9001.4,805.719C9001.29,805.582 9001.14,805.454 9000.96,805.335C9000.78,805.216 9000.56,805.102 9000.31,804.993L8999.34,804.59C8997.96,804.008 8997.27,803.157 8997.27,802.037C8997.27,801.282 8997.56,800.651 8998.14,800.143C8998.72,799.631 8999.43,799.375 9000.29,799.375C9001.45,799.375 9002.36,799.939 9003.01,801.067Z" style="fill-rule:nonzero;"/>
                    <rect x="9005.1" y="799.57" width="1.517" height="10.052" style="fill-rule:nonzero;"/>
                    <path d="M9009.03,809.622L9009.03,799.57L9011.14,799.57C9012.15,799.57 9012.95,799.67 9013.54,799.869C9014.17,800.065 9014.74,800.397 9015.25,800.866C9016.29,801.812 9016.81,803.055 9016.81,804.596C9016.81,806.141 9016.26,807.391 9015.18,808.346C9014.64,808.823 9014.07,809.155 9013.48,809.342C9012.92,809.529 9012.13,809.622 9011.11,809.622L9009.03,809.622ZM9010.55,808.196L9011.23,808.196C9011.91,808.196 9012.48,808.125 9012.93,807.981C9013.38,807.83 9013.79,807.589 9014.16,807.259C9014.9,806.577 9015.27,805.69 9015.27,804.596C9015.27,803.494 9014.91,802.6 9014.17,801.914C9013.5,801.302 9012.52,800.996 9011.23,800.996L9010.55,800.996L9010.55,808.196Z" style="fill-rule:nonzero;"/>
                    <path d="M9024.26,800.996L9020.23,800.996L9020.23,803.411L9024.14,803.411L9024.14,804.837L9020.23,804.837L9020.23,808.196L9024.26,808.196L9024.26,809.622L9018.71,809.622L9018.71,799.57L9024.26,799.57L9024.26,800.996Z" style="fill-rule:nonzero;"/>
                </g>
                <path d="M1883.83,1679.46C1884.54,1679.43 1885.24,1679.4 1885.95,1679.4C1887.46,1679.38 1888.98,1679.44 1890.49,1679.56C1894.48,1679.88 1898.43,1680.69 1902.23,1681.96C1907.46,1683.71 1912.4,1686.33 1916.78,1689.67C1920.8,1692.74 1924.34,1696.41 1927.26,1700.54C1930.85,1705.62 1933.48,1711.38 1934.98,1717.42C1936.63,1724.08 1936.91,1731.07 1935.77,1737.83C1935.13,1741.61 1934.05,1745.32 1932.57,1748.85C1931.99,1750.22 1931.36,1751.55 1930.67,1752.86C1930.42,1753.33 1930.16,1753.8 1929.9,1754.26L1817.11,1952C1817.19,1952.29 1817.27,1952.58 1817.34,1952.86C1817.46,1953.33 1817.46,1953.33 1817.58,1953.79C1817.88,1955.02 1818.15,1956.26 1818.39,1957.5C1818.93,1960.31 1819.3,1963.14 1819.5,1965.99C1820.08,1974.18 1819.24,1982.48 1817.01,1990.38C1816.07,1993.73 1814.88,1997 1813.47,2000.17C1812.85,2001.56 1812.18,2002.92 1811.48,2004.26C1811.17,2004.86 1810.84,2005.45 1810.51,2006.05C1810.25,2006.51 1809.99,2006.96 1809.73,2007.42C1808.81,2009.01 1807.83,2010.56 1806.8,2012.07C1805.27,2014.3 1803.61,2016.45 1801.84,2018.49C1797.23,2023.82 1791.83,2028.44 1785.87,2032.18C1781.61,2034.86 1777.06,2037.09 1772.33,2038.82C1767.21,2040.69 1761.88,2041.98 1756.48,2042.65C1751.32,2043.29 1746.1,2043.37 1740.93,2042.88C1736.4,2042.46 1731.91,2041.6 1727.55,2040.32C1718.69,2037.73 1710.34,2033.39 1703.1,2027.66C1699.85,2025.08 1696.82,2022.22 1694.06,2019.11C1691.07,2015.74 1688.4,2012.08 1686.09,2008.2C1684.03,2004.74 1682.27,2001.11 1680.82,1997.35C1679.32,1993.47 1678.16,1989.47 1677.36,1985.4C1676.35,1980.32 1675.89,1975.13 1676,1969.95C1676.09,1965.59 1676.58,1961.23 1677.47,1956.96C1678.52,1951.85 1680.14,1946.87 1682.28,1942.11C1683.04,1940.44 1683.85,1938.8 1684.73,1937.19C1685.05,1936.61 1685.38,1936.03 1685.71,1935.45C1688.06,1931.34 1690.8,1927.45 1693.91,1923.88C1698.02,1919.15 1702.76,1914.97 1707.96,1911.48C1712.72,1908.29 1717.87,1905.66 1723.25,1903.69C1724.93,1903.07 1726.64,1902.52 1728.36,1902.03C1729.13,1901.81 1729.89,1901.61 1730.66,1901.41C1768.12,1835.74 1805.53,1770.03 1843.04,1704.39C1843.64,1703.38 1844.25,1702.38 1844.91,1701.41C1846.78,1698.63 1848.94,1696.04 1851.33,1693.7C1853.88,1691.2 1856.7,1688.98 1859.72,1687.09C1863.29,1684.84 1867.14,1683.06 1871.16,1681.78C1873.83,1680.92 1876.57,1680.3 1879.34,1679.9C1880.53,1679.73 1881.73,1679.61 1882.93,1679.52C1883.23,1679.5 1883.53,1679.48 1883.83,1679.46ZM1884,1691.47C1883.01,1691.54 1882.02,1691.64 1881.04,1691.78C1879.08,1692.06 1877.14,1692.49 1875.24,1693.07C1872.25,1693.99 1869.37,1695.27 1866.69,1696.89C1864.1,1698.44 1861.7,1700.31 1859.56,1702.44C1857.93,1704.06 1856.44,1705.83 1855.13,1707.72C1854.48,1708.66 1853.88,1709.62 1853.31,1710.61L1738.4,1912.06C1738.14,1912.1 1737.87,1912.15 1737.6,1912.2C1737.33,1912.25 1737.07,1912.29 1736.8,1912.34C1735.87,1912.53 1734.93,1912.72 1734.01,1912.95C1732.03,1913.42 1730.07,1914 1728.15,1914.68C1722.22,1916.77 1716.62,1919.79 1711.63,1923.61C1708.2,1926.24 1705.06,1929.24 1702.28,1932.56C1699.97,1935.31 1697.91,1938.27 1696.13,1941.39C1695.65,1942.24 1695.17,1943.09 1694.72,1943.95C1693.91,1945.52 1693.16,1947.13 1692.48,1948.76C1690.28,1954.1 1688.86,1959.76 1688.28,1965.51C1687.78,1970.53 1687.92,1975.61 1688.69,1980.6C1689.5,1985.79 1690.99,1990.88 1693.11,1995.68C1695.75,2001.64 1699.36,2007.17 1703.77,2011.96C1706.04,2014.41 1708.5,2016.68 1711.14,2018.72C1714.26,2021.12 1717.62,2023.22 1721.15,2024.98C1724.4,2026.59 1727.79,2027.91 1731.28,2028.91C1734.91,2029.95 1738.64,2030.64 1742.41,2030.97C1746.36,2031.32 1750.35,2031.27 1754.29,2030.82C1758.32,2030.37 1762.31,2029.5 1766.17,2028.25C1770.27,2026.91 1774.23,2025.14 1777.94,2022.96C1781.49,2020.88 1784.83,2018.43 1787.87,2015.66C1791.08,2012.74 1793.96,2009.46 1796.46,2005.91C1797.19,2004.88 1797.89,2003.82 1798.55,2002.73C1799,2002.01 1799.42,2001.28 1799.84,2000.55C1800.53,1999.32 1801.19,1998.07 1801.8,1996.8C1802.94,1994.43 1803.93,1991.98 1804.75,1989.48C1806.09,1985.37 1806.98,1981.11 1807.4,1976.8C1807.84,1972.31 1807.76,1967.76 1807.17,1963.29C1806.8,1960.4 1806.21,1957.55 1805.42,1954.76C1805.03,1953.36 1804.58,1951.98 1804.09,1950.61C1842.59,1883.12 1881.3,1815.74 1919.58,1748.13C1920.33,1746.78 1921.01,1745.4 1921.6,1743.98C1922.71,1741.29 1923.51,1738.47 1923.97,1735.6C1924.75,1730.83 1924.6,1725.92 1923.55,1721.2C1922.43,1716.2 1920.31,1711.44 1917.33,1707.27C1915.23,1704.35 1912.72,1701.72 1909.88,1699.5C1906.51,1696.87 1902.7,1694.8 1898.65,1693.42C1895.7,1692.41 1892.63,1691.78 1889.52,1691.52C1887.99,1691.4 1886.45,1691.37 1884.91,1691.43C1884.61,1691.44 1884.3,1691.45 1884,1691.47Z" style="fill:rgb(85,85,85);fill-rule:nonzero;stroke:black;stroke-width:0.53px;stroke-linecap:butt;stroke-miterlimit:1.41421;"/>
            </g>
        </g>
        <g id="Scoop">
            <g id="Bevel2">
                <path d="M1354.25,1363.06C1351.87,1362.12 1349.16,1363.29 1348.22,1365.67L1301.61,1483.84C1300.67,1486.22 1301.84,1488.92 1304.23,1489.87L1426.86,1538.24C1429.24,1539.18 1431.94,1538.01 1432.88,1535.62L1479.5,1417.46C1480.44,1415.07 1479.27,1412.37 1476.88,1411.43L1476.92,1411.45C1485.44,1414.81 1489.63,1424.46 1486.27,1432.99L1444.03,1540.07C1440.67,1548.59 1431.02,1552.78 1422.49,1549.42L1299.78,1501.01C1291.26,1497.65 1287.07,1488 1290.43,1479.47L1332.67,1372.39C1336.04,1363.87 1345.68,1359.68 1354.21,1363.04L1354.25,1363.06Z" style="fill:rgb(85,85,85);"/>
                <g transform="matrix(0.758791,0.294678,-0.294678,0.758791,-5188.56,-1700.39)">
                    <path d="M8958.12,795.892L8958.12,785.84L8959.63,785.84C8960.3,785.84 8960.84,785.892 8961.24,785.996C8961.64,786.1 8961.98,786.276 8962.26,786.523C8962.54,786.779 8962.77,787.098 8962.93,787.48C8963.1,787.866 8963.18,788.257 8963.18,788.652C8963.18,789.373 8962.91,789.982 8962.36,790.481C8962.89,790.664 8963.31,790.983 8963.62,791.438C8963.93,791.89 8964.09,792.415 8964.09,793.014C8964.09,793.8 8963.81,794.464 8963.26,795.006C8962.92,795.34 8962.55,795.573 8962.13,795.703C8961.67,795.829 8961.1,795.892 8960.42,795.892L8958.12,795.892ZM8959.64,790.156L8960.11,790.156C8960.68,790.156 8961.09,790.031 8961.35,789.782C8961.61,789.532 8961.75,789.164 8961.75,788.678C8961.75,788.205 8961.61,787.846 8961.34,787.601C8961.07,787.355 8960.68,787.233 8960.17,787.233L8959.64,787.233L8959.64,790.156ZM8959.64,794.466L8960.57,794.466C8961.26,794.466 8961.76,794.331 8962.09,794.062C8962.42,793.771 8962.59,793.402 8962.59,792.955C8962.59,792.521 8962.43,792.157 8962.1,791.862C8961.79,791.571 8961.22,791.425 8960.41,791.425L8959.64,791.425L8959.64,794.466Z" style="fill-rule:nonzero;"/>
                    <path d="M8971.55,787.265L8967.52,787.265L8967.52,789.681L8971.43,789.681L8971.43,791.106L8967.52,791.106L8967.52,794.466L8971.55,794.466L8971.55,795.892L8966,795.892L8966,785.84L8971.55,785.84L8971.55,787.265Z" style="fill-rule:nonzero;"/>
                    <path d="M8974.05,785.84L8976.83,792.806L8979.65,785.84L8981.31,785.84L8976.8,796.647L8972.39,785.84L8974.05,785.84Z" style="fill-rule:nonzero;"/>
                    <path d="M8988.11,787.265L8984.08,787.265L8984.08,789.681L8987.99,789.681L8987.99,791.106L8984.08,791.106L8984.08,794.466L8988.11,794.466L8988.11,795.892L8982.56,795.892L8982.56,785.84L8988.11,785.84L8988.11,787.265Z" style="fill-rule:nonzero;"/>
                    <path d="M8991.62,785.84L8991.62,794.466L8994.57,794.466L8994.57,795.892L8990.1,795.892L8990.1,785.84L8991.62,785.84Z" style="fill-rule:nonzero;"/>
                    <path d="M9005.67,787.265L9001.64,787.265L9001.64,789.681L9005.56,789.681L9005.56,791.106L9001.64,791.106L9001.64,794.466L9005.67,794.466L9005.67,795.892L9000.12,795.892L9000.12,785.84L9005.67,785.84L9005.67,787.265Z" style="fill-rule:nonzero;"/>
                    <path d="M9007.66,795.892L9007.66,785.84L9009.77,785.84C9010.78,785.84 9011.58,785.939 9012.17,786.139C9012.8,786.334 9013.37,786.666 9013.88,787.135C9014.92,788.081 9015.44,789.325 9015.44,790.866C9015.44,792.411 9014.9,793.661 9013.82,794.616C9013.27,795.093 9012.7,795.425 9012.11,795.612C9011.56,795.798 9010.77,795.892 9009.75,795.892L9007.66,795.892ZM9009.18,794.466L9009.86,794.466C9010.55,794.466 9011.11,794.394 9011.56,794.251C9012.01,794.099 9012.42,793.858 9012.79,793.528C9013.53,792.847 9013.91,791.959 9013.91,790.866C9013.91,789.763 9013.54,788.869 9012.8,788.183C9012.14,787.571 9011.16,787.265 9009.86,787.265L9009.18,787.265L9009.18,794.466Z" style="fill-rule:nonzero;"/>
                    <path d="M9022.51,790.657L9026.67,790.657L9026.67,790.989C9026.67,791.744 9026.58,792.413 9026.4,792.994C9026.23,793.533 9025.93,794.036 9025.52,794.505C9024.59,795.555 9023.4,796.08 9021.96,796.08C9020.56,796.08 9019.35,795.573 9018.35,794.557C9017.34,793.537 9016.84,792.313 9016.84,790.885C9016.84,789.427 9017.35,788.19 9018.37,787.174C9019.39,786.154 9020.64,785.644 9022.1,785.644C9022.88,785.644 9023.62,785.805 9024.3,786.126C9024.95,786.447 9025.59,786.968 9026.22,787.688L9025.14,788.724C9024.31,787.626 9023.31,787.077 9022.12,787.077C9021.06,787.077 9020.17,787.443 9019.45,788.177C9018.73,788.897 9018.37,789.8 9018.37,790.885C9018.37,792.005 9018.77,792.927 9019.57,793.652C9020.32,794.325 9021.14,794.661 9022.01,794.661C9022.76,794.661 9023.43,794.409 9024.02,793.906C9024.62,793.398 9024.95,792.79 9025.02,792.083L9022.51,792.083L9022.51,790.657Z" style="fill-rule:nonzero;"/>
                    <path d="M9034.12,787.265L9030.09,787.265L9030.09,789.681L9034.01,789.681L9034.01,791.106L9030.09,791.106L9030.09,794.466L9034.12,794.466L9034.12,795.892L9028.58,795.892L9028.58,785.84L9034.12,785.84L9034.12,787.265Z" style="fill-rule:nonzero;"/>
                    <path d="M8922.77,808.893C8922.77,808.65 8922.86,808.439 8923.03,808.261C8923.21,808.083 8923.43,807.994 8923.67,807.994C8923.92,807.994 8924.13,808.083 8924.31,808.261C8924.49,808.439 8924.58,808.652 8924.58,808.899C8924.58,809.151 8924.49,809.366 8924.31,809.544C8924.14,809.718 8923.93,809.804 8923.67,809.804C8923.42,809.804 8923.2,809.718 8923.03,809.544C8922.85,809.37 8922.77,809.153 8922.77,808.893Z" style="fill-rule:nonzero;"/>
                    <path d="M8928.28,800.989L8926.54,800.989L8927.37,799.57L8929.79,799.57L8929.79,809.622L8928.28,809.622L8928.28,800.989Z" style="fill-rule:nonzero;"/>
                    <path d="M8935.18,808.196L8938.92,808.196L8938.92,809.622L8932.17,809.622L8935.66,805.397C8936,804.976 8936.29,804.611 8936.52,804.303C8936.75,803.995 8936.93,803.737 8937.05,803.528C8937.3,803.12 8937.42,802.754 8937.42,802.428C8937.42,801.959 8937.26,801.567 8936.93,801.25C8936.6,800.933 8936.19,800.774 8935.7,800.774C8934.69,800.774 8934.11,801.376 8933.96,802.578L8932.45,802.578C8932.69,800.46 8933.76,799.401 8935.66,799.401C8936.58,799.401 8937.34,799.692 8937.96,800.273C8938.59,800.855 8938.9,801.575 8938.9,802.435C8938.9,802.981 8938.76,803.517 8938.47,804.043C8938.32,804.316 8938.1,804.641 8937.82,805.016C8937.53,805.391 8937.17,805.835 8936.74,806.347L8935.18,808.196Z" style="fill-rule:nonzero;"/>
                    <path d="M8947.08,800.989L8943.98,800.989L8943.48,802.656C8943.56,802.647 8943.63,802.641 8943.7,802.636C8943.76,802.632 8943.83,802.63 8943.88,802.63C8944.86,802.63 8945.66,802.96 8946.28,803.619C8946.91,804.275 8947.23,805.115 8947.23,806.139C8947.23,807.198 8946.87,808.07 8946.16,808.756C8945.45,809.442 8944.55,809.785 8943.47,809.785C8942.14,809.785 8941.09,809.16 8940.32,807.91L8941.47,806.94C8941.78,807.478 8942.1,807.858 8942.42,808.079C8942.74,808.296 8943.14,808.405 8943.6,808.405C8944.21,808.405 8944.72,808.192 8945.13,807.767C8945.54,807.328 8945.75,806.797 8945.75,806.172C8945.75,805.529 8945.55,805.004 8945.14,804.596C8944.73,804.175 8944.22,803.965 8943.61,803.965C8942.93,803.965 8942.34,804.262 8941.84,804.856L8941.34,804.856L8942.92,799.57L8947.08,799.57L8947.08,800.989Z" style="fill-rule:nonzero;"/>
                    <path d="M8955.3,806.191L8953.02,803.281L8954.77,803.281L8956.18,805.13L8957.62,803.281L8959.42,803.281L8957.07,806.191L8959.79,809.622L8958.04,809.622L8956.18,807.252L8954.27,809.622L8952.48,809.622L8955.3,806.191Z" style="fill-rule:nonzero;"/>
                    <path d="M8965.12,808.893C8965.12,808.65 8965.21,808.439 8965.39,808.261C8965.56,808.083 8965.78,807.994 8966.02,807.994C8966.27,807.994 8966.48,808.083 8966.66,808.261C8966.84,808.439 8966.93,808.652 8966.93,808.899C8966.93,809.151 8966.84,809.366 8966.66,809.544C8966.49,809.718 8966.27,809.804 8966.02,809.804C8965.77,809.804 8965.55,809.718 8965.38,809.544C8965.2,809.37 8965.12,809.153 8965.12,808.893Z" style="fill-rule:nonzero;"/>
                    <path d="M8970.63,800.989L8968.89,800.989L8969.72,799.57L8972.14,799.57L8972.14,809.622L8970.63,809.622L8970.63,800.989Z" style="fill-rule:nonzero;"/>
                    <path d="M8977.53,808.196L8981.27,808.196L8981.27,809.622L8974.52,809.622L8978.01,805.397C8978.35,804.976 8978.64,804.611 8978.87,804.303C8979.1,803.995 8979.28,803.737 8979.4,803.528C8979.65,803.12 8979.77,802.754 8979.77,802.428C8979.77,801.959 8979.61,801.567 8979.28,801.25C8978.95,800.933 8978.54,800.774 8978.06,800.774C8977.04,800.774 8976.46,801.376 8976.31,802.578L8974.8,802.578C8975.04,800.46 8976.11,799.401 8978.01,799.401C8978.93,799.401 8979.69,799.692 8980.31,800.273C8980.94,800.855 8981.25,801.575 8981.25,802.435C8981.25,802.981 8981.11,803.517 8980.82,804.043C8980.67,804.316 8980.45,804.641 8980.17,805.016C8979.88,805.391 8979.52,805.835 8979.09,806.347L8977.53,808.196Z" style="fill-rule:nonzero;"/>
                    <path d="M8989.43,800.989L8986.33,800.989L8985.84,802.656C8985.91,802.647 8985.98,802.641 8986.05,802.636C8986.11,802.632 8986.18,802.63 8986.23,802.63C8987.21,802.63 8988.01,802.96 8988.63,803.619C8989.26,804.275 8989.58,805.115 8989.58,806.139C8989.58,807.198 8989.22,808.07 8988.51,808.756C8987.8,809.442 8986.9,809.785 8985.82,809.785C8984.49,809.785 8983.44,809.16 8982.67,807.91L8983.82,806.94C8984.13,807.478 8984.45,807.858 8984.77,808.079C8985.09,808.296 8985.49,808.405 8985.95,808.405C8986.56,808.405 8987.07,808.192 8987.48,807.767C8987.89,807.328 8988.1,806.797 8988.1,806.172C8988.1,805.529 8987.9,805.004 8987.49,804.596C8987.08,804.175 8986.57,803.965 8985.96,803.965C8985.28,803.965 8984.69,804.262 8984.19,804.856L8983.69,804.856L8985.27,799.57L8989.43,799.57L8989.43,800.989Z" style="fill-rule:nonzero;"/>
                    <path d="M8997.65,806.191L8995.37,803.281L8997.12,803.281L8998.53,805.13L8999.97,803.281L9001.77,803.281L8999.42,806.191L9002.14,809.622L9000.39,809.622L8998.53,807.252L8996.62,809.622L8994.83,809.622L8997.65,806.191Z" style="fill-rule:nonzero;"/>
                    <path d="M9007.47,808.893C9007.47,808.65 9007.56,808.439 9007.74,808.261C9007.91,808.083 9008.13,807.994 9008.37,807.994C9008.62,807.994 9008.83,808.083 9009.01,808.261C9009.19,808.439 9009.28,808.652 9009.28,808.899C9009.28,809.151 9009.19,809.366 9009.01,809.544C9008.84,809.718 9008.62,809.804 9008.37,809.804C9008.12,809.804 9007.9,809.718 9007.73,809.544C9007.56,809.37 9007.47,809.153 9007.47,808.893Z" style="fill-rule:nonzero;"/>
                    <path d="M9012.98,800.989L9011.24,800.989L9012.07,799.57L9014.49,799.57L9014.49,809.622L9012.98,809.622L9012.98,800.989Z" style="fill-rule:nonzero;"/>
                    <path d="M9022.01,800.989L9017.05,800.989L9017.05,799.57L9024.54,799.57L9018.2,809.967L9016.99,809.205L9022.01,800.989Z" style="fill-rule:nonzero;"/>
                    <path d="M9030.42,800.989L9025.46,800.989L9025.46,799.57L9032.96,799.57L9026.62,809.967L9025.41,809.205L9030.42,800.989Z" style="fill-rule:nonzero;"/>
                    <path d="M9038.32,809.622L9038.32,799.57L9040.43,799.57C9041.44,799.57 9042.24,799.67 9042.83,799.869C9043.46,800.065 9044.03,800.397 9044.54,800.866C9045.58,801.812 9046.09,803.055 9046.09,804.596C9046.09,806.141 9045.56,807.391 9044.47,808.346C9043.93,808.823 9043.36,809.155 9042.77,809.342C9042.21,809.529 9041.43,809.622 9040.41,809.622L9038.32,809.622ZM9039.84,808.196L9040.52,808.196C9041.2,808.196 9041.77,808.125 9042.22,807.981C9042.67,807.83 9043.08,807.589 9043.44,807.259C9044.19,806.577 9044.57,805.69 9044.57,804.596C9044.57,803.494 9044.2,802.6 9043.46,801.914C9042.79,801.302 9041.82,800.996 9040.52,800.996L9039.84,800.996L9039.84,808.196Z" style="fill-rule:nonzero;"/>
                    <path d="M9049.19,803.281L9049.19,809.622L9047.72,809.622L9047.72,803.281L9049.19,803.281ZM9047.5,800.644C9047.5,800.388 9047.59,800.167 9047.78,799.98C9047.97,799.794 9048.19,799.7 9048.45,799.7C9048.72,799.7 9048.94,799.794 9049.13,799.98C9049.32,800.162 9049.41,800.386 9049.41,800.651C9049.41,800.915 9049.32,801.141 9049.13,801.328C9048.95,801.514 9048.72,801.608 9048.46,801.608C9048.19,801.608 9047.97,801.514 9047.78,801.328C9047.59,801.141 9047.5,800.913 9047.5,800.644Z" style="fill-rule:nonzero;"/>
                    <path d="M9055.72,803.281L9057.19,803.281L9057.19,809.622L9055.72,809.622L9055.72,808.958C9055.11,809.522 9054.47,809.804 9053.77,809.804C9052.89,809.804 9052.17,809.488 9051.6,808.854C9051.03,808.207 9050.74,807.4 9050.74,806.432C9050.74,805.481 9051.03,804.689 9051.6,804.056C9052.17,803.422 9052.88,803.105 9053.73,803.105C9054.47,803.105 9055.13,803.409 9055.72,804.017L9055.72,803.281ZM9052.24,806.432C9052.24,807.04 9052.4,807.534 9052.73,807.916C9053.06,808.303 9053.48,808.496 9053.99,808.496C9054.53,808.496 9054.97,808.309 9055.31,807.936C9055.64,807.55 9055.81,807.059 9055.81,806.465C9055.81,805.87 9055.64,805.379 9055.31,804.993C9054.97,804.616 9054.54,804.427 9054.01,804.427C9053.5,804.427 9053.08,804.618 9052.74,805C9052.41,805.386 9052.24,805.863 9052.24,806.432Z" style="fill-rule:nonzero;"/>
                    <path d="M9065.17,809.472C9065.17,809.772 9065.16,810.035 9065.14,810.263C9065.12,810.491 9065.09,810.692 9065.06,810.866C9064.96,811.343 9064.75,811.753 9064.45,812.096C9063.88,812.756 9063.09,813.086 9062.09,813.086C9061.24,813.086 9060.54,812.858 9060,812.402C9059.43,811.933 9059.1,811.284 9059.02,810.455L9060.49,810.455C9060.55,810.768 9060.64,811.009 9060.77,811.178C9061.07,811.573 9061.52,811.771 9062.1,811.771C9063.17,811.771 9063.71,811.113 9063.71,809.798L9063.71,808.912C9063.12,809.507 9062.45,809.804 9061.69,809.804C9060.83,809.804 9060.12,809.492 9059.57,808.867C9059.02,808.233 9058.74,807.441 9058.74,806.491C9058.74,805.566 9059,804.78 9059.51,804.134C9060.07,803.448 9060.8,803.105 9061.71,803.105C9062.51,803.105 9063.18,803.402 9063.71,803.997L9063.71,803.281L9065.17,803.281L9065.17,809.472ZM9063.76,806.465C9063.76,805.848 9063.6,805.356 9063.27,804.987C9062.93,804.609 9062.51,804.42 9061.99,804.42C9061.43,804.42 9060.99,804.626 9060.67,805.039C9060.38,805.408 9060.24,805.885 9060.24,806.471C9060.24,807.048 9060.38,807.521 9060.67,807.89C9060.99,808.294 9061.43,808.496 9061.99,808.496C9062.55,808.496 9062.99,808.292 9063.32,807.884C9063.61,807.515 9063.76,807.042 9063.76,806.465Z" style="fill-rule:nonzero;"/>
                    <path d="M9067.25,808.893C9067.25,808.65 9067.34,808.439 9067.51,808.261C9067.69,808.083 9067.91,807.994 9068.15,807.994C9068.4,807.994 9068.61,808.083 9068.79,808.261C9068.97,808.439 9069.06,808.652 9069.06,808.899C9069.06,809.151 9068.97,809.366 9068.79,809.544C9068.62,809.718 9068.4,809.804 9068.15,809.804C9067.9,809.804 9067.68,809.718 9067.51,809.544C9067.33,809.37 9067.25,809.153 9067.25,808.893Z" style="fill-rule:nonzero;"/>
                    <path d="M8970.76,814.726L8970.76,823.353L8969.24,823.353L8969.24,814.726L8966.93,814.726L8966.93,813.3L8973.06,813.3L8973.06,814.726L8970.76,814.726Z" style="fill-rule:nonzero;"/>
                    <path d="M8973.59,818.281C8973.59,816.866 8974.11,815.651 8975.15,814.635C8976.18,813.619 8977.43,813.112 8978.88,813.112C8980.31,813.112 8981.53,813.624 8982.56,814.648C8983.59,815.672 8984.1,816.903 8984.1,818.34C8984.1,819.785 8983.59,821.011 8982.55,822.018C8981.52,823.029 8980.26,823.535 8978.8,823.535C8977.5,823.535 8976.33,823.086 8975.3,822.187C8974.16,821.193 8973.59,819.891 8973.59,818.281ZM8975.12,818.3C8975.12,819.412 8975.5,820.325 8976.25,821.041C8976.99,821.757 8977.84,822.116 8978.82,822.116C8979.87,822.116 8980.76,821.751 8981.49,821.022C8982.21,820.284 8982.57,819.386 8982.57,818.327C8982.57,817.254 8982.22,816.356 8981.5,815.631C8980.79,814.902 8979.91,814.537 8978.85,814.537C8977.81,814.537 8976.93,814.902 8976.21,815.631C8975.49,816.352 8975.12,817.241 8975.12,818.3Z" style="fill-rule:nonzero;"/>
                    <path d="M8987.53,819.271L8987.53,823.353L8986.01,823.353L8986.01,813.3L8987.73,813.3C8988.57,813.3 8989.21,813.359 8989.64,813.476C8990.07,813.593 8990.45,813.815 8990.78,814.14C8991.36,814.705 8991.65,815.416 8991.65,816.276C8991.65,817.196 8991.34,817.925 8990.72,818.463C8990.11,819.001 8989.28,819.271 8988.23,819.271L8987.53,819.271ZM8987.53,817.864L8988.09,817.864C8989.49,817.864 8990.18,817.328 8990.18,816.256C8990.18,815.219 8989.47,814.7 8988.03,814.7L8987.53,814.7L8987.53,817.864Z" style="fill-rule:nonzero;"/>
                    <path d="M9003.01,814.798L9001.78,815.527C9001.55,815.128 9001.33,814.867 9001.12,814.746C9000.9,814.607 9000.62,814.537 9000.28,814.537C8999.86,814.537 8999.51,814.657 8999.23,814.896C8998.95,815.13 8998.82,815.425 8998.82,815.781C8998.82,816.271 8999.18,816.666 8999.91,816.966L9000.91,817.376C9001.73,817.706 9002.33,818.108 9002.7,818.584C9003.08,819.059 9003.27,819.642 9003.27,820.332C9003.27,821.256 9002.96,822.02 9002.34,822.623C9001.72,823.231 9000.95,823.535 9000.03,823.535C8999.16,823.535 8998.44,823.277 8997.87,822.76C8997.31,822.244 8996.96,821.517 8996.82,820.579L8998.36,820.241C8998.43,820.831 8998.55,821.239 8998.73,821.465C8999.04,821.899 8999.49,822.116 9000.09,822.116C9000.57,822.116 9000.96,821.957 9001.27,821.64C9001.58,821.323 9001.74,820.922 9001.74,820.436C9001.74,820.241 9001.71,820.062 9001.66,819.899C9001.6,819.736 9001.52,819.586 9001.4,819.45C9001.29,819.313 9001.14,819.185 9000.96,819.065C9000.78,818.946 9000.56,818.832 9000.31,818.724L8999.34,818.32C8997.96,817.738 8997.27,816.888 8997.27,815.768C8997.27,815.013 8997.56,814.381 8998.14,813.873C8998.72,813.361 8999.43,813.105 9000.29,813.105C9001.45,813.105 9002.36,813.669 9003.01,814.798Z" style="fill-rule:nonzero;"/>
                    <rect x="9005.1" y="813.3" width="1.517" height="10.052" style="fill-rule:nonzero;"/>
                    <path d="M9009.03,823.353L9009.03,813.3L9011.14,813.3C9012.15,813.3 9012.95,813.4 9013.54,813.6C9014.17,813.795 9014.74,814.127 9015.25,814.596C9016.29,815.542 9016.81,816.786 9016.81,818.327C9016.81,819.872 9016.26,821.122 9015.18,822.077C9014.64,822.554 9014.07,822.886 9013.48,823.073C9012.92,823.259 9012.13,823.353 9011.11,823.353L9009.03,823.353ZM9010.55,821.927L9011.23,821.927C9011.91,821.927 9012.48,821.855 9012.93,821.712C9013.38,821.56 9013.79,821.319 9014.16,820.989C9014.9,820.308 9015.27,819.42 9015.27,818.327C9015.27,817.224 9014.91,816.33 9014.17,815.644C9013.5,815.032 9012.52,814.726 9011.23,814.726L9010.55,814.726L9010.55,821.927Z" style="fill-rule:nonzero;"/>
                    <path d="M9024.26,814.726L9020.23,814.726L9020.23,817.142L9024.14,817.142L9024.14,818.567L9020.23,818.567L9020.23,821.927L9024.26,821.927L9024.26,823.353L9018.71,823.353L9018.71,813.3L9024.26,813.3L9024.26,814.726Z" style="fill-rule:nonzero;"/>
                </g>
            </g>
        </g>
        <g id="Scoop1">
            <g id="Bevel3">
                <path d="M2748.48,2777.47C2746.49,2775.86 2743.56,2776.16 2741.94,2778.16L2662,2876.87C2660.39,2878.87 2660.7,2881.79 2662.69,2883.41L2765.14,2966.37C2767.13,2967.98 2770.06,2967.68 2771.67,2965.68L2851.61,2866.97C2853.23,2864.97 2852.92,2862.05 2850.93,2860.43L2850.96,2860.46C2858.08,2866.23 2859.18,2876.69 2853.41,2883.81L2780.97,2973.27C2775.2,2980.39 2764.74,2981.49 2757.62,2975.72L2655.1,2892.71C2647.98,2886.94 2646.88,2876.47 2652.65,2869.35L2725.09,2779.89C2730.86,2772.77 2741.32,2771.67 2748.45,2777.44L2748.48,2777.47Z" style="fill:rgb(85,85,85);"/>
                <g transform="matrix(0.63531,0.508901,-0.508901,0.63531,-2572.71,-2109.05)">
                    <path d="M8958.12,795.892L8958.12,785.84L8959.63,785.84C8960.3,785.84 8960.84,785.892 8961.24,785.996C8961.64,786.1 8961.98,786.276 8962.26,786.523C8962.54,786.779 8962.77,787.098 8962.93,787.48C8963.1,787.866 8963.18,788.257 8963.18,788.652C8963.18,789.373 8962.91,789.982 8962.36,790.481C8962.89,790.664 8963.31,790.983 8963.62,791.438C8963.93,791.89 8964.09,792.415 8964.09,793.014C8964.09,793.8 8963.81,794.464 8963.26,795.006C8962.92,795.34 8962.55,795.573 8962.13,795.703C8961.67,795.829 8961.1,795.892 8960.42,795.892L8958.12,795.892ZM8959.64,790.156L8960.11,790.156C8960.68,790.156 8961.09,790.031 8961.35,789.782C8961.61,789.532 8961.75,789.164 8961.75,788.678C8961.75,788.205 8961.61,787.846 8961.34,787.601C8961.07,787.355 8960.68,787.233 8960.17,787.233L8959.64,787.233L8959.64,790.156ZM8959.64,794.466L8960.57,794.466C8961.26,794.466 8961.76,794.331 8962.09,794.062C8962.42,793.771 8962.59,793.402 8962.59,792.955C8962.59,792.521 8962.43,792.157 8962.1,791.862C8961.79,791.571 8961.22,791.425 8960.41,791.425L8959.64,791.425L8959.64,794.466Z" style="fill-rule:nonzero;"/>
                    <path d="M8971.55,787.265L8967.52,787.265L8967.52,789.681L8971.43,789.681L8971.43,791.106L8967.52,791.106L8967.52,794.466L8971.55,794.466L8971.55,795.892L8966,795.892L8966,785.84L8971.55,785.84L8971.55,787.265Z" style="fill-rule:nonzero;"/>
                    <path d="M8974.05,785.84L8976.83,792.806L8979.65,785.84L8981.31,785.84L8976.8,796.647L8972.39,785.84L8974.05,785.84Z" style="fill-rule:nonzero;"/>
                    <path d="M8988.11,787.265L8984.08,787.265L8984.08,789.681L8987.99,789.681L8987.99,791.106L8984.08,791.106L8984.08,794.466L8988.11,794.466L8988.11,795.892L8982.56,795.892L8982.56,785.84L8988.11,785.84L8988.11,787.265Z" style="fill-rule:nonzero;"/>
                    <path d="M8991.62,785.84L8991.62,794.466L8994.57,794.466L8994.57,795.892L8990.1,795.892L8990.1,785.84L8991.62,785.84Z" style="fill-rule:nonzero;"/>
                    <path d="M9005.67,787.265L9001.64,787.265L9001.64,789.681L9005.56,789.681L9005.56,791.106L9001.64,791.106L9001.64,794.466L9005.67,794.466L9005.67,795.892L9000.12,795.892L9000.12,785.84L9005.67,785.84L9005.67,787.265Z" style="fill-rule:nonzero;"/>
                    <path d="M9007.66,795.892L9007.66,785.84L9009.77,785.84C9010.78,785.84 9011.58,785.939 9012.17,786.139C9012.8,786.334 9013.37,786.666 9013.88,787.135C9014.92,788.081 9015.44,789.325 9015.44,790.866C9015.44,792.411 9014.9,793.661 9013.82,794.616C9013.27,795.093 9012.7,795.425 9012.11,795.612C9011.56,795.798 9010.77,795.892 9009.75,795.892L9007.66,795.892ZM9009.18,794.466L9009.86,794.466C9010.55,794.466 9011.11,794.394 9011.56,794.251C9012.01,794.099 9012.42,793.858 9012.79,793.528C9013.53,792.847 9013.91,791.959 9013.91,790.866C9013.91,789.763 9013.54,788.869 9012.8,788.183C9012.14,787.571 9011.16,787.265 9009.86,787.265L9009.18,787.265L9009.18,794.466Z" style="fill-rule:nonzero;"/>
                    <path d="M9022.51,790.657L9026.67,790.657L9026.67,790.989C9026.67,791.744 9026.58,792.413 9026.4,792.994C9026.23,793.533 9025.93,794.036 9025.52,794.505C9024.59,795.555 9023.4,796.08 9021.96,796.08C9020.56,796.08 9019.35,795.573 9018.35,794.557C9017.34,793.537 9016.84,792.313 9016.84,790.885C9016.84,789.427 9017.35,788.19 9018.37,787.174C9019.39,786.154 9020.64,785.644 9022.1,785.644C9022.88,785.644 9023.62,785.805 9024.3,786.126C9024.95,786.447 9025.59,786.968 9026.22,787.688L9025.14,788.724C9024.31,787.626 9023.31,787.077 9022.12,787.077C9021.06,787.077 9020.17,787.443 9019.45,788.177C9018.73,788.897 9018.37,789.8 9018.37,790.885C9018.37,792.005 9018.77,792.927 9019.57,793.652C9020.32,794.325 9021.14,794.661 9022.01,794.661C9022.76,794.661 9023.43,794.409 9024.02,793.906C9024.62,793.398 9024.95,792.79 9025.02,792.083L9022.51,792.083L9022.51,790.657Z" style="fill-rule:nonzero;"/>
                    <path d="M9034.12,787.265L9030.09,787.265L9030.09,789.681L9034.01,789.681L9034.01,791.106L9030.09,791.106L9030.09,794.466L9034.12,794.466L9034.12,795.892L9028.58,795.892L9028.58,785.84L9034.12,785.84L9034.12,787.265Z" style="fill-rule:nonzero;"/>
                    <path d="M8922.77,808.893C8922.77,808.65 8922.86,808.439 8923.03,808.261C8923.21,808.083 8923.43,807.994 8923.67,807.994C8923.92,807.994 8924.13,808.083 8924.31,808.261C8924.49,808.439 8924.58,808.652 8924.58,808.899C8924.58,809.151 8924.49,809.366 8924.31,809.544C8924.14,809.718 8923.93,809.804 8923.67,809.804C8923.42,809.804 8923.2,809.718 8923.03,809.544C8922.85,809.37 8922.77,809.153 8922.77,808.893Z" style="fill-rule:nonzero;"/>
                    <path d="M8928.28,800.989L8926.54,800.989L8927.37,799.57L8929.79,799.57L8929.79,809.622L8928.28,809.622L8928.28,800.989Z" style="fill-rule:nonzero;"/>
                    <path d="M8935.18,808.196L8938.92,808.196L8938.92,809.622L8932.17,809.622L8935.66,805.397C8936,804.976 8936.29,804.611 8936.52,804.303C8936.75,803.995 8936.93,803.737 8937.05,803.528C8937.3,803.12 8937.42,802.754 8937.42,802.428C8937.42,801.959 8937.26,801.567 8936.93,801.25C8936.6,800.933 8936.19,800.774 8935.7,800.774C8934.69,800.774 8934.11,801.376 8933.96,802.578L8932.45,802.578C8932.69,800.46 8933.76,799.401 8935.66,799.401C8936.58,799.401 8937.34,799.692 8937.96,800.273C8938.59,800.855 8938.9,801.575 8938.9,802.435C8938.9,802.981 8938.76,803.517 8938.47,804.043C8938.32,804.316 8938.1,804.641 8937.82,805.016C8937.53,805.391 8937.17,805.835 8936.74,806.347L8935.18,808.196Z" style="fill-rule:nonzero;"/>
                    <path d="M8947.08,800.989L8943.98,800.989L8943.48,802.656C8943.56,802.647 8943.63,802.641 8943.7,802.636C8943.76,802.632 8943.83,802.63 8943.88,802.63C8944.86,802.63 8945.66,802.96 8946.28,803.619C8946.91,804.275 8947.23,805.115 8947.23,806.139C8947.23,807.198 8946.87,808.07 8946.16,808.756C8945.45,809.442 8944.55,809.785 8943.47,809.785C8942.14,809.785 8941.09,809.16 8940.32,807.91L8941.47,806.94C8941.78,807.478 8942.1,807.858 8942.42,808.079C8942.74,808.296 8943.14,808.405 8943.6,808.405C8944.21,808.405 8944.72,808.192 8945.13,807.767C8945.54,807.328 8945.75,806.797 8945.75,806.172C8945.75,805.529 8945.55,805.004 8945.14,804.596C8944.73,804.175 8944.22,803.965 8943.61,803.965C8942.93,803.965 8942.34,804.262 8941.84,804.856L8941.34,804.856L8942.92,799.57L8947.08,799.57L8947.08,800.989Z" style="fill-rule:nonzero;"/>
                    <path d="M8955.3,806.191L8953.02,803.281L8954.77,803.281L8956.18,805.13L8957.62,803.281L8959.42,803.281L8957.07,806.191L8959.79,809.622L8958.04,809.622L8956.18,807.252L8954.27,809.622L8952.48,809.622L8955.3,806.191Z" style="fill-rule:nonzero;"/>
                    <path d="M8965.12,808.893C8965.12,808.65 8965.21,808.439 8965.39,808.261C8965.56,808.083 8965.78,807.994 8966.02,807.994C8966.27,807.994 8966.48,808.083 8966.66,808.261C8966.84,808.439 8966.93,808.652 8966.93,808.899C8966.93,809.151 8966.84,809.366 8966.66,809.544C8966.49,809.718 8966.27,809.804 8966.02,809.804C8965.77,809.804 8965.55,809.718 8965.38,809.544C8965.2,809.37 8965.12,809.153 8965.12,808.893Z" style="fill-rule:nonzero;"/>
                    <path d="M8970.63,800.989L8968.89,800.989L8969.72,799.57L8972.14,799.57L8972.14,809.622L8970.63,809.622L8970.63,800.989Z" style="fill-rule:nonzero;"/>
                    <path d="M8977.53,808.196L8981.27,808.196L8981.27,809.622L8974.52,809.622L8978.01,805.397C8978.35,804.976 8978.64,804.611 8978.87,804.303C8979.1,803.995 8979.28,803.737 8979.4,803.528C8979.65,803.12 8979.77,802.754 8979.77,802.428C8979.77,801.959 8979.61,801.567 8979.28,801.25C8978.95,800.933 8978.54,800.774 8978.06,800.774C8977.04,800.774 8976.46,801.376 8976.31,802.578L8974.8,802.578C8975.04,800.46 8976.11,799.401 8978.01,799.401C8978.93,799.401 8979.69,799.692 8980.31,800.273C8980.94,800.855 8981.25,801.575 8981.25,802.435C8981.25,802.981 8981.11,803.517 8980.82,804.043C8980.67,804.316 8980.45,804.641 8980.17,805.016C8979.88,805.391 8979.52,805.835 8979.09,806.347L8977.53,808.196Z" style="fill-rule:nonzero;"/>
                    <path d="M8989.43,800.989L8986.33,800.989L8985.84,802.656C8985.91,802.647 8985.98,802.641 8986.05,802.636C8986.11,802.632 8986.18,802.63 8986.23,802.63C8987.21,802.63 8988.01,802.96 8988.63,803.619C8989.26,804.275 8989.58,805.115 8989.58,806.139C8989.58,807.198 8989.22,808.07 8988.51,808.756C8987.8,809.442 8986.9,809.785 8985.82,809.785C8984.49,809.785 8983.44,809.16 8982.67,807.91L8983.82,806.94C8984.13,807.478 8984.45,807.858 8984.77,808.079C8985.09,808.296 8985.49,808.405 8985.95,808.405C8986.56,808.405 8987.07,808.192 8987.48,807.767C8987.89,807.328 8988.1,806.797 8988.1,806.172C8988.1,805.529 8987.9,805.004 8987.49,804.596C8987.08,804.175 8986.57,803.965 8985.96,803.965C8985.28,803.965 8984.69,804.262 8984.19,804.856L8983.69,804.856L8985.27,799.57L8989.43,799.57L8989.43,800.989Z" style="fill-rule:nonzero;"/>
                    <path d="M8997.65,806.191L8995.37,803.281L8997.12,803.281L8998.53,805.13L8999.97,803.281L9001.77,803.281L8999.42,806.191L9002.14,809.622L9000.39,809.622L8998.53,807.252L8996.62,809.622L8994.83,809.622L8997.65,806.191Z" style="fill-rule:nonzero;"/>
                    <path d="M9007.47,808.893C9007.47,808.65 9007.56,808.439 9007.74,808.261C9007.91,808.083 9008.13,807.994 9008.37,807.994C9008.62,807.994 9008.83,808.083 9009.01,808.261C9009.19,808.439 9009.28,808.652 9009.28,808.899C9009.28,809.151 9009.19,809.366 9009.01,809.544C9008.84,809.718 9008.62,809.804 9008.37,809.804C9008.12,809.804 9007.9,809.718 9007.73,809.544C9007.56,809.37 9007.47,809.153 9007.47,808.893Z" style="fill-rule:nonzero;"/>
                    <path d="M9012.98,800.989L9011.24,800.989L9012.07,799.57L9014.49,799.57L9014.49,809.622L9012.98,809.622L9012.98,800.989Z" style="fill-rule:nonzero;"/>
                    <path d="M9022.01,800.989L9017.05,800.989L9017.05,799.57L9024.54,799.57L9018.2,809.967L9016.99,809.205L9022.01,800.989Z" style="fill-rule:nonzero;"/>
                    <path d="M9030.42,800.989L9025.46,800.989L9025.46,799.57L9032.96,799.57L9026.62,809.967L9025.41,809.205L9030.42,800.989Z" style="fill-rule:nonzero;"/>
                    <path d="M9038.32,809.622L9038.32,799.57L9040.43,799.57C9041.44,799.57 9042.24,799.67 9042.83,799.869C9043.46,800.065 9044.03,800.397 9044.54,800.866C9045.58,801.812 9046.09,803.055 9046.09,804.596C9046.09,806.141 9045.56,807.391 9044.47,808.346C9043.93,808.823 9043.36,809.155 9042.77,809.342C9042.21,809.529 9041.43,809.622 9040.41,809.622L9038.32,809.622ZM9039.84,808.196L9040.52,808.196C9041.2,808.196 9041.77,808.125 9042.22,807.981C9042.67,807.83 9043.08,807.589 9043.44,807.259C9044.19,806.577 9044.57,805.69 9044.57,804.596C9044.57,803.494 9044.2,802.6 9043.46,801.914C9042.79,801.302 9041.82,800.996 9040.52,800.996L9039.84,800.996L9039.84,808.196Z" style="fill-rule:nonzero;"/>
                    <path d="M9049.19,803.281L9049.19,809.622L9047.72,809.622L9047.72,803.281L9049.19,803.281ZM9047.5,800.644C9047.5,800.388 9047.59,800.167 9047.78,799.98C9047.97,799.794 9048.19,799.7 9048.45,799.7C9048.72,799.7 9048.94,799.794 9049.13,799.98C9049.32,800.162 9049.41,800.386 9049.41,800.651C9049.41,800.915 9049.32,801.141 9049.13,801.328C9048.95,801.514 9048.72,801.608 9048.46,801.608C9048.19,801.608 9047.97,801.514 9047.78,801.328C9047.59,801.141 9047.5,800.913 9047.5,800.644Z" style="fill-rule:nonzero;"/>
                    <path d="M9055.72,803.281L9057.19,803.281L9057.19,809.622L9055.72,809.622L9055.72,808.958C9055.11,809.522 9054.47,809.804 9053.77,809.804C9052.89,809.804 9052.17,809.488 9051.6,808.854C9051.03,808.207 9050.74,807.4 9050.74,806.432C9050.74,805.481 9051.03,804.689 9051.6,804.056C9052.17,803.422 9052.88,803.105 9053.73,803.105C9054.47,803.105 9055.13,803.409 9055.72,804.017L9055.72,803.281ZM9052.24,806.432C9052.24,807.04 9052.4,807.534 9052.73,807.916C9053.06,808.303 9053.48,808.496 9053.99,808.496C9054.53,808.496 9054.97,808.309 9055.31,807.936C9055.64,807.55 9055.81,807.059 9055.81,806.465C9055.81,805.87 9055.64,805.379 9055.31,804.993C9054.97,804.616 9054.54,804.427 9054.01,804.427C9053.5,804.427 9053.08,804.618 9052.74,805C9052.41,805.386 9052.24,805.863 9052.24,806.432Z" style="fill-rule:nonzero;"/>
                    <path d="M9065.17,809.472C9065.17,809.772 9065.16,810.035 9065.14,810.263C9065.12,810.491 9065.09,810.692 9065.06,810.866C9064.96,811.343 9064.75,811.753 9064.45,812.096C9063.88,812.756 9063.09,813.086 9062.09,813.086C9061.24,813.086 9060.54,812.858 9060,812.402C9059.43,811.933 9059.1,811.284 9059.02,810.455L9060.49,810.455C9060.55,810.768 9060.64,811.009 9060.77,811.178C9061.07,811.573 9061.52,811.771 9062.1,811.771C9063.17,811.771 9063.71,811.113 9063.71,809.798L9063.71,808.912C9063.12,809.507 9062.45,809.804 9061.69,809.804C9060.83,809.804 9060.12,809.492 9059.57,808.867C9059.02,808.233 9058.74,807.441 9058.74,806.491C9058.74,805.566 9059,804.78 9059.51,804.134C9060.07,803.448 9060.8,803.105 9061.71,803.105C9062.51,803.105 9063.18,803.402 9063.71,803.997L9063.71,803.281L9065.17,803.281L9065.17,809.472ZM9063.76,806.465C9063.76,805.848 9063.6,805.356 9063.27,804.987C9062.93,804.609 9062.51,804.42 9061.99,804.42C9061.43,804.42 9060.99,804.626 9060.67,805.039C9060.38,805.408 9060.24,805.885 9060.24,806.471C9060.24,807.048 9060.38,807.521 9060.67,807.89C9060.99,808.294 9061.43,808.496 9061.99,808.496C9062.55,808.496 9062.99,808.292 9063.32,807.884C9063.61,807.515 9063.76,807.042 9063.76,806.465Z" style="fill-rule:nonzero;"/>
                    <path d="M9067.25,808.893C9067.25,808.65 9067.34,808.439 9067.51,808.261C9067.69,808.083 9067.91,807.994 9068.15,807.994C9068.4,807.994 9068.61,808.083 9068.79,808.261C9068.97,808.439 9069.06,808.652 9069.06,808.899C9069.06,809.151 9068.97,809.366 9068.79,809.544C9068.62,809.718 9068.4,809.804 9068.15,809.804C9067.9,809.804 9067.68,809.718 9067.51,809.544C9067.33,809.37 9067.25,809.153 9067.25,808.893Z" style="fill-rule:nonzero;"/>
                    <path d="M8970.76,814.726L8970.76,823.353L8969.24,823.353L8969.24,814.726L8966.93,814.726L8966.93,813.3L8973.06,813.3L8973.06,814.726L8970.76,814.726Z" style="fill-rule:nonzero;"/>
                    <path d="M8973.59,818.281C8973.59,816.866 8974.11,815.651 8975.15,814.635C8976.18,813.619 8977.43,813.112 8978.88,813.112C8980.31,813.112 8981.53,813.624 8982.56,814.648C8983.59,815.672 8984.1,816.903 8984.1,818.34C8984.1,819.785 8983.59,821.011 8982.55,822.018C8981.52,823.029 8980.26,823.535 8978.8,823.535C8977.5,823.535 8976.33,823.086 8975.3,822.187C8974.16,821.193 8973.59,819.891 8973.59,818.281ZM8975.12,818.3C8975.12,819.412 8975.5,820.325 8976.25,821.041C8976.99,821.757 8977.84,822.116 8978.82,822.116C8979.87,822.116 8980.76,821.751 8981.49,821.022C8982.21,820.284 8982.57,819.386 8982.57,818.327C8982.57,817.254 8982.22,816.356 8981.5,815.631C8980.79,814.902 8979.91,814.537 8978.85,814.537C8977.81,814.537 8976.93,814.902 8976.21,815.631C8975.49,816.352 8975.12,817.241 8975.12,818.3Z" style="fill-rule:nonzero;"/>
                    <path d="M8987.53,819.271L8987.53,823.353L8986.01,823.353L8986.01,813.3L8987.73,813.3C8988.57,813.3 8989.21,813.359 8989.64,813.476C8990.07,813.593 8990.45,813.815 8990.78,814.14C8991.36,814.705 8991.65,815.416 8991.65,816.276C8991.65,817.196 8991.34,817.925 8990.72,818.463C8990.11,819.001 8989.28,819.271 8988.23,819.271L8987.53,819.271ZM8987.53,817.864L8988.09,817.864C8989.49,817.864 8990.18,817.328 8990.18,816.256C8990.18,815.219 8989.47,814.7 8988.03,814.7L8987.53,814.7L8987.53,817.864Z" style="fill-rule:nonzero;"/>
                    <path d="M9003.01,814.798L9001.78,815.527C9001.55,815.128 9001.33,814.867 9001.12,814.746C9000.9,814.607 9000.62,814.537 9000.28,814.537C8999.86,814.537 8999.51,814.657 8999.23,814.896C8998.95,815.13 8998.82,815.425 8998.82,815.781C8998.82,816.271 8999.18,816.666 8999.91,816.966L9000.91,817.376C9001.73,817.706 9002.33,818.108 9002.7,818.584C9003.08,819.059 9003.27,819.642 9003.27,820.332C9003.27,821.256 9002.96,822.02 9002.34,822.623C9001.72,823.231 9000.95,823.535 9000.03,823.535C8999.16,823.535 8998.44,823.277 8997.87,822.76C8997.31,822.244 8996.96,821.517 8996.82,820.579L8998.36,820.241C8998.43,820.831 8998.55,821.239 8998.73,821.465C8999.04,821.899 8999.49,822.116 9000.09,822.116C9000.57,822.116 9000.96,821.957 9001.27,821.64C9001.58,821.323 9001.74,820.922 9001.74,820.436C9001.74,820.241 9001.71,820.062 9001.66,819.899C9001.6,819.736 9001.52,819.586 9001.4,819.45C9001.29,819.313 9001.14,819.185 9000.96,819.065C9000.78,818.946 9000.56,818.832 9000.31,818.724L8999.34,818.32C8997.96,817.738 8997.27,816.888 8997.27,815.768C8997.27,815.013 8997.56,814.381 8998.14,813.873C8998.72,813.361 8999.43,813.105 9000.29,813.105C9001.45,813.105 9002.36,813.669 9003.01,814.798Z" style="fill-rule:nonzero;"/>
                    <rect x="9005.1" y="813.3" width="1.517" height="10.052" style="fill-rule:nonzero;"/>
                    <path d="M9009.03,823.353L9009.03,813.3L9011.14,813.3C9012.15,813.3 9012.95,813.4 9013.54,813.6C9014.17,813.795 9014.74,814.127 9015.25,814.596C9016.29,815.542 9016.81,816.786 9016.81,818.327C9016.81,819.872 9016.26,821.122 9015.18,822.077C9014.64,822.554 9014.07,822.886 9013.48,823.073C9012.92,823.259 9012.13,823.353 9011.11,823.353L9009.03,823.353ZM9010.55,821.927L9011.23,821.927C9011.91,821.927 9012.48,821.855 9012.93,821.712C9013.38,821.56 9013.79,821.319 9014.16,820.989C9014.9,820.308 9015.27,819.42 9015.27,818.327C9015.27,817.224 9014.91,816.33 9014.17,815.644C9013.5,815.032 9012.52,814.726 9011.23,814.726L9010.55,814.726L9010.55,821.927Z" style="fill-rule:nonzero;"/>
                    <path d="M9024.26,814.726L9020.23,814.726L9020.23,817.142L9024.14,817.142L9024.14,818.567L9020.23,818.567L9020.23,821.927L9024.26,821.927L9024.26,823.353L9018.71,823.353L9018.71,813.3L9024.26,813.3L9024.26,814.726Z" style="fill-rule:nonzero;"/>
                </g>
            </g>
        </g>
    </g>
</svg>
