<?xml version="1.0" encoding="UTF-8" standalone="no"?>
<!DOCTYPE svg PUBLIC "-//W3C//DTD SVG 1.1//EN" "http://www.w3.org/Graphics/SVG/1.1/DTD/svg11.dtd">
<svg width="4544px" height="4993px" version="1.1" xmlns="http://www.w3.org/2000/svg" xmlns:xlink="http://www.w3.org/1999/xlink" xml:space="preserve" style="fill-rule:evenodd;clip-rule:evenodd;stroke-linecap:round;stroke-linejoin:round;stroke-miterlimit:2.613;">
    <g clip-path="url(#_clip2)">
        <g id="Playfield-Outline-.--Top-Bottom-Sticker-Drill-Rout-Plastic-Bevel-Art-Assembly-Rubber-Todo">
            <path d="M250.028,347.831L2193.89,347.831L2193.89,4380.1L2133.9,4380.1L2133.9,4278.1L2133.89,4278.1C2133.89,4271.49 2128.51,4266.11 2121.89,4266.11L2091.95,4266.11L2092.01,4091.14L2092,4091.14C2092,4086.18 2087.96,4082.14 2083.01,4082.14C2078.05,4082.14 2074.01,4086.18 2074.01,4091.14L2074.01,4091.14L2074.06,4266.11L2013.9,4266.11C2007.29,4266.11 2001.91,4271.49 2001.91,4278.1L2001.91,4669.25L1329.95,4669.25L1105.57,4401.84L1105.56,4401.8C1101.06,4396.46 1094.21,4393.27 1087.18,4393.27L771.991,4393.27C758.778,4393.27 747.992,4404.05 747.992,4417.26L747.992,4669.25L551.237,4669.25L375.011,4516.87L375.011,4418.81C375.011,4405.6 364.232,4394.82 351.012,4394.82L250.028,4394.82L250.028,347.831Z" style="fill:none;stroke:rgb(35,31,32);stroke-width:1.11px;"/>
        </g>
        <g id="Playfield-Guides-.--Top-Bottom-Sticker-Drill-Rout-Plastic-Bevel-Art-Assembly-Rubber-Todo">
            <path d="M433.899,4669.25L225.12,4669.25" style="fill:none;stroke:rgb(35,31,32);stroke-width:1.11px;"/>
            <path d="M2210.9,4669.25L2099.49,4669.25" style="fill:none;stroke:rgb(35,31,32);stroke-width:1.11px;"/>
            <path d="M2194.03,4687.12L2194.03,4633.23" style="fill:none;stroke:black;stroke-width:0.74px;stroke-miterlimit:10;"/>
            <path d="M250.14,4692.72L250.14,4627.94" style="fill:none;stroke:black;stroke-width:0.74px;stroke-miterlimit:10;"/>
        </g>
        <g id="Scoop">
            <g id="Bevel">
                <path d="M2005.06,2623.49C2003.07,2621.87 2000.14,2622.18 1998.52,2624.18L1918.58,2722.89C1916.97,2724.89 1917.28,2727.81 1919.27,2729.43L2021.72,2812.39C2023.71,2814 2026.64,2813.7 2028.25,2811.7L2108.19,2712.99C2109.81,2710.99 2109.5,2708.07 2107.51,2706.45L2107.54,2706.48C2114.66,2712.24 2115.76,2722.71 2109.99,2729.83L2037.55,2819.29C2031.78,2826.41 2021.32,2827.51 2014.2,2821.74L1911.68,2738.72C1904.56,2732.96 1903.46,2722.49 1909.23,2715.37L1981.67,2625.91C1987.44,2618.79 1997.9,2617.69 2005.02,2623.46L2005.06,2623.49Z" style="fill:rgb(85,85,85);"/>
                <g transform="matrix(0.63531,0.508901,-0.508901,0.63531,-3316.13,-2263.03)">
                    <path d="M8958.12,795.892L8958.12,785.84L8959.63,785.84C8960.3,785.84 8960.84,785.892 8961.24,785.996C8961.64,786.1 8961.98,786.276 8962.26,786.523C8962.54,786.779 8962.77,787.098 8962.93,787.48C8963.1,787.866 8963.18,788.257 8963.18,788.652C8963.18,789.373 8962.91,789.982 8962.36,790.481C8962.89,790.664 8963.31,790.983 8963.62,791.438C8963.93,791.89 8964.09,792.415 8964.09,793.014C8964.09,793.8 8963.81,794.464 8963.26,795.006C8962.92,795.34 8962.55,795.573 8962.13,795.703C8961.67,795.829 8961.1,795.892 8960.42,795.892L8958.12,795.892ZM8959.64,790.156L8960.11,790.156C8960.68,790.156 8961.09,790.031 8961.35,789.782C8961.61,789.532 8961.75,789.164 8961.75,788.678C8961.75,788.205 8961.61,787.846 8961.34,787.601C8961.07,787.355 8960.68,787.233 8960.17,787.233L8959.64,787.233L8959.64,790.156ZM8959.64,794.466L8960.57,794.466C8961.26,794.466 8961.76,794.331 8962.09,794.062C8962.42,793.771 8962.59,793.402 8962.59,792.955C8962.59,792.521 8962.43,792.157 8962.1,791.862C8961.79,791.571 8961.22,791.425 8960.41,791.425L8959.64,791.425L8959.64,794.466Z" style="fill-rule:nonzero;"/>
                    <path d="M8971.55,787.265L8967.52,787.265L8967.52,789.681L8971.43,789.681L8971.43,791.106L8967.52,791.106L8967.52,794.466L8971.55,794.466L8971.55,795.892L8966,795.892L8966,785.84L8971.55,785.84L8971.55,787.265Z" style="fill-rule:nonzero;"/>
                    <path d="M8974.05,785.84L8976.83,792.806L8979.65,785.84L8981.31,785.84L8976.8,796.647L8972.39,785.84L8974.05,785.84Z" style="fill-rule:nonzero;"/>
                    <path d="M8988.11,787.265L8984.08,787.265L8984.08,789.681L8987.99,789.681L8987.99,791.106L8984.08,791.106L8984.08,794.466L8988.11,794.466L8988.11,795.892L8982.56,795.892L8982.56,785.84L8988.11,785.84L8988.11,787.265Z" style="fill-rule:nonzero;"/>
                    <path d="M8991.62,785.84L8991.62,794.466L8994.57,794.466L8994.57,795.892L8990.1,795.892L8990.1,785.84L8991.62,785.84Z" style="fill-rule:nonzero;"/>
                    <path d="M9005.67,787.265L9001.64,787.265L9001.64,789.681L9005.56,789.681L9005.56,791.106L9001.64,791.106L9001.64,794.466L9005.67,794.466L9005.67,795.892L9000.12,795.892L9000.12,785.84L9005.67,785.84L9005.67,787.265Z" style="fill-rule:nonzero;"/>
                    <path d="M9007.66,795.892L9007.66,785.84L9009.77,785.84C9010.78,785.84 9011.58,785.939 9012.17,786.139C9012.8,786.334 9013.37,786.666 9013.88,787.135C9014.92,788.081 9015.44,789.325 9015.44,790.866C9015.44,792.411 9014.9,793.661 9013.82,794.616C9013.27,795.093 9012.7,795.425 9012.11,795.612C9011.56,795.798 9010.77,795.892 9009.75,795.892L9007.66,795.892ZM9009.18,794.466L9009.86,794.466C9010.55,794.466 9011.11,794.394 9011.56,794.251C9012.01,794.099 9012.42,793.858 9012.79,793.528C9013.53,792.847 9013.91,791.959 9013.91,790.866C9013.91,789.763 9013.54,788.869 9012.8,788.183C9012.14,787.571 9011.16,787.265 9009.86,787.265L9009.18,787.265L9009.18,794.466Z" style="fill-rule:nonzero;"/>
                    <path d="M9022.51,790.657L9026.67,790.657L9026.67,790.989C9026.67,791.744 9026.58,792.413 9026.4,792.994C9026.23,793.533 9025.93,794.036 9025.52,794.505C9024.59,795.555 9023.4,796.08 9021.96,796.08C9020.56,796.08 9019.35,795.573 9018.35,794.557C9017.34,793.537 9016.84,792.313 9016.84,790.885C9016.84,789.427 9017.35,788.19 9018.37,787.174C9019.39,786.154 9020.64,785.644 9022.1,785.644C9022.88,785.644 9023.62,785.805 9024.3,786.126C9024.95,786.447 9025.59,786.968 9026.22,787.688L9025.14,788.724C9024.31,787.626 9023.31,787.077 9022.12,787.077C9021.06,787.077 9020.17,787.443 9019.45,788.177C9018.73,788.897 9018.37,789.8 9018.37,790.885C9018.37,792.005 9018.77,792.927 9019.57,793.652C9020.32,794.325 9021.14,794.661 9022.01,794.661C9022.76,794.661 9023.43,794.409 9024.02,793.906C9024.62,793.398 9024.95,792.79 9025.02,792.083L9022.51,792.083L9022.51,790.657Z" style="fill-rule:nonzero;"/>
                    <path d="M9034.12,787.265L9030.09,787.265L9030.09,789.681L9034.01,789.681L9034.01,791.106L9030.09,791.106L9030.09,794.466L9034.12,794.466L9034.12,795.892L9028.58,795.892L9028.58,785.84L9034.12,785.84L9034.12,787.265Z" style="fill-rule:nonzero;"/>
                    <path d="M8922.77,808.893C8922.77,808.65 8922.86,808.439 8923.03,808.261C8923.21,808.083 8923.43,807.994 8923.67,807.994C8923.92,807.994 8924.13,808.083 8924.31,808.261C8924.49,808.439 8924.58,808.652 8924.58,808.899C8924.58,809.151 8924.49,809.366 8924.31,809.544C8924.14,809.718 8923.93,809.804 8923.67,809.804C8923.42,809.804 8923.2,809.718 8923.03,809.544C8922.85,809.37 8922.77,809.153 8922.77,808.893Z" style="fill-rule:nonzero;"/>
                    <path d="M8928.28,800.989L8926.54,800.989L8927.37,799.57L8929.79,799.57L8929.79,809.622L8928.28,809.622L8928.28,800.989Z" style="fill-rule:nonzero;"/>
                    <path d="M8935.18,808.196L8938.92,808.196L8938.92,809.622L8932.17,809.622L8935.66,805.397C8936,804.976 8936.29,804.611 8936.52,804.303C8936.75,803.995 8936.93,803.737 8937.05,803.528C8937.3,803.12 8937.42,802.754 8937.42,802.428C8937.42,801.959 8937.26,801.567 8936.93,801.25C8936.6,800.933 8936.19,800.774 8935.7,800.774C8934.69,800.774 8934.11,801.376 8933.96,802.578L8932.45,802.578C8932.69,800.46 8933.76,799.401 8935.66,799.401C8936.58,799.401 8937.34,799.692 8937.96,800.273C8938.59,800.855 8938.9,801.575 8938.9,802.435C8938.9,802.981 8938.76,803.517 8938.47,804.043C8938.32,804.316 8938.1,804.641 8937.82,805.016C8937.53,805.391 8937.17,805.835 8936.74,806.347L8935.18,808.196Z" style="fill-rule:nonzero;"/>
                    <path d="M8947.08,800.989L8943.98,800.989L8943.48,802.656C8943.56,802.647 8943.63,802.641 8943.7,802.636C8943.76,802.632 8943.83,802.63 8943.88,802.63C8944.86,802.63 8945.66,802.96 8946.28,803.619C8946.91,804.275 8947.23,805.115 8947.23,806.139C8947.23,807.198 8946.87,808.07 8946.16,808.756C8945.45,809.442 8944.55,809.785 8943.47,809.785C8942.14,809.785 8941.09,809.16 8940.32,807.91L8941.47,806.94C8941.78,807.478 8942.1,807.858 8942.42,808.079C8942.74,808.296 8943.14,808.405 8943.6,808.405C8944.21,808.405 8944.72,808.192 8945.13,807.767C8945.54,807.328 8945.75,806.797 8945.75,806.172C8945.75,805.529 8945.55,805.004 8945.14,804.596C8944.73,804.175 8944.22,803.965 8943.61,803.965C8942.93,803.965 8942.34,804.262 8941.84,804.856L8941.34,804.856L8942.92,799.57L8947.08,799.57L8947.08,800.989Z" style="fill-rule:nonzero;"/>
                    <path d="M8955.3,806.191L8953.02,803.281L8954.77,803.281L8956.18,805.13L8957.62,803.281L8959.42,803.281L8957.07,806.191L8959.79,809.622L8958.04,809.622L8956.18,807.252L8954.27,809.622L8952.48,809.622L8955.3,806.191Z" style="fill-rule:nonzero;"/>
                    <path d="M8965.12,808.893C8965.12,808.65 8965.21,808.439 8965.39,808.261C8965.56,808.083 8965.78,807.994 8966.02,807.994C8966.27,807.994 8966.48,808.083 8966.66,808.261C8966.84,808.439 8966.93,808.652 8966.93,808.899C8966.93,809.151 8966.84,809.366 8966.66,809.544C8966.49,809.718 8966.27,809.804 8966.02,809.804C8965.77,809.804 8965.55,809.718 8965.38,809.544C8965.2,809.37 8965.12,809.153 8965.12,808.893Z" style="fill-rule:nonzero;"/>
                    <path d="M8970.63,800.989L8968.89,800.989L8969.72,799.57L8972.14,799.57L8972.14,809.622L8970.63,809.622L8970.63,800.989Z" style="fill-rule:nonzero;"/>
                    <path d="M8977.53,808.196L8981.27,808.196L8981.27,809.622L8974.52,809.622L8978.01,805.397C8978.35,804.976 8978.64,804.611 8978.87,804.303C8979.1,803.995 8979.28,803.737 8979.4,803.528C8979.65,803.12 8979.77,802.754 8979.77,802.428C8979.77,801.959 8979.61,801.567 8979.28,801.25C8978.95,800.933 8978.54,800.774 8978.06,800.774C8977.04,800.774 8976.46,801.376 8976.31,802.578L8974.8,802.578C8975.04,800.46 8976.11,799.401 8978.01,799.401C8978.93,799.401 8979.69,799.692 8980.31,800.273C8980.94,800.855 8981.25,801.575 8981.25,802.435C8981.25,802.981 8981.11,803.517 8980.82,804.043C8980.67,804.316 8980.45,804.641 8980.17,805.016C8979.88,805.391 8979.52,805.835 8979.09,806.347L8977.53,808.196Z" style="fill-rule:nonzero;"/>
                    <path d="M8989.43,800.989L8986.33,800.989L8985.84,802.656C8985.91,802.647 8985.98,802.641 8986.05,802.636C8986.11,802.632 8986.18,802.63 8986.23,802.63C8987.21,802.63 8988.01,802.96 8988.63,803.619C8989.26,804.275 8989.58,805.115 8989.58,806.139C8989.58,807.198 8989.22,808.07 8988.51,808.756C8987.8,809.442 8986.9,809.785 8985.82,809.785C8984.49,809.785 8983.44,809.16 8982.67,807.91L8983.82,806.94C8984.13,807.478 8984.45,807.858 8984.77,808.079C8985.09,808.296 8985.49,808.405 8985.95,808.405C8986.56,808.405 8987.07,808.192 8987.48,807.767C8987.89,807.328 8988.1,806.797 8988.1,806.172C8988.1,805.529 8987.9,805.004 8987.49,804.596C8987.08,804.175 8986.57,803.965 8985.96,803.965C8985.28,803.965 8984.69,804.262 8984.19,804.856L8983.69,804.856L8985.27,799.57L8989.43,799.57L8989.43,800.989Z" style="fill-rule:nonzero;"/>
                    <path d="M8997.65,806.191L8995.37,803.281L8997.12,803.281L8998.53,805.13L8999.97,803.281L9001.77,803.281L8999.42,806.191L9002.14,809.622L9000.39,809.622L8998.53,807.252L8996.62,809.622L8994.83,809.622L8997.65,806.191Z" style="fill-rule:nonzero;"/>
                    <path d="M9007.47,808.893C9007.47,808.65 9007.56,808.439 9007.74,808.261C9007.91,808.083 9008.13,807.994 9008.37,807.994C9008.62,807.994 9008.83,808.083 9009.01,808.261C9009.19,808.439 9009.28,808.652 9009.28,808.899C9009.28,809.151 9009.19,809.366 9009.01,809.544C9008.84,809.718 9008.62,809.804 9008.37,809.804C9008.12,809.804 9007.9,809.718 9007.73,809.544C9007.56,809.37 9007.47,809.153 9007.47,808.893Z" style="fill-rule:nonzero;"/>
                    <path d="M9012.98,800.989L9011.24,800.989L9012.07,799.57L9014.49,799.57L9014.49,809.622L9012.98,809.622L9012.98,800.989Z" style="fill-rule:nonzero;"/>
                    <path d="M9022.01,800.989L9017.05,800.989L9017.05,799.57L9024.54,799.57L9018.2,809.967L9016.99,809.205L9022.01,800.989Z" style="fill-rule:nonzero;"/>
                    <path d="M9030.42,800.989L9025.46,800.989L9025.46,799.57L9032.96,799.57L9026.62,809.967L9025.41,809.205L9030.42,800.989Z" style="fill-rule:nonzero;"/>
                    <path d="M9038.32,809.622L9038.32,799.57L9040.43,799.57C9041.44,799.57 9042.24,799.67 9042.83,799.869C9043.46,800.065 9044.03,800.397 9044.54,800.866C9045.58,801.812 9046.09,803.055 9046.09,804.596C9046.09,806.141 9045.56,807.391 9044.47,808.346C9043.93,808.823 9043.36,809.155 9042.77,809.342C9042.21,809.529 9041.43,809.622 9040.41,809.622L9038.32,809.622ZM9039.84,808.196L9040.52,808.196C9041.2,808.196 9041.77,808.125 9042.22,807.981C9042.67,807.83 9043.08,807.589 9043.44,807.259C9044.19,806.577 9044.57,805.69 9044.57,804.596C9044.57,803.494 9044.2,802.6 9043.46,801.914C9042.79,801.302 9041.82,800.996 9040.52,800.996L9039.84,800.996L9039.84,808.196Z" style="fill-rule:nonzero;"/>
                    <path d="M9049.19,803.281L9049.19,809.622L9047.72,809.622L9047.72,803.281L9049.19,803.281ZM9047.5,800.644C9047.5,800.388 9047.59,800.167 9047.78,799.98C9047.97,799.794 9048.19,799.7 9048.45,799.7C9048.72,799.7 9048.94,799.794 9049.13,799.98C9049.32,800.162 9049.41,800.386 9049.41,800.651C9049.41,800.915 9049.32,801.141 9049.13,801.328C9048.95,801.514 9048.72,801.608 9048.46,801.608C9048.19,801.608 9047.97,801.514 9047.78,801.328C9047.59,801.141 9047.5,800.913 9047.5,800.644Z" style="fill-rule:nonzero;"/>
                    <path d="M9055.72,803.281L9057.19,803.281L9057.19,809.622L9055.72,809.622L9055.72,808.958C9055.11,809.522 9054.47,809.804 9053.77,809.804C9052.89,809.804 9052.17,809.488 9051.6,808.854C9051.03,808.207 9050.74,807.4 9050.74,806.432C9050.74,805.481 9051.03,804.689 9051.6,804.056C9052.17,803.422 9052.88,803.105 9053.73,803.105C9054.47,803.105 9055.13,803.409 9055.72,804.017L9055.72,803.281ZM9052.24,806.432C9052.24,807.04 9052.4,807.534 9052.73,807.916C9053.06,808.303 9053.48,808.496 9053.99,808.496C9054.53,808.496 9054.97,808.309 9055.31,807.936C9055.64,807.55 9055.81,807.059 9055.81,806.465C9055.81,805.87 9055.64,805.379 9055.31,804.993C9054.97,804.616 9054.54,804.427 9054.01,804.427C9053.5,804.427 9053.08,804.618 9052.74,805C9052.41,805.386 9052.24,805.863 9052.24,806.432Z" style="fill-rule:nonzero;"/>
                    <path d="M9065.17,809.472C9065.17,809.772 9065.16,810.035 9065.14,810.263C9065.12,810.491 9065.09,810.692 9065.06,810.866C9064.96,811.343 9064.75,811.753 9064.45,812.096C9063.88,812.756 9063.09,813.086 9062.09,813.086C9061.24,813.086 9060.54,812.858 9060,812.402C9059.43,811.933 9059.1,811.284 9059.02,810.455L9060.49,810.455C9060.55,810.768 9060.64,811.009 9060.77,811.178C9061.07,811.573 9061.52,811.771 9062.1,811.771C9063.17,811.771 9063.71,811.113 9063.71,809.798L9063.71,808.912C9063.12,809.507 9062.45,809.804 9061.69,809.804C9060.83,809.804 9060.12,809.492 9059.57,808.867C9059.02,808.233 9058.74,807.441 9058.74,806.491C9058.74,805.566 9059,804.78 9059.51,804.134C9060.07,803.448 9060.8,803.105 9061.71,803.105C9062.51,803.105 9063.18,803.402 9063.71,803.997L9063.71,803.281L9065.17,803.281L9065.17,809.472ZM9063.76,806.465C9063.76,805.848 9063.6,805.356 9063.27,804.987C9062.93,804.609 9062.51,804.42 9061.99,804.42C9061.43,804.42 9060.99,804.626 9060.67,805.039C9060.38,805.408 9060.24,805.885 9060.24,806.471C9060.24,807.048 9060.38,807.521 9060.67,807.89C9060.99,808.294 9061.43,808.496 9061.99,808.496C9062.55,808.496 9062.99,808.292 9063.32,807.884C9063.61,807.515 9063.76,807.042 9063.76,806.465Z" style="fill-rule:nonzero;"/>
                    <path d="M9067.25,808.893C9067.25,808.65 9067.34,808.439 9067.51,808.261C9067.69,808.083 9067.91,807.994 9068.15,807.994C9068.4,807.994 9068.61,808.083 9068.79,808.261C9068.97,808.439 9069.06,808.652 9069.06,808.899C9069.06,809.151 9068.97,809.366 9068.79,809.544C9068.62,809.718 9068.4,809.804 9068.15,809.804C9067.9,809.804 9067.68,809.718 9067.51,809.544C9067.33,809.37 9067.25,809.153 9067.25,808.893Z" style="fill-rule:nonzero;"/>
                    <path d="M8970.76,814.726L8970.76,823.353L8969.24,823.353L8969.24,814.726L8966.93,814.726L8966.93,813.3L8973.06,813.3L8973.06,814.726L8970.76,814.726Z" style="fill-rule:nonzero;"/>
                    <path d="M8973.59,818.281C8973.59,816.866 8974.11,815.651 8975.15,814.635C8976.18,813.619 8977.43,813.112 8978.88,813.112C8980.31,813.112 8981.53,813.624 8982.56,814.648C8983.59,815.672 8984.1,816.903 8984.1,818.34C8984.1,819.785 8983.59,821.011 8982.55,822.018C8981.52,823.029 8980.26,823.535 8978.8,823.535C8977.5,823.535 8976.33,823.086 8975.3,822.187C8974.16,821.193 8973.59,819.891 8973.59,818.281ZM8975.12,818.3C8975.12,819.412 8975.5,820.325 8976.25,821.041C8976.99,821.757 8977.84,822.116 8978.82,822.116C8979.87,822.116 8980.76,821.751 8981.49,821.022C8982.21,820.284 8982.57,819.386 8982.57,818.327C8982.57,817.254 8982.22,816.356 8981.5,815.631C8980.79,814.902 8979.91,814.537 8978.85,814.537C8977.81,814.537 8976.93,814.902 8976.21,815.631C8975.49,816.352 8975.12,817.241 8975.12,818.3Z" style="fill-rule:nonzero;"/>
                    <path d="M8987.53,819.271L8987.53,823.353L8986.01,823.353L8986.01,813.3L8987.73,813.3C8988.57,813.3 8989.21,813.359 8989.64,813.476C8990.07,813.593 8990.45,813.815 8990.78,814.14C8991.36,814.705 8991.65,815.416 8991.65,816.276C8991.65,817.196 8991.34,817.925 8990.72,818.463C8990.11,819.001 8989.28,819.271 8988.23,819.271L8987.53,819.271ZM8987.53,817.864L8988.09,817.864C8989.49,817.864 8990.18,817.328 8990.18,816.256C8990.18,815.219 8989.47,814.7 8988.03,814.7L8987.53,814.7L8987.53,817.864Z" style="fill-rule:nonzero;"/>
                    <path d="M9003.01,814.798L9001.78,815.527C9001.55,815.128 9001.33,814.867 9001.12,814.746C9000.9,814.607 9000.62,814.537 9000.28,814.537C8999.86,814.537 8999.51,814.657 8999.23,814.896C8998.95,815.13 8998.82,815.425 8998.82,815.781C8998.82,816.271 8999.18,816.666 8999.91,816.966L9000.91,817.376C9001.73,817.706 9002.33,818.108 9002.7,818.584C9003.08,819.059 9003.27,819.642 9003.27,820.332C9003.27,821.256 9002.96,822.02 9002.34,822.623C9001.72,823.231 9000.95,823.535 9000.03,823.535C8999.16,823.535 8998.44,823.277 8997.87,822.76C8997.31,822.244 8996.96,821.517 8996.82,820.579L8998.36,820.241C8998.43,820.831 8998.55,821.239 8998.73,821.465C8999.04,821.899 8999.49,822.116 9000.09,822.116C9000.57,822.116 9000.96,821.957 9001.27,821.64C9001.58,821.323 9001.74,820.922 9001.74,820.436C9001.74,820.241 9001.71,820.062 9001.66,819.899C9001.6,819.736 9001.52,819.586 9001.4,819.45C9001.29,819.313 9001.14,819.185 9000.96,819.065C9000.78,818.946 9000.56,818.832 9000.31,818.724L8999.34,818.32C8997.96,817.738 8997.27,816.888 8997.27,815.768C8997.27,815.013 8997.56,814.381 8998.14,813.873C8998.72,813.361 8999.43,813.105 9000.29,813.105C9001.45,813.105 9002.36,813.669 9003.01,814.798Z" style="fill-rule:nonzero;"/>
                    <rect x="9005.1" y="813.3" width="1.517" height="10.052" style="fill-rule:nonzero;"/>
                    <path d="M9009.03,823.353L9009.03,813.3L9011.14,813.3C9012.15,813.3 9012.95,813.4 9013.54,813.6C9014.17,813.795 9014.74,814.127 9015.25,814.596C9016.29,815.542 9016.81,816.786 9016.81,818.327C9016.81,819.872 9016.26,821.122 9015.18,822.077C9014.64,822.554 9014.07,822.886 9013.48,823.073C9012.92,823.259 9012.13,823.353 9011.11,823.353L9009.03,823.353ZM9010.55,821.927L9011.23,821.927C9011.91,821.927 9012.48,821.855 9012.93,821.712C9013.38,821.56 9013.79,821.319 9014.16,820.989C9014.9,820.308 9015.27,819.42 9015.27,818.327C9015.27,817.224 9014.91,816.33 9014.17,815.644C9013.5,815.032 9012.52,814.726 9011.23,814.726L9010.55,814.726L9010.55,821.927Z" style="fill-rule:nonzero;"/>
                    <path d="M9024.26,814.726L9020.23,814.726L9020.23,817.142L9024.14,817.142L9024.14,818.567L9020.23,818.567L9020.23,821.927L9024.26,821.927L9024.26,823.353L9018.71,823.353L9018.71,813.3L9024.26,813.3L9024.26,814.726Z" style="fill-rule:nonzero;"/>
                </g>
            </g>
        </g>
        <g id="Scoop1">
            <g id="Bevel1">
                <path d="M1586.36,1278.01C1584.31,1276.46 1581.4,1276.87 1579.86,1278.92L1503.38,1380.35C1501.84,1382.4 1502.25,1385.31 1504.3,1386.86L1609.56,1466.22C1611.61,1467.76 1614.52,1467.35 1616.07,1465.3L1692.54,1363.87C1694.08,1361.83 1693.67,1358.91 1691.62,1357.37L1691.66,1357.39C1698.98,1362.91 1700.44,1373.33 1694.92,1380.64L1625.62,1472.56C1620.11,1479.88 1609.69,1481.34 1602.37,1475.82L1497.04,1396.41C1489.72,1390.89 1488.26,1380.48 1493.78,1373.16L1563.07,1281.24C1568.59,1273.92 1579.01,1272.46 1586.33,1277.98L1586.36,1278.01Z" style="fill:rgb(85,85,85);"/>
                <g transform="matrix(0.652575,0.486564,-0.486564,0.652575,-3901.08,-3421.05)">
                    <path d="M8958.12,795.892L8958.12,785.84L8959.63,785.84C8960.3,785.84 8960.84,785.892 8961.24,785.996C8961.64,786.1 8961.98,786.276 8962.26,786.523C8962.54,786.779 8962.77,787.098 8962.93,787.48C8963.1,787.866 8963.18,788.257 8963.18,788.652C8963.18,789.373 8962.91,789.982 8962.36,790.481C8962.89,790.664 8963.31,790.983 8963.62,791.438C8963.93,791.89 8964.09,792.415 8964.09,793.014C8964.09,793.8 8963.81,794.464 8963.26,795.006C8962.92,795.34 8962.55,795.573 8962.13,795.703C8961.67,795.829 8961.1,795.892 8960.42,795.892L8958.12,795.892ZM8959.64,790.156L8960.11,790.156C8960.68,790.156 8961.09,790.031 8961.35,789.782C8961.61,789.532 8961.75,789.164 8961.75,788.678C8961.75,788.205 8961.61,787.846 8961.34,787.601C8961.07,787.355 8960.68,787.233 8960.17,787.233L8959.64,787.233L8959.64,790.156ZM8959.64,794.466L8960.57,794.466C8961.26,794.466 8961.76,794.331 8962.09,794.062C8962.42,793.771 8962.59,793.402 8962.59,792.955C8962.59,792.521 8962.43,792.157 8962.1,791.862C8961.79,791.571 8961.22,791.425 8960.41,791.425L8959.64,791.425L8959.64,794.466Z" style="fill-rule:nonzero;"/>
                    <path d="M8971.55,787.265L8967.52,787.265L8967.52,789.681L8971.43,789.681L8971.43,791.106L8967.52,791.106L8967.52,794.466L8971.55,794.466L8971.55,795.892L8966,795.892L8966,785.84L8971.55,785.84L8971.55,787.265Z" style="fill-rule:nonzero;"/>
                    <path d="M8974.05,785.84L8976.83,792.806L8979.65,785.84L8981.31,785.84L8976.8,796.647L8972.39,785.84L8974.05,785.84Z" style="fill-rule:nonzero;"/>
                    <path d="M8988.11,787.265L8984.08,787.265L8984.08,789.681L8987.99,789.681L8987.99,791.106L8984.08,791.106L8984.08,794.466L8988.11,794.466L8988.11,795.892L8982.56,795.892L8982.56,785.84L8988.11,785.84L8988.11,787.265Z" style="fill-rule:nonzero;"/>
                    <path d="M8991.62,785.84L8991.62,794.466L8994.57,794.466L8994.57,795.892L8990.1,795.892L8990.1,785.84L8991.62,785.84Z" style="fill-rule:nonzero;"/>
                    <path d="M9005.67,787.265L9001.64,787.265L9001.64,789.681L9005.56,789.681L9005.56,791.106L9001.64,791.106L9001.64,794.466L9005.67,794.466L9005.67,795.892L9000.12,795.892L9000.12,785.84L9005.67,785.84L9005.67,787.265Z" style="fill-rule:nonzero;"/>
                    <path d="M9007.66,795.892L9007.66,785.84L9009.77,785.84C9010.78,785.84 9011.58,785.939 9012.17,786.139C9012.8,786.334 9013.37,786.666 9013.88,787.135C9014.92,788.081 9015.44,789.325 9015.44,790.866C9015.44,792.411 9014.9,793.661 9013.82,794.616C9013.27,795.093 9012.7,795.425 9012.11,795.612C9011.56,795.798 9010.77,795.892 9009.75,795.892L9007.66,795.892ZM9009.18,794.466L9009.86,794.466C9010.55,794.466 9011.11,794.394 9011.56,794.251C9012.01,794.099 9012.42,793.858 9012.79,793.528C9013.53,792.847 9013.91,791.959 9013.91,790.866C9013.91,789.763 9013.54,788.869 9012.8,788.183C9012.14,787.571 9011.16,787.265 9009.86,787.265L9009.18,787.265L9009.18,794.466Z" style="fill-rule:nonzero;"/>
                    <path d="M9022.51,790.657L9026.67,790.657L9026.67,790.989C9026.67,791.744 9026.58,792.413 9026.4,792.994C9026.23,793.533 9025.93,794.036 9025.52,794.505C9024.59,795.555 9023.4,796.08 9021.96,796.08C9020.56,796.08 9019.35,795.573 9018.35,794.557C9017.34,793.537 9016.84,792.313 9016.84,790.885C9016.84,789.427 9017.35,788.19 9018.37,787.174C9019.39,786.154 9020.64,785.644 9022.1,785.644C9022.88,785.644 9023.62,785.805 9024.3,786.126C9024.95,786.447 9025.59,786.968 9026.22,787.688L9025.14,788.724C9024.31,787.626 9023.31,787.077 9022.12,787.077C9021.06,787.077 9020.17,787.443 9019.45,788.177C9018.73,788.897 9018.37,789.8 9018.37,790.885C9018.37,792.005 9018.77,792.927 9019.57,793.652C9020.32,794.325 9021.14,794.661 9022.01,794.661C9022.76,794.661 9023.43,794.409 9024.02,793.906C9024.62,793.398 9024.95,792.79 9025.02,792.083L9022.51,792.083L9022.51,790.657Z" style="fill-rule:nonzero;"/>
                    <path d="M9034.12,787.265L9030.09,787.265L9030.09,789.681L9034.01,789.681L9034.01,791.106L9030.09,791.106L9030.09,794.466L9034.12,794.466L9034.12,795.892L9028.58,795.892L9028.58,785.84L9034.12,785.84L9034.12,787.265Z" style="fill-rule:nonzero;"/>
                    <path d="M8922.77,808.893C8922.77,808.65 8922.86,808.439 8923.03,808.261C8923.21,808.083 8923.43,807.994 8923.67,807.994C8923.92,807.994 8924.13,808.083 8924.31,808.261C8924.49,808.439 8924.58,808.652 8924.58,808.899C8924.58,809.151 8924.49,809.366 8924.31,809.544C8924.14,809.718 8923.93,809.804 8923.67,809.804C8923.42,809.804 8923.2,809.718 8923.03,809.544C8922.85,809.37 8922.77,809.153 8922.77,808.893Z" style="fill-rule:nonzero;"/>
                    <path d="M8928.28,800.989L8926.54,800.989L8927.37,799.57L8929.79,799.57L8929.79,809.622L8928.28,809.622L8928.28,800.989Z" style="fill-rule:nonzero;"/>
                    <path d="M8935.18,808.196L8938.92,808.196L8938.92,809.622L8932.17,809.622L8935.66,805.397C8936,804.976 8936.29,804.611 8936.52,804.303C8936.75,803.995 8936.93,803.737 8937.05,803.528C8937.3,803.12 8937.42,802.754 8937.42,802.428C8937.42,801.959 8937.26,801.567 8936.93,801.25C8936.6,800.933 8936.19,800.774 8935.7,800.774C8934.69,800.774 8934.11,801.376 8933.96,802.578L8932.45,802.578C8932.69,800.46 8933.76,799.401 8935.66,799.401C8936.58,799.401 8937.34,799.692 8937.96,800.273C8938.59,800.855 8938.9,801.575 8938.9,802.435C8938.9,802.981 8938.76,803.517 8938.47,804.043C8938.32,804.316 8938.1,804.641 8937.82,805.016C8937.53,805.391 8937.17,805.835 8936.74,806.347L8935.18,808.196Z" style="fill-rule:nonzero;"/>
                    <path d="M8947.08,800.989L8943.98,800.989L8943.48,802.656C8943.56,802.647 8943.63,802.641 8943.7,802.636C8943.76,802.632 8943.83,802.63 8943.88,802.63C8944.86,802.63 8945.66,802.96 8946.28,803.619C8946.91,804.275 8947.23,805.115 8947.23,806.139C8947.23,807.198 8946.87,808.07 8946.16,808.756C8945.45,809.442 8944.55,809.785 8943.47,809.785C8942.14,809.785 8941.09,809.16 8940.32,807.91L8941.47,806.94C8941.78,807.478 8942.1,807.858 8942.42,808.079C8942.74,808.296 8943.14,808.405 8943.6,808.405C8944.21,808.405 8944.72,808.192 8945.13,807.767C8945.54,807.328 8945.75,806.797 8945.75,806.172C8945.75,805.529 8945.55,805.004 8945.14,804.596C8944.73,804.175 8944.22,803.965 8943.61,803.965C8942.93,803.965 8942.34,804.262 8941.84,804.856L8941.34,804.856L8942.92,799.57L8947.08,799.57L8947.08,800.989Z" style="fill-rule:nonzero;"/>
                    <path d="M8955.3,806.191L8953.02,803.281L8954.77,803.281L8956.18,805.13L8957.62,803.281L8959.42,803.281L8957.07,806.191L8959.79,809.622L8958.04,809.622L8956.18,807.252L8954.27,809.622L8952.48,809.622L8955.3,806.191Z" style="fill-rule:nonzero;"/>
                    <path d="M8965.12,808.893C8965.12,808.65 8965.21,808.439 8965.39,808.261C8965.56,808.083 8965.78,807.994 8966.02,807.994C8966.27,807.994 8966.48,808.083 8966.66,808.261C8966.84,808.439 8966.93,808.652 8966.93,808.899C8966.93,809.151 8966.84,809.366 8966.66,809.544C8966.49,809.718 8966.27,809.804 8966.02,809.804C8965.77,809.804 8965.55,809.718 8965.38,809.544C8965.2,809.37 8965.12,809.153 8965.12,808.893Z" style="fill-rule:nonzero;"/>
                    <path d="M8970.63,800.989L8968.89,800.989L8969.72,799.57L8972.14,799.57L8972.14,809.622L8970.63,809.622L8970.63,800.989Z" style="fill-rule:nonzero;"/>
                    <path d="M8977.53,808.196L8981.27,808.196L8981.27,809.622L8974.52,809.622L8978.01,805.397C8978.35,804.976 8978.64,804.611 8978.87,804.303C8979.1,803.995 8979.28,803.737 8979.4,803.528C8979.65,803.12 8979.77,802.754 8979.77,802.428C8979.77,801.959 8979.61,801.567 8979.28,801.25C8978.95,800.933 8978.54,800.774 8978.06,800.774C8977.04,800.774 8976.46,801.376 8976.31,802.578L8974.8,802.578C8975.04,800.46 8976.11,799.401 8978.01,799.401C8978.93,799.401 8979.69,799.692 8980.31,800.273C8980.94,800.855 8981.25,801.575 8981.25,802.435C8981.25,802.981 8981.11,803.517 8980.82,804.043C8980.67,804.316 8980.45,804.641 8980.17,805.016C8979.88,805.391 8979.52,805.835 8979.09,806.347L8977.53,808.196Z" style="fill-rule:nonzero;"/>
                    <path d="M8989.43,800.989L8986.33,800.989L8985.84,802.656C8985.91,802.647 8985.98,802.641 8986.05,802.636C8986.11,802.632 8986.18,802.63 8986.23,802.63C8987.21,802.63 8988.01,802.96 8988.63,803.619C8989.26,804.275 8989.58,805.115 8989.58,806.139C8989.58,807.198 8989.22,808.07 8988.51,808.756C8987.8,809.442 8986.9,809.785 8985.82,809.785C8984.49,809.785 8983.44,809.16 8982.67,807.91L8983.82,806.94C8984.13,807.478 8984.45,807.858 8984.77,808.079C8985.09,808.296 8985.49,808.405 8985.95,808.405C8986.56,808.405 8987.07,808.192 8987.48,807.767C8987.89,807.328 8988.1,806.797 8988.1,806.172C8988.1,805.529 8987.9,805.004 8987.49,804.596C8987.08,804.175 8986.57,803.965 8985.96,803.965C8985.28,803.965 8984.69,804.262 8984.19,804.856L8983.69,804.856L8985.27,799.57L8989.43,799.57L8989.43,800.989Z" style="fill-rule:nonzero;"/>
                    <path d="M8997.65,806.191L8995.37,803.281L8997.12,803.281L8998.53,805.13L8999.97,803.281L9001.77,803.281L8999.42,806.191L9002.14,809.622L9000.39,809.622L8998.53,807.252L8996.62,809.622L8994.83,809.622L8997.65,806.191Z" style="fill-rule:nonzero;"/>
                    <path d="M9007.47,808.893C9007.47,808.65 9007.56,808.439 9007.74,808.261C9007.91,808.083 9008.13,807.994 9008.37,807.994C9008.62,807.994 9008.83,808.083 9009.01,808.261C9009.19,808.439 9009.28,808.652 9009.28,808.899C9009.28,809.151 9009.19,809.366 9009.01,809.544C9008.84,809.718 9008.62,809.804 9008.37,809.804C9008.12,809.804 9007.9,809.718 9007.73,809.544C9007.56,809.37 9007.47,809.153 9007.47,808.893Z" style="fill-rule:nonzero;"/>
                    <path d="M9012.98,800.989L9011.24,800.989L9012.07,799.57L9014.49,799.57L9014.49,809.622L9012.98,809.622L9012.98,800.989Z" style="fill-rule:nonzero;"/>
                    <path d="M9022.01,800.989L9017.05,800.989L9017.05,799.57L9024.54,799.57L9018.2,809.967L9016.99,809.205L9022.01,800.989Z" style="fill-rule:nonzero;"/>
                    <path d="M9030.42,800.989L9025.46,800.989L9025.46,799.57L9032.96,799.57L9026.62,809.967L9025.41,809.205L9030.42,800.989Z" style="fill-rule:nonzero;"/>
                    <path d="M9038.32,809.622L9038.32,799.57L9040.43,799.57C9041.44,799.57 9042.24,799.67 9042.83,799.869C9043.46,800.065 9044.03,800.397 9044.54,800.866C9045.58,801.812 9046.09,803.055 9046.09,804.596C9046.09,806.141 9045.56,807.391 9044.47,808.346C9043.93,808.823 9043.36,809.155 9042.77,809.342C9042.21,809.529 9041.43,809.622 9040.41,809.622L9038.32,809.622ZM9039.84,808.196L9040.52,808.196C9041.2,808.196 9041.77,808.125 9042.22,807.981C9042.67,807.83 9043.08,807.589 9043.44,807.259C9044.19,806.577 9044.57,805.69 9044.57,804.596C9044.57,803.494 9044.2,802.6 9043.46,801.914C9042.79,801.302 9041.82,800.996 9040.52,800.996L9039.84,800.996L9039.84,808.196Z" style="fill-rule:nonzero;"/>
                    <path d="M9049.19,803.281L9049.19,809.622L9047.72,809.622L9047.72,803.281L9049.19,803.281ZM9047.5,800.644C9047.5,800.388 9047.59,800.167 9047.78,799.98C9047.97,799.794 9048.19,799.7 9048.45,799.7C9048.72,799.7 9048.94,799.794 9049.13,799.98C9049.32,800.162 9049.41,800.386 9049.41,800.651C9049.41,800.915 9049.32,801.141 9049.13,801.328C9048.95,801.514 9048.72,801.608 9048.46,801.608C9048.19,801.608 9047.97,801.514 9047.78,801.328C9047.59,801.141 9047.5,800.913 9047.5,800.644Z" style="fill-rule:nonzero;"/>
                    <path d="M9055.72,803.281L9057.19,803.281L9057.19,809.622L9055.72,809.622L9055.72,808.958C9055.11,809.522 9054.47,809.804 9053.77,809.804C9052.89,809.804 9052.17,809.488 9051.6,808.854C9051.03,808.207 9050.74,807.4 9050.74,806.432C9050.74,805.481 9051.03,804.689 9051.6,804.056C9052.17,803.422 9052.88,803.105 9053.73,803.105C9054.47,803.105 9055.13,803.409 9055.72,804.017L9055.72,803.281ZM9052.24,806.432C9052.24,807.04 9052.4,807.534 9052.73,807.916C9053.06,808.303 9053.48,808.496 9053.99,808.496C9054.53,808.496 9054.97,808.309 9055.31,807.936C9055.64,807.55 9055.81,807.059 9055.81,806.465C9055.81,805.87 9055.64,805.379 9055.31,804.993C9054.97,804.616 9054.54,804.427 9054.01,804.427C9053.5,804.427 9053.08,804.618 9052.74,805C9052.41,805.386 9052.24,805.863 9052.24,806.432Z" style="fill-rule:nonzero;"/>
                    <path d="M9065.17,809.472C9065.17,809.772 9065.16,810.035 9065.14,810.263C9065.12,810.491 9065.09,810.692 9065.06,810.866C9064.96,811.343 9064.75,811.753 9064.45,812.096C9063.88,812.756 9063.09,813.086 9062.09,813.086C9061.24,813.086 9060.54,812.858 9060,812.402C9059.43,811.933 9059.1,811.284 9059.02,810.455L9060.49,810.455C9060.55,810.768 9060.64,811.009 9060.77,811.178C9061.07,811.573 9061.52,811.771 9062.1,811.771C9063.17,811.771 9063.71,811.113 9063.71,809.798L9063.71,808.912C9063.12,809.507 9062.45,809.804 9061.69,809.804C9060.83,809.804 9060.12,809.492 9059.57,808.867C9059.02,808.233 9058.74,807.441 9058.74,806.491C9058.74,805.566 9059,804.78 9059.51,804.134C9060.07,803.448 9060.8,803.105 9061.71,803.105C9062.51,803.105 9063.18,803.402 9063.71,803.997L9063.71,803.281L9065.17,803.281L9065.17,809.472ZM9063.76,806.465C9063.76,805.848 9063.6,805.356 9063.27,804.987C9062.93,804.609 9062.51,804.42 9061.99,804.42C9061.43,804.42 9060.99,804.626 9060.67,805.039C9060.38,805.408 9060.24,805.885 9060.24,806.471C9060.24,807.048 9060.38,807.521 9060.67,807.89C9060.99,808.294 9061.43,808.496 9061.99,808.496C9062.55,808.496 9062.99,808.292 9063.32,807.884C9063.61,807.515 9063.76,807.042 9063.76,806.465Z" style="fill-rule:nonzero;"/>
                    <path d="M9067.25,808.893C9067.25,808.65 9067.34,808.439 9067.51,808.261C9067.69,808.083 9067.91,807.994 9068.15,807.994C9068.4,807.994 9068.61,808.083 9068.79,808.261C9068.97,808.439 9069.06,808.652 9069.06,808.899C9069.06,809.151 9068.97,809.366 9068.79,809.544C9068.62,809.718 9068.4,809.804 9068.15,809.804C9067.9,809.804 9067.68,809.718 9067.51,809.544C9067.33,809.37 9067.25,809.153 9067.25,808.893Z" style="fill-rule:nonzero;"/>
                    <path d="M8970.76,814.726L8970.76,823.353L8969.24,823.353L8969.24,814.726L8966.93,814.726L8966.93,813.3L8973.06,813.3L8973.06,814.726L8970.76,814.726Z" style="fill-rule:nonzero;"/>
                    <path d="M8973.59,818.281C8973.59,816.866 8974.11,815.651 8975.15,814.635C8976.18,813.619 8977.43,813.112 8978.88,813.112C8980.31,813.112 8981.53,813.624 8982.56,814.648C8983.59,815.672 8984.1,816.903 8984.1,818.34C8984.1,819.785 8983.59,821.011 8982.55,822.018C8981.52,823.029 8980.26,823.535 8978.8,823.535C8977.5,823.535 8976.33,823.086 8975.3,822.187C8974.16,821.193 8973.59,819.891 8973.59,818.281ZM8975.12,818.3C8975.12,819.412 8975.5,820.325 8976.25,821.041C8976.99,821.757 8977.84,822.116 8978.82,822.116C8979.87,822.116 8980.76,821.751 8981.49,821.022C8982.21,820.284 8982.57,819.386 8982.57,818.327C8982.57,817.254 8982.22,816.356 8981.5,815.631C8980.79,814.902 8979.91,814.537 8978.85,814.537C8977.81,814.537 8976.93,814.902 8976.21,815.631C8975.49,816.352 8975.12,817.241 8975.12,818.3Z" style="fill-rule:nonzero;"/>
                    <path d="M8987.53,819.271L8987.53,823.353L8986.01,823.353L8986.01,813.3L8987.73,813.3C8988.57,813.3 8989.21,813.359 8989.64,813.476C8990.07,813.593 8990.45,813.815 8990.78,814.14C8991.36,814.705 8991.65,815.416 8991.65,816.276C8991.65,817.196 8991.34,817.925 8990.72,818.463C8990.11,819.001 8989.28,819.271 8988.23,819.271L8987.53,819.271ZM8987.53,817.864L8988.09,817.864C8989.49,817.864 8990.18,817.328 8990.18,816.256C8990.18,815.219 8989.47,814.7 8988.03,814.7L8987.53,814.7L8987.53,817.864Z" style="fill-rule:nonzero;"/>
                    <path d="M9003.01,814.798L9001.78,815.527C9001.55,815.128 9001.33,814.867 9001.12,814.746C9000.9,814.607 9000.62,814.537 9000.28,814.537C8999.86,814.537 8999.51,814.657 8999.23,814.896C8998.95,815.13 8998.82,815.425 8998.82,815.781C8998.82,816.271 8999.18,816.666 8999.91,816.966L9000.91,817.376C9001.73,817.706 9002.33,818.108 9002.7,818.584C9003.08,819.059 9003.27,819.642 9003.27,820.332C9003.27,821.256 9002.96,822.02 9002.34,822.623C9001.72,823.231 9000.95,823.535 9000.03,823.535C8999.16,823.535 8998.44,823.277 8997.87,822.76C8997.31,822.244 8996.96,821.517 8996.82,820.579L8998.36,820.241C8998.43,820.831 8998.55,821.239 8998.73,821.465C8999.04,821.899 8999.49,822.116 9000.09,822.116C9000.57,822.116 9000.96,821.957 9001.27,821.64C9001.58,821.323 9001.74,820.922 9001.74,820.436C9001.74,820.241 9001.71,820.062 9001.66,819.899C9001.6,819.736 9001.52,819.586 9001.4,819.45C9001.29,819.313 9001.14,819.185 9000.96,819.065C9000.78,818.946 9000.56,818.832 9000.31,818.724L8999.34,818.32C8997.96,817.738 8997.27,816.888 8997.27,815.768C8997.27,815.013 8997.56,814.381 8998.14,813.873C8998.72,813.361 8999.43,813.105 9000.29,813.105C9001.45,813.105 9002.36,813.669 9003.01,814.798Z" style="fill-rule:nonzero;"/>
                    <rect x="9005.1" y="813.3" width="1.517" height="10.052" style="fill-rule:nonzero;"/>
                    <path d="M9009.03,823.353L9009.03,813.3L9011.14,813.3C9012.15,813.3 9012.95,813.4 9013.54,813.6C9014.17,813.795 9014.74,814.127 9015.25,814.596C9016.29,815.542 9016.81,816.786 9016.81,818.327C9016.81,819.872 9016.26,821.122 9015.18,822.077C9014.64,822.554 9014.07,822.886 9013.48,823.073C9012.92,823.259 9012.13,823.353 9011.11,823.353L9009.03,823.353ZM9010.55,821.927L9011.23,821.927C9011.91,821.927 9012.48,821.855 9012.93,821.712C9013.38,821.56 9013.79,821.319 9014.16,820.989C9014.9,820.308 9015.27,819.42 9015.27,818.327C9015.27,817.224 9014.91,816.33 9014.17,815.644C9013.5,815.032 9012.52,814.726 9011.23,814.726L9010.55,814.726L9010.55,821.927Z" style="fill-rule:nonzero;"/>
                    <path d="M9024.26,814.726L9020.23,814.726L9020.23,817.142L9024.14,817.142L9024.14,818.567L9020.23,818.567L9020.23,821.927L9024.26,821.927L9024.26,823.353L9018.71,823.353L9018.71,813.3L9024.26,813.3L9024.26,814.726Z" style="fill-rule:nonzero;"/>
                </g>
            </g>
        </g>
        <g id="Pop-Bumper">
            <g id="Bevel2">
                <path d="M1314.35,802.497L1319.28,800.564L1318.81,802.359L1314.1,804.103L1314.04,804.367L1318.02,805.403L1317.63,806.871L1307.91,804.341L1308.35,802.621C1308.69,801.335 1309.17,800.47 1309.8,800.024C1310.5,799.534 1311.3,799.404 1312.18,799.633C1312.87,799.812 1313.41,800.164 1313.8,800.687C1314.19,801.211 1314.38,801.814 1314.35,802.497ZM1312.76,804.035L1312.88,803.568C1313.24,802.178 1312.89,801.345 1311.83,801.068C1310.83,800.809 1310.16,801.356 1309.8,802.709L1309.67,803.232L1312.76,804.035Z" style="fill-rule:nonzero;"/>
                <path d="M1314.56,798.531C1313.19,798.175 1312.15,797.367 1311.43,796.108C1310.7,794.852 1310.53,793.523 1310.89,792.12C1311.25,790.734 1312.06,789.674 1313.3,788.941C1314.55,788.203 1315.87,788.015 1317.27,788.376C1318.66,788.74 1319.72,789.549 1320.43,790.802C1321.15,792.06 1321.33,793.399 1320.96,794.819C1320.63,796.075 1319.9,797.09 1318.77,797.863C1317.53,798.714 1316.12,798.936 1314.56,798.531ZM1314.97,797.055C1316.04,797.335 1317.02,797.204 1317.9,796.661C1318.78,796.123 1319.34,795.384 1319.59,794.443C1319.85,793.422 1319.73,792.469 1319.2,791.584C1318.67,790.697 1317.89,790.12 1316.87,789.854C1315.83,789.584 1314.87,789.704 1313.99,790.215C1313.1,790.72 1312.53,791.481 1312.26,792.498C1312,793.51 1312.13,794.457 1312.66,795.338C1313.17,796.216 1313.94,796.789 1314.97,797.055Z" style="fill-rule:nonzero;"/>
                <path d="M1313.25,783.794L1319.11,785.318C1319.94,785.535 1320.59,785.557 1321.05,785.385C1321.71,785.123 1322.14,784.622 1322.34,783.883C1322.53,783.139 1322.4,782.491 1321.95,781.938C1321.64,781.568 1321.07,781.273 1320.22,781.052L1314.36,779.528L1314.74,778.06L1321,779.689C1322.03,779.955 1322.79,780.494 1323.29,781.305C1323.84,782.216 1323.98,783.194 1323.71,784.24C1323.44,785.286 1322.84,786.07 1321.91,786.592C1321.08,787.058 1320.16,787.157 1319.13,786.891L1312.87,785.262L1313.25,783.794Z" style="fill-rule:nonzero;"/>
                <path d="M1317.42,773.403L1325.77,775.574L1325.39,777.043L1317.04,774.872L1316.46,777.108L1315.08,776.75L1316.62,770.814L1318.01,771.173L1317.42,773.403Z" style="fill-rule:nonzero;"/>
                <path d="M1319.74,764.494L1318.73,768.394L1321.07,769.002L1322.05,765.215L1323.43,765.574L1322.44,769.361L1325.7,770.206L1326.71,766.306L1328.09,766.665L1326.69,772.033L1316.97,769.504L1318.36,764.135L1319.74,764.494Z" style="fill-rule:nonzero;"/>
                <path d="M1328.91,760.622C1328.67,760.561 1328.49,760.421 1328.36,760.204C1328.24,759.987 1328.2,759.759 1328.27,759.52C1328.33,759.28 1328.47,759.097 1328.69,758.97C1328.9,758.842 1329.13,758.809 1329.37,758.872C1329.61,758.935 1329.8,759.075 1329.93,759.292C1330.05,759.504 1330.08,759.732 1330.02,759.975C1329.95,760.223 1329.82,760.409 1329.6,760.534C1329.39,760.658 1329.16,760.687 1328.91,760.622Z" style="fill-rule:nonzero;"/>
                <path d="M1325.58,756.109C1324.03,755.706 1322.88,755.023 1322.15,754.06C1321.48,753.196 1321.26,752.304 1321.5,751.384C1321.74,750.464 1322.36,749.789 1323.37,749.36C1324.48,748.877 1325.83,748.843 1327.42,749.257C1329.01,749.67 1330.17,750.358 1330.91,751.321C1331.58,752.185 1331.79,753.075 1331.55,753.991C1331.32,754.907 1330.69,755.583 1329.69,756.021C1328.58,756.504 1327.2,756.533 1325.58,756.109ZM1325.96,754.668C1327.04,754.948 1327.98,754.995 1328.79,754.806C1329.59,754.615 1330.07,754.23 1330.22,753.65C1330.37,753.074 1330.14,752.506 1329.54,751.946C1328.94,751.387 1328.11,750.969 1327.04,750.692C1325.98,750.416 1325.05,750.376 1324.25,750.571C1323.45,750.768 1322.98,751.154 1322.83,751.73C1322.68,752.301 1322.91,752.866 1323.51,753.425C1324.1,753.984 1324.92,754.398 1325.96,754.668Z" style="fill-rule:nonzero;"/>
                <path d="M1325.84,741.015L1325.06,744.015L1326.55,744.913C1326.56,744.839 1326.57,744.769 1326.58,744.703C1326.6,744.637 1326.61,744.577 1326.62,744.522C1326.87,743.577 1327.39,742.885 1328.19,742.446C1328.98,742.002 1329.87,741.909 1330.86,742.167C1331.89,742.433 1332.64,742.997 1333.13,743.859C1333.61,744.72 1333.72,745.674 1333.44,746.72C1333.11,748.009 1332.24,748.869 1330.84,749.297L1330.19,747.944C1330.79,747.773 1331.24,747.56 1331.53,747.305C1331.82,747.049 1332.03,746.696 1332.14,746.246C1332.3,745.658 1332.22,745.111 1331.91,744.605C1331.59,744.096 1331.13,743.762 1330.52,743.605C1329.9,743.443 1329.34,743.509 1328.84,743.801C1328.33,744.09 1328,744.53 1327.85,745.123C1327.67,745.782 1327.82,746.426 1328.27,747.055L1328.14,747.54L1323.42,744.678L1324.47,740.658L1325.84,741.015Z" style="fill-rule:nonzero;"/>
                <path d="M1329.72,740.18C1328.17,739.777 1327.02,739.094 1326.29,738.131C1325.62,737.267 1325.41,736.375 1325.64,735.455C1325.88,734.535 1326.51,733.861 1327.51,733.431C1328.62,732.949 1329.97,732.915 1331.57,733.329C1333.15,733.742 1334.32,734.43 1335.05,735.392C1335.72,736.257 1335.93,737.147 1335.7,738.062C1335.46,738.978 1334.84,739.655 1333.83,740.093C1332.72,740.575 1331.35,740.604 1329.72,740.18ZM1330.1,738.739C1331.18,739.02 1332.12,739.066 1332.93,738.878C1333.73,738.686 1334.21,738.301 1334.36,737.721C1334.51,737.146 1334.28,736.578 1333.68,736.017C1333.08,735.458 1332.25,735.04 1331.19,734.764C1330.12,734.487 1329.19,734.447 1328.39,734.643C1327.6,734.839 1327.12,735.225 1326.97,735.801C1326.83,736.372 1327.05,736.938 1327.65,737.497C1328.25,738.055 1329.06,738.469 1330.1,738.739Z" style="fill-rule:nonzero;"/>
                <path d="M1330.26,724.043L1338.61,726.214L1338.23,727.682L1329.88,725.511L1329.3,727.747L1327.92,727.389L1329.46,721.453L1330.84,721.812L1330.26,724.043Z" style="fill-rule:nonzero;"/>
                <path d="M1334.42,722.19C1333.05,721.834 1332,721.026 1331.28,719.767C1330.56,718.511 1330.38,717.182 1330.74,715.779C1331.1,714.393 1331.91,713.333 1333.16,712.599C1334.41,711.862 1335.73,711.674 1337.12,712.035C1338.52,712.399 1339.57,713.207 1340.29,714.46C1341.01,715.719 1341.18,717.058 1340.81,718.478C1340.48,719.734 1339.76,720.749 1338.62,721.522C1337.38,722.373 1335.97,722.595 1334.42,722.19ZM1334.82,720.714C1335.89,720.994 1336.87,720.863 1337.75,720.32C1338.63,719.782 1339.2,719.043 1339.44,718.102C1339.71,717.081 1339.58,716.128 1339.05,715.243C1338.52,714.356 1337.74,713.779 1336.72,713.513C1335.68,713.243 1334.72,713.363 1333.84,713.874C1332.95,714.379 1332.38,715.14 1332.12,716.157C1331.85,717.169 1331.98,718.116 1332.51,718.996C1333.02,719.875 1333.8,720.448 1334.82,720.714Z" style="fill-rule:nonzero;"/>
                <path d="M1338.88,708.955L1342.83,709.983L1342.45,711.451L1332.72,708.921L1333.15,707.257C1333.37,706.442 1333.58,705.842 1333.8,705.455C1334.03,705.065 1334.34,704.751 1334.73,704.514C1335.42,704.097 1336.19,703.997 1337.02,704.213C1337.91,704.445 1338.54,704.926 1338.9,705.658C1339.27,706.39 1339.32,707.262 1339.06,708.275L1338.88,708.955ZM1337.52,708.601L1337.66,708.053C1338.01,706.705 1337.67,705.896 1336.63,705.626C1335.63,705.365 1334.94,705.929 1334.58,707.32L1334.46,707.805L1337.52,708.601Z" style="fill-rule:nonzero;"/>
                <path d="M1349.07,698.128C1340.58,713.965 1364.37,726.699 1372.84,710.843C1381.33,695.005 1357.54,682.271 1349.07,698.132L1349.07,698.128ZM1355.03,701.313C1350.8,709.211 1362.66,715.555 1366.88,707.653C1371.11,699.765 1359.25,693.421 1355.04,701.318L1355.03,701.313Z" style="fill:rgb(47,47,47);fill-opacity:0.509804;"/>
                <path d="M1317.53,813.665C1309.04,829.507 1332.83,842.241 1341.29,826.385C1349.79,810.548 1326,797.814 1317.53,813.665ZM1323.48,816.86C1319.26,824.753 1331.11,831.092 1335.33,823.195C1339.56,815.302 1327.7,808.963 1323.49,816.86L1323.48,816.86Z" style="fill:rgb(47,47,47);fill-opacity:0.509804;"/>
                <path d="M1416.68,880.853C1408.19,896.695 1431.98,909.429 1440.45,893.573C1448.94,877.731 1425.15,865.002 1416.68,880.858L1416.68,880.853ZM1422.64,884.043C1418.41,891.936 1430.26,898.28 1434.49,890.383C1438.71,882.49 1426.86,876.146 1422.65,884.048L1422.64,884.043Z" style="fill:rgb(47,47,47);fill-opacity:0.509804;"/>
            </g>
        </g>
        <g id="Pop-Bumper1">
            <g id="Bevel3">
                <path d="M1485.65,1201.39L1488.38,1196.85L1489.11,1198.56L1486.44,1202.81L1486.55,1203.06L1490.34,1201.45L1490.93,1202.85L1481.68,1206.78L1480.98,1205.14C1480.46,1203.92 1480.32,1202.94 1480.55,1202.2C1480.8,1201.38 1481.35,1200.8 1482.19,1200.44C1482.85,1200.16 1483.49,1200.11 1484.12,1200.29C1484.75,1200.46 1485.26,1200.83 1485.65,1201.39ZM1485.33,1203.58L1485.14,1203.13C1484.58,1201.81 1483.8,1201.36 1482.79,1201.79C1481.84,1202.2 1481.64,1203.04 1482.19,1204.33L1482.4,1204.82L1485.33,1203.58Z" style="fill-rule:nonzero;"/>
                <path d="M1483.41,1198.11C1482.11,1198.67 1480.78,1198.66 1479.44,1198.11C1478.11,1197.55 1477.15,1196.61 1476.59,1195.28C1476.03,1193.96 1476.02,1192.63 1476.56,1191.28C1477.1,1189.93 1478.03,1188.98 1479.35,1188.42C1480.68,1187.85 1482.01,1187.85 1483.34,1188.41C1484.68,1188.97 1485.63,1189.92 1486.21,1191.27C1486.72,1192.46 1486.76,1193.71 1486.34,1195.02C1485.87,1196.45 1484.89,1197.48 1483.41,1198.11ZM1482.83,1196.7C1483.85,1196.26 1484.55,1195.56 1484.91,1194.6C1485.28,1193.63 1485.28,1192.7 1484.89,1191.81C1484.48,1190.84 1483.8,1190.16 1482.84,1189.78C1481.88,1189.4 1480.91,1189.42 1479.94,1189.83C1478.95,1190.25 1478.27,1190.93 1477.88,1191.88C1477.49,1192.82 1477.49,1193.77 1477.9,1194.74C1478.31,1195.7 1479,1196.37 1479.95,1196.75C1480.89,1197.13 1481.85,1197.11 1482.83,1196.7Z" style="fill-rule:nonzero;"/>
                <path d="M1473.38,1187.24L1478.95,1184.87C1479.74,1184.53 1480.27,1184.15 1480.53,1183.74C1480.89,1183.13 1480.93,1182.47 1480.63,1181.77C1480.33,1181.06 1479.83,1180.62 1479.13,1180.46C1478.67,1180.35 1478.03,1180.47 1477.22,1180.81L1471.65,1183.18L1471.06,1181.79L1477.01,1179.25C1477.99,1178.84 1478.92,1178.8 1479.81,1179.14C1480.8,1179.53 1481.51,1180.21 1481.93,1181.21C1482.36,1182.2 1482.36,1183.19 1481.95,1184.17C1481.57,1185.04 1480.9,1185.69 1479.92,1186.1L1473.97,1188.63L1473.38,1187.24Z" style="fill-rule:nonzero;"/>
                <path d="M1470.34,1176.46L1478.28,1173.08L1478.88,1174.48L1470.94,1177.85L1471.84,1179.98L1470.53,1180.54L1468.13,1174.89L1469.44,1174.34L1470.34,1176.46Z" style="fill-rule:nonzero;"/>
                <path d="M1466.74,1167.99L1468.32,1171.69L1470.54,1170.75L1469.01,1167.15L1470.33,1166.59L1471.86,1170.19L1474.95,1168.88L1473.37,1165.17L1474.68,1164.61L1476.85,1169.72L1467.6,1173.65L1465.43,1168.54L1466.74,1167.99Z" style="fill-rule:nonzero;"/>
                <path d="M1471.64,1159.33C1471.42,1159.42 1471.19,1159.42 1470.96,1159.33C1470.73,1159.23 1470.56,1159.07 1470.46,1158.84C1470.37,1158.62 1470.37,1158.38 1470.46,1158.15C1470.55,1157.92 1470.71,1157.75 1470.94,1157.66C1471.17,1157.56 1471.41,1157.56 1471.64,1157.65C1471.87,1157.74 1472.03,1157.9 1472.13,1158.13C1472.23,1158.37 1472.23,1158.6 1472.14,1158.83C1472.05,1159.06 1471.88,1159.22 1471.64,1159.33Z" style="fill-rule:nonzero;"/>
                <path d="M1466.25,1157.78C1464.78,1158.41 1463.45,1158.57 1462.28,1158.25C1461.23,1157.97 1460.51,1157.4 1460.14,1156.52C1459.77,1155.65 1459.85,1154.74 1460.38,1153.78C1460.97,1152.72 1462.02,1151.87 1463.54,1151.23C1465.05,1150.58 1466.38,1150.42 1467.56,1150.73C1468.61,1151.01 1469.33,1151.59 1469.69,1152.46C1470.07,1153.33 1469.99,1154.24 1469.45,1155.2C1468.87,1156.27 1467.8,1157.12 1466.25,1157.78ZM1465.67,1156.41C1466.7,1155.97 1467.48,1155.43 1468.01,1154.79C1468.52,1154.15 1468.66,1153.55 1468.43,1153C1468.19,1152.45 1467.67,1152.14 1466.85,1152.07C1466.03,1151.99 1465.12,1152.16 1464.11,1152.6C1463.1,1153.02 1462.34,1153.56 1461.82,1154.2C1461.31,1154.85 1461.17,1155.44 1461.4,1155.99C1461.64,1156.53 1462.16,1156.84 1462.98,1156.92C1463.79,1157 1464.69,1156.83 1465.67,1156.41Z" style="fill-rule:nonzero;"/>
                <path d="M1457.25,1145.66L1458.46,1148.51L1460.19,1148.32C1460.15,1148.25 1460.12,1148.19 1460.09,1148.13C1460.06,1148.07 1460.03,1148.01 1460.01,1147.96C1459.63,1147.06 1459.62,1146.2 1459.98,1145.36C1460.34,1144.53 1460.99,1143.91 1461.93,1143.51C1462.91,1143.1 1463.85,1143.08 1464.76,1143.47C1465.67,1143.86 1466.33,1144.55 1466.76,1145.54C1467.28,1146.77 1467.11,1147.98 1466.26,1149.17L1464.92,1148.5C1465.29,1148 1465.52,1147.56 1465.6,1147.17C1465.67,1146.79 1465.62,1146.39 1465.44,1145.96C1465.2,1145.4 1464.8,1145.02 1464.25,1144.8C1463.69,1144.6 1463.12,1144.61 1462.54,1144.86C1461.95,1145.11 1461.55,1145.5 1461.33,1146.04C1461.1,1146.58 1461.11,1147.13 1461.35,1147.69C1461.61,1148.32 1462.12,1148.74 1462.86,1148.97L1463.05,1149.43L1457.57,1150.04L1455.94,1146.22L1457.25,1145.66Z" style="fill-rule:nonzero;"/>
                <path d="M1459.81,1142.63C1458.34,1143.26 1457.02,1143.42 1455.85,1143.1C1454.79,1142.83 1454.08,1142.25 1453.7,1141.38C1453.33,1140.5 1453.41,1139.59 1453.95,1138.63C1454.53,1137.57 1455.58,1136.72 1457.1,1136.08C1458.61,1135.44 1459.95,1135.27 1461.12,1135.59C1462.18,1135.86 1462.89,1136.44 1463.26,1137.31C1463.63,1138.18 1463.55,1139.1 1463.02,1140.06C1462.43,1141.12 1461.36,1141.98 1459.81,1142.63ZM1459.24,1141.26C1460.26,1140.82 1461.04,1140.28 1461.57,1139.64C1462.08,1139 1462.23,1138.41 1461.99,1137.86C1461.76,1137.31 1461.23,1137 1460.41,1136.92C1459.6,1136.84 1458.68,1137.02 1457.67,1137.45C1456.66,1137.88 1455.9,1138.41 1455.38,1139.06C1454.88,1139.7 1454.74,1140.29 1454.97,1140.84C1455.2,1141.38 1455.72,1141.69 1456.54,1141.77C1457.35,1141.85 1458.25,1141.68 1459.24,1141.26Z" style="fill-rule:nonzero;"/>
                <path d="M1450.4,1129.52L1458.34,1126.14L1458.93,1127.54L1450.99,1130.91L1451.9,1133.04L1450.58,1133.6L1448.18,1127.95L1449.5,1127.4L1450.4,1129.52Z" style="fill-rule:nonzero;"/>
                <path d="M1452.56,1125.52C1451.26,1126.07 1449.94,1126.07 1448.6,1125.51C1447.26,1124.95 1446.31,1124.01 1445.74,1122.68C1445.18,1121.36 1445.17,1120.03 1445.71,1118.68C1446.25,1117.34 1447.18,1116.38 1448.51,1115.82C1449.84,1115.26 1451.16,1115.25 1452.5,1115.81C1453.83,1116.37 1454.79,1117.32 1455.36,1118.67C1455.87,1119.87 1455.91,1121.12 1455.49,1122.42C1455.02,1123.85 1454.04,1124.88 1452.56,1125.52ZM1451.98,1124.1C1453,1123.66 1453.7,1122.96 1454.06,1122C1454.43,1121.03 1454.43,1120.1 1454.05,1119.21C1453.63,1118.24 1452.95,1117.56 1452,1117.18C1451.03,1116.8 1450.07,1116.82 1449.09,1117.23C1448.1,1117.65 1447.42,1118.33 1447.03,1119.28C1446.64,1120.22 1446.65,1121.17 1447.06,1122.14C1447.47,1123.1 1448.15,1123.77 1449.1,1124.15C1450.05,1124.53 1451.01,1124.51 1451.98,1124.1Z" style="fill-rule:nonzero;"/>
                <path d="M1448.02,1112.31L1451.78,1110.71L1452.37,1112.11L1443.12,1116.04L1442.45,1114.45C1442.12,1113.68 1441.92,1113.07 1441.87,1112.63C1441.8,1112.18 1441.86,1111.75 1442.03,1111.32C1442.32,1110.56 1442.86,1110.02 1443.65,1109.68C1444.5,1109.32 1445.29,1109.32 1446.03,1109.68C1446.77,1110.04 1447.34,1110.69 1447.75,1111.66L1448.02,1112.31ZM1446.73,1112.86L1446.51,1112.33C1445.96,1111.05 1445.2,1110.62 1444.21,1111.04C1443.26,1111.44 1443.06,1112.31 1443.62,1113.63L1443.82,1114.09L1446.73,1112.86Z" style="fill-rule:nonzero;"/>
                <path d="M1449.49,1097.51C1452.43,1115.24 1479.05,1110.81 1476.08,1093.08C1473.15,1075.35 1446.53,1079.78 1449.49,1097.51L1449.49,1097.51ZM1456.16,1096.39C1457.62,1105.23 1470.89,1103.03 1469.41,1094.19C1467.95,1085.36 1454.68,1087.57 1456.16,1096.4L1456.16,1096.39Z" style="fill:rgb(47,47,47);fill-opacity:0.509804;"/>
                <path d="M1494.99,1208.3C1497.93,1226.03 1524.55,1221.6 1521.58,1203.87C1518.65,1186.14 1492.03,1190.57 1494.99,1208.3ZM1501.66,1207.19C1503.12,1216.03 1516.38,1213.82 1514.91,1204.98C1513.44,1196.15 1500.18,1198.36 1501.66,1207.19L1501.66,1207.19Z" style="fill:rgb(47,47,47);fill-opacity:0.509804;"/>
                <path d="M1614.54,1201.04C1617.48,1218.77 1644.1,1214.34 1641.13,1196.61C1638.19,1178.88 1611.58,1183.31 1614.55,1201.04L1614.54,1201.04ZM1621.21,1199.93C1622.68,1208.76 1635.94,1206.56 1634.46,1197.72C1633,1188.89 1619.74,1191.09 1621.22,1199.93L1621.21,1199.93Z" style="fill:rgb(47,47,47);fill-opacity:0.509804;"/>
            </g>
        </g>
        <g id="Pop-Bumper2">
            <g id="Bevel4">
                <path d="M1850.9,726.131L1849.11,731.116L1848.07,729.583L1849.85,724.893L1849.69,724.667L1846.3,726.985L1845.44,725.732L1853.75,720.068L1854.75,721.536C1855.5,722.634 1855.83,723.567 1855.75,724.335C1855.66,725.186 1855.24,725.869 1854.48,726.382C1853.89,726.783 1853.27,726.96 1852.62,726.911C1851.97,726.863 1851.39,726.603 1850.9,726.131ZM1850.79,723.922L1851.06,724.32C1851.87,725.507 1852.73,725.791 1853.63,725.172C1854.48,724.593 1854.52,723.726 1853.73,722.571L1853.42,722.125L1850.79,723.922Z" style="fill-rule:nonzero;"/>
                <path d="M1853.74,728.904C1854.91,728.106 1856.21,727.85 1857.63,728.135C1859.05,728.416 1860.17,729.155 1860.99,730.353C1861.8,731.536 1862.07,732.839 1861.8,734.263C1861.53,735.69 1860.8,736.808 1859.62,737.618C1858.42,738.432 1857.12,738.696 1855.7,738.41C1854.28,738.123 1853.16,737.373 1852.33,736.161C1851.6,735.089 1851.32,733.873 1851.48,732.514C1851.66,731.014 1852.41,729.811 1853.74,728.904ZM1854.59,730.179C1853.67,730.805 1853.13,731.628 1852.96,732.648C1852.78,733.665 1852.97,734.575 1853.52,735.378C1854.11,736.249 1854.91,736.779 1855.92,736.967C1856.94,737.15 1857.89,736.943 1858.77,736.346C1859.65,735.742 1860.19,734.94 1860.39,733.94C1860.59,732.941 1860.39,732.008 1859.8,731.14C1859.21,730.276 1858.41,729.752 1857.4,729.567C1856.4,729.378 1855.46,729.582 1854.59,730.179Z" style="fill-rule:nonzero;"/>
                <path d="M1865.71,737.607L1860.71,741.019C1859.99,741.506 1859.55,741.978 1859.38,742.436C1859.14,743.109 1859.24,743.761 1859.67,744.392C1860.1,745.027 1860.67,745.356 1861.39,745.378C1861.86,745.393 1862.47,745.154 1863.19,744.66L1868.19,741.249L1869.05,742.502L1863.7,746.148C1862.83,746.745 1861.92,746.964 1860.98,746.805C1859.93,746.623 1859.1,746.085 1858.49,745.192C1857.88,744.299 1857.69,743.333 1857.9,742.293C1858.1,741.361 1858.63,740.597 1859.51,740L1864.85,736.354L1865.71,737.607Z" style="fill-rule:nonzero;"/>
                <path d="M1870.79,747.586L1863.66,752.447L1862.81,751.194L1869.93,746.333L1868.63,744.424L1869.81,743.62L1873.27,748.687L1872.09,749.49L1870.79,747.586Z" style="fill-rule:nonzero;"/>
                <path d="M1875.98,755.192L1873.7,751.862L1871.71,753.223L1873.91,756.456L1872.74,757.259L1870.53,754.027L1867.76,755.92L1870.03,759.249L1868.85,760.052L1865.72,755.47L1874.03,749.806L1877.15,754.388L1875.98,755.192Z" style="fill-rule:nonzero;"/>
                <path d="M1872.86,764.643C1873.06,764.506 1873.29,764.461 1873.54,764.508C1873.78,764.555 1873.98,764.68 1874.12,764.885C1874.26,765.089 1874.3,765.315 1874.26,765.562C1874.21,765.81 1874.08,766.003 1873.88,766.142C1873.67,766.284 1873.44,766.332 1873.19,766.285C1872.95,766.239 1872.76,766.113 1872.62,765.905C1872.48,765.693 1872.43,765.467 1872.47,765.225C1872.52,764.984 1872.65,764.79 1872.86,764.643Z" style="fill-rule:nonzero;"/>
                <path d="M1878.45,765.101C1879.78,764.198 1881.05,763.786 1882.25,763.865C1883.34,763.931 1884.16,764.356 1884.69,765.141C1885.23,765.927 1885.33,766.839 1884.99,767.877C1884.62,769.032 1883.76,770.073 1882.4,771C1881.05,771.924 1879.76,772.347 1878.55,772.269C1877.46,772.203 1876.65,771.779 1876.12,770.998C1875.59,770.216 1875.48,769.302 1875.82,768.256C1876.18,767.101 1877.06,766.05 1878.45,765.101ZM1879.29,766.336C1878.37,766.965 1877.71,767.646 1877.32,768.381C1876.94,769.109 1876.92,769.72 1877.25,770.215C1877.59,770.706 1878.17,770.909 1878.99,770.823C1879.8,770.74 1880.66,770.389 1881.57,769.77C1882.48,769.151 1883.12,768.476 1883.5,767.745C1883.87,767.016 1883.89,766.407 1883.56,765.915C1883.23,765.428 1882.65,765.225 1881.84,765.309C1881.02,765.39 1880.18,765.732 1879.29,766.336Z" style="fill-rule:nonzero;"/>
                <path d="M1889.65,775.228L1887.9,772.668L1886.25,773.198C1886.3,773.254 1886.34,773.309 1886.38,773.362C1886.42,773.415 1886.46,773.465 1886.49,773.512C1887.04,774.319 1887.22,775.166 1887.03,776.054C1886.84,776.943 1886.33,777.676 1885.48,778.254C1884.61,778.85 1883.68,779.048 1882.72,778.846C1881.75,778.645 1880.96,778.097 1880.35,777.205C1879.6,776.104 1879.53,774.884 1880.12,773.545L1881.57,773.945C1881.31,774.51 1881.17,774.987 1881.17,775.377C1881.17,775.765 1881.3,776.151 1881.57,776.534C1881.91,777.036 1882.37,777.338 1882.95,777.439C1883.55,777.532 1884.1,777.403 1884.62,777.051C1885.15,776.689 1885.47,776.225 1885.58,775.658C1885.69,775.083 1885.58,774.544 1885.24,774.038C1884.85,773.475 1884.28,773.157 1883.51,773.083L1883.22,772.669L1888.48,770.997L1890.82,774.428L1889.65,775.228Z" style="fill-rule:nonzero;"/>
                <path d="M1887.73,778.698C1889.05,777.795 1890.32,777.383 1891.53,777.462C1892.62,777.527 1893.43,777.953 1893.97,778.738C1894.5,779.523 1894.6,780.435 1894.27,781.474C1893.9,782.629 1893.03,783.67 1891.67,784.597C1890.32,785.521 1889.04,785.944 1887.83,785.865C1886.74,785.8 1885.92,785.376 1885.39,784.595C1884.86,783.813 1884.76,782.899 1885.09,781.853C1885.46,780.698 1886.34,779.646 1887.73,778.698ZM1888.56,779.933C1887.64,780.561 1886.99,781.243 1886.59,781.978C1886.21,782.706 1886.19,783.317 1886.53,783.812C1886.86,784.303 1887.44,784.506 1888.26,784.42C1889.07,784.337 1889.94,783.986 1890.84,783.367C1891.75,782.748 1892.39,782.073 1892.77,781.342C1893.15,780.613 1893.17,780.003 1892.83,779.512C1892.5,779.024 1891.92,778.822 1891.11,778.906C1890.3,778.986 1889.45,779.329 1888.56,779.933Z" style="fill-rule:nonzero;"/>
                <path d="M1899.53,789.722L1892.4,794.582L1891.55,793.329L1898.67,788.468L1897.37,786.559L1898.55,785.756L1902,790.822L1900.83,791.626L1899.53,789.722Z" style="fill-rule:nonzero;"/>
                <path d="M1898.19,794.07C1899.36,793.272 1900.65,793.016 1902.08,793.301C1903.5,793.582 1904.62,794.321 1905.44,795.519C1906.24,796.702 1906.51,798.005 1906.24,799.429C1905.98,800.856 1905.25,801.974 1904.06,802.783C1902.87,803.598 1901.56,803.862 1900.15,803.576C1898.73,803.289 1897.61,802.539 1896.78,801.327C1896.05,800.255 1895.76,799.039 1895.92,797.68C1896.1,796.18 1896.86,794.977 1898.19,794.07ZM1899.04,795.344C1898.12,795.971 1897.57,796.794 1897.4,797.814C1897.23,798.831 1897.42,799.741 1897.96,800.544C1898.56,801.415 1899.36,801.945 1900.37,802.133C1901.39,802.316 1902.34,802.109 1903.21,801.512C1904.1,800.908 1904.64,800.106 1904.83,799.106C1905.03,798.107 1904.84,797.174 1904.25,796.306C1903.66,795.442 1902.86,794.918 1901.85,794.733C1900.85,794.544 1899.91,794.748 1899.04,795.344Z" style="fill-rule:nonzero;"/>
                <path d="M1905.22,806.137L1901.85,808.437L1901,807.184L1909.3,801.52L1910.27,802.94C1910.74,803.636 1911.05,804.194 1911.2,804.615C1911.35,805.039 1911.38,805.48 1911.3,805.936C1911.15,806.73 1910.73,807.37 1910.02,807.854C1909.26,808.373 1908.48,808.529 1907.69,808.323C1906.9,808.117 1906.21,807.582 1905.62,806.718L1905.22,806.137ZM1906.38,805.345L1906.7,805.813C1907.49,806.964 1908.32,807.237 1909.21,806.633C1910.07,806.049 1910.09,805.163 1909.28,803.976L1909,803.562L1906.38,805.345Z" style="fill-rule:nonzero;"/>
                <path d="M1906.68,820.931C1900.33,804.123 1875.09,813.668 1881.47,830.474C1887.81,847.29 1913.05,837.744 1906.67,820.931L1906.68,820.931ZM1900.36,823.33C1897.19,814.949 1884.61,819.708 1887.79,828.082C1890.95,836.457 1903.53,831.698 1900.35,823.331L1900.36,823.33Z" style="fill:rgb(47,47,47);fill-opacity:0.509804;"/>
                <path d="M1840.4,721.181C1834.05,704.366 1808.81,713.911 1815.18,730.717C1821.52,747.533 1846.76,737.987 1840.4,721.181ZM1834.07,723.567C1830.9,715.192 1818.33,719.95 1821.51,728.325C1824.67,736.7 1837.24,731.941 1834.06,723.574L1834.07,723.567Z" style="fill:rgb(47,47,47);fill-opacity:0.509804;"/>
                <path d="M1724.57,751.676C1718.22,734.861 1692.98,744.407 1699.36,761.213C1705.7,778.028 1730.94,768.483 1724.56,751.677L1724.57,751.676ZM1718.25,754.069C1715.08,745.694 1702.51,750.446 1705.68,758.82C1708.85,767.195 1721.42,762.443 1718.24,754.069L1718.25,754.069Z" style="fill:rgb(47,47,47);fill-opacity:0.509804;"/>
            </g>
        </g>
        <g id="Eject-Path">
            <g id="Bevel5">
                <path d="M453.106,2229.82C457.726,2229.9 462.299,2230.68 466.661,2232.22C473.593,2234.66 479.836,2238.93 484.648,2244.48C488.125,2248.49 490.84,2253.15 492.604,2258.16C494.198,2262.68 494.976,2267.43 495.01,2272.22L495.01,2439.37C514.803,2470.18 535.163,2500.63 554.378,2531.8C554.731,2532.38 558.849,2539.36 561.311,2544.31C563.456,2548.63 565.176,2553.15 566.418,2557.81C569.286,2568.56 569.601,2579.96 567.372,2590.86C566.125,2596.95 564.078,2602.89 561.299,2608.46C558.325,2614.42 554.517,2619.97 550.022,2624.89C544.775,2630.63 538.603,2635.52 531.807,2639.31C524.629,2643.31 516.773,2646.06 508.668,2647.41C499.648,2648.91 490.344,2648.66 481.411,2646.71C472.034,2644.67 463.099,2640.72 455.268,2635.17C449.133,2630.82 443.687,2625.52 439.18,2619.5C437.371,2617.09 432.85,2610.03 432.525,2609.55C407.147,2570.64 382.093,2531.52 357.193,2492.3C356.404,2491.02 355.667,2489.71 355.009,2488.36C354.603,2487.53 354.235,2486.68 353.877,2485.83C352.718,2483.07 351.814,2480.23 351.239,2477.29C350.746,2474.77 350.501,2472.23 350.452,2469.67C350.116,2420.43 350.109,2320.95 350.452,2271.72C350.542,2266.92 351.378,2262.18 353.031,2257.67C354.973,2252.37 357.982,2247.48 361.827,2243.35C366.486,2238.34 372.346,2234.49 378.796,2232.22C383.158,2230.68 387.732,2229.9 392.352,2229.82C412.603,2229.68 432.855,2229.68 453.106,2229.82ZM392.9,2242.43C389.524,2242.46 386.178,2243 382.991,2244.12C378.91,2245.56 375.161,2247.9 372.066,2250.92C368.886,2254.03 366.411,2257.84 364.882,2262.01C363.721,2265.18 363.137,2268.51 363.073,2271.88C362.761,2321.13 362.125,2420.65 363.081,2469.89C363.139,2471.69 363.333,2473.47 363.701,2475.23C364.111,2477.19 364.734,2479.09 365.509,2480.93C366.189,2482.55 366.968,2484.11 367.892,2485.6C392.789,2524.86 417.361,2564.34 443.281,2602.93C443.591,2603.37 448.323,2610.71 449.845,2612.67C453.644,2617.58 458.209,2621.89 463.331,2625.4C469.866,2629.88 477.29,2633.02 485.056,2634.58C492.376,2636.05 499.975,2636.14 507.325,2634.83C513.982,2633.64 520.421,2631.29 526.288,2627.93C531.86,2624.74 536.908,2620.64 541.181,2615.85C545.001,2611.56 548.198,2606.72 550.634,2601.53C552.71,2597.09 554.23,2592.4 555.151,2587.6C556.943,2578.23 556.469,2568.46 553.731,2559.33C552.025,2553.64 545.467,2541.71 545.219,2541.17C544.962,2540.63 543.21,2537.74 543.21,2537.74L482.388,2443.07C482.388,2402.63 483.147,2311.93 482.378,2271.49C482.275,2268.26 481.692,2265.06 480.576,2262.01C479.088,2257.95 476.705,2254.23 473.647,2251.18C470.589,2248.12 466.871,2245.73 462.81,2244.25C459.644,2243.09 456.312,2242.5 452.944,2242.44C432.929,2242.31 412.914,2242.43 392.9,2242.43Z" style="fill:rgb(85,85,85);fill-rule:nonzero;stroke:black;stroke-width:0.53px;stroke-linecap:butt;stroke-miterlimit:1.41421;"/>
                <g transform="matrix(0.43323,0.689137,-0.689137,0.43323,-2960.12,-3978.81)">
                    <path d="M8924.18,795.892L8924.18,785.84L8925.69,785.84C8926.37,785.84 8926.9,785.892 8927.3,785.996C8927.71,786.1 8928.05,786.276 8928.33,786.523C8928.61,786.779 8928.83,787.098 8929,787.48C8929.17,787.866 8929.25,788.257 8929.25,788.652C8929.25,789.373 8928.97,789.982 8928.42,790.481C8928.96,790.664 8929.38,790.983 8929.68,791.438C8930,791.89 8930.15,792.415 8930.15,793.014C8930.15,793.8 8929.88,794.464 8929.32,795.006C8928.99,795.34 8928.61,795.573 8928.19,795.703C8927.74,795.829 8927.17,795.892 8926.48,795.892L8924.18,795.892ZM8925.7,790.156L8926.18,790.156C8926.74,790.156 8927.15,790.031 8927.42,789.782C8927.68,789.532 8927.81,789.164 8927.81,788.678C8927.81,788.205 8927.68,787.846 8927.41,787.601C8927.14,787.355 8926.75,787.233 8926.24,787.233L8925.7,787.233L8925.7,790.156ZM8925.7,794.466L8926.64,794.466C8927.32,794.466 8927.83,794.331 8928.15,794.062C8928.49,793.771 8928.66,793.402 8928.66,792.955C8928.66,792.521 8928.49,792.157 8928.17,791.862C8927.85,791.571 8927.28,791.425 8926.47,791.425L8925.7,791.425L8925.7,794.466Z" style="fill-rule:nonzero;"/>
                    <path d="M8937.61,787.265L8933.59,787.265L8933.59,789.681L8937.5,789.681L8937.5,791.106L8933.59,791.106L8933.59,794.466L8937.61,794.466L8937.61,795.892L8932.07,795.892L8932.07,785.84L8937.61,785.84L8937.61,787.265Z" style="fill-rule:nonzero;"/>
                    <path d="M8940.11,785.84L8942.9,792.806L8945.71,785.84L8947.37,785.84L8942.86,796.647L8938.45,785.84L8940.11,785.84Z" style="fill-rule:nonzero;"/>
                    <path d="M8954.17,787.265L8950.14,787.265L8950.14,789.681L8954.05,789.681L8954.05,791.106L8950.14,791.106L8950.14,794.466L8954.17,794.466L8954.17,795.892L8948.62,795.892L8948.62,785.84L8954.17,785.84L8954.17,787.265Z" style="fill-rule:nonzero;"/>
                    <path d="M8957.68,785.84L8957.68,794.466L8960.64,794.466L8960.64,795.892L8956.16,795.892L8956.16,785.84L8957.68,785.84Z" style="fill-rule:nonzero;"/>
                    <path d="M8971.74,787.265L8967.71,787.265L8967.71,789.681L8971.62,789.681L8971.62,791.106L8967.71,791.106L8967.71,794.466L8971.74,794.466L8971.74,795.892L8966.19,795.892L8966.19,785.84L8971.74,785.84L8971.74,787.265Z" style="fill-rule:nonzero;"/>
                    <path d="M8973.73,795.892L8973.73,785.84L8975.84,785.84C8976.85,785.84 8977.65,785.939 8978.23,786.139C8978.86,786.334 8979.43,786.666 8979.95,787.135C8980.98,788.081 8981.5,789.325 8981.5,790.866C8981.5,792.411 8980.96,793.661 8979.88,794.616C8979.34,795.093 8978.77,795.425 8978.18,795.612C8977.62,795.798 8976.83,795.892 8975.81,795.892L8973.73,795.892ZM8975.25,794.466L8975.93,794.466C8976.61,794.466 8977.18,794.394 8977.63,794.251C8978.08,794.099 8978.49,793.858 8978.85,793.528C8979.6,792.847 8979.97,791.959 8979.97,790.866C8979.97,789.763 8979.6,788.869 8978.86,788.183C8978.2,787.571 8977.22,787.265 8975.93,787.265L8975.25,787.265L8975.25,794.466Z" style="fill-rule:nonzero;"/>
                    <path d="M8988.58,790.657L8992.73,790.657L8992.73,790.989C8992.73,791.744 8992.64,792.413 8992.47,792.994C8992.29,793.533 8992,794.036 8991.59,794.505C8990.65,795.555 8989.47,796.08 8988.02,796.08C8986.62,796.08 8985.42,795.573 8984.41,794.557C8983.41,793.537 8982.91,792.313 8982.91,790.885C8982.91,789.427 8983.42,788.19 8984.44,787.174C8985.46,786.154 8986.7,785.644 8988.16,785.644C8988.95,785.644 8989.68,785.805 8990.36,786.126C8991.01,786.447 8991.65,786.968 8992.28,787.688L8991.2,788.724C8990.38,787.626 8989.37,787.077 8988.19,787.077C8987.12,787.077 8986.23,787.443 8985.51,788.177C8984.79,788.897 8984.43,789.8 8984.43,790.885C8984.43,792.005 8984.83,792.927 8985.64,793.652C8986.39,794.325 8987.2,794.661 8988.08,794.661C8988.82,794.661 8989.49,794.409 8990.09,793.906C8990.68,793.398 8991.02,792.79 8991.09,792.083L8988.58,792.083L8988.58,790.657Z" style="fill-rule:nonzero;"/>
                    <path d="M9000.19,787.265L8996.16,787.265L8996.16,789.681L9000.07,789.681L9000.07,791.106L8996.16,791.106L8996.16,794.466L9000.19,794.466L9000.19,795.892L8994.64,795.892L8994.64,785.84L9000.19,785.84L9000.19,787.265Z" style="fill-rule:nonzero;"/>
                    <path d="M9006.24,795.162C9006.24,794.919 9006.33,794.709 9006.51,794.531C9006.69,794.353 9006.9,794.264 9007.15,794.264C9007.39,794.264 9007.61,794.353 9007.78,794.531C9007.96,794.709 9008.05,794.922 9008.05,795.169C9008.05,795.421 9007.96,795.636 9007.78,795.813C9007.61,795.987 9007.4,796.074 9007.15,796.074C9006.89,796.074 9006.68,795.987 9006.5,795.813C9006.33,795.64 9006.24,795.423 9006.24,795.162Z" style="fill-rule:nonzero;"/>
                    <path d="M9011.75,787.259L9010.01,787.259L9010.84,785.84L9013.27,785.84L9013.27,795.892L9011.75,795.892L9011.75,787.259Z" style="fill-rule:nonzero;"/>
                    <path d="M9018.65,794.466L9022.39,794.466L9022.39,795.892L9015.64,795.892L9019.13,791.666C9019.48,791.245 9019.76,790.881 9020,790.573C9020.23,790.264 9020.4,790.006 9020.52,789.798C9020.77,789.39 9020.9,789.023 9020.9,788.698C9020.9,788.229 9020.73,787.836 9020.4,787.519C9020.07,787.202 9019.66,787.044 9019.18,787.044C9018.16,787.044 9017.58,787.645 9017.43,788.847L9015.92,788.847C9016.17,786.729 9017.24,785.67 9019.13,785.67C9020.05,785.67 9020.82,785.961 9021.44,786.543C9022.06,787.124 9022.37,787.845 9022.37,788.704C9022.37,789.251 9022.23,789.787 9021.94,790.312C9021.79,790.586 9021.58,790.91 9021.29,791.285C9021.01,791.661 9020.65,792.105 9020.21,792.617L9018.65,794.466Z" style="fill-rule:nonzero;"/>
                    <path d="M9030.55,787.259L9027.45,787.259L9026.96,788.925C9027.03,788.917 9027.1,788.91 9027.17,788.906C9027.24,788.902 9027.3,788.899 9027.35,788.899C9028.33,788.899 9029.13,789.229 9029.76,789.889C9030.39,790.544 9030.7,791.384 9030.7,792.409C9030.7,793.468 9030.34,794.34 9029.63,795.026C9028.92,795.711 9028.02,796.054 9026.94,796.054C9025.61,796.054 9024.56,795.429 9023.79,794.179L9024.94,793.209C9025.26,793.748 9025.58,794.127 9025.9,794.349C9026.22,794.566 9026.61,794.674 9027.08,794.674C9027.68,794.674 9028.19,794.461 9028.6,794.036C9029.02,793.598 9029.22,793.066 9029.22,792.441C9029.22,791.799 9029.02,791.274 9028.61,790.866C9028.2,790.445 9027.69,790.234 9027.08,790.234C9026.4,790.234 9025.81,790.531 9025.32,791.126L9024.82,791.126L9026.4,785.84L9030.55,785.84L9030.55,787.259Z" style="fill-rule:nonzero;"/>
                    <path d="M9037.58,785.84L9040.2,792.558L9042.93,785.351L9045.55,792.558L9048.33,785.84L9049.98,785.84L9045.49,796.53L9042.9,789.407L9040.21,796.536L9035.93,785.84L9037.58,785.84Z" style="fill-rule:nonzero;"/>
                    <path d="M9052.54,789.55L9052.54,795.892L9051.08,795.892L9051.08,789.55L9052.54,789.55ZM9050.86,786.914C9050.86,786.658 9050.95,786.436 9051.14,786.25C9051.32,786.063 9051.55,785.97 9051.81,785.97C9052.07,785.97 9052.3,786.063 9052.49,786.25C9052.67,786.432 9052.76,786.655 9052.76,786.92C9052.76,787.185 9052.67,787.411 9052.49,787.597C9052.3,787.784 9052.08,787.877 9051.81,787.877C9051.55,787.877 9051.32,787.784 9051.14,787.597C9050.95,787.411 9050.86,787.183 9050.86,786.914Z" style="fill-rule:nonzero;"/>
                    <path d="M9059.07,784.896L9060.55,784.896L9060.55,795.892L9059.07,795.892L9059.07,795.228C9058.5,795.792 9057.84,796.074 9057.11,796.074C9056.25,796.074 9055.52,795.757 9054.95,795.123C9054.38,794.477 9054.1,793.669 9054.1,792.702C9054.1,791.755 9054.38,790.965 9054.95,790.332C9055.52,789.694 9056.23,789.375 9057.08,789.375C9057.82,789.375 9058.49,789.678 9059.07,790.286L9059.07,784.896ZM9055.6,792.702C9055.6,793.309 9055.76,793.804 9056.09,794.186C9056.42,794.572 9056.84,794.765 9057.35,794.765C9057.89,794.765 9058.33,794.579 9058.66,794.205C9059,793.819 9059.17,793.329 9059.17,792.734C9059.17,792.139 9059,791.649 9058.66,791.263C9058.33,790.885 9057.9,790.696 9057.36,790.696C9056.86,790.696 9056.44,790.887 9056.1,791.269C9055.76,791.655 9055.6,792.133 9055.6,792.702Z" style="fill-rule:nonzero;"/>
                    <path d="M9068.17,793.066L9063.62,793.066C9063.66,793.587 9063.83,794.001 9064.13,794.31C9064.43,794.613 9064.82,794.765 9065.28,794.765C9065.65,794.765 9065.95,794.678 9066.19,794.505C9066.42,794.331 9066.69,794.01 9066.99,793.541L9068.23,794.231C9068.04,794.557 9067.83,794.836 9067.62,795.068C9067.41,795.3 9067.18,795.491 9066.94,795.641C9066.69,795.791 9066.43,795.9 9066.15,795.97C9065.87,796.039 9065.56,796.074 9065.23,796.074C9064.29,796.074 9063.53,795.77 9062.95,795.162C9062.38,794.55 9062.09,793.739 9062.09,792.728C9062.09,791.725 9062.37,790.913 9062.93,790.293C9063.49,789.681 9064.23,789.375 9065.15,789.375C9066.09,789.375 9066.83,789.672 9067.37,790.267C9067.91,790.857 9068.18,791.675 9068.18,792.721L9068.17,793.066ZM9066.67,791.868C9066.46,791.087 9065.97,790.696 9065.19,790.696C9065.01,790.696 9064.84,790.723 9064.68,790.778C9064.53,790.832 9064.39,790.91 9064.26,791.012C9064.13,791.114 9064.02,791.237 9063.93,791.38C9063.84,791.523 9063.77,791.686 9063.72,791.868L9066.67,791.868Z" style="fill-rule:nonzero;"/>
                    <path d="M8970.76,800.996L8970.76,809.622L8969.24,809.622L8969.24,800.996L8966.93,800.996L8966.93,799.57L8973.06,799.57L8973.06,800.996L8970.76,800.996Z" style="fill-rule:nonzero;"/>
                    <path d="M8973.59,804.55C8973.59,803.136 8974.11,801.92 8975.15,800.905C8976.18,799.889 8977.43,799.381 8978.88,799.381C8980.31,799.381 8981.53,799.893 8982.56,800.918C8983.59,801.942 8984.1,803.172 8984.1,804.609C8984.1,806.054 8983.59,807.28 8982.55,808.287C8981.52,809.299 8980.26,809.804 8978.8,809.804C8977.5,809.804 8976.33,809.355 8975.3,808.457C8974.16,807.463 8973.59,806.161 8973.59,804.55ZM8975.12,804.57C8975.12,805.681 8975.5,806.595 8976.25,807.311C8976.99,808.027 8977.84,808.385 8978.82,808.385C8979.87,808.385 8980.76,808.021 8981.49,807.291C8982.21,806.553 8982.57,805.655 8982.57,804.596C8982.57,803.524 8982.22,802.626 8981.5,801.901C8980.79,801.172 8979.91,800.807 8978.85,800.807C8977.81,800.807 8976.93,801.172 8976.21,801.901C8975.49,802.621 8975.12,803.511 8975.12,804.57Z" style="fill-rule:nonzero;"/>
                    <path d="M8987.53,805.54L8987.53,809.622L8986.01,809.622L8986.01,799.57L8987.73,799.57C8988.57,799.57 8989.21,799.629 8989.64,799.746C8990.07,799.863 8990.45,800.084 8990.78,800.41C8991.36,800.974 8991.65,801.686 8991.65,802.545C8991.65,803.465 8991.34,804.195 8990.72,804.733C8990.11,805.271 8989.28,805.54 8988.23,805.54L8987.53,805.54ZM8987.53,804.134L8988.09,804.134C8989.49,804.134 8990.18,803.598 8990.18,802.526C8990.18,801.488 8989.47,800.97 8988.03,800.97L8987.53,800.97L8987.53,804.134Z" style="fill-rule:nonzero;"/>
                    <path d="M9003.01,801.067L9001.78,801.797C9001.55,801.397 9001.33,801.137 9001.12,801.015C9000.9,800.876 9000.62,800.807 9000.28,800.807C8999.86,800.807 8999.51,800.926 8999.23,801.165C8998.95,801.399 8998.82,801.695 8998.82,802.05C8998.82,802.541 8999.18,802.936 8999.91,803.235L9000.91,803.646C9001.73,803.975 9002.33,804.378 9002.7,804.853C9003.08,805.328 9003.27,805.911 9003.27,806.601C9003.27,807.526 9002.96,808.29 9002.34,808.893C9001.72,809.501 9000.95,809.804 9000.03,809.804C8999.16,809.804 8998.44,809.546 8997.87,809.03C8997.31,808.513 8996.96,807.786 8996.82,806.849L8998.36,806.51C8998.43,807.1 8998.55,807.508 8998.73,807.734C8999.04,808.168 8999.49,808.385 9000.09,808.385C9000.57,808.385 9000.96,808.227 9001.27,807.91C9001.58,807.593 9001.74,807.192 9001.74,806.705C9001.74,806.51 9001.71,806.331 9001.66,806.168C9001.6,806.006 9001.52,805.856 9001.4,805.719C9001.29,805.582 9001.14,805.454 9000.96,805.335C9000.78,805.216 9000.56,805.102 9000.31,804.993L8999.34,804.59C8997.96,804.008 8997.27,803.157 8997.27,802.037C8997.27,801.282 8997.56,800.651 8998.14,800.143C8998.72,799.631 8999.43,799.375 9000.29,799.375C9001.45,799.375 9002.36,799.939 9003.01,801.067Z" style="fill-rule:nonzero;"/>
                    <rect x="9005.1" y="799.57" width="1.517" height="10.052" style="fill-rule:nonzero;"/>
                    <path d="M9009.03,809.622L9009.03,799.57L9011.14,799.57C9012.15,799.57 9012.95,799.67 9013.54,799.869C9014.17,800.065 9014.74,800.397 9015.25,800.866C9016.29,801.812 9016.81,803.055 9016.81,804.596C9016.81,806.141 9016.26,807.391 9015.18,808.346C9014.64,808.823 9014.07,809.155 9013.48,809.342C9012.92,809.529 9012.13,809.622 9011.11,809.622L9009.03,809.622ZM9010.55,808.196L9011.23,808.196C9011.91,808.196 9012.48,808.125 9012.93,807.981C9013.38,807.83 9013.79,807.589 9014.16,807.259C9014.9,806.577 9015.27,805.69 9015.27,804.596C9015.27,803.494 9014.91,802.6 9014.17,801.914C9013.5,801.302 9012.52,800.996 9011.23,800.996L9010.55,800.996L9010.55,808.196Z" style="fill-rule:nonzero;"/>
                    <path d="M9024.26,800.996L9020.23,800.996L9020.23,803.411L9024.14,803.411L9024.14,804.837L9020.23,804.837L9020.23,808.196L9024.26,808.196L9024.26,809.622L9018.71,809.622L9018.71,799.57L9024.26,799.57L9024.26,800.996Z" style="fill-rule:nonzero;"/>
                </g>
            </g>
        </g>
        <g id="Captive-Eject-Path">
            <g id="Bevel6">
                <g transform="matrix(-0.445326,0.681383,-0.681383,-0.445326,6331.38,-4112.07)">
                    <path d="M8924.18,795.892L8924.18,785.84L8925.69,785.84C8926.37,785.84 8926.9,785.892 8927.3,785.996C8927.71,786.1 8928.05,786.276 8928.33,786.523C8928.61,786.779 8928.83,787.098 8929,787.48C8929.17,787.866 8929.25,788.257 8929.25,788.652C8929.25,789.373 8928.97,789.982 8928.42,790.481C8928.96,790.664 8929.38,790.983 8929.68,791.438C8930,791.89 8930.15,792.415 8930.15,793.014C8930.15,793.8 8929.88,794.464 8929.32,795.006C8928.99,795.34 8928.61,795.573 8928.19,795.703C8927.74,795.829 8927.17,795.892 8926.48,795.892L8924.18,795.892ZM8925.7,790.156L8926.18,790.156C8926.74,790.156 8927.15,790.031 8927.42,789.782C8927.68,789.532 8927.81,789.164 8927.81,788.678C8927.81,788.205 8927.68,787.846 8927.41,787.601C8927.14,787.355 8926.75,787.233 8926.24,787.233L8925.7,787.233L8925.7,790.156ZM8925.7,794.466L8926.64,794.466C8927.32,794.466 8927.83,794.331 8928.15,794.062C8928.49,793.771 8928.66,793.402 8928.66,792.955C8928.66,792.521 8928.49,792.157 8928.17,791.862C8927.85,791.571 8927.28,791.425 8926.47,791.425L8925.7,791.425L8925.7,794.466Z" style="fill-rule:nonzero;"/>
                    <path d="M8937.61,787.265L8933.59,787.265L8933.59,789.681L8937.5,789.681L8937.5,791.106L8933.59,791.106L8933.59,794.466L8937.61,794.466L8937.61,795.892L8932.07,795.892L8932.07,785.84L8937.61,785.84L8937.61,787.265Z" style="fill-rule:nonzero;"/>
                    <path d="M8940.11,785.84L8942.9,792.806L8945.71,785.84L8947.37,785.84L8942.86,796.647L8938.45,785.84L8940.11,785.84Z" style="fill-rule:nonzero;"/>
                    <path d="M8954.17,787.265L8950.14,787.265L8950.14,789.681L8954.05,789.681L8954.05,791.106L8950.14,791.106L8950.14,794.466L8954.17,794.466L8954.17,795.892L8948.62,795.892L8948.62,785.84L8954.17,785.84L8954.17,787.265Z" style="fill-rule:nonzero;"/>
                    <path d="M8957.68,785.84L8957.68,794.466L8960.64,794.466L8960.64,795.892L8956.16,795.892L8956.16,785.84L8957.68,785.84Z" style="fill-rule:nonzero;"/>
                    <path d="M8971.74,787.265L8967.71,787.265L8967.71,789.681L8971.62,789.681L8971.62,791.106L8967.71,791.106L8967.71,794.466L8971.74,794.466L8971.74,795.892L8966.19,795.892L8966.19,785.84L8971.74,785.84L8971.74,787.265Z" style="fill-rule:nonzero;"/>
                    <path d="M8973.73,795.892L8973.73,785.84L8975.84,785.84C8976.85,785.84 8977.65,785.939 8978.23,786.139C8978.86,786.334 8979.43,786.666 8979.95,787.135C8980.98,788.081 8981.5,789.325 8981.5,790.866C8981.5,792.411 8980.96,793.661 8979.88,794.616C8979.34,795.093 8978.77,795.425 8978.18,795.612C8977.62,795.798 8976.83,795.892 8975.81,795.892L8973.73,795.892ZM8975.25,794.466L8975.93,794.466C8976.61,794.466 8977.18,794.394 8977.63,794.251C8978.08,794.099 8978.49,793.858 8978.85,793.528C8979.6,792.847 8979.97,791.959 8979.97,790.866C8979.97,789.763 8979.6,788.869 8978.86,788.183C8978.2,787.571 8977.22,787.265 8975.93,787.265L8975.25,787.265L8975.25,794.466Z" style="fill-rule:nonzero;"/>
                    <path d="M8988.58,790.657L8992.73,790.657L8992.73,790.989C8992.73,791.744 8992.64,792.413 8992.47,792.994C8992.29,793.533 8992,794.036 8991.59,794.505C8990.65,795.555 8989.47,796.08 8988.02,796.08C8986.62,796.08 8985.42,795.573 8984.41,794.557C8983.41,793.537 8982.91,792.313 8982.91,790.885C8982.91,789.427 8983.42,788.19 8984.44,787.174C8985.46,786.154 8986.7,785.644 8988.16,785.644C8988.95,785.644 8989.68,785.805 8990.36,786.126C8991.01,786.447 8991.65,786.968 8992.28,787.688L8991.2,788.724C8990.38,787.626 8989.37,787.077 8988.19,787.077C8987.12,787.077 8986.23,787.443 8985.51,788.177C8984.79,788.897 8984.43,789.8 8984.43,790.885C8984.43,792.005 8984.83,792.927 8985.64,793.652C8986.39,794.325 8987.2,794.661 8988.08,794.661C8988.82,794.661 8989.49,794.409 8990.09,793.906C8990.68,793.398 8991.02,792.79 8991.09,792.083L8988.58,792.083L8988.58,790.657Z" style="fill-rule:nonzero;"/>
                    <path d="M9000.19,787.265L8996.16,787.265L8996.16,789.681L9000.07,789.681L9000.07,791.106L8996.16,791.106L8996.16,794.466L9000.19,794.466L9000.19,795.892L8994.64,795.892L8994.64,785.84L9000.19,785.84L9000.19,787.265Z" style="fill-rule:nonzero;"/>
                    <path d="M9006.24,795.162C9006.24,794.919 9006.33,794.709 9006.51,794.531C9006.69,794.353 9006.9,794.264 9007.15,794.264C9007.39,794.264 9007.61,794.353 9007.78,794.531C9007.96,794.709 9008.05,794.922 9008.05,795.169C9008.05,795.421 9007.96,795.636 9007.78,795.813C9007.61,795.987 9007.4,796.074 9007.15,796.074C9006.89,796.074 9006.68,795.987 9006.5,795.813C9006.33,795.64 9006.24,795.423 9006.24,795.162Z" style="fill-rule:nonzero;"/>
                    <path d="M9011.75,787.259L9010.01,787.259L9010.84,785.84L9013.27,785.84L9013.27,795.892L9011.75,795.892L9011.75,787.259Z" style="fill-rule:nonzero;"/>
                    <path d="M9018.65,794.466L9022.39,794.466L9022.39,795.892L9015.64,795.892L9019.13,791.666C9019.48,791.245 9019.76,790.881 9020,790.573C9020.23,790.264 9020.4,790.006 9020.52,789.798C9020.77,789.39 9020.9,789.023 9020.9,788.698C9020.9,788.229 9020.73,787.836 9020.4,787.519C9020.07,787.202 9019.66,787.044 9019.18,787.044C9018.16,787.044 9017.58,787.645 9017.43,788.847L9015.92,788.847C9016.17,786.729 9017.24,785.67 9019.13,785.67C9020.05,785.67 9020.82,785.961 9021.44,786.543C9022.06,787.124 9022.37,787.845 9022.37,788.704C9022.37,789.251 9022.23,789.787 9021.94,790.312C9021.79,790.586 9021.58,790.91 9021.29,791.285C9021.01,791.661 9020.65,792.105 9020.21,792.617L9018.65,794.466Z" style="fill-rule:nonzero;"/>
                    <path d="M9030.55,787.259L9027.45,787.259L9026.96,788.925C9027.03,788.917 9027.1,788.91 9027.17,788.906C9027.24,788.902 9027.3,788.899 9027.35,788.899C9028.33,788.899 9029.13,789.229 9029.76,789.889C9030.39,790.544 9030.7,791.384 9030.7,792.409C9030.7,793.468 9030.34,794.34 9029.63,795.026C9028.92,795.711 9028.02,796.054 9026.94,796.054C9025.61,796.054 9024.56,795.429 9023.79,794.179L9024.94,793.209C9025.26,793.748 9025.58,794.127 9025.9,794.349C9026.22,794.566 9026.61,794.674 9027.08,794.674C9027.68,794.674 9028.19,794.461 9028.6,794.036C9029.02,793.598 9029.22,793.066 9029.22,792.441C9029.22,791.799 9029.02,791.274 9028.61,790.866C9028.2,790.445 9027.69,790.234 9027.08,790.234C9026.4,790.234 9025.81,790.531 9025.32,791.126L9024.82,791.126L9026.4,785.84L9030.55,785.84L9030.55,787.259Z" style="fill-rule:nonzero;"/>
                    <path d="M9037.58,785.84L9040.2,792.558L9042.93,785.351L9045.55,792.558L9048.33,785.84L9049.98,785.84L9045.49,796.53L9042.9,789.407L9040.21,796.536L9035.93,785.84L9037.58,785.84Z" style="fill-rule:nonzero;"/>
                    <path d="M9052.54,789.55L9052.54,795.892L9051.08,795.892L9051.08,789.55L9052.54,789.55ZM9050.86,786.914C9050.86,786.658 9050.95,786.436 9051.14,786.25C9051.32,786.063 9051.55,785.97 9051.81,785.97C9052.07,785.97 9052.3,786.063 9052.49,786.25C9052.67,786.432 9052.76,786.655 9052.76,786.92C9052.76,787.185 9052.67,787.411 9052.49,787.597C9052.3,787.784 9052.08,787.877 9051.81,787.877C9051.55,787.877 9051.32,787.784 9051.14,787.597C9050.95,787.411 9050.86,787.183 9050.86,786.914Z" style="fill-rule:nonzero;"/>
                    <path d="M9059.07,784.896L9060.55,784.896L9060.55,795.892L9059.07,795.892L9059.07,795.228C9058.5,795.792 9057.84,796.074 9057.11,796.074C9056.25,796.074 9055.52,795.757 9054.95,795.123C9054.38,794.477 9054.1,793.669 9054.1,792.702C9054.1,791.755 9054.38,790.965 9054.95,790.332C9055.52,789.694 9056.23,789.375 9057.08,789.375C9057.82,789.375 9058.49,789.678 9059.07,790.286L9059.07,784.896ZM9055.6,792.702C9055.6,793.309 9055.76,793.804 9056.09,794.186C9056.42,794.572 9056.84,794.765 9057.35,794.765C9057.89,794.765 9058.33,794.579 9058.66,794.205C9059,793.819 9059.17,793.329 9059.17,792.734C9059.17,792.139 9059,791.649 9058.66,791.263C9058.33,790.885 9057.9,790.696 9057.36,790.696C9056.86,790.696 9056.44,790.887 9056.1,791.269C9055.76,791.655 9055.6,792.133 9055.6,792.702Z" style="fill-rule:nonzero;"/>
                    <path d="M9068.17,793.066L9063.62,793.066C9063.66,793.587 9063.83,794.001 9064.13,794.31C9064.43,794.613 9064.82,794.765 9065.28,794.765C9065.65,794.765 9065.95,794.678 9066.19,794.505C9066.42,794.331 9066.69,794.01 9066.99,793.541L9068.23,794.231C9068.04,794.557 9067.83,794.836 9067.62,795.068C9067.41,795.3 9067.18,795.491 9066.94,795.641C9066.69,795.791 9066.43,795.9 9066.15,795.97C9065.87,796.039 9065.56,796.074 9065.23,796.074C9064.29,796.074 9063.53,795.77 9062.95,795.162C9062.38,794.55 9062.09,793.739 9062.09,792.728C9062.09,791.725 9062.37,790.913 9062.93,790.293C9063.49,789.681 9064.23,789.375 9065.15,789.375C9066.09,789.375 9066.83,789.672 9067.37,790.267C9067.91,790.857 9068.18,791.675 9068.18,792.721L9068.17,793.066ZM9066.67,791.868C9066.46,791.087 9065.97,790.696 9065.19,790.696C9065.01,790.696 9064.84,790.723 9064.68,790.778C9064.53,790.832 9064.39,790.91 9064.26,791.012C9064.13,791.114 9064.02,791.237 9063.93,791.38C9063.84,791.523 9063.77,791.686 9063.72,791.868L9066.67,791.868Z" style="fill-rule:nonzero;"/>
                    <path d="M8970.76,800.996L8970.76,809.622L8969.24,809.622L8969.24,800.996L8966.93,800.996L8966.93,799.57L8973.06,799.57L8973.06,800.996L8970.76,800.996Z" style="fill-rule:nonzero;"/>
                    <path d="M8973.59,804.55C8973.59,803.136 8974.11,801.92 8975.15,800.905C8976.18,799.889 8977.43,799.381 8978.88,799.381C8980.31,799.381 8981.53,799.893 8982.56,800.918C8983.59,801.942 8984.1,803.172 8984.1,804.609C8984.1,806.054 8983.59,807.28 8982.55,808.287C8981.52,809.299 8980.26,809.804 8978.8,809.804C8977.5,809.804 8976.33,809.355 8975.3,808.457C8974.16,807.463 8973.59,806.161 8973.59,804.55ZM8975.12,804.57C8975.12,805.681 8975.5,806.595 8976.25,807.311C8976.99,808.027 8977.84,808.385 8978.82,808.385C8979.87,808.385 8980.76,808.021 8981.49,807.291C8982.21,806.553 8982.57,805.655 8982.57,804.596C8982.57,803.524 8982.22,802.626 8981.5,801.901C8980.79,801.172 8979.91,800.807 8978.85,800.807C8977.81,800.807 8976.93,801.172 8976.21,801.901C8975.49,802.621 8975.12,803.511 8975.12,804.57Z" style="fill-rule:nonzero;"/>
                    <path d="M8987.53,805.54L8987.53,809.622L8986.01,809.622L8986.01,799.57L8987.73,799.57C8988.57,799.57 8989.21,799.629 8989.64,799.746C8990.07,799.863 8990.45,800.084 8990.78,800.41C8991.36,800.974 8991.65,801.686 8991.65,802.545C8991.65,803.465 8991.34,804.195 8990.72,804.733C8990.11,805.271 8989.28,805.54 8988.23,805.54L8987.53,805.54ZM8987.53,804.134L8988.09,804.134C8989.49,804.134 8990.18,803.598 8990.18,802.526C8990.18,801.488 8989.47,800.97 8988.03,800.97L8987.53,800.97L8987.53,804.134Z" style="fill-rule:nonzero;"/>
                    <path d="M9003.01,801.067L9001.78,801.797C9001.55,801.397 9001.33,801.137 9001.12,801.015C9000.9,800.876 9000.62,800.807 9000.28,800.807C8999.86,800.807 8999.51,800.926 8999.23,801.165C8998.95,801.399 8998.82,801.695 8998.82,802.05C8998.82,802.541 8999.18,802.936 8999.91,803.235L9000.91,803.646C9001.73,803.975 9002.33,804.378 9002.7,804.853C9003.08,805.328 9003.27,805.911 9003.27,806.601C9003.27,807.526 9002.96,808.29 9002.34,808.893C9001.72,809.501 9000.95,809.804 9000.03,809.804C8999.16,809.804 8998.44,809.546 8997.87,809.03C8997.31,808.513 8996.96,807.786 8996.82,806.849L8998.36,806.51C8998.43,807.1 8998.55,807.508 8998.73,807.734C8999.04,808.168 8999.49,808.385 9000.09,808.385C9000.57,808.385 9000.96,808.227 9001.27,807.91C9001.58,807.593 9001.74,807.192 9001.74,806.705C9001.74,806.51 9001.71,806.331 9001.66,806.168C9001.6,806.006 9001.52,805.856 9001.4,805.719C9001.29,805.582 9001.14,805.454 9000.96,805.335C9000.78,805.216 9000.56,805.102 9000.31,804.993L8999.34,804.59C8997.96,804.008 8997.27,803.157 8997.27,802.037C8997.27,801.282 8997.56,800.651 8998.14,800.143C8998.72,799.631 8999.43,799.375 9000.29,799.375C9001.45,799.375 9002.36,799.939 9003.01,801.067Z" style="fill-rule:nonzero;"/>
                    <rect x="9005.1" y="799.57" width="1.517" height="10.052" style="fill-rule:nonzero;"/>
                    <path d="M9009.03,809.622L9009.03,799.57L9011.14,799.57C9012.15,799.57 9012.95,799.67 9013.54,799.869C9014.17,800.065 9014.74,800.397 9015.25,800.866C9016.29,801.812 9016.81,803.055 9016.81,804.596C9016.81,806.141 9016.26,807.391 9015.18,808.346C9014.64,808.823 9014.07,809.155 9013.48,809.342C9012.92,809.529 9012.13,809.622 9011.11,809.622L9009.03,809.622ZM9010.55,808.196L9011.23,808.196C9011.91,808.196 9012.48,808.125 9012.93,807.981C9013.38,807.83 9013.79,807.589 9014.16,807.259C9014.9,806.577 9015.27,805.69 9015.27,804.596C9015.27,803.494 9014.91,802.6 9014.17,801.914C9013.5,801.302 9012.52,800.996 9011.23,800.996L9010.55,800.996L9010.55,808.196Z" style="fill-rule:nonzero;"/>
                    <path d="M9024.26,800.996L9020.23,800.996L9020.23,803.411L9024.14,803.411L9024.14,804.837L9020.23,804.837L9020.23,808.196L9024.26,808.196L9024.26,809.622L9018.71,809.622L9018.71,799.57L9024.26,799.57L9024.26,800.996Z" style="fill-rule:nonzero;"/>
                </g>
                <path d="M1894.57,1553.32C1895.28,1553.32 1895.99,1553.34 1896.69,1553.37C1898.2,1553.44 1899.71,1553.58 1901.21,1553.79C1905.18,1554.34 1909.08,1555.37 1912.8,1556.85C1917.92,1558.88 1922.71,1561.78 1926.89,1565.36C1930.73,1568.64 1934.07,1572.51 1936.75,1576.79C1940.05,1582.08 1942.36,1587.97 1943.51,1594.09C1944.79,1600.83 1944.67,1607.82 1943.15,1614.51C1942.3,1618.25 1941.02,1621.89 1939.33,1625.33C1938.68,1626.66 1937.98,1627.96 1937.21,1629.23C1936.94,1629.69 1936.65,1630.14 1936.37,1630.59L1812.66,1821.68C1812.72,1821.97 1812.78,1822.26 1812.84,1822.56C1812.93,1823.03 1812.93,1823.03 1813.02,1823.5C1813.25,1824.74 1813.46,1825.99 1813.63,1827.25C1814.01,1830.07 1814.22,1832.93 1814.26,1835.78C1814.38,1844 1813.07,1852.23 1810.4,1860C1809.28,1863.28 1807.91,1866.49 1806.31,1869.57C1805.62,1870.92 1804.88,1872.24 1804.1,1873.54C1803.76,1874.12 1803.4,1874.7 1803.04,1875.27C1802.75,1875.71 1802.46,1876.16 1802.17,1876.6C1801.17,1878.13 1800.11,1879.62 1798.99,1881.08C1797.34,1883.22 1795.56,1885.27 1793.68,1887.21C1788.78,1892.27 1783.12,1896.58 1776.96,1899.98C1772.56,1902.42 1767.89,1904.38 1763.07,1905.84C1757.86,1907.42 1752.47,1908.41 1747.03,1908.78C1741.85,1909.13 1736.63,1908.92 1731.49,1908.14C1727,1907.47 1722.56,1906.36 1718.28,1904.84C1709.58,1901.75 1701.49,1896.95 1694.58,1890.82C1691.48,1888.07 1688.61,1885.03 1686.03,1881.78C1683.24,1878.24 1680.77,1874.44 1678.69,1870.44C1676.83,1866.87 1675.27,1863.14 1674.03,1859.3C1672.76,1855.35 1671.83,1851.29 1671.25,1847.18C1670.53,1842.05 1670.36,1836.85 1670.76,1831.68C1671.1,1827.33 1671.83,1823.01 1672.95,1818.79C1674.3,1813.75 1676.2,1808.86 1678.6,1804.24C1679.44,1802.61 1680.35,1801.02 1681.32,1799.46C1681.67,1798.9 1682.03,1798.34 1682.39,1797.78C1684.97,1793.8 1687.93,1790.08 1691.23,1786.69C1695.6,1782.2 1700.57,1778.29 1705.96,1775.1C1710.89,1772.17 1716.17,1769.85 1721.66,1768.18C1723.37,1767.65 1725.11,1767.19 1726.86,1766.8C1727.63,1766.63 1728.41,1766.47 1729.19,1766.32C1770.27,1702.85 1811.31,1639.35 1852.45,1575.91C1853.1,1574.94 1853.77,1573.98 1854.48,1573.04C1856.51,1570.38 1858.8,1567.91 1861.32,1565.71C1864.01,1563.36 1866.95,1561.3 1870.07,1559.57C1873.76,1557.54 1877.71,1555.97 1881.79,1554.91C1884.5,1554.22 1887.27,1553.74 1890.06,1553.5C1891.26,1553.4 1892.47,1553.34 1893.67,1553.32C1893.97,1553.32 1894.27,1553.32 1894.57,1553.32ZM1894.06,1565.32C1893.07,1565.33 1892.08,1565.37 1891.09,1565.46C1889.12,1565.63 1887.16,1565.95 1885.23,1566.42C1882.19,1567.17 1879.25,1568.29 1876.48,1569.75C1873.81,1571.16 1871.31,1572.89 1869.05,1574.89C1867.33,1576.42 1865.75,1578.11 1864.33,1579.92C1863.63,1580.82 1862.97,1581.75 1862.35,1582.7L1736.32,1777.38C1736.05,1777.41 1735.78,1777.44 1735.51,1777.48C1735.24,1777.51 1734.97,1777.54 1734.7,1777.58C1733.76,1777.71 1732.82,1777.85 1731.88,1778.02C1729.88,1778.39 1727.89,1778.86 1725.93,1779.42C1719.89,1781.17 1714.14,1783.88 1708.94,1787.41C1705.37,1789.85 1702.06,1792.67 1699.1,1795.82C1696.64,1798.44 1694.42,1801.28 1692.47,1804.3C1691.94,1805.12 1691.41,1805.94 1690.92,1806.77C1690.01,1808.3 1689.17,1809.86 1688.41,1811.45C1685.9,1816.66 1684.17,1822.23 1683.27,1827.94C1682.49,1832.92 1682.35,1838 1682.84,1843.02C1683.35,1848.25 1684.55,1853.41 1686.4,1858.34C1688.7,1864.43 1691.99,1870.15 1696.13,1875.18C1698.25,1877.76 1700.59,1880.16 1703.11,1882.34C1706.09,1884.92 1709.33,1887.21 1712.75,1889.16C1715.9,1890.95 1719.22,1892.46 1722.64,1893.65C1726.21,1894.89 1729.9,1895.79 1733.64,1896.33C1737.57,1896.9 1741.55,1897.07 1745.51,1896.85C1749.56,1896.62 1753.6,1895.99 1757.52,1894.95C1761.69,1893.85 1765.73,1892.3 1769.57,1890.33C1773.23,1888.45 1776.69,1886.19 1779.89,1883.59C1783.26,1880.86 1786.32,1877.75 1789.01,1874.35C1789.8,1873.36 1790.56,1872.33 1791.28,1871.29C1791.76,1870.6 1792.23,1869.89 1792.68,1869.18C1793.45,1867.99 1794.18,1866.78 1794.86,1865.55C1796.13,1863.24 1797.25,1860.86 1798.21,1858.4C1799.78,1854.38 1800.91,1850.17 1801.57,1845.9C1802.26,1841.43 1802.44,1836.89 1802.1,1832.39C1801.89,1829.49 1801.46,1826.61 1800.83,1823.78C1800.52,1822.36 1800.15,1820.95 1799.73,1819.56C1841.96,1754.33 1884.39,1689.24 1926.41,1623.88C1927.24,1622.58 1927.99,1621.24 1928.66,1619.85C1929.92,1617.23 1930.87,1614.46 1931.5,1611.62C1932.54,1606.9 1932.67,1601.99 1931.88,1597.22C1931.05,1592.17 1929.2,1587.29 1926.45,1582.96C1924.52,1579.92 1922.16,1577.16 1919.45,1574.79C1916.24,1571.97 1912.55,1569.69 1908.59,1568.09C1905.7,1566.91 1902.66,1566.1 1899.57,1565.68C1898.05,1565.47 1896.52,1565.35 1894.98,1565.32C1894.68,1565.32 1894.37,1565.32 1894.06,1565.32Z" style="fill:rgb(85,85,85);fill-rule:nonzero;stroke:black;stroke-width:0.53px;stroke-linecap:butt;stroke-miterlimit:1.41421;"/>
            </g>
        </g>
    </g>
</svg>
