<?xml version="1.0" encoding="UTF-8" standalone="no"?>
<!DOCTYPE svg PUBLIC "-//W3C//DTD SVG 1.1//EN" "http://www.w3.org/Graphics/SVG/1.1/DTD/svg11.dtd">
<svg width="4544px" height="5760px" version="1.1" xmlns="http://www.w3.org/2000/svg" xmlns:xlink="http://www.w3.org/1999/xlink" xml:space="preserve" style="fill-rule:evenodd;clip-rule:evenodd;stroke-miterlimit:2.613;">
    <g clip-path="url(#_clip2)">
        <g id="Playfield-Outline-.--Top-Bottom-Sticker-Drill-Rout-Plastic-Bevel-Art-Assembly-Rubber-Todo">
            <path d="M250.028,382.57L2193.89,382.57L2193.89,4510.83L2133.9,4510.83L2133.9,4408.84L2133.89,4408.84C2133.89,4402.23 2128.51,4396.84 2121.89,4396.84L2091.95,4396.84L2092.01,4221.88L2092,4221.87C2092,4216.92 2087.96,4212.88 2083.01,4212.88C2078.05,4212.88 2074.01,4216.92 2074.01,4221.87L2074.01,4221.88L2074.06,4396.84L2013.9,4396.84C2007.29,4396.84 2001.91,4402.23 2001.91,4408.84L2001.91,4799.99L1329.95,4799.99L1105.57,4532.58L1105.56,4532.54C1101.06,4527.19 1094.21,4524.01 1087.18,4524.01L771.991,4524.01C758.778,4524.01 747.992,4534.79 747.992,4548L747.992,4799.99L551.237,4799.99L375.011,4647.61L375.011,4549.55C375.011,4536.34 364.232,4525.56 351.012,4525.56L250.028,4525.56L250.028,382.57Z" style="fill:none;stroke:rgb(35,31,32);stroke-width:1.11px;stroke-linecap:round;stroke-linejoin:round;"/>
        </g>
        <g id="Playfield-Guides-.--Top-Bottom-Sticker-Drill-Rout-Plastic-Bevel-Art-Assembly-Rubber-Todo">
            <path d="M433.899,4799.99L225.12,4799.99" style="fill:none;stroke:rgb(35,31,32);stroke-width:1.11px;stroke-linecap:round;stroke-linejoin:round;"/>
            <path d="M2210.9,4799.99L2099.49,4799.99" style="fill:none;stroke:rgb(35,31,32);stroke-width:1.11px;stroke-linecap:round;stroke-linejoin:round;"/>
            <path d="M2194.03,4817.86L2194.03,4763.96" style="fill:none;stroke:black;stroke-width:0.74px;stroke-linecap:round;stroke-linejoin:round;stroke-miterlimit:10;"/>
            <path d="M250.14,4823.45L250.14,4758.68" style="fill:none;stroke:black;stroke-width:0.74px;stroke-linecap:round;stroke-linejoin:round;stroke-miterlimit:10;"/>
        </g>
        <g id="Scoop">
            <g id="Bevel">
                <path d="M2748.48,2777.47C2746.49,2775.86 2743.56,2776.16 2741.94,2778.16L2662,2876.87C2660.39,2878.87 2660.7,2881.79 2662.69,2883.41L2765.14,2966.37C2767.13,2967.98 2770.06,2967.68 2771.67,2965.68L2851.61,2866.97C2853.23,2864.97 2852.92,2862.05 2850.93,2860.43L2850.96,2860.46C2858.08,2866.23 2859.18,2876.69 2853.41,2883.81L2780.97,2973.27C2775.2,2980.39 2764.74,2981.49 2757.62,2975.72L2655.1,2892.71C2647.98,2886.94 2646.88,2876.47 2652.65,2869.35L2725.09,2779.89C2730.86,2772.77 2741.32,2771.67 2748.45,2777.44L2748.48,2777.47Z" style="fill:rgb(85,85,85);"/>
                <g transform="matrix(0.63531,0.508901,-0.508901,0.63531,-2572.71,-2109.05)">
                    <path d="M8958.12,795.892L8958.12,785.84L8959.63,785.84C8960.3,785.84 8960.84,785.892 8961.24,785.996C8961.64,786.1 8961.98,786.276 8962.26,786.523C8962.54,786.779 8962.77,787.098 8962.93,787.48C8963.1,787.866 8963.18,788.257 8963.18,788.652C8963.18,789.373 8962.91,789.982 8962.36,790.481C8962.89,790.664 8963.31,790.983 8963.62,791.438C8963.93,791.89 8964.09,792.415 8964.09,793.014C8964.09,793.8 8963.81,794.464 8963.26,795.006C8962.92,795.34 8962.55,795.573 8962.13,795.703C8961.67,795.829 8961.1,795.892 8960.42,795.892L8958.12,795.892ZM8959.64,790.156L8960.11,790.156C8960.68,790.156 8961.09,790.031 8961.35,789.782C8961.61,789.532 8961.75,789.164 8961.75,788.678C8961.75,788.205 8961.61,787.846 8961.34,787.601C8961.07,787.355 8960.68,787.233 8960.17,787.233L8959.64,787.233L8959.64,790.156ZM8959.64,794.466L8960.57,794.466C8961.26,794.466 8961.76,794.331 8962.09,794.062C8962.42,793.771 8962.59,793.402 8962.59,792.955C8962.59,792.521 8962.43,792.157 8962.1,791.862C8961.79,791.571 8961.22,791.425 8960.41,791.425L8959.64,791.425L8959.64,794.466Z" style="fill-rule:nonzero;"/>
                    <path d="M8971.55,787.265L8967.52,787.265L8967.52,789.681L8971.43,789.681L8971.43,791.106L8967.52,791.106L8967.52,794.466L8971.55,794.466L8971.55,795.892L8966,795.892L8966,785.84L8971.55,785.84L8971.55,787.265Z" style="fill-rule:nonzero;"/>
                    <path d="M8974.05,785.84L8976.83,792.806L8979.65,785.84L8981.31,785.84L8976.8,796.647L8972.39,785.84L8974.05,785.84Z" style="fill-rule:nonzero;"/>
                    <path d="M8988.11,787.265L8984.08,787.265L8984.08,789.681L8987.99,789.681L8987.99,791.106L8984.08,791.106L8984.08,794.466L8988.11,794.466L8988.11,795.892L8982.56,795.892L8982.56,785.84L8988.11,785.84L8988.11,787.265Z" style="fill-rule:nonzero;"/>
                    <path d="M8991.62,785.84L8991.62,794.466L8994.57,794.466L8994.57,795.892L8990.1,795.892L8990.1,785.84L8991.62,785.84Z" style="fill-rule:nonzero;"/>
                    <path d="M9005.67,787.265L9001.64,787.265L9001.64,789.681L9005.56,789.681L9005.56,791.106L9001.64,791.106L9001.64,794.466L9005.67,794.466L9005.67,795.892L9000.12,795.892L9000.12,785.84L9005.67,785.84L9005.67,787.265Z" style="fill-rule:nonzero;"/>
                    <path d="M9007.66,795.892L9007.66,785.84L9009.77,785.84C9010.78,785.84 9011.58,785.939 9012.17,786.139C9012.8,786.334 9013.37,786.666 9013.88,787.135C9014.92,788.081 9015.44,789.325 9015.44,790.866C9015.44,792.411 9014.9,793.661 9013.82,794.616C9013.27,795.093 9012.7,795.425 9012.11,795.612C9011.56,795.798 9010.77,795.892 9009.75,795.892L9007.66,795.892ZM9009.18,794.466L9009.86,794.466C9010.55,794.466 9011.11,794.394 9011.56,794.251C9012.01,794.099 9012.42,793.858 9012.79,793.528C9013.53,792.847 9013.91,791.959 9013.91,790.866C9013.91,789.763 9013.54,788.869 9012.8,788.183C9012.14,787.571 9011.16,787.265 9009.86,787.265L9009.18,787.265L9009.18,794.466Z" style="fill-rule:nonzero;"/>
                    <path d="M9022.51,790.657L9026.67,790.657L9026.67,790.989C9026.67,791.744 9026.58,792.413 9026.4,792.994C9026.23,793.533 9025.93,794.036 9025.52,794.505C9024.59,795.555 9023.4,796.08 9021.96,796.08C9020.56,796.08 9019.35,795.573 9018.35,794.557C9017.34,793.537 9016.84,792.313 9016.84,790.885C9016.84,789.427 9017.35,788.19 9018.37,787.174C9019.39,786.154 9020.64,785.644 9022.1,785.644C9022.88,785.644 9023.62,785.805 9024.3,786.126C9024.95,786.447 9025.59,786.968 9026.22,787.688L9025.14,788.724C9024.31,787.626 9023.31,787.077 9022.12,787.077C9021.06,787.077 9020.17,787.443 9019.45,788.177C9018.73,788.897 9018.37,789.8 9018.37,790.885C9018.37,792.005 9018.77,792.927 9019.57,793.652C9020.32,794.325 9021.14,794.661 9022.01,794.661C9022.76,794.661 9023.43,794.409 9024.02,793.906C9024.62,793.398 9024.95,792.79 9025.02,792.083L9022.51,792.083L9022.51,790.657Z" style="fill-rule:nonzero;"/>
                    <path d="M9034.12,787.265L9030.09,787.265L9030.09,789.681L9034.01,789.681L9034.01,791.106L9030.09,791.106L9030.09,794.466L9034.12,794.466L9034.12,795.892L9028.58,795.892L9028.58,785.84L9034.12,785.84L9034.12,787.265Z" style="fill-rule:nonzero;"/>
                    <path d="M8922.77,808.893C8922.77,808.65 8922.86,808.439 8923.03,808.261C8923.21,808.083 8923.43,807.994 8923.67,807.994C8923.92,807.994 8924.13,808.083 8924.31,808.261C8924.49,808.439 8924.58,808.652 8924.58,808.899C8924.58,809.151 8924.49,809.366 8924.31,809.544C8924.14,809.718 8923.93,809.804 8923.67,809.804C8923.42,809.804 8923.2,809.718 8923.03,809.544C8922.85,809.37 8922.77,809.153 8922.77,808.893Z" style="fill-rule:nonzero;"/>
                    <path d="M8928.28,800.989L8926.54,800.989L8927.37,799.57L8929.79,799.57L8929.79,809.622L8928.28,809.622L8928.28,800.989Z" style="fill-rule:nonzero;"/>
                    <path d="M8935.18,808.196L8938.92,808.196L8938.92,809.622L8932.17,809.622L8935.66,805.397C8936,804.976 8936.29,804.611 8936.52,804.303C8936.75,803.995 8936.93,803.737 8937.05,803.528C8937.3,803.12 8937.42,802.754 8937.42,802.428C8937.42,801.959 8937.26,801.567 8936.93,801.25C8936.6,800.933 8936.19,800.774 8935.7,800.774C8934.69,800.774 8934.11,801.376 8933.96,802.578L8932.45,802.578C8932.69,800.46 8933.76,799.401 8935.66,799.401C8936.58,799.401 8937.34,799.692 8937.96,800.273C8938.59,800.855 8938.9,801.575 8938.9,802.435C8938.9,802.981 8938.76,803.517 8938.47,804.043C8938.32,804.316 8938.1,804.641 8937.82,805.016C8937.53,805.391 8937.17,805.835 8936.74,806.347L8935.18,808.196Z" style="fill-rule:nonzero;"/>
                    <path d="M8947.08,800.989L8943.98,800.989L8943.48,802.656C8943.56,802.647 8943.63,802.641 8943.7,802.636C8943.76,802.632 8943.83,802.63 8943.88,802.63C8944.86,802.63 8945.66,802.96 8946.28,803.619C8946.91,804.275 8947.23,805.115 8947.23,806.139C8947.23,807.198 8946.87,808.07 8946.16,808.756C8945.45,809.442 8944.55,809.785 8943.47,809.785C8942.14,809.785 8941.09,809.16 8940.32,807.91L8941.47,806.94C8941.78,807.478 8942.1,807.858 8942.42,808.079C8942.74,808.296 8943.14,808.405 8943.6,808.405C8944.21,808.405 8944.72,808.192 8945.13,807.767C8945.54,807.328 8945.75,806.797 8945.75,806.172C8945.75,805.529 8945.55,805.004 8945.14,804.596C8944.73,804.175 8944.22,803.965 8943.61,803.965C8942.93,803.965 8942.34,804.262 8941.84,804.856L8941.34,804.856L8942.92,799.57L8947.08,799.57L8947.08,800.989Z" style="fill-rule:nonzero;"/>
                    <path d="M8955.3,806.191L8953.02,803.281L8954.77,803.281L8956.18,805.13L8957.62,803.281L8959.42,803.281L8957.07,806.191L8959.79,809.622L8958.04,809.622L8956.18,807.252L8954.27,809.622L8952.48,809.622L8955.3,806.191Z" style="fill-rule:nonzero;"/>
                    <path d="M8965.12,808.893C8965.12,808.65 8965.21,808.439 8965.39,808.261C8965.56,808.083 8965.78,807.994 8966.02,807.994C8966.27,807.994 8966.48,808.083 8966.66,808.261C8966.84,808.439 8966.93,808.652 8966.93,808.899C8966.93,809.151 8966.84,809.366 8966.66,809.544C8966.49,809.718 8966.27,809.804 8966.02,809.804C8965.77,809.804 8965.55,809.718 8965.38,809.544C8965.2,809.37 8965.12,809.153 8965.12,808.893Z" style="fill-rule:nonzero;"/>
                    <path d="M8970.63,800.989L8968.89,800.989L8969.72,799.57L8972.14,799.57L8972.14,809.622L8970.63,809.622L8970.63,800.989Z" style="fill-rule:nonzero;"/>
                    <path d="M8977.53,808.196L8981.27,808.196L8981.27,809.622L8974.52,809.622L8978.01,805.397C8978.35,804.976 8978.64,804.611 8978.87,804.303C8979.1,803.995 8979.28,803.737 8979.4,803.528C8979.65,803.12 8979.77,802.754 8979.77,802.428C8979.77,801.959 8979.61,801.567 8979.28,801.25C8978.95,800.933 8978.54,800.774 8978.06,800.774C8977.04,800.774 8976.46,801.376 8976.31,802.578L8974.8,802.578C8975.04,800.46 8976.11,799.401 8978.01,799.401C8978.93,799.401 8979.69,799.692 8980.31,800.273C8980.94,800.855 8981.25,801.575 8981.25,802.435C8981.25,802.981 8981.11,803.517 8980.82,804.043C8980.67,804.316 8980.45,804.641 8980.17,805.016C8979.88,805.391 8979.52,805.835 8979.09,806.347L8977.53,808.196Z" style="fill-rule:nonzero;"/>
                    <path d="M8989.43,800.989L8986.33,800.989L8985.84,802.656C8985.91,802.647 8985.98,802.641 8986.05,802.636C8986.11,802.632 8986.18,802.63 8986.23,802.63C8987.21,802.63 8988.01,802.96 8988.63,803.619C8989.26,804.275 8989.58,805.115 8989.58,806.139C8989.58,807.198 8989.22,808.07 8988.51,808.756C8987.8,809.442 8986.9,809.785 8985.82,809.785C8984.49,809.785 8983.44,809.16 8982.67,807.91L8983.82,806.94C8984.13,807.478 8984.45,807.858 8984.77,808.079C8985.09,808.296 8985.49,808.405 8985.95,808.405C8986.56,808.405 8987.07,808.192 8987.48,807.767C8987.89,807.328 8988.1,806.797 8988.1,806.172C8988.1,805.529 8987.9,805.004 8987.49,804.596C8987.08,804.175 8986.57,803.965 8985.96,803.965C8985.28,803.965 8984.69,804.262 8984.19,804.856L8983.69,804.856L8985.27,799.57L8989.43,799.57L8989.43,800.989Z" style="fill-rule:nonzero;"/>
                    <path d="M8997.65,806.191L8995.37,803.281L8997.12,803.281L8998.53,805.13L8999.97,803.281L9001.77,803.281L8999.42,806.191L9002.14,809.622L9000.39,809.622L8998.53,807.252L8996.62,809.622L8994.83,809.622L8997.65,806.191Z" style="fill-rule:nonzero;"/>
                    <path d="M9007.47,808.893C9007.47,808.65 9007.56,808.439 9007.74,808.261C9007.91,808.083 9008.13,807.994 9008.37,807.994C9008.62,807.994 9008.83,808.083 9009.01,808.261C9009.19,808.439 9009.28,808.652 9009.28,808.899C9009.28,809.151 9009.19,809.366 9009.01,809.544C9008.84,809.718 9008.62,809.804 9008.37,809.804C9008.12,809.804 9007.9,809.718 9007.73,809.544C9007.56,809.37 9007.47,809.153 9007.47,808.893Z" style="fill-rule:nonzero;"/>
                    <path d="M9012.98,800.989L9011.24,800.989L9012.07,799.57L9014.49,799.57L9014.49,809.622L9012.98,809.622L9012.98,800.989Z" style="fill-rule:nonzero;"/>
                    <path d="M9022.01,800.989L9017.05,800.989L9017.05,799.57L9024.54,799.57L9018.2,809.967L9016.99,809.205L9022.01,800.989Z" style="fill-rule:nonzero;"/>
                    <path d="M9030.42,800.989L9025.46,800.989L9025.46,799.57L9032.96,799.57L9026.62,809.967L9025.41,809.205L9030.42,800.989Z" style="fill-rule:nonzero;"/>
                    <path d="M9038.32,809.622L9038.32,799.57L9040.43,799.57C9041.44,799.57 9042.24,799.67 9042.83,799.869C9043.46,800.065 9044.03,800.397 9044.54,800.866C9045.58,801.812 9046.09,803.055 9046.09,804.596C9046.09,806.141 9045.56,807.391 9044.47,808.346C9043.93,808.823 9043.36,809.155 9042.77,809.342C9042.21,809.529 9041.43,809.622 9040.41,809.622L9038.32,809.622ZM9039.84,808.196L9040.52,808.196C9041.2,808.196 9041.77,808.125 9042.22,807.981C9042.67,807.83 9043.08,807.589 9043.44,807.259C9044.19,806.577 9044.57,805.69 9044.57,804.596C9044.57,803.494 9044.2,802.6 9043.46,801.914C9042.79,801.302 9041.82,800.996 9040.52,800.996L9039.84,800.996L9039.84,808.196Z" style="fill-rule:nonzero;"/>
                    <path d="M9049.19,803.281L9049.19,809.622L9047.72,809.622L9047.72,803.281L9049.19,803.281ZM9047.5,800.644C9047.5,800.388 9047.59,800.167 9047.78,799.98C9047.97,799.794 9048.19,799.7 9048.45,799.7C9048.72,799.7 9048.94,799.794 9049.13,799.98C9049.32,800.162 9049.41,800.386 9049.41,800.651C9049.41,800.915 9049.32,801.141 9049.13,801.328C9048.95,801.514 9048.72,801.608 9048.46,801.608C9048.19,801.608 9047.97,801.514 9047.78,801.328C9047.59,801.141 9047.5,800.913 9047.5,800.644Z" style="fill-rule:nonzero;"/>
                    <path d="M9055.72,803.281L9057.19,803.281L9057.19,809.622L9055.72,809.622L9055.72,808.958C9055.11,809.522 9054.47,809.804 9053.77,809.804C9052.89,809.804 9052.17,809.488 9051.6,808.854C9051.03,808.207 9050.74,807.4 9050.74,806.432C9050.74,805.481 9051.03,804.689 9051.6,804.056C9052.17,803.422 9052.88,803.105 9053.73,803.105C9054.47,803.105 9055.13,803.409 9055.72,804.017L9055.72,803.281ZM9052.24,806.432C9052.24,807.04 9052.4,807.534 9052.73,807.916C9053.06,808.303 9053.48,808.496 9053.99,808.496C9054.53,808.496 9054.97,808.309 9055.31,807.936C9055.64,807.55 9055.81,807.059 9055.81,806.465C9055.81,805.87 9055.64,805.379 9055.31,804.993C9054.97,804.616 9054.54,804.427 9054.01,804.427C9053.5,804.427 9053.08,804.618 9052.74,805C9052.41,805.386 9052.24,805.863 9052.24,806.432Z" style="fill-rule:nonzero;"/>
                    <path d="M9065.17,809.472C9065.17,809.772 9065.16,810.035 9065.14,810.263C9065.12,810.491 9065.09,810.692 9065.06,810.866C9064.96,811.343 9064.75,811.753 9064.45,812.096C9063.88,812.756 9063.09,813.086 9062.09,813.086C9061.24,813.086 9060.54,812.858 9060,812.402C9059.43,811.933 9059.1,811.284 9059.02,810.455L9060.49,810.455C9060.55,810.768 9060.64,811.009 9060.77,811.178C9061.07,811.573 9061.52,811.771 9062.1,811.771C9063.17,811.771 9063.71,811.113 9063.71,809.798L9063.71,808.912C9063.12,809.507 9062.45,809.804 9061.69,809.804C9060.83,809.804 9060.12,809.492 9059.57,808.867C9059.02,808.233 9058.74,807.441 9058.74,806.491C9058.74,805.566 9059,804.78 9059.51,804.134C9060.07,803.448 9060.8,803.105 9061.71,803.105C9062.51,803.105 9063.18,803.402 9063.71,803.997L9063.71,803.281L9065.17,803.281L9065.17,809.472ZM9063.76,806.465C9063.76,805.848 9063.6,805.356 9063.27,804.987C9062.93,804.609 9062.51,804.42 9061.99,804.42C9061.43,804.42 9060.99,804.626 9060.67,805.039C9060.38,805.408 9060.24,805.885 9060.24,806.471C9060.24,807.048 9060.38,807.521 9060.67,807.89C9060.99,808.294 9061.43,808.496 9061.99,808.496C9062.55,808.496 9062.99,808.292 9063.32,807.884C9063.61,807.515 9063.76,807.042 9063.76,806.465Z" style="fill-rule:nonzero;"/>
                    <path d="M9067.25,808.893C9067.25,808.65 9067.34,808.439 9067.51,808.261C9067.69,808.083 9067.91,807.994 9068.15,807.994C9068.4,807.994 9068.61,808.083 9068.79,808.261C9068.97,808.439 9069.06,808.652 9069.06,808.899C9069.06,809.151 9068.97,809.366 9068.79,809.544C9068.62,809.718 9068.4,809.804 9068.15,809.804C9067.9,809.804 9067.68,809.718 9067.51,809.544C9067.33,809.37 9067.25,809.153 9067.25,808.893Z" style="fill-rule:nonzero;"/>
                    <path d="M8970.76,814.726L8970.76,823.353L8969.24,823.353L8969.24,814.726L8966.93,814.726L8966.93,813.3L8973.06,813.3L8973.06,814.726L8970.76,814.726Z" style="fill-rule:nonzero;"/>
                    <path d="M8973.59,818.281C8973.59,816.866 8974.11,815.651 8975.15,814.635C8976.18,813.619 8977.43,813.112 8978.88,813.112C8980.31,813.112 8981.53,813.624 8982.56,814.648C8983.59,815.672 8984.1,816.903 8984.1,818.34C8984.1,819.785 8983.59,821.011 8982.55,822.018C8981.52,823.029 8980.26,823.535 8978.8,823.535C8977.5,823.535 8976.33,823.086 8975.3,822.187C8974.16,821.193 8973.59,819.891 8973.59,818.281ZM8975.12,818.3C8975.12,819.412 8975.5,820.325 8976.25,821.041C8976.99,821.757 8977.84,822.116 8978.82,822.116C8979.87,822.116 8980.76,821.751 8981.49,821.022C8982.21,820.284 8982.57,819.386 8982.57,818.327C8982.57,817.254 8982.22,816.356 8981.5,815.631C8980.79,814.902 8979.91,814.537 8978.85,814.537C8977.81,814.537 8976.93,814.902 8976.21,815.631C8975.49,816.352 8975.12,817.241 8975.12,818.3Z" style="fill-rule:nonzero;"/>
                    <path d="M8987.53,819.271L8987.53,823.353L8986.01,823.353L8986.01,813.3L8987.73,813.3C8988.57,813.3 8989.21,813.359 8989.64,813.476C8990.07,813.593 8990.45,813.815 8990.78,814.14C8991.36,814.705 8991.65,815.416 8991.65,816.276C8991.65,817.196 8991.34,817.925 8990.72,818.463C8990.11,819.001 8989.28,819.271 8988.23,819.271L8987.53,819.271ZM8987.53,817.864L8988.09,817.864C8989.49,817.864 8990.18,817.328 8990.18,816.256C8990.18,815.219 8989.47,814.7 8988.03,814.7L8987.53,814.7L8987.53,817.864Z" style="fill-rule:nonzero;"/>
                    <path d="M9003.01,814.798L9001.78,815.527C9001.55,815.128 9001.33,814.867 9001.12,814.746C9000.9,814.607 9000.62,814.537 9000.28,814.537C8999.86,814.537 8999.51,814.657 8999.23,814.896C8998.95,815.13 8998.82,815.425 8998.82,815.781C8998.82,816.271 8999.18,816.666 8999.91,816.966L9000.91,817.376C9001.73,817.706 9002.33,818.108 9002.7,818.584C9003.08,819.059 9003.27,819.642 9003.27,820.332C9003.27,821.256 9002.96,822.02 9002.34,822.623C9001.72,823.231 9000.95,823.535 9000.03,823.535C8999.16,823.535 8998.44,823.277 8997.87,822.76C8997.31,822.244 8996.96,821.517 8996.82,820.579L8998.36,820.241C8998.43,820.831 8998.55,821.239 8998.73,821.465C8999.04,821.899 8999.49,822.116 9000.09,822.116C9000.57,822.116 9000.96,821.957 9001.27,821.64C9001.58,821.323 9001.74,820.922 9001.74,820.436C9001.74,820.241 9001.71,820.062 9001.66,819.899C9001.6,819.736 9001.52,819.586 9001.4,819.45C9001.29,819.313 9001.14,819.185 9000.96,819.065C9000.78,818.946 9000.56,818.832 9000.31,818.724L8999.34,818.32C8997.96,817.738 8997.27,816.888 8997.27,815.768C8997.27,815.013 8997.56,814.381 8998.14,813.873C8998.72,813.361 8999.43,813.105 9000.29,813.105C9001.45,813.105 9002.36,813.669 9003.01,814.798Z" style="fill-rule:nonzero;"/>
                    <rect x="9005.1" y="813.3" width="1.517" height="10.052" style="fill-rule:nonzero;"/>
                    <path d="M9009.03,823.353L9009.03,813.3L9011.14,813.3C9012.15,813.3 9012.95,813.4 9013.54,813.6C9014.17,813.795 9014.74,814.127 9015.25,814.596C9016.29,815.542 9016.81,816.786 9016.81,818.327C9016.81,819.872 9016.26,821.122 9015.18,822.077C9014.64,822.554 9014.07,822.886 9013.48,823.073C9012.92,823.259 9012.13,823.353 9011.11,823.353L9009.03,823.353ZM9010.55,821.927L9011.23,821.927C9011.91,821.927 9012.48,821.855 9012.93,821.712C9013.38,821.56 9013.79,821.319 9014.16,820.989C9014.9,820.308 9015.27,819.42 9015.27,818.327C9015.27,817.224 9014.91,816.33 9014.17,815.644C9013.5,815.032 9012.52,814.726 9011.23,814.726L9010.55,814.726L9010.55,821.927Z" style="fill-rule:nonzero;"/>
                    <path d="M9024.26,814.726L9020.23,814.726L9020.23,817.142L9024.14,817.142L9024.14,818.567L9020.23,818.567L9020.23,821.927L9024.26,821.927L9024.26,823.353L9018.71,823.353L9018.71,813.3L9024.26,813.3L9024.26,814.726Z" style="fill-rule:nonzero;"/>
                </g>
            </g>
        </g>
        <g id="Scoop1">
            <g id="Bevel1">
                <path d="M1586.36,1408.74C1584.31,1407.2 1581.4,1407.61 1579.86,1409.66L1503.38,1511.09C1501.84,1513.13 1502.25,1516.05 1504.3,1517.59L1609.56,1596.95C1611.61,1598.5 1614.52,1598.09 1616.07,1596.04L1692.54,1494.61C1694.08,1492.56 1693.67,1489.65 1691.62,1488.1L1691.66,1488.13C1698.98,1493.64 1700.44,1504.06 1694.92,1511.38L1625.62,1603.3C1620.11,1610.62 1609.69,1612.08 1602.37,1606.56L1497.04,1527.15C1489.72,1521.63 1488.26,1511.21 1493.78,1503.89L1563.07,1411.98C1568.59,1404.66 1579.01,1403.2 1586.33,1408.72L1586.36,1408.74Z" style="fill:rgb(85,85,85);"/>
                <g transform="matrix(0.652575,0.486564,-0.486564,0.652575,-3901.08,-3290.31)">
                    <path d="M8958.12,795.892L8958.12,785.84L8959.63,785.84C8960.3,785.84 8960.84,785.892 8961.24,785.996C8961.64,786.1 8961.98,786.276 8962.26,786.523C8962.54,786.779 8962.77,787.098 8962.93,787.48C8963.1,787.866 8963.18,788.257 8963.18,788.652C8963.18,789.373 8962.91,789.982 8962.36,790.481C8962.89,790.664 8963.31,790.983 8963.62,791.438C8963.93,791.89 8964.09,792.415 8964.09,793.014C8964.09,793.8 8963.81,794.464 8963.26,795.006C8962.92,795.34 8962.55,795.573 8962.13,795.703C8961.67,795.829 8961.1,795.892 8960.42,795.892L8958.12,795.892ZM8959.64,790.156L8960.11,790.156C8960.68,790.156 8961.09,790.031 8961.35,789.782C8961.61,789.532 8961.75,789.164 8961.75,788.678C8961.75,788.205 8961.61,787.846 8961.34,787.601C8961.07,787.355 8960.68,787.233 8960.17,787.233L8959.64,787.233L8959.64,790.156ZM8959.64,794.466L8960.57,794.466C8961.26,794.466 8961.76,794.331 8962.09,794.062C8962.42,793.771 8962.59,793.402 8962.59,792.955C8962.59,792.521 8962.43,792.157 8962.1,791.862C8961.79,791.571 8961.22,791.425 8960.41,791.425L8959.64,791.425L8959.64,794.466Z" style="fill-rule:nonzero;"/>
                    <path d="M8971.55,787.265L8967.52,787.265L8967.52,789.681L8971.43,789.681L8971.43,791.106L8967.52,791.106L8967.52,794.466L8971.55,794.466L8971.55,795.892L8966,795.892L8966,785.84L8971.55,785.84L8971.55,787.265Z" style="fill-rule:nonzero;"/>
                    <path d="M8974.05,785.84L8976.83,792.806L8979.65,785.84L8981.31,785.84L8976.8,796.647L8972.39,785.84L8974.05,785.84Z" style="fill-rule:nonzero;"/>
                    <path d="M8988.11,787.265L8984.08,787.265L8984.08,789.681L8987.99,789.681L8987.99,791.106L8984.08,791.106L8984.08,794.466L8988.11,794.466L8988.11,795.892L8982.56,795.892L8982.56,785.84L8988.11,785.84L8988.11,787.265Z" style="fill-rule:nonzero;"/>
                    <path d="M8991.62,785.84L8991.62,794.466L8994.57,794.466L8994.57,795.892L8990.1,795.892L8990.1,785.84L8991.62,785.84Z" style="fill-rule:nonzero;"/>
                    <path d="M9005.67,787.265L9001.64,787.265L9001.64,789.681L9005.56,789.681L9005.56,791.106L9001.64,791.106L9001.64,794.466L9005.67,794.466L9005.67,795.892L9000.12,795.892L9000.12,785.84L9005.67,785.84L9005.67,787.265Z" style="fill-rule:nonzero;"/>
                    <path d="M9007.66,795.892L9007.66,785.84L9009.77,785.84C9010.78,785.84 9011.58,785.939 9012.17,786.139C9012.8,786.334 9013.37,786.666 9013.88,787.135C9014.92,788.081 9015.44,789.325 9015.44,790.866C9015.44,792.411 9014.9,793.661 9013.82,794.616C9013.27,795.093 9012.7,795.425 9012.11,795.612C9011.56,795.798 9010.77,795.892 9009.75,795.892L9007.66,795.892ZM9009.18,794.466L9009.86,794.466C9010.55,794.466 9011.11,794.394 9011.56,794.251C9012.01,794.099 9012.42,793.858 9012.79,793.528C9013.53,792.847 9013.91,791.959 9013.91,790.866C9013.91,789.763 9013.54,788.869 9012.8,788.183C9012.14,787.571 9011.16,787.265 9009.86,787.265L9009.18,787.265L9009.18,794.466Z" style="fill-rule:nonzero;"/>
                    <path d="M9022.51,790.657L9026.67,790.657L9026.67,790.989C9026.67,791.744 9026.58,792.413 9026.4,792.994C9026.23,793.533 9025.93,794.036 9025.52,794.505C9024.59,795.555 9023.4,796.08 9021.96,796.08C9020.56,796.08 9019.35,795.573 9018.35,794.557C9017.34,793.537 9016.84,792.313 9016.84,790.885C9016.84,789.427 9017.35,788.19 9018.37,787.174C9019.39,786.154 9020.64,785.644 9022.1,785.644C9022.88,785.644 9023.62,785.805 9024.3,786.126C9024.95,786.447 9025.59,786.968 9026.22,787.688L9025.14,788.724C9024.31,787.626 9023.31,787.077 9022.12,787.077C9021.06,787.077 9020.17,787.443 9019.45,788.177C9018.73,788.897 9018.37,789.8 9018.37,790.885C9018.37,792.005 9018.77,792.927 9019.57,793.652C9020.32,794.325 9021.14,794.661 9022.01,794.661C9022.76,794.661 9023.43,794.409 9024.02,793.906C9024.62,793.398 9024.95,792.79 9025.02,792.083L9022.51,792.083L9022.51,790.657Z" style="fill-rule:nonzero;"/>
                    <path d="M9034.12,787.265L9030.09,787.265L9030.09,789.681L9034.01,789.681L9034.01,791.106L9030.09,791.106L9030.09,794.466L9034.12,794.466L9034.12,795.892L9028.58,795.892L9028.58,785.84L9034.12,785.84L9034.12,787.265Z" style="fill-rule:nonzero;"/>
                    <path d="M8922.77,808.893C8922.77,808.65 8922.86,808.439 8923.03,808.261C8923.21,808.083 8923.43,807.994 8923.67,807.994C8923.92,807.994 8924.13,808.083 8924.31,808.261C8924.49,808.439 8924.58,808.652 8924.58,808.899C8924.58,809.151 8924.49,809.366 8924.31,809.544C8924.14,809.718 8923.93,809.804 8923.67,809.804C8923.42,809.804 8923.2,809.718 8923.03,809.544C8922.85,809.37 8922.77,809.153 8922.77,808.893Z" style="fill-rule:nonzero;"/>
                    <path d="M8928.28,800.989L8926.54,800.989L8927.37,799.57L8929.79,799.57L8929.79,809.622L8928.28,809.622L8928.28,800.989Z" style="fill-rule:nonzero;"/>
                    <path d="M8935.18,808.196L8938.92,808.196L8938.92,809.622L8932.17,809.622L8935.66,805.397C8936,804.976 8936.29,804.611 8936.52,804.303C8936.75,803.995 8936.93,803.737 8937.05,803.528C8937.3,803.12 8937.42,802.754 8937.42,802.428C8937.42,801.959 8937.26,801.567 8936.93,801.25C8936.6,800.933 8936.19,800.774 8935.7,800.774C8934.69,800.774 8934.11,801.376 8933.96,802.578L8932.45,802.578C8932.69,800.46 8933.76,799.401 8935.66,799.401C8936.58,799.401 8937.34,799.692 8937.96,800.273C8938.59,800.855 8938.9,801.575 8938.9,802.435C8938.9,802.981 8938.76,803.517 8938.47,804.043C8938.32,804.316 8938.1,804.641 8937.82,805.016C8937.53,805.391 8937.17,805.835 8936.74,806.347L8935.18,808.196Z" style="fill-rule:nonzero;"/>
                    <path d="M8947.08,800.989L8943.98,800.989L8943.48,802.656C8943.56,802.647 8943.63,802.641 8943.7,802.636C8943.76,802.632 8943.83,802.63 8943.88,802.63C8944.86,802.63 8945.66,802.96 8946.28,803.619C8946.91,804.275 8947.23,805.115 8947.23,806.139C8947.23,807.198 8946.87,808.07 8946.16,808.756C8945.45,809.442 8944.55,809.785 8943.47,809.785C8942.14,809.785 8941.09,809.16 8940.32,807.91L8941.47,806.94C8941.78,807.478 8942.1,807.858 8942.42,808.079C8942.74,808.296 8943.14,808.405 8943.6,808.405C8944.21,808.405 8944.72,808.192 8945.13,807.767C8945.54,807.328 8945.75,806.797 8945.75,806.172C8945.75,805.529 8945.55,805.004 8945.14,804.596C8944.73,804.175 8944.22,803.965 8943.61,803.965C8942.93,803.965 8942.34,804.262 8941.84,804.856L8941.34,804.856L8942.92,799.57L8947.08,799.57L8947.08,800.989Z" style="fill-rule:nonzero;"/>
                    <path d="M8955.3,806.191L8953.02,803.281L8954.77,803.281L8956.18,805.13L8957.62,803.281L8959.42,803.281L8957.07,806.191L8959.79,809.622L8958.04,809.622L8956.18,807.252L8954.27,809.622L8952.48,809.622L8955.3,806.191Z" style="fill-rule:nonzero;"/>
                    <path d="M8965.12,808.893C8965.12,808.65 8965.21,808.439 8965.39,808.261C8965.56,808.083 8965.78,807.994 8966.02,807.994C8966.27,807.994 8966.48,808.083 8966.66,808.261C8966.84,808.439 8966.93,808.652 8966.93,808.899C8966.93,809.151 8966.84,809.366 8966.66,809.544C8966.49,809.718 8966.27,809.804 8966.02,809.804C8965.77,809.804 8965.55,809.718 8965.38,809.544C8965.2,809.37 8965.12,809.153 8965.12,808.893Z" style="fill-rule:nonzero;"/>
                    <path d="M8970.63,800.989L8968.89,800.989L8969.72,799.57L8972.14,799.57L8972.14,809.622L8970.63,809.622L8970.63,800.989Z" style="fill-rule:nonzero;"/>
                    <path d="M8977.53,808.196L8981.27,808.196L8981.27,809.622L8974.52,809.622L8978.01,805.397C8978.35,804.976 8978.64,804.611 8978.87,804.303C8979.1,803.995 8979.28,803.737 8979.4,803.528C8979.65,803.12 8979.77,802.754 8979.77,802.428C8979.77,801.959 8979.61,801.567 8979.28,801.25C8978.95,800.933 8978.54,800.774 8978.06,800.774C8977.04,800.774 8976.46,801.376 8976.31,802.578L8974.8,802.578C8975.04,800.46 8976.11,799.401 8978.01,799.401C8978.93,799.401 8979.69,799.692 8980.31,800.273C8980.94,800.855 8981.25,801.575 8981.25,802.435C8981.25,802.981 8981.11,803.517 8980.82,804.043C8980.67,804.316 8980.45,804.641 8980.17,805.016C8979.88,805.391 8979.52,805.835 8979.09,806.347L8977.53,808.196Z" style="fill-rule:nonzero;"/>
                    <path d="M8989.43,800.989L8986.33,800.989L8985.84,802.656C8985.91,802.647 8985.98,802.641 8986.05,802.636C8986.11,802.632 8986.18,802.63 8986.23,802.63C8987.21,802.63 8988.01,802.96 8988.63,803.619C8989.26,804.275 8989.58,805.115 8989.58,806.139C8989.58,807.198 8989.22,808.07 8988.51,808.756C8987.8,809.442 8986.9,809.785 8985.82,809.785C8984.49,809.785 8983.44,809.16 8982.67,807.91L8983.82,806.94C8984.13,807.478 8984.45,807.858 8984.77,808.079C8985.09,808.296 8985.49,808.405 8985.95,808.405C8986.56,808.405 8987.07,808.192 8987.48,807.767C8987.89,807.328 8988.1,806.797 8988.1,806.172C8988.1,805.529 8987.9,805.004 8987.49,804.596C8987.08,804.175 8986.57,803.965 8985.96,803.965C8985.28,803.965 8984.69,804.262 8984.19,804.856L8983.69,804.856L8985.27,799.57L8989.43,799.57L8989.43,800.989Z" style="fill-rule:nonzero;"/>
                    <path d="M8997.65,806.191L8995.37,803.281L8997.12,803.281L8998.53,805.13L8999.97,803.281L9001.77,803.281L8999.42,806.191L9002.14,809.622L9000.39,809.622L8998.53,807.252L8996.62,809.622L8994.83,809.622L8997.65,806.191Z" style="fill-rule:nonzero;"/>
                    <path d="M9007.47,808.893C9007.47,808.65 9007.56,808.439 9007.74,808.261C9007.91,808.083 9008.13,807.994 9008.37,807.994C9008.62,807.994 9008.83,808.083 9009.01,808.261C9009.19,808.439 9009.28,808.652 9009.28,808.899C9009.28,809.151 9009.19,809.366 9009.01,809.544C9008.84,809.718 9008.62,809.804 9008.37,809.804C9008.12,809.804 9007.9,809.718 9007.73,809.544C9007.56,809.37 9007.47,809.153 9007.47,808.893Z" style="fill-rule:nonzero;"/>
                    <path d="M9012.98,800.989L9011.24,800.989L9012.07,799.57L9014.49,799.57L9014.49,809.622L9012.98,809.622L9012.98,800.989Z" style="fill-rule:nonzero;"/>
                    <path d="M9022.01,800.989L9017.05,800.989L9017.05,799.57L9024.54,799.57L9018.2,809.967L9016.99,809.205L9022.01,800.989Z" style="fill-rule:nonzero;"/>
                    <path d="M9030.42,800.989L9025.46,800.989L9025.46,799.57L9032.96,799.57L9026.62,809.967L9025.41,809.205L9030.42,800.989Z" style="fill-rule:nonzero;"/>
                    <path d="M9038.32,809.622L9038.32,799.57L9040.43,799.57C9041.44,799.57 9042.24,799.67 9042.83,799.869C9043.46,800.065 9044.03,800.397 9044.54,800.866C9045.58,801.812 9046.09,803.055 9046.09,804.596C9046.09,806.141 9045.56,807.391 9044.47,808.346C9043.93,808.823 9043.36,809.155 9042.77,809.342C9042.21,809.529 9041.43,809.622 9040.41,809.622L9038.32,809.622ZM9039.84,808.196L9040.52,808.196C9041.2,808.196 9041.77,808.125 9042.22,807.981C9042.67,807.83 9043.08,807.589 9043.44,807.259C9044.19,806.577 9044.57,805.69 9044.57,804.596C9044.57,803.494 9044.2,802.6 9043.46,801.914C9042.79,801.302 9041.82,800.996 9040.52,800.996L9039.84,800.996L9039.84,808.196Z" style="fill-rule:nonzero;"/>
                    <path d="M9049.19,803.281L9049.19,809.622L9047.72,809.622L9047.72,803.281L9049.19,803.281ZM9047.5,800.644C9047.5,800.388 9047.59,800.167 9047.78,799.98C9047.97,799.794 9048.19,799.7 9048.45,799.7C9048.72,799.7 9048.94,799.794 9049.13,799.98C9049.32,800.162 9049.41,800.386 9049.41,800.651C9049.41,800.915 9049.32,801.141 9049.13,801.328C9048.95,801.514 9048.72,801.608 9048.46,801.608C9048.19,801.608 9047.97,801.514 9047.78,801.328C9047.59,801.141 9047.5,800.913 9047.5,800.644Z" style="fill-rule:nonzero;"/>
                    <path d="M9055.72,803.281L9057.19,803.281L9057.19,809.622L9055.72,809.622L9055.72,808.958C9055.11,809.522 9054.47,809.804 9053.77,809.804C9052.89,809.804 9052.17,809.488 9051.6,808.854C9051.03,808.207 9050.74,807.4 9050.74,806.432C9050.74,805.481 9051.03,804.689 9051.6,804.056C9052.17,803.422 9052.88,803.105 9053.73,803.105C9054.47,803.105 9055.13,803.409 9055.72,804.017L9055.72,803.281ZM9052.24,806.432C9052.24,807.04 9052.4,807.534 9052.73,807.916C9053.06,808.303 9053.48,808.496 9053.99,808.496C9054.53,808.496 9054.97,808.309 9055.31,807.936C9055.64,807.55 9055.81,807.059 9055.81,806.465C9055.81,805.87 9055.64,805.379 9055.31,804.993C9054.97,804.616 9054.54,804.427 9054.01,804.427C9053.5,804.427 9053.08,804.618 9052.74,805C9052.41,805.386 9052.24,805.863 9052.24,806.432Z" style="fill-rule:nonzero;"/>
                    <path d="M9065.17,809.472C9065.17,809.772 9065.16,810.035 9065.14,810.263C9065.12,810.491 9065.09,810.692 9065.06,810.866C9064.96,811.343 9064.75,811.753 9064.45,812.096C9063.88,812.756 9063.09,813.086 9062.09,813.086C9061.24,813.086 9060.54,812.858 9060,812.402C9059.43,811.933 9059.1,811.284 9059.02,810.455L9060.49,810.455C9060.55,810.768 9060.64,811.009 9060.77,811.178C9061.07,811.573 9061.52,811.771 9062.1,811.771C9063.17,811.771 9063.71,811.113 9063.71,809.798L9063.71,808.912C9063.12,809.507 9062.45,809.804 9061.69,809.804C9060.83,809.804 9060.12,809.492 9059.57,808.867C9059.02,808.233 9058.74,807.441 9058.74,806.491C9058.74,805.566 9059,804.78 9059.51,804.134C9060.07,803.448 9060.8,803.105 9061.71,803.105C9062.51,803.105 9063.18,803.402 9063.71,803.997L9063.71,803.281L9065.17,803.281L9065.17,809.472ZM9063.76,806.465C9063.76,805.848 9063.6,805.356 9063.27,804.987C9062.93,804.609 9062.51,804.42 9061.99,804.42C9061.43,804.42 9060.99,804.626 9060.67,805.039C9060.38,805.408 9060.24,805.885 9060.24,806.471C9060.24,807.048 9060.38,807.521 9060.67,807.89C9060.99,808.294 9061.43,808.496 9061.99,808.496C9062.55,808.496 9062.99,808.292 9063.32,807.884C9063.61,807.515 9063.76,807.042 9063.76,806.465Z" style="fill-rule:nonzero;"/>
                    <path d="M9067.25,808.893C9067.25,808.65 9067.34,808.439 9067.51,808.261C9067.69,808.083 9067.91,807.994 9068.15,807.994C9068.4,807.994 9068.61,808.083 9068.79,808.261C9068.97,808.439 9069.06,808.652 9069.06,808.899C9069.06,809.151 9068.97,809.366 9068.79,809.544C9068.62,809.718 9068.4,809.804 9068.15,809.804C9067.9,809.804 9067.68,809.718 9067.51,809.544C9067.33,809.37 9067.25,809.153 9067.25,808.893Z" style="fill-rule:nonzero;"/>
                    <path d="M8970.76,814.726L8970.76,823.353L8969.24,823.353L8969.24,814.726L8966.93,814.726L8966.93,813.3L8973.06,813.3L8973.06,814.726L8970.76,814.726Z" style="fill-rule:nonzero;"/>
                    <path d="M8973.59,818.281C8973.59,816.866 8974.11,815.651 8975.15,814.635C8976.18,813.619 8977.43,813.112 8978.88,813.112C8980.31,813.112 8981.53,813.624 8982.56,814.648C8983.59,815.672 8984.1,816.903 8984.1,818.34C8984.1,819.785 8983.59,821.011 8982.55,822.018C8981.52,823.029 8980.26,823.535 8978.8,823.535C8977.5,823.535 8976.33,823.086 8975.3,822.187C8974.16,821.193 8973.59,819.891 8973.59,818.281ZM8975.12,818.3C8975.12,819.412 8975.5,820.325 8976.25,821.041C8976.99,821.757 8977.84,822.116 8978.82,822.116C8979.87,822.116 8980.76,821.751 8981.49,821.022C8982.21,820.284 8982.57,819.386 8982.57,818.327C8982.57,817.254 8982.22,816.356 8981.5,815.631C8980.79,814.902 8979.91,814.537 8978.85,814.537C8977.81,814.537 8976.93,814.902 8976.21,815.631C8975.49,816.352 8975.12,817.241 8975.12,818.3Z" style="fill-rule:nonzero;"/>
                    <path d="M8987.53,819.271L8987.53,823.353L8986.01,823.353L8986.01,813.3L8987.73,813.3C8988.57,813.3 8989.21,813.359 8989.64,813.476C8990.07,813.593 8990.45,813.815 8990.78,814.14C8991.36,814.705 8991.65,815.416 8991.65,816.276C8991.65,817.196 8991.34,817.925 8990.72,818.463C8990.11,819.001 8989.28,819.271 8988.23,819.271L8987.53,819.271ZM8987.53,817.864L8988.09,817.864C8989.49,817.864 8990.18,817.328 8990.18,816.256C8990.18,815.219 8989.47,814.7 8988.03,814.7L8987.53,814.7L8987.53,817.864Z" style="fill-rule:nonzero;"/>
                    <path d="M9003.01,814.798L9001.78,815.527C9001.55,815.128 9001.33,814.867 9001.12,814.746C9000.9,814.607 9000.62,814.537 9000.28,814.537C8999.86,814.537 8999.51,814.657 8999.23,814.896C8998.95,815.13 8998.82,815.425 8998.82,815.781C8998.82,816.271 8999.18,816.666 8999.91,816.966L9000.91,817.376C9001.73,817.706 9002.33,818.108 9002.7,818.584C9003.08,819.059 9003.27,819.642 9003.27,820.332C9003.27,821.256 9002.96,822.02 9002.34,822.623C9001.72,823.231 9000.95,823.535 9000.03,823.535C8999.16,823.535 8998.44,823.277 8997.87,822.76C8997.31,822.244 8996.96,821.517 8996.82,820.579L8998.36,820.241C8998.43,820.831 8998.55,821.239 8998.73,821.465C8999.04,821.899 8999.49,822.116 9000.09,822.116C9000.57,822.116 9000.96,821.957 9001.27,821.64C9001.58,821.323 9001.74,820.922 9001.74,820.436C9001.74,820.241 9001.71,820.062 9001.66,819.899C9001.6,819.736 9001.52,819.586 9001.4,819.45C9001.29,819.313 9001.14,819.185 9000.96,819.065C9000.78,818.946 9000.56,818.832 9000.31,818.724L8999.34,818.32C8997.96,817.738 8997.27,816.888 8997.27,815.768C8997.27,815.013 8997.56,814.381 8998.14,813.873C8998.72,813.361 8999.43,813.105 9000.29,813.105C9001.45,813.105 9002.36,813.669 9003.01,814.798Z" style="fill-rule:nonzero;"/>
                    <rect x="9005.1" y="813.3" width="1.517" height="10.052" style="fill-rule:nonzero;"/>
                    <path d="M9009.03,823.353L9009.03,813.3L9011.14,813.3C9012.15,813.3 9012.95,813.4 9013.54,813.6C9014.17,813.795 9014.74,814.127 9015.25,814.596C9016.29,815.542 9016.81,816.786 9016.81,818.327C9016.81,819.872 9016.26,821.122 9015.18,822.077C9014.64,822.554 9014.07,822.886 9013.48,823.073C9012.92,823.259 9012.13,823.353 9011.11,823.353L9009.03,823.353ZM9010.55,821.927L9011.23,821.927C9011.91,821.927 9012.48,821.855 9012.93,821.712C9013.38,821.56 9013.79,821.319 9014.16,820.989C9014.9,820.308 9015.27,819.42 9015.27,818.327C9015.27,817.224 9014.91,816.33 9014.17,815.644C9013.5,815.032 9012.52,814.726 9011.23,814.726L9010.55,814.726L9010.55,821.927Z" style="fill-rule:nonzero;"/>
                    <path d="M9024.26,814.726L9020.23,814.726L9020.23,817.142L9024.14,817.142L9024.14,818.567L9020.23,818.567L9020.23,821.927L9024.26,821.927L9024.26,823.353L9018.71,823.353L9018.71,813.3L9024.26,813.3L9024.26,814.726Z" style="fill-rule:nonzero;"/>
                </g>
            </g>
        </g>
        <g id="Pop-Bumper">
            <g id="Bevel2">
                <path d="M1314.35,933.234L1319.28,931.3L1318.81,933.096L1314.1,934.839L1314.04,935.104L1318.02,936.14L1317.63,937.608L1307.91,935.078L1308.35,933.358C1308.69,932.072 1309.17,931.207 1309.8,930.761C1310.5,930.271 1311.3,930.14 1312.18,930.37C1312.87,930.549 1313.41,930.9 1313.8,931.424C1314.19,931.948 1314.38,932.551 1314.35,933.234ZM1312.76,934.771L1312.88,934.305C1313.24,932.915 1312.89,932.081 1311.83,931.805C1310.83,931.546 1310.16,932.093 1309.8,933.446L1309.67,933.968L1312.76,934.771Z" style="fill-rule:nonzero;"/>
                <path d="M1314.56,929.268C1313.19,928.912 1312.15,928.104 1311.43,926.844C1310.7,925.589 1310.53,924.26 1310.89,922.857C1311.25,921.471 1312.06,920.411 1313.3,919.677C1314.55,918.94 1315.87,918.752 1317.27,919.113C1318.66,919.477 1319.72,920.285 1320.43,921.538C1321.15,922.797 1321.33,924.136 1320.96,925.556C1320.63,926.812 1319.9,927.827 1318.77,928.6C1317.53,929.451 1316.12,929.673 1314.56,929.268ZM1314.97,927.792C1316.04,928.072 1317.02,927.94 1317.9,927.398C1318.78,926.86 1319.34,926.121 1319.59,925.18C1319.85,924.159 1319.73,923.206 1319.2,922.321C1318.67,921.434 1317.89,920.857 1316.87,920.591C1315.83,920.321 1314.87,920.441 1313.99,920.952C1313.1,921.457 1312.53,922.218 1312.26,923.235C1312,924.247 1312.13,925.194 1312.66,926.074C1313.17,926.953 1313.94,927.526 1314.97,927.792Z" style="fill-rule:nonzero;"/>
                <path d="M1313.25,914.531L1319.11,916.054C1319.94,916.272 1320.59,916.294 1321.05,916.122C1321.71,915.86 1322.14,915.359 1322.34,914.62C1322.53,913.876 1322.4,913.228 1321.95,912.675C1321.64,912.305 1321.07,912.009 1320.22,911.789L1314.36,910.265L1314.74,908.797L1321,910.426C1322.03,910.692 1322.79,911.231 1323.29,912.042C1323.84,912.953 1323.98,913.931 1323.71,914.977C1323.44,916.023 1322.84,916.807 1321.91,917.328C1321.08,917.794 1320.16,917.894 1319.13,917.627L1312.87,915.999L1313.25,914.531Z" style="fill-rule:nonzero;"/>
                <path d="M1317.42,904.14L1325.77,906.311L1325.39,907.779L1317.04,905.608L1316.46,907.845L1315.08,907.486L1316.62,901.551L1318.01,901.91L1317.42,904.14Z" style="fill-rule:nonzero;"/>
                <path d="M1319.74,895.231L1318.73,899.131L1321.07,899.739L1322.05,895.952L1323.43,896.311L1322.44,900.098L1325.7,900.943L1326.71,897.043L1328.09,897.402L1326.69,902.77L1316.97,900.24L1318.36,894.872L1319.74,895.231Z" style="fill-rule:nonzero;"/>
                <path d="M1328.91,891.359C1328.67,891.297 1328.49,891.158 1328.36,890.941C1328.24,890.724 1328.2,890.496 1328.27,890.257C1328.33,890.017 1328.47,889.834 1328.69,889.706C1328.9,889.579 1329.13,889.546 1329.37,889.609C1329.61,889.672 1329.8,889.812 1329.93,890.029C1330.05,890.241 1330.08,890.468 1330.02,890.712C1329.95,890.96 1329.82,891.146 1329.6,891.27C1329.39,891.395 1329.16,891.424 1328.91,891.359Z" style="fill-rule:nonzero;"/>
                <path d="M1325.58,886.846C1324.03,886.443 1322.88,885.76 1322.15,884.797C1321.48,883.933 1321.26,883.04 1321.5,882.121C1321.74,881.201 1322.36,880.526 1323.37,880.096C1324.48,879.614 1325.83,879.58 1327.42,879.994C1329.01,880.407 1330.17,881.095 1330.91,882.058C1331.58,882.922 1331.79,883.812 1331.55,884.728C1331.32,885.643 1330.69,886.32 1329.69,886.758C1328.58,887.24 1327.2,887.269 1325.58,886.846ZM1325.96,885.404C1327.04,885.685 1327.98,885.731 1328.79,885.543C1329.59,885.352 1330.07,884.966 1330.22,884.387C1330.37,883.811 1330.14,883.243 1329.54,882.683C1328.94,882.123 1328.11,881.705 1327.04,881.429C1325.98,881.153 1325.05,881.112 1324.25,881.308C1323.45,881.505 1322.98,881.891 1322.83,882.466C1322.68,883.038 1322.91,883.603 1323.51,884.162C1324.1,884.721 1324.92,885.135 1325.96,885.404Z" style="fill-rule:nonzero;"/>
                <path d="M1325.84,871.752L1325.06,874.751L1326.55,875.65C1326.56,875.576 1326.57,875.506 1326.58,875.44C1326.6,875.374 1326.61,875.313 1326.62,875.259C1326.87,874.314 1327.39,873.622 1328.19,873.183C1328.98,872.739 1329.87,872.646 1330.86,872.903C1331.89,873.17 1332.64,873.734 1333.13,874.595C1333.61,875.457 1333.72,876.411 1333.44,877.456C1333.11,878.746 1332.24,879.605 1330.84,880.034L1330.19,878.681C1330.79,878.51 1331.24,878.297 1331.53,878.042C1331.82,877.785 1332.03,877.433 1332.14,876.983C1332.3,876.395 1332.22,875.848 1331.91,875.342C1331.59,874.832 1331.13,874.499 1330.52,874.342C1329.9,874.18 1329.34,874.245 1328.84,874.538C1328.33,874.826 1328,875.267 1327.85,875.859C1327.67,876.519 1327.82,877.163 1328.27,877.791L1328.14,878.276L1323.42,875.415L1324.47,871.395L1325.84,871.752Z" style="fill-rule:nonzero;"/>
                <path d="M1329.72,870.917C1328.17,870.514 1327.02,869.831 1326.29,868.868C1325.62,868.004 1325.41,867.112 1325.64,866.192C1325.88,865.272 1326.51,864.597 1327.51,864.168C1328.62,863.686 1329.97,863.652 1331.57,864.066C1333.15,864.478 1334.32,865.166 1335.05,866.129C1335.72,866.993 1335.93,867.883 1335.7,868.799C1335.46,869.715 1334.84,870.392 1333.83,870.83C1332.72,871.312 1331.35,871.341 1329.72,870.917ZM1330.1,869.476C1331.18,869.757 1332.12,869.803 1332.93,869.615C1333.73,869.423 1334.21,869.038 1334.36,868.458C1334.51,867.883 1334.28,867.315 1333.68,866.754C1333.08,866.195 1332.25,865.777 1331.19,865.5C1330.12,865.224 1329.19,865.184 1328.39,865.379C1327.6,865.576 1327.12,865.962 1326.97,866.538C1326.83,867.109 1327.05,867.674 1327.65,868.234C1328.25,868.792 1329.06,869.206 1330.1,869.476Z" style="fill-rule:nonzero;"/>
                <path d="M1330.26,854.779L1338.61,856.95L1338.23,858.418L1329.88,856.247L1329.3,858.484L1327.92,858.125L1329.46,852.19L1330.84,852.549L1330.26,854.779Z" style="fill-rule:nonzero;"/>
                <path d="M1334.42,852.927C1333.05,852.571 1332,851.763 1331.28,850.503C1330.56,849.248 1330.38,847.919 1330.74,846.516C1331.1,845.13 1331.91,844.07 1333.16,843.336C1334.41,842.598 1335.73,842.41 1337.12,842.772C1338.52,843.136 1339.57,843.944 1340.29,845.197C1341.01,846.456 1341.18,847.795 1340.81,849.215C1340.48,850.471 1339.76,851.485 1338.62,852.259C1337.38,853.109 1335.97,853.332 1334.42,852.927ZM1334.82,851.451C1335.89,851.731 1336.87,851.599 1337.75,851.057C1338.63,850.519 1339.2,849.779 1339.44,848.839C1339.71,847.818 1339.58,846.865 1339.05,845.98C1338.52,845.093 1337.74,844.516 1336.72,844.249C1335.68,843.98 1334.72,844.1 1333.84,844.611C1332.95,845.116 1332.38,845.877 1332.12,846.894C1331.85,847.906 1331.98,848.852 1332.51,849.733C1333.02,850.612 1333.8,851.184 1334.82,851.451Z" style="fill-rule:nonzero;"/>
                <path d="M1338.88,839.692L1342.83,840.719L1342.45,842.187L1332.72,839.658L1333.15,837.994C1333.37,837.179 1333.58,836.579 1333.8,836.192C1334.03,835.802 1334.34,835.488 1334.73,835.25C1335.42,834.834 1336.19,834.734 1337.02,834.95C1337.91,835.181 1338.54,835.663 1338.9,836.395C1339.27,837.127 1339.32,837.999 1339.06,839.011L1338.88,839.692ZM1337.52,839.338L1337.66,838.79C1338.01,837.441 1337.67,836.632 1336.63,836.363C1335.63,836.102 1334.94,836.666 1334.58,838.057L1334.46,838.542L1337.52,839.338Z" style="fill-rule:nonzero;"/>
                <path d="M1349.07,828.864C1340.58,844.702 1364.37,857.436 1372.84,841.58C1381.33,825.742 1357.54,813.008 1349.07,828.869L1349.07,828.864ZM1355.03,832.05C1350.8,839.947 1362.66,846.291 1366.88,838.39C1371.11,830.502 1359.25,824.157 1355.04,832.055L1355.03,832.05Z" style="fill:rgb(47,47,47);fill-opacity:0.509804;"/>
                <path d="M1317.53,944.402C1309.04,960.244 1332.83,972.978 1341.29,957.122C1349.79,941.284 1326,928.55 1317.53,944.402ZM1323.48,947.597C1319.26,955.49 1331.11,961.829 1335.33,953.932C1339.56,946.039 1327.7,939.7 1323.49,947.597L1323.48,947.597Z" style="fill:rgb(47,47,47);fill-opacity:0.509804;"/>
                <path d="M1416.68,1011.59C1408.19,1027.43 1431.98,1040.17 1440.45,1024.31C1448.94,1008.47 1425.15,995.738 1416.68,1011.59L1416.68,1011.59ZM1422.64,1014.78C1418.41,1022.67 1430.26,1029.02 1434.49,1021.12C1438.71,1013.23 1426.86,1006.88 1422.65,1014.78L1422.64,1014.78Z" style="fill:rgb(47,47,47);fill-opacity:0.509804;"/>
            </g>
        </g>
        <g id="Pop-Bumper1">
            <g id="Bevel3">
                <path d="M1485.65,1332.12L1488.38,1327.59L1489.11,1329.29L1486.44,1333.54L1486.55,1333.8L1490.34,1332.19L1490.93,1333.58L1481.68,1337.51L1480.98,1335.88C1480.46,1334.66 1480.32,1333.68 1480.55,1332.94C1480.8,1332.12 1481.35,1331.53 1482.19,1331.18C1482.85,1330.9 1483.49,1330.85 1484.12,1331.02C1484.75,1331.2 1485.26,1331.57 1485.65,1332.12ZM1485.33,1334.31L1485.14,1333.87C1484.58,1332.55 1483.8,1332.1 1482.79,1332.53C1481.84,1332.93 1481.64,1333.78 1482.19,1335.06L1482.4,1335.56L1485.33,1334.31Z" style="fill-rule:nonzero;"/>
                <path d="M1483.41,1328.85C1482.11,1329.4 1480.78,1329.4 1479.44,1328.84C1478.11,1328.29 1477.15,1327.35 1476.59,1326.01C1476.03,1324.69 1476.02,1323.36 1476.56,1322.02C1477.1,1320.67 1478.03,1319.72 1479.35,1319.16C1480.68,1318.59 1482.01,1318.59 1483.34,1319.14C1484.68,1319.7 1485.63,1320.66 1486.21,1322.01C1486.72,1323.2 1486.76,1324.45 1486.34,1325.75C1485.87,1327.19 1484.89,1328.22 1483.41,1328.85ZM1482.83,1327.43C1483.85,1327 1484.55,1326.3 1484.91,1325.33C1485.28,1324.37 1485.28,1323.44 1484.89,1322.54C1484.48,1321.57 1483.8,1320.9 1482.84,1320.52C1481.88,1320.14 1480.91,1320.15 1479.94,1320.57C1478.95,1320.99 1478.27,1321.67 1477.88,1322.61C1477.49,1323.55 1477.49,1324.51 1477.9,1325.47C1478.31,1326.43 1479,1327.11 1479.95,1327.48C1480.89,1327.86 1481.85,1327.85 1482.83,1327.43Z" style="fill-rule:nonzero;"/>
                <path d="M1473.38,1317.98L1478.95,1315.61C1479.74,1315.27 1480.27,1314.89 1480.53,1314.48C1480.89,1313.86 1480.93,1313.2 1480.63,1312.5C1480.33,1311.8 1479.83,1311.36 1479.13,1311.2C1478.67,1311.09 1478.03,1311.21 1477.22,1311.55L1471.65,1313.92L1471.06,1312.52L1477.01,1309.99C1477.99,1309.58 1478.92,1309.54 1479.81,1309.88C1480.8,1310.26 1481.51,1310.95 1481.93,1311.95C1482.36,1312.94 1482.36,1313.93 1481.95,1314.91C1481.57,1315.78 1480.9,1316.43 1479.92,1316.84L1473.97,1319.37L1473.38,1317.98Z" style="fill-rule:nonzero;"/>
                <path d="M1470.34,1307.19L1478.28,1303.82L1478.88,1305.22L1470.94,1308.59L1471.84,1310.72L1470.53,1311.28L1468.13,1305.63L1469.44,1305.07L1470.34,1307.19Z" style="fill-rule:nonzero;"/>
                <path d="M1466.74,1298.72L1468.32,1302.43L1470.54,1301.49L1469.01,1297.88L1470.33,1297.33L1471.86,1300.93L1474.95,1299.62L1473.37,1295.91L1474.68,1295.35L1476.85,1300.45L1467.6,1304.38L1465.43,1299.28L1466.74,1298.72Z" style="fill-rule:nonzero;"/>
                <path d="M1471.64,1290.06C1471.42,1290.16 1471.19,1290.16 1470.96,1290.06C1470.73,1289.97 1470.56,1289.81 1470.46,1289.58C1470.37,1289.35 1470.37,1289.12 1470.46,1288.89C1470.55,1288.65 1470.71,1288.49 1470.94,1288.39C1471.17,1288.3 1471.41,1288.29 1471.64,1288.39C1471.87,1288.48 1472.03,1288.64 1472.13,1288.87C1472.23,1289.11 1472.23,1289.34 1472.14,1289.57C1472.05,1289.8 1471.88,1289.96 1471.64,1290.06Z" style="fill-rule:nonzero;"/>
                <path d="M1466.25,1288.52C1464.78,1289.15 1463.45,1289.3 1462.28,1288.99C1461.23,1288.71 1460.51,1288.13 1460.14,1287.26C1459.77,1286.38 1459.85,1285.47 1460.38,1284.52C1460.97,1283.46 1462.02,1282.61 1463.54,1281.96C1465.05,1281.32 1466.38,1281.16 1467.56,1281.47C1468.61,1281.75 1469.33,1282.32 1469.69,1283.19C1470.07,1284.06 1469.99,1284.98 1469.45,1285.94C1468.87,1287 1467.8,1287.86 1466.25,1288.52ZM1465.67,1287.14C1466.7,1286.71 1467.48,1286.17 1468.01,1285.52C1468.52,1284.88 1468.66,1284.29 1468.43,1283.74C1468.19,1283.19 1467.67,1282.88 1466.85,1282.8C1466.03,1282.73 1465.12,1282.9 1464.11,1283.33C1463.1,1283.76 1462.34,1284.3 1461.82,1284.94C1461.31,1285.58 1461.17,1286.18 1461.4,1286.72C1461.64,1287.27 1462.16,1287.58 1462.98,1287.65C1463.79,1287.73 1464.69,1287.56 1465.67,1287.14Z" style="fill-rule:nonzero;"/>
                <path d="M1457.25,1276.4L1458.46,1279.25L1460.19,1279.05C1460.15,1278.99 1460.12,1278.93 1460.09,1278.87C1460.06,1278.81 1460.03,1278.75 1460.01,1278.7C1459.63,1277.8 1459.62,1276.93 1459.98,1276.1C1460.34,1275.27 1460.99,1274.65 1461.93,1274.25C1462.91,1273.83 1463.85,1273.82 1464.76,1274.21C1465.67,1274.59 1466.33,1275.28 1466.76,1276.28C1467.28,1277.51 1467.11,1278.72 1466.26,1279.91L1464.92,1279.24C1465.29,1278.74 1465.52,1278.29 1465.6,1277.91C1465.67,1277.53 1465.62,1277.13 1465.44,1276.7C1465.2,1276.14 1464.8,1275.75 1464.25,1275.54C1463.69,1275.33 1463.12,1275.35 1462.54,1275.59C1461.95,1275.85 1461.55,1276.24 1461.33,1276.77C1461.1,1277.31 1461.11,1277.87 1461.35,1278.43C1461.61,1279.06 1462.12,1279.48 1462.86,1279.7L1463.05,1280.16L1457.57,1280.78L1455.94,1276.95L1457.25,1276.4Z" style="fill-rule:nonzero;"/>
                <path d="M1459.81,1273.37C1458.34,1274 1457.02,1274.15 1455.85,1273.84C1454.79,1273.56 1454.08,1272.99 1453.7,1272.11C1453.33,1271.24 1453.41,1270.32 1453.95,1269.37C1454.53,1268.31 1455.58,1267.46 1457.1,1266.82C1458.61,1266.17 1459.95,1266.01 1461.12,1266.32C1462.18,1266.6 1462.89,1267.17 1463.26,1268.05C1463.63,1268.92 1463.55,1269.83 1463.02,1270.79C1462.43,1271.85 1461.36,1272.71 1459.81,1273.37ZM1459.24,1272C1460.26,1271.56 1461.04,1271.02 1461.57,1270.38C1462.08,1269.74 1462.23,1269.14 1461.99,1268.59C1461.76,1268.04 1461.23,1267.73 1460.41,1267.66C1459.6,1267.58 1458.68,1267.76 1457.67,1268.18C1456.66,1268.61 1455.9,1269.15 1455.38,1269.79C1454.88,1270.43 1454.74,1271.03 1454.97,1271.58C1455.2,1272.12 1455.72,1272.43 1456.54,1272.51C1457.35,1272.59 1458.25,1272.42 1459.24,1272Z" style="fill-rule:nonzero;"/>
                <path d="M1450.4,1260.25L1458.34,1256.88L1458.93,1258.28L1450.99,1261.65L1451.9,1263.78L1450.58,1264.34L1448.18,1258.69L1449.5,1258.13L1450.4,1260.25Z" style="fill-rule:nonzero;"/>
                <path d="M1452.56,1256.25C1451.26,1256.81 1449.94,1256.8 1448.6,1256.25C1447.26,1255.69 1446.31,1254.75 1445.74,1253.41C1445.18,1252.1 1445.17,1250.76 1445.71,1249.42C1446.25,1248.07 1447.18,1247.12 1448.51,1246.56C1449.84,1245.99 1451.16,1245.99 1452.5,1246.55C1453.83,1247.1 1454.79,1248.06 1455.36,1249.41C1455.87,1250.6 1455.91,1251.85 1455.49,1253.15C1455.02,1254.59 1454.04,1255.62 1452.56,1256.25ZM1451.98,1254.84C1453,1254.4 1453.7,1253.7 1454.06,1252.73C1454.43,1251.77 1454.43,1250.84 1454.05,1249.95C1453.63,1248.98 1452.95,1248.3 1452,1247.92C1451.03,1247.54 1450.07,1247.56 1449.09,1247.97C1448.1,1248.39 1447.42,1249.07 1447.03,1250.01C1446.64,1250.95 1446.65,1251.91 1447.06,1252.87C1447.47,1253.84 1448.15,1254.51 1449.1,1254.88C1450.05,1255.27 1451.01,1255.25 1451.98,1254.84Z" style="fill-rule:nonzero;"/>
                <path d="M1448.02,1243.04L1451.78,1241.44L1452.37,1242.84L1443.12,1246.77L1442.45,1245.19C1442.12,1244.42 1441.92,1243.81 1441.87,1243.37C1441.8,1242.92 1441.86,1242.48 1442.03,1242.05C1442.32,1241.3 1442.86,1240.76 1443.65,1240.42C1444.5,1240.06 1445.29,1240.06 1446.03,1240.41C1446.77,1240.77 1447.34,1241.43 1447.75,1242.39L1448.02,1243.04ZM1446.73,1243.59L1446.51,1243.07C1445.96,1241.79 1445.2,1241.36 1444.21,1241.78C1443.26,1242.18 1443.06,1243.05 1443.62,1244.37L1443.82,1244.83L1446.73,1243.59Z" style="fill-rule:nonzero;"/>
                <path d="M1449.49,1228.25C1452.43,1245.97 1479.05,1241.55 1476.08,1223.82C1473.15,1206.09 1446.53,1210.51 1449.49,1228.25L1449.49,1228.25ZM1456.16,1227.13C1457.62,1235.97 1470.89,1233.76 1469.41,1224.93C1467.95,1216.1 1454.68,1218.31 1456.16,1227.13L1456.16,1227.13Z" style="fill:rgb(47,47,47);fill-opacity:0.509804;"/>
                <path d="M1494.99,1339.03C1497.93,1356.77 1524.55,1352.34 1521.58,1334.61C1518.65,1316.88 1492.03,1321.31 1494.99,1339.03ZM1501.66,1337.93C1503.12,1346.76 1516.38,1344.55 1514.91,1335.72C1513.44,1326.89 1500.18,1329.1 1501.66,1337.92L1501.66,1337.93Z" style="fill:rgb(47,47,47);fill-opacity:0.509804;"/>
                <path d="M1614.54,1331.77C1617.48,1349.5 1644.1,1345.08 1641.13,1327.35C1638.19,1309.62 1611.58,1314.05 1614.55,1331.77L1614.54,1331.77ZM1621.21,1330.66C1622.68,1339.5 1635.94,1337.29 1634.46,1328.46C1633,1319.63 1619.74,1321.83 1621.22,1330.66L1621.21,1330.66Z" style="fill:rgb(47,47,47);fill-opacity:0.509804;"/>
            </g>
        </g>
        <g id="Pop-Bumper2">
            <g id="Bevel4">
                <path d="M1850.9,856.868L1849.11,861.853L1848.07,860.32L1849.85,855.629L1849.69,855.404L1846.3,857.722L1845.44,856.469L1853.75,850.805L1854.75,852.273C1855.5,853.37 1855.83,854.303 1855.75,855.072C1855.66,855.923 1855.24,856.605 1854.48,857.119C1853.89,857.52 1853.27,857.696 1852.62,857.648C1851.97,857.599 1851.39,857.339 1850.9,856.868ZM1850.79,854.659L1851.06,855.057C1851.87,856.244 1852.73,856.528 1853.63,855.909C1854.48,855.329 1854.52,854.462 1853.73,853.308L1853.42,852.861L1850.79,854.659Z" style="fill-rule:nonzero;"/>
                <path d="M1853.74,859.64C1854.91,858.843 1856.21,858.587 1857.63,858.872C1859.05,859.153 1860.17,859.892 1860.99,861.09C1861.8,862.273 1862.07,863.576 1861.8,865C1861.53,866.427 1860.8,867.545 1859.62,868.354C1858.42,869.169 1857.12,869.433 1855.7,869.147C1854.28,868.86 1853.16,868.11 1852.33,866.898C1851.6,865.826 1851.32,864.61 1851.48,863.251C1851.66,861.751 1852.41,860.548 1853.74,859.64ZM1854.59,860.915C1853.67,861.541 1853.13,862.365 1852.96,863.385C1852.78,864.402 1852.97,865.311 1853.52,866.115C1854.11,866.986 1854.91,867.516 1855.92,867.704C1856.94,867.887 1857.89,867.68 1858.77,867.083C1859.65,866.479 1860.19,865.677 1860.39,864.677C1860.59,863.678 1860.39,862.745 1859.8,861.877C1859.21,861.013 1858.41,860.488 1857.4,860.304C1856.4,860.115 1855.46,860.319 1854.59,860.915Z" style="fill-rule:nonzero;"/>
                <path d="M1865.71,868.344L1860.71,871.756C1859.99,872.242 1859.55,872.715 1859.38,873.173C1859.14,873.846 1859.24,874.498 1859.67,875.129C1860.1,875.764 1860.67,876.092 1861.39,876.115C1861.86,876.13 1862.47,875.891 1863.19,875.397L1868.19,871.985L1869.05,873.238L1863.7,876.885C1862.83,877.482 1861.92,877.701 1860.98,877.542C1859.93,877.359 1859.1,876.822 1858.49,875.929C1857.88,875.036 1857.69,874.069 1857.9,873.029C1858.1,872.098 1858.63,871.334 1859.51,870.737L1864.85,867.091L1865.71,868.344Z" style="fill-rule:nonzero;"/>
                <path d="M1870.79,878.323L1863.66,883.184L1862.81,881.931L1869.93,877.07L1868.63,875.161L1869.81,874.357L1873.27,879.424L1872.09,880.227L1870.79,878.323Z" style="fill-rule:nonzero;"/>
                <path d="M1875.98,885.928L1873.7,882.599L1871.71,883.96L1873.91,887.193L1872.74,887.996L1870.53,884.763L1867.76,886.656L1870.03,889.986L1868.85,890.789L1865.72,886.207L1874.03,880.542L1877.15,885.125L1875.98,885.928Z" style="fill-rule:nonzero;"/>
                <path d="M1872.86,895.38C1873.06,895.243 1873.29,895.198 1873.54,895.245C1873.78,895.292 1873.98,895.417 1874.12,895.622C1874.26,895.826 1874.3,896.052 1874.26,896.299C1874.21,896.546 1874.08,896.74 1873.88,896.879C1873.67,897.021 1873.44,897.068 1873.19,897.022C1872.95,896.976 1872.76,896.849 1872.62,896.641C1872.48,896.43 1872.43,896.203 1872.47,895.962C1872.52,895.721 1872.65,895.527 1872.86,895.38Z" style="fill-rule:nonzero;"/>
                <path d="M1878.45,895.837C1879.78,894.935 1881.05,894.523 1882.25,894.602C1883.34,894.667 1884.16,895.093 1884.69,895.878C1885.23,896.663 1885.33,897.575 1884.99,898.614C1884.62,899.769 1883.76,900.81 1882.4,901.737C1881.05,902.661 1879.76,903.084 1878.55,903.005C1877.46,902.94 1876.65,902.516 1876.12,901.735C1875.59,900.953 1875.48,900.039 1875.82,898.993C1876.18,897.838 1877.06,896.786 1878.45,895.837ZM1879.29,897.073C1878.37,897.701 1877.71,898.383 1877.32,899.118C1876.94,899.845 1876.92,900.457 1877.25,900.951C1877.59,901.443 1878.17,901.645 1878.99,901.56C1879.8,901.476 1880.66,901.125 1881.57,900.507C1882.48,899.888 1883.12,899.213 1883.5,898.482C1883.87,897.753 1883.89,897.143 1883.56,896.652C1883.23,896.164 1882.65,895.962 1881.84,896.045C1881.02,896.126 1880.18,896.469 1879.29,897.073Z" style="fill-rule:nonzero;"/>
                <path d="M1889.65,905.965L1887.9,903.405L1886.25,903.935C1886.3,903.991 1886.34,904.046 1886.38,904.099C1886.42,904.152 1886.46,904.202 1886.49,904.249C1887.04,905.055 1887.22,905.903 1887.03,906.791C1886.84,907.68 1886.33,908.413 1885.48,908.99C1884.61,909.587 1883.68,909.785 1882.72,909.583C1881.75,909.381 1880.96,908.834 1880.35,907.941C1879.6,906.841 1879.53,905.621 1880.12,904.282L1881.57,904.682C1881.31,905.247 1881.17,905.724 1881.17,906.114C1881.17,906.502 1881.3,906.888 1881.57,907.271C1881.91,907.773 1882.37,908.075 1882.95,908.176C1883.55,908.269 1884.1,908.14 1884.62,907.788C1885.15,907.426 1885.47,906.961 1885.58,906.394C1885.69,905.82 1885.58,905.28 1885.24,904.775C1884.85,904.212 1884.28,903.893 1883.51,903.82L1883.22,903.406L1888.48,901.734L1890.82,905.165L1889.65,905.965Z" style="fill-rule:nonzero;"/>
                <path d="M1887.73,909.434C1889.05,908.532 1890.32,908.12 1891.53,908.199C1892.62,908.264 1893.43,908.69 1893.97,909.475C1894.5,910.26 1894.6,911.172 1894.27,912.211C1893.9,913.366 1893.03,914.407 1891.67,915.334C1890.32,916.258 1889.04,916.681 1887.83,916.602C1886.74,916.537 1885.92,916.113 1885.39,915.331C1884.86,914.55 1884.76,913.636 1885.09,912.59C1885.46,911.435 1886.34,910.383 1887.73,909.434ZM1888.56,910.67C1887.64,911.298 1886.99,911.98 1886.59,912.715C1886.21,913.442 1886.19,914.053 1886.53,914.548C1886.86,915.04 1887.44,915.242 1888.26,915.157C1889.07,915.073 1889.94,914.722 1890.84,914.104C1891.75,913.485 1892.39,912.81 1892.77,912.079C1893.15,911.35 1893.17,910.74 1892.83,910.249C1892.5,909.761 1891.92,909.559 1891.11,909.642C1890.3,909.723 1889.45,910.066 1888.56,910.67Z" style="fill-rule:nonzero;"/>
                <path d="M1899.53,920.458L1892.4,925.319L1891.55,924.066L1898.67,919.205L1897.37,917.296L1898.55,916.492L1902,921.559L1900.83,922.362L1899.53,920.458Z" style="fill-rule:nonzero;"/>
                <path d="M1898.19,924.806C1899.36,924.009 1900.65,923.753 1902.08,924.037C1903.5,924.319 1904.62,925.058 1905.44,926.256C1906.24,927.439 1906.51,928.742 1906.24,930.166C1905.98,931.592 1905.25,932.711 1904.06,933.52C1902.87,934.335 1901.56,934.599 1900.15,934.313C1898.73,934.026 1897.61,933.276 1896.78,932.064C1896.05,930.992 1895.76,929.776 1895.92,928.417C1896.1,926.917 1896.86,925.714 1898.19,924.806ZM1899.04,926.081C1898.12,926.707 1897.57,927.53 1897.4,928.551C1897.23,929.567 1897.42,930.477 1897.96,931.281C1898.56,932.152 1899.36,932.681 1900.37,932.869C1901.39,933.052 1902.34,932.846 1903.21,932.249C1904.1,931.645 1904.64,930.843 1904.83,929.843C1905.03,928.844 1904.84,927.911 1904.25,927.043C1903.66,926.179 1902.86,925.654 1901.85,925.47C1900.85,925.281 1899.91,925.485 1899.04,926.081Z" style="fill-rule:nonzero;"/>
                <path d="M1905.22,936.874L1901.85,939.174L1901,937.921L1909.3,932.257L1910.27,933.677C1910.74,934.372 1911.05,934.931 1911.2,935.352C1911.35,935.776 1911.38,936.216 1911.3,936.672C1911.15,937.467 1910.73,938.107 1910.02,938.591C1909.26,939.109 1908.48,939.266 1907.69,939.06C1906.9,938.854 1906.21,938.319 1905.62,937.455L1905.22,936.874ZM1906.38,936.081L1906.7,936.549C1907.49,937.7 1908.32,937.974 1909.21,937.37C1910.07,936.785 1910.09,935.9 1909.28,934.713L1909,934.299L1906.38,936.081Z" style="fill-rule:nonzero;"/>
                <path d="M1906.68,951.668C1900.33,934.859 1875.09,944.405 1881.47,961.211C1887.81,978.026 1913.05,968.481 1906.67,951.668L1906.68,951.668ZM1900.36,954.067C1897.19,945.685 1884.61,950.445 1887.79,958.818C1890.95,967.194 1903.53,962.435 1900.35,954.067L1900.36,954.067Z" style="fill:rgb(47,47,47);fill-opacity:0.509804;"/>
                <path d="M1840.4,851.917C1834.05,835.103 1808.81,844.648 1815.18,861.454C1821.52,878.269 1846.76,868.724 1840.4,851.917ZM1834.07,854.303C1830.9,845.929 1818.33,850.687 1821.51,859.061C1824.67,867.436 1837.24,862.678 1834.06,854.311L1834.07,854.303Z" style="fill:rgb(47,47,47);fill-opacity:0.509804;"/>
                <path d="M1724.57,882.413C1718.22,865.598 1692.98,875.143 1699.36,891.949C1705.7,908.764 1730.94,899.219 1724.56,882.413L1724.57,882.413ZM1718.25,884.805C1715.08,876.431 1702.51,881.183 1705.68,889.557C1708.85,897.932 1721.42,893.18 1718.24,884.806L1718.25,884.805Z" style="fill:rgb(47,47,47);fill-opacity:0.509804;"/>
            </g>
        </g>
        <g id="Eject-Path">
            <g id="Bevel5">
                <path d="M453.106,2360.55C457.726,2360.64 462.299,2361.42 466.661,2362.95C473.593,2365.4 479.836,2369.66 484.648,2375.22C488.125,2379.23 490.84,2383.89 492.604,2388.9C494.198,2393.42 494.976,2398.17 495.01,2402.96L495.01,2570.11C514.803,2600.91 535.163,2631.36 554.378,2662.53C554.731,2663.12 558.849,2670.09 561.311,2675.05C563.456,2679.36 565.176,2683.89 566.418,2688.55C569.286,2699.3 569.601,2710.69 567.372,2721.59C566.125,2727.69 564.078,2733.63 561.299,2739.2C558.325,2745.16 554.517,2750.7 550.022,2755.62C544.775,2761.37 538.603,2766.26 531.807,2770.05C524.629,2774.04 516.773,2776.8 508.668,2778.14C499.648,2779.64 490.344,2779.4 481.411,2777.45C472.034,2775.4 463.099,2771.45 455.268,2765.91C449.133,2761.56 443.687,2756.26 439.18,2750.24C437.371,2747.82 432.85,2740.77 432.525,2740.28C407.147,2701.38 382.093,2662.25 357.193,2623.03C356.404,2621.76 355.667,2620.45 355.009,2619.1C354.603,2618.27 354.235,2617.42 353.877,2616.57C352.718,2613.81 351.814,2610.96 351.239,2608.03C350.746,2605.51 350.501,2602.96 350.452,2600.4C350.116,2551.17 350.109,2451.68 350.452,2402.45C350.542,2397.66 351.378,2392.91 353.031,2388.4C354.973,2383.11 357.982,2378.22 361.827,2374.09C366.486,2369.08 372.346,2365.23 378.796,2362.95C383.158,2361.42 387.732,2360.64 392.352,2360.55C412.603,2360.41 432.855,2360.41 453.106,2360.55ZM392.9,2373.17C389.524,2373.19 386.178,2373.74 382.991,2374.86C378.91,2376.3 375.161,2378.64 372.066,2381.66C368.886,2384.77 366.411,2388.58 364.882,2392.75C363.721,2395.91 363.137,2399.25 363.073,2402.62C362.761,2451.87 362.125,2551.38 363.081,2600.63C363.139,2602.43 363.333,2604.21 363.701,2605.97C364.111,2607.93 364.734,2609.82 365.509,2611.67C366.189,2613.29 366.968,2614.84 367.892,2616.34C392.789,2655.59 417.361,2695.07 443.281,2733.66C443.591,2734.11 448.323,2741.44 449.845,2743.41C453.644,2748.32 458.209,2752.63 463.331,2756.14C469.866,2760.62 477.29,2763.76 485.056,2765.32C492.376,2766.79 499.975,2766.88 507.325,2765.57C513.982,2764.37 520.421,2762.03 526.288,2758.66C531.86,2755.47 536.908,2751.38 541.181,2746.58C545.001,2742.3 548.198,2737.46 550.634,2732.26C552.71,2727.83 554.23,2723.14 555.151,2718.33C556.943,2708.97 556.469,2699.2 553.731,2690.07C552.025,2684.38 545.467,2672.45 545.219,2671.91C544.962,2671.37 543.21,2668.48 543.21,2668.48L482.388,2573.81C482.388,2533.37 483.147,2442.67 482.378,2402.23C482.275,2398.99 481.692,2395.79 480.576,2392.75C479.088,2388.69 476.705,2384.97 473.647,2381.91C470.589,2378.86 466.871,2376.47 462.81,2374.98C459.644,2373.82 456.312,2373.24 452.944,2373.17C432.929,2373.05 412.914,2373.17 392.9,2373.17Z" style="fill:rgb(85,85,85);fill-rule:nonzero;stroke:black;stroke-width:0.53px;stroke-linejoin:round;stroke-miterlimit:1.41421;"/>
                <g transform="matrix(0.43323,0.689137,-0.689137,0.43323,-2960.12,-3848.07)">
                    <path d="M8924.18,795.892L8924.18,785.84L8925.69,785.84C8926.37,785.84 8926.9,785.892 8927.3,785.996C8927.71,786.1 8928.05,786.276 8928.33,786.523C8928.61,786.779 8928.83,787.098 8929,787.48C8929.17,787.866 8929.25,788.257 8929.25,788.652C8929.25,789.373 8928.97,789.982 8928.42,790.481C8928.96,790.664 8929.38,790.983 8929.68,791.438C8930,791.89 8930.15,792.415 8930.15,793.014C8930.15,793.8 8929.88,794.464 8929.32,795.006C8928.99,795.34 8928.61,795.573 8928.19,795.703C8927.74,795.829 8927.17,795.892 8926.48,795.892L8924.18,795.892ZM8925.7,790.156L8926.18,790.156C8926.74,790.156 8927.15,790.031 8927.42,789.782C8927.68,789.532 8927.81,789.164 8927.81,788.678C8927.81,788.205 8927.68,787.846 8927.41,787.601C8927.14,787.355 8926.75,787.233 8926.24,787.233L8925.7,787.233L8925.7,790.156ZM8925.7,794.466L8926.64,794.466C8927.32,794.466 8927.83,794.331 8928.15,794.062C8928.49,793.771 8928.66,793.402 8928.66,792.955C8928.66,792.521 8928.49,792.157 8928.17,791.862C8927.85,791.571 8927.28,791.425 8926.47,791.425L8925.7,791.425L8925.7,794.466Z" style="fill-rule:nonzero;"/>
                    <path d="M8937.61,787.265L8933.59,787.265L8933.59,789.681L8937.5,789.681L8937.5,791.106L8933.59,791.106L8933.59,794.466L8937.61,794.466L8937.61,795.892L8932.07,795.892L8932.07,785.84L8937.61,785.84L8937.61,787.265Z" style="fill-rule:nonzero;"/>
                    <path d="M8940.11,785.84L8942.9,792.806L8945.71,785.84L8947.37,785.84L8942.86,796.647L8938.45,785.84L8940.11,785.84Z" style="fill-rule:nonzero;"/>
                    <path d="M8954.17,787.265L8950.14,787.265L8950.14,789.681L8954.05,789.681L8954.05,791.106L8950.14,791.106L8950.14,794.466L8954.17,794.466L8954.17,795.892L8948.62,795.892L8948.62,785.84L8954.17,785.84L8954.17,787.265Z" style="fill-rule:nonzero;"/>
                    <path d="M8957.68,785.84L8957.68,794.466L8960.64,794.466L8960.64,795.892L8956.16,795.892L8956.16,785.84L8957.68,785.84Z" style="fill-rule:nonzero;"/>
                    <path d="M8971.74,787.265L8967.71,787.265L8967.71,789.681L8971.62,789.681L8971.62,791.106L8967.71,791.106L8967.71,794.466L8971.74,794.466L8971.74,795.892L8966.19,795.892L8966.19,785.84L8971.74,785.84L8971.74,787.265Z" style="fill-rule:nonzero;"/>
                    <path d="M8973.73,795.892L8973.73,785.84L8975.84,785.84C8976.85,785.84 8977.65,785.939 8978.23,786.139C8978.86,786.334 8979.43,786.666 8979.95,787.135C8980.98,788.081 8981.5,789.325 8981.5,790.866C8981.5,792.411 8980.96,793.661 8979.88,794.616C8979.34,795.093 8978.77,795.425 8978.18,795.612C8977.62,795.798 8976.83,795.892 8975.81,795.892L8973.73,795.892ZM8975.25,794.466L8975.93,794.466C8976.61,794.466 8977.18,794.394 8977.63,794.251C8978.08,794.099 8978.49,793.858 8978.85,793.528C8979.6,792.847 8979.97,791.959 8979.97,790.866C8979.97,789.763 8979.6,788.869 8978.86,788.183C8978.2,787.571 8977.22,787.265 8975.93,787.265L8975.25,787.265L8975.25,794.466Z" style="fill-rule:nonzero;"/>
                    <path d="M8988.58,790.657L8992.73,790.657L8992.73,790.989C8992.73,791.744 8992.64,792.413 8992.47,792.994C8992.29,793.533 8992,794.036 8991.59,794.505C8990.65,795.555 8989.47,796.08 8988.02,796.08C8986.62,796.08 8985.42,795.573 8984.41,794.557C8983.41,793.537 8982.91,792.313 8982.91,790.885C8982.91,789.427 8983.42,788.19 8984.44,787.174C8985.46,786.154 8986.7,785.644 8988.16,785.644C8988.95,785.644 8989.68,785.805 8990.36,786.126C8991.01,786.447 8991.65,786.968 8992.28,787.688L8991.2,788.724C8990.38,787.626 8989.37,787.077 8988.19,787.077C8987.12,787.077 8986.23,787.443 8985.51,788.177C8984.79,788.897 8984.43,789.8 8984.43,790.885C8984.43,792.005 8984.83,792.927 8985.64,793.652C8986.39,794.325 8987.2,794.661 8988.08,794.661C8988.82,794.661 8989.49,794.409 8990.09,793.906C8990.68,793.398 8991.02,792.79 8991.09,792.083L8988.58,792.083L8988.58,790.657Z" style="fill-rule:nonzero;"/>
                    <path d="M9000.19,787.265L8996.16,787.265L8996.16,789.681L9000.07,789.681L9000.07,791.106L8996.16,791.106L8996.16,794.466L9000.19,794.466L9000.19,795.892L8994.64,795.892L8994.64,785.84L9000.19,785.84L9000.19,787.265Z" style="fill-rule:nonzero;"/>
                    <path d="M9006.24,795.162C9006.24,794.919 9006.33,794.709 9006.51,794.531C9006.69,794.353 9006.9,794.264 9007.15,794.264C9007.39,794.264 9007.61,794.353 9007.78,794.531C9007.96,794.709 9008.05,794.922 9008.05,795.169C9008.05,795.421 9007.96,795.636 9007.78,795.813C9007.61,795.987 9007.4,796.074 9007.15,796.074C9006.89,796.074 9006.68,795.987 9006.5,795.813C9006.33,795.64 9006.24,795.423 9006.24,795.162Z" style="fill-rule:nonzero;"/>
                    <path d="M9011.75,787.259L9010.01,787.259L9010.84,785.84L9013.27,785.84L9013.27,795.892L9011.75,795.892L9011.75,787.259Z" style="fill-rule:nonzero;"/>
                    <path d="M9018.65,794.466L9022.39,794.466L9022.39,795.892L9015.64,795.892L9019.13,791.666C9019.48,791.245 9019.76,790.881 9020,790.573C9020.23,790.264 9020.4,790.006 9020.52,789.798C9020.77,789.39 9020.9,789.023 9020.9,788.698C9020.9,788.229 9020.73,787.836 9020.4,787.519C9020.07,787.202 9019.66,787.044 9019.18,787.044C9018.16,787.044 9017.58,787.645 9017.43,788.847L9015.92,788.847C9016.17,786.729 9017.24,785.67 9019.13,785.67C9020.05,785.67 9020.82,785.961 9021.44,786.543C9022.06,787.124 9022.37,787.845 9022.37,788.704C9022.37,789.251 9022.23,789.787 9021.94,790.312C9021.79,790.586 9021.58,790.91 9021.29,791.285C9021.01,791.661 9020.65,792.105 9020.21,792.617L9018.65,794.466Z" style="fill-rule:nonzero;"/>
                    <path d="M9030.55,787.259L9027.45,787.259L9026.96,788.925C9027.03,788.917 9027.1,788.91 9027.17,788.906C9027.24,788.902 9027.3,788.899 9027.35,788.899C9028.33,788.899 9029.13,789.229 9029.76,789.889C9030.39,790.544 9030.7,791.384 9030.7,792.409C9030.7,793.468 9030.34,794.34 9029.63,795.026C9028.92,795.711 9028.02,796.054 9026.94,796.054C9025.61,796.054 9024.56,795.429 9023.79,794.179L9024.94,793.209C9025.26,793.748 9025.58,794.127 9025.9,794.349C9026.22,794.566 9026.61,794.674 9027.08,794.674C9027.68,794.674 9028.19,794.461 9028.6,794.036C9029.02,793.598 9029.22,793.066 9029.22,792.441C9029.22,791.799 9029.02,791.274 9028.61,790.866C9028.2,790.445 9027.69,790.234 9027.08,790.234C9026.4,790.234 9025.81,790.531 9025.32,791.126L9024.82,791.126L9026.4,785.84L9030.55,785.84L9030.55,787.259Z" style="fill-rule:nonzero;"/>
                    <path d="M9037.58,785.84L9040.2,792.558L9042.93,785.351L9045.55,792.558L9048.33,785.84L9049.98,785.84L9045.49,796.53L9042.9,789.407L9040.21,796.536L9035.93,785.84L9037.58,785.84Z" style="fill-rule:nonzero;"/>
                    <path d="M9052.54,789.55L9052.54,795.892L9051.08,795.892L9051.08,789.55L9052.54,789.55ZM9050.86,786.914C9050.86,786.658 9050.95,786.436 9051.14,786.25C9051.32,786.063 9051.55,785.97 9051.81,785.97C9052.07,785.97 9052.3,786.063 9052.49,786.25C9052.67,786.432 9052.76,786.655 9052.76,786.92C9052.76,787.185 9052.67,787.411 9052.49,787.597C9052.3,787.784 9052.08,787.877 9051.81,787.877C9051.55,787.877 9051.32,787.784 9051.14,787.597C9050.95,787.411 9050.86,787.183 9050.86,786.914Z" style="fill-rule:nonzero;"/>
                    <path d="M9059.07,784.896L9060.55,784.896L9060.55,795.892L9059.07,795.892L9059.07,795.228C9058.5,795.792 9057.84,796.074 9057.11,796.074C9056.25,796.074 9055.52,795.757 9054.95,795.123C9054.38,794.477 9054.1,793.669 9054.1,792.702C9054.1,791.755 9054.38,790.965 9054.95,790.332C9055.52,789.694 9056.23,789.375 9057.08,789.375C9057.82,789.375 9058.49,789.678 9059.07,790.286L9059.07,784.896ZM9055.6,792.702C9055.6,793.309 9055.76,793.804 9056.09,794.186C9056.42,794.572 9056.84,794.765 9057.35,794.765C9057.89,794.765 9058.33,794.579 9058.66,794.205C9059,793.819 9059.17,793.329 9059.17,792.734C9059.17,792.139 9059,791.649 9058.66,791.263C9058.33,790.885 9057.9,790.696 9057.36,790.696C9056.86,790.696 9056.44,790.887 9056.1,791.269C9055.76,791.655 9055.6,792.133 9055.6,792.702Z" style="fill-rule:nonzero;"/>
                    <path d="M9068.17,793.066L9063.62,793.066C9063.66,793.587 9063.83,794.001 9064.13,794.31C9064.43,794.613 9064.82,794.765 9065.28,794.765C9065.65,794.765 9065.95,794.678 9066.19,794.505C9066.42,794.331 9066.69,794.01 9066.99,793.541L9068.23,794.231C9068.04,794.557 9067.83,794.836 9067.62,795.068C9067.41,795.3 9067.18,795.491 9066.94,795.641C9066.69,795.791 9066.43,795.9 9066.15,795.97C9065.87,796.039 9065.56,796.074 9065.23,796.074C9064.29,796.074 9063.53,795.77 9062.95,795.162C9062.38,794.55 9062.09,793.739 9062.09,792.728C9062.09,791.725 9062.37,790.913 9062.93,790.293C9063.49,789.681 9064.23,789.375 9065.15,789.375C9066.09,789.375 9066.83,789.672 9067.37,790.267C9067.91,790.857 9068.18,791.675 9068.18,792.721L9068.17,793.066ZM9066.67,791.868C9066.46,791.087 9065.97,790.696 9065.19,790.696C9065.01,790.696 9064.84,790.723 9064.68,790.778C9064.53,790.832 9064.39,790.91 9064.26,791.012C9064.13,791.114 9064.02,791.237 9063.93,791.38C9063.84,791.523 9063.77,791.686 9063.72,791.868L9066.67,791.868Z" style="fill-rule:nonzero;"/>
                    <path d="M8970.76,800.996L8970.76,809.622L8969.24,809.622L8969.24,800.996L8966.93,800.996L8966.93,799.57L8973.06,799.57L8973.06,800.996L8970.76,800.996Z" style="fill-rule:nonzero;"/>
                    <path d="M8973.59,804.55C8973.59,803.136 8974.11,801.92 8975.15,800.905C8976.18,799.889 8977.43,799.381 8978.88,799.381C8980.31,799.381 8981.53,799.893 8982.56,800.918C8983.59,801.942 8984.1,803.172 8984.1,804.609C8984.1,806.054 8983.59,807.28 8982.55,808.287C8981.52,809.299 8980.26,809.804 8978.8,809.804C8977.5,809.804 8976.33,809.355 8975.3,808.457C8974.16,807.463 8973.59,806.161 8973.59,804.55ZM8975.12,804.57C8975.12,805.681 8975.5,806.595 8976.25,807.311C8976.99,808.027 8977.84,808.385 8978.82,808.385C8979.87,808.385 8980.76,808.021 8981.49,807.291C8982.21,806.553 8982.57,805.655 8982.57,804.596C8982.57,803.524 8982.22,802.626 8981.5,801.901C8980.79,801.172 8979.91,800.807 8978.85,800.807C8977.81,800.807 8976.93,801.172 8976.21,801.901C8975.49,802.621 8975.12,803.511 8975.12,804.57Z" style="fill-rule:nonzero;"/>
                    <path d="M8987.53,805.54L8987.53,809.622L8986.01,809.622L8986.01,799.57L8987.73,799.57C8988.57,799.57 8989.21,799.629 8989.64,799.746C8990.07,799.863 8990.45,800.084 8990.78,800.41C8991.36,800.974 8991.65,801.686 8991.65,802.545C8991.65,803.465 8991.34,804.195 8990.72,804.733C8990.11,805.271 8989.28,805.54 8988.23,805.54L8987.53,805.54ZM8987.53,804.134L8988.09,804.134C8989.49,804.134 8990.18,803.598 8990.18,802.526C8990.18,801.488 8989.47,800.97 8988.03,800.97L8987.53,800.97L8987.53,804.134Z" style="fill-rule:nonzero;"/>
                    <path d="M9003.01,801.067L9001.78,801.797C9001.55,801.397 9001.33,801.137 9001.12,801.015C9000.9,800.876 9000.62,800.807 9000.28,800.807C8999.86,800.807 8999.51,800.926 8999.23,801.165C8998.95,801.399 8998.82,801.695 8998.82,802.05C8998.82,802.541 8999.18,802.936 8999.91,803.235L9000.91,803.646C9001.73,803.975 9002.33,804.378 9002.7,804.853C9003.08,805.328 9003.27,805.911 9003.27,806.601C9003.27,807.526 9002.96,808.29 9002.34,808.893C9001.72,809.501 9000.95,809.804 9000.03,809.804C8999.16,809.804 8998.44,809.546 8997.87,809.03C8997.31,808.513 8996.96,807.786 8996.82,806.849L8998.36,806.51C8998.43,807.1 8998.55,807.508 8998.73,807.734C8999.04,808.168 8999.49,808.385 9000.09,808.385C9000.57,808.385 9000.96,808.227 9001.27,807.91C9001.58,807.593 9001.74,807.192 9001.74,806.705C9001.74,806.51 9001.71,806.331 9001.66,806.168C9001.6,806.006 9001.52,805.856 9001.4,805.719C9001.29,805.582 9001.14,805.454 9000.96,805.335C9000.78,805.216 9000.56,805.102 9000.31,804.993L8999.34,804.59C8997.96,804.008 8997.27,803.157 8997.27,802.037C8997.27,801.282 8997.56,800.651 8998.14,800.143C8998.72,799.631 8999.43,799.375 9000.29,799.375C9001.45,799.375 9002.36,799.939 9003.01,801.067Z" style="fill-rule:nonzero;"/>
                    <rect x="9005.1" y="799.57" width="1.517" height="10.052" style="fill-rule:nonzero;"/>
                    <path d="M9009.03,809.622L9009.03,799.57L9011.14,799.57C9012.15,799.57 9012.95,799.67 9013.54,799.869C9014.17,800.065 9014.74,800.397 9015.25,800.866C9016.29,801.812 9016.81,803.055 9016.81,804.596C9016.81,806.141 9016.26,807.391 9015.18,808.346C9014.64,808.823 9014.07,809.155 9013.48,809.342C9012.92,809.529 9012.13,809.622 9011.11,809.622L9009.03,809.622ZM9010.55,808.196L9011.23,808.196C9011.91,808.196 9012.48,808.125 9012.93,807.981C9013.38,807.83 9013.79,807.589 9014.16,807.259C9014.9,806.577 9015.27,805.69 9015.27,804.596C9015.27,803.494 9014.91,802.6 9014.17,801.914C9013.5,801.302 9012.52,800.996 9011.23,800.996L9010.55,800.996L9010.55,808.196Z" style="fill-rule:nonzero;"/>
                    <path d="M9024.26,800.996L9020.23,800.996L9020.23,803.411L9024.14,803.411L9024.14,804.837L9020.23,804.837L9020.23,808.196L9024.26,808.196L9024.26,809.622L9018.71,809.622L9018.71,799.57L9024.26,799.57L9024.26,800.996Z" style="fill-rule:nonzero;"/>
                </g>
            </g>
        </g>
        <g id="Captive-Eject-Path">
            <g id="Bevel6">
                <g transform="matrix(-0.445326,0.681383,-0.681383,-0.445326,6331.38,-3981.34)">
                    <path d="M8924.18,795.892L8924.18,785.84L8925.69,785.84C8926.37,785.84 8926.9,785.892 8927.3,785.996C8927.71,786.1 8928.05,786.276 8928.33,786.523C8928.61,786.779 8928.83,787.098 8929,787.48C8929.17,787.866 8929.25,788.257 8929.25,788.652C8929.25,789.373 8928.97,789.982 8928.42,790.481C8928.96,790.664 8929.38,790.983 8929.68,791.438C8930,791.89 8930.15,792.415 8930.15,793.014C8930.15,793.8 8929.88,794.464 8929.32,795.006C8928.99,795.34 8928.61,795.573 8928.19,795.703C8927.74,795.829 8927.17,795.892 8926.48,795.892L8924.18,795.892ZM8925.7,790.156L8926.18,790.156C8926.74,790.156 8927.15,790.031 8927.42,789.782C8927.68,789.532 8927.81,789.164 8927.81,788.678C8927.81,788.205 8927.68,787.846 8927.41,787.601C8927.14,787.355 8926.75,787.233 8926.24,787.233L8925.7,787.233L8925.7,790.156ZM8925.7,794.466L8926.64,794.466C8927.32,794.466 8927.83,794.331 8928.15,794.062C8928.49,793.771 8928.66,793.402 8928.66,792.955C8928.66,792.521 8928.49,792.157 8928.17,791.862C8927.85,791.571 8927.28,791.425 8926.47,791.425L8925.7,791.425L8925.7,794.466Z" style="fill-rule:nonzero;"/>
                    <path d="M8937.61,787.265L8933.59,787.265L8933.59,789.681L8937.5,789.681L8937.5,791.106L8933.59,791.106L8933.59,794.466L8937.61,794.466L8937.61,795.892L8932.07,795.892L8932.07,785.84L8937.61,785.84L8937.61,787.265Z" style="fill-rule:nonzero;"/>
                    <path d="M8940.11,785.84L8942.9,792.806L8945.71,785.84L8947.37,785.84L8942.86,796.647L8938.45,785.84L8940.11,785.84Z" style="fill-rule:nonzero;"/>
                    <path d="M8954.17,787.265L8950.14,787.265L8950.14,789.681L8954.05,789.681L8954.05,791.106L8950.14,791.106L8950.14,794.466L8954.17,794.466L8954.17,795.892L8948.62,795.892L8948.62,785.84L8954.17,785.84L8954.17,787.265Z" style="fill-rule:nonzero;"/>
                    <path d="M8957.68,785.84L8957.68,794.466L8960.64,794.466L8960.64,795.892L8956.16,795.892L8956.16,785.84L8957.68,785.84Z" style="fill-rule:nonzero;"/>
                    <path d="M8971.74,787.265L8967.71,787.265L8967.71,789.681L8971.62,789.681L8971.62,791.106L8967.71,791.106L8967.71,794.466L8971.74,794.466L8971.74,795.892L8966.19,795.892L8966.19,785.84L8971.74,785.84L8971.74,787.265Z" style="fill-rule:nonzero;"/>
                    <path d="M8973.73,795.892L8973.73,785.84L8975.84,785.84C8976.85,785.84 8977.65,785.939 8978.23,786.139C8978.86,786.334 8979.43,786.666 8979.95,787.135C8980.98,788.081 8981.5,789.325 8981.5,790.866C8981.5,792.411 8980.96,793.661 8979.88,794.616C8979.34,795.093 8978.77,795.425 8978.18,795.612C8977.62,795.798 8976.83,795.892 8975.81,795.892L8973.73,795.892ZM8975.25,794.466L8975.93,794.466C8976.61,794.466 8977.18,794.394 8977.63,794.251C8978.08,794.099 8978.49,793.858 8978.85,793.528C8979.6,792.847 8979.97,791.959 8979.97,790.866C8979.97,789.763 8979.6,788.869 8978.86,788.183C8978.2,787.571 8977.22,787.265 8975.93,787.265L8975.25,787.265L8975.25,794.466Z" style="fill-rule:nonzero;"/>
                    <path d="M8988.58,790.657L8992.73,790.657L8992.73,790.989C8992.73,791.744 8992.64,792.413 8992.47,792.994C8992.29,793.533 8992,794.036 8991.59,794.505C8990.65,795.555 8989.47,796.08 8988.02,796.08C8986.62,796.08 8985.42,795.573 8984.41,794.557C8983.41,793.537 8982.91,792.313 8982.91,790.885C8982.91,789.427 8983.42,788.19 8984.44,787.174C8985.46,786.154 8986.7,785.644 8988.16,785.644C8988.95,785.644 8989.68,785.805 8990.36,786.126C8991.01,786.447 8991.65,786.968 8992.28,787.688L8991.2,788.724C8990.38,787.626 8989.37,787.077 8988.19,787.077C8987.12,787.077 8986.23,787.443 8985.51,788.177C8984.79,788.897 8984.43,789.8 8984.43,790.885C8984.43,792.005 8984.83,792.927 8985.64,793.652C8986.39,794.325 8987.2,794.661 8988.08,794.661C8988.82,794.661 8989.49,794.409 8990.09,793.906C8990.68,793.398 8991.02,792.79 8991.09,792.083L8988.58,792.083L8988.58,790.657Z" style="fill-rule:nonzero;"/>
                    <path d="M9000.19,787.265L8996.16,787.265L8996.16,789.681L9000.07,789.681L9000.07,791.106L8996.16,791.106L8996.16,794.466L9000.19,794.466L9000.19,795.892L8994.64,795.892L8994.64,785.84L9000.19,785.84L9000.19,787.265Z" style="fill-rule:nonzero;"/>
                    <path d="M9006.24,795.162C9006.24,794.919 9006.33,794.709 9006.51,794.531C9006.69,794.353 9006.9,794.264 9007.15,794.264C9007.39,794.264 9007.61,794.353 9007.78,794.531C9007.96,794.709 9008.05,794.922 9008.05,795.169C9008.05,795.421 9007.96,795.636 9007.78,795.813C9007.61,795.987 9007.4,796.074 9007.15,796.074C9006.89,796.074 9006.68,795.987 9006.5,795.813C9006.33,795.64 9006.24,795.423 9006.24,795.162Z" style="fill-rule:nonzero;"/>
                    <path d="M9011.75,787.259L9010.01,787.259L9010.84,785.84L9013.27,785.84L9013.27,795.892L9011.75,795.892L9011.75,787.259Z" style="fill-rule:nonzero;"/>
                    <path d="M9018.65,794.466L9022.39,794.466L9022.39,795.892L9015.64,795.892L9019.13,791.666C9019.48,791.245 9019.76,790.881 9020,790.573C9020.23,790.264 9020.4,790.006 9020.52,789.798C9020.77,789.39 9020.9,789.023 9020.9,788.698C9020.9,788.229 9020.73,787.836 9020.4,787.519C9020.07,787.202 9019.66,787.044 9019.18,787.044C9018.16,787.044 9017.58,787.645 9017.43,788.847L9015.92,788.847C9016.17,786.729 9017.24,785.67 9019.13,785.67C9020.05,785.67 9020.82,785.961 9021.44,786.543C9022.06,787.124 9022.37,787.845 9022.37,788.704C9022.37,789.251 9022.23,789.787 9021.94,790.312C9021.79,790.586 9021.58,790.91 9021.29,791.285C9021.01,791.661 9020.65,792.105 9020.21,792.617L9018.65,794.466Z" style="fill-rule:nonzero;"/>
                    <path d="M9030.55,787.259L9027.45,787.259L9026.96,788.925C9027.03,788.917 9027.1,788.91 9027.17,788.906C9027.24,788.902 9027.3,788.899 9027.35,788.899C9028.33,788.899 9029.13,789.229 9029.76,789.889C9030.39,790.544 9030.7,791.384 9030.7,792.409C9030.7,793.468 9030.34,794.34 9029.63,795.026C9028.92,795.711 9028.02,796.054 9026.94,796.054C9025.61,796.054 9024.56,795.429 9023.79,794.179L9024.94,793.209C9025.26,793.748 9025.58,794.127 9025.9,794.349C9026.22,794.566 9026.61,794.674 9027.08,794.674C9027.68,794.674 9028.19,794.461 9028.6,794.036C9029.02,793.598 9029.22,793.066 9029.22,792.441C9029.22,791.799 9029.02,791.274 9028.61,790.866C9028.2,790.445 9027.69,790.234 9027.08,790.234C9026.4,790.234 9025.81,790.531 9025.32,791.126L9024.82,791.126L9026.4,785.84L9030.55,785.84L9030.55,787.259Z" style="fill-rule:nonzero;"/>
                    <path d="M9037.58,785.84L9040.2,792.558L9042.93,785.351L9045.55,792.558L9048.33,785.84L9049.98,785.84L9045.49,796.53L9042.9,789.407L9040.21,796.536L9035.93,785.84L9037.58,785.84Z" style="fill-rule:nonzero;"/>
                    <path d="M9052.54,789.55L9052.54,795.892L9051.08,795.892L9051.08,789.55L9052.54,789.55ZM9050.86,786.914C9050.86,786.658 9050.95,786.436 9051.14,786.25C9051.32,786.063 9051.55,785.97 9051.81,785.97C9052.07,785.97 9052.3,786.063 9052.49,786.25C9052.67,786.432 9052.76,786.655 9052.76,786.92C9052.76,787.185 9052.67,787.411 9052.49,787.597C9052.3,787.784 9052.08,787.877 9051.81,787.877C9051.55,787.877 9051.32,787.784 9051.14,787.597C9050.95,787.411 9050.86,787.183 9050.86,786.914Z" style="fill-rule:nonzero;"/>
                    <path d="M9059.07,784.896L9060.55,784.896L9060.55,795.892L9059.07,795.892L9059.07,795.228C9058.5,795.792 9057.84,796.074 9057.11,796.074C9056.25,796.074 9055.52,795.757 9054.95,795.123C9054.38,794.477 9054.1,793.669 9054.1,792.702C9054.1,791.755 9054.38,790.965 9054.95,790.332C9055.52,789.694 9056.23,789.375 9057.08,789.375C9057.82,789.375 9058.49,789.678 9059.07,790.286L9059.07,784.896ZM9055.6,792.702C9055.6,793.309 9055.76,793.804 9056.09,794.186C9056.42,794.572 9056.84,794.765 9057.35,794.765C9057.89,794.765 9058.33,794.579 9058.66,794.205C9059,793.819 9059.17,793.329 9059.17,792.734C9059.17,792.139 9059,791.649 9058.66,791.263C9058.33,790.885 9057.9,790.696 9057.36,790.696C9056.86,790.696 9056.44,790.887 9056.1,791.269C9055.76,791.655 9055.6,792.133 9055.6,792.702Z" style="fill-rule:nonzero;"/>
                    <path d="M9068.17,793.066L9063.62,793.066C9063.66,793.587 9063.83,794.001 9064.13,794.31C9064.43,794.613 9064.82,794.765 9065.28,794.765C9065.65,794.765 9065.95,794.678 9066.19,794.505C9066.42,794.331 9066.69,794.01 9066.99,793.541L9068.23,794.231C9068.04,794.557 9067.83,794.836 9067.62,795.068C9067.41,795.3 9067.18,795.491 9066.94,795.641C9066.69,795.791 9066.43,795.9 9066.15,795.97C9065.87,796.039 9065.56,796.074 9065.23,796.074C9064.29,796.074 9063.53,795.77 9062.95,795.162C9062.38,794.55 9062.09,793.739 9062.09,792.728C9062.09,791.725 9062.37,790.913 9062.93,790.293C9063.49,789.681 9064.23,789.375 9065.15,789.375C9066.09,789.375 9066.83,789.672 9067.37,790.267C9067.91,790.857 9068.18,791.675 9068.18,792.721L9068.17,793.066ZM9066.67,791.868C9066.46,791.087 9065.97,790.696 9065.19,790.696C9065.01,790.696 9064.84,790.723 9064.68,790.778C9064.53,790.832 9064.39,790.91 9064.26,791.012C9064.13,791.114 9064.02,791.237 9063.93,791.38C9063.84,791.523 9063.77,791.686 9063.72,791.868L9066.67,791.868Z" style="fill-rule:nonzero;"/>
                    <path d="M8970.76,800.996L8970.76,809.622L8969.24,809.622L8969.24,800.996L8966.93,800.996L8966.93,799.57L8973.06,799.57L8973.06,800.996L8970.76,800.996Z" style="fill-rule:nonzero;"/>
                    <path d="M8973.59,804.55C8973.59,803.136 8974.11,801.92 8975.15,800.905C8976.18,799.889 8977.43,799.381 8978.88,799.381C8980.31,799.381 8981.53,799.893 8982.56,800.918C8983.59,801.942 8984.1,803.172 8984.1,804.609C8984.1,806.054 8983.59,807.28 8982.55,808.287C8981.52,809.299 8980.26,809.804 8978.8,809.804C8977.5,809.804 8976.33,809.355 8975.3,808.457C8974.16,807.463 8973.59,806.161 8973.59,804.55ZM8975.12,804.57C8975.12,805.681 8975.5,806.595 8976.25,807.311C8976.99,808.027 8977.84,808.385 8978.82,808.385C8979.87,808.385 8980.76,808.021 8981.49,807.291C8982.21,806.553 8982.57,805.655 8982.57,804.596C8982.57,803.524 8982.22,802.626 8981.5,801.901C8980.79,801.172 8979.91,800.807 8978.85,800.807C8977.81,800.807 8976.93,801.172 8976.21,801.901C8975.49,802.621 8975.12,803.511 8975.12,804.57Z" style="fill-rule:nonzero;"/>
                    <path d="M8987.53,805.54L8987.53,809.622L8986.01,809.622L8986.01,799.57L8987.73,799.57C8988.57,799.57 8989.21,799.629 8989.64,799.746C8990.07,799.863 8990.45,800.084 8990.78,800.41C8991.36,800.974 8991.65,801.686 8991.65,802.545C8991.65,803.465 8991.34,804.195 8990.72,804.733C8990.11,805.271 8989.28,805.54 8988.23,805.54L8987.53,805.54ZM8987.53,804.134L8988.09,804.134C8989.49,804.134 8990.18,803.598 8990.18,802.526C8990.18,801.488 8989.47,800.97 8988.03,800.97L8987.53,800.97L8987.53,804.134Z" style="fill-rule:nonzero;"/>
                    <path d="M9003.01,801.067L9001.78,801.797C9001.55,801.397 9001.33,801.137 9001.12,801.015C9000.9,800.876 9000.62,800.807 9000.28,800.807C8999.86,800.807 8999.51,800.926 8999.23,801.165C8998.95,801.399 8998.82,801.695 8998.82,802.05C8998.82,802.541 8999.18,802.936 8999.91,803.235L9000.91,803.646C9001.73,803.975 9002.33,804.378 9002.7,804.853C9003.08,805.328 9003.27,805.911 9003.27,806.601C9003.27,807.526 9002.96,808.29 9002.34,808.893C9001.72,809.501 9000.95,809.804 9000.03,809.804C8999.16,809.804 8998.44,809.546 8997.87,809.03C8997.31,808.513 8996.96,807.786 8996.82,806.849L8998.36,806.51C8998.43,807.1 8998.55,807.508 8998.73,807.734C8999.04,808.168 8999.49,808.385 9000.09,808.385C9000.57,808.385 9000.96,808.227 9001.27,807.91C9001.58,807.593 9001.74,807.192 9001.74,806.705C9001.74,806.51 9001.71,806.331 9001.66,806.168C9001.6,806.006 9001.52,805.856 9001.4,805.719C9001.29,805.582 9001.14,805.454 9000.96,805.335C9000.78,805.216 9000.56,805.102 9000.31,804.993L8999.34,804.59C8997.96,804.008 8997.27,803.157 8997.27,802.037C8997.27,801.282 8997.56,800.651 8998.14,800.143C8998.72,799.631 8999.43,799.375 9000.29,799.375C9001.45,799.375 9002.36,799.939 9003.01,801.067Z" style="fill-rule:nonzero;"/>
                    <rect x="9005.1" y="799.57" width="1.517" height="10.052" style="fill-rule:nonzero;"/>
                    <path d="M9009.03,809.622L9009.03,799.57L9011.14,799.57C9012.15,799.57 9012.95,799.67 9013.54,799.869C9014.17,800.065 9014.74,800.397 9015.25,800.866C9016.29,801.812 9016.81,803.055 9016.81,804.596C9016.81,806.141 9016.26,807.391 9015.18,808.346C9014.64,808.823 9014.07,809.155 9013.48,809.342C9012.92,809.529 9012.13,809.622 9011.11,809.622L9009.03,809.622ZM9010.55,808.196L9011.23,808.196C9011.91,808.196 9012.48,808.125 9012.93,807.981C9013.38,807.83 9013.79,807.589 9014.16,807.259C9014.9,806.577 9015.27,805.69 9015.27,804.596C9015.27,803.494 9014.91,802.6 9014.17,801.914C9013.5,801.302 9012.52,800.996 9011.23,800.996L9010.55,800.996L9010.55,808.196Z" style="fill-rule:nonzero;"/>
                    <path d="M9024.26,800.996L9020.23,800.996L9020.23,803.411L9024.14,803.411L9024.14,804.837L9020.23,804.837L9020.23,808.196L9024.26,808.196L9024.26,809.622L9018.71,809.622L9018.71,799.57L9024.26,799.57L9024.26,800.996Z" style="fill-rule:nonzero;"/>
                </g>
                <path d="M1894.57,1684.06C1895.28,1684.06 1895.99,1684.08 1896.69,1684.11C1898.2,1684.18 1899.71,1684.32 1901.21,1684.53C1905.18,1685.07 1909.08,1686.1 1912.8,1687.59C1917.92,1689.62 1922.71,1692.51 1926.89,1696.1C1930.73,1699.38 1934.07,1703.25 1936.75,1707.53C1940.05,1712.81 1942.36,1718.71 1943.51,1724.83C1944.79,1731.57 1944.67,1738.56 1943.15,1745.25C1942.3,1748.99 1941.02,1752.62 1939.33,1756.07C1938.68,1757.4 1937.98,1758.7 1937.21,1759.97C1936.94,1760.42 1936.65,1760.88 1936.37,1761.32L1812.66,1952.42C1812.72,1952.71 1812.78,1953 1812.84,1953.29C1812.93,1953.76 1812.93,1953.76 1813.02,1954.23C1813.25,1955.48 1813.46,1956.73 1813.63,1957.98C1814.01,1960.81 1814.22,1963.66 1814.26,1966.52C1814.38,1974.73 1813.07,1982.97 1810.4,1990.74C1809.28,1994.02 1807.91,1997.22 1806.31,2000.31C1805.62,2001.66 1804.88,2002.98 1804.1,2004.28C1803.76,2004.86 1803.4,2005.43 1803.04,2006.01C1802.75,2006.45 1802.46,2006.89 1802.17,2007.34C1801.17,2008.87 1800.11,2010.36 1798.99,2011.81C1797.34,2013.96 1795.56,2016.01 1793.68,2017.95C1788.78,2023 1783.12,2027.32 1776.96,2030.72C1772.56,2033.15 1767.89,2035.12 1763.07,2036.58C1757.86,2038.16 1752.47,2039.15 1747.03,2039.52C1741.85,2039.87 1736.63,2039.66 1731.49,2038.88C1727,2038.2 1722.56,2037.09 1718.28,2035.57C1709.58,2032.48 1701.49,2027.69 1694.58,2021.56C1691.48,2018.8 1688.61,2015.77 1686.03,2012.51C1683.24,2008.98 1680.77,2005.18 1678.69,2001.18C1676.83,1997.6 1675.27,1993.88 1674.03,1990.04C1672.76,1986.09 1671.83,1982.03 1671.25,1977.92C1670.53,1972.79 1670.36,1967.58 1670.76,1962.42C1671.1,1958.07 1671.83,1953.75 1672.95,1949.53C1674.3,1944.49 1676.2,1939.6 1678.6,1934.97C1679.44,1933.35 1680.35,1931.76 1681.32,1930.2C1681.67,1929.63 1682.03,1929.07 1682.39,1928.51C1684.97,1924.54 1687.93,1920.82 1691.23,1917.42C1695.6,1912.93 1700.57,1909.03 1705.96,1905.83C1710.89,1902.91 1716.17,1900.58 1721.66,1898.91C1723.37,1898.39 1725.11,1897.93 1726.86,1897.54C1727.63,1897.37 1728.41,1897.21 1729.19,1897.06C1770.27,1833.59 1811.31,1770.09 1852.45,1706.65C1853.1,1705.67 1853.77,1704.71 1854.48,1703.78C1856.51,1701.11 1858.8,1698.65 1861.32,1696.45C1864.01,1694.1 1866.95,1692.04 1870.07,1690.31C1873.76,1688.27 1877.71,1686.71 1881.79,1685.65C1884.5,1684.95 1887.27,1684.48 1890.06,1684.24C1891.26,1684.14 1892.47,1684.08 1893.67,1684.06C1893.97,1684.06 1894.27,1684.06 1894.57,1684.06ZM1894.06,1696.06C1893.07,1696.07 1892.08,1696.11 1891.09,1696.19C1889.12,1696.37 1887.16,1696.69 1885.23,1697.16C1882.19,1697.91 1879.25,1699.03 1876.48,1700.49C1873.81,1701.9 1871.31,1703.63 1869.05,1705.63C1867.33,1707.16 1865.75,1708.84 1864.33,1710.66C1863.63,1711.55 1862.97,1712.48 1862.35,1713.44L1736.32,1908.12C1736.05,1908.15 1735.78,1908.18 1735.51,1908.21C1735.24,1908.25 1734.97,1908.28 1734.7,1908.32C1733.76,1908.44 1732.82,1908.59 1731.88,1908.76C1729.88,1909.13 1727.89,1909.59 1725.93,1910.16C1719.89,1911.91 1714.14,1914.61 1708.94,1918.15C1705.37,1920.58 1702.06,1923.41 1699.1,1926.56C1696.64,1929.18 1694.42,1932.02 1692.47,1935.04C1691.94,1935.85 1691.41,1936.67 1690.92,1937.51C1690.01,1939.03 1689.17,1940.59 1688.41,1942.19C1685.9,1947.4 1684.17,1952.97 1683.27,1958.67C1682.49,1963.66 1682.35,1968.74 1682.84,1973.76C1683.35,1978.99 1684.55,1984.15 1686.4,1989.07C1688.7,1995.17 1691.99,2000.89 1696.13,2005.92C1698.25,2008.5 1700.59,2010.89 1703.11,2013.08C1706.09,2015.66 1709.33,2017.94 1712.75,2019.89C1715.9,2021.69 1719.22,2023.19 1722.64,2024.39C1726.21,2025.63 1729.9,2026.53 1733.64,2027.07C1737.57,2027.64 1741.55,2027.81 1745.51,2027.59C1749.56,2027.36 1753.6,2026.72 1757.52,2025.68C1761.69,2024.58 1765.73,2023.03 1769.57,2021.06C1773.23,2019.18 1776.69,2016.92 1779.89,2014.33C1783.26,2011.6 1786.32,2008.49 1789.01,2005.09C1789.8,2004.09 1790.56,2003.07 1791.28,2002.03C1791.76,2001.33 1792.23,2000.63 1792.68,1999.92C1793.45,1998.73 1794.18,1997.52 1794.86,1996.28C1796.13,1993.98 1797.25,1991.59 1798.21,1989.14C1799.78,1985.11 1800.91,1980.91 1801.57,1976.64C1802.26,1972.17 1802.44,1967.63 1802.1,1963.13C1801.89,1960.23 1801.46,1957.35 1800.83,1954.51C1800.52,1953.09 1800.15,1951.69 1799.73,1950.3C1841.96,1885.07 1884.39,1819.98 1926.41,1754.62C1927.24,1753.32 1927.99,1751.98 1928.66,1750.59C1929.92,1747.96 1930.87,1745.2 1931.5,1742.35C1932.54,1737.63 1932.67,1732.73 1931.88,1727.96C1931.05,1722.9 1929.2,1718.03 1926.45,1713.7C1924.52,1710.66 1922.16,1707.9 1919.45,1705.53C1916.24,1702.71 1912.55,1700.43 1908.59,1698.82C1905.7,1697.65 1902.66,1696.84 1899.57,1696.41C1898.05,1696.2 1896.52,1696.09 1894.98,1696.06C1894.68,1696.06 1894.37,1696.06 1894.06,1696.06Z" style="fill:rgb(85,85,85);fill-rule:nonzero;stroke:black;stroke-width:0.53px;stroke-linejoin:round;stroke-miterlimit:1.41421;"/>
            </g>
        </g>
    </g>
</svg>
