<?xml version="1.0" encoding="UTF-8" standalone="no"?>
<!DOCTYPE svg PUBLIC "-//W3C//DTD SVG 1.1//EN" "http://www.w3.org/Graphics/SVG/1.1/DTD/svg11.dtd">
<svg width="5882px" height="11466px" version="1.1" xmlns="http://www.w3.org/2000/svg" xmlns:xlink="http://www.w3.org/1999/xlink" xml:space="preserve" xmlns:serif="http://www.serif.com/" style="fill-rule:evenodd;clip-rule:evenodd;stroke-linecap:round;stroke-linejoin:round;stroke-miterlimit:10;">
    <g id="Scoop">
        <g id="Bevel">
            <path d="M4222.23,6743.58C4219.67,6743.58 4217.59,6745.66 4217.59,6748.23L4217.59,6875.25C4217.59,6877.82 4219.67,6879.9 4222.23,6879.9L4354.06,6879.9C4356.62,6879.9 4358.71,6877.82 4358.71,6875.25L4358.71,6748.23C4358.71,6745.66 4356.62,6743.58 4354.06,6743.58L4354.1,6743.58C4363.27,6743.58 4370.71,6751.02 4370.71,6760.18L4370.71,6875.3C4370.71,6884.46 4363.27,6891.9 4354.1,6891.9L4222.19,6891.9C4213.03,6891.9 4205.59,6884.46 4205.59,6875.3L4205.59,6760.18C4205.59,6751.02 4213.02,6743.58 4222.19,6743.58L4222.23,6743.58Z" style="fill:rgb(85,85,85);"/>
            <g transform="matrix(0.81399,-0.00433432,0.00433432,0.81399,-2988.3,6294.88)">
                <path d="M8958.12,795.892L8958.12,785.84L8959.63,785.84C8960.3,785.84 8960.84,785.892 8961.24,785.996C8961.64,786.1 8961.98,786.276 8962.26,786.523C8962.54,786.779 8962.77,787.098 8962.93,787.48C8963.1,787.866 8963.18,788.257 8963.18,788.652C8963.18,789.373 8962.91,789.982 8962.36,790.481C8962.89,790.664 8963.31,790.983 8963.62,791.438C8963.93,791.89 8964.09,792.415 8964.09,793.014C8964.09,793.8 8963.81,794.464 8963.26,795.006C8962.92,795.34 8962.55,795.573 8962.13,795.703C8961.67,795.829 8961.1,795.892 8960.42,795.892L8958.12,795.892ZM8959.64,790.156L8960.11,790.156C8960.68,790.156 8961.09,790.031 8961.35,789.782C8961.61,789.532 8961.75,789.164 8961.75,788.678C8961.75,788.205 8961.61,787.846 8961.34,787.601C8961.07,787.355 8960.68,787.233 8960.17,787.233L8959.64,787.233L8959.64,790.156ZM8959.64,794.466L8960.57,794.466C8961.26,794.466 8961.76,794.331 8962.09,794.062C8962.42,793.771 8962.59,793.402 8962.59,792.955C8962.59,792.521 8962.43,792.157 8962.1,791.862C8961.79,791.571 8961.22,791.425 8960.41,791.425L8959.64,791.425L8959.64,794.466Z" style="fill-rule:nonzero;"/>
                <path d="M8971.55,787.265L8967.52,787.265L8967.52,789.681L8971.43,789.681L8971.43,791.106L8967.52,791.106L8967.52,794.466L8971.55,794.466L8971.55,795.892L8966,795.892L8966,785.84L8971.55,785.84L8971.55,787.265Z" style="fill-rule:nonzero;"/>
                <path d="M8974.05,785.84L8976.83,792.806L8979.65,785.84L8981.31,785.84L8976.8,796.647L8972.39,785.84L8974.05,785.84Z" style="fill-rule:nonzero;"/>
                <path d="M8988.11,787.265L8984.08,787.265L8984.08,789.681L8987.99,789.681L8987.99,791.106L8984.08,791.106L8984.08,794.466L8988.11,794.466L8988.11,795.892L8982.56,795.892L8982.56,785.84L8988.11,785.84L8988.11,787.265Z" style="fill-rule:nonzero;"/>
                <path d="M8991.62,785.84L8991.62,794.466L8994.57,794.466L8994.57,795.892L8990.1,795.892L8990.1,785.84L8991.62,785.84Z" style="fill-rule:nonzero;"/>
                <path d="M9005.67,787.265L9001.64,787.265L9001.64,789.681L9005.56,789.681L9005.56,791.106L9001.64,791.106L9001.64,794.466L9005.67,794.466L9005.67,795.892L9000.12,795.892L9000.12,785.84L9005.67,785.84L9005.67,787.265Z" style="fill-rule:nonzero;"/>
                <path d="M9007.66,795.892L9007.66,785.84L9009.77,785.84C9010.78,785.84 9011.58,785.939 9012.17,786.139C9012.8,786.334 9013.37,786.666 9013.88,787.135C9014.92,788.081 9015.44,789.325 9015.44,790.866C9015.44,792.411 9014.9,793.661 9013.82,794.616C9013.27,795.093 9012.7,795.425 9012.11,795.612C9011.56,795.798 9010.77,795.892 9009.75,795.892L9007.66,795.892ZM9009.18,794.466L9009.86,794.466C9010.55,794.466 9011.11,794.394 9011.56,794.251C9012.01,794.099 9012.42,793.858 9012.79,793.528C9013.53,792.847 9013.91,791.959 9013.91,790.866C9013.91,789.763 9013.54,788.869 9012.8,788.183C9012.14,787.571 9011.16,787.265 9009.86,787.265L9009.18,787.265L9009.18,794.466Z" style="fill-rule:nonzero;"/>
                <path d="M9022.51,790.657L9026.67,790.657L9026.67,790.989C9026.67,791.744 9026.58,792.413 9026.4,792.994C9026.23,793.533 9025.93,794.036 9025.52,794.505C9024.59,795.555 9023.4,796.08 9021.96,796.08C9020.56,796.08 9019.35,795.573 9018.35,794.557C9017.34,793.537 9016.84,792.313 9016.84,790.885C9016.84,789.427 9017.35,788.19 9018.37,787.174C9019.39,786.154 9020.64,785.644 9022.1,785.644C9022.88,785.644 9023.62,785.805 9024.3,786.126C9024.95,786.447 9025.59,786.968 9026.22,787.688L9025.14,788.724C9024.31,787.626 9023.31,787.077 9022.12,787.077C9021.06,787.077 9020.17,787.443 9019.45,788.177C9018.73,788.897 9018.37,789.8 9018.37,790.885C9018.37,792.005 9018.77,792.927 9019.57,793.652C9020.32,794.325 9021.14,794.661 9022.01,794.661C9022.76,794.661 9023.43,794.409 9024.02,793.906C9024.62,793.398 9024.95,792.79 9025.02,792.083L9022.51,792.083L9022.51,790.657Z" style="fill-rule:nonzero;"/>
                <path d="M9034.12,787.265L9030.09,787.265L9030.09,789.681L9034.01,789.681L9034.01,791.106L9030.09,791.106L9030.09,794.466L9034.12,794.466L9034.12,795.892L9028.58,795.892L9028.58,785.84L9034.12,785.84L9034.12,787.265Z" style="fill-rule:nonzero;"/>
                <path d="M8922.77,808.893C8922.77,808.65 8922.86,808.439 8923.03,808.261C8923.21,808.083 8923.43,807.994 8923.67,807.994C8923.92,807.994 8924.13,808.083 8924.31,808.261C8924.49,808.439 8924.58,808.652 8924.58,808.899C8924.58,809.151 8924.49,809.366 8924.31,809.544C8924.14,809.718 8923.93,809.804 8923.67,809.804C8923.42,809.804 8923.2,809.718 8923.03,809.544C8922.85,809.37 8922.77,809.153 8922.77,808.893Z" style="fill-rule:nonzero;"/>
                <path d="M8928.28,800.989L8926.54,800.989L8927.37,799.57L8929.79,799.57L8929.79,809.622L8928.28,809.622L8928.28,800.989Z" style="fill-rule:nonzero;"/>
                <path d="M8935.18,808.196L8938.92,808.196L8938.92,809.622L8932.17,809.622L8935.66,805.397C8936,804.976 8936.29,804.611 8936.52,804.303C8936.75,803.995 8936.93,803.737 8937.05,803.528C8937.3,803.12 8937.42,802.754 8937.42,802.428C8937.42,801.959 8937.26,801.567 8936.93,801.25C8936.6,800.933 8936.19,800.774 8935.7,800.774C8934.69,800.774 8934.11,801.376 8933.96,802.578L8932.45,802.578C8932.69,800.46 8933.76,799.401 8935.66,799.401C8936.58,799.401 8937.34,799.692 8937.96,800.273C8938.59,800.855 8938.9,801.575 8938.9,802.435C8938.9,802.981 8938.76,803.517 8938.47,804.043C8938.32,804.316 8938.1,804.641 8937.82,805.016C8937.53,805.391 8937.17,805.835 8936.74,806.347L8935.18,808.196Z" style="fill-rule:nonzero;"/>
                <path d="M8947.08,800.989L8943.98,800.989L8943.48,802.656C8943.56,802.647 8943.63,802.641 8943.7,802.636C8943.76,802.632 8943.83,802.63 8943.88,802.63C8944.86,802.63 8945.66,802.96 8946.28,803.619C8946.91,804.275 8947.23,805.115 8947.23,806.139C8947.23,807.198 8946.87,808.07 8946.16,808.756C8945.45,809.442 8944.55,809.785 8943.47,809.785C8942.14,809.785 8941.09,809.16 8940.32,807.91L8941.47,806.94C8941.78,807.478 8942.1,807.858 8942.42,808.079C8942.74,808.296 8943.14,808.405 8943.6,808.405C8944.21,808.405 8944.72,808.192 8945.13,807.767C8945.54,807.328 8945.75,806.797 8945.75,806.172C8945.75,805.529 8945.55,805.004 8945.14,804.596C8944.73,804.175 8944.22,803.965 8943.61,803.965C8942.93,803.965 8942.34,804.262 8941.84,804.856L8941.34,804.856L8942.92,799.57L8947.08,799.57L8947.08,800.989Z" style="fill-rule:nonzero;"/>
                <path d="M8955.3,806.191L8953.02,803.281L8954.77,803.281L8956.18,805.13L8957.62,803.281L8959.42,803.281L8957.07,806.191L8959.79,809.622L8958.04,809.622L8956.18,807.252L8954.27,809.622L8952.48,809.622L8955.3,806.191Z" style="fill-rule:nonzero;"/>
                <path d="M8965.12,808.893C8965.12,808.65 8965.21,808.439 8965.39,808.261C8965.56,808.083 8965.78,807.994 8966.02,807.994C8966.27,807.994 8966.48,808.083 8966.66,808.261C8966.84,808.439 8966.93,808.652 8966.93,808.899C8966.93,809.151 8966.84,809.366 8966.66,809.544C8966.49,809.718 8966.27,809.804 8966.02,809.804C8965.77,809.804 8965.55,809.718 8965.38,809.544C8965.2,809.37 8965.12,809.153 8965.12,808.893Z" style="fill-rule:nonzero;"/>
                <path d="M8970.63,800.989L8968.89,800.989L8969.72,799.57L8972.14,799.57L8972.14,809.622L8970.63,809.622L8970.63,800.989Z" style="fill-rule:nonzero;"/>
                <path d="M8977.53,808.196L8981.27,808.196L8981.27,809.622L8974.52,809.622L8978.01,805.397C8978.35,804.976 8978.64,804.611 8978.87,804.303C8979.1,803.995 8979.28,803.737 8979.4,803.528C8979.65,803.12 8979.77,802.754 8979.77,802.428C8979.77,801.959 8979.61,801.567 8979.28,801.25C8978.95,800.933 8978.54,800.774 8978.06,800.774C8977.04,800.774 8976.46,801.376 8976.31,802.578L8974.8,802.578C8975.04,800.46 8976.11,799.401 8978.01,799.401C8978.93,799.401 8979.69,799.692 8980.31,800.273C8980.94,800.855 8981.25,801.575 8981.25,802.435C8981.25,802.981 8981.11,803.517 8980.82,804.043C8980.67,804.316 8980.45,804.641 8980.17,805.016C8979.88,805.391 8979.52,805.835 8979.09,806.347L8977.53,808.196Z" style="fill-rule:nonzero;"/>
                <path d="M8989.43,800.989L8986.33,800.989L8985.84,802.656C8985.91,802.647 8985.98,802.641 8986.05,802.636C8986.11,802.632 8986.18,802.63 8986.23,802.63C8987.21,802.63 8988.01,802.96 8988.63,803.619C8989.26,804.275 8989.58,805.115 8989.58,806.139C8989.58,807.198 8989.22,808.07 8988.51,808.756C8987.8,809.442 8986.9,809.785 8985.82,809.785C8984.49,809.785 8983.44,809.16 8982.67,807.91L8983.82,806.94C8984.13,807.478 8984.45,807.858 8984.77,808.079C8985.09,808.296 8985.49,808.405 8985.95,808.405C8986.56,808.405 8987.07,808.192 8987.48,807.767C8987.89,807.328 8988.1,806.797 8988.1,806.172C8988.1,805.529 8987.9,805.004 8987.49,804.596C8987.08,804.175 8986.57,803.965 8985.96,803.965C8985.28,803.965 8984.69,804.262 8984.19,804.856L8983.69,804.856L8985.27,799.57L8989.43,799.57L8989.43,800.989Z" style="fill-rule:nonzero;"/>
                <path d="M8997.65,806.191L8995.37,803.281L8997.12,803.281L8998.53,805.13L8999.97,803.281L9001.77,803.281L8999.42,806.191L9002.14,809.622L9000.39,809.622L8998.53,807.252L8996.62,809.622L8994.83,809.622L8997.65,806.191Z" style="fill-rule:nonzero;"/>
                <path d="M9007.47,808.893C9007.47,808.65 9007.56,808.439 9007.74,808.261C9007.91,808.083 9008.13,807.994 9008.37,807.994C9008.62,807.994 9008.83,808.083 9009.01,808.261C9009.19,808.439 9009.28,808.652 9009.28,808.899C9009.28,809.151 9009.19,809.366 9009.01,809.544C9008.84,809.718 9008.62,809.804 9008.37,809.804C9008.12,809.804 9007.9,809.718 9007.73,809.544C9007.56,809.37 9007.47,809.153 9007.47,808.893Z" style="fill-rule:nonzero;"/>
                <path d="M9012.98,800.989L9011.24,800.989L9012.07,799.57L9014.49,799.57L9014.49,809.622L9012.98,809.622L9012.98,800.989Z" style="fill-rule:nonzero;"/>
                <path d="M9022.01,800.989L9017.05,800.989L9017.05,799.57L9024.54,799.57L9018.2,809.967L9016.99,809.205L9022.01,800.989Z" style="fill-rule:nonzero;"/>
                <path d="M9030.42,800.989L9025.46,800.989L9025.46,799.57L9032.96,799.57L9026.62,809.967L9025.41,809.205L9030.42,800.989Z" style="fill-rule:nonzero;"/>
                <path d="M9038.32,809.622L9038.32,799.57L9040.43,799.57C9041.44,799.57 9042.24,799.67 9042.83,799.869C9043.46,800.065 9044.03,800.397 9044.54,800.866C9045.58,801.812 9046.09,803.055 9046.09,804.596C9046.09,806.141 9045.56,807.391 9044.47,808.346C9043.93,808.823 9043.36,809.155 9042.77,809.342C9042.21,809.529 9041.43,809.622 9040.41,809.622L9038.32,809.622ZM9039.84,808.196L9040.52,808.196C9041.2,808.196 9041.77,808.125 9042.22,807.981C9042.67,807.83 9043.08,807.589 9043.44,807.259C9044.19,806.577 9044.57,805.69 9044.57,804.596C9044.57,803.494 9044.2,802.6 9043.46,801.914C9042.79,801.302 9041.82,800.996 9040.52,800.996L9039.84,800.996L9039.84,808.196Z" style="fill-rule:nonzero;"/>
                <path d="M9049.19,803.281L9049.19,809.622L9047.72,809.622L9047.72,803.281L9049.19,803.281ZM9047.5,800.644C9047.5,800.388 9047.59,800.167 9047.78,799.98C9047.97,799.794 9048.19,799.7 9048.45,799.7C9048.72,799.7 9048.94,799.794 9049.13,799.98C9049.32,800.162 9049.41,800.386 9049.41,800.651C9049.41,800.915 9049.32,801.141 9049.13,801.328C9048.95,801.514 9048.72,801.608 9048.46,801.608C9048.19,801.608 9047.97,801.514 9047.78,801.328C9047.59,801.141 9047.5,800.913 9047.5,800.644Z" style="fill-rule:nonzero;"/>
                <path d="M9055.72,803.281L9057.19,803.281L9057.19,809.622L9055.72,809.622L9055.72,808.958C9055.11,809.522 9054.47,809.804 9053.77,809.804C9052.89,809.804 9052.17,809.488 9051.6,808.854C9051.03,808.207 9050.74,807.4 9050.74,806.432C9050.74,805.481 9051.03,804.689 9051.6,804.056C9052.17,803.422 9052.88,803.105 9053.73,803.105C9054.47,803.105 9055.13,803.409 9055.72,804.017L9055.72,803.281ZM9052.24,806.432C9052.24,807.04 9052.4,807.534 9052.73,807.916C9053.06,808.303 9053.48,808.496 9053.99,808.496C9054.53,808.496 9054.97,808.309 9055.31,807.936C9055.64,807.55 9055.81,807.059 9055.81,806.465C9055.81,805.87 9055.64,805.379 9055.31,804.993C9054.97,804.616 9054.54,804.427 9054.01,804.427C9053.5,804.427 9053.08,804.618 9052.74,805C9052.41,805.386 9052.24,805.863 9052.24,806.432Z" style="fill-rule:nonzero;"/>
                <path d="M9065.17,809.472C9065.17,809.772 9065.16,810.035 9065.14,810.263C9065.12,810.491 9065.09,810.692 9065.06,810.866C9064.96,811.343 9064.75,811.753 9064.45,812.096C9063.88,812.756 9063.09,813.086 9062.09,813.086C9061.24,813.086 9060.54,812.858 9060,812.402C9059.43,811.933 9059.1,811.284 9059.02,810.455L9060.49,810.455C9060.55,810.768 9060.64,811.009 9060.77,811.178C9061.07,811.573 9061.52,811.771 9062.1,811.771C9063.17,811.771 9063.71,811.113 9063.71,809.798L9063.71,808.912C9063.12,809.507 9062.45,809.804 9061.69,809.804C9060.83,809.804 9060.12,809.492 9059.57,808.867C9059.02,808.233 9058.74,807.441 9058.74,806.491C9058.74,805.566 9059,804.78 9059.51,804.134C9060.07,803.448 9060.8,803.105 9061.71,803.105C9062.51,803.105 9063.18,803.402 9063.71,803.997L9063.71,803.281L9065.17,803.281L9065.17,809.472ZM9063.76,806.465C9063.76,805.848 9063.6,805.356 9063.27,804.987C9062.93,804.609 9062.51,804.42 9061.99,804.42C9061.43,804.42 9060.99,804.626 9060.67,805.039C9060.38,805.408 9060.24,805.885 9060.24,806.471C9060.24,807.048 9060.38,807.521 9060.67,807.89C9060.99,808.294 9061.43,808.496 9061.99,808.496C9062.55,808.496 9062.99,808.292 9063.32,807.884C9063.61,807.515 9063.76,807.042 9063.76,806.465Z" style="fill-rule:nonzero;"/>
                <path d="M9067.25,808.893C9067.25,808.65 9067.34,808.439 9067.51,808.261C9067.69,808.083 9067.91,807.994 9068.15,807.994C9068.4,807.994 9068.61,808.083 9068.79,808.261C9068.97,808.439 9069.06,808.652 9069.06,808.899C9069.06,809.151 9068.97,809.366 9068.79,809.544C9068.62,809.718 9068.4,809.804 9068.15,809.804C9067.9,809.804 9067.68,809.718 9067.51,809.544C9067.33,809.37 9067.25,809.153 9067.25,808.893Z" style="fill-rule:nonzero;"/>
                <path d="M8970.76,814.726L8970.76,823.353L8969.24,823.353L8969.24,814.726L8966.93,814.726L8966.93,813.3L8973.06,813.3L8973.06,814.726L8970.76,814.726Z" style="fill-rule:nonzero;"/>
                <path d="M8973.59,818.281C8973.59,816.866 8974.11,815.651 8975.15,814.635C8976.18,813.619 8977.43,813.112 8978.88,813.112C8980.31,813.112 8981.53,813.624 8982.56,814.648C8983.59,815.672 8984.1,816.903 8984.1,818.34C8984.1,819.785 8983.59,821.011 8982.55,822.018C8981.52,823.029 8980.26,823.535 8978.8,823.535C8977.5,823.535 8976.33,823.086 8975.3,822.187C8974.16,821.193 8973.59,819.891 8973.59,818.281ZM8975.12,818.3C8975.12,819.412 8975.5,820.325 8976.25,821.041C8976.99,821.757 8977.84,822.116 8978.82,822.116C8979.87,822.116 8980.76,821.751 8981.49,821.022C8982.21,820.284 8982.57,819.386 8982.57,818.327C8982.57,817.254 8982.22,816.356 8981.5,815.631C8980.79,814.902 8979.91,814.537 8978.85,814.537C8977.81,814.537 8976.93,814.902 8976.21,815.631C8975.49,816.352 8975.12,817.241 8975.12,818.3Z" style="fill-rule:nonzero;"/>
                <path d="M8987.53,819.271L8987.53,823.353L8986.01,823.353L8986.01,813.3L8987.73,813.3C8988.57,813.3 8989.21,813.359 8989.64,813.476C8990.07,813.593 8990.45,813.815 8990.78,814.14C8991.36,814.705 8991.65,815.416 8991.65,816.276C8991.65,817.196 8991.34,817.925 8990.72,818.463C8990.11,819.001 8989.28,819.271 8988.23,819.271L8987.53,819.271ZM8987.53,817.864L8988.09,817.864C8989.49,817.864 8990.18,817.328 8990.18,816.256C8990.18,815.219 8989.47,814.7 8988.03,814.7L8987.53,814.7L8987.53,817.864Z" style="fill-rule:nonzero;"/>
                <path d="M9003.01,814.798L9001.78,815.527C9001.55,815.128 9001.33,814.867 9001.12,814.746C9000.9,814.607 9000.62,814.537 9000.28,814.537C8999.86,814.537 8999.51,814.657 8999.23,814.896C8998.95,815.13 8998.82,815.425 8998.82,815.781C8998.82,816.271 8999.18,816.666 8999.91,816.966L9000.91,817.376C9001.73,817.706 9002.33,818.108 9002.7,818.584C9003.08,819.059 9003.27,819.642 9003.27,820.332C9003.27,821.256 9002.96,822.02 9002.34,822.623C9001.72,823.231 9000.95,823.535 9000.03,823.535C8999.16,823.535 8998.44,823.277 8997.87,822.76C8997.31,822.244 8996.96,821.517 8996.82,820.579L8998.36,820.241C8998.43,820.831 8998.55,821.239 8998.73,821.465C8999.04,821.899 8999.49,822.116 9000.09,822.116C9000.57,822.116 9000.96,821.957 9001.27,821.64C9001.58,821.323 9001.74,820.922 9001.74,820.436C9001.74,820.241 9001.71,820.062 9001.66,819.899C9001.6,819.736 9001.52,819.586 9001.4,819.45C9001.29,819.313 9001.14,819.185 9000.96,819.065C9000.78,818.946 9000.56,818.832 9000.31,818.724L8999.34,818.32C8997.96,817.738 8997.27,816.888 8997.27,815.768C8997.27,815.013 8997.56,814.381 8998.14,813.873C8998.72,813.361 8999.43,813.105 9000.29,813.105C9001.45,813.105 9002.36,813.669 9003.01,814.798Z" style="fill-rule:nonzero;"/>
                <rect x="9005.1" y="813.3" width="1.517" height="10.052" style="fill-rule:nonzero;"/>
                <path d="M9009.03,823.353L9009.03,813.3L9011.14,813.3C9012.15,813.3 9012.95,813.4 9013.54,813.6C9014.17,813.795 9014.74,814.127 9015.25,814.596C9016.29,815.542 9016.81,816.786 9016.81,818.327C9016.81,819.872 9016.26,821.122 9015.18,822.077C9014.64,822.554 9014.07,822.886 9013.48,823.073C9012.92,823.259 9012.13,823.353 9011.11,823.353L9009.03,823.353ZM9010.55,821.927L9011.23,821.927C9011.91,821.927 9012.48,821.855 9012.93,821.712C9013.38,821.56 9013.79,821.319 9014.16,820.989C9014.9,820.308 9015.27,819.42 9015.27,818.327C9015.27,817.224 9014.91,816.33 9014.17,815.644C9013.5,815.032 9012.52,814.726 9011.23,814.726L9010.55,814.726L9010.55,821.927Z" style="fill-rule:nonzero;"/>
                <path d="M9024.26,814.726L9020.23,814.726L9020.23,817.142L9024.14,817.142L9024.14,818.567L9020.23,818.567L9020.23,821.927L9024.26,821.927L9024.26,823.353L9018.71,823.353L9018.71,813.3L9024.26,813.3L9024.26,814.726Z" style="fill-rule:nonzero;"/>
            </g>
        </g>
    </g>
</svg>
