<?xml version="1.0" encoding="UTF-8" standalone="no"?>
<!DOCTYPE svg PUBLIC "-//W3C//DTD SVG 1.1//EN" "http://www.w3.org/Graphics/SVG/1.1/DTD/svg11.dtd">
<svg width="4544px" height="4993px" version="1.1" xmlns="http://www.w3.org/2000/svg" xmlns:xlink="http://www.w3.org/1999/xlink" xml:space="preserve" style="fill-rule:evenodd;clip-rule:evenodd;stroke-linecap:round;stroke-linejoin:round;stroke-miterlimit:2.613;">
    <g id="Playfield-Outline-.--Top-Bottom-Sticker-Drill-Rout-Plastic-Bevel-Art-Assembly-Rubber-Todo">
        <path d="M250.028,347.831L2193.89,347.831L2193.89,4380.1L2133.9,4380.1L2133.9,4278.1L2133.89,4278.1C2133.89,4271.49 2128.51,4266.11 2121.89,4266.11L2091.95,4266.11L2092.01,4091.14L2092,4091.14C2092,4086.18 2087.96,4082.14 2083.01,4082.14C2078.05,4082.14 2074.01,4086.18 2074.01,4091.14L2074.01,4091.14L2074.06,4266.11L2013.9,4266.11C2007.29,4266.11 2001.91,4271.49 2001.91,4278.1L2001.91,4669.25L1329.95,4669.25L1105.57,4401.84L1105.56,4401.8C1101.06,4396.46 1094.21,4393.27 1087.18,4393.27L771.991,4393.27C758.778,4393.27 747.992,4404.05 747.992,4417.26L747.992,4669.25L551.237,4669.25L375.011,4516.87L375.011,4418.81C375.011,4405.6 364.232,4394.82 351.012,4394.82L250.028,4394.82L250.028,347.831Z" style="fill:none;stroke:rgb(35,31,32);stroke-width:1.11px;"/>
    </g>
    <g id="Playfield-Guides-.--Top-Bottom-Sticker-Drill-Rout-Plastic-Bevel-Art-Assembly-Rubber-Todo">
        <path d="M433.899,4669.25L225.12,4669.25" style="fill:none;stroke:rgb(35,31,32);stroke-width:1.11px;"/>
        <path d="M2210.9,4669.25L2099.49,4669.25" style="fill:none;stroke:rgb(35,31,32);stroke-width:1.11px;"/>
        <path d="M2194.03,4687.12L2194.03,4633.23" style="fill:none;stroke:black;stroke-width:0.74px;stroke-miterlimit:10;"/>
        <path d="M250.14,4692.72L250.14,4627.94" style="fill:none;stroke:black;stroke-width:0.74px;stroke-miterlimit:10;"/>
    </g>
    <g id="Sling-Right">
        <g id="Drill">
            <path d="M1944.05,2212.09C1948.32,2198.49 1962.83,2190.91 1976.43,2195.18L2051.12,2218.64C2064.72,2222.91 2072.3,2237.41 2068.03,2251.01C2063.76,2264.61 2049.25,2272.19 2035.65,2267.92L1960.96,2244.47C1947.36,2240.2 1939.78,2225.69 1944.05,2212.09Z"/>
            <path d="M2001.62,2113.46C2003.67,2106.94 2010.63,2103.32 2017.15,2105.37L2044.08,2113.85C2050.6,2115.9 2054.22,2122.86 2052.17,2129.38L2044.74,2152.99C2042.68,2159.51 2035.73,2163.13 2029.21,2161.08L2002.28,2152.6C1995.76,2150.55 1992.13,2143.59 1994.19,2137.08L2001.62,2113.46Z"/>
            <path d="M1941.69,2302.72C1943.83,2295.92 1951.09,2292.14 1957.89,2294.28L1984.08,2302.52C1990.87,2304.66 1994.65,2311.92 1992.52,2318.72L1984.76,2343.35C1982.62,2350.15 1975.36,2353.93 1968.56,2351.79L1942.38,2343.55C1935.58,2341.41 1931.8,2334.15 1933.94,2327.35L1941.69,2302.72Z"/>
            <path d="M1909.96,2281.18C1907.47,2281.27 1905.52,2283.35 1905.61,2285.84C1905.69,2288.33 1907.77,2290.28 1910.26,2290.19C1912.75,2290.11 1914.7,2288.03 1914.62,2285.54C1914.53,2283.05 1912.45,2281.1 1909.96,2281.18"/>
            <path d="M1958.46,2126.58C1955.97,2126.66 1954.03,2128.74 1954.11,2131.23C1954.19,2133.72 1956.27,2135.67 1958.76,2135.59C1961.26,2135.5 1963.2,2133.43 1963.12,2130.93C1963.04,2128.45 1960.96,2126.49 1958.46,2126.58"/>
            <path d="M1979.68,2268.54C1977.18,2268.62 1975.24,2270.71 1975.32,2273.2C1975.4,2275.69 1977.48,2277.63 1979.98,2277.55C1982.47,2277.47 1984.41,2275.39 1984.33,2272.9C1984.25,2270.41 1982.17,2268.46 1979.68,2268.54"/>
        </g>
    </g>
    <g id="Sling-Right1">
        <g id="Drill1">
            <path d="M1584.42,3437.2C1589.14,3423.75 1603.89,3416.66 1617.34,3421.38L1691.22,3447.3C1704.67,3452.02 1711.76,3466.77 1707.04,3480.22C1702.32,3493.67 1687.57,3500.76 1674.12,3496.04L1600.24,3470.13C1586.79,3465.41 1579.7,3450.66 1584.42,3437.2Z"/>
            <path d="M1645.23,3340.54C1647.5,3334.09 1654.57,3330.7 1661.01,3332.97L1687.65,3342.34C1694.1,3344.6 1697.49,3351.68 1695.22,3358.12L1687.01,3381.48C1684.74,3387.92 1677.67,3391.32 1671.22,3389.05L1644.59,3379.68C1638.14,3377.41 1634.75,3370.34 1637.02,3363.9L1645.23,3340.54Z"/>
            <path d="M1579.06,3527.71C1581.42,3520.98 1588.8,3517.44 1595.53,3519.81L1621.42,3528.92C1628.15,3531.28 1631.69,3538.66 1629.32,3545.38L1620.75,3569.75C1618.39,3576.47 1611.01,3580.01 1604.29,3577.64L1578.39,3568.53C1571.67,3566.17 1568.13,3558.79 1570.49,3552.07L1579.06,3527.71Z"/>
            <path d="M1548.06,3505.13C1545.56,3505.13 1543.55,3507.15 1543.55,3509.64C1543.55,3512.13 1545.56,3514.15 1548.06,3514.15C1550.55,3514.15 1552.57,3512.13 1552.57,3509.64C1552.57,3507.15 1550.55,3505.13 1548.06,3505.13"/>
            <path d="M1601.66,3352.22C1599.17,3352.22 1597.15,3354.24 1597.15,3356.72C1597.15,3359.22 1599.17,3361.23 1601.66,3361.23C1604.16,3361.23 1606.17,3359.22 1606.17,3356.72C1606.17,3354.24 1604.16,3352.22 1601.66,3352.22"/>
            <path d="M1618.16,3494.81C1615.66,3494.81 1613.65,3496.83 1613.65,3499.32C1613.65,3501.81 1615.66,3503.82 1618.16,3503.82C1620.65,3503.82 1622.66,3501.81 1622.66,3499.32C1622.66,3496.83 1620.65,3494.81 1618.16,3494.81"/>
        </g>
    </g>
    <g id="Sling-Left">
        <g id="Drill2">
            <path d="M833.967,3436.95C829.249,3423.5 814.497,3416.41 801.046,3421.12L725.614,3447.59C712.163,3452.31 705.073,3467.06 709.792,3480.51C714.511,3493.96 729.262,3501.05 742.713,3496.33L818.145,3469.87C831.596,3465.15 838.686,3450.4 833.967,3436.95Z"/>
            <path d="M772.84,3340.39C770.573,3333.95 763.5,3330.56 757.055,3332.82L729.177,3342.63C722.732,3344.89 719.34,3351.97 721.606,3358.41L729.821,3381.77C732.088,3388.21 739.161,3391.61 745.606,3389.34L773.483,3379.53C779.929,3377.27 783.321,3370.2 781.054,3363.75L772.84,3340.39Z"/>
            <path d="M838.256,3527.82C835.892,3521.1 828.514,3517.56 821.791,3519.93L795.405,3529.21C788.682,3531.57 785.143,3538.95 787.508,3545.67L796.076,3570.03C798.44,3576.76 805.818,3580.3 812.542,3577.93L838.927,3568.65C845.65,3566.29 849.189,3558.91 846.825,3552.19L838.256,3527.82Z"/>
            <path d="M868.94,3505.41C866.445,3505.41 864.433,3507.43 864.433,3509.92C864.433,3512.41 866.445,3514.42 868.94,3514.42C871.434,3514.42 873.446,3512.41 873.446,3509.92C873.446,3507.43 871.434,3505.41 868.94,3505.41"/>
            <path d="M815.104,3352.45C812.609,3352.45 810.597,3354.47 810.597,3356.96C810.597,3359.45 812.609,3361.47 815.104,3361.47C817.599,3361.47 819.611,3359.45 819.611,3356.96C819.611,3354.47 817.599,3352.45 815.104,3352.45"/>
            <path d="M766.826,3404.28C764.331,3404.28 762.319,3406.29 762.319,3408.78C762.319,3411.28 764.331,3413.29 766.826,3413.29C769.321,3413.29 771.333,3411.28 771.333,3408.78C771.333,3406.29 769.321,3404.28 766.826,3404.28"/>
        </g>
    </g>
    <g id="Scoop">
        <g id="Drill3">
            <path d="M2125.09,2806.43C2127.03,2807.99 2127.33,2810.84 2125.76,2812.77C2124.19,2814.71 2121.35,2815.01 2119.41,2813.44C2117.48,2811.87 2117.18,2809.03 2118.75,2807.09C2120.31,2805.16 2123.16,2804.86 2125.09,2806.43Z"/>
            <path d="M1947.13,2806.73C1945.57,2808.67 1942.72,2808.97 1940.79,2807.4C1938.85,2805.83 1938.56,2802.99 1940.12,2801.05C1941.69,2799.12 1944.53,2798.82 1946.47,2800.38C1948.4,2801.95 1948.7,2804.8 1947.13,2806.73Z"/>
            <path d="M2108.19,2712.99C2109.81,2710.99 2109.5,2708.07 2107.51,2706.45L2005.06,2623.49C2003.07,2621.87 2000.14,2622.18 1998.52,2624.18L1918.58,2722.89C1916.97,2724.89 1917.28,2727.81 1919.27,2729.43L2021.72,2812.39C2023.71,2814 2026.64,2813.7 2028.25,2811.7L2108.19,2712.99Z"/>
            <path d="M1903.66,2627.11C1901.73,2625.54 1898.88,2625.84 1897.31,2627.77C1895.75,2629.71 1896.05,2632.55 1897.98,2634.12C1899.92,2635.69 1902.76,2635.39 1904.33,2633.45C1905.89,2631.52 1905.6,2628.67 1903.66,2627.11Z"/>
        </g>
    </g>
    <g id="Scoop1">
        <g id="Drill4">
            <path d="M1712.67,1456.67C1714.66,1458.17 1715.05,1461 1713.55,1462.99C1712.06,1464.98 1709.22,1465.37 1707.24,1463.88C1705.25,1462.38 1704.85,1459.55 1706.35,1457.56C1707.85,1455.57 1710.68,1455.17 1712.67,1456.67Z"/>
            <path d="M1534.83,1463.15C1533.33,1465.13 1530.5,1465.53 1528.51,1464.03C1526.52,1462.53 1526.12,1459.7 1527.62,1457.71C1529.12,1455.73 1531.95,1455.33 1533.94,1456.83C1535.93,1458.33 1536.33,1461.16 1534.83,1463.15Z"/>
            <path d="M1692.54,1363.87C1694.08,1361.83 1693.67,1358.91 1691.62,1357.37L1586.36,1278.01C1584.32,1276.46 1581.4,1276.87 1579.86,1278.92L1503.38,1380.35C1501.84,1382.4 1502.25,1385.31 1504.3,1386.86L1609.56,1466.22C1611.61,1467.76 1614.52,1467.35 1616.07,1465.3L1692.54,1363.87Z"/>
            <path d="M1485.15,1285.14C1483.16,1283.64 1480.33,1284.04 1478.83,1286.03C1477.33,1288.01 1477.73,1290.85 1479.72,1292.34C1481.71,1293.84 1484.54,1293.45 1486.04,1291.46C1487.54,1289.47 1487.14,1286.64 1485.15,1285.14Z"/>
        </g>
    </g>
    <g id="O-Target-Wide">
        <g id="Drill5">
            <path d="M1480.63,1326.54C1484.09,1320.62 1482.09,1313 1476.17,1309.54L1357.03,1239.93C1351.11,1236.48 1343.5,1238.47 1340.04,1244.39L1324.13,1271.62C1320.67,1277.54 1322.67,1285.16 1328.59,1288.62L1447.73,1358.23C1453.65,1361.68 1461.27,1359.68 1464.73,1353.77L1480.63,1326.54Z"/>
            <path d="M1354.11,1340.08C1351.96,1338.83 1349.2,1339.56 1347.95,1341.71C1346.69,1343.86 1347.43,1346.62 1349.59,1347.87C1351.73,1349.12 1354.5,1348.39 1355.75,1346.24C1356.99,1344.09 1356.27,1341.33 1354.11,1340.08"/>
            <path d="M1390.27,1361.2C1388.12,1359.95 1385.36,1360.68 1384.11,1362.84C1382.85,1364.98 1383.59,1367.75 1385.74,1369C1387.89,1370.24 1390.65,1369.51 1391.9,1367.36C1393.15,1365.21 1392.42,1362.45 1390.27,1361.2"/>
        </g>
    </g>
    <g id="O-Target-Wide1">
        <g id="Drill6">
            <path d="M2005.27,2598.29C2011.59,2595.64 2014.58,2588.36 2011.93,2582.03L1958.7,2454.73C1956.06,2448.4 1948.77,2445.41 1942.45,2448.06L1913.35,2460.23C1907.03,2462.87 1904.04,2470.16 1906.68,2476.48L1959.92,2603.78C1962.56,2610.11 1969.85,2613.1 1976.17,2610.45L2005.27,2598.29Z"/>
            <path d="M1896.09,2532.94C1895.12,2530.64 1892.48,2529.57 1890.18,2530.53C1887.89,2531.49 1886.81,2534.14 1887.78,2536.44C1888.74,2538.73 1891.39,2539.81 1893.68,2538.84C1895.97,2537.88 1897.05,2535.23 1896.09,2532.94"/>
            <path d="M1912.24,2571.57C1911.28,2569.28 1908.63,2568.2 1906.34,2569.17C1904.04,2570.12 1902.97,2572.78 1903.93,2575.07C1904.9,2577.36 1907.54,2578.44 1909.84,2577.47C1912.12,2576.51 1913.21,2573.86 1912.24,2571.57"/>
        </g>
    </g>
    <g id="O-Target-Norm">
        <g id="Drill7">
            <path d="M404.813,2818.81C403.784,2821.08 404.788,2823.75 407.055,2824.78C409.318,2825.81 411.992,2824.8 413.022,2822.54C414.048,2820.28 413.047,2817.6 410.78,2816.57C408.52,2815.54 405.843,2816.54 404.813,2818.81"/>
            <path d="M422.223,2780.73C421.193,2782.99 422.197,2785.66 424.464,2786.69C426.727,2787.73 429.402,2786.72 430.431,2784.45C431.457,2782.19 430.456,2779.51 428.189,2778.49C425.929,2777.46 423.252,2778.46 422.223,2780.73"/>
            <path d="M367.173,2719.52C360.937,2716.67 353.559,2719.41 350.709,2725.65L316.42,2800.66C313.569,2806.89 316.317,2814.27 322.553,2817.12L351.233,2830.23C357.469,2833.08 364.847,2830.34 367.698,2824.1L401.987,2749.09C404.837,2742.86 402.089,2735.48 395.853,2732.63L367.173,2719.52Z"/>
        </g>
    </g>
    <g id="Flipper-Mech-Right">
        <g id="Drill8">
            <path d="M1389.06,3767.27C1389.06,3769.77 1391.07,3771.78 1393.57,3771.78C1396.06,3771.78 1398.08,3769.77 1398.08,3767.27C1398.08,3764.78 1396.06,3762.76 1393.57,3762.76C1391.07,3762.76 1389.06,3764.78 1389.06,3767.27"/>
            <path d="M1430.44,3746.05C1430.44,3748.55 1432.45,3750.56 1434.95,3750.56C1437.44,3750.56 1439.45,3748.55 1439.45,3746.05C1439.45,3743.56 1437.44,3741.55 1434.95,3741.55C1432.45,3741.55 1430.44,3743.56 1430.44,3746.05"/>
            <path d="M1532.22,4047.96C1532.22,4050.45 1534.23,4052.47 1536.73,4052.47C1539.22,4052.47 1541.23,4050.45 1541.23,4047.96C1541.23,4045.47 1539.22,4043.45 1536.73,4043.45C1534.23,4043.45 1532.22,4045.47 1532.22,4047.96"/>
            <path d="M1573.66,4026.77C1573.66,4029.26 1575.67,4031.27 1578.17,4031.27C1580.66,4031.27 1582.68,4029.26 1582.68,4026.77C1582.68,4024.28 1580.66,4022.26 1578.17,4022.26C1575.67,4022.26 1573.66,4024.28 1573.66,4026.77"/>
            <path d="M1852.85,3884.38C1852.85,3886.87 1854.87,3888.88 1857.36,3888.88C1859.85,3888.88 1861.87,3886.87 1861.87,3884.38C1861.87,3881.88 1859.85,3879.87 1857.36,3879.87C1854.87,3879.87 1852.85,3881.88 1852.85,3884.38"/>
            <path d="M1894.27,3862.91C1894.27,3865.41 1896.29,3867.42 1898.78,3867.42C1901.26,3867.42 1903.28,3865.41 1903.28,3862.91C1903.28,3860.43 1901.26,3858.41 1898.78,3858.41C1896.29,3858.41 1894.27,3860.43 1894.27,3862.91"/>
            <path d="M1709.2,3602.72C1709.2,3605.21 1711.22,3607.22 1713.7,3607.22C1716.2,3607.22 1718.21,3605.21 1718.21,3602.72C1718.21,3600.22 1716.2,3598.21 1713.7,3598.21C1711.22,3598.21 1709.2,3600.22 1709.2,3602.72"/>
            <path d="M1750.75,3581.53C1750.75,3584.03 1752.77,3586.04 1755.26,3586.04C1757.75,3586.04 1759.77,3584.03 1759.77,3581.53C1759.77,3579.04 1757.75,3577.03 1755.26,3577.03C1752.77,3577.03 1750.75,3579.04 1750.75,3581.53"/>
            <circle cx="1533.1" cy="3927.06" r="24"/>
        </g>
    </g>
    <g id="Flipper-Mech-Left">
        <g id="Drill9">
            <path d="M451.099,1984.14C450.862,1981.67 448.666,1979.84 446.191,1980.08C443.705,1980.31 441.888,1982.51 442.12,1984.99C442.357,1987.46 444.553,1989.29 447.038,1989.05C449.514,1988.82 451.335,1986.62 451.099,1984.14"/>
            <path d="M495.651,1997.19C495.415,1994.72 493.218,1992.89 490.744,1993.13C488.257,1993.36 486.441,1995.56 486.673,1998.04C486.909,2000.51 489.106,2002.34 491.59,2002.1C494.066,2001.87 495.887,1999.66 495.651,1997.19"/>
            <path d="M405.964,2300.04C405.728,2297.57 403.531,2295.75 401.057,2295.98C398.57,2296.21 396.754,2298.41 396.986,2300.89C397.222,2303.37 399.419,2305.19 401.904,2304.95C404.379,2304.72 406.201,2302.52 405.964,2300.04"/>
            <path d="M361.905,2286.34C361.668,2283.87 359.472,2282.04 356.997,2282.28C354.511,2282.51 352.694,2284.71 352.926,2287.19C353.163,2289.66 355.359,2291.49 357.844,2291.25C360.32,2291.02 362.141,2288.81 361.905,2286.34"/>
            <path d="M750.912,2401.95C750.676,2399.48 748.479,2397.66 746.005,2397.89C743.518,2398.12 741.702,2400.32 741.934,2402.8C742.17,2405.28 744.366,2407.1 746.851,2406.86C749.327,2406.64 751.148,2404.43 750.912,2401.95"/>
            <path d="M841.254,2099.6C841.017,2097.12 838.821,2095.3 836.346,2095.53C833.86,2095.76 832.043,2097.96 832.275,2100.44C832.512,2102.92 834.708,2104.74 837.193,2104.5C839.669,2104.28 841.49,2102.07 841.254,2099.6"/>
            <path d="M796.047,2086.05C795.811,2083.58 793.614,2081.76 791.14,2081.99C788.653,2082.22 786.837,2084.42 787.069,2086.9C787.305,2089.38 789.502,2091.2 791.987,2090.96C794.463,2090.73 796.284,2088.53 796.047,2086.05"/>
            <path d="M706.36,2388.91C706.124,2386.43 703.927,2384.61 701.453,2384.85C698.967,2385.07 697.15,2387.27 697.382,2389.75C697.618,2392.23 699.815,2394.05 702.3,2393.81C704.776,2393.59 706.597,2391.38 706.36,2388.91"/>
            <path d="M450.038,2122.93C439.46,2114.96 437.343,2099.9 445.315,2089.32C453.286,2078.74 468.347,2076.62 478.925,2084.6C489.504,2092.57 491.621,2107.63 483.649,2118.2C475.677,2128.78 460.617,2130.9 450.038,2122.93Z"/>
        </g>
    </g>
    <g id="Flipper-Mech-Left1">
        <g id="Drill10">
            <path d="M967.573,4014.5C969.251,4016.33 972.102,4016.47 973.936,4014.79C975.785,4013.11 975.911,4010.26 974.233,4008.42C972.555,4006.58 969.704,4006.45 967.863,4008.13C966.021,4009.81 965.895,4012.66 967.573,4014.5"/>
            <path d="M924.139,4030.89C925.817,4032.72 928.668,4032.86 930.502,4031.18C932.35,4029.5 932.477,4026.65 930.799,4024.81C929.121,4022.97 926.269,4022.84 924.428,4024.52C922.587,4026.2 922.461,4029.05 924.139,4030.89"/>
            <path d="M813.504,3735.04C815.182,3736.88 818.033,3737.01 819.867,3735.33C821.716,3733.66 821.842,3730.8 820.164,3728.96C818.486,3727.13 815.635,3726.99 813.794,3728.68C811.953,3730.35 811.826,3733.21 813.504,3735.04"/>
            <path d="M856.939,3719.47C858.617,3721.31 861.468,3721.44 863.302,3719.76C865.151,3718.08 865.277,3715.23 863.599,3713.39C861.921,3711.56 859.07,3711.42 857.228,3713.11C855.387,3714.78 855.261,3717.64 856.939,3719.47"/>
            <path d="M476.685,3861.25C478.363,3863.08 481.214,3863.22 483.048,3861.54C484.897,3859.86 485.023,3857.01 483.345,3855.17C481.667,3853.33 478.816,3853.2 476.974,3854.89C475.133,3856.56 475.007,3859.41 476.685,3861.25"/>
            <path d="M586.499,4157.09C588.177,4158.93 591.028,4159.06 592.862,4157.38C594.711,4155.7 594.837,4152.85 593.159,4151.01C591.481,4149.18 588.63,4149.04 586.789,4150.73C584.948,4152.4 584.821,4155.26 586.499,4157.09"/>
            <path d="M630.753,4140.7C632.431,4142.54 635.282,4142.67 637.116,4140.99C638.965,4139.31 639.091,4136.46 637.413,4134.62C635.735,4132.79 632.884,4132.65 631.043,4134.34C629.201,4136.01 629.075,4138.87 630.753,4140.7"/>
            <path d="M520.119,3844.86C521.797,3846.69 524.648,3846.83 526.482,3845.15C528.33,3843.47 528.457,3840.62 526.779,3838.78C525.101,3836.94 522.25,3836.81 520.408,3838.49C518.567,3840.16 518.441,3843.02 520.119,3844.86"/>
            <circle cx="884.895" cy="3927.02" r="24"/>
        </g>
    </g>
    <path id="Drill11" d="M1695.72,1360.07L1766.54,1254.6C1766.54,1254.6 1763.04,1178.04 1683.45,1194.72C1666.27,1198.32 1657.46,1218.82 1621.76,1240.89C1596,1256.81 1580.11,1278.38 1580.11,1278.38L1695.72,1360.07Z"/>
    <g id="O-Target-Narrow">
        <g id="Drill12">
            <path d="M1894.62,1811.55C1897.71,1805.42 1895.25,1797.95 1889.13,1794.85L1858.35,1779.31C1852.23,1776.22 1844.75,1778.67 1841.66,1784.79L1827.44,1812.94C1824.35,1819.06 1826.81,1826.54 1832.93,1829.63L1863.71,1845.18C1869.83,1848.27 1877.31,1845.81 1880.4,1839.69L1894.62,1811.55Z"/>
            <path d="M1815.35,1856.11C1813.12,1854.99 1810.42,1855.89 1809.3,1858.12C1808.17,1860.34 1809.08,1863.05 1811.31,1864.16C1813.52,1865.28 1816.24,1864.38 1817.36,1862.16C1818.47,1859.94 1817.57,1857.22 1815.35,1856.11"/>
            <path d="M1852.72,1874.99C1850.5,1873.87 1847.79,1874.77 1846.67,1876.99C1845.55,1879.22 1846.46,1881.93 1848.68,1883.04C1850.9,1884.16 1853.61,1883.26 1854.73,1881.04C1855.85,1878.82 1854.95,1876.1 1852.72,1874.99"/>
        </g>
    </g>
    <g id="O-Target-Narrow1">
        <g id="Drill13">
            <path d="M1950.47,1542.12C1954.37,1536.49 1952.97,1528.74 1947.33,1524.84L1918.98,1505.2C1913.34,1501.3 1905.59,1502.71 1901.69,1508.35L1883.74,1534.27C1879.83,1539.91 1881.24,1547.66 1886.88,1551.56L1915.23,1571.19C1920.87,1575.09 1928.61,1573.69 1932.52,1568.05L1950.47,1542.12Z"/>
            <path d="M1865.83,1575.37C1863.78,1573.95 1860.97,1574.47 1859.56,1576.52C1858.14,1578.57 1858.67,1581.38 1860.72,1582.79C1862.76,1584.2 1865.57,1583.68 1866.99,1581.63C1868.39,1579.59 1867.88,1576.78 1865.83,1575.37"/>
            <path d="M1900.26,1599.2C1898.2,1597.79 1895.4,1598.31 1893.99,1600.36C1892.57,1602.41 1893.09,1605.22 1895.14,1606.63C1897.19,1608.04 1900,1607.52 1901.41,1605.47C1902.82,1603.43 1902.31,1600.62 1900.26,1599.2"/>
        </g>
    </g>
    <g id="O-Target-Narrow2">
        <g id="Drill14">
            <path d="M903.759,1345.27C901.697,1338.73 894.714,1335.1 888.175,1337.16L855.286,1347.53C848.747,1349.59 845.112,1356.57 847.174,1363.11L856.656,1393.19C858.718,1399.73 865.701,1403.36 872.241,1401.3L905.129,1390.93C911.668,1388.87 915.304,1381.89 913.242,1375.35L903.759,1345.27Z"/>
            <path d="M878.151,1432.53C875.779,1433.28 874.469,1435.82 875.223,1438.19C875.971,1440.56 878.513,1441.87 880.885,1441.12C883.25,1440.36 884.567,1437.83 883.813,1435.45C883.06,1433.09 880.524,1431.77 878.151,1432.53"/>
            <path d="M918.086,1419.93C915.714,1420.69 914.404,1423.22 915.159,1425.6C915.906,1427.97 918.448,1429.28 920.82,1428.52C923.186,1427.77 924.503,1425.23 923.748,1422.86C922.996,1420.5 920.459,1419.18 918.086,1419.93"/>
        </g>
    </g>
    <g id="O-Target-Narrow3">
        <g id="Drill15">
            <path d="M523,1186.09C520.779,1179.61 513.709,1176.14 507.222,1178.36L474.597,1189.53C468.11,1191.76 464.647,1198.83 466.868,1205.31L477.082,1235.15C479.303,1241.63 486.373,1245.1 492.86,1242.88L525.485,1231.71C531.973,1229.49 535.436,1222.42 533.215,1215.93L523,1186.09Z"/>
            <path d="M499.532,1273.95C497.179,1274.76 495.931,1277.33 496.743,1279.68C497.548,1282.04 500.122,1283.28 502.475,1282.47C504.821,1281.66 506.076,1279.09 505.264,1276.74C504.453,1274.39 501.885,1273.13 499.532,1273.95"/>
            <path d="M539.148,1260.38C536.794,1261.2 535.547,1263.76 536.359,1266.12C537.164,1268.47 539.737,1269.72 542.091,1268.9C544.437,1268.09 545.691,1265.53 544.879,1263.17C544.069,1260.83 541.501,1259.57 539.148,1260.38"/>
        </g>
    </g>
    <g id="O-Target-Narrow4">
        <g id="Drill16">
            <path d="M554.584,2349.98C551.276,2343.97 543.715,2341.78 537.708,2345.09L507.501,2361.72C501.494,2365.03 499.303,2372.59 502.61,2378.6L517.821,2406.22C521.128,2412.23 528.69,2414.42 534.696,2411.11L564.904,2394.48C570.91,2391.17 573.101,2383.61 569.794,2377.61L554.584,2349.98Z"/>
            <path d="M546.63,2440.57C544.452,2441.77 543.666,2444.52 544.872,2446.69C546.072,2448.88 548.822,2449.66 550.999,2448.45C553.17,2447.25 553.963,2444.5 552.757,2442.32C551.554,2440.15 548.808,2439.36 546.63,2440.57"/>
            <path d="M583.31,2420.37C581.132,2421.58 580.347,2424.32 581.553,2426.5C582.752,2428.68 585.502,2429.46 587.68,2428.25C589.851,2427.05 590.643,2424.3 589.437,2422.13C588.234,2419.96 585.488,2419.16 583.31,2420.37"/>
        </g>
    </g>
    <g id="O-Target-Narrow5">
        <g id="Drill17">
            <path d="M403.197,2640.95C396.961,2638.1 389.584,2640.85 386.734,2647.09L372.401,2678.45C369.551,2684.69 372.3,2692.06 378.537,2694.91L407.219,2708.02C413.455,2710.87 420.832,2708.12 423.682,2701.88L438.015,2670.52C440.865,2664.28 438.116,2656.91 431.879,2654.06L403.197,2640.95Z"/>
            <path d="M450.824,2718.41C449.795,2720.68 450.8,2723.35 453.067,2724.38C455.33,2725.41 458.004,2724.4 459.033,2722.14C460.059,2719.88 459.058,2717.2 456.791,2716.17C454.531,2715.14 451.854,2716.15 450.824,2718.41"/>
            <path d="M468.228,2680.33C467.199,2682.6 468.204,2685.26 470.471,2686.29C472.734,2687.33 475.408,2686.32 476.437,2684.05C477.463,2681.79 476.462,2679.11 474.195,2678.09C471.935,2677.06 469.257,2678.06 468.228,2680.33"/>
        </g>
    </g>
    <g id="MAGNET">
        <g id="Drill18">
            <path d="M310.042,1854.03C308.311,1852.23 305.466,1852.18 303.669,1853.91C301.878,1855.64 301.819,1858.49 303.55,1860.28C305.281,1862.08 308.131,1862.13 309.922,1860.4C311.719,1858.67 311.772,1855.83 310.042,1854.03"/>
            <path d="M358.762,1906.87C357.031,1905.08 354.186,1905.02 352.389,1906.75C350.598,1908.48 350.539,1911.33 352.27,1913.13C354.001,1914.92 356.851,1914.97 358.643,1913.25C360.439,1911.51 360.493,1908.67 358.762,1906.87"/>
            <path d="M556.189,1629.02C557.87,1630.86 560.713,1630.99 562.556,1629.31C564.393,1627.63 564.528,1624.78 562.846,1622.94C561.164,1621.1 558.316,1620.97 556.479,1622.65C554.637,1624.33 554.507,1627.17 556.189,1629.02"/>
            <path d="M604.739,1682.21C606.451,1684.02 609.295,1684.1 611.11,1682.39C612.918,1680.68 613.006,1677.83 611.294,1676.02C609.582,1674.21 606.732,1674.13 604.923,1675.84C603.109,1677.55 603.026,1680.39 604.739,1682.21"/>
            <path d="M435.668,1744.27C422.495,1756.3 421.561,1776.72 433.588,1789.9C445.617,1803.08 466.042,1804 479.215,1791.98C492.396,1779.95 493.323,1759.52 481.295,1746.35C469.273,1733.17 448.842,1732.24 435.668,1744.27Z"/>
        </g>
    </g>
    <g id="MAGNET1">
        <g id="Drill19">
            <path d="M1117.34,2332.66C1117.27,2330.16 1115.2,2328.2 1112.71,2328.27C1110.22,2328.34 1108.26,2330.4 1108.33,2332.9C1108.39,2335.39 1110.47,2337.35 1112.95,2337.28C1115.45,2337.21 1117.4,2335.15 1117.34,2332.66"/>
            <path d="M1117.7,2404.53C1117.63,2402.03 1115.57,2400.08 1113.07,2400.14C1110.59,2400.21 1108.62,2402.28 1108.69,2404.77C1108.76,2407.27 1110.83,2409.22 1113.31,2409.16C1115.81,2409.09 1117.77,2407.02 1117.7,2404.53"/>
            <path d="M1450.83,2332.4C1450.83,2334.89 1452.84,2336.9 1455.34,2336.9C1457.83,2336.9 1459.84,2334.89 1459.84,2332.4C1459.84,2329.9 1457.83,2327.89 1455.34,2327.89C1452.84,2327.89 1450.83,2329.9 1450.83,2332.4"/>
            <path d="M1450.83,2404.41C1450.88,2406.91 1452.92,2408.88 1455.41,2408.84C1457.9,2408.8 1459.89,2406.76 1459.85,2404.26C1459.8,2401.77 1457.75,2399.79 1455.26,2399.83C1452.77,2399.87 1450.79,2401.92 1450.83,2404.41"/>
            <path d="M1284.12,2336.28C1266.28,2336.28 1251.82,2350.74 1251.82,2368.57C1251.82,2386.42 1266.28,2400.87 1284.12,2400.87C1301.96,2400.87 1316.42,2386.41 1316.42,2368.57C1316.42,2350.74 1301.96,2336.27 1284.12,2336.28Z"/>
        </g>
    </g>
    <g id="MAGNET2">
        <g id="Drill20">
            <path d="M1684.56,2467.9C1686.72,2466.64 1687.44,2463.89 1686.18,2461.73C1684.92,2459.59 1682.16,2458.86 1680.01,2460.12C1677.86,2461.38 1677.14,2464.14 1678.4,2466.29C1679.66,2468.44 1682.41,2469.16 1684.56,2467.9"/>
            <path d="M1621.76,2502.85C1623.91,2501.59 1624.63,2498.84 1623.37,2496.68C1622.11,2494.54 1619.36,2493.81 1617.2,2495.07C1615.05,2496.33 1614.34,2499.09 1615.59,2501.24C1616.85,2503.39 1619.61,2504.11 1621.76,2502.85"/>
            <path d="M1845.49,2760C1843.3,2761.2 1842.51,2763.93 1843.71,2766.12C1844.91,2768.3 1847.64,2769.1 1849.83,2767.9C1852.02,2766.69 1852.81,2763.95 1851.61,2761.78C1850.41,2759.59 1847.67,2758.8 1845.49,2760"/>
            <path d="M1782.39,2794.7C1780.22,2795.94 1779.47,2798.68 1780.71,2800.85C1781.94,2803.01 1784.69,2803.76 1786.86,2802.53C1789.03,2801.29 1789.77,2798.54 1788.54,2796.38C1787.3,2794.21 1784.55,2793.46 1782.39,2794.7"/>
            <path d="M1761.76,2615.78C1753.16,2600.16 1733.52,2594.45 1717.89,2603.05C1702.26,2611.65 1696.56,2631.28 1705.16,2646.91C1713.75,2662.55 1733.39,2668.25 1749.02,2659.65C1764.65,2651.06 1770.35,2631.41 1761.76,2615.78Z"/>
        </g>
    </g>
    <g id="MAGNET3">
        <g id="Drill21">
            <path d="M1470.7,2911.07C1470.63,2908.58 1468.57,2906.62 1466.07,2906.69C1463.59,2906.75 1461.62,2908.82 1461.69,2911.31C1461.76,2913.81 1463.83,2915.76 1466.32,2915.7C1468.81,2915.63 1470.77,2913.56 1470.7,2911.07"/>
            <path d="M1471.06,2982.94C1470.99,2980.45 1468.93,2978.49 1466.43,2978.56C1463.95,2978.63 1461.98,2980.69 1462.05,2983.19C1462.12,2985.68 1464.19,2987.64 1466.68,2987.57C1469.17,2987.5 1471.13,2985.44 1471.06,2982.94"/>
            <path d="M1804.19,2910.81C1804.19,2913.31 1806.2,2915.32 1808.7,2915.32C1811.19,2915.32 1813.21,2913.31 1813.21,2910.81C1813.21,2908.32 1811.19,2906.3 1808.7,2906.3C1806.2,2906.3 1804.19,2908.32 1804.19,2910.81"/>
            <path d="M1804.2,2982.83C1804.24,2985.32 1806.28,2987.3 1808.78,2987.26C1811.26,2987.22 1813.25,2985.17 1813.21,2982.68C1813.17,2980.18 1811.11,2978.2 1808.63,2978.24C1806.13,2978.29 1804.15,2980.33 1804.2,2982.83"/>
            <path d="M1637.48,2914.69C1619.64,2914.69 1605.18,2929.15 1605.18,2946.99C1605.19,2964.83 1619.64,2979.29 1637.48,2979.28C1655.32,2979.29 1669.78,2964.82 1669.78,2946.99C1669.78,2929.15 1655.32,2914.69 1637.48,2914.69Z"/>
        </g>
    </g>
    <g id="Round-Hole-Small">
        <circle id="Drill22" cx="2080.3" cy="1900.14" r="5.94"/>
    </g>
    <g id="Round-Hole-Small1">
        <circle id="Drill23" cx="2080.3" cy="2466.27" r="5.94"/>
    </g>
    <g id="Round-Hole-Small2">
        <circle id="Drill24" cx="2170.62" cy="1483.39" r="5.94"/>
    </g>
    <g id="Round-Hole-Small3">
        <circle id="Drill25" cx="2170.62" cy="2640.6" r="5.94"/>
    </g>
    <g id="Round-Hole-Small4">
        <circle id="Drill26" cx="2170.61" cy="2670.26" r="5.94"/>
    </g>
    <g id="Round-Hole-Small5">
        <circle id="Drill27" cx="2046.64" cy="2824.05" r="5.94"/>
    </g>
    <g id="Eject-Switch">
        <g id="Drill28">
            <path d="M1635.85,1996.35C1634.68,1998.55 1635.51,2001.28 1637.7,2002.44C1639.9,2003.62 1642.63,2002.79 1643.81,2000.59C1644.97,1998.4 1644.14,1995.66 1641.94,1994.49C1639.75,1993.32 1637.01,1994.16 1635.85,1996.35"/>
            <path d="M1657.28,1966.89C1656.12,1969.08 1656.95,1971.81 1659.14,1972.98C1661.34,1974.16 1664.07,1973.32 1665.24,1971.13C1666.41,1968.93 1665.58,1966.2 1663.38,1965.03C1661.19,1963.85 1658.45,1964.69 1657.28,1966.89"/>
        </g>
    </g>
    <g id="Eject-Switch1">
        <g id="Drill29">
            <path d="M612.025,2681.12C613.703,2682.95 616.554,2683.09 618.388,2681.41C620.237,2679.73 620.363,2676.88 618.685,2675.04C617.007,2673.21 614.156,2673.07 612.314,2674.76C610.473,2676.43 610.347,2679.29 612.025,2681.12"/>
            <path d="M591.435,2651.06C593.113,2652.89 595.964,2653.03 597.798,2651.35C599.647,2649.67 599.773,2646.82 598.095,2644.98C596.417,2643.14 593.566,2643.01 591.724,2644.7C589.883,2646.37 589.757,2649.22 591.435,2651.06"/>
        </g>
    </g>
    <g id="_30-deg-Eject">
        <g id="Drill30">
            <path d="M1702.19,1809.25L1660.43,1814.73C1656.11,1815.32 1652.31,1818.31 1650.77,1822.44C1650.1,1824.24 1649.88,1826.31 1650.13,1828.2L1657.91,1887.67C1658.51,1891.99 1661.5,1895.82 1665.63,1897.36C1667.43,1898.03 1669.5,1898.25 1671.39,1898L1730.88,1890.2C1735.2,1889.61 1739.01,1886.63 1740.55,1882.5C1741.21,1880.69 1741.44,1878.63 1741.19,1876.73L1735.86,1836.02C1735.61,1834.13 1735.84,1832.08 1736.51,1830.28C1736.92,1829.19 1737.53,1828.07 1738.22,1827.17L1745.02,1818.31L1768.08,1788.19C1769.11,1786.85 1770.05,1785.16 1770.66,1783.52C1774.12,1774.22 1769.35,1763.83 1760.07,1760.38C1752.68,1757.64 1744.22,1760.04 1739.48,1766.3L1716.43,1796.43L1710.14,1804.65C1708.25,1807.2 1705.33,1808.87 1702.19,1809.25Z"/>
            <path d="M1744.63,1637.23C1746.96,1636.34 1748.11,1633.73 1747.22,1631.41C1746.32,1629.09 1743.72,1627.93 1741.39,1628.82C1739.06,1629.72 1737.91,1632.33 1738.81,1634.65C1739.7,1636.98 1742.31,1638.13 1744.63,1637.23"/>
            <path d="M1708.17,1684.87C1710.5,1683.97 1711.65,1681.37 1710.75,1679.04C1709.86,1676.72 1707.25,1675.56 1704.92,1676.46C1702.6,1677.35 1701.45,1679.96 1702.34,1682.28C1703.24,1684.61 1705.84,1685.76 1708.17,1684.87"/>
        </g>
    </g>
    <g id="_30-deg-Eject1">
        <g id="Drill31">
            <path d="M457.917,2555.98L449.108,2597.16C448.22,2601.43 449.764,2606.02 453.139,2608.85C454.613,2610.08 456.486,2610.98 458.353,2611.38L516.997,2623.95C521.267,2624.84 525.881,2623.3 528.711,2619.93C529.945,2618.45 530.841,2616.57 531.243,2614.71L543.811,2556.04C544.699,2551.77 543.16,2547.18 539.78,2544.35C538.306,2543.12 536.433,2542.22 534.566,2541.82L494.419,2533.21C492.552,2532.81 490.703,2531.91 489.229,2530.68C488.332,2529.93 487.483,2528.97 486.865,2528.02L480.796,2518.66L460.132,2486.84C459.209,2485.43 457.938,2483.97 456.592,2482.84C448.99,2476.48 437.604,2477.49 431.242,2485.09C426.187,2491.12 425.614,2499.91 429.933,2506.46L450.605,2538.27L456.254,2546.95C458.017,2549.59 458.612,2552.89 457.917,2555.98Z"/>
            <path d="M310.034,2458.41C309.967,2455.91 307.901,2453.96 305.407,2454.02C302.921,2454.09 300.956,2456.16 301.023,2458.65C301.091,2461.14 303.164,2463.1 305.65,2463.03C308.144,2462.97 310.101,2460.9 310.034,2458.41"/>
            <path d="M342.713,2508.71C342.646,2506.22 340.58,2504.26 338.086,2504.33C335.6,2504.4 333.635,2506.46 333.703,2508.95C333.77,2511.45 335.843,2513.41 338.329,2513.34C340.823,2513.27 342.78,2511.21 342.713,2508.71"/>
        </g>
    </g>
    <g id="Switch-w.2f.Outline">
        <g id="Drill32">
            <path d="M359.157,1071.02C359.157,1075.99 363.199,1080.04 368.178,1080.04C373.156,1080.04 377.199,1075.99 377.199,1071.02L377.199,926.937C377.199,921.958 373.156,917.916 368.178,917.916C363.199,917.916 359.157,921.958 359.157,926.937L359.157,1071.02Z"/>
            <path d="M405.053,872.697C405.053,875.192 407.065,877.204 409.56,877.204C412.054,877.204 414.066,875.192 414.066,872.697C414.066,870.202 412.054,868.19 409.56,868.19C407.065,868.19 405.053,870.202 405.053,872.697"/>
            <path d="M405.053,836.638C405.053,839.133 407.065,841.145 409.56,841.145C412.054,841.145 414.066,839.133 414.066,836.638C414.066,834.144 412.054,832.131 409.56,832.131C407.065,832.131 405.053,834.144 405.053,836.638"/>
        </g>
    </g>
    <g id="Switch-w.2f.Outline1">
        <g id="Drill33">
            <path d="M2073.86,3610.62C2073.86,3615.59 2077.9,3619.64 2082.88,3619.64C2087.86,3619.64 2091.9,3615.59 2091.9,3610.62L2091.9,3466.54C2091.9,3461.56 2087.86,3457.51 2082.88,3457.51C2077.9,3457.51 2073.86,3461.56 2073.86,3466.54L2073.86,3610.62Z"/>
            <path d="M2119.76,3412.3C2119.76,3414.79 2121.77,3416.8 2124.26,3416.8C2126.76,3416.8 2128.77,3414.79 2128.77,3412.3C2128.77,3409.8 2126.76,3407.79 2124.26,3407.79C2121.77,3407.79 2119.76,3409.8 2119.76,3412.3"/>
            <path d="M2119.76,3376.24C2119.76,3378.73 2121.77,3380.74 2124.26,3380.74C2126.76,3380.74 2128.77,3378.73 2128.77,3376.24C2128.77,3373.74 2126.76,3371.73 2124.26,3371.73C2121.77,3371.73 2119.76,3373.74 2119.76,3376.24"/>
        </g>
    </g>
    <g id="Switch-w.2f.Outline2">
        <g id="Drill34">
            <path d="M1931.76,3323.1C1931.76,3318.12 1927.72,3314.08 1922.74,3314.08C1917.76,3314.08 1913.72,3318.12 1913.72,3323.1L1913.72,3467.18C1913.72,3472.15 1917.76,3476.2 1922.74,3476.2C1927.72,3476.2 1931.76,3472.15 1931.76,3467.18L1931.76,3323.1Z"/>
            <path d="M1885.87,3521.41C1885.87,3518.92 1883.86,3516.91 1881.36,3516.91C1878.87,3516.91 1876.85,3518.92 1876.85,3521.41C1876.85,3523.91 1878.87,3525.92 1881.36,3525.92C1883.86,3525.92 1885.87,3523.91 1885.87,3521.41"/>
            <path d="M1885.87,3557.47C1885.87,3554.98 1883.86,3552.97 1881.36,3552.97C1878.87,3552.97 1876.85,3554.98 1876.85,3557.47C1876.85,3559.97 1878.87,3561.98 1881.36,3561.98C1883.86,3561.98 1885.87,3559.97 1885.87,3557.47"/>
        </g>
    </g>
    <g id="Switch-w.2f.Outline3">
        <g id="Drill35">
            <path d="M1785.03,3467.12C1785.03,3472.1 1789.07,3476.14 1794.05,3476.14C1799.03,3476.14 1803.07,3472.1 1803.07,3467.12L1803.07,3323.04C1803.07,3318.06 1799.03,3314.02 1794.05,3314.02C1789.07,3314.02 1785.03,3318.06 1785.03,3323.04L1785.03,3467.12Z"/>
            <path d="M1830.92,3268.8C1830.92,3271.3 1832.93,3273.31 1835.43,3273.31C1837.92,3273.31 1839.93,3271.3 1839.93,3268.8C1839.93,3266.31 1837.92,3264.3 1835.43,3264.3C1832.93,3264.3 1830.92,3266.31 1830.92,3268.8"/>
            <path d="M1830.92,3232.74C1830.92,3235.24 1832.93,3237.25 1835.43,3237.25C1837.92,3237.25 1839.93,3235.24 1839.93,3232.74C1839.93,3230.25 1837.92,3228.24 1835.43,3228.24C1832.93,3228.24 1830.92,3230.25 1830.92,3232.74"/>
        </g>
    </g>
    <g id="Switch-w.2f.Outline4">
        <g id="Drill36">
            <path d="M632.037,3323.08C632.037,3318.1 627.995,3314.06 623.016,3314.06C618.037,3314.06 613.995,3318.1 613.995,3323.08L613.995,3467.16C613.995,3472.14 618.037,3476.18 623.016,3476.18C627.995,3476.18 632.037,3472.14 632.037,3467.16L632.037,3323.08Z"/>
            <path d="M586.141,3521.4C586.141,3518.9 584.129,3516.89 581.634,3516.89C579.139,3516.89 577.127,3518.9 577.127,3521.4C577.127,3523.89 579.139,3525.9 581.634,3525.9C584.129,3525.9 586.141,3523.89 586.141,3521.4"/>
            <path d="M586.141,3557.46C586.141,3554.96 584.129,3552.95 581.634,3552.95C579.139,3552.95 577.127,3554.96 577.127,3557.46C577.127,3559.95 579.139,3561.96 581.634,3561.96C584.129,3561.96 586.141,3559.95 586.141,3557.46"/>
        </g>
    </g>
    <g id="Switch-w.2f.Outline5">
        <g id="Drill37">
            <path d="M503.391,3323.09C503.391,3318.11 499.349,3314.07 494.37,3314.07C489.392,3314.07 485.349,3318.11 485.349,3323.09L485.349,3467.16C485.349,3472.14 489.392,3476.18 494.37,3476.18C499.349,3476.18 503.391,3472.14 503.391,3467.16L503.391,3323.09Z"/>
            <path d="M457.495,3521.4C457.495,3518.91 455.483,3516.9 452.988,3516.9C450.494,3516.9 448.482,3518.91 448.482,3521.4C448.482,3523.9 450.494,3525.91 452.988,3525.91C455.483,3525.91 457.495,3523.9 457.495,3521.4"/>
            <path d="M457.495,3557.46C457.495,3554.97 455.483,3552.96 452.988,3552.96C450.494,3552.96 448.482,3554.97 448.482,3557.46C448.482,3559.96 450.494,3561.97 452.988,3561.97C455.483,3561.97 457.495,3559.96 457.495,3557.46"/>
        </g>
    </g>
    <g id="Switch-w.2f.Outline6">
        <g id="Drill38">
            <path d="M367.333,3466.52C367.333,3461.54 363.291,3457.5 358.312,3457.5C353.333,3457.5 349.291,3461.54 349.291,3466.52L349.291,3610.6C349.291,3615.58 353.333,3619.62 358.312,3619.62C363.291,3619.62 367.333,3615.58 367.333,3610.6L367.333,3466.52Z"/>
            <path d="M321.437,3664.84C321.437,3662.34 319.425,3660.33 316.93,3660.33C314.435,3660.33 312.423,3662.34 312.423,3664.84C312.423,3667.33 314.435,3669.35 316.93,3669.35C319.425,3669.35 321.437,3667.33 321.437,3664.84"/>
            <path d="M321.437,3700.9C321.437,3698.4 319.425,3696.39 316.93,3696.39C314.435,3696.39 312.423,3698.4 312.423,3700.9C312.423,3703.39 314.435,3705.4 316.93,3705.4C319.425,3705.4 321.437,3703.39 321.437,3700.9"/>
        </g>
    </g>
    <g id="Launcher">
        <g id="Drill39">
            <path d="M2164.5,4333.15C2164.44,4330.66 2162.37,4328.7 2159.88,4328.77C2157.39,4328.84 2155.43,4330.9 2155.49,4333.4C2155.56,4335.89 2157.63,4337.85 2160.12,4337.78C2162.61,4337.71 2164.57,4335.65 2164.5,4333.15"/>
            <path d="M2151.42,4179.28C2152.86,4177.25 2152.38,4174.44 2150.34,4173C2148.31,4171.57 2145.5,4172.05 2144.06,4174.09C2142.62,4176.12 2143.11,4178.93 2145.14,4180.37C2147.18,4181.81 2149.98,4181.32 2151.42,4179.28"/>
            <path d="M2152.31,4297.09C2152.24,4294.6 2150.18,4292.64 2147.68,4292.71C2145.2,4292.78 2143.23,4294.84 2143.3,4297.34C2143.37,4299.83 2145.44,4301.79 2147.93,4301.72C2150.42,4301.65 2152.38,4299.59 2152.31,4297.09"/>
            <path d="M2163.51,4143.1C2164.95,4141.06 2164.47,4138.26 2162.43,4136.82C2160.4,4135.38 2157.59,4135.86 2156.15,4137.9C2154.71,4139.94 2155.2,4142.74 2157.23,4144.18C2159.27,4145.62 2162.07,4145.14 2163.51,4143.1"/>
            <path d="M2164.05,3963.58C2165.49,3961.54 2165.01,3958.74 2162.97,3957.3C2160.94,3955.87 2158.12,3956.35 2156.69,3958.38C2155.25,3960.42 2155.74,3963.23 2157.77,3964.66C2159.81,3966.1 2162.61,3965.62 2164.05,3963.58"/>
            <path d="M2143.23,4028.57C2144.67,4026.53 2144.18,4023.73 2142.14,4022.29C2140.11,4020.85 2137.3,4021.33 2135.86,4023.37C2134.43,4025.41 2134.91,4028.22 2136.95,4029.65C2138.98,4031.09 2141.79,4030.61 2143.23,4028.57"/>
            <path d="M2037.51,3963.58C2038.95,3961.54 2038.47,3958.74 2036.43,3957.3C2034.4,3955.87 2031.59,3956.35 2030.15,3958.38C2028.71,3960.42 2029.2,3963.23 2031.23,3964.66C2033.27,3966.1 2036.08,3965.62 2037.51,3963.58"/>
            <path d="M2164.09,3927.56C2165.53,3925.52 2165.04,3922.72 2163,3921.28C2160.97,3919.85 2158.16,3920.32 2156.72,3922.36C2155.28,3924.4 2155.77,3927.21 2157.81,3928.64C2159.84,3930.08 2162.65,3929.6 2164.09,3927.56"/>
            <path d="M2037.55,3927.56C2038.99,3925.52 2038.51,3922.72 2036.47,3921.28C2034.44,3919.85 2031.63,3920.32 2030.19,3922.36C2028.75,3924.4 2029.24,3927.21 2031.27,3928.64C2033.31,3930.08 2036.11,3929.6 2037.55,3927.56"/>
        </g>
    </g>
    <g id="Shooter-Switch">
        <g id="Drill40">
            <path d="M2026.74,4094.95C2028.17,4092.91 2027.69,4090.1 2025.65,4088.66C2023.62,4087.23 2020.81,4087.71 2019.37,4089.75C2017.93,4091.79 2018.42,4094.59 2020.46,4096.03C2022.49,4097.47 2025.3,4096.98 2026.74,4094.95"/>
            <path d="M2026.71,4058.88C2028.14,4056.84 2027.66,4054.04 2025.62,4052.6C2023.59,4051.17 2020.78,4051.64 2019.34,4053.68C2017.9,4055.72 2018.39,4058.53 2020.42,4059.96C2022.46,4061.4 2025.27,4060.92 2026.71,4058.88"/>
        </g>
    </g>
    <g id="Trough">
        <g id="Drill41">
            <path d="M1278.49,4528.51C1281.79,4534.27 1289.12,4536.25 1294.87,4532.96L1294.87,4532.96L2007.78,4123.96L2007.77,4123.96C2013.52,4120.67 2015.51,4113.33 2012.21,4107.59L2012.21,4107.58L1958.48,4013.91L1958.47,4013.91C1955.18,4008.16 1947.84,4006.17 1942.1,4009.48L1229.19,4418.47C1223.45,4421.77 1221.46,4429.1 1224.76,4434.85L1224.76,4434.85L1278.49,4528.52L1278.49,4528.51Z"/>
            <path d="M1329.58,4552.25C1329.51,4549.76 1327.44,4547.8 1324.95,4547.87C1322.46,4547.94 1320.5,4550 1320.57,4552.5C1320.63,4554.99 1322.71,4556.95 1325.19,4556.88C1327.69,4556.81 1329.64,4554.75 1329.58,4552.25"/>
            <path d="M1651.58,4367.29C1651.51,4364.79 1649.45,4362.84 1646.95,4362.9C1644.47,4362.97 1642.5,4365.03 1642.57,4367.53C1642.64,4370.02 1644.71,4371.98 1647.2,4371.91C1649.69,4371.85 1651.65,4369.78 1651.58,4367.29"/>
            <path d="M1984.24,4227.88C1984.17,4225.39 1982.11,4223.43 1979.62,4223.5C1977.13,4223.57 1975.16,4225.63 1975.23,4228.13C1975.3,4230.62 1977.37,4232.58 1979.86,4232.51C1982.35,4232.44 1984.31,4230.38 1984.24,4227.88"/>
            <path d="M1842.84,3981.36C1842.77,3978.87 1840.71,3976.91 1838.22,3976.98C1835.73,3977.05 1833.76,3979.11 1833.83,3981.6C1833.9,3984.1 1835.97,3986.06 1838.46,3985.99C1840.95,3985.92 1842.91,3983.86 1842.84,3981.36"/>
            <path d="M1553.32,4195.75C1553.26,4193.25 1551.19,4191.3 1548.7,4191.36C1546.21,4191.43 1544.25,4193.5 1544.31,4195.99C1544.38,4198.48 1546.45,4200.44 1548.94,4200.37C1551.43,4200.31 1553.39,4198.24 1553.32,4195.75"/>
            <path d="M1231.09,4380.77C1231.02,4378.28 1228.95,4376.32 1226.46,4376.39C1223.97,4376.46 1222.01,4378.52 1222.08,4381.02C1222.14,4383.51 1224.22,4385.47 1226.7,4385.4C1229.2,4385.33 1231.15,4383.27 1231.09,4380.77"/>
            <path d="M1231.09,4380.77C1231.02,4378.28 1228.95,4376.32 1226.46,4376.39C1223.97,4376.46 1222.01,4378.52 1222.08,4381.02C1222.14,4383.51 1224.22,4385.47 1226.7,4385.4C1229.2,4385.33 1231.15,4383.27 1231.09,4380.77"/>
        </g>
    </g>
    <g id="T.-6-R-POST">
        <path id="Drill42" d="M798.234,3854.05C794.876,3841.7 776.337,3846.75 779.709,3859.1C783.06,3871.45 801.605,3866.4 798.234,3854.05Z"/>
    </g>
    <g id="T.-6-R-POST1">
        <path id="Drill43" d="M481.082,3631.06C477.724,3618.71 459.186,3623.76 462.557,3636.11C465.908,3648.46 484.454,3643.41 481.082,3631.06Z"/>
    </g>
    <g id="Flipper-Right">
        <g id="Drill44">
            <path d="M1293.02,4066C1295.52,4066 1297.53,4068.02 1297.53,4070.5C1297.53,4073 1295.52,4075.01 1293.02,4075.01C1290.54,4075.01 1288.52,4073 1288.52,4070.5C1288.52,4068.02 1290.54,4066 1293.02,4066"/>
        </g>
    </g>
    <g id="Spinner">
        <g id="Drill45">
            <path d="M2132.73,1771.59C2133.84,1769.36 2132.92,1766.66 2130.68,1765.56C2128.46,1764.45 2125.75,1765.37 2124.65,1767.6C2123.54,1769.83 2124.45,1772.53 2126.69,1773.64C2128.92,1774.74 2131.62,1773.82 2132.73,1771.59" style="stroke:black;stroke-width:0.74px;stroke-miterlimit:10;"/>
            <path d="M2142.95,1724.49C2144.05,1722.25 2143.14,1719.55 2140.91,1718.45C2138.68,1717.34 2135.97,1718.26 2134.87,1720.49C2133.77,1722.72 2134.68,1725.42 2136.91,1726.53C2139.14,1727.63 2141.84,1726.71 2142.95,1724.49" style="stroke:black;stroke-width:0.74px;stroke-miterlimit:10;"/>
        </g>
    </g>
    <g id="Spinner1">
        <g id="Drill46">
            <path d="M1959.24,1404.94C1960.89,1403.07 1960.69,1400.22 1958.81,1398.58C1956.94,1396.94 1954.09,1397.14 1952.45,1399.02C1950.82,1400.89 1951.01,1403.73 1952.88,1405.38C1954.75,1407.01 1957.6,1406.81 1959.24,1404.94" style="stroke:black;stroke-width:0.74px;stroke-miterlimit:10;"/>
            <path d="M1981.16,1362.01C1982.8,1360.13 1982.61,1357.29 1980.73,1355.65C1978.86,1354.01 1976.01,1354.21 1974.37,1356.08C1972.74,1357.95 1972.93,1360.8 1974.8,1362.44C1976.67,1364.08 1979.52,1363.88 1981.16,1362.01" style="stroke:black;stroke-width:0.74px;stroke-miterlimit:10;"/>
        </g>
    </g>
    <g id="Spinner2">
        <g id="Drill47">
            <path d="M318.247,1615.75C318.385,1618.24 320.519,1620.13 323.006,1619.99C325.491,1619.86 327.39,1617.72 327.246,1615.23C327.105,1612.75 324.978,1610.85 322.487,1610.99C320.006,1611.13 318.112,1613.27 318.247,1615.75" style="stroke:black;stroke-width:0.74px;stroke-miterlimit:10;"/>
            <path d="M332.624,1661.76C332.769,1664.25 334.896,1666.15 337.383,1666C339.868,1665.87 341.768,1663.73 341.623,1661.24C341.483,1658.76 339.355,1656.86 336.864,1657C334.383,1657.14 332.49,1659.28 332.624,1661.76" style="stroke:black;stroke-width:0.74px;stroke-miterlimit:10;"/>
        </g>
    </g>
    <g id="Hanger">
        <g id="T.-8">
            <path id="Drill48" d="M722.437,4603.3C722.443,4588.9 700.83,4588.9 700.837,4603.3C700.823,4617.7 722.443,4617.7 722.43,4603.31L722.437,4603.3Z"/>
        </g>
        <g id="T.-8-R">
            <path id="Drill49" d="M722.444,4507.31C722.45,4492.91 700.837,4492.91 700.844,4507.31C700.83,4521.7 722.45,4521.71 722.437,4507.31L722.444,4507.31Z" style="fill-rule:nonzero;"/>
        </g>
    </g>
    <g id="Hanger1">
        <g id="T.-81">
            <path id="Drill50" d="M1538.43,4603.3C1538.43,4588.9 1516.82,4588.9 1516.83,4603.3C1516.82,4617.7 1538.43,4617.7 1538.42,4603.31L1538.43,4603.3Z"/>
        </g>
        <g id="T.-8-R1">
            <path id="Drill51" d="M1538.43,4507.31C1538.44,4492.91 1516.83,4492.91 1516.84,4507.31C1516.82,4521.7 1538.44,4521.71 1538.43,4507.31L1538.43,4507.31Z"/>
        </g>
    </g>
    <g id="T.-82">
        <path id="Drill52" d="M516.325,4555.3C516.331,4540.9 494.718,4540.9 494.725,4555.3C494.711,4569.7 516.331,4569.7 516.318,4555.31L516.325,4555.3Z"/>
    </g>
    <g id="T.-83">
        <path id="Drill53" d="M1793.41,4555.68C1793.42,4541.28 1771.81,4541.28 1771.81,4555.68C1771.8,4570.08 1793.42,4570.09 1793.41,4555.69L1793.41,4555.68Z"/>
    </g>
    <g id="T.-6-R-POST2">
        <path id="Drill54" d="M1637.37,3854.05C1634.01,3841.7 1615.48,3846.75 1618.85,3859.09C1622.2,3871.45 1640.74,3866.39 1637.37,3854.05Z"/>
    </g>
    <g id="T.-6-R-POST3">
        <path id="Drill55" d="M1954.53,3631.06C1951.17,3618.71 1932.63,3623.76 1936.01,3636.11C1939.36,3648.46 1957.9,3643.41 1954.53,3631.06Z"/>
    </g>
    <g id="Switch-w.2f.Outline7">
        <g id="Drill56">
            <path d="M1430.54,457.973C1425.57,457.973 1421.52,462.015 1421.52,466.994C1421.52,471.973 1425.57,476.015 1430.54,476.015L1574.62,476.015C1579.6,476.015 1583.64,471.973 1583.64,466.994C1583.64,462.015 1579.6,457.973 1574.62,457.973L1430.54,457.973Z"/>
            <path d="M1628.86,503.869C1626.37,503.869 1624.35,505.881 1624.35,508.376C1624.35,510.87 1626.37,512.883 1628.86,512.883C1631.36,512.883 1633.37,510.87 1633.37,508.376C1633.37,505.881 1631.36,503.869 1628.86,503.869"/>
            <path d="M1664.92,503.869C1662.42,503.869 1660.41,505.881 1660.41,508.376C1660.41,510.87 1662.42,512.883 1664.92,512.883C1667.41,512.883 1669.43,510.87 1669.43,508.376C1669.43,505.881 1667.41,503.869 1664.92,503.869"/>
        </g>
    </g>
    <g id="T.-84">
        <path id="Drill57" d="M629.986,4433.58C629.993,4419.18 608.379,4419.18 608.386,4433.58C608.373,4447.97 629.993,4447.98 629.979,4433.58L629.986,4433.58Z"/>
    </g>
    <g id="T.-85">
        <path id="Drill58" d="M1685.15,4433.63C1685.16,4419.23 1663.54,4419.23 1663.55,4433.63C1663.54,4448.03 1685.16,4448.04 1685.14,4433.64L1685.15,4433.63Z"/>
    </g>
    <g id="Pop-Bumper-Spoon">
        <g id="Drill59">
            <path d="M1547.77,638.686C1550.2,639.203 1552.6,637.655 1553.12,635.223C1553.65,632.783 1552.09,630.39 1549.66,629.867C1547.23,629.35 1544.83,630.898 1544.31,633.34C1543.78,635.77 1545.34,638.169 1547.77,638.686"/>
            <path d="M1577.34,617.565C1579.77,618.082 1582.17,616.534 1582.69,614.102C1583.22,611.662 1581.66,609.269 1579.23,608.746C1576.8,608.229 1574.4,609.777 1573.88,612.219C1573.35,614.649 1574.91,617.048 1577.34,617.565"/>
        </g>
    </g>
    <g id="Pop-Bumper-Spoon1">
        <g id="Drill60">
            <path d="M1570.66,929.181C1572.9,928.107 1573.86,925.418 1572.78,923.176C1571.71,920.92 1569.02,919.972 1566.77,921.043C1564.53,922.117 1563.58,924.807 1564.65,927.058C1565.72,929.305 1568.42,930.255 1570.66,929.181"/>
            <path d="M1581.2,894.406C1583.44,893.332 1584.4,890.643 1583.32,888.401C1582.26,886.145 1579.56,885.197 1577.31,886.269C1575.07,887.342 1574.12,890.032 1575.2,892.283C1576.26,894.53 1578.96,895.48 1581.2,894.406"/>
        </g>
    </g>
    <g id="Pop-Bumper-Spoon2">
        <g id="Drill61">
            <path d="M1820.76,1009.7C1818.77,1011.2 1818.36,1014.02 1819.85,1016.01C1821.34,1018.01 1824.16,1018.42 1826.16,1016.93C1828.15,1015.43 1828.56,1012.61 1827.06,1010.61C1825.58,1008.62 1822.75,1008.21 1820.76,1009.7"/>
            <path d="M1817.22,1045.87C1815.23,1047.36 1814.82,1050.18 1816.31,1052.17C1817.8,1054.18 1820.62,1054.58 1822.62,1053.09C1824.61,1051.6 1825.02,1048.77 1823.52,1046.78C1822.04,1044.78 1819.21,1044.38 1817.22,1045.87"/>
        </g>
    </g>
    <g id="Pop-Bumper">
        <g id="Drill62">
            <path d="M1355.03,701.313C1350.8,709.211 1362.66,715.555 1366.88,707.653C1371.11,699.765 1359.25,693.421 1355.04,701.318L1355.03,701.313Z"/>
            <path d="M1323.48,816.86C1319.26,824.753 1331.11,831.092 1335.33,823.195C1339.56,815.302 1327.7,808.963 1323.49,816.86L1323.48,816.86Z"/>
            <path d="M1422.64,884.043C1418.41,891.936 1430.26,898.28 1434.49,890.383C1438.71,882.49 1426.86,876.146 1422.65,884.048L1422.64,884.043Z"/>
            <path d="M1473.09,837.141C1464.69,814.67 1430.95,827.312 1439.39,849.777C1447.79,872.247 1481.53,859.606 1473.09,837.141Z"/>
            <path d="M1426.76,713.561C1418.35,691.091 1384.62,703.738 1393.05,726.197C1401.46,748.667 1435.19,736.026 1426.76,713.561Z"/>
            <path d="M1438.04,813.491C1438.04,813.491 1442.39,812.606 1444.39,811.854C1461.02,805.622 1469.49,786.977 1463.26,770.348C1462.51,768.349 1460.38,764.466 1460.38,764.466C1463.64,759.716 1464.39,753.507 1462.34,748.047C1458.86,738.764 1448.45,734.031 1439.16,737.512C1433.7,739.559 1429.54,744.273 1428.1,749.847C1428.1,749.847 1423.76,750.729 1421.76,751.481C1405.13,757.716 1396.65,776.36 1402.88,792.984C1403.64,794.989 1405.76,798.872 1405.76,798.872C1402.51,803.619 1401.76,809.831 1403.81,815.291C1407.29,824.574 1417.7,829.306 1426.98,825.826C1432.44,823.779 1436.6,819.065 1438.04,813.491Z"/>
            <path d="M1393.37,760.469C1391.04,761.342 1389.86,763.937 1390.73,766.27C1391.6,768.595 1394.2,769.784 1396.52,768.911C1398.86,768.038 1400.04,765.45 1399.17,763.11C1398.3,760.784 1395.7,759.596 1393.37,760.469"/>
            <path d="M1469.54,795.267C1467.2,796.14 1466.02,798.735 1466.89,801.068C1467.76,803.394 1470.36,804.583 1472.69,803.709C1475.02,802.836 1476.2,800.248 1475.34,797.908C1474.46,795.582 1471.87,794.394 1469.54,795.267"/>
        </g>
    </g>
    <g id="Pop-Bumper1">
        <g id="Drill63">
            <path d="M1456.16,1096.39C1457.62,1105.23 1470.89,1103.03 1469.41,1094.19C1467.95,1085.36 1454.68,1087.57 1456.16,1096.4L1456.16,1096.39Z"/>
            <path d="M1501.66,1207.19C1503.12,1216.03 1516.38,1213.82 1514.91,1204.98C1513.44,1196.15 1500.18,1198.36 1501.66,1207.19L1501.66,1207.19Z"/>
            <path d="M1621.21,1199.93C1622.68,1208.76 1635.94,1206.56 1634.46,1197.72C1633,1188.89 1619.74,1191.09 1621.22,1199.93L1621.21,1199.93Z"/>
            <path d="M1632.57,1131.99C1612.2,1119.31 1593.18,1149.91 1613.57,1162.56C1633.94,1175.23 1652.96,1144.64 1632.57,1131.99Z"/>
            <path d="M1520.46,1062.34C1500.09,1049.66 1481.08,1080.27 1501.46,1092.91C1521.83,1105.59 1540.85,1074.99 1520.46,1062.34Z"/>
            <path d="M1590.37,1134.63C1590.37,1134.63 1593.27,1131.28 1594.4,1129.46C1603.77,1114.38 1599.11,1094.43 1584.03,1085.06C1582.21,1083.94 1578.16,1082.15 1578.16,1082.15C1577.84,1076.41 1574.64,1071.03 1569.69,1067.95C1561.27,1062.72 1550.13,1065.32 1544.9,1073.75C1541.83,1078.7 1541.4,1084.97 1543.66,1090.27C1543.66,1090.27 1540.76,1093.62 1539.63,1095.43C1530.26,1110.52 1534.92,1130.46 1550,1139.83C1551.82,1140.96 1555.87,1142.74 1555.87,1142.74C1556.19,1148.49 1559.39,1153.87 1564.34,1156.94C1572.76,1162.18 1583.9,1159.57 1589.13,1151.15C1592.21,1146.2 1592.63,1139.92 1590.37,1134.63Z"/>
            <path d="M1522.62,1119.88C1521.31,1121.99 1521.96,1124.77 1524.07,1126.08C1526.18,1127.4 1528.96,1126.75 1530.27,1124.64C1531.59,1122.53 1530.95,1119.75 1528.83,1118.43C1526.72,1117.12 1523.94,1117.76 1522.62,1119.88"/>
            <path d="M1604.2,1100.98C1602.89,1103.09 1603.54,1105.87 1605.65,1107.18C1607.76,1108.5 1610.54,1107.85 1611.85,1105.74C1613.17,1103.62 1612.52,1100.86 1610.41,1099.53C1608.3,1098.22 1605.52,1098.86 1604.2,1100.98"/>
        </g>
    </g>
    <g id="Pop-Bumper2">
        <g id="Drill64">
            <path d="M1900.36,823.33C1897.19,814.949 1884.61,819.708 1887.79,828.082C1890.95,836.457 1903.53,831.698 1900.35,823.331L1900.36,823.33Z"/>
            <path d="M1834.07,723.567C1830.9,715.192 1818.33,719.95 1821.51,728.325C1824.67,736.7 1837.24,731.941 1834.06,723.574L1834.07,723.567Z"/>
            <path d="M1718.25,754.069C1715.08,745.694 1702.51,750.446 1705.68,758.82C1708.85,767.195 1721.42,762.443 1718.24,754.069L1718.25,754.069Z"/>
            <path d="M1720.39,822.919C1742.85,831.368 1755.51,797.643 1733.04,789.222C1710.59,780.773 1697.92,814.498 1720.39,822.919Z"/>
            <path d="M1843.95,869.3C1866.41,877.75 1879.07,844.022 1856.6,835.604C1834.15,827.154 1821.48,860.879 1843.95,869.3Z"/>
            <path d="M1761.26,812.073C1761.26,812.073 1759.07,815.93 1758.31,817.935C1752.08,834.556 1760.54,853.203 1777.17,859.445C1779.17,860.195 1783.49,861.15 1783.49,861.15C1784.93,866.725 1789.12,871.371 1794.57,873.42C1803.86,876.905 1814.27,872.176 1817.75,862.895C1819.8,857.435 1818.99,851.2 1815.74,846.449C1815.74,846.449 1817.93,842.598 1818.68,840.594C1824.92,823.967 1816.45,805.319 1799.83,799.08C1797.83,798.327 1793.5,797.373 1793.5,797.373C1792.06,791.804 1787.88,787.151 1782.42,785.102C1773.14,781.618 1762.73,786.346 1759.24,795.628C1757.19,801.087 1758.01,807.323 1761.26,812.073Z"/>
            <path d="M1830.58,813.299C1831.46,810.968 1830.28,808.371 1827.95,807.494C1825.63,806.617 1823.02,807.795 1822.15,810.122C1821.27,812.453 1822.44,815.045 1824.78,815.932C1827.1,816.804 1829.7,815.631 1830.58,813.299"/>
            <path d="M1754.27,847.784C1755.15,845.452 1753.97,842.856 1751.64,841.979C1749.32,841.102 1746.71,842.28 1745.84,844.606C1744.96,846.938 1746.13,849.529 1748.47,850.417C1750.79,851.289 1753.39,850.116 1754.27,847.784"/>
        </g>
    </g>
    <g id="M.-Shape">
        <g id="Drill65">
            <circle cx="426.397" cy="3443.98" r="5.94"/>
            <circle cx="426.389" cy="3299.87" r="5.94"/>
        </g>
    </g>
    <g id="M.-Shape1">
        <g id="Drill66">
            <circle cx="553.775" cy="3487.32" r="5.94"/>
            <circle cx="553.767" cy="3343.21" r="5.94"/>
        </g>
    </g>
    <g id="M.-Shape2">
        <g id="Drill67">
            <circle cx="1863.26" cy="3487.31" r="5.94"/>
            <circle cx="1863.26" cy="3343.2" r="5.94"/>
        </g>
    </g>
    <g id="M.-Shape3">
        <g id="Drill68">
            <circle cx="1990.75" cy="3443.84" r="5.94"/>
            <circle cx="1990.74" cy="3299.73" r="5.94"/>
        </g>
    </g>
    <g id="M.-Shape4">
        <g id="Drill69">
            <circle cx="2023.4" cy="3443.84" r="5.94"/>
            <circle cx="2023.39" cy="3299.73" r="5.94"/>
        </g>
    </g>
    <g id="M.-Shape5">
        <g id="Drill70">
            <circle cx="2023.4" cy="3629.93" r="5.94"/>
            <circle cx="2023.39" cy="3485.82" r="5.94"/>
        </g>
    </g>
    <g id="M.-Shape6">
        <g id="Drill71">
            <circle cx="2023.39" cy="3978.01" r="5.94"/>
            <circle cx="2023.39" cy="3833.89" r="5.94"/>
        </g>
    </g>
    <g id="M.-Shape7">
        <g id="Drill72">
            <path d="M2018.1,3807.64C2016.25,3804.94 2016.94,3801.24 2019.64,3799.38C2022.35,3797.53 2026.05,3798.22 2027.9,3800.93C2029.75,3803.64 2029.06,3807.33 2026.36,3809.19C2023.65,3811.04 2019.95,3810.35 2018.1,3807.64Z"/>
            <path d="M1899.19,3889.07C1897.34,3886.36 1898.04,3882.66 1900.74,3880.81C1903.44,3878.96 1907.14,3879.65 1909,3882.35C1910.85,3885.06 1910.16,3888.76 1907.45,3890.61C1904.75,3892.46 1901.05,3891.77 1899.19,3889.07Z"/>
        </g>
    </g>
    <g id="M.-Shape8">
        <g id="Drill73">
            <path d="M406.848,2606.44C409.581,2604.63 413.27,2605.38 415.079,2608.11C416.889,2610.84 416.138,2614.53 413.404,2616.34C410.671,2618.15 406.982,2617.4 405.173,2614.67C403.364,2611.93 404.114,2608.24 406.848,2606.44Z"/>
            <path d="M327.301,2486.27C330.034,2484.46 333.723,2485.21 335.532,2487.94C337.342,2490.68 336.591,2494.36 333.857,2496.17C331.124,2497.98 327.435,2497.23 325.626,2494.5C323.817,2491.76 324.567,2488.08 327.301,2486.27Z"/>
        </g>
    </g>
    <g id="M.-Shape9">
        <g id="Drill74">
            <circle cx="330.577" cy="2461.78" r="5.94"/>
            <circle cx="330.57" cy="2317.67" r="5.94"/>
        </g>
    </g>
    <g id="M.-Shape10">
        <g id="Drill75">
            <path d="M530.891,2328.69C533.741,2327.07 537.37,2328.07 538.989,2330.92C540.609,2333.77 539.609,2337.4 536.759,2339.01C533.908,2340.63 530.279,2339.64 528.66,2336.78C527.041,2333.93 528.04,2330.3 530.891,2328.69Z"/>
            <path d="M459.701,2203.39C462.552,2201.77 466.181,2202.76 467.8,2205.62C469.419,2208.47 468.42,2212.1 465.569,2213.71C462.719,2215.33 459.09,2214.33 457.471,2211.48C455.851,2208.63 456.851,2205 459.701,2203.39Z"/>
        </g>
    </g>
    <g id="M.-Shape11">
        <g id="Drill76">
            <path d="M1705.49,1362.18C1708.22,1363.99 1708.97,1367.68 1707.16,1370.42C1705.35,1373.15 1701.66,1373.9 1698.93,1372.09C1696.2,1370.28 1695.45,1366.59 1697.26,1363.86C1699.06,1361.13 1702.75,1360.38 1705.49,1362.18Z"/>
            <path d="M1785.02,1242C1787.75,1243.81 1788.5,1247.5 1786.69,1250.24C1784.88,1252.97 1781.19,1253.72 1778.46,1251.91C1775.73,1250.1 1774.98,1246.41 1776.78,1243.68C1778.59,1240.95 1782.28,1240.19 1785.02,1242Z"/>
        </g>
    </g>
    <g id="M.-Shape12">
        <g id="Drill77">
            <path d="M1790.51,1225.87C1793.44,1227.33 1794.63,1230.9 1793.16,1233.84C1791.7,1236.77 1788.13,1237.96 1785.19,1236.49C1782.26,1235.03 1781.07,1231.45 1782.54,1228.52C1784.01,1225.59 1787.58,1224.4 1790.51,1225.87Z"/>
            <path d="M1854.96,1096.97C1857.89,1098.44 1859.09,1102.01 1857.62,1104.94C1856.15,1107.87 1852.58,1109.06 1849.65,1107.6C1846.72,1106.13 1845.53,1102.56 1846.99,1099.63C1848.46,1096.7 1852.03,1095.51 1854.96,1096.97Z"/>
        </g>
    </g>
    <g id="M.-Shape13">
        <g id="Drill78">
            <path d="M1509.99,1333.82C1512.38,1336.06 1512.51,1339.82 1510.28,1342.21C1508.04,1344.61 1504.28,1344.74 1501.88,1342.5C1499.49,1340.27 1499.36,1336.51 1501.59,1334.11C1503.83,1331.71 1507.59,1331.58 1509.99,1333.82Z"/>
            <path d="M1608.3,1228.45C1610.7,1230.69 1610.83,1234.45 1608.59,1236.85C1606.36,1239.24 1602.59,1239.37 1600.2,1237.14C1597.8,1234.9 1597.67,1231.14 1599.91,1228.74C1602.14,1226.34 1605.9,1226.21 1608.3,1228.45Z"/>
        </g>
    </g>
    <g id="M.-Shape14">
        <g id="Drill79">
            <path d="M1327.9,1236.07C1329.91,1238.65 1329.45,1242.39 1326.86,1244.4C1324.28,1246.42 1320.54,1245.95 1318.53,1243.37C1316.51,1240.78 1316.98,1237.04 1319.56,1235.03C1322.15,1233.02 1325.89,1233.48 1327.9,1236.07Z"/>
            <path d="M1441.61,1147.53C1443.62,1150.11 1443.15,1153.85 1440.57,1155.86C1437.98,1157.88 1434.25,1157.41 1432.23,1154.83C1430.22,1152.24 1430.68,1148.5 1433.27,1146.49C1435.86,1144.48 1439.59,1144.94 1441.61,1147.53Z"/>
        </g>
    </g>
    <g id="Flipper-Left">
        <g id="Drill80">
            <path d="M1124.97,4065.96C1122.48,4065.96 1120.46,4067.97 1120.46,4070.46C1120.46,4072.96 1122.48,4074.97 1124.97,4074.97C1127.46,4074.97 1129.48,4072.96 1129.48,4070.46C1129.48,4067.97 1127.46,4065.96 1124.97,4065.96"/>
        </g>
    </g>
    <g id="Flipper-Left1">
        <g id="Drill81">
            <path d="M586.253,2352.98C584.183,2351.59 581.386,2352.14 579.999,2354.2C578.608,2356.28 579.155,2359.07 581.226,2360.46C583.291,2361.85 586.089,2361.3 587.48,2359.23C588.868,2357.17 588.318,2354.36 586.253,2352.98"/>
        </g>
    </g>
    <g id="T.-6-Post-Narrow">
        <path id="Drill82" d="M346.642,2859.97C343.284,2847.62 324.745,2852.67 328.117,2865.02C331.468,2877.37 350.013,2872.32 346.642,2859.97Z"/>
    </g>
    <g id="T.-6-Post-Narrow1">
        <path id="Drill83" d="M428.768,3011.58C425.41,2999.23 406.872,3004.28 410.244,3016.63C413.595,3028.98 432.14,3023.93 428.768,3011.58Z"/>
    </g>
    <g id="T.-6-Post-Narrow2">
        <path id="Drill84" d="M388.496,3062.34C385.138,3049.99 366.6,3055.04 369.971,3067.39C373.322,3079.74 391.868,3074.69 388.496,3062.34Z"/>
    </g>
    <g id="T.-6-Post-Narrow3">
        <path id="Drill85" d="M726.09,3291.03C722.732,3278.67 704.194,3283.72 707.566,3296.07C710.917,3308.43 729.462,3303.37 726.09,3291.03Z"/>
    </g>
    <g id="T.-6-Post-Narrow4">
        <path id="Drill86" d="M726.115,3554.92C722.757,3542.57 704.218,3547.62 707.59,3559.97C710.941,3572.33 729.486,3567.27 726.115,3554.92Z"/>
    </g>
    <g id="T.-6-Post-Narrow5">
        <path id="Drill87" d="M845.771,3638.52C842.413,3626.16 823.875,3631.22 827.246,3643.56C830.597,3655.92 849.143,3650.87 845.771,3638.52Z"/>
    </g>
    <g id="T.-6-Post-Narrow6">
        <path id="Drill88" d="M1710.35,3291.03C1707,3278.68 1688.46,3283.73 1691.83,3296.08C1695.18,3308.43 1713.73,3303.38 1710.35,3291.03Z"/>
    </g>
    <g id="T.-6-Post-Narrow7">
        <path id="Drill89" d="M1709.86,3554.62C1706.51,3542.26 1687.97,3547.32 1691.34,3559.66C1694.69,3572.02 1713.23,3566.97 1709.86,3554.62Z"/>
    </g>
    <g id="T.-6-Post-Narrow8">
        <path id="Drill90" d="M1589.88,3638.54C1586.53,3626.18 1567.99,3631.24 1571.36,3643.58C1574.71,3655.94 1593.26,3650.88 1589.88,3638.54Z"/>
    </g>
    <g id="T.-6-Post-Narrow9">
        <path id="Drill91" d="M2068.4,2861.74C2065.04,2849.39 2046.5,2854.44 2049.87,2866.79C2053.22,2879.14 2071.77,2874.09 2068.4,2861.74Z"/>
    </g>
    <g id="T.-6-Post-Narrow10">
        <path id="Drill92" d="M2104.96,2915.19C2101.6,2902.84 2083.06,2907.89 2086.43,2920.24C2089.79,2932.59 2108.33,2927.54 2104.96,2915.19Z"/>
    </g>
    <g id="T.-6-Post-Narrow11">
        <path id="Drill93" d="M2012.14,3060.56C2008.78,3048.21 1990.24,3053.26 1993.61,3065.61C1996.97,3077.96 2015.51,3072.91 2012.14,3060.56Z"/>
    </g>
    <g id="T.-6-Post-Narrow12">
        <path id="Drill94" d="M1957.55,2402.59C1954.19,2390.24 1935.65,2395.29 1939.02,2407.64C1942.37,2419.99 1960.92,2414.93 1957.55,2402.59Z"/>
    </g>
    <g id="T.-6-Post-Narrow13">
        <path id="Drill95" d="M2022.92,2361.33C2019.57,2348.98 2001.03,2354.03 2004.4,2366.38C2007.75,2378.73 2026.3,2373.68 2022.92,2361.33Z"/>
    </g>
    <g id="T.-6-Post-Narrow14">
        <path id="Drill96" d="M2070.19,2043.55C2066.84,2031.2 2048.3,2036.25 2051.67,2048.6C2055.02,2060.95 2073.57,2055.9 2070.19,2043.55Z"/>
    </g>
    <g id="T.-6-Post-Narrow15">
        <path id="Drill97" d="M324.462,2266.97C321.104,2254.62 302.566,2259.67 305.937,2272.02C309.288,2284.37 327.834,2279.32 324.462,2266.97Z"/>
    </g>
    <g id="T.-6-Post-Narrow16">
        <path id="Drill98" d="M353.063,2207.8C349.705,2195.45 331.166,2200.5 334.538,2212.85C337.889,2225.2 356.435,2220.15 353.063,2207.8Z"/>
    </g>
    <g id="T.-6-Post-Narrow17">
        <path id="Drill99" d="M415.827,2191.16C412.469,2178.81 393.931,2183.86 397.303,2196.21C400.654,2208.56 419.199,2203.51 415.827,2191.16Z"/>
    </g>
    <g id="T.-6-Post-Narrow18">
        <path id="Drill100" d="M1890.74,947.944C1887.38,935.593 1868.84,940.643 1872.22,952.991C1875.57,965.345 1894.11,960.292 1890.74,947.944Z"/>
    </g>
    <g id="T.-6-Post-Narrow19">
        <path id="Drill101" d="M1849,1062.59C1845.64,1050.24 1827.1,1055.29 1830.47,1067.64C1833.82,1079.99 1852.37,1074.94 1849,1062.59Z"/>
    </g>
    <g id="Trough-Guard">
        <g id="Drill102">
            <path d="M933.775,4360.27C931.287,4360.27 929.273,4362.28 929.273,4364.77C929.273,4367.26 931.287,4369.28 933.775,4369.28C936.264,4369.28 938.277,4367.26 938.277,4364.77C938.277,4362.28 936.264,4360.27 933.775,4360.27"/>
            <path d="M904.283,4338.97C901.794,4338.97 899.781,4340.98 899.781,4343.47C899.781,4345.96 901.794,4347.98 904.283,4347.98C906.771,4347.98 908.785,4345.96 908.785,4343.47C908.785,4340.98 906.771,4338.97 904.283,4338.97"/>
            <path d="M1313.07,4560.16C1310.58,4560.16 1308.57,4562.17 1308.57,4564.66C1308.57,4567.15 1310.58,4569.17 1313.07,4569.17C1315.56,4569.17 1317.57,4567.15 1317.57,4564.66C1317.57,4562.17 1315.56,4560.16 1313.07,4560.16"/>
            <path d="M1437.59,4488.07C1435.1,4488.07 1433.09,4490.08 1433.09,4492.57C1433.09,4495.06 1435.1,4497.08 1437.59,4497.08C1440.08,4497.08 1442.09,4495.06 1442.09,4492.57C1442.09,4490.08 1440.08,4488.07 1437.59,4488.07"/>
        </g>
    </g>
</svg>
