<?xml version="1.0" encoding="UTF-8" standalone="no"?>
<!DOCTYPE svg PUBLIC "-//W3C//DTD SVG 1.1//EN" "http://www.w3.org/Graphics/SVG/1.1/DTD/svg11.dtd">
<svg width="4544px" height="5760px" version="1.1" xmlns="http://www.w3.org/2000/svg" xmlns:xlink="http://www.w3.org/1999/xlink" xml:space="preserve" style="fill-rule:evenodd;clip-rule:evenodd;stroke-miterlimit:2.613;">
    <g clip-path="url(#_clip2)">
        <g id="Launcher">
            <g id="Drill">
                <path d="M2164.5,4463.89C2164.44,4461.4 2162.37,4459.44 2159.88,4459.51C2157.39,4459.57 2155.43,4461.64 2155.49,4464.13C2155.56,4466.63 2157.63,4468.59 2160.12,4468.52C2162.61,4468.45 2164.57,4466.39 2164.5,4463.89"/>
                <path d="M2151.42,4310.02C2152.86,4307.98 2152.38,4305.18 2150.34,4303.74C2148.31,4302.31 2145.5,4302.78 2144.06,4304.82C2142.62,4306.86 2143.11,4309.67 2145.14,4311.1C2147.18,4312.54 2149.98,4312.06 2151.42,4310.02"/>
                <path d="M2152.31,4427.83C2152.24,4425.34 2150.18,4423.38 2147.68,4423.45C2145.2,4423.51 2143.23,4425.58 2143.3,4428.07C2143.37,4430.57 2145.44,4432.52 2147.93,4432.46C2150.42,4432.39 2152.38,4430.32 2152.31,4427.83"/>
                <path d="M2163.51,4273.83C2164.95,4271.8 2164.47,4268.99 2162.43,4267.55C2160.4,4266.12 2157.59,4266.6 2156.15,4268.64C2154.71,4270.67 2155.2,4273.48 2157.23,4274.92C2159.27,4276.36 2162.07,4275.87 2163.51,4273.83"/>
                <path d="M2164.05,4094.32C2165.49,4092.28 2165.01,4089.48 2162.97,4088.04C2160.94,4086.6 2158.12,4087.08 2156.69,4089.12C2155.25,4091.16 2155.74,4093.97 2157.77,4095.4C2159.81,4096.84 2162.61,4096.36 2164.05,4094.32"/>
                <path d="M2143.23,4159.31C2144.67,4157.27 2144.18,4154.46 2142.14,4153.02C2140.11,4151.59 2137.3,4152.07 2135.86,4154.11C2134.43,4156.15 2134.91,4158.95 2136.95,4160.39C2138.98,4161.83 2141.79,4161.34 2143.23,4159.31"/>
                <path d="M2037.51,4094.32C2038.95,4092.28 2038.47,4089.48 2036.43,4088.04C2034.4,4086.6 2031.59,4087.08 2030.15,4089.12C2028.71,4091.16 2029.2,4093.97 2031.23,4095.4C2033.27,4096.84 2036.08,4096.36 2037.51,4094.32"/>
                <path d="M2164.09,4058.3C2165.53,4056.26 2165.04,4053.45 2163,4052.02C2160.97,4050.58 2158.16,4051.06 2156.72,4053.1C2155.28,4055.14 2155.77,4057.95 2157.81,4059.38C2159.84,4060.82 2162.65,4060.34 2164.09,4058.3"/>
                <path d="M2037.55,4058.3C2038.99,4056.26 2038.51,4053.45 2036.47,4052.02C2034.44,4050.58 2031.63,4051.06 2030.19,4053.1C2028.75,4055.14 2029.24,4057.95 2031.27,4059.38C2033.31,4060.82 2036.11,4060.34 2037.55,4058.3"/>
            </g>
        </g>
        <g id="T.-6-R-PlasMet-POST">
            <g id="Drill1">
                <path d="M326.542,2729.93C326.535,2742.41 345.269,2742.41 345.262,2729.93C345.276,2717.45 326.535,2717.45 326.542,2729.93Z"/>
            </g>
        </g>
        <g id="T.-6-R-PlasMet-POST1">
            <g id="Drill2">
                <path d="M271.327,1790C271.32,1802.48 290.054,1802.48 290.047,1790C290.061,1777.52 271.32,1777.52 271.327,1790Z"/>
            </g>
        </g>
        <g id="T.-6-R-PlasMet-POST2">
            <g id="Drill3">
                <path d="M383.421,2098.55C383.414,2111.03 402.148,2111.03 402.141,2098.55C402.155,2086.07 383.414,2086.07 383.421,2098.55Z"/>
            </g>
        </g>
        <g id="T.-6-R-PlasMet-POST3">
            <g id="Drill4">
                <path d="M316.943,2219.2C316.936,2231.68 335.67,2231.68 335.663,2219.2C335.677,2206.72 316.936,2206.72 316.943,2219.2Z"/>
            </g>
        </g>
        <g id="T.-6-R-PlasMet-POST4">
            <g id="Drill5">
                <path d="M2062.85,3189.33C2062.84,3201.81 2081.57,3201.81 2081.57,3189.33C2081.58,3176.85 2062.84,3176.85 2062.85,3189.33Z"/>
            </g>
        </g>
        <g id="T.-6-R-PlasMet-POST5">
            <g id="Drill6">
                <path d="M2109.83,3241.07C2109.83,3253.55 2128.56,3253.55 2128.55,3241.07C2128.57,3228.59 2109.83,3228.59 2109.83,3241.07Z"/>
            </g>
        </g>
        <g id="T.-6-R-PlasMet-POST6">
            <g id="Drill7">
                <path d="M1935.91,3764.32C1935.9,3776.8 1954.63,3776.8 1954.63,3764.32C1954.64,3751.84 1935.9,3751.84 1935.91,3764.32Z"/>
            </g>
        </g>
        <g id="T.-6-R-PlasMet-POST7">
            <g id="Drill8">
                <path d="M1618.75,3987.31C1618.74,3999.79 1637.48,3999.79 1637.47,3987.31C1637.48,3974.83 1618.74,3974.83 1618.75,3987.31Z"/>
            </g>
        </g>
        <g id="T.-6-R-PlasMet-POST8">
            <g id="Drill9">
                <path d="M779.611,3987.31C779.604,3999.79 798.338,3999.79 798.331,3987.31C798.345,3974.83 779.604,3974.83 779.611,3987.31Z"/>
            </g>
        </g>
        <g id="T.-6-R-PlasMet-POST9">
            <g id="Drill10">
                <path d="M462.459,3764.32C462.452,3776.8 481.186,3776.8 481.179,3764.32C481.193,3751.84 462.452,3751.84 462.459,3764.32Z"/>
            </g>
        </g>
        <g id="Sides">
            <g id="Drill11">
                <path d="M274.315,3173.94C270.922,3173.94 268.168,3176.7 268.168,3180.09C268.168,3183.48 270.922,3186.24 274.315,3186.24C277.708,3186.24 280.463,3183.48 280.463,3180.09C280.463,3176.7 277.708,3173.94 274.315,3173.94" style="fill-rule:nonzero;"/>
                <path d="M274.315,3567.31C270.922,3567.31 268.168,3570.06 268.168,3573.45C268.168,3576.85 270.922,3579.6 274.315,3579.6C277.708,3579.6 280.463,3576.85 280.463,3573.45C280.463,3570.06 277.708,3567.31 274.315,3567.31" style="fill-rule:nonzero;"/>
                <path d="M274.315,3955.76C270.922,3955.76 268.168,3958.51 268.168,3961.9C268.168,3965.3 270.922,3968.05 274.315,3968.05C277.708,3968.05 280.463,3965.3 280.463,3961.9C280.463,3958.51 277.708,3955.76 274.315,3955.76" style="fill-rule:nonzero;"/>
                <path d="M2170.67,4288.48C2167.28,4288.48 2164.52,4291.23 2164.52,4294.63C2164.52,4298.02 2167.28,4300.77 2170.67,4300.77C2174.06,4300.77 2176.82,4298.02 2176.82,4294.63C2176.82,4291.23 2174.06,4288.48 2170.67,4288.48" style="fill-rule:nonzero;"/>
                <path d="M2170.67,3707.44C2167.28,3707.44 2164.52,3710.2 2164.52,3713.59C2164.52,3716.98 2167.28,3719.74 2170.67,3719.74C2174.06,3719.74 2176.82,3716.98 2176.82,3713.59C2176.82,3710.2 2174.06,3707.44 2170.67,3707.44" style="fill-rule:nonzero;"/>
                <path d="M2170.67,3057.57C2167.28,3057.57 2164.52,3060.32 2164.52,3063.72C2164.52,3067.11 2167.28,3069.86 2170.67,3069.86C2174.06,3069.86 2176.82,3067.11 2176.82,3063.72C2176.82,3060.32 2174.06,3057.57 2170.67,3057.57" style="fill-rule:nonzero;"/>
                <path d="M2170.67,1787.32C2167.28,1787.32 2164.52,1790.08 2164.52,1793.47C2164.52,1796.87 2167.28,1799.62 2170.67,1799.62C2174.06,1799.62 2176.82,1796.87 2176.82,1793.47C2176.82,1790.08 2174.06,1787.32 2170.67,1787.32" style="fill-rule:nonzero;"/>
                <path d="M2170.67,2438.84C2167.28,2438.84 2164.52,2441.59 2164.52,2444.98C2164.52,2448.38 2167.28,2451.13 2170.67,2451.13C2174.06,2451.13 2176.82,2448.38 2176.82,2444.98C2176.82,2441.59 2174.06,2438.84 2170.67,2438.84" style="fill-rule:nonzero;"/>
            </g>
        </g>
        <g id="Adj-Post-Chan">
            <g id="Drill12">
                <path d="M331.152,3237.01C333.737,3235.61 336.696,3234.82 339.84,3234.82C342.984,3234.82 345.943,3235.61 348.528,3237.01L348.528,3338.35C345.943,3339.75 342.984,3340.55 339.84,3340.55C336.696,3340.55 333.737,3339.75 331.152,3338.35L331.152,3237.01Z"/>
            </g>
        </g>
        <g id="Playfield-Outline-.--Top-Bottom-Sticker-Drill-Rout-Plastic-Bevel-Art-Assembly-Rubber-Todo">
            <path d="M250.028,382.57L2193.89,382.57L2193.89,4510.83L2133.9,4510.83L2133.9,4408.84L2133.89,4408.84C2133.89,4402.23 2128.51,4396.84 2121.89,4396.84L2091.95,4396.84L2092.01,4221.88L2092,4221.87C2092,4216.92 2087.96,4212.88 2083.01,4212.88C2078.05,4212.88 2074.01,4216.92 2074.01,4221.87L2074.01,4221.88L2074.06,4396.84L2013.9,4396.84C2007.29,4396.84 2001.91,4402.23 2001.91,4408.84L2001.91,4799.99L1329.95,4799.99L1105.57,4532.58L1105.56,4532.54C1101.06,4527.19 1094.21,4524.01 1087.18,4524.01L771.991,4524.01C758.778,4524.01 747.992,4534.79 747.992,4548L747.992,4799.99L551.237,4799.99L375.011,4647.61L375.011,4549.55C375.011,4536.34 364.232,4525.56 351.012,4525.56L250.028,4525.56L250.028,382.57Z" style="fill:none;stroke:rgb(35,31,32);stroke-width:1.11px;stroke-linecap:round;stroke-linejoin:round;"/>
        </g>
        <g id="Playfield-Guides-.--Top-Bottom-Sticker-Drill-Rout-Plastic-Bevel-Art-Assembly-Rubber-Todo">
            <path d="M433.899,4799.99L225.12,4799.99" style="fill:none;stroke:rgb(35,31,32);stroke-width:1.11px;stroke-linecap:round;stroke-linejoin:round;"/>
            <path d="M2210.9,4799.99L2099.49,4799.99" style="fill:none;stroke:rgb(35,31,32);stroke-width:1.11px;stroke-linecap:round;stroke-linejoin:round;"/>
            <path d="M2194.03,4817.86L2194.03,4763.96" style="fill:none;stroke:black;stroke-width:0.74px;stroke-linecap:round;stroke-linejoin:round;stroke-miterlimit:10;"/>
            <path d="M250.14,4823.45L250.14,4758.68" style="fill:none;stroke:black;stroke-width:0.74px;stroke-linecap:round;stroke-linejoin:round;stroke-miterlimit:10;"/>
        </g>
        <g id="Sling-Right">
            <g id="Drill13">
                <path d="M1944.05,2342.83C1948.32,2329.22 1962.83,2321.65 1976.43,2325.92L2051.12,2349.37C2064.72,2353.64 2072.3,2368.15 2068.03,2381.75C2063.76,2395.35 2049.25,2402.93 2035.65,2398.66L1960.96,2375.2C1947.36,2370.93 1939.78,2356.43 1944.05,2342.83Z"/>
                <path d="M2001.62,2244.2C2003.67,2237.68 2010.63,2234.06 2017.15,2236.11L2044.08,2244.59C2050.6,2246.64 2054.22,2253.6 2052.17,2260.11L2044.74,2283.73C2042.68,2290.25 2035.73,2293.87 2029.21,2291.82L2002.28,2283.34C1995.76,2281.29 1992.13,2274.33 1994.19,2267.81L2001.62,2244.2Z"/>
                <path d="M1941.69,2433.45C1943.83,2426.66 1951.09,2422.88 1957.89,2425.02L1984.08,2433.26C1990.87,2435.4 1994.65,2442.66 1992.52,2449.46L1984.76,2474.09C1982.62,2480.89 1975.36,2484.67 1968.56,2482.53L1942.38,2474.28C1935.58,2472.14 1931.8,2464.89 1933.94,2458.09L1941.69,2433.45Z"/>
                <path d="M1909.96,2411.92C1907.47,2412.01 1905.52,2414.09 1905.61,2416.58C1905.69,2419.07 1907.77,2421.01 1910.26,2420.93C1912.75,2420.85 1914.7,2418.77 1914.62,2416.28C1914.53,2413.79 1912.45,2411.84 1909.96,2411.92"/>
                <path d="M1958.46,2257.31C1955.97,2257.4 1954.03,2259.48 1954.11,2261.97C1954.19,2264.46 1956.27,2266.41 1958.76,2266.32C1961.26,2266.24 1963.2,2264.16 1963.12,2261.67C1963.04,2259.18 1960.96,2257.23 1958.46,2257.31"/>
                <path d="M1979.68,2399.28C1977.18,2399.36 1975.24,2401.45 1975.32,2403.93C1975.4,2406.43 1977.48,2408.37 1979.98,2408.29C1982.47,2408.2 1984.41,2406.13 1984.33,2403.63C1984.25,2401.15 1982.17,2399.2 1979.68,2399.28"/>
            </g>
        </g>
        <g id="Sling-Right1">
            <g id="Drill14">
                <path d="M1584.42,3567.94C1589.14,3554.49 1603.89,3547.4 1617.34,3552.12L1691.22,3578.03C1704.67,3582.75 1711.76,3597.51 1707.04,3610.96C1702.32,3624.41 1687.57,3631.5 1674.12,3626.78L1600.24,3600.86C1586.79,3596.14 1579.7,3581.39 1584.42,3567.94Z"/>
                <path d="M1645.23,3471.28C1647.5,3464.83 1654.57,3461.44 1661.01,3463.7L1687.65,3473.07C1694.1,3475.34 1697.49,3482.41 1695.22,3488.86L1687.01,3512.22C1684.74,3518.66 1677.67,3522.05 1671.22,3519.79L1644.59,3510.42C1638.14,3508.15 1634.75,3501.08 1637.02,3494.63L1645.23,3471.28Z"/>
                <path d="M1579.06,3658.44C1581.42,3651.72 1588.8,3648.18 1595.53,3650.55L1621.42,3659.65C1628.15,3662.02 1631.69,3669.4 1629.32,3676.12L1620.75,3700.48C1618.39,3707.2 1611.01,3710.74 1604.29,3708.38L1578.39,3699.27C1571.67,3696.91 1568.13,3689.53 1570.49,3682.81L1579.06,3658.44Z"/>
                <path d="M1548.06,3635.87C1545.56,3635.87 1543.55,3637.89 1543.55,3640.38C1543.55,3642.87 1545.56,3644.88 1548.06,3644.88C1550.55,3644.88 1552.57,3642.87 1552.57,3640.38C1552.57,3637.89 1550.55,3635.87 1548.06,3635.87"/>
                <path d="M1601.66,3482.95C1599.17,3482.95 1597.15,3484.97 1597.15,3487.46C1597.15,3489.96 1599.17,3491.97 1601.66,3491.97C1604.16,3491.97 1606.17,3489.96 1606.17,3487.46C1606.17,3484.97 1604.16,3482.95 1601.66,3482.95"/>
                <path d="M1618.16,3625.55C1615.66,3625.55 1613.65,3627.57 1613.65,3630.05C1613.65,3632.55 1615.66,3634.56 1618.16,3634.56C1620.65,3634.56 1622.66,3632.55 1622.66,3630.05C1622.66,3627.57 1620.65,3625.55 1618.16,3625.55"/>
            </g>
        </g>
        <g id="Sling-Left">
            <g id="Drill15">
                <path d="M833.967,3567.68C829.249,3554.23 814.497,3547.14 801.046,3551.86L725.614,3578.32C712.163,3583.04 705.073,3597.8 709.792,3611.25C714.511,3624.7 729.262,3631.79 742.713,3627.07L818.145,3600.61C831.596,3595.89 838.686,3581.14 833.967,3567.68Z"/>
                <path d="M772.84,3471.13C770.573,3464.68 763.5,3461.29 757.055,3463.56L729.177,3473.36C722.732,3475.63 719.34,3482.7 721.606,3489.15L729.821,3512.51C732.088,3518.95 739.161,3522.34 745.606,3520.08L773.483,3510.27C779.929,3508 783.321,3500.93 781.054,3494.49L772.84,3471.13Z"/>
                <path d="M838.256,3658.56C835.892,3651.84 828.514,3648.3 821.791,3650.66L795.405,3659.94C788.682,3662.31 785.143,3669.69 787.508,3676.41L796.076,3700.77C798.44,3707.49 805.818,3711.03 812.542,3708.67L838.927,3699.39C845.65,3697.03 849.189,3689.65 846.825,3682.92L838.256,3658.56Z"/>
                <path d="M868.94,3636.15C866.445,3636.15 864.433,3638.17 864.433,3640.65C864.433,3643.15 866.445,3645.16 868.94,3645.16C871.434,3645.16 873.446,3643.15 873.446,3640.65C873.446,3638.17 871.434,3636.15 868.94,3636.15"/>
                <path d="M815.104,3483.19C812.609,3483.19 810.597,3485.21 810.597,3487.7C810.597,3490.19 812.609,3492.2 815.104,3492.2C817.599,3492.2 819.611,3490.19 819.611,3487.7C819.611,3485.21 817.599,3483.19 815.104,3483.19"/>
                <path d="M766.826,3535.01C764.331,3535.01 762.319,3537.03 762.319,3539.52C762.319,3542.01 764.331,3544.03 766.826,3544.03C769.321,3544.03 771.333,3542.01 771.333,3539.52C771.333,3537.03 769.321,3535.01 766.826,3535.01"/>
            </g>
        </g>
        <g id="Scoop">
            <g id="Drill16">
                <path d="M2551.54,2923.24C2553.48,2924.81 2553.78,2927.65 2552.21,2929.59C2550.64,2931.52 2547.8,2931.82 2545.86,2930.25C2543.93,2928.68 2543.63,2925.84 2545.2,2923.91C2546.76,2921.97 2549.61,2921.67 2551.54,2923.24Z"/>
                <path d="M2373.58,2923.55C2372.02,2925.48 2369.17,2925.78 2367.24,2924.21C2365.3,2922.64 2365,2919.8 2366.57,2917.87C2368.14,2915.93 2370.98,2915.63 2372.92,2917.2C2374.85,2918.77 2375.15,2921.61 2373.58,2923.55Z"/>
                <path d="M2534.64,2829.8C2536.26,2827.81 2535.95,2824.88 2533.95,2823.26L2431.51,2740.3C2429.52,2738.69 2426.59,2739 2424.97,2740.99L2345.03,2839.71C2343.42,2841.7 2343.72,2844.63 2345.72,2846.24L2448.16,2929.2C2450.16,2930.82 2453.09,2930.51 2454.7,2928.52L2534.64,2829.8Z"/>
                <path d="M2330.11,2743.92C2328.18,2742.36 2325.33,2742.65 2323.76,2744.59C2322.2,2746.52 2322.49,2749.37 2324.43,2750.93C2326.37,2752.5 2329.21,2752.2 2330.78,2750.27C2332.34,2748.33 2332.05,2745.49 2330.11,2743.92Z"/>
            </g>
        </g>
        <g id="Scoop1">
            <g id="Drill17">
                <path d="M1712.67,1587.41C1714.66,1588.91 1715.05,1591.74 1713.55,1593.73C1712.06,1595.71 1709.22,1596.11 1707.24,1594.61C1705.25,1593.11 1704.85,1590.28 1706.35,1588.29C1707.85,1586.31 1710.68,1585.91 1712.67,1587.41Z"/>
                <path d="M1534.83,1593.88C1533.33,1595.87 1530.5,1596.27 1528.51,1594.77C1526.52,1593.27 1526.12,1590.44 1527.62,1588.45C1529.12,1586.46 1531.95,1586.07 1533.94,1587.56C1535.93,1589.06 1536.33,1591.89 1534.83,1593.88Z"/>
                <path d="M1692.54,1494.61C1694.08,1492.56 1693.67,1489.65 1691.62,1488.1L1586.36,1408.74C1584.32,1407.2 1581.4,1407.61 1579.86,1409.66L1503.38,1511.09C1501.84,1513.13 1502.25,1516.05 1504.3,1517.59L1609.56,1596.95C1611.61,1598.5 1614.52,1598.09 1616.07,1596.04L1692.54,1494.61Z"/>
                <path d="M1485.15,1415.88C1483.16,1414.38 1480.33,1414.77 1478.83,1416.76C1477.33,1418.75 1477.73,1421.58 1479.72,1423.08C1481.71,1424.58 1484.54,1424.18 1486.04,1422.19C1487.54,1420.21 1487.14,1417.38 1485.15,1415.88Z"/>
            </g>
        </g>
        <g id="O-Target-Wide">
            <g id="Drill18">
                <path d="M1480.63,1457.27C1484.09,1451.35 1482.09,1443.74 1476.17,1440.28L1357.03,1370.67C1351.11,1367.21 1343.5,1369.21 1340.04,1375.13L1324.13,1402.36C1320.67,1408.28 1322.67,1415.89 1328.59,1419.35L1447.73,1488.96C1453.65,1492.42 1461.27,1490.42 1464.73,1484.5L1480.63,1457.27Z"/>
                <path d="M1354.11,1470.81C1351.96,1469.56 1349.2,1470.3 1347.95,1472.45C1346.69,1474.6 1347.43,1477.36 1349.59,1478.61C1351.73,1479.86 1354.5,1479.13 1355.75,1476.97C1356.99,1474.83 1356.27,1472.06 1354.11,1470.81"/>
                <path d="M1390.27,1491.94C1388.12,1490.69 1385.36,1491.42 1384.11,1493.57C1382.85,1495.72 1383.59,1498.48 1385.74,1499.73C1387.89,1500.98 1390.65,1500.25 1391.9,1498.1C1393.15,1495.95 1392.42,1493.19 1390.27,1491.94"/>
            </g>
        </g>
        <g id="O-Target-Wide1">
            <g id="Drill19">
                <path d="M2713.06,3262.06C2719.39,3259.42 2722.38,3252.13 2719.73,3245.81L2666.5,3118.5C2663.85,3112.18 2656.57,3109.19 2650.24,3111.83L2621.15,3124C2614.82,3126.64 2611.84,3133.93 2614.48,3140.25L2667.71,3267.56C2670.36,3273.88 2677.64,3276.87 2683.97,3274.23L2713.06,3262.06Z"/>
                <path d="M2603.88,3196.71C2602.92,3194.42 2600.27,3193.34 2597.98,3194.31C2595.68,3195.27 2594.61,3197.92 2595.58,3200.21C2596.54,3202.5 2599.19,3203.58 2601.48,3202.61C2603.77,3201.65 2604.85,3199.01 2603.88,3196.71"/>
                <path d="M2620.04,3235.34C2619.07,3233.05 2616.43,3231.97 2614.13,3232.94C2611.84,3233.9 2610.76,3236.55 2611.73,3238.84C2612.69,3241.13 2615.34,3242.21 2617.63,3241.25C2619.92,3240.28 2621,3237.64 2620.04,3235.34"/>
            </g>
        </g>
        <g id="O-Target-Norm">
            <g id="Drill20">
                <path d="M404.813,2949.55C403.784,2951.81 404.788,2954.48 407.055,2955.51C409.318,2956.55 411.992,2955.54 413.022,2953.27C414.048,2951.01 413.047,2948.34 410.78,2947.3C408.52,2946.28 405.843,2947.28 404.813,2949.55"/>
                <path d="M422.223,2911.46C421.193,2913.73 422.197,2916.4 424.464,2917.43C426.727,2918.47 429.402,2917.46 430.431,2915.19C431.457,2912.93 430.456,2910.25 428.189,2909.22C425.929,2908.2 423.252,2909.2 422.223,2911.46"/>
                <path d="M367.173,2850.25C360.937,2847.4 353.559,2850.15 350.709,2856.39L316.42,2931.39C313.569,2937.63 316.317,2945.01 322.553,2947.86L351.233,2960.97C357.469,2963.82 364.847,2961.07 367.698,2954.84L401.987,2879.83C404.837,2873.59 402.089,2866.22 395.853,2863.37L367.173,2850.25Z"/>
            </g>
        </g>
        <g id="Flipper-Mech-Right">
            <g id="Drill21">
                <path d="M1389.06,3898.01C1389.06,3900.5 1391.07,3902.52 1393.57,3902.52C1396.06,3902.52 1398.08,3900.5 1398.08,3898.01C1398.08,3895.51 1396.06,3893.5 1393.57,3893.5C1391.07,3893.5 1389.06,3895.51 1389.06,3898.01"/>
                <path d="M1430.44,3876.79C1430.44,3879.28 1432.45,3881.3 1434.95,3881.3C1437.44,3881.3 1439.45,3879.28 1439.45,3876.79C1439.45,3874.3 1437.44,3872.28 1434.95,3872.28C1432.45,3872.28 1430.44,3874.3 1430.44,3876.79"/>
                <path d="M1532.22,4178.7C1532.22,4181.19 1534.23,4183.2 1536.73,4183.2C1539.22,4183.2 1541.23,4181.19 1541.23,4178.7C1541.23,4176.21 1539.22,4174.19 1536.73,4174.19C1534.23,4174.19 1532.22,4176.21 1532.22,4178.7"/>
                <path d="M1573.66,4157.5C1573.66,4160 1575.67,4162.01 1578.17,4162.01C1580.66,4162.01 1582.68,4160 1582.68,4157.5C1582.68,4155.02 1580.66,4153 1578.17,4153C1575.67,4153 1573.66,4155.02 1573.66,4157.5"/>
                <path d="M1852.85,4015.11C1852.85,4017.61 1854.87,4019.62 1857.36,4019.62C1859.85,4019.62 1861.87,4017.61 1861.87,4015.11C1861.87,4012.62 1859.85,4010.61 1857.36,4010.61C1854.87,4010.61 1852.85,4012.62 1852.85,4015.11"/>
                <path d="M1894.27,3993.65C1894.27,3996.14 1896.29,3998.16 1898.78,3998.16C1901.26,3998.16 1903.28,3996.14 1903.28,3993.65C1903.28,3991.16 1901.26,3989.14 1898.78,3989.14C1896.29,3989.14 1894.27,3991.16 1894.27,3993.65"/>
                <path d="M1709.2,3733.45C1709.2,3735.95 1711.22,3737.96 1713.7,3737.96C1716.2,3737.96 1718.21,3735.95 1718.21,3733.45C1718.21,3730.96 1716.2,3728.95 1713.7,3728.95C1711.22,3728.95 1709.2,3730.96 1709.2,3733.45"/>
                <path d="M1750.75,3712.27C1750.75,3714.77 1752.77,3716.78 1755.26,3716.78C1757.75,3716.78 1759.77,3714.77 1759.77,3712.27C1759.77,3709.78 1757.75,3707.76 1755.26,3707.76C1752.77,3707.76 1750.75,3709.78 1750.75,3712.27"/>
                <circle cx="1533.1" cy="4057.8" r="24"/>
            </g>
        </g>
        <g id="Flipper-Mech-Left">
            <g id="Drill22">
                <path d="M451.099,2114.88C450.862,2112.4 448.666,2110.58 446.191,2110.82C443.705,2111.05 441.888,2113.25 442.12,2115.73C442.357,2118.2 444.553,2120.02 447.038,2119.78C449.514,2119.56 451.335,2117.35 451.099,2114.88"/>
                <path d="M495.651,2127.93C495.415,2125.45 493.218,2123.63 490.744,2123.87C488.257,2124.1 486.441,2126.3 486.673,2128.78C486.909,2131.25 489.106,2133.07 491.59,2132.84C494.066,2132.61 495.887,2130.4 495.651,2127.93"/>
                <path d="M405.964,2430.78C405.728,2428.31 403.531,2426.48 401.057,2426.72C398.57,2426.95 396.754,2429.15 396.986,2431.63C397.222,2434.1 399.419,2435.93 401.904,2435.69C404.379,2435.46 406.201,2433.26 405.964,2430.78"/>
                <path d="M361.905,2417.08C361.668,2414.6 359.472,2412.78 356.997,2413.02C354.511,2413.24 352.694,2415.44 352.926,2417.93C353.163,2420.4 355.359,2422.22 357.844,2421.98C360.32,2421.76 362.141,2419.55 361.905,2417.08"/>
                <path d="M750.912,2532.69C750.676,2530.22 748.479,2528.39 746.005,2528.63C743.518,2528.86 741.702,2531.06 741.934,2533.54C742.17,2536.01 744.366,2537.84 746.851,2537.6C749.327,2537.37 751.148,2535.17 750.912,2532.69"/>
                <path d="M841.816,2229.75C841.58,2227.27 839.383,2225.45 836.909,2225.69C834.423,2225.91 832.606,2228.11 832.838,2230.6C833.074,2233.07 835.271,2234.89 837.756,2234.65C840.232,2234.43 842.053,2232.22 841.816,2229.75" style="fill-rule:nonzero;"/>
                <path d="M796.848,2216.2C796.612,2213.73 794.415,2211.9 791.941,2212.14C789.455,2212.37 787.638,2214.57 787.87,2217.05C788.106,2219.52 790.303,2221.35 792.788,2221.11C795.264,2220.88 797.085,2218.68 796.848,2216.2" style="fill-rule:nonzero;"/>
                <path d="M706.36,2519.64C706.124,2517.17 703.927,2515.35 701.453,2515.58C698.967,2515.81 697.15,2518.01 697.382,2520.49C697.618,2522.97 699.815,2524.79 702.3,2524.55C704.776,2524.32 706.597,2522.12 706.36,2519.64"/>
                <path d="M450.038,2253.67C439.46,2245.69 437.343,2230.63 445.315,2220.05C453.286,2209.48 468.347,2207.36 478.925,2215.33C489.504,2223.3 491.621,2238.36 483.649,2248.94C475.677,2259.52 460.617,2261.64 450.038,2253.67Z"/>
            </g>
        </g>
        <g id="Flipper-Mech-Left1">
            <g id="Drill23">
                <path d="M967.573,4145.23C969.251,4147.07 972.102,4147.2 973.936,4145.52C975.785,4143.85 975.911,4140.99 974.233,4139.15C972.555,4137.32 969.704,4137.19 967.863,4138.87C966.021,4140.54 965.895,4143.4 967.573,4145.23"/>
                <path d="M924.139,4161.62C925.817,4163.46 928.668,4163.59 930.502,4161.91C932.35,4160.23 932.477,4157.38 930.799,4155.54C929.121,4153.71 926.269,4153.58 924.428,4155.26C922.587,4156.93 922.461,4159.79 924.139,4161.62"/>
                <path d="M813.504,3865.78C815.182,3867.61 818.033,3867.75 819.867,3866.07C821.716,3864.39 821.842,3861.54 820.164,3859.7C818.486,3857.87 815.635,3857.73 813.794,3859.42C811.953,3861.09 811.826,3863.95 813.504,3865.78"/>
                <path d="M856.939,3850.21C858.617,3852.04 861.468,3852.18 863.302,3850.5C865.151,3848.82 865.277,3845.97 863.599,3844.13C861.921,3842.29 859.07,3842.16 857.228,3843.85C855.387,3845.52 855.261,3848.38 856.939,3850.21"/>
                <path d="M476.685,3991.99C478.363,3993.82 481.214,3993.95 483.048,3992.27C484.897,3990.6 485.023,3987.74 483.345,3985.9C481.667,3984.07 478.816,3983.94 476.974,3985.62C475.133,3987.29 475.007,3990.15 476.685,3991.99"/>
                <path d="M586.403,4288.64C588.081,4290.47 590.932,4290.6 592.766,4288.93C594.614,4287.25 594.741,4284.4 593.063,4282.56C591.385,4280.72 588.534,4280.59 586.692,4282.27C584.851,4283.94 584.725,4286.8 586.403,4288.64"/>
                <path d="M630.468,4272.39C632.146,4274.23 634.997,4274.36 636.831,4272.68C638.679,4271 638.806,4268.15 637.128,4266.31C635.45,4264.48 632.598,4264.34 630.757,4266.03C628.916,4267.7 628.79,4270.56 630.468,4272.39"/>
                <path d="M520.119,3975.6C521.797,3977.43 524.648,3977.56 526.482,3975.88C528.33,3974.21 528.457,3971.36 526.779,3969.51C525.101,3967.68 522.25,3967.55 520.408,3969.23C518.567,3970.9 518.441,3973.76 520.119,3975.6"/>
                <circle cx="884.895" cy="4057.75" r="24"/>
            </g>
        </g>
        <path id="Drill24" d="M1695.72,1490.8L1766.54,1385.33C1766.54,1385.33 1763.04,1308.78 1683.45,1325.46C1666.27,1329.06 1657.46,1349.56 1621.76,1371.63C1596,1387.55 1580.11,1409.12 1580.11,1409.12L1695.72,1490.8Z"/>
        <g id="MAGNET">
            <g id="Drill25">
                <path d="M1684.56,2598.64C1686.72,2597.38 1687.44,2594.62 1686.18,2592.47C1684.92,2590.32 1682.16,2589.6 1680.01,2590.86C1677.86,2592.12 1677.14,2594.88 1678.4,2597.02C1679.66,2599.18 1682.41,2599.9 1684.56,2598.64"/>
                <path d="M1621.76,2633.59C1623.91,2632.33 1624.63,2629.57 1623.37,2627.42C1622.11,2625.27 1619.36,2624.55 1617.2,2625.81C1615.05,2627.07 1614.34,2629.83 1615.59,2631.97C1616.85,2634.13 1619.61,2634.85 1621.76,2633.59"/>
                <path d="M1845.49,2890.74C1843.3,2891.94 1842.51,2894.67 1843.71,2896.86C1844.91,2899.03 1847.64,2899.84 1849.83,2898.63C1852.02,2897.43 1852.81,2894.69 1851.61,2892.51C1850.41,2890.33 1847.67,2889.53 1845.49,2890.74"/>
                <path d="M1782.39,2925.44C1780.22,2926.68 1779.47,2929.42 1780.71,2931.59C1781.94,2933.75 1784.69,2934.5 1786.86,2933.26C1789.03,2932.03 1789.77,2929.27 1788.54,2927.11C1787.3,2924.95 1784.55,2924.2 1782.39,2925.44"/>
                <path d="M1761.76,2746.52C1753.16,2730.89 1733.52,2725.19 1717.89,2733.79C1702.26,2742.39 1696.56,2762.02 1705.16,2777.65C1713.75,2793.28 1733.39,2798.98 1749.02,2790.39C1764.65,2781.79 1770.35,2762.15 1761.76,2746.52Z"/>
            </g>
        </g>
        <g id="MAGNET1">
            <g id="Drill26">
                <path d="M1470.7,3041.81C1470.63,3039.31 1468.57,3037.36 1466.07,3037.42C1463.59,3037.49 1461.62,3039.55 1461.69,3042.05C1461.76,3044.54 1463.83,3046.5 1466.32,3046.43C1468.81,3046.37 1470.77,3044.3 1470.7,3041.81"/>
                <path d="M1471.06,3113.68C1470.99,3111.19 1468.93,3109.23 1466.43,3109.3C1463.95,3109.36 1461.98,3111.43 1462.05,3113.92C1462.12,3116.42 1464.19,3118.37 1466.68,3118.31C1469.17,3118.24 1471.13,3116.17 1471.06,3113.68"/>
                <path d="M1804.19,3041.55C1804.19,3044.04 1806.2,3046.05 1808.7,3046.05C1811.19,3046.05 1813.21,3044.04 1813.21,3041.55C1813.21,3039.05 1811.19,3037.04 1808.7,3037.04C1806.2,3037.04 1804.19,3039.05 1804.19,3041.55"/>
                <path d="M1804.2,3113.56C1804.24,3116.06 1806.28,3118.03 1808.78,3117.99C1811.26,3117.95 1813.25,3115.91 1813.21,3113.41C1813.17,3110.92 1811.11,3108.94 1808.63,3108.98C1806.13,3109.02 1804.15,3111.07 1804.2,3113.56"/>
                <path d="M1637.48,3045.43C1619.64,3045.43 1605.18,3059.89 1605.18,3077.72C1605.19,3095.57 1619.64,3110.02 1637.48,3110.02C1655.32,3110.03 1669.78,3095.56 1669.78,3077.72C1669.78,3059.89 1655.32,3045.42 1637.48,3045.43Z"/>
            </g>
        </g>
        <g id="Round-Hole-Small">
            <circle id="Drill27" cx="2080.3" cy="2030.87" r="5.94"/>
        </g>
        <g id="Round-Hole-Small1">
            <circle id="Drill28" cx="2080.3" cy="2597.01" r="5.94"/>
        </g>
        <g id="Round-Hole-Small2">
            <circle id="Drill29" cx="2170.62" cy="1589.54" r="5.94"/>
        </g>
        <g id="Round-Hole-Small3">
            <circle id="Drill30" cx="2170.62" cy="2746.74" r="5.94"/>
        </g>
        <g id="Round-Hole-Small4">
            <circle id="Drill31" cx="2170.61" cy="2776.4" r="5.94"/>
        </g>
        <g id="Round-Hole-Small5">
            <circle id="Drill32" cx="2046.64" cy="2930.19" r="5.94"/>
        </g>
        <g id="Switch-w.2f.Outline">
            <g id="Drill33">
                <path d="M359.157,1201.75C359.157,1206.73 363.199,1210.77 368.178,1210.77C373.156,1210.77 377.199,1206.73 377.199,1201.75L377.199,1057.67C377.199,1052.69 373.156,1048.65 368.178,1048.65C363.199,1048.65 359.157,1052.69 359.157,1057.67L359.157,1201.75Z"/>
                <path d="M405.053,1003.43C405.053,1005.93 407.065,1007.94 409.56,1007.94C412.054,1007.94 414.066,1005.93 414.066,1003.43C414.066,1000.94 412.054,998.927 409.56,998.927C407.065,998.927 405.053,1000.94 405.053,1003.43"/>
                <path d="M405.053,967.375C405.053,969.87 407.065,971.882 409.56,971.882C412.054,971.882 414.066,969.87 414.066,967.375C414.066,964.88 412.054,962.868 409.56,962.868C407.065,962.868 405.053,964.88 405.053,967.375"/>
            </g>
        </g>
        <g id="Switch-w.2f.Outline1">
            <g id="Drill34">
                <path d="M2073.86,3741.35C2073.86,3746.33 2077.9,3750.37 2082.88,3750.37C2087.86,3750.37 2091.9,3746.33 2091.9,3741.35L2091.9,3597.27C2091.9,3592.29 2087.86,3588.25 2082.88,3588.25C2077.9,3588.25 2073.86,3592.29 2073.86,3597.27L2073.86,3741.35Z"/>
                <path d="M2119.76,3543.03C2119.76,3545.53 2121.77,3547.54 2124.26,3547.54C2126.76,3547.54 2128.77,3545.53 2128.77,3543.03C2128.77,3540.54 2126.76,3538.53 2124.26,3538.53C2121.77,3538.53 2119.76,3540.54 2119.76,3543.03"/>
                <path d="M2119.76,3506.97C2119.76,3509.47 2121.77,3511.48 2124.26,3511.48C2126.76,3511.48 2128.77,3509.47 2128.77,3506.97C2128.77,3504.48 2126.76,3502.47 2124.26,3502.47C2121.77,3502.47 2119.76,3504.48 2119.76,3506.97"/>
            </g>
        </g>
        <g id="Switch-w.2f.Outline2">
            <g id="Drill35">
                <path d="M1931.76,3453.83C1931.76,3448.86 1927.72,3444.81 1922.74,3444.81C1917.76,3444.81 1913.72,3448.86 1913.72,3453.83L1913.72,3597.91C1913.72,3602.89 1917.76,3606.93 1922.74,3606.93C1927.72,3606.93 1931.76,3602.89 1931.76,3597.91L1931.76,3453.83Z"/>
                <path d="M1885.87,3652.15C1885.87,3649.66 1883.86,3647.64 1881.36,3647.64C1878.87,3647.64 1876.85,3649.66 1876.85,3652.15C1876.85,3654.65 1878.87,3656.66 1881.36,3656.66C1883.86,3656.66 1885.87,3654.65 1885.87,3652.15"/>
                <path d="M1885.87,3688.21C1885.87,3685.72 1883.86,3683.7 1881.36,3683.7C1878.87,3683.7 1876.85,3685.72 1876.85,3688.21C1876.85,3690.7 1878.87,3692.72 1881.36,3692.72C1883.86,3692.72 1885.87,3690.7 1885.87,3688.21"/>
            </g>
        </g>
        <g id="Switch-w.2f.Outline3">
            <g id="Drill36">
                <path d="M1785.03,3597.86C1785.03,3602.84 1789.07,3606.88 1794.05,3606.88C1799.03,3606.88 1803.07,3602.84 1803.07,3597.86L1803.07,3453.78C1803.07,3448.8 1799.03,3444.76 1794.05,3444.76C1789.07,3444.76 1785.03,3448.8 1785.03,3453.78L1785.03,3597.86Z"/>
                <path d="M1830.92,3399.54C1830.92,3402.03 1832.93,3404.05 1835.43,3404.05C1837.92,3404.05 1839.93,3402.03 1839.93,3399.54C1839.93,3397.05 1837.92,3395.03 1835.43,3395.03C1832.93,3395.03 1830.92,3397.05 1830.92,3399.54"/>
                <path d="M1830.92,3363.48C1830.92,3365.98 1832.93,3367.99 1835.43,3367.99C1837.92,3367.99 1839.93,3365.98 1839.93,3363.48C1839.93,3360.99 1837.92,3358.97 1835.43,3358.97C1832.93,3358.97 1830.92,3360.99 1830.92,3363.48"/>
            </g>
        </g>
        <g id="Switch-w.2f.Outline4">
            <g id="Drill37">
                <path d="M632.037,3453.82C632.037,3448.84 627.995,3444.8 623.016,3444.8C618.037,3444.8 613.995,3448.84 613.995,3453.82L613.995,3597.89C613.995,3602.87 618.037,3606.91 623.016,3606.91C627.995,3606.91 632.037,3602.87 632.037,3597.89L632.037,3453.82Z"/>
                <path d="M586.141,3652.13C586.141,3649.64 584.129,3647.63 581.634,3647.63C579.139,3647.63 577.127,3649.64 577.127,3652.13C577.127,3654.63 579.139,3656.64 581.634,3656.64C584.129,3656.64 586.141,3654.63 586.141,3652.13"/>
                <path d="M586.141,3688.19C586.141,3685.7 584.129,3683.69 581.634,3683.69C579.139,3683.69 577.127,3685.7 577.127,3688.19C577.127,3690.69 579.139,3692.7 581.634,3692.7C584.129,3692.7 586.141,3690.69 586.141,3688.19"/>
            </g>
        </g>
        <g id="Switch-w.2f.Outline5">
            <g id="Drill38">
                <path d="M503.391,3453.82C503.391,3448.84 499.349,3444.8 494.37,3444.8C489.392,3444.8 485.349,3448.84 485.349,3453.82L485.349,3597.9C485.349,3602.88 489.392,3606.92 494.37,3606.92C499.349,3606.92 503.391,3602.88 503.391,3597.9L503.391,3453.82Z"/>
                <path d="M457.495,3652.14C457.495,3649.65 455.483,3647.63 452.988,3647.63C450.494,3647.63 448.482,3649.65 448.482,3652.14C448.482,3654.64 450.494,3656.65 452.988,3656.65C455.483,3656.65 457.495,3654.64 457.495,3652.14"/>
                <path d="M457.495,3688.2C457.495,3685.7 455.483,3683.69 452.988,3683.69C450.494,3683.69 448.482,3685.7 448.482,3688.2C448.482,3690.69 450.494,3692.71 452.988,3692.71C455.483,3692.71 457.495,3690.69 457.495,3688.2"/>
            </g>
        </g>
        <g id="Switch-w.2f.Outline6">
            <g id="Drill39">
                <path d="M367.333,3597.26C367.333,3592.28 363.291,3588.24 358.312,3588.24C353.333,3588.24 349.291,3592.28 349.291,3597.26L349.291,3741.34C349.291,3746.32 353.333,3750.36 358.312,3750.36C363.291,3750.36 367.333,3746.32 367.333,3741.34L367.333,3597.26Z"/>
                <path d="M321.437,3795.58C321.437,3793.08 319.425,3791.07 316.93,3791.07C314.435,3791.07 312.423,3793.08 312.423,3795.58C312.423,3798.07 314.435,3800.08 316.93,3800.08C319.425,3800.08 321.437,3798.07 321.437,3795.58"/>
                <path d="M321.437,3831.63C321.437,3829.14 319.425,3827.13 316.93,3827.13C314.435,3827.13 312.423,3829.14 312.423,3831.63C312.423,3834.13 314.435,3836.14 316.93,3836.14C319.425,3836.14 321.437,3834.13 321.437,3831.63"/>
            </g>
        </g>
        <g id="Shooter-Switch">
            <g id="Drill40">
                <path d="M2026.74,4225.68C2028.17,4223.65 2027.69,4220.84 2025.65,4219.4C2023.62,4217.97 2020.81,4218.45 2019.37,4220.48C2017.93,4222.52 2018.42,4225.33 2020.46,4226.77C2022.49,4228.2 2025.3,4227.72 2026.74,4225.68"/>
                <path d="M2026.71,4189.62C2028.14,4187.58 2027.66,4184.78 2025.62,4183.34C2023.59,4181.9 2020.78,4182.38 2019.34,4184.42C2017.9,4186.46 2018.39,4189.27 2020.42,4190.7C2022.46,4192.14 2025.27,4191.66 2026.71,4189.62"/>
            </g>
        </g>
        <g id="Trough">
            <g id="Drill41">
                <path d="M1278.49,4659.25C1281.79,4665 1289.12,4666.99 1294.87,4663.69L1294.87,4663.69L2007.78,4254.7L2007.77,4254.7C2013.52,4251.4 2015.51,4244.07 2012.21,4238.32L2012.21,4238.32L1958.48,4144.65L1958.47,4144.65C1955.18,4138.9 1947.84,4136.91 1942.1,4140.21L1229.19,4549.21C1223.45,4552.5 1221.46,4559.84 1224.76,4565.58L1224.76,4565.59L1278.49,4659.26L1278.49,4659.25Z"/>
                <path d="M1329.58,4682.99C1329.51,4680.5 1327.44,4678.54 1324.95,4678.61C1322.46,4678.67 1320.5,4680.74 1320.57,4683.23C1320.63,4685.73 1322.71,4687.68 1325.19,4687.62C1327.69,4687.55 1329.64,4685.48 1329.58,4682.99"/>
                <path d="M1651.58,4498.02C1651.51,4495.53 1649.45,4493.57 1646.95,4493.64C1644.47,4493.71 1642.5,4495.77 1642.57,4498.27C1642.64,4500.76 1644.71,4502.72 1647.2,4502.65C1649.69,4502.58 1651.65,4500.52 1651.58,4498.02"/>
                <path d="M1984.24,4358.62C1984.17,4356.13 1982.11,4354.17 1979.62,4354.24C1977.13,4354.3 1975.16,4356.37 1975.23,4358.86C1975.3,4361.36 1977.37,4363.31 1979.86,4363.25C1982.35,4363.18 1984.31,4361.11 1984.24,4358.62"/>
                <path d="M1842.84,4112.1C1842.77,4109.61 1840.71,4107.65 1838.22,4107.72C1835.73,4107.78 1833.76,4109.85 1833.83,4112.34C1833.9,4114.84 1835.97,4116.79 1838.46,4116.73C1840.95,4116.66 1842.91,4114.59 1842.84,4112.1"/>
                <path d="M1553.32,4326.48C1553.26,4323.99 1551.19,4322.03 1548.7,4322.1C1546.21,4322.17 1544.25,4324.23 1544.31,4326.73C1544.38,4329.22 1546.45,4331.18 1548.94,4331.11C1551.43,4331.04 1553.39,4328.98 1553.32,4326.48"/>
                <path d="M1231.09,4511.51C1231.02,4509.02 1228.95,4507.06 1226.46,4507.13C1223.97,4507.19 1222.01,4509.26 1222.08,4511.75C1222.14,4514.25 1224.22,4516.2 1226.7,4516.14C1229.2,4516.07 1231.15,4514.01 1231.09,4511.51"/>
                <path d="M1231.09,4511.51C1231.02,4509.02 1228.95,4507.06 1226.46,4507.13C1223.97,4507.19 1222.01,4509.26 1222.08,4511.75C1222.14,4514.25 1224.22,4516.2 1226.7,4516.14C1229.2,4516.07 1231.15,4514.01 1231.09,4511.51"/>
            </g>
        </g>
        <g id="_4-Target-Region">
            <g id="Drill42">
                <path d="M2090.32,2906.13C2096.75,2903.76 2100.05,2896.61 2097.68,2890.18L1985.12,2584.83C1982.75,2578.39 1975.6,2575.09 1969.17,2577.47L1939.58,2588.37C1933.15,2590.74 1929.85,2597.89 1932.22,2604.33L2044.78,2909.68C2047.15,2916.11 2054.3,2919.41 2060.73,2917.04L2090.32,2906.13Z" style="stroke:black;stroke-width:0.74px;stroke-linecap:round;stroke-linejoin:round;stroke-miterlimit:1.5;"/>
            </g>
        </g>
        <g id="Flipper-Right">
            <g id="Drill43">
                <path d="M1293.02,4196.73C1295.52,4196.73 1297.53,4198.75 1297.53,4201.24C1297.53,4203.73 1295.52,4205.75 1293.02,4205.75C1290.54,4205.75 1288.52,4203.73 1288.52,4201.24C1288.52,4198.75 1290.54,4196.73 1293.02,4196.73"/>
            </g>
        </g>
        <g id="Spinner">
            <g id="Drill44">
                <path d="M2127.62,1900.95C2128.72,1898.71 2127.8,1896.01 2125.57,1894.91C2123.34,1893.8 2120.64,1894.72 2119.53,1896.95C2118.43,1899.18 2119.34,1901.88 2121.58,1902.99C2123.8,1904.09 2126.5,1903.17 2127.62,1900.95" style="stroke:black;stroke-width:0.74px;stroke-linecap:round;stroke-linejoin:round;stroke-miterlimit:10;"/>
                <path d="M2137.84,1853.84C2138.94,1851.6 2138.03,1848.9 2135.8,1847.8C2133.57,1846.69 2130.86,1847.61 2129.76,1849.84C2128.66,1852.07 2129.57,1854.77 2131.8,1855.88C2134.03,1856.99 2136.73,1856.07 2137.84,1853.84" style="stroke:black;stroke-width:0.74px;stroke-linecap:round;stroke-linejoin:round;stroke-miterlimit:10;"/>
            </g>
        </g>
        <g id="Spinner1">
            <g id="Drill45">
                <path d="M1960.24,1535.65C1962,1533.88 1961.97,1531.03 1960.2,1529.28C1958.43,1527.52 1955.58,1527.55 1953.83,1529.32C1952.08,1531.09 1952.1,1533.94 1953.87,1535.69C1955.64,1537.44 1958.49,1537.42 1960.24,1535.65" style="stroke:black;stroke-width:0.74px;stroke-linecap:round;stroke-linejoin:round;stroke-miterlimit:10;"/>
                <path d="M1984.76,1494.14C1986.51,1492.37 1986.49,1489.52 1984.71,1487.77C1982.95,1486.02 1980.09,1486.04 1978.34,1487.81C1976.59,1489.58 1976.61,1492.43 1978.38,1494.19C1980.15,1495.93 1983,1495.91 1984.76,1494.14" style="stroke:black;stroke-width:0.74px;stroke-linecap:round;stroke-linejoin:round;stroke-miterlimit:10;"/>
            </g>
        </g>
        <g id="Spinner2">
            <g id="Drill46">
                <path d="M318.247,1746.49C318.385,1748.98 320.519,1750.87 323.006,1750.73C325.491,1750.59 327.39,1748.45 327.246,1745.97C327.105,1743.49 324.978,1741.59 322.487,1741.73C320.006,1741.87 318.112,1744 318.247,1746.49" style="stroke:black;stroke-width:0.74px;stroke-linecap:round;stroke-linejoin:round;stroke-miterlimit:10;"/>
                <path d="M332.624,1792.5C332.769,1794.99 334.896,1796.88 337.383,1796.74C339.868,1796.6 341.768,1794.47 341.623,1791.98C341.483,1789.5 339.355,1787.6 336.864,1787.74C334.383,1787.88 332.49,1790.01 332.624,1792.5" style="stroke:black;stroke-width:0.74px;stroke-linecap:round;stroke-linejoin:round;stroke-miterlimit:10;"/>
            </g>
        </g>
        <g id="Hanger">
            <g id="T.-8">
                <path id="Drill47" d="M722.437,4734.04C722.443,4719.64 700.83,4719.64 700.837,4734.04C700.823,4748.43 722.443,4748.44 722.43,4734.04L722.437,4734.04Z"/>
            </g>
            <g id="T.-8-R">
                <path id="Drill48" d="M722.444,4638.04C722.45,4623.65 700.837,4623.65 700.844,4638.04C700.83,4652.44 722.45,4652.45 722.437,4638.05L722.444,4638.04Z" style="fill-rule:nonzero;"/>
            </g>
        </g>
        <g id="Hanger1">
            <g id="T.-81">
                <path id="Drill49" d="M1538.43,4734.04C1538.43,4719.64 1516.82,4719.64 1516.83,4734.04C1516.82,4748.43 1538.43,4748.44 1538.42,4734.04L1538.43,4734.04Z"/>
            </g>
            <g id="T.-8-R1">
                <path id="Drill50" d="M1538.43,4638.04C1538.44,4623.65 1516.83,4623.65 1516.84,4638.04C1516.82,4652.44 1538.44,4652.45 1538.43,4638.05L1538.43,4638.04Z"/>
            </g>
        </g>
        <g id="T.-82">
            <path id="Drill51" d="M516.325,4686.04C516.331,4671.64 494.718,4671.64 494.725,4686.04C494.711,4700.43 516.331,4700.44 516.318,4686.04L516.325,4686.04Z"/>
        </g>
        <g id="T.-83">
            <path id="Drill52" d="M1793.41,4686.42C1793.42,4672.02 1771.81,4672.02 1771.81,4686.42C1771.8,4700.82 1793.42,4700.82 1793.41,4686.43L1793.41,4686.42Z"/>
        </g>
        <g id="Switch-w.2f.Outline7">
            <g id="Drill53">
                <path d="M1430.54,588.71C1425.57,588.71 1421.52,592.752 1421.52,597.731C1421.52,602.709 1425.57,606.751 1430.54,606.751L1574.62,606.751C1579.6,606.751 1583.64,602.709 1583.64,597.731C1583.64,592.752 1579.6,588.71 1574.62,588.71L1430.54,588.71Z"/>
                <path d="M1628.86,634.606C1626.37,634.606 1624.35,636.618 1624.35,639.112C1624.35,641.607 1626.37,643.619 1628.86,643.619C1631.36,643.619 1633.37,641.607 1633.37,639.112C1633.37,636.618 1631.36,634.606 1628.86,634.606"/>
                <path d="M1664.92,634.606C1662.42,634.606 1660.41,636.618 1660.41,639.112C1660.41,641.607 1662.42,643.619 1664.92,643.619C1667.41,643.619 1669.43,641.607 1669.43,639.112C1669.43,636.618 1667.41,634.606 1664.92,634.606"/>
            </g>
        </g>
        <g id="T.-84">
            <path id="Drill54" d="M629.986,4564.31C629.993,4549.91 608.379,4549.91 608.386,4564.31C608.373,4578.71 629.993,4578.72 629.979,4564.32L629.986,4564.31Z"/>
        </g>
        <g id="T.-85">
            <path id="Drill55" d="M1685.15,4564.37C1685.16,4549.97 1663.54,4549.97 1663.55,4564.37C1663.54,4578.77 1685.16,4578.78 1685.14,4564.38L1685.15,4564.37Z"/>
        </g>
        <g id="Pop-Bumper-Spoon">
            <g id="Drill56">
                <path d="M1547.77,769.423C1550.2,769.94 1552.6,768.391 1553.12,765.96C1553.65,763.52 1552.09,761.127 1549.66,760.604C1547.23,760.087 1544.83,761.635 1544.31,764.077C1543.78,766.506 1545.34,768.906 1547.77,769.423"/>
                <path d="M1577.34,748.302C1579.77,748.819 1582.17,747.271 1582.69,744.839C1583.22,742.399 1581.66,740.006 1579.23,739.483C1576.8,738.966 1574.4,740.514 1573.88,742.956C1573.35,745.386 1574.91,747.785 1577.34,748.302"/>
            </g>
        </g>
        <g id="Pop-Bumper-Spoon1">
            <g id="Drill57">
                <path d="M1570.66,1059.92C1572.9,1058.84 1573.86,1056.15 1572.78,1053.91C1571.71,1051.66 1569.02,1050.71 1566.77,1051.78C1564.53,1052.85 1563.58,1055.54 1564.65,1057.8C1565.72,1060.04 1568.42,1060.99 1570.66,1059.92"/>
                <path d="M1581.2,1025.14C1583.44,1024.07 1584.4,1021.38 1583.32,1019.14C1582.26,1016.88 1579.56,1015.93 1577.31,1017C1575.07,1018.08 1574.12,1020.77 1575.2,1023.02C1576.26,1025.27 1578.96,1026.22 1581.2,1025.14"/>
            </g>
        </g>
        <g id="Pop-Bumper-Spoon2">
            <g id="Drill58">
                <path d="M1820.76,1140.44C1818.77,1141.93 1818.36,1144.76 1819.85,1146.75C1821.34,1148.75 1824.16,1149.15 1826.16,1147.66C1828.15,1146.17 1828.56,1143.35 1827.06,1141.35C1825.58,1139.35 1822.75,1138.95 1820.76,1140.44"/>
                <path d="M1817.22,1176.61C1815.23,1178.1 1814.82,1180.92 1816.31,1182.91C1817.8,1184.91 1820.62,1185.32 1822.62,1183.83C1824.61,1182.34 1825.02,1179.51 1823.52,1177.51C1822.04,1175.52 1819.21,1175.11 1817.22,1176.61"/>
            </g>
        </g>
        <g id="Pop-Bumper">
            <g id="Drill59">
                <path d="M1355.03,832.05C1350.8,839.947 1362.66,846.291 1366.88,838.39C1371.11,830.502 1359.25,824.157 1355.04,832.055L1355.03,832.05Z"/>
                <path d="M1323.48,947.597C1319.26,955.49 1331.11,961.829 1335.33,953.932C1339.56,946.039 1327.7,939.7 1323.49,947.597L1323.48,947.597Z"/>
                <path d="M1422.64,1014.78C1418.41,1022.67 1430.26,1029.02 1434.49,1021.12C1438.71,1013.23 1426.86,1006.88 1422.65,1014.78L1422.64,1014.78Z"/>
                <path d="M1473.09,967.878C1464.69,945.407 1430.95,958.048 1439.39,980.513C1447.79,1002.98 1481.53,990.343 1473.09,967.878Z"/>
                <path d="M1426.76,844.298C1418.35,821.827 1384.62,834.475 1393.05,856.934C1401.46,879.404 1435.19,866.763 1426.76,844.298Z"/>
                <path d="M1438.04,944.227C1438.04,944.227 1442.39,943.343 1444.39,942.591C1461.02,936.358 1469.49,917.714 1463.26,901.084C1462.51,899.086 1460.38,895.202 1460.38,895.202C1463.64,890.453 1464.39,884.244 1462.34,878.783C1458.86,869.5 1448.45,864.768 1439.16,868.249C1433.7,870.296 1429.54,875.009 1428.1,880.584C1428.1,880.584 1423.76,881.466 1421.76,882.218C1405.13,888.453 1396.65,907.097 1402.88,923.721C1403.64,925.725 1405.76,929.609 1405.76,929.609C1402.51,934.356 1401.76,940.568 1403.81,946.028C1407.29,955.311 1417.7,960.043 1426.98,956.563C1432.44,954.515 1436.6,949.802 1438.04,944.227Z"/>
                <path d="M1393.37,891.205C1391.04,892.078 1389.86,894.674 1390.73,897.007C1391.6,899.332 1394.2,900.521 1396.52,899.647C1398.86,898.774 1400.04,896.187 1399.17,893.847C1398.3,891.521 1395.7,890.332 1393.37,891.205"/>
                <path d="M1469.54,926.004C1467.2,926.877 1466.02,929.472 1466.89,931.805C1467.76,934.13 1470.36,935.319 1472.69,934.446C1475.02,933.573 1476.2,930.985 1475.34,928.645C1474.46,926.319 1471.87,925.131 1469.54,926.004"/>
            </g>
        </g>
        <g id="Pop-Bumper1">
            <g id="Drill60">
                <path d="M1456.16,1227.13C1457.62,1235.97 1470.89,1233.76 1469.41,1224.93C1467.95,1216.1 1454.68,1218.31 1456.16,1227.13L1456.16,1227.13Z"/>
                <path d="M1501.66,1337.93C1503.12,1346.76 1516.38,1344.55 1514.91,1335.72C1513.44,1326.89 1500.18,1329.1 1501.66,1337.92L1501.66,1337.93Z"/>
                <path d="M1621.21,1330.66C1622.68,1339.5 1635.94,1337.29 1634.46,1328.46C1633,1319.63 1619.74,1321.83 1621.22,1330.66L1621.21,1330.66Z"/>
                <path d="M1632.57,1262.72C1612.2,1250.05 1593.18,1280.64 1613.57,1293.3C1633.94,1305.97 1652.96,1275.37 1632.57,1262.72Z"/>
                <path d="M1520.46,1193.08C1500.09,1180.4 1481.08,1211 1501.46,1223.65C1521.83,1236.33 1540.85,1205.73 1520.46,1193.08Z"/>
                <path d="M1590.37,1265.37C1590.37,1265.37 1593.27,1262.01 1594.4,1260.19C1603.77,1245.12 1599.11,1225.17 1584.03,1215.8C1582.21,1214.67 1578.16,1212.89 1578.16,1212.89C1577.84,1207.14 1574.64,1201.77 1569.69,1198.69C1561.27,1193.46 1550.13,1196.06 1544.9,1204.48C1541.83,1209.43 1541.4,1215.71 1543.66,1221C1543.66,1221 1540.76,1224.35 1539.63,1226.17C1530.26,1241.26 1534.92,1261.2 1550,1270.57C1551.82,1271.7 1555.87,1273.48 1555.87,1273.48C1556.19,1279.22 1559.39,1284.6 1564.34,1287.68C1572.76,1292.91 1583.9,1290.31 1589.13,1281.89C1592.21,1276.94 1592.63,1270.66 1590.37,1265.37Z"/>
                <path d="M1522.62,1250.61C1521.31,1252.73 1521.96,1255.5 1524.07,1256.82C1526.18,1258.13 1528.96,1257.49 1530.27,1255.38C1531.59,1253.26 1530.95,1250.49 1528.83,1249.16C1526.72,1247.86 1523.94,1248.5 1522.62,1250.61"/>
                <path d="M1604.2,1231.71C1602.89,1233.83 1603.54,1236.6 1605.65,1237.92C1607.76,1239.23 1610.54,1238.59 1611.85,1236.48C1613.17,1234.36 1612.52,1231.59 1610.41,1230.27C1608.3,1228.95 1605.52,1229.6 1604.2,1231.71"/>
            </g>
        </g>
        <g id="Pop-Bumper2">
            <g id="Drill61">
                <path d="M1900.36,954.067C1897.19,945.685 1884.61,950.445 1887.79,958.818C1890.95,967.194 1903.53,962.435 1900.35,954.067L1900.36,954.067Z"/>
                <path d="M1834.07,854.303C1830.9,845.929 1818.33,850.687 1821.51,859.061C1824.67,867.436 1837.24,862.678 1834.06,854.311L1834.07,854.303Z"/>
                <path d="M1718.25,884.805C1715.08,876.431 1702.51,881.183 1705.68,889.557C1708.85,897.932 1721.42,893.18 1718.24,884.806L1718.25,884.805Z"/>
                <path d="M1720.39,953.655C1742.85,962.105 1755.51,928.38 1733.04,919.959C1710.59,911.509 1697.92,945.235 1720.39,953.655Z"/>
                <path d="M1843.95,1000.04C1866.41,1008.49 1879.07,974.759 1856.6,966.34C1834.15,957.891 1821.48,991.616 1843.95,1000.04Z"/>
                <path d="M1761.26,942.81C1761.26,942.81 1759.07,946.667 1758.31,948.671C1752.08,965.293 1760.54,983.94 1777.17,990.182C1779.17,990.932 1783.49,991.886 1783.49,991.886C1784.93,997.461 1789.12,1002.11 1794.57,1004.16C1803.86,1007.64 1814.27,1002.91 1817.75,993.631C1819.8,988.172 1818.99,981.936 1815.74,977.186C1815.74,977.186 1817.93,973.335 1818.68,971.331C1824.92,954.703 1816.45,936.056 1799.83,929.817C1797.83,929.064 1793.5,928.109 1793.5,928.109C1792.06,922.541 1787.88,917.888 1782.42,915.839C1773.14,912.355 1762.73,917.083 1759.24,926.364C1757.19,931.824 1758.01,938.059 1761.26,942.81Z"/>
                <path d="M1830.58,944.036C1831.46,941.704 1830.28,939.108 1827.95,938.231C1825.63,937.354 1823.02,938.532 1822.15,940.858C1821.27,943.19 1822.44,945.781 1824.78,946.669C1827.1,947.541 1829.7,946.368 1830.58,944.036"/>
                <path d="M1754.27,978.521C1755.15,976.189 1753.97,973.592 1751.64,972.715C1749.32,971.839 1746.71,973.017 1745.84,975.343C1744.96,977.675 1746.13,980.266 1748.47,981.154C1750.79,982.025 1753.39,980.853 1754.27,978.521"/>
            </g>
        </g>
        <g id="T.-6-Post-Narrow">
            <g id="Drill62">
                <path d="M346.642,2990.71C343.284,2978.36 324.745,2983.41 328.117,2995.76C331.468,3008.11 350.013,3003.06 346.642,2990.71Z"/>
            </g>
        </g>
        <g id="T.-6-Post-Narrow1">
            <g id="Drill63">
                <path d="M428.768,3142.32C425.41,3129.96 406.872,3135.01 410.244,3147.36C413.595,3159.72 432.14,3154.66 428.768,3142.32Z"/>
            </g>
        </g>
        <g id="T.-6-Post-Narrow2">
            <g id="Drill64">
                <path d="M388.496,3193.08C385.138,3180.72 366.6,3185.78 369.971,3198.12C373.322,3210.48 391.868,3205.42 388.496,3193.08Z"/>
            </g>
        </g>
        <g id="T.-6-Post-Narrow3">
            <g id="Drill65">
                <path d="M726.09,3421.76C722.732,3409.41 704.194,3414.46 707.566,3426.81C710.917,3439.16 729.462,3434.11 726.09,3421.76Z"/>
            </g>
        </g>
        <g id="T.-6-Post-Narrow4">
            <g id="Drill66">
                <path d="M726.115,3685.66C722.757,3673.31 704.218,3678.36 707.59,3690.71C710.941,3703.06 729.486,3698.01 726.115,3685.66Z"/>
            </g>
        </g>
        <g id="T.-6-Post-Narrow5">
            <g id="Drill67">
                <path d="M845.771,3769.25C842.413,3756.9 823.875,3761.95 827.246,3774.3C830.597,3786.66 849.143,3781.6 845.771,3769.25Z"/>
            </g>
        </g>
        <g id="T.-6-Post-Narrow6">
            <g id="Drill68">
                <path d="M1710.35,3421.77C1707,3409.42 1688.46,3414.47 1691.83,3426.82C1695.18,3439.17 1713.73,3434.12 1710.35,3421.77Z"/>
            </g>
        </g>
        <g id="T.-6-Post-Narrow7">
            <g id="Drill69">
                <path d="M1709.86,3685.35C1706.51,3673 1687.97,3678.05 1691.34,3690.4C1694.69,3702.75 1713.23,3697.7 1709.86,3685.35Z"/>
            </g>
        </g>
        <g id="T.-6-Post-Narrow8">
            <g id="Drill70">
                <path d="M1589.88,3769.27C1586.53,3756.92 1567.99,3761.97 1571.36,3774.32C1574.71,3786.67 1593.26,3781.62 1589.88,3769.27Z"/>
            </g>
        </g>
        <g id="T.-6-Post-Narrow9">
            <g id="Drill71">
                <path d="M2082.82,2958.26C2079.46,2945.91 2060.92,2950.96 2064.29,2963.31C2067.64,2975.66 2086.19,2970.61 2082.82,2958.26Z"/>
            </g>
        </g>
        <g id="T.-6-Post-Narrow10">
            <g id="Drill72">
                <path d="M2119.38,3011.71C2116.02,2999.35 2097.48,3004.41 2100.85,3016.75C2104.2,3029.11 2122.75,3024.05 2119.38,3011.71Z"/>
            </g>
        </g>
        <g id="T.-6-Post-Narrow11">
            <g id="Drill73">
                <path d="M2026.56,3157.08C2023.2,3144.73 2004.66,3149.78 2008.03,3162.12C2011.38,3174.48 2029.93,3169.43 2026.56,3157.08Z"/>
            </g>
        </g>
        <g id="T.-6-Post-Narrow12">
            <g id="Drill74">
                <path d="M1957.55,2533.32C1954.19,2520.97 1935.65,2526.02 1939.02,2538.37C1942.37,2550.72 1960.92,2545.67 1957.55,2533.32Z"/>
            </g>
        </g>
        <g id="T.-6-Post-Narrow13">
            <g id="Drill75">
                <path d="M2022.92,2492.07C2019.57,2479.72 2001.03,2484.77 2004.4,2497.12C2007.75,2509.47 2026.3,2504.42 2022.92,2492.07Z"/>
            </g>
        </g>
        <g id="T.-6-Post-Narrow14">
            <g id="Drill76">
                <path d="M2070.19,2174.29C2066.84,2161.94 2048.3,2166.99 2051.67,2179.34C2055.02,2191.69 2073.57,2186.64 2070.19,2174.29Z"/>
            </g>
        </g>
        <g id="T.-6-Post-Narrow15">
            <g id="Drill77">
                <path d="M324.462,2397.71C321.104,2385.36 302.566,2390.41 305.937,2402.75C309.288,2415.11 327.834,2410.05 324.462,2397.71Z"/>
            </g>
        </g>
        <g id="T.-6-Post-Narrow16">
            <g id="Drill78">
                <path d="M353.063,2338.54C349.705,2326.19 331.166,2331.24 334.538,2343.59C337.889,2355.94 356.435,2350.89 353.063,2338.54Z"/>
            </g>
        </g>
        <g id="T.-6-Post-Narrow17">
            <g id="Drill79">
                <path d="M415.827,2321.9C412.469,2309.55 393.931,2314.6 397.303,2326.95C400.654,2339.3 419.199,2334.25 415.827,2321.9Z"/>
            </g>
        </g>
        <g id="T.-6-Post-Narrow18">
            <g id="Drill80">
                <path d="M1890.74,1078.68C1887.38,1066.33 1868.84,1071.38 1872.22,1083.73C1875.57,1096.08 1894.11,1091.03 1890.74,1078.68Z"/>
            </g>
        </g>
        <g id="T.-6-Post-Narrow19">
            <g id="Drill81">
                <path d="M1849,1193.33C1845.64,1180.98 1827.1,1186.03 1830.47,1198.38C1833.82,1210.73 1852.37,1205.68 1849,1193.33Z"/>
            </g>
        </g>
        <g id="Trough-Guard">
            <g id="Drill82">
                <path d="M933.775,4491.01C931.287,4491.01 929.273,4493.02 929.273,4495.51C929.273,4498 931.287,4500.02 933.775,4500.02C936.264,4500.02 938.277,4498 938.277,4495.51C938.277,4493.02 936.264,4491.01 933.775,4491.01"/>
                <path d="M904.283,4469.71C901.794,4469.71 899.781,4471.72 899.781,4474.21C899.781,4476.7 901.794,4478.72 904.283,4478.72C906.771,4478.72 908.785,4476.7 908.785,4474.21C908.785,4471.72 906.771,4469.71 904.283,4469.71"/>
                <path d="M1313.07,4690.9C1310.58,4690.9 1308.57,4692.91 1308.57,4695.4C1308.57,4697.89 1310.58,4699.91 1313.07,4699.91C1315.56,4699.91 1317.57,4697.89 1317.57,4695.4C1317.57,4692.91 1315.56,4690.9 1313.07,4690.9"/>
                <path d="M1437.59,4618.81C1435.1,4618.81 1433.09,4620.82 1433.09,4623.31C1433.09,4625.8 1435.1,4627.82 1437.59,4627.82C1440.08,4627.82 1442.09,4625.8 1442.09,4623.31C1442.09,4620.82 1440.08,4618.81 1437.59,4618.81"/>
            </g>
        </g>
        <g id="Eject-Switch">
            <g id="Drill83">
                <path d="M1692.35,2116.68C1691.33,2118.94 1692.33,2121.61 1694.6,2122.63C1696.87,2123.66 1699.54,2122.65 1700.57,2120.38C1701.59,2118.11 1700.58,2115.44 1698.3,2114.42C1696.04,2113.39 1693.36,2114.41 1692.35,2116.68"/>
                <path d="M1711.79,2085.86C1710.77,2088.13 1711.77,2090.8 1714.04,2091.82C1716.31,2092.85 1718.98,2091.83 1720.01,2089.56C1721.03,2087.3 1720.02,2084.62 1717.74,2083.6C1715.48,2082.57 1712.8,2083.59 1711.79,2085.86"/>
            </g>
        </g>
        <g id="_30-deg-Eject">
            <g id="Drill84">
                <path d="M457.917,2686.72L449.108,2727.9C448.22,2732.17 449.764,2736.76 453.139,2739.58C454.613,2740.82 456.486,2741.72 458.353,2742.12L516.997,2754.69C521.267,2755.57 525.881,2754.04 528.711,2750.66C529.945,2749.19 530.841,2747.31 531.243,2745.44L543.811,2686.78C544.699,2682.51 543.16,2677.92 539.78,2675.09C538.306,2673.86 536.433,2672.95 534.566,2672.55L494.419,2663.95C492.552,2663.55 490.703,2662.65 489.229,2661.42C488.332,2660.66 487.483,2659.71 486.865,2658.76L480.796,2649.39L460.132,2617.58C459.209,2616.16 457.938,2614.71 456.592,2613.58C448.99,2607.21 437.604,2608.22 431.242,2615.82C426.187,2621.86 425.614,2630.64 429.933,2637.2L450.605,2669.01L456.254,2677.68C458.017,2680.32 458.612,2683.63 457.917,2686.72Z"/>
                <path d="M310.034,2589.14C309.967,2586.65 307.901,2584.69 305.407,2584.76C302.921,2584.83 300.956,2586.89 301.023,2589.39C301.091,2591.88 303.164,2593.84 305.65,2593.77C308.144,2593.7 310.101,2591.64 310.034,2589.14"/>
                <path d="M342.713,2639.45C342.646,2636.96 340.58,2635 338.086,2635.07C335.6,2635.13 333.635,2637.2 333.703,2639.69C333.77,2642.19 335.843,2644.14 338.329,2644.08C340.823,2644.01 342.78,2641.94 342.713,2639.45"/>
            </g>
        </g>
        <g id="_30-deg-Eject1">
            <g id="Drill85">
                <path d="M1745.18,1924.34L1703.98,1933.01C1699.72,1933.94 1696.15,1937.21 1694.94,1941.44C1694.41,1943.29 1694.35,1945.37 1694.74,1947.24L1707.08,2005.93C1708,2010.19 1711.27,2013.79 1715.51,2015C1717.36,2015.53 1719.44,2015.59 1721.31,2015.19L1780.02,2002.85C1784.29,2001.92 1787.85,1998.66 1789.06,1994.42C1789.59,1992.57 1789.65,1990.49 1789.26,1988.62L1780.82,1948.44C1780.43,1946.57 1780.5,1944.52 1781.03,1942.67C1781.35,1941.55 1781.87,1940.38 1782.49,1939.43L1826,1872.34C1826,1872.34 1859.03,1804.34 1877.7,1765.9C1878.48,1764.3 1877.94,1762.37 1876.45,1761.4C1874.95,1760.43 1872.97,1760.73 1871.83,1762.09C1844.37,1794.83 1795.81,1852.72 1795.81,1852.72L1752.77,1919.15C1751.07,1921.83 1748.29,1923.72 1745.18,1924.34Z"/>
                <path d="M1773.74,1749.22C1775.99,1748.15 1776.94,1745.46 1775.87,1743.21C1774.8,1740.97 1772.11,1740.01 1769.86,1741.09C1767.61,1742.16 1766.66,1744.85 1767.73,1747.09C1768.81,1749.35 1771.49,1750.3 1773.74,1749.22" style="fill-rule:nonzero;"/>
                <path d="M1741.05,1799.52C1743.3,1798.44 1744.25,1795.76 1743.17,1793.51C1742.1,1791.26 1739.42,1790.31 1737.16,1791.38C1734.91,1792.46 1733.97,1795.14 1735.04,1797.39C1736.11,1799.64 1738.8,1800.59 1741.05,1799.52" style="fill-rule:nonzero;"/>
            </g>
        </g>
        <g id="Eject-Switch1">
            <g id="Drill86">
                <path d="M612.025,2811.86C613.703,2813.69 616.554,2813.83 618.388,2812.15C620.237,2810.47 620.363,2807.62 618.685,2805.78C617.007,2803.94 614.156,2803.81 612.314,2805.49C610.473,2807.16 610.347,2810.02 612.025,2811.86"/>
                <path d="M591.435,2781.8C593.113,2783.63 595.964,2783.76 597.798,2782.09C599.647,2780.41 599.773,2777.56 598.095,2775.72C596.417,2773.88 593.566,2773.75 591.724,2775.43C589.883,2777.1 589.757,2779.96 591.435,2781.8"/>
            </g>
        </g>
        <g id="M.-Shape">
            <g id="Drill87">
                <path d="M566.989,1679.83C570.106,1678.82 573.46,1680.53 574.473,1683.64C575.486,1686.76 573.777,1690.12 570.66,1691.13C567.542,1692.14 564.188,1690.43 563.175,1687.32C562.162,1684.2 563.871,1680.84 566.989,1679.83Z"/>
                <path d="M522.448,1542.77C525.566,1541.76 528.92,1543.47 529.933,1546.59C530.946,1549.7 529.237,1553.06 526.119,1554.07C523.002,1555.09 519.648,1553.38 518.635,1550.26C517.622,1547.14 519.331,1543.79 522.448,1542.77Z"/>
            </g>
        </g>
        <g id="M.-Shape1">
            <g id="Drill88">
                <path d="M682.292,1645.22C685.41,1644.21 688.763,1645.92 689.776,1649.03C690.789,1652.15 689.081,1655.51 685.963,1656.52C682.845,1657.53 679.491,1655.82 678.478,1652.7C677.465,1649.59 679.174,1646.23 682.292,1645.22Z"/>
                <path d="M637.752,1508.16C640.869,1507.15 644.223,1508.86 645.236,1511.98C646.249,1515.1 644.54,1518.45 641.423,1519.46C638.305,1520.48 634.951,1518.77 633.938,1515.65C632.925,1512.53 634.634,1509.18 637.752,1508.16Z"/>
            </g>
        </g>
        <g id="T.-6-Post-Narrow20">
            <g id="Drill89">
                <path d="M535.747,2501.8C532.389,2489.45 513.851,2494.5 517.223,2506.85C520.574,2519.2 539.119,2514.15 535.747,2501.8Z"/>
            </g>
        </g>
        <g id="Captive-Ball">
            <g id="Drill90">
                <path d="M588.787,1693.88C593.826,1692.24 599.247,1695 600.884,1700.04C602.521,1705.08 599.76,1710.5 594.721,1712.14C589.681,1713.78 584.261,1711.02 582.624,1705.98C580.987,1700.94 583.748,1695.52 588.787,1693.88Z"/>
                <path d="M669.133,1667.77C664.094,1669.41 661.332,1674.83 662.969,1679.87C664.606,1684.91 670.027,1687.67 675.066,1686.03C680.105,1684.4 682.867,1678.98 681.229,1673.94C679.592,1668.9 674.172,1666.14 669.133,1667.77Z"/>
                <path d="M649.874,1745.19C644.835,1746.83 642.073,1752.25 643.711,1757.29C645.348,1762.33 650.768,1765.09 655.807,1763.45C660.847,1761.82 663.608,1756.4 661.971,1751.36C660.334,1746.32 654.913,1743.56 649.874,1745.19Z"/>
            </g>
        </g>
        <g id="MAGNET2">
            <g id="Drill91">
                <path d="M1173.93,2426.71C1173.86,2424.22 1171.8,2422.26 1169.31,2422.33C1166.82,2422.39 1164.85,2424.46 1164.92,2426.95C1164.99,2429.45 1167.06,2431.4 1169.55,2431.34C1172.04,2431.27 1174,2429.2 1173.93,2426.71"/>
                <path d="M1174.29,2498.58C1174.23,2496.09 1172.16,2494.13 1169.67,2494.2C1167.18,2494.27 1165.22,2496.33 1165.28,2498.83C1165.35,2501.32 1167.42,2503.28 1169.91,2503.21C1172.4,2503.14 1174.36,2501.08 1174.29,2498.58"/>
                <path d="M1507.43,2426.45C1507.43,2428.94 1509.44,2430.96 1511.93,2430.96C1514.42,2430.96 1516.44,2428.94 1516.44,2426.45C1516.44,2423.95 1514.42,2421.94 1511.93,2421.94C1509.44,2421.94 1507.43,2423.95 1507.43,2426.45"/>
                <path d="M1507.43,2498.47C1507.47,2500.96 1509.52,2502.94 1512.01,2502.9C1514.5,2502.85 1516.48,2500.81 1516.44,2498.31C1516.4,2495.82 1514.35,2493.84 1511.86,2493.88C1509.37,2493.93 1507.39,2495.97 1507.43,2498.47"/>
                <path d="M1340.71,2430.33C1322.88,2430.33 1308.41,2444.79 1308.42,2462.63C1308.42,2480.47 1322.88,2494.93 1340.72,2494.92C1358.56,2494.93 1373.01,2480.46 1373.01,2462.62C1373.01,2444.79 1358.55,2430.33 1340.71,2430.33Z"/>
            </g>
        </g>
        <g id="MAGNET3">
            <g id="Drill92">
                <path d="M305.436,1981.6C303.736,1979.78 300.892,1979.68 299.067,1981.38C297.247,1983.07 297.141,1985.92 298.842,1987.75C300.543,1989.57 303.392,1989.67 305.212,1987.97C307.037,1986.27 307.137,1983.43 305.436,1981.6"/>
                <path d="M353.275,2035.25C351.574,2033.42 348.73,2033.32 346.905,2035.02C345.086,2036.72 344.98,2039.57 346.681,2041.39C348.381,2043.22 351.231,2043.31 353.05,2041.62C354.875,2039.91 354.976,2037.07 353.275,2035.25"/>
                <path d="M555.276,1760.7C556.927,1762.57 559.767,1762.75 561.638,1761.1C563.502,1759.45 563.685,1756.6 562.034,1754.73C560.383,1752.86 557.537,1752.69 555.672,1754.34C553.802,1755.99 553.625,1758.83 555.276,1760.7"/>
                <path d="M602.939,1814.68C604.621,1816.53 607.463,1816.66 609.306,1814.98C611.143,1813.3 611.278,1810.45 609.596,1808.61C607.914,1806.77 605.066,1806.64 603.229,1808.32C601.386,1810 601.257,1812.84 602.939,1814.68"/>
                <path d="M432.864,1873.94C419.493,1885.75 418.221,1906.15 430.029,1919.53C441.838,1932.9 462.244,1934.17 475.615,1922.36C488.992,1910.56 490.258,1890.14 478.45,1876.78C466.648,1863.4 446.235,1862.13 432.864,1873.94Z"/>
            </g>
        </g>
        <g id="M.-Shape2">
            <g id="Drill93">
                <circle cx="426.397" cy="3582.35" r="5.94"/>
                <circle cx="426.389" cy="3438.24" r="5.94"/>
            </g>
        </g>
        <g id="M.-Shape3">
            <g id="Drill94">
                <circle cx="553.775" cy="3618.06" r="5.94"/>
                <circle cx="553.767" cy="3473.95" r="5.94"/>
            </g>
        </g>
        <g id="M.-Shape4">
            <g id="Drill95">
                <circle cx="1863.26" cy="3618.05" r="5.94"/>
                <circle cx="1863.26" cy="3473.93" r="5.94"/>
            </g>
        </g>
        <g id="M.-Shape5">
            <g id="Drill96">
                <circle cx="1990.75" cy="3582.22" r="5.94"/>
                <circle cx="1990.74" cy="3438.1" r="5.94"/>
            </g>
        </g>
        <g id="M.-Shape6">
            <g id="Drill97">
                <circle cx="2020.19" cy="3582.22" r="5.94"/>
                <circle cx="2020.18" cy="3438.1" r="5.94"/>
            </g>
        </g>
        <g id="M.-Shape7">
            <g id="Drill98">
                <circle cx="2020.19" cy="3760.67" r="5.94"/>
                <circle cx="2020.18" cy="3616.56" r="5.94"/>
            </g>
        </g>
        <g id="M.-Shape8">
            <g id="Drill99">
                <circle cx="2023.39" cy="4108.74" r="5.94"/>
                <circle cx="2023.39" cy="3964.63" r="5.94"/>
            </g>
        </g>
        <g id="M.-Shape9">
            <g id="Drill100">
                <path d="M2018.1,3938.38C2016.25,3935.67 2016.94,3931.97 2019.64,3930.12C2022.35,3928.27 2026.05,3928.96 2027.9,3931.67C2029.75,3934.37 2029.06,3938.07 2026.36,3939.92C2023.65,3941.78 2019.95,3941.08 2018.1,3938.38Z"/>
                <path d="M1899.19,4019.8C1897.34,4017.1 1898.04,4013.4 1900.74,4011.55C1903.44,4009.69 1907.14,4010.39 1909,4013.09C1910.85,4015.8 1910.16,4019.5 1907.45,4021.35C1904.75,4023.2 1901.05,4022.51 1899.19,4019.8Z"/>
            </g>
        </g>
        <g id="M.-Shape10">
            <g id="Drill101">
                <path d="M406.848,2737.17C409.581,2735.36 413.27,2736.11 415.079,2738.85C416.889,2741.58 416.138,2745.27 413.404,2747.08C410.671,2748.89 406.982,2748.14 405.173,2745.4C403.364,2742.67 404.114,2738.98 406.848,2737.17Z"/>
                <path d="M327.301,2617C330.034,2615.19 333.723,2615.95 335.532,2618.68C337.342,2621.41 336.591,2625.1 333.857,2626.91C331.124,2628.72 327.435,2627.97 325.626,2625.24C323.817,2622.5 324.567,2618.81 327.301,2617Z"/>
            </g>
        </g>
        <g id="M.-Shape11">
            <g id="Drill102">
                <circle cx="330.577" cy="2592.52" r="5.94"/>
                <circle cx="330.57" cy="2448.41" r="5.94"/>
            </g>
        </g>
        <g id="M.-Shape12">
            <g id="Drill103">
                <path d="M1705.49,1492.92C1708.22,1494.73 1708.97,1498.42 1707.16,1501.15C1705.35,1503.89 1701.66,1504.64 1698.93,1502.83C1696.2,1501.02 1695.45,1497.33 1697.26,1494.6C1699.06,1491.86 1702.75,1491.11 1705.49,1492.92Z"/>
                <path d="M1785.02,1372.74C1787.75,1374.55 1788.5,1378.24 1786.69,1380.97C1784.88,1383.71 1781.19,1384.46 1778.46,1382.65C1775.73,1380.84 1774.98,1377.15 1776.78,1374.42C1778.59,1371.68 1782.28,1370.93 1785.02,1372.74Z"/>
            </g>
        </g>
        <g id="M.-Shape13">
            <g id="Drill104">
                <path d="M1790.51,1356.6C1793.44,1358.07 1794.63,1361.64 1793.16,1364.57C1791.7,1367.51 1788.13,1368.69 1785.19,1367.23C1782.26,1365.76 1781.07,1362.19 1782.54,1359.26C1784.01,1356.33 1787.58,1355.14 1790.51,1356.6Z"/>
                <path d="M1854.96,1227.71C1857.89,1229.18 1859.09,1232.75 1857.62,1235.68C1856.15,1238.61 1852.58,1239.8 1849.65,1238.33C1846.72,1236.87 1845.53,1233.3 1846.99,1230.37C1848.46,1227.43 1852.03,1226.24 1854.96,1227.71Z"/>
            </g>
        </g>
        <g id="M.-Shape14">
            <g id="Drill105">
                <path d="M1509.99,1464.56C1512.38,1466.79 1512.51,1470.55 1510.28,1472.95C1508.04,1475.35 1504.28,1475.48 1501.88,1473.24C1499.49,1471 1499.36,1467.24 1501.59,1464.85C1503.83,1462.45 1507.59,1462.32 1509.99,1464.56Z"/>
                <path d="M1608.3,1359.19C1610.7,1361.42 1610.83,1365.18 1608.59,1367.58C1606.36,1369.98 1602.59,1370.11 1600.2,1367.87C1597.8,1365.64 1597.67,1361.87 1599.91,1359.48C1602.14,1357.08 1605.9,1356.95 1608.3,1359.19Z"/>
            </g>
        </g>
        <g id="M.-Shape15">
            <g id="Drill106">
                <path d="M1327.9,1366.8C1329.91,1369.39 1329.45,1373.12 1326.86,1375.14C1324.28,1377.15 1320.54,1376.69 1318.53,1374.1C1316.51,1371.52 1316.98,1367.78 1319.56,1365.77C1322.15,1363.75 1325.89,1364.22 1327.9,1366.8Z"/>
                <path d="M1441.61,1278.26C1443.62,1280.85 1443.15,1284.59 1440.57,1286.6C1437.98,1288.61 1434.25,1288.15 1432.23,1285.56C1430.22,1282.98 1430.68,1279.24 1433.27,1277.23C1435.86,1275.21 1439.59,1275.68 1441.61,1278.26Z"/>
            </g>
        </g>
        <g id="M.-Shape16">
            <g id="Drill107">
                <path d="M530.891,2459.42C533.741,2457.8 537.37,2458.8 538.989,2461.65C540.609,2464.5 539.609,2468.13 536.759,2469.75C533.908,2471.37 530.279,2470.37 528.66,2467.52C527.041,2464.67 528.04,2461.04 530.891,2459.42Z"/>
                <path d="M459.701,2334.12C462.552,2332.5 466.181,2333.5 467.8,2336.35C469.419,2339.2 468.42,2342.83 465.569,2344.45C462.719,2346.07 459.09,2345.07 457.471,2342.22C455.851,2339.37 456.851,2335.74 459.701,2334.12Z"/>
            </g>
        </g>
        <g id="M.-Shape17">
            <g id="Drill108">
                <path d="M1845.8,1918.64C1848.55,1920.43 1849.33,1924.11 1847.55,1926.86C1845.77,1929.61 1842.08,1930.4 1839.33,1928.61C1836.58,1926.83 1835.8,1923.15 1837.58,1920.4C1839.36,1917.65 1843.04,1916.86 1845.8,1918.64Z"/>
                <path d="M1924.17,1797.71C1926.92,1799.49 1927.71,1803.17 1925.93,1805.92C1924.14,1808.68 1920.46,1809.46 1917.71,1807.68C1914.96,1805.9 1914.17,1802.22 1915.96,1799.46C1917.74,1796.71 1921.42,1795.93 1924.17,1797.71Z"/>
            </g>
        </g>
        <g id="M.-Shape18">
            <g id="Drill109">
                <path d="M1745.98,1853.75C1748.73,1855.54 1749.51,1859.22 1747.72,1861.97C1745.93,1864.72 1742.25,1865.5 1739.5,1863.71C1736.76,1861.92 1735.97,1858.24 1737.76,1855.49C1739.55,1852.74 1743.23,1851.96 1745.98,1853.75Z"/>
                <path d="M1824.52,1732.92C1827.27,1734.71 1828.05,1738.39 1826.26,1741.14C1824.48,1743.89 1820.79,1744.67 1818.05,1742.88C1815.3,1741.09 1814.52,1737.41 1816.3,1734.66C1818.09,1731.91 1821.77,1731.13 1824.52,1732.92Z"/>
            </g>
        </g>
        <g id="Flipper-Left">
            <g id="Drill110">
                <path d="M1124.97,4196.69C1122.48,4196.69 1120.46,4198.71 1120.46,4201.2C1120.46,4203.69 1122.48,4205.71 1124.97,4205.71C1127.46,4205.71 1129.48,4203.69 1129.48,4201.2C1129.48,4198.71 1127.46,4196.69 1124.97,4196.69"/>
            </g>
        </g>
        <g id="Flipper-Left1">
            <g id="Drill111">
                <path d="M586.253,2483.71C584.183,2482.32 581.386,2482.88 579.999,2484.94C578.608,2487.01 579.155,2489.8 581.226,2491.2C583.291,2492.58 586.089,2492.04 587.48,2489.97C588.868,2487.9 588.318,2485.1 586.253,2483.71"/>
            </g>
        </g>
        <g id="O-Target-Narrow">
            <g id="Drill112">
                <path d="M403.197,2771.69C396.961,2768.84 389.584,2771.59 386.734,2777.82L372.401,2809.19C369.551,2815.42 372.3,2822.8 378.537,2825.65L407.219,2838.76C413.455,2841.61 420.832,2838.86 423.682,2832.62L438.015,2801.26C440.865,2795.02 438.116,2787.64 431.879,2784.79L403.197,2771.69Z"/>
                <path d="M450.824,2849.15C449.795,2851.42 450.8,2854.09 453.067,2855.12C455.33,2856.15 458.004,2855.14 459.033,2852.87C460.059,2850.61 459.058,2847.94 456.791,2846.91C454.531,2845.88 451.854,2846.88 450.824,2849.15"/>
                <path d="M468.228,2811.07C467.199,2813.33 468.204,2816 470.471,2817.03C472.734,2818.07 475.408,2817.05 476.437,2814.79C477.463,2812.53 476.462,2809.85 474.195,2808.82C471.935,2807.8 469.257,2808.8 468.228,2811.07"/>
            </g>
        </g>
        <g id="O-Target-Narrow1">
            <g id="Drill113">
                <path d="M903.759,1476.01C901.697,1469.47 894.714,1465.83 888.175,1467.9L855.286,1478.27C848.747,1480.33 845.112,1487.31 847.174,1493.85L856.656,1523.92C858.718,1530.47 865.701,1534.1 872.241,1532.04L905.129,1521.67C911.668,1519.61 915.304,1512.62 913.242,1506.08L903.759,1476.01Z"/>
                <path d="M878.151,1563.26C875.779,1564.02 874.469,1566.55 875.223,1568.92C875.971,1571.3 878.513,1572.61 880.885,1571.85C883.25,1571.1 884.567,1568.56 883.813,1566.19C883.06,1563.83 880.524,1562.51 878.151,1563.26"/>
                <path d="M918.086,1550.67C915.714,1551.42 914.404,1553.96 915.159,1556.33C915.906,1558.71 918.448,1560.02 920.82,1559.26C923.186,1558.51 924.503,1555.97 923.748,1553.6C922.996,1551.23 920.459,1549.92 918.086,1550.67"/>
            </g>
        </g>
        <g id="O-Target-Narrow2">
            <g id="Drill114">
                <path d="M1945.72,1709.16C1949.45,1703.41 1947.8,1695.71 1942.05,1691.98L1913.11,1673.23C1907.35,1669.51 1899.65,1671.15 1895.92,1676.91L1878.78,1703.37C1875.05,1709.13 1876.7,1716.83 1882.45,1720.56L1911.39,1739.3C1917.15,1743.03 1924.85,1741.38 1928.58,1735.63L1945.72,1709.16Z"/>
                <path d="M1862.15,1745C1860.05,1743.65 1857.27,1744.26 1855.92,1746.35C1854.56,1748.44 1855.17,1751.23 1857.27,1752.58C1859.35,1753.92 1862.15,1753.32 1863.5,1751.23C1864.84,1749.14 1864.24,1746.35 1862.15,1745"/>
                <path d="M1897.29,1767.77C1895.2,1766.42 1892.41,1767.02 1891.06,1769.12C1889.71,1771.2 1890.32,1774 1892.41,1775.35C1894.5,1776.69 1897.29,1776.09 1898.64,1774C1899.98,1771.91 1899.38,1769.11 1897.29,1767.77"/>
            </g>
        </g>
        <g id="O-Target-Narrow3">
            <g id="Drill115">
                <path d="M570.446,2537.4C566.588,2531.73 558.854,2530.26 553.186,2534.12L524.678,2553.52C519.01,2557.38 517.54,2565.11 521.398,2570.78L539.141,2596.85C542.999,2602.52 550.734,2603.99 556.402,2600.13L584.91,2580.73C590.578,2576.87 592.048,2569.13 588.19,2563.47L570.446,2537.4Z"/>
                <path d="M571.055,2628.33C569.001,2629.73 568.477,2632.54 569.883,2634.59C571.282,2636.65 574.093,2637.17 576.148,2635.77C578.196,2634.36 578.726,2631.56 577.321,2629.5C575.919,2627.45 573.11,2626.92 571.055,2628.33"/>
                <path d="M605.672,2604.77C603.617,2606.17 603.093,2608.98 604.499,2611.03C605.898,2613.09 608.709,2613.61 610.764,2612.21C612.812,2610.8 613.343,2607.99 611.937,2605.94C610.535,2603.89 607.726,2603.36 605.672,2604.77"/>
            </g>
        </g>
        <g id="O-Target-Narrow4">
            <g id="Drill116">
                <path d="M596.863,1485.25C594.745,1478.73 587.73,1475.16 581.209,1477.28L548.412,1487.93C541.891,1490.05 538.317,1497.07 540.436,1503.59L550.181,1533.58C552.299,1540.1 559.314,1543.68 565.835,1541.56L598.632,1530.9C605.153,1528.78 608.727,1521.77 606.608,1515.25L596.863,1485.25Z"/>
                <path d="M572.018,1572.73C569.652,1573.5 568.365,1576.05 569.14,1578.42C569.908,1580.78 572.461,1582.07 574.827,1581.29C577.185,1580.52 578.48,1577.97 577.705,1575.61C576.932,1573.25 574.384,1571.95 572.018,1572.73"/>
                <path d="M611.842,1559.79C609.476,1560.56 608.188,1563.11 608.964,1565.48C609.732,1567.84 612.285,1569.13 614.651,1568.35C617.009,1567.58 618.304,1565.03 617.529,1562.67C616.756,1560.31 614.207,1559.01 611.842,1559.79"/>
            </g>
        </g>
    </g>
</svg>
