<?xml version="1.0" encoding="UTF-8" standalone="no"?>
<!DOCTYPE svg PUBLIC "-//W3C//DTD SVG 1.1//EN" "http://www.w3.org/Graphics/SVG/1.1/DTD/svg11.dtd">
<svg width="4544px" height="4993px" version="1.1" xmlns="http://www.w3.org/2000/svg" xmlns:xlink="http://www.w3.org/1999/xlink" xml:space="preserve" style="fill-rule:evenodd;clip-rule:evenodd;stroke-linecap:round;stroke-linejoin:round;stroke-miterlimit:2.613;">
    <g id="Flipper-Mech-Right">
        <g id="Drill">
            <path d="M1389.26,3767.24C1389.26,3769.74 1391.28,3771.75 1393.77,3771.75C1396.26,3771.75 1398.28,3769.74 1398.28,3767.24C1398.28,3764.75 1396.26,3762.74 1393.77,3762.74C1391.28,3762.74 1389.26,3764.75 1389.26,3767.24"/>
            <path d="M1430.24,3745.94C1430.24,3748.43 1432.25,3750.44 1434.75,3750.44C1437.23,3750.44 1439.25,3748.43 1439.25,3745.94C1439.25,3743.44 1437.23,3741.43 1434.75,3741.43C1432.25,3741.43 1430.24,3743.44 1430.24,3745.94"/>
            <path d="M1533.5,4047.52C1533.5,4050.01 1535.51,4052.02 1538,4052.02C1540.5,4052.02 1542.51,4050.01 1542.51,4047.52C1542.51,4045.03 1540.5,4043.01 1538,4043.01C1535.51,4043.01 1533.5,4045.03 1533.5,4047.52"/>
            <path d="M1574.47,4027.03C1574.47,4029.52 1576.49,4031.54 1578.98,4031.54C1581.47,4031.54 1583.49,4029.52 1583.49,4027.03C1583.49,4024.54 1581.47,4022.52 1578.98,4022.52C1576.49,4022.52 1574.47,4024.54 1574.47,4027.03"/>
            <path d="M1853.11,3883.61C1853.11,3886.11 1855.12,3888.12 1857.61,3888.12C1860.1,3888.12 1862.12,3886.11 1862.12,3883.61C1862.12,3881.12 1860.1,3879.11 1857.61,3879.11C1855.12,3879.11 1853.11,3881.12 1853.11,3883.61"/>
            <path d="M1894.9,3862.31C1894.9,3864.8 1896.92,3866.81 1899.41,3866.81C1901.9,3866.81 1903.92,3864.8 1903.92,3862.31C1903.92,3859.82 1901.9,3857.8 1899.41,3857.8C1896.92,3857.8 1894.9,3859.82 1894.9,3862.31"/>
            <path d="M1708.87,3602.52C1708.87,3605.02 1710.89,3607.03 1713.38,3607.03C1715.87,3607.03 1717.89,3605.02 1717.89,3602.52C1717.89,3600.03 1715.87,3598.01 1713.38,3598.01C1710.89,3598.01 1708.87,3600.03 1708.87,3602.52"/>
            <path d="M1750.67,3581.21C1750.67,3583.71 1752.69,3585.72 1755.17,3585.72C1757.66,3585.72 1759.68,3583.71 1759.68,3581.21C1759.68,3578.72 1757.66,3576.71 1755.17,3576.71C1752.69,3576.71 1750.67,3578.72 1750.67,3581.21"/>
            <circle cx="1533.1" cy="3927.06" r="24"/>
        </g>
    </g>
    <g id="Flipper-Mech-Left">
        <g id="Drill1">
            <path d="M451.099,1984.14C450.862,1981.67 448.666,1979.84 446.191,1980.08C443.705,1980.31 441.888,1982.51 442.12,1984.99C442.357,1987.46 444.553,1989.29 447.038,1989.05C449.514,1988.82 451.335,1986.62 451.099,1984.14"/>
            <path d="M495.651,1997.19C495.415,1994.72 493.218,1992.89 490.744,1993.13C488.257,1993.36 486.441,1995.56 486.673,1998.04C486.909,2000.51 489.106,2002.34 491.59,2002.1C494.066,2001.87 495.887,1999.66 495.651,1997.19"/>
            <path d="M405.964,2300.04C405.728,2297.57 403.531,2295.75 401.057,2295.98C398.57,2296.21 396.754,2298.41 396.986,2300.89C397.222,2303.37 399.419,2305.19 401.904,2304.95C404.379,2304.72 406.201,2302.52 405.964,2300.04"/>
            <path d="M361.905,2286.34C361.668,2283.87 359.472,2282.04 356.997,2282.28C354.511,2282.51 352.694,2284.71 352.926,2287.19C353.163,2289.66 355.359,2291.49 357.844,2291.25C360.32,2291.02 362.141,2288.81 361.905,2286.34"/>
            <path d="M750.912,2401.95C750.676,2399.48 748.479,2397.66 746.005,2397.89C743.518,2398.12 741.702,2400.32 741.934,2402.8C742.17,2405.28 744.366,2407.1 746.851,2406.86C749.327,2406.64 751.148,2404.43 750.912,2401.95"/>
            <path d="M841.254,2099.6C841.017,2097.12 838.821,2095.3 836.346,2095.53C833.86,2095.76 832.043,2097.96 832.275,2100.44C832.512,2102.92 834.708,2104.74 837.193,2104.5C839.669,2104.28 841.49,2102.07 841.254,2099.6"/>
            <path d="M796.047,2086.05C795.811,2083.58 793.614,2081.76 791.14,2081.99C788.653,2082.22 786.837,2084.42 787.069,2086.9C787.305,2089.38 789.502,2091.2 791.987,2090.96C794.463,2090.73 796.284,2088.53 796.047,2086.05"/>
            <path d="M706.36,2388.91C706.124,2386.43 703.927,2384.61 701.453,2384.85C698.967,2385.07 697.15,2387.27 697.382,2389.75C697.618,2392.23 699.815,2394.05 702.3,2393.81C704.776,2393.59 706.597,2391.38 706.36,2388.91"/>
            <path d="M450.038,2122.93C439.46,2114.96 437.343,2099.9 445.315,2089.32C453.286,2078.74 468.347,2076.62 478.925,2084.6C489.504,2092.57 491.621,2107.63 483.649,2118.2C475.677,2128.78 460.617,2130.9 450.038,2122.93Z"/>
        </g>
    </g>
    <g id="Flipper-Mech-Left1">
        <g id="Drill2">
            <path d="M967.573,4014.5C969.251,4016.33 972.102,4016.47 973.936,4014.79C975.785,4013.11 975.911,4010.26 974.233,4008.42C972.555,4006.58 969.704,4006.45 967.863,4008.13C966.021,4009.81 965.895,4012.66 967.573,4014.5"/>
            <path d="M924.139,4030.89C925.817,4032.72 928.668,4032.86 930.502,4031.18C932.35,4029.5 932.477,4026.65 930.799,4024.81C929.121,4022.97 926.269,4022.84 924.428,4024.52C922.587,4026.2 922.461,4029.05 924.139,4030.89"/>
            <path d="M813.504,3735.04C815.182,3736.88 818.033,3737.01 819.867,3735.33C821.716,3733.66 821.842,3730.8 820.164,3728.96C818.486,3727.13 815.635,3726.99 813.794,3728.68C811.953,3730.35 811.826,3733.21 813.504,3735.04"/>
            <path d="M856.939,3719.47C858.617,3721.31 861.468,3721.44 863.302,3719.76C865.151,3718.08 865.277,3715.23 863.599,3713.39C861.921,3711.56 859.07,3711.42 857.228,3713.11C855.387,3714.78 855.261,3717.64 856.939,3719.47"/>
            <path d="M476.685,3861.25C478.363,3863.08 481.214,3863.22 483.048,3861.54C484.897,3859.86 485.023,3857.01 483.345,3855.17C481.667,3853.33 478.816,3853.2 476.974,3854.89C475.133,3856.56 475.007,3859.41 476.685,3861.25"/>
            <path d="M586.499,4157.09C588.177,4158.93 591.028,4159.06 592.862,4157.38C594.711,4155.7 594.837,4152.85 593.159,4151.01C591.481,4149.18 588.63,4149.04 586.789,4150.73C584.948,4152.4 584.821,4155.26 586.499,4157.09"/>
            <path d="M630.753,4140.7C632.431,4142.54 635.282,4142.67 637.116,4140.99C638.965,4139.31 639.091,4136.46 637.413,4134.62C635.735,4132.79 632.884,4132.65 631.043,4134.34C629.201,4136.01 629.075,4138.87 630.753,4140.7"/>
            <path d="M520.119,3844.86C521.797,3846.69 524.648,3846.83 526.482,3845.15C528.33,3843.47 528.457,3840.62 526.779,3838.78C525.101,3836.94 522.25,3836.81 520.408,3838.49C518.567,3840.16 518.441,3843.02 520.119,3844.86"/>
            <circle cx="884.895" cy="3927.02" r="24"/>
        </g>
    </g>
    <g id="MAGNET">
        <g id="Drill3">
            <path d="M310.042,1854.03C308.311,1852.23 305.466,1852.18 303.669,1853.91C301.878,1855.64 301.819,1858.49 303.55,1860.28C305.281,1862.08 308.131,1862.13 309.922,1860.4C311.719,1858.67 311.772,1855.83 310.042,1854.03"/>
            <path d="M358.762,1906.87C357.031,1905.08 354.186,1905.02 352.389,1906.75C350.598,1908.48 350.539,1911.33 352.27,1913.13C354.001,1914.92 356.851,1914.97 358.643,1913.25C360.439,1911.51 360.493,1908.67 358.762,1906.87"/>
            <path d="M556.189,1629.02C557.87,1630.86 560.713,1630.99 562.556,1629.31C564.393,1627.63 564.528,1624.78 562.846,1622.94C561.164,1621.1 558.316,1620.97 556.479,1622.65C554.637,1624.33 554.507,1627.17 556.189,1629.02"/>
            <path d="M604.739,1682.21C606.451,1684.02 609.295,1684.1 611.11,1682.39C612.918,1680.68 613.006,1677.83 611.294,1676.02C609.582,1674.21 606.732,1674.13 604.923,1675.84C603.109,1677.55 603.026,1680.39 604.739,1682.21"/>
            <path d="M435.668,1744.27C422.495,1756.3 421.561,1776.72 433.588,1789.9C445.617,1803.08 466.042,1804 479.215,1791.98C492.396,1779.95 493.323,1759.52 481.295,1746.35C469.273,1733.17 448.842,1732.24 435.668,1744.27Z"/>
        </g>
    </g>
    <g id="MAGNET1">
        <g id="Drill4">
            <path d="M1117.34,2332.66C1117.27,2330.16 1115.2,2328.2 1112.71,2328.27C1110.22,2328.34 1108.26,2330.4 1108.33,2332.9C1108.39,2335.39 1110.47,2337.35 1112.95,2337.28C1115.45,2337.21 1117.4,2335.15 1117.34,2332.66"/>
            <path d="M1117.7,2404.53C1117.63,2402.03 1115.57,2400.08 1113.07,2400.14C1110.59,2400.21 1108.62,2402.28 1108.69,2404.77C1108.76,2407.27 1110.83,2409.22 1113.31,2409.16C1115.81,2409.09 1117.77,2407.02 1117.7,2404.53"/>
            <path d="M1450.83,2332.4C1450.83,2334.89 1452.84,2336.9 1455.34,2336.9C1457.83,2336.9 1459.84,2334.89 1459.84,2332.4C1459.84,2329.9 1457.83,2327.89 1455.34,2327.89C1452.84,2327.89 1450.83,2329.9 1450.83,2332.4"/>
            <path d="M1450.83,2404.41C1450.88,2406.91 1452.92,2408.88 1455.41,2408.84C1457.9,2408.8 1459.89,2406.76 1459.85,2404.26C1459.8,2401.77 1457.75,2399.79 1455.26,2399.83C1452.77,2399.87 1450.79,2401.92 1450.83,2404.41"/>
            <path d="M1284.12,2336.28C1266.28,2336.28 1251.82,2350.74 1251.82,2368.57C1251.82,2386.42 1266.28,2400.87 1284.12,2400.87C1301.96,2400.87 1316.42,2386.41 1316.42,2368.57C1316.42,2350.74 1301.96,2336.27 1284.12,2336.28Z"/>
        </g>
    </g>
    <g id="MAGNET2">
        <g id="Drill5">
            <path d="M1684.56,2467.9C1686.72,2466.64 1687.44,2463.89 1686.18,2461.73C1684.92,2459.59 1682.16,2458.86 1680.01,2460.12C1677.86,2461.38 1677.14,2464.14 1678.4,2466.29C1679.66,2468.44 1682.41,2469.16 1684.56,2467.9"/>
            <path d="M1621.76,2502.85C1623.91,2501.59 1624.63,2498.84 1623.37,2496.68C1622.11,2494.54 1619.36,2493.81 1617.2,2495.07C1615.05,2496.33 1614.34,2499.09 1615.59,2501.24C1616.85,2503.39 1619.61,2504.11 1621.76,2502.85"/>
            <path d="M1845.49,2760C1843.3,2761.2 1842.51,2763.93 1843.71,2766.12C1844.91,2768.3 1847.64,2769.1 1849.83,2767.9C1852.02,2766.69 1852.81,2763.95 1851.61,2761.78C1850.41,2759.59 1847.67,2758.8 1845.49,2760"/>
            <path d="M1782.39,2794.7C1780.22,2795.94 1779.47,2798.68 1780.71,2800.85C1781.94,2803.01 1784.69,2803.76 1786.86,2802.53C1789.03,2801.29 1789.77,2798.54 1788.54,2796.38C1787.3,2794.21 1784.55,2793.46 1782.39,2794.7"/>
            <path d="M1761.76,2615.78C1753.16,2600.16 1733.52,2594.45 1717.89,2603.05C1702.26,2611.65 1696.56,2631.28 1705.16,2646.91C1713.75,2662.55 1733.39,2668.25 1749.02,2659.65C1764.65,2651.06 1770.35,2631.41 1761.76,2615.78Z"/>
        </g>
    </g>
    <g id="MAGNET3">
        <g id="Drill6">
            <path d="M1470.7,2911.07C1470.63,2908.58 1468.57,2906.62 1466.07,2906.69C1463.59,2906.75 1461.62,2908.82 1461.69,2911.31C1461.76,2913.81 1463.83,2915.76 1466.32,2915.7C1468.81,2915.63 1470.77,2913.56 1470.7,2911.07"/>
            <path d="M1471.06,2982.94C1470.99,2980.45 1468.93,2978.49 1466.43,2978.56C1463.95,2978.63 1461.98,2980.69 1462.05,2983.19C1462.12,2985.68 1464.19,2987.64 1466.68,2987.57C1469.17,2987.5 1471.13,2985.44 1471.06,2982.94"/>
            <path d="M1804.19,2910.81C1804.19,2913.31 1806.2,2915.32 1808.7,2915.32C1811.19,2915.32 1813.21,2913.31 1813.21,2910.81C1813.21,2908.32 1811.19,2906.3 1808.7,2906.3C1806.2,2906.3 1804.19,2908.32 1804.19,2910.81"/>
            <path d="M1804.2,2982.83C1804.24,2985.32 1806.28,2987.3 1808.78,2987.26C1811.26,2987.22 1813.25,2985.17 1813.21,2982.68C1813.17,2980.18 1811.11,2978.2 1808.63,2978.24C1806.13,2978.29 1804.15,2980.33 1804.2,2982.83"/>
            <path d="M1637.48,2914.69C1619.64,2914.69 1605.18,2929.15 1605.18,2946.99C1605.19,2964.83 1619.64,2979.29 1637.48,2979.28C1655.32,2979.29 1669.78,2964.82 1669.78,2946.99C1669.78,2929.15 1655.32,2914.69 1637.48,2914.69Z"/>
        </g>
    </g>
    <g id="Scoop">
        <g id="Drill7">
            <path d="M2126.83,2804.28C2129.94,2806.81 2130.43,2811.39 2127.9,2814.51C2125.38,2817.62 2120.8,2818.1 2117.68,2815.58C2114.56,2813.05 2114.08,2808.47 2116.61,2805.36C2119.13,2802.24 2123.71,2801.76 2126.83,2804.28Z"/>
            <path d="M1949.28,2808.47C1946.75,2811.58 1942.17,2812.06 1939.06,2809.54C1935.94,2807.01 1935.46,2802.43 1937.98,2799.32C1940.51,2796.2 1945.09,2795.72 1948.2,2798.24C1951.32,2800.77 1951.8,2805.35 1949.28,2808.47Z"/>
            <path d="M2108.19,2712.99C2109.81,2710.99 2109.5,2708.07 2107.51,2706.45L2005.06,2623.49C2003.07,2621.87 2000.14,2622.18 1998.52,2624.18L1918.58,2722.89C1916.97,2724.89 1917.28,2727.81 1919.27,2729.43L2021.72,2812.39C2023.71,2814 2026.64,2813.7 2028.25,2811.7L2108.19,2712.99Z" style="stroke:black;stroke-width:0.2px;"/>
            <path d="M1905.39,2624.97C1902.28,2622.44 1897.7,2622.92 1895.17,2626.04C1892.65,2629.16 1893.13,2633.74 1896.25,2636.26C1899.36,2638.79 1903.94,2638.3 1906.47,2635.19C1908.99,2632.07 1908.51,2627.49 1905.39,2624.97Z"/>
        </g>
    </g>
    <g id="Scoop1">
        <g id="Drill8">
            <path d="M1718.64,1447.33C1721.98,1449.56 1722.88,1454.07 1720.66,1457.41C1718.43,1460.75 1713.92,1461.65 1710.58,1459.43C1707.24,1457.2 1706.34,1452.68 1708.56,1449.35C1710.79,1446.01 1715.31,1445.11 1718.64,1447.33Z"/>
            <path d="M1542.24,1467.94C1540.02,1471.28 1535.5,1472.18 1532.16,1469.96C1528.83,1467.73 1527.92,1463.22 1530.15,1459.88C1532.37,1456.54 1536.89,1455.64 1540.23,1457.86C1543.56,1460.09 1544.47,1464.6 1542.24,1467.94Z"/>
            <path d="M1691.63,1358.15C1693.05,1356.02 1692.48,1353.13 1690.34,1351.71L1580.65,1278.59C1578.52,1277.17 1575.63,1277.75 1574.21,1279.88L1503.75,1385.58C1502.33,1387.71 1502.91,1390.6 1505.04,1392.03L1614.73,1465.14C1616.87,1466.56 1619.76,1465.99 1621.18,1463.85L1691.63,1358.15Z" style="stroke:black;stroke-width:0.2px;"/>
            <path d="M1481.55,1289.3C1478.21,1287.07 1473.7,1287.98 1471.47,1291.31C1469.25,1294.65 1470.15,1299.17 1473.49,1301.39C1476.83,1303.62 1481.34,1302.71 1483.57,1299.38C1485.79,1296.04 1484.89,1291.52 1481.55,1289.3Z"/>
        </g>
    </g>
    <g id="Flipper-Right">
        <g id="Drill9">
            <path d="M1293.02,4066C1295.52,4066 1297.53,4068.02 1297.53,4070.5C1297.53,4073 1295.52,4075.01 1293.02,4075.01C1290.54,4075.01 1288.52,4073 1288.52,4070.5C1288.52,4068.02 1290.54,4066 1293.02,4066"/>
        </g>
    </g>
    <g id="Spinner">
        <g id="Drill10">
            <path d="M2132.73,1771.59C2133.84,1769.36 2132.92,1766.66 2130.68,1765.56C2128.46,1764.45 2125.75,1765.37 2124.65,1767.6C2123.54,1769.83 2124.45,1772.53 2126.69,1773.64C2128.92,1774.74 2131.62,1773.82 2132.73,1771.59" style="stroke:black;stroke-width:0.74px;stroke-miterlimit:10;"/>
            <path d="M2142.95,1724.49C2144.05,1722.25 2143.14,1719.55 2140.91,1718.45C2138.68,1717.34 2135.97,1718.26 2134.87,1720.49C2133.77,1722.72 2134.68,1725.42 2136.91,1726.53C2139.14,1727.63 2141.84,1726.71 2142.95,1724.49" style="stroke:black;stroke-width:0.74px;stroke-miterlimit:10;"/>
        </g>
    </g>
    <g id="Spinner1">
        <g id="Drill11">
            <path d="M1959.24,1404.94C1960.89,1403.07 1960.69,1400.22 1958.81,1398.58C1956.94,1396.94 1954.09,1397.14 1952.45,1399.02C1950.82,1400.89 1951.01,1403.73 1952.88,1405.38C1954.75,1407.01 1957.6,1406.81 1959.24,1404.94" style="stroke:black;stroke-width:0.74px;stroke-miterlimit:10;"/>
            <path d="M1981.16,1362.01C1982.8,1360.13 1982.61,1357.29 1980.73,1355.65C1978.86,1354.01 1976.01,1354.21 1974.37,1356.08C1972.74,1357.95 1972.93,1360.8 1974.8,1362.44C1976.67,1364.08 1979.52,1363.88 1981.16,1362.01" style="stroke:black;stroke-width:0.74px;stroke-miterlimit:10;"/>
        </g>
    </g>
    <g id="Spinner2">
        <g id="Drill12">
            <path d="M325.947,1643.12C326.085,1645.61 328.219,1647.5 330.706,1647.36C333.191,1647.22 335.09,1645.09 334.946,1642.6C334.805,1640.12 332.678,1638.22 330.187,1638.36C327.706,1638.5 325.812,1640.63 325.947,1643.12" style="stroke:black;stroke-width:0.74px;stroke-miterlimit:10;"/>
            <path d="M340.324,1689.13C340.469,1691.62 342.596,1693.51 345.083,1693.37C347.568,1693.24 349.468,1691.1 349.323,1688.61C349.183,1686.13 347.055,1684.23 344.564,1684.37C342.083,1684.51 340.19,1686.64 340.324,1689.13" style="stroke:black;stroke-width:0.74px;stroke-miterlimit:10;"/>
        </g>
    </g>
    <g id="Hanger">
        <g id="T.-8">
            <path id="Drill13" d="M722.437,4603.3C722.443,4588.9 700.83,4588.9 700.837,4603.3C700.823,4617.7 722.443,4617.7 722.43,4603.31L722.437,4603.3Z"/>
        </g>
        <g id="T.-8-R">
            <path id="Drill14" d="M722.445,4507.3C722.452,4492.9 700.838,4492.9 700.845,4507.3C700.831,4521.7 722.452,4521.71 722.438,4507.31L722.445,4507.3Z"/>
        </g>
    </g>
    <g id="Hanger1">
        <g id="T.-81">
            <path id="Drill15" d="M1538.43,4603.3C1538.43,4588.9 1516.82,4588.9 1516.83,4603.3C1516.82,4617.7 1538.43,4617.7 1538.42,4603.31L1538.43,4603.3Z"/>
        </g>
        <g id="T.-8-R1">
            <path id="Drill16" d="M1538.44,4507.3C1538.44,4492.9 1516.83,4492.9 1516.84,4507.3C1516.82,4521.7 1538.44,4521.71 1538.43,4507.31L1538.44,4507.3Z"/>
        </g>
    </g>
    <g id="T.-82">
        <path id="Drill17" d="M516.325,4555.3C516.331,4540.9 494.718,4540.9 494.725,4555.3C494.711,4569.7 516.331,4569.7 516.318,4555.31L516.325,4555.3Z"/>
    </g>
    <g id="T.-83">
        <path id="Drill18" d="M1793.41,4555.68C1793.42,4541.28 1771.81,4541.28 1771.81,4555.68C1771.8,4570.08 1793.42,4570.09 1793.41,4555.69L1793.41,4555.68Z"/>
    </g>
    <g id="Flipper-Left">
        <g id="Drill19">
            <path d="M1124.97,4065.96C1122.48,4065.96 1120.46,4067.97 1120.46,4070.46C1120.46,4072.96 1122.48,4074.97 1124.97,4074.97C1127.46,4074.97 1129.48,4072.96 1129.48,4070.46C1129.48,4067.97 1127.46,4065.96 1124.97,4065.96"/>
        </g>
    </g>
    <g id="Flipper-Left1">
        <g id="Drill20">
            <path d="M586.253,2352.98C584.183,2351.59 581.386,2352.14 579.999,2354.2C578.608,2356.28 579.155,2359.07 581.226,2360.46C583.291,2361.85 586.089,2361.3 587.48,2359.23C588.868,2357.17 588.318,2354.36 586.253,2352.98"/>
        </g>
    </g>
    <g id="T.-84">
        <path id="Drill21" d="M629.986,4433.58C629.993,4419.18 608.379,4419.18 608.386,4433.58C608.373,4447.97 629.993,4447.98 629.979,4433.58L629.986,4433.58Z"/>
    </g>
    <g id="T.-85">
        <path id="Drill22" d="M1685.15,4433.63C1685.16,4419.23 1663.54,4419.23 1663.55,4433.63C1663.54,4448.03 1685.16,4448.04 1685.14,4433.64L1685.15,4433.63Z"/>
    </g>
</svg>
