<?xml version="1.0" encoding="UTF-8" standalone="no"?>
<!DOCTYPE svg PUBLIC "-//W3C//DTD SVG 1.1//EN" "http://www.w3.org/Graphics/SVG/1.1/DTD/svg11.dtd">
<svg width="4544px" height="5760px" version="1.1" xmlns="http://www.w3.org/2000/svg" xmlns:xlink="http://www.w3.org/1999/xlink" xml:space="preserve" style="fill-rule:evenodd;clip-rule:evenodd;stroke-linejoin:round;stroke-miterlimit:1.41421;">
    <g clip-path="url(#_clip1)">
        <g id="Flipper-Mech-Left">
            <g id="Drill">
                <path d="M1720.79,1112.12C1718.3,1112.13 1716.29,1114.15 1716.29,1116.64C1716.29,1119.14 1718.32,1121.15 1720.81,1121.14C1723.3,1121.13 1725.31,1119.11 1725.3,1116.62C1725.3,1114.13 1723.27,1112.12 1720.79,1112.12"/>
                <path d="M1737.87,1068.96C1735.38,1068.96 1733.37,1070.99 1733.37,1073.47C1733.37,1075.97 1735.4,1077.98 1737.89,1077.97C1740.37,1077.97 1742.39,1075.95 1742.38,1073.45C1742.38,1070.96 1740.35,1068.95 1737.87,1068.96"/>
                <path d="M2031.22,1186.03C2028.74,1186.04 2026.72,1188.06 2026.73,1190.54C2026.73,1193.04 2028.75,1195.05 2031.25,1195.05C2033.73,1195.04 2035.75,1193.02 2035.74,1190.52C2035.74,1188.03 2033.71,1186.02 2031.22,1186.03"/>
                <path d="M2013.54,1228.64C2011.05,1228.65 2009.04,1230.67 2009.05,1233.16C2009.04,1235.66 2011.07,1237.67 2013.56,1237.66C2016.05,1237.65 2018.06,1235.63 2018.05,1233.14C2018.06,1230.65 2016.02,1228.64 2013.54,1228.64"/>
                <path d="M2164.33,851.873C2161.84,851.882 2159.82,853.902 2159.83,856.388C2159.83,858.884 2161.86,860.895 2164.35,860.891C2166.83,860.883 2168.85,858.863 2168.84,856.366C2168.84,853.88 2166.81,851.864 2164.33,851.873"/>
                <path d="M1870.99,733.581C1868.5,733.59 1866.49,735.61 1866.5,738.096C1866.49,740.593 1868.52,742.603 1871.01,742.6C1873.5,742.591 1875.51,740.571 1875.5,738.075C1875.51,735.589 1873.47,733.573 1870.99,733.581"/>
                <path d="M1853.38,777.118C1850.89,777.127 1848.88,779.147 1848.88,781.633C1848.88,784.13 1850.91,786.14 1853.4,786.137C1855.88,786.128 1857.9,784.108 1857.89,781.612C1857.89,779.126 1855.86,777.11 1853.38,777.118"/>
                <path d="M2147.25,895.041C2144.76,895.05 2142.74,897.07 2142.75,899.555C2142.75,902.052 2144.78,904.063 2147.27,904.059C2149.76,904.051 2151.77,902.03 2151.76,899.534C2151.76,897.048 2149.73,895.032 2147.25,895.041"/>
                <path d="M1858.89,1125.9C1849.99,1135.71 1834.8,1136.43 1824.99,1127.53C1815.19,1118.62 1814.46,1103.43 1823.37,1093.62C1832.28,1083.82 1847.47,1083.09 1857.27,1092C1867.08,1100.91 1867.8,1116.1 1858.89,1125.9Z"/>
            </g>
        </g>
        <g id="Flipper-Mech-Left1">
            <g id="Drill1">
                <path d="M488.308,2116.51C488.839,2114.09 487.305,2111.68 484.877,2111.15C482.44,2110.6 480.037,2112.14 479.5,2114.58C478.969,2117 480.503,2119.41 482.941,2119.94C485.368,2120.49 487.776,2118.94 488.308,2116.51"/>
                <path d="M526.737,2142.56C527.269,2140.13 525.735,2137.72 523.306,2137.19C520.87,2136.65 518.467,2138.19 517.93,2140.62C517.398,2143.05 518.932,2145.46 521.371,2145.99C523.797,2146.53 526.206,2144.99 526.737,2142.56"/>
                <path d="M348.758,2403.49C349.289,2401.07 347.755,2398.66 345.327,2398.13C342.89,2397.58 340.487,2399.12 339.95,2401.56C339.418,2403.98 340.953,2406.39 343.391,2406.92C345.818,2407.47 348.226,2405.92 348.758,2403.49"/>
                <path d="M310.997,2376.97C311.529,2374.55 309.995,2372.14 307.566,2371.61C305.129,2371.07 302.727,2372.61 302.189,2375.04C301.658,2377.47 303.192,2379.87 305.631,2380.41C308.057,2380.95 310.466,2379.4 310.997,2376.97"/>
                <path d="M646.035,2605.98C646.566,2603.55 645.032,2601.15 642.604,2600.61C640.167,2600.07 637.764,2601.61 637.227,2604.04C636.695,2606.47 638.23,2608.88 640.668,2609.41C643.095,2609.95 645.503,2608.41 646.035,2605.98"/>
                <path d="M825.202,2345.33C825.733,2342.9 824.199,2340.49 821.771,2339.96C819.334,2339.42 816.932,2340.96 816.394,2343.39C815.863,2345.82 817.397,2348.23 819.836,2348.76C822.262,2349.3 824.671,2347.76 825.202,2345.33" style="fill-rule:nonzero;"/>
                <path d="M786.528,2318.69C787.059,2316.26 785.525,2313.85 783.097,2313.32C780.66,2312.78 778.258,2314.32 777.72,2316.75C777.189,2319.18 778.723,2321.58 781.162,2322.12C783.588,2322.66 785.997,2321.11 786.528,2318.69" style="fill-rule:nonzero;"/>
                <path d="M607.605,2579.94C608.137,2577.51 606.603,2575.1 604.174,2574.57C601.737,2574.03 599.335,2575.57 598.798,2578C598.266,2580.43 599.8,2582.83 602.239,2583.37C604.665,2583.91 607.074,2582.36 607.605,2579.94"/>
                <path d="M444.868,2248.33C437.233,2237.51 439.822,2222.52 450.646,2214.89C461.47,2207.25 476.457,2209.84 484.092,2220.66C491.727,2231.49 489.138,2246.47 478.314,2254.11C467.49,2261.74 452.504,2259.16 444.868,2248.33Z"/>
            </g>
        </g>
        <g id="Flipper-Mech-Left2">
            <g id="Drill2">
                <path d="M967.573,4145.23C969.251,4147.07 972.102,4147.2 973.936,4145.52C975.785,4143.85 975.911,4140.99 974.233,4139.15C972.555,4137.32 969.704,4137.19 967.863,4138.87C966.021,4140.54 965.895,4143.4 967.573,4145.23"/>
                <path d="M924.139,4161.62C925.817,4163.46 928.668,4163.59 930.502,4161.91C932.35,4160.23 932.477,4157.38 930.799,4155.54C929.121,4153.71 926.269,4153.58 924.428,4155.26C922.587,4156.93 922.461,4159.79 924.139,4161.62"/>
                <path d="M813.504,3865.78C815.182,3867.61 818.033,3867.75 819.867,3866.07C821.716,3864.39 821.842,3861.54 820.164,3859.7C818.486,3857.87 815.635,3857.73 813.794,3859.42C811.953,3861.09 811.826,3863.95 813.504,3865.78"/>
                <path d="M856.939,3850.21C858.617,3852.04 861.468,3852.18 863.302,3850.5C865.151,3848.82 865.277,3845.97 863.599,3844.13C861.921,3842.29 859.07,3842.16 857.228,3843.85C855.387,3845.52 855.261,3848.38 856.939,3850.21"/>
                <path d="M476.685,3991.99C478.363,3993.82 481.214,3993.95 483.048,3992.27C484.897,3990.6 485.023,3987.74 483.345,3985.9C481.667,3984.07 478.816,3983.94 476.974,3985.62C475.133,3987.29 475.007,3990.15 476.685,3991.99"/>
                <path d="M586.403,4288.64C588.081,4290.47 590.932,4290.6 592.766,4288.93C594.614,4287.25 594.741,4284.4 593.063,4282.56C591.385,4280.72 588.534,4280.59 586.692,4282.27C584.851,4283.94 584.725,4286.8 586.403,4288.64"/>
                <path d="M630.468,4272.39C632.146,4274.23 634.997,4274.36 636.831,4272.68C638.679,4271 638.806,4268.15 637.128,4266.31C635.45,4264.48 632.598,4264.34 630.757,4266.03C628.916,4267.7 628.79,4270.56 630.468,4272.39"/>
                <path d="M520.119,3975.6C521.797,3977.43 524.648,3977.56 526.482,3975.88C528.33,3974.21 528.457,3971.36 526.779,3969.51C525.101,3967.68 522.25,3967.55 520.408,3969.23C518.567,3970.9 518.441,3973.76 520.119,3975.6"/>
                <circle cx="884.895" cy="4057.75" r="24"/>
            </g>
        </g>
        <g id="Round-Hole">
            <circle id="Drill3" cx="672.025" cy="1671.31" r="5.94"/>
        </g>
        <g id="Round-Hole1">
            <circle id="Drill4" cx="556.03" cy="1703.58" r="5.94"/>
        </g>
        <g id="Round-Hole2">
            <circle id="Drill5" cx="558.604" cy="1296.01" r="5.94"/>
        </g>
        <g id="Round-Hole3">
            <circle id="Drill6" cx="442.609" cy="1328.29" r="5.94"/>
        </g>
        <g id="Launcher">
            <g id="Drill7">
                <path d="M2164.5,4463.89C2164.44,4461.4 2162.37,4459.44 2159.88,4459.51C2157.39,4459.57 2155.43,4461.64 2155.49,4464.13C2155.56,4466.63 2157.63,4468.59 2160.12,4468.52C2162.61,4468.45 2164.57,4466.39 2164.5,4463.89"/>
                <path d="M2151.42,4310.02C2152.86,4307.98 2152.38,4305.18 2150.34,4303.74C2148.31,4302.31 2145.5,4302.78 2144.06,4304.82C2142.62,4306.86 2143.11,4309.67 2145.14,4311.1C2147.18,4312.54 2149.98,4312.06 2151.42,4310.02"/>
                <path d="M2152.31,4427.83C2152.24,4425.34 2150.18,4423.38 2147.68,4423.45C2145.2,4423.51 2143.23,4425.58 2143.3,4428.07C2143.37,4430.57 2145.44,4432.52 2147.93,4432.46C2150.42,4432.39 2152.38,4430.32 2152.31,4427.83"/>
                <path d="M2163.51,4273.83C2164.95,4271.8 2164.47,4268.99 2162.43,4267.55C2160.4,4266.12 2157.59,4266.6 2156.15,4268.64C2154.71,4270.67 2155.2,4273.48 2157.23,4274.92C2159.27,4276.36 2162.07,4275.87 2163.51,4273.83"/>
                <path d="M2164.05,4094.32C2165.49,4092.28 2165.01,4089.48 2162.97,4088.04C2160.94,4086.6 2158.12,4087.08 2156.69,4089.12C2155.25,4091.16 2155.74,4093.97 2157.77,4095.4C2159.81,4096.84 2162.61,4096.36 2164.05,4094.32"/>
                <path d="M2143.23,4159.31C2144.67,4157.27 2144.18,4154.46 2142.14,4153.02C2140.11,4151.59 2137.3,4152.07 2135.86,4154.11C2134.43,4156.15 2134.91,4158.95 2136.95,4160.39C2138.98,4161.83 2141.79,4161.34 2143.23,4159.31"/>
                <path d="M2037.51,4094.32C2038.95,4092.28 2038.47,4089.48 2036.43,4088.04C2034.4,4086.6 2031.59,4087.08 2030.15,4089.12C2028.71,4091.16 2029.2,4093.97 2031.23,4095.4C2033.27,4096.84 2036.08,4096.36 2037.51,4094.32"/>
                <path d="M2164.09,4058.3C2165.53,4056.26 2165.04,4053.45 2163,4052.02C2160.97,4050.58 2158.16,4051.06 2156.72,4053.1C2155.28,4055.14 2155.77,4057.95 2157.81,4059.38C2159.84,4060.82 2162.65,4060.34 2164.09,4058.3"/>
                <path d="M2037.55,4058.3C2038.99,4056.26 2038.51,4053.45 2036.47,4052.02C2034.44,4050.58 2031.63,4051.06 2030.19,4053.1C2028.75,4055.14 2029.24,4057.95 2031.27,4059.38C2033.31,4060.82 2036.11,4060.34 2037.55,4058.3"/>
            </g>
        </g>
        <g id="T.-6-R-PlasMet-POST">
            <g id="Drill8">
                <path d="M326.542,2729.93C326.535,2742.41 345.269,2742.41 345.262,2729.93C345.276,2717.45 326.535,2717.45 326.542,2729.93Z"/>
            </g>
        </g>
        <g id="T.-6-R-PlasMet-POST1">
            <g id="Drill9">
                <path d="M271.327,1790C271.32,1802.48 290.054,1802.48 290.047,1790C290.061,1777.52 271.32,1777.52 271.327,1790Z"/>
            </g>
        </g>
        <g id="T.-6-R-PlasMet-POST2">
            <g id="Drill10">
                <path d="M383.421,2098.55C383.414,2111.03 402.148,2111.03 402.141,2098.55C402.155,2086.07 383.414,2086.07 383.421,2098.55Z"/>
            </g>
        </g>
        <g id="T.-6-R-PlasMet-POST3">
            <g id="Drill11">
                <path d="M316.943,2219.2C316.936,2231.68 335.67,2231.68 335.663,2219.2C335.677,2206.72 316.936,2206.72 316.943,2219.2Z"/>
            </g>
        </g>
        <g id="T.-6-R-PlasMet-POST4">
            <g id="Drill12">
                <path d="M2062.85,3189.33C2062.84,3201.81 2081.57,3201.81 2081.57,3189.33C2081.58,3176.85 2062.84,3176.85 2062.85,3189.33Z"/>
            </g>
        </g>
        <g id="T.-6-R-PlasMet-POST5">
            <g id="Drill13">
                <path d="M2109.83,3241.07C2109.83,3253.55 2128.56,3253.55 2128.55,3241.07C2128.57,3228.59 2109.83,3228.59 2109.83,3241.07Z"/>
            </g>
        </g>
        <g id="T.-6-R-PlasMet-POST6">
            <g id="Drill14">
                <path d="M1935.91,3764.32C1935.9,3776.8 1954.63,3776.8 1954.63,3764.32C1954.64,3751.84 1935.9,3751.84 1935.91,3764.32Z"/>
            </g>
        </g>
        <g id="T.-6-R-PlasMet-POST7">
            <g id="Drill15">
                <path d="M1618.75,3987.31C1618.74,3999.79 1637.48,3999.79 1637.47,3987.31C1637.48,3974.83 1618.74,3974.83 1618.75,3987.31Z"/>
            </g>
        </g>
        <g id="T.-6-R-PlasMet-POST8">
            <g id="Drill16">
                <path d="M779.611,3987.31C779.604,3999.79 798.338,3999.79 798.331,3987.31C798.345,3974.83 779.604,3974.83 779.611,3987.31Z"/>
            </g>
        </g>
        <g id="T.-6-R-PlasMet-POST9">
            <g id="Drill17">
                <path d="M462.459,3764.32C462.452,3776.8 481.186,3776.8 481.179,3764.32C481.193,3751.84 462.452,3751.84 462.459,3764.32Z"/>
            </g>
        </g>
        <g id="Sides">
            <g id="Drill18">
                <path d="M274.315,3173.94C270.922,3173.94 268.168,3176.7 268.168,3180.09C268.168,3183.48 270.922,3186.24 274.315,3186.24C277.708,3186.24 280.463,3183.48 280.463,3180.09C280.463,3176.7 277.708,3173.94 274.315,3173.94" style="fill-rule:nonzero;"/>
                <path d="M274.315,3567.31C270.922,3567.31 268.168,3570.06 268.168,3573.45C268.168,3576.85 270.922,3579.6 274.315,3579.6C277.708,3579.6 280.463,3576.85 280.463,3573.45C280.463,3570.06 277.708,3567.31 274.315,3567.31" style="fill-rule:nonzero;"/>
                <path d="M274.315,3955.76C270.922,3955.76 268.168,3958.51 268.168,3961.9C268.168,3965.3 270.922,3968.05 274.315,3968.05C277.708,3968.05 280.463,3965.3 280.463,3961.9C280.463,3958.51 277.708,3955.76 274.315,3955.76" style="fill-rule:nonzero;"/>
                <path d="M2170.67,4288.48C2167.28,4288.48 2164.52,4291.23 2164.52,4294.63C2164.52,4298.02 2167.28,4300.77 2170.67,4300.77C2174.06,4300.77 2176.82,4298.02 2176.82,4294.63C2176.82,4291.23 2174.06,4288.48 2170.67,4288.48" style="fill-rule:nonzero;"/>
                <path d="M2170.67,3707.44C2167.28,3707.44 2164.52,3710.2 2164.52,3713.59C2164.52,3716.98 2167.28,3719.74 2170.67,3719.74C2174.06,3719.74 2176.82,3716.98 2176.82,3713.59C2176.82,3710.2 2174.06,3707.44 2170.67,3707.44" style="fill-rule:nonzero;"/>
                <path d="M2170.67,3057.57C2167.28,3057.57 2164.52,3060.32 2164.52,3063.72C2164.52,3067.11 2167.28,3069.86 2170.67,3069.86C2174.06,3069.86 2176.82,3067.11 2176.82,3063.72C2176.82,3060.32 2174.06,3057.57 2170.67,3057.57" style="fill-rule:nonzero;"/>
                <path d="M2170.67,1787.32C2167.28,1787.32 2164.52,1790.08 2164.52,1793.47C2164.52,1796.87 2167.28,1799.62 2170.67,1799.62C2174.06,1799.62 2176.82,1796.87 2176.82,1793.47C2176.82,1790.08 2174.06,1787.32 2170.67,1787.32" style="fill-rule:nonzero;"/>
                <path d="M2170.67,2438.84C2167.28,2438.84 2164.52,2441.59 2164.52,2444.98C2164.52,2448.38 2167.28,2451.13 2170.67,2451.13C2174.06,2451.13 2176.82,2448.38 2176.82,2444.98C2176.82,2441.59 2174.06,2438.84 2170.67,2438.84" style="fill-rule:nonzero;"/>
            </g>
        </g>
        <g id="Adj-Post-Chan">
            <g id="Drill19">
                <path d="M331.152,3237.01C333.737,3235.61 336.696,3234.82 339.84,3234.82C342.984,3234.82 345.943,3235.61 348.528,3237.01L348.528,3338.35C345.943,3339.75 342.984,3340.55 339.84,3340.55C336.696,3340.55 333.737,3339.75 331.152,3338.35L331.152,3237.01Z"/>
            </g>
        </g>
        <g id="Playfield-Outline-.--Top-Bottom-Sticker-Drill-Rout-Plastic-Bevel-Art-Assembly-Rubber-Todo">
            <path d="M250.028,382.57L2193.89,382.57L2193.89,4510.83L2133.9,4510.83L2133.9,4408.84L2133.89,4408.84C2133.89,4402.23 2128.51,4396.84 2121.89,4396.84L2091.95,4396.84L2092.01,4221.88L2092,4221.87C2092,4216.92 2087.96,4212.88 2083.01,4212.88C2078.05,4212.88 2074.01,4216.92 2074.01,4221.87L2074.01,4221.88L2074.06,4396.84L2013.9,4396.84C2007.29,4396.84 2001.91,4402.23 2001.91,4408.84L2001.91,4799.99L1329.95,4799.99L1105.57,4532.58L1105.56,4532.54C1101.06,4527.19 1094.21,4524.01 1087.18,4524.01L771.991,4524.01C758.778,4524.01 747.992,4534.79 747.992,4548L747.992,4799.99L551.237,4799.99L375.011,4647.61L375.011,4549.55C375.011,4536.34 364.232,4525.56 351.012,4525.56L250.028,4525.56L250.028,382.57Z" style="fill:none;stroke:rgb(35,31,32);stroke-width:1.11px;stroke-linecap:round;stroke-miterlimit:2.613;"/>
        </g>
        <g id="Playfield-Guides-.--Top-Bottom-Sticker-Drill-Rout-Plastic-Bevel-Art-Assembly-Rubber-Todo">
            <path d="M433.899,4799.99L225.12,4799.99" style="fill:none;stroke:rgb(35,31,32);stroke-width:1.11px;stroke-linecap:round;stroke-miterlimit:2.613;"/>
            <path d="M2210.9,4799.99L2099.49,4799.99" style="fill:none;stroke:rgb(35,31,32);stroke-width:1.11px;stroke-linecap:round;stroke-miterlimit:2.613;"/>
            <path d="M2194.03,4817.86L2194.03,4763.96" style="fill:none;stroke:black;stroke-width:0.74px;stroke-linecap:round;stroke-miterlimit:10;"/>
            <path d="M250.14,4823.45L250.14,4758.68" style="fill:none;stroke:black;stroke-width:0.74px;stroke-linecap:round;stroke-miterlimit:10;"/>
        </g>
        <g id="Sling-Right">
            <g id="Drill20">
                <path d="M1944.05,2342.83C1948.32,2329.22 1962.83,2321.65 1976.43,2325.92L2051.12,2349.37C2064.72,2353.64 2072.3,2368.15 2068.03,2381.75C2063.76,2395.35 2049.25,2402.93 2035.65,2398.66L1960.96,2375.2C1947.36,2370.93 1939.78,2356.43 1944.05,2342.83Z"/>
                <path d="M2001.62,2244.2C2003.67,2237.68 2010.63,2234.06 2017.15,2236.11L2044.08,2244.59C2050.6,2246.64 2054.22,2253.6 2052.17,2260.11L2044.74,2283.73C2042.68,2290.25 2035.73,2293.87 2029.21,2291.82L2002.28,2283.34C1995.76,2281.29 1992.13,2274.33 1994.19,2267.81L2001.62,2244.2Z"/>
                <path d="M1941.69,2433.45C1943.83,2426.66 1951.09,2422.88 1957.89,2425.02L1984.08,2433.26C1990.87,2435.4 1994.65,2442.66 1992.52,2449.46L1984.76,2474.09C1982.62,2480.89 1975.36,2484.67 1968.56,2482.53L1942.38,2474.28C1935.58,2472.14 1931.8,2464.89 1933.94,2458.09L1941.69,2433.45Z"/>
                <path d="M1909.96,2411.92C1907.47,2412.01 1905.52,2414.09 1905.61,2416.58C1905.69,2419.07 1907.77,2421.01 1910.26,2420.93C1912.75,2420.85 1914.7,2418.77 1914.62,2416.28C1914.53,2413.79 1912.45,2411.84 1909.96,2411.92"/>
                <path d="M1958.46,2257.31C1955.97,2257.4 1954.03,2259.48 1954.11,2261.97C1954.19,2264.46 1956.27,2266.41 1958.76,2266.32C1961.26,2266.24 1963.2,2264.16 1963.12,2261.67C1963.04,2259.18 1960.96,2257.23 1958.46,2257.31"/>
                <path d="M1979.68,2399.28C1977.18,2399.36 1975.24,2401.45 1975.32,2403.93C1975.4,2406.43 1977.48,2408.37 1979.98,2408.29C1982.47,2408.2 1984.41,2406.13 1984.33,2403.63C1984.25,2401.15 1982.17,2399.2 1979.68,2399.28"/>
            </g>
        </g>
        <g id="Sling-Right1">
            <g id="Drill21">
                <path d="M1584.42,3567.94C1589.14,3554.49 1603.89,3547.4 1617.34,3552.12L1691.22,3578.03C1704.67,3582.75 1711.76,3597.51 1707.04,3610.96C1702.32,3624.41 1687.57,3631.5 1674.12,3626.78L1600.24,3600.86C1586.79,3596.14 1579.7,3581.39 1584.42,3567.94Z"/>
                <path d="M1645.23,3471.28C1647.5,3464.83 1654.57,3461.44 1661.01,3463.7L1687.65,3473.07C1694.1,3475.34 1697.49,3482.41 1695.22,3488.86L1687.01,3512.22C1684.74,3518.66 1677.67,3522.05 1671.22,3519.79L1644.59,3510.42C1638.14,3508.15 1634.75,3501.08 1637.02,3494.63L1645.23,3471.28Z"/>
                <path d="M1579.06,3658.44C1581.42,3651.72 1588.8,3648.18 1595.53,3650.55L1621.42,3659.65C1628.15,3662.02 1631.69,3669.4 1629.32,3676.12L1620.75,3700.48C1618.39,3707.2 1611.01,3710.74 1604.29,3708.38L1578.39,3699.27C1571.67,3696.91 1568.13,3689.53 1570.49,3682.81L1579.06,3658.44Z"/>
                <path d="M1548.06,3635.87C1545.56,3635.87 1543.55,3637.89 1543.55,3640.38C1543.55,3642.87 1545.56,3644.88 1548.06,3644.88C1550.55,3644.88 1552.57,3642.87 1552.57,3640.38C1552.57,3637.89 1550.55,3635.87 1548.06,3635.87"/>
                <path d="M1601.66,3482.95C1599.17,3482.95 1597.15,3484.97 1597.15,3487.46C1597.15,3489.96 1599.17,3491.97 1601.66,3491.97C1604.16,3491.97 1606.17,3489.96 1606.17,3487.46C1606.17,3484.97 1604.16,3482.95 1601.66,3482.95"/>
                <path d="M1618.16,3625.55C1615.66,3625.55 1613.65,3627.57 1613.65,3630.05C1613.65,3632.55 1615.66,3634.56 1618.16,3634.56C1620.65,3634.56 1622.66,3632.55 1622.66,3630.05C1622.66,3627.57 1620.65,3625.55 1618.16,3625.55"/>
            </g>
        </g>
        <g id="Sling-Left">
            <g id="Drill22">
                <path d="M833.967,3567.68C829.249,3554.23 814.497,3547.14 801.046,3551.86L725.614,3578.32C712.163,3583.04 705.073,3597.8 709.792,3611.25C714.511,3624.7 729.262,3631.79 742.713,3627.07L818.145,3600.61C831.596,3595.89 838.686,3581.14 833.967,3567.68Z"/>
                <path d="M772.84,3471.13C770.573,3464.68 763.5,3461.29 757.055,3463.56L729.177,3473.36C722.732,3475.63 719.34,3482.7 721.606,3489.15L729.821,3512.51C732.088,3518.95 739.161,3522.34 745.606,3520.08L773.483,3510.27C779.929,3508 783.321,3500.93 781.054,3494.49L772.84,3471.13Z"/>
                <path d="M838.256,3658.56C835.892,3651.84 828.514,3648.3 821.791,3650.66L795.405,3659.94C788.682,3662.31 785.143,3669.69 787.508,3676.41L796.076,3700.77C798.44,3707.49 805.818,3711.03 812.542,3708.67L838.927,3699.39C845.65,3697.03 849.189,3689.65 846.825,3682.92L838.256,3658.56Z"/>
                <path d="M868.94,3636.15C866.445,3636.15 864.433,3638.17 864.433,3640.65C864.433,3643.15 866.445,3645.16 868.94,3645.16C871.434,3645.16 873.446,3643.15 873.446,3640.65C873.446,3638.17 871.434,3636.15 868.94,3636.15"/>
                <path d="M815.104,3483.19C812.609,3483.19 810.597,3485.21 810.597,3487.7C810.597,3490.19 812.609,3492.2 815.104,3492.2C817.599,3492.2 819.611,3490.19 819.611,3487.7C819.611,3485.21 817.599,3483.19 815.104,3483.19"/>
                <path d="M766.826,3535.01C764.331,3535.01 762.319,3537.03 762.319,3539.52C762.319,3542.01 764.331,3544.03 766.826,3544.03C769.321,3544.03 771.333,3542.01 771.333,3539.52C771.333,3537.03 769.321,3535.01 766.826,3535.01"/>
            </g>
        </g>
        <g id="Scoop">
            <g id="Drill23">
                <path d="M2868.51,2960.41C2870.45,2961.97 2870.75,2964.82 2869.18,2966.75C2867.61,2968.69 2864.77,2968.99 2862.83,2967.42C2860.9,2965.85 2860.6,2963.01 2862.17,2961.07C2863.73,2959.14 2866.58,2958.84 2868.51,2960.41Z"/>
                <path d="M2690.55,2960.71C2688.99,2962.65 2686.14,2962.95 2684.21,2961.38C2682.27,2959.81 2681.97,2956.97 2683.54,2955.03C2685.11,2953.1 2687.95,2952.8 2689.89,2954.37C2691.82,2955.93 2692.12,2958.78 2690.55,2960.71Z"/>
                <path d="M2851.61,2866.97C2853.23,2864.97 2852.92,2862.05 2850.93,2860.43L2748.48,2777.47C2746.49,2775.86 2743.56,2776.16 2741.94,2778.16L2662,2876.87C2660.39,2878.87 2660.7,2881.79 2662.69,2883.41L2765.14,2966.37C2767.13,2967.98 2770.06,2967.68 2771.67,2965.68L2851.61,2866.97Z"/>
                <path d="M2647.08,2781.09C2645.14,2779.52 2642.3,2779.82 2640.74,2781.76C2639.17,2783.69 2639.47,2786.53 2641.4,2788.1C2643.34,2789.67 2646.18,2789.37 2647.75,2787.43C2649.32,2785.5 2649.02,2782.66 2647.08,2781.09Z"/>
            </g>
        </g>
        <g id="Scoop1">
            <g id="Drill24">
                <path d="M1523.67,1501.51C1525.99,1502.43 1527.13,1505.05 1526.21,1507.37C1525.3,1509.68 1522.68,1510.82 1520.36,1509.91C1518.04,1508.99 1516.9,1506.37 1517.82,1504.06C1518.73,1501.74 1521.36,1500.6 1523.67,1501.51Z"/>
                <path d="M1354.02,1555.24C1353.1,1557.55 1350.48,1558.69 1348.16,1557.78C1345.85,1556.86 1344.71,1554.24 1345.62,1551.92C1346.54,1549.61 1349.16,1548.47 1351.47,1549.38C1353.79,1550.3 1354.93,1552.92 1354.02,1555.24Z"/>
                <path d="M1479.5,1417.46C1480.44,1415.07 1479.27,1412.37 1476.88,1411.43L1354.25,1363.06C1351.87,1362.11 1349.16,1363.29 1348.22,1365.67L1301.61,1483.84C1300.67,1486.22 1301.84,1488.92 1304.23,1489.87L1426.86,1538.24C1429.24,1539.18 1431.94,1538.01 1432.88,1535.62L1479.5,1417.46Z"/>
                <path d="M1258.62,1396.95C1256.3,1396.04 1253.68,1397.18 1252.76,1399.49C1251.85,1401.81 1252.99,1404.43 1255.31,1405.35C1257.62,1406.26 1260.25,1405.12 1261.16,1402.8C1262.07,1400.49 1260.93,1397.87 1258.62,1396.95Z"/>
            </g>
        </g>
        <g id="O-Target-Wide">
            <g id="Drill25">
                <path d="M2713.06,3262.06C2719.39,3259.42 2722.38,3252.13 2719.73,3245.81L2666.5,3118.5C2663.85,3112.18 2656.57,3109.19 2650.24,3111.83L2621.15,3124C2614.82,3126.64 2611.84,3133.93 2614.48,3140.25L2667.71,3267.56C2670.36,3273.88 2677.64,3276.87 2683.97,3274.23L2713.06,3262.06Z"/>
                <path d="M2603.88,3196.71C2602.92,3194.42 2600.27,3193.34 2597.98,3194.31C2595.68,3195.27 2594.61,3197.92 2595.58,3200.21C2596.54,3202.5 2599.19,3203.58 2601.48,3202.61C2603.77,3201.65 2604.85,3199.01 2603.88,3196.71"/>
                <path d="M2620.04,3235.34C2619.07,3233.05 2616.43,3231.97 2614.13,3232.94C2611.84,3233.9 2610.76,3236.55 2611.73,3238.84C2612.69,3241.13 2615.34,3242.21 2617.63,3241.25C2619.92,3240.28 2621,3237.64 2620.04,3235.34"/>
            </g>
        </g>
        <g id="O-Target-Norm">
            <g id="Drill26">
                <path d="M404.813,2949.55C403.784,2951.81 404.788,2954.48 407.055,2955.51C409.318,2956.55 411.992,2955.54 413.022,2953.27C414.048,2951.01 413.047,2948.34 410.78,2947.3C408.52,2946.28 405.843,2947.28 404.813,2949.55"/>
                <path d="M422.223,2911.46C421.193,2913.73 422.197,2916.4 424.464,2917.43C426.727,2918.47 429.402,2917.46 430.431,2915.19C431.457,2912.93 430.456,2910.25 428.189,2909.22C425.929,2908.2 423.252,2909.2 422.223,2911.46"/>
                <path d="M367.173,2850.25C360.937,2847.4 353.559,2850.15 350.709,2856.39L316.42,2931.39C313.569,2937.63 316.317,2945.01 322.553,2947.86L351.233,2960.97C357.469,2963.82 364.847,2961.07 367.698,2954.84L401.987,2879.83C404.837,2873.59 402.089,2866.22 395.853,2863.37L367.173,2850.25Z"/>
            </g>
        </g>
        <g id="Flipper-Mech-Right">
            <g id="Drill27">
                <path d="M1389.06,3898.01C1389.06,3900.5 1391.07,3902.52 1393.57,3902.52C1396.06,3902.52 1398.08,3900.5 1398.08,3898.01C1398.08,3895.51 1396.06,3893.5 1393.57,3893.5C1391.07,3893.5 1389.06,3895.51 1389.06,3898.01"/>
                <path d="M1430.44,3876.79C1430.44,3879.28 1432.45,3881.3 1434.95,3881.3C1437.44,3881.3 1439.45,3879.28 1439.45,3876.79C1439.45,3874.3 1437.44,3872.28 1434.95,3872.28C1432.45,3872.28 1430.44,3874.3 1430.44,3876.79"/>
                <path d="M1532.22,4178.7C1532.22,4181.19 1534.23,4183.2 1536.73,4183.2C1539.22,4183.2 1541.23,4181.19 1541.23,4178.7C1541.23,4176.21 1539.22,4174.19 1536.73,4174.19C1534.23,4174.19 1532.22,4176.21 1532.22,4178.7"/>
                <path d="M1573.66,4157.5C1573.66,4160 1575.67,4162.01 1578.17,4162.01C1580.66,4162.01 1582.68,4160 1582.68,4157.5C1582.68,4155.02 1580.66,4153 1578.17,4153C1575.67,4153 1573.66,4155.02 1573.66,4157.5"/>
                <path d="M1852.85,4015.11C1852.85,4017.61 1854.87,4019.62 1857.36,4019.62C1859.85,4019.62 1861.87,4017.61 1861.87,4015.11C1861.87,4012.62 1859.85,4010.61 1857.36,4010.61C1854.87,4010.61 1852.85,4012.62 1852.85,4015.11"/>
                <path d="M1894.27,3993.65C1894.27,3996.14 1896.29,3998.16 1898.78,3998.16C1901.26,3998.16 1903.28,3996.14 1903.28,3993.65C1903.28,3991.16 1901.26,3989.14 1898.78,3989.14C1896.29,3989.14 1894.27,3991.16 1894.27,3993.65"/>
                <path d="M1709.2,3733.45C1709.2,3735.95 1711.22,3737.96 1713.7,3737.96C1716.2,3737.96 1718.21,3735.95 1718.21,3733.45C1718.21,3730.96 1716.2,3728.95 1713.7,3728.95C1711.22,3728.95 1709.2,3730.96 1709.2,3733.45"/>
                <path d="M1750.75,3712.27C1750.75,3714.77 1752.77,3716.78 1755.26,3716.78C1757.75,3716.78 1759.77,3714.77 1759.77,3712.27C1759.77,3709.78 1757.75,3707.76 1755.26,3707.76C1752.77,3707.76 1750.75,3709.78 1750.75,3712.27"/>
                <circle cx="1533.1" cy="4057.8" r="24"/>
            </g>
        </g>
        <path id="Drill28" d="M2431.72,1381.76L2502.54,1276.3C2502.54,1276.3 2499.04,1199.74 2419.45,1216.42C2402.27,1220.02 2393.46,1240.52 2357.76,1262.59C2332,1278.51 2316.11,1300.08 2316.11,1300.08L2431.72,1381.76Z"/>
        <g id="MAGNET">
            <g id="Drill29">
                <path d="M1684.56,2598.64C1686.72,2597.38 1687.44,2594.62 1686.18,2592.47C1684.92,2590.32 1682.16,2589.6 1680.01,2590.86C1677.86,2592.12 1677.14,2594.88 1678.4,2597.02C1679.66,2599.18 1682.41,2599.9 1684.56,2598.64"/>
                <path d="M1621.76,2633.59C1623.91,2632.33 1624.63,2629.57 1623.37,2627.42C1622.11,2625.27 1619.36,2624.55 1617.2,2625.81C1615.05,2627.07 1614.34,2629.83 1615.59,2631.97C1616.85,2634.13 1619.61,2634.85 1621.76,2633.59"/>
                <path d="M1845.49,2890.74C1843.3,2891.94 1842.51,2894.67 1843.71,2896.86C1844.91,2899.03 1847.64,2899.84 1849.83,2898.63C1852.02,2897.43 1852.81,2894.69 1851.61,2892.51C1850.41,2890.33 1847.67,2889.53 1845.49,2890.74"/>
                <path d="M1782.39,2925.44C1780.22,2926.68 1779.47,2929.42 1780.71,2931.59C1781.94,2933.75 1784.69,2934.5 1786.86,2933.26C1789.03,2932.03 1789.77,2929.27 1788.54,2927.11C1787.3,2924.95 1784.55,2924.2 1782.39,2925.44"/>
                <path d="M1761.76,2746.52C1753.16,2730.89 1733.52,2725.19 1717.89,2733.79C1702.26,2742.39 1696.56,2762.02 1705.16,2777.65C1713.75,2793.28 1733.39,2798.98 1749.02,2790.39C1764.65,2781.79 1770.35,2762.15 1761.76,2746.52Z"/>
            </g>
        </g>
        <g id="MAGNET1">
            <g id="Drill30">
                <path d="M1470.7,3041.81C1470.63,3039.31 1468.57,3037.36 1466.07,3037.42C1463.59,3037.49 1461.62,3039.55 1461.69,3042.05C1461.76,3044.54 1463.83,3046.5 1466.32,3046.43C1468.81,3046.37 1470.77,3044.3 1470.7,3041.81"/>
                <path d="M1471.06,3113.68C1470.99,3111.19 1468.93,3109.23 1466.43,3109.3C1463.95,3109.36 1461.98,3111.43 1462.05,3113.92C1462.12,3116.42 1464.19,3118.37 1466.68,3118.31C1469.17,3118.24 1471.13,3116.17 1471.06,3113.68"/>
                <path d="M1804.19,3041.55C1804.19,3044.04 1806.2,3046.05 1808.7,3046.05C1811.19,3046.05 1813.21,3044.04 1813.21,3041.55C1813.21,3039.05 1811.19,3037.04 1808.7,3037.04C1806.2,3037.04 1804.19,3039.05 1804.19,3041.55"/>
                <path d="M1804.2,3113.56C1804.24,3116.06 1806.28,3118.03 1808.78,3117.99C1811.26,3117.95 1813.25,3115.91 1813.21,3113.41C1813.17,3110.92 1811.11,3108.94 1808.63,3108.98C1806.13,3109.02 1804.15,3111.07 1804.2,3113.56"/>
                <path d="M1637.48,3045.43C1619.64,3045.43 1605.18,3059.89 1605.18,3077.72C1605.19,3095.57 1619.64,3110.02 1637.48,3110.02C1655.32,3110.03 1669.78,3095.56 1669.78,3077.72C1669.78,3059.89 1655.32,3045.42 1637.48,3045.43Z"/>
            </g>
        </g>
        <g id="Switch-w.2f.Outline">
            <g id="Drill31">
                <path d="M359.157,1201.75C359.157,1206.73 363.199,1210.77 368.178,1210.77C373.156,1210.77 377.199,1206.73 377.199,1201.75L377.199,1057.67C377.199,1052.69 373.156,1048.65 368.178,1048.65C363.199,1048.65 359.157,1052.69 359.157,1057.67L359.157,1201.75Z"/>
                <path d="M405.053,1003.43C405.053,1005.93 407.065,1007.94 409.56,1007.94C412.054,1007.94 414.066,1005.93 414.066,1003.43C414.066,1000.94 412.054,998.927 409.56,998.927C407.065,998.927 405.053,1000.94 405.053,1003.43"/>
                <path d="M405.053,967.375C405.053,969.87 407.065,971.882 409.56,971.882C412.054,971.882 414.066,969.87 414.066,967.375C414.066,964.88 412.054,962.868 409.56,962.868C407.065,962.868 405.053,964.88 405.053,967.375"/>
            </g>
        </g>
        <g id="Switch-w.2f.Outline1">
            <g id="Drill32">
                <path d="M2073.86,3741.35C2073.86,3746.33 2077.9,3750.37 2082.88,3750.37C2087.86,3750.37 2091.9,3746.33 2091.9,3741.35L2091.9,3597.27C2091.9,3592.29 2087.86,3588.25 2082.88,3588.25C2077.9,3588.25 2073.86,3592.29 2073.86,3597.27L2073.86,3741.35Z"/>
                <path d="M2119.76,3543.03C2119.76,3545.53 2121.77,3547.54 2124.26,3547.54C2126.76,3547.54 2128.77,3545.53 2128.77,3543.03C2128.77,3540.54 2126.76,3538.53 2124.26,3538.53C2121.77,3538.53 2119.76,3540.54 2119.76,3543.03"/>
                <path d="M2119.76,3506.97C2119.76,3509.47 2121.77,3511.48 2124.26,3511.48C2126.76,3511.48 2128.77,3509.47 2128.77,3506.97C2128.77,3504.48 2126.76,3502.47 2124.26,3502.47C2121.77,3502.47 2119.76,3504.48 2119.76,3506.97"/>
            </g>
        </g>
        <g id="Switch-w.2f.Outline2">
            <g id="Drill33">
                <path d="M1931.76,3453.83C1931.76,3448.86 1927.72,3444.81 1922.74,3444.81C1917.76,3444.81 1913.72,3448.86 1913.72,3453.83L1913.72,3597.91C1913.72,3602.89 1917.76,3606.93 1922.74,3606.93C1927.72,3606.93 1931.76,3602.89 1931.76,3597.91L1931.76,3453.83Z"/>
                <path d="M1885.87,3652.15C1885.87,3649.66 1883.86,3647.64 1881.36,3647.64C1878.87,3647.64 1876.85,3649.66 1876.85,3652.15C1876.85,3654.65 1878.87,3656.66 1881.36,3656.66C1883.86,3656.66 1885.87,3654.65 1885.87,3652.15"/>
                <path d="M1885.87,3688.21C1885.87,3685.72 1883.86,3683.7 1881.36,3683.7C1878.87,3683.7 1876.85,3685.72 1876.85,3688.21C1876.85,3690.7 1878.87,3692.72 1881.36,3692.72C1883.86,3692.72 1885.87,3690.7 1885.87,3688.21"/>
            </g>
        </g>
        <g id="Switch-w.2f.Outline3">
            <g id="Drill34">
                <path d="M1785.03,3597.86C1785.03,3602.84 1789.07,3606.88 1794.05,3606.88C1799.03,3606.88 1803.07,3602.84 1803.07,3597.86L1803.07,3453.78C1803.07,3448.8 1799.03,3444.76 1794.05,3444.76C1789.07,3444.76 1785.03,3448.8 1785.03,3453.78L1785.03,3597.86Z"/>
                <path d="M1830.92,3399.54C1830.92,3402.03 1832.93,3404.05 1835.43,3404.05C1837.92,3404.05 1839.93,3402.03 1839.93,3399.54C1839.93,3397.05 1837.92,3395.03 1835.43,3395.03C1832.93,3395.03 1830.92,3397.05 1830.92,3399.54"/>
                <path d="M1830.92,3363.48C1830.92,3365.98 1832.93,3367.99 1835.43,3367.99C1837.92,3367.99 1839.93,3365.98 1839.93,3363.48C1839.93,3360.99 1837.92,3358.97 1835.43,3358.97C1832.93,3358.97 1830.92,3360.99 1830.92,3363.48"/>
            </g>
        </g>
        <g id="Switch-w.2f.Outline4">
            <g id="Drill35">
                <path d="M632.037,3453.82C632.037,3448.84 627.995,3444.8 623.016,3444.8C618.037,3444.8 613.995,3448.84 613.995,3453.82L613.995,3597.89C613.995,3602.87 618.037,3606.91 623.016,3606.91C627.995,3606.91 632.037,3602.87 632.037,3597.89L632.037,3453.82Z"/>
                <path d="M586.141,3652.13C586.141,3649.64 584.129,3647.63 581.634,3647.63C579.139,3647.63 577.127,3649.64 577.127,3652.13C577.127,3654.63 579.139,3656.64 581.634,3656.64C584.129,3656.64 586.141,3654.63 586.141,3652.13"/>
                <path d="M586.141,3688.19C586.141,3685.7 584.129,3683.69 581.634,3683.69C579.139,3683.69 577.127,3685.7 577.127,3688.19C577.127,3690.69 579.139,3692.7 581.634,3692.7C584.129,3692.7 586.141,3690.69 586.141,3688.19"/>
            </g>
        </g>
        <g id="Switch-w.2f.Outline5">
            <g id="Drill36">
                <path d="M503.391,3453.82C503.391,3448.84 499.349,3444.8 494.37,3444.8C489.392,3444.8 485.349,3448.84 485.349,3453.82L485.349,3597.9C485.349,3602.88 489.392,3606.92 494.37,3606.92C499.349,3606.92 503.391,3602.88 503.391,3597.9L503.391,3453.82Z"/>
                <path d="M457.495,3652.14C457.495,3649.65 455.483,3647.63 452.988,3647.63C450.494,3647.63 448.482,3649.65 448.482,3652.14C448.482,3654.64 450.494,3656.65 452.988,3656.65C455.483,3656.65 457.495,3654.64 457.495,3652.14"/>
                <path d="M457.495,3688.2C457.495,3685.7 455.483,3683.69 452.988,3683.69C450.494,3683.69 448.482,3685.7 448.482,3688.2C448.482,3690.69 450.494,3692.71 452.988,3692.71C455.483,3692.71 457.495,3690.69 457.495,3688.2"/>
            </g>
        </g>
        <g id="Switch-w.2f.Outline6">
            <g id="Drill37">
                <path d="M367.333,3597.26C367.333,3592.28 363.291,3588.24 358.312,3588.24C353.333,3588.24 349.291,3592.28 349.291,3597.26L349.291,3741.34C349.291,3746.32 353.333,3750.36 358.312,3750.36C363.291,3750.36 367.333,3746.32 367.333,3741.34L367.333,3597.26Z"/>
                <path d="M321.437,3795.58C321.437,3793.08 319.425,3791.07 316.93,3791.07C314.435,3791.07 312.423,3793.08 312.423,3795.58C312.423,3798.07 314.435,3800.08 316.93,3800.08C319.425,3800.08 321.437,3798.07 321.437,3795.58"/>
                <path d="M321.437,3831.63C321.437,3829.14 319.425,3827.13 316.93,3827.13C314.435,3827.13 312.423,3829.14 312.423,3831.63C312.423,3834.13 314.435,3836.14 316.93,3836.14C319.425,3836.14 321.437,3834.13 321.437,3831.63"/>
            </g>
        </g>
        <g id="Shooter-Switch">
            <g id="Drill38">
                <path d="M2026.74,4225.68C2028.17,4223.65 2027.69,4220.84 2025.65,4219.4C2023.62,4217.97 2020.81,4218.45 2019.37,4220.48C2017.93,4222.52 2018.42,4225.33 2020.46,4226.77C2022.49,4228.2 2025.3,4227.72 2026.74,4225.68"/>
                <path d="M2026.71,4189.62C2028.14,4187.58 2027.66,4184.78 2025.62,4183.34C2023.59,4181.9 2020.78,4182.38 2019.34,4184.42C2017.9,4186.46 2018.39,4189.27 2020.42,4190.7C2022.46,4192.14 2025.27,4191.66 2026.71,4189.62"/>
            </g>
        </g>
        <g id="Trough">
            <g id="Drill39">
                <path d="M1262.24,4668.57C1265.54,4674.32 1272.87,4676.31 1278.62,4673.02L1278.62,4673.02L2007.78,4254.7L2007.77,4254.7C2013.52,4251.4 2015.51,4244.07 2012.21,4238.32L2012.21,4238.32L1958.48,4144.65L1958.47,4144.65C1955.18,4138.9 1947.84,4136.91 1942.1,4140.21L1212.94,4558.53C1207.2,4561.82 1205.21,4569.16 1208.51,4574.9L1208.51,4574.91L1262.24,4668.58L1262.24,4668.57Z"/>
                <path d="M1329.58,4682.99C1329.51,4680.5 1327.44,4678.54 1324.95,4678.61C1322.46,4678.67 1320.5,4680.74 1320.57,4683.23C1320.63,4685.73 1322.71,4687.68 1325.19,4687.62C1327.69,4687.55 1329.64,4685.48 1329.58,4682.99"/>
                <path d="M1651.58,4498.02C1651.51,4495.53 1649.45,4493.57 1646.95,4493.64C1644.47,4493.71 1642.5,4495.77 1642.57,4498.27C1642.64,4500.76 1644.71,4502.72 1647.2,4502.65C1649.69,4502.58 1651.65,4500.52 1651.58,4498.02"/>
                <path d="M1984.24,4358.62C1984.17,4356.13 1982.11,4354.17 1979.62,4354.24C1977.13,4354.3 1975.16,4356.37 1975.23,4358.86C1975.3,4361.36 1977.37,4363.31 1979.86,4363.25C1982.35,4363.18 1984.31,4361.11 1984.24,4358.62"/>
                <path d="M1842.84,4112.1C1842.77,4109.61 1840.71,4107.65 1838.22,4107.72C1835.73,4107.78 1833.76,4109.85 1833.83,4112.34C1833.9,4114.84 1835.97,4116.79 1838.46,4116.73C1840.95,4116.66 1842.91,4114.59 1842.84,4112.1"/>
                <path d="M1553.32,4326.48C1553.26,4323.99 1551.19,4322.03 1548.7,4322.1C1546.21,4322.17 1544.25,4324.23 1544.31,4326.73C1544.38,4329.22 1546.45,4331.18 1548.94,4331.11C1551.43,4331.04 1553.39,4328.98 1553.32,4326.48"/>
                <path d="M1231.09,4511.51C1231.02,4509.02 1228.95,4507.06 1226.46,4507.13C1223.97,4507.19 1222.01,4509.26 1222.08,4511.75C1222.14,4514.25 1224.22,4516.2 1226.7,4516.14C1229.2,4516.07 1231.15,4514.01 1231.09,4511.51"/>
                <path d="M1231.09,4511.51C1231.02,4509.02 1228.95,4507.06 1226.46,4507.13C1223.97,4507.19 1222.01,4509.26 1222.08,4511.75C1222.14,4514.25 1224.22,4516.2 1226.7,4516.14C1229.2,4516.07 1231.15,4514.01 1231.09,4511.51"/>
            </g>
        </g>
        <g id="_4-Target-Region">
            <g id="Drill40">
                <path d="M2090.32,2906.13C2096.75,2903.76 2100.05,2896.61 2097.68,2890.18L1985.12,2584.83C1982.75,2578.39 1975.6,2575.09 1969.17,2577.47L1939.58,2588.37C1933.15,2590.74 1929.85,2597.89 1932.22,2604.33L2044.78,2909.68C2047.15,2916.11 2054.3,2919.41 2060.73,2917.04L2090.32,2906.13Z" style="stroke:black;stroke-width:0.74px;stroke-linecap:round;stroke-miterlimit:1.5;"/>
            </g>
        </g>
        <g id="Flipper-Right">
            <g id="Drill41">
                <path d="M1293.02,4196.73C1295.52,4196.73 1297.53,4198.75 1297.53,4201.24C1297.53,4203.73 1295.52,4205.75 1293.02,4205.75C1290.54,4205.75 1288.52,4203.73 1288.52,4201.24C1288.52,4198.75 1290.54,4196.73 1293.02,4196.73"/>
            </g>
        </g>
        <g id="Hanger">
            <g id="T.-8">
                <path id="Drill42" d="M722.437,4734.04C722.443,4719.64 700.83,4719.64 700.837,4734.04C700.823,4748.43 722.443,4748.44 722.43,4734.04L722.437,4734.04Z"/>
            </g>
            <g id="T.-8-R">
                <path id="Drill43" d="M722.444,4638.04C722.45,4623.65 700.837,4623.65 700.844,4638.04C700.83,4652.44 722.45,4652.45 722.437,4638.05L722.444,4638.04Z" style="fill-rule:nonzero;"/>
            </g>
        </g>
        <g id="Hanger1">
            <g id="T.-81">
                <path id="Drill44" d="M1538.43,4734.04C1538.43,4719.64 1516.82,4719.64 1516.83,4734.04C1516.82,4748.43 1538.43,4748.44 1538.42,4734.04L1538.43,4734.04Z"/>
            </g>
            <g id="T.-8-R1">
                <path id="Drill45" d="M1538.43,4638.04C1538.44,4623.65 1516.83,4623.65 1516.84,4638.04C1516.82,4652.44 1538.44,4652.45 1538.43,4638.05L1538.43,4638.04Z"/>
            </g>
        </g>
        <g id="T.-82">
            <path id="Drill46" d="M516.325,4686.04C516.331,4671.64 494.718,4671.64 494.725,4686.04C494.711,4700.43 516.331,4700.44 516.318,4686.04L516.325,4686.04Z"/>
        </g>
        <g id="T.-83">
            <path id="Drill47" d="M1793.41,4686.42C1793.42,4672.02 1771.81,4672.02 1771.81,4686.42C1771.8,4700.82 1793.42,4700.82 1793.41,4686.43L1793.41,4686.42Z"/>
        </g>
        <g id="Switch-w.2f.Outline7">
            <g id="Drill48">
                <path d="M1460.05,588.71C1455.07,588.71 1451.03,592.752 1451.03,597.731C1451.03,602.709 1455.07,606.751 1460.05,606.751L1604.13,606.751C1609.11,606.751 1613.15,602.709 1613.15,597.731C1613.15,592.752 1609.11,588.71 1604.13,588.71L1460.05,588.71Z"/>
                <path d="M1658.37,634.606C1655.87,634.606 1653.86,636.618 1653.86,639.112C1653.86,641.607 1655.87,643.619 1658.37,643.619C1660.86,643.619 1662.87,641.607 1662.87,639.112C1662.87,636.618 1660.86,634.606 1658.37,634.606"/>
                <path d="M1694.42,634.606C1691.93,634.606 1689.92,636.618 1689.92,639.112C1689.92,641.607 1691.93,643.619 1694.42,643.619C1696.92,643.619 1698.93,641.607 1698.93,639.112C1698.93,636.618 1696.92,634.606 1694.42,634.606"/>
            </g>
        </g>
        <g id="T.-84">
            <path id="Drill49" d="M629.986,4564.31C629.993,4549.91 608.379,4549.91 608.386,4564.31C608.373,4578.71 629.993,4578.72 629.979,4564.32L629.986,4564.31Z"/>
        </g>
        <g id="T.-85">
            <path id="Drill50" d="M1685.15,4564.37C1685.16,4549.97 1663.54,4549.97 1663.55,4564.37C1663.54,4578.77 1685.16,4578.78 1685.14,4564.38L1685.15,4564.37Z"/>
        </g>
        <g id="Pop-Bumper-Spoon">
            <g id="Drill51">
                <path d="M1422.67,781.742C1425.11,782.259 1427.5,780.71 1428.02,778.279C1428.55,775.839 1427,773.446 1424.56,772.923C1422.13,772.406 1419.73,773.954 1419.21,776.396C1418.68,778.825 1420.24,781.225 1422.67,781.742"/>
                <path d="M1452.24,760.621C1454.67,761.138 1457.07,759.589 1457.59,757.158C1458.12,754.718 1456.56,752.325 1454.13,751.802C1451.7,751.285 1449.3,752.833 1448.78,755.275C1448.25,757.704 1449.81,760.104 1452.24,760.621"/>
            </g>
        </g>
        <g id="Pop-Bumper-Spoon1">
            <g id="Drill52">
                <path d="M1470.61,1063.32C1472.85,1062.25 1473.8,1059.56 1472.73,1057.32C1471.66,1055.06 1468.97,1054.11 1466.72,1055.18C1464.48,1056.26 1463.52,1058.95 1464.6,1061.2C1465.66,1063.44 1468.36,1064.39 1470.61,1063.32"/>
                <path d="M1481.15,1028.55C1483.39,1027.47 1484.34,1024.78 1483.27,1022.54C1482.2,1020.28 1479.51,1019.34 1477.26,1020.41C1475.02,1021.48 1474.06,1024.17 1475.14,1026.42C1476.21,1028.67 1478.9,1029.62 1481.15,1028.55"/>
            </g>
        </g>
        <g id="Pop-Bumper-Spoon2">
            <g id="Drill53">
                <path d="M1670.99,1145.87C1668.67,1146.77 1667.52,1149.38 1668.42,1151.7C1669.32,1154.03 1671.93,1155.18 1674.25,1154.28C1676.57,1153.38 1677.72,1150.77 1676.82,1148.44C1675.92,1146.12 1673.31,1144.97 1670.99,1145.87"/>
                <path d="M1657.85,1179.75C1655.54,1180.65 1654.38,1183.26 1655.28,1185.58C1656.18,1187.91 1658.79,1189.06 1661.12,1188.16C1663.43,1187.26 1664.59,1184.65 1663.68,1182.32C1662.79,1180 1660.17,1178.85 1657.85,1179.75"/>
            </g>
        </g>
        <g id="Pop-Bumper">
            <g id="Drill54">
                <path d="M1229.93,844.369C1225.7,852.266 1237.56,858.61 1241.78,850.708C1246.01,842.82 1234.15,836.476 1229.94,844.373L1229.93,844.369Z"/>
                <path d="M1198.38,959.916C1194.16,967.808 1206.01,974.148 1210.23,966.251C1214.46,958.358 1202.61,952.018 1198.39,959.916L1198.38,959.916Z"/>
                <path d="M1297.54,1027.1C1293.32,1034.99 1305.16,1041.34 1309.39,1033.44C1313.61,1025.55 1301.76,1019.2 1297.55,1027.1L1297.54,1027.1Z"/>
                <path d="M1347.99,980.196C1339.59,957.726 1305.85,970.367 1314.29,992.832C1322.69,1015.3 1356.43,1002.66 1347.99,980.196Z"/>
                <path d="M1301.66,856.617C1293.25,834.146 1259.52,846.794 1267.96,869.252C1276.36,891.723 1310.09,879.082 1301.66,856.617Z"/>
                <path d="M1312.94,956.546C1312.94,956.546 1317.29,955.662 1319.3,954.91C1335.92,948.677 1344.39,930.033 1338.16,913.403C1337.41,911.405 1335.29,907.521 1335.29,907.521C1338.54,902.772 1339.29,896.562 1337.24,891.102C1333.76,881.819 1323.35,877.087 1314.07,880.567C1308.61,882.615 1304.44,887.328 1303.01,892.903C1303.01,892.903 1298.66,893.785 1296.66,894.537C1280.03,900.772 1271.55,919.416 1277.79,936.039C1278.54,938.044 1280.66,941.928 1280.66,941.928C1277.41,946.675 1276.66,952.887 1278.71,958.347C1282.19,967.63 1292.6,972.362 1301.88,968.881C1307.34,966.834 1311.5,962.121 1312.94,956.546Z"/>
                <path d="M1268.27,903.524C1265.94,904.397 1264.76,906.992 1265.63,909.326C1266.5,911.651 1269.1,912.84 1271.42,911.966C1273.76,911.093 1274.94,908.505 1274.07,906.165C1273.2,903.84 1270.6,902.651 1268.27,903.524"/>
                <path d="M1344.44,938.322C1342.11,939.195 1340.92,941.791 1341.8,944.124C1342.66,946.449 1345.27,947.638 1347.59,946.765C1349.92,945.891 1351.11,943.304 1350.24,940.964C1349.37,938.638 1346.77,937.449 1344.44,938.322"/>
            </g>
        </g>
        <g id="Pop-Bumper1">
            <g id="Drill55">
                <path d="M1356.1,1230.54C1357.57,1239.37 1370.84,1237.16 1369.36,1228.33C1367.89,1219.5 1354.63,1221.71 1356.11,1230.54L1356.1,1230.54Z"/>
                <path d="M1401.6,1341.33C1403.07,1350.16 1416.33,1347.96 1414.86,1339.12C1413.39,1330.29 1400.13,1332.5 1401.61,1341.33L1401.6,1341.33Z"/>
                <path d="M1521.16,1334.07C1522.62,1342.9 1535.88,1340.69 1534.41,1331.86C1532.94,1323.03 1519.68,1325.23 1521.16,1334.07L1521.16,1334.07Z"/>
                <path d="M1532.51,1266.12C1512.14,1253.45 1493.13,1284.05 1513.52,1296.7C1533.89,1309.37 1552.9,1278.78 1532.51,1266.12Z"/>
                <path d="M1420.4,1196.48C1400.04,1183.8 1381.03,1214.4 1401.41,1227.05C1421.78,1239.73 1440.8,1209.13 1420.4,1196.48Z"/>
                <path d="M1490.31,1268.77C1490.31,1268.77 1493.22,1265.42 1494.35,1263.6C1503.72,1248.52 1499.06,1228.57 1483.97,1219.2C1482.16,1218.08 1478.11,1216.29 1478.11,1216.29C1477.79,1210.55 1474.59,1205.17 1469.64,1202.09C1461.21,1196.86 1450.08,1199.46 1444.85,1207.88C1441.77,1212.84 1441.35,1219.11 1443.61,1224.41C1443.61,1224.41 1440.71,1227.76 1439.58,1229.57C1430.21,1244.66 1434.87,1264.6 1449.95,1273.97C1451.77,1275.1 1455.82,1276.88 1455.82,1276.88C1456.14,1282.62 1459.33,1288.01 1464.29,1291.08C1472.71,1296.32 1483.84,1293.71 1489.08,1285.29C1492.15,1280.34 1492.57,1274.07 1490.31,1268.77Z"/>
                <path d="M1422.57,1254.01C1421.25,1256.13 1421.9,1258.91 1424.02,1260.22C1426.12,1261.54 1428.91,1260.89 1430.22,1258.78C1431.54,1256.66 1430.89,1253.89 1428.78,1252.57C1426.67,1251.26 1423.89,1251.9 1422.57,1254.01"/>
                <path d="M1504.15,1235.12C1502.83,1237.23 1503.48,1240.01 1505.6,1241.32C1507.7,1242.64 1510.49,1241.99 1511.8,1239.88C1513.11,1237.77 1512.47,1234.99 1510.36,1233.67C1508.25,1232.36 1505.46,1233 1504.15,1235.12"/>
            </g>
        </g>
        <g id="Pop-Bumper2">
            <g id="Drill56">
                <path d="M1800.3,957.469C1797.13,949.088 1784.56,953.847 1787.74,962.221C1790.89,970.596 1803.47,965.837 1800.3,957.47L1800.3,957.469Z"/>
                <path d="M1734.02,857.706C1730.85,849.331 1718.28,854.09 1721.45,862.464C1724.62,870.839 1737.19,866.08 1734.01,857.713L1734.02,857.706Z"/>
                <path d="M1618.19,888.208C1615.03,879.833 1602.45,884.585 1605.63,892.959C1608.79,901.334 1621.36,896.582 1618.18,888.209L1618.19,888.208Z"/>
                <path d="M1620.34,957.058C1642.79,965.508 1655.46,931.782 1632.99,923.361C1610.53,914.912 1597.87,948.637 1620.34,957.058Z"/>
                <path d="M1743.9,1003.44C1766.35,1011.89 1779.01,978.161 1756.55,969.743C1734.1,961.293 1721.43,995.019 1743.9,1003.44Z"/>
                <path d="M1661.21,946.213C1661.21,946.213 1659.01,950.07 1658.26,952.074C1652.02,968.695 1660.49,987.343 1677.12,993.584C1679.12,994.334 1683.44,995.289 1683.44,995.289C1684.88,1000.86 1689.06,1005.51 1694.52,1007.56C1703.8,1011.04 1714.21,1006.32 1717.7,997.034C1719.75,991.574 1718.93,985.339 1715.68,980.588C1715.68,980.588 1717.87,976.738 1718.62,974.733C1724.87,958.106 1716.4,939.458 1699.78,933.219C1697.77,932.467 1693.45,931.512 1693.45,931.512C1692.01,925.943 1687.83,921.29 1682.37,919.241C1673.09,915.757 1662.67,920.485 1659.19,929.767C1657.14,935.226 1657.95,941.462 1661.21,946.213Z"/>
                <path d="M1730.53,947.439C1731.4,945.107 1730.23,942.51 1727.89,941.633C1725.57,940.756 1722.97,941.934 1722.09,944.261C1721.22,946.593 1722.39,949.184 1724.72,950.072C1727.05,950.943 1729.65,949.77 1730.53,947.439"/>
                <path d="M1654.22,981.923C1655.09,979.592 1653.92,976.995 1651.58,976.118C1649.26,975.241 1646.66,976.419 1645.78,978.746C1644.91,981.077 1646.08,983.669 1648.41,984.556C1650.74,985.428 1653.34,984.255 1654.22,981.923"/>
            </g>
        </g>
        <g id="T.-6-Post-Narrow">
            <g id="Drill57">
                <path d="M346.642,2990.71C343.284,2978.36 324.745,2983.41 328.117,2995.76C331.468,3008.11 350.013,3003.06 346.642,2990.71Z"/>
            </g>
        </g>
        <g id="T.-6-Post-Narrow1">
            <g id="Drill58">
                <path d="M428.768,3142.32C425.41,3129.96 406.872,3135.01 410.244,3147.36C413.595,3159.72 432.14,3154.66 428.768,3142.32Z"/>
            </g>
        </g>
        <g id="T.-6-Post-Narrow2">
            <g id="Drill59">
                <path d="M388.496,3193.08C385.138,3180.72 366.6,3185.78 369.971,3198.12C373.322,3210.48 391.868,3205.42 388.496,3193.08Z"/>
            </g>
        </g>
        <g id="T.-6-Post-Narrow3">
            <g id="Drill60">
                <path d="M726.09,3421.76C722.732,3409.41 704.194,3414.46 707.566,3426.81C710.917,3439.16 729.462,3434.11 726.09,3421.76Z"/>
            </g>
        </g>
        <g id="T.-6-Post-Narrow4">
            <g id="Drill61">
                <path d="M726.115,3685.66C722.757,3673.31 704.218,3678.36 707.59,3690.71C710.941,3703.06 729.486,3698.01 726.115,3685.66Z"/>
            </g>
        </g>
        <g id="T.-6-Post-Narrow5">
            <g id="Drill62">
                <path d="M845.771,3769.25C842.413,3756.9 823.875,3761.95 827.246,3774.3C830.597,3786.66 849.143,3781.6 845.771,3769.25Z"/>
            </g>
        </g>
        <g id="T.-6-Post-Narrow6">
            <g id="Drill63">
                <path d="M1710.35,3421.77C1707,3409.42 1688.46,3414.47 1691.83,3426.82C1695.18,3439.17 1713.73,3434.12 1710.35,3421.77Z"/>
            </g>
        </g>
        <g id="T.-6-Post-Narrow7">
            <g id="Drill64">
                <path d="M1709.86,3685.35C1706.51,3673 1687.97,3678.05 1691.34,3690.4C1694.69,3702.75 1713.23,3697.7 1709.86,3685.35Z"/>
            </g>
        </g>
        <g id="T.-6-Post-Narrow8">
            <g id="Drill65">
                <path d="M1589.88,3769.27C1586.53,3756.92 1567.99,3761.97 1571.36,3774.32C1574.71,3786.67 1593.26,3781.62 1589.88,3769.27Z"/>
            </g>
        </g>
        <g id="T.-6-Post-Narrow9">
            <g id="Drill66">
                <path d="M2082.82,2958.26C2079.46,2945.91 2060.92,2950.96 2064.29,2963.31C2067.64,2975.66 2086.19,2970.61 2082.82,2958.26Z"/>
            </g>
        </g>
        <g id="T.-6-Post-Narrow10">
            <g id="Drill67">
                <path d="M2119.38,3011.71C2116.02,2999.35 2097.48,3004.41 2100.85,3016.75C2104.2,3029.11 2122.75,3024.05 2119.38,3011.71Z"/>
            </g>
        </g>
        <g id="T.-6-Post-Narrow11">
            <g id="Drill68">
                <path d="M2026.56,3157.08C2023.2,3144.73 2004.66,3149.78 2008.03,3162.12C2011.38,3174.48 2029.93,3169.43 2026.56,3157.08Z"/>
            </g>
        </g>
        <g id="T.-6-Post-Narrow12">
            <g id="Drill69">
                <path d="M1957.55,2533.32C1954.19,2520.97 1935.65,2526.02 1939.02,2538.37C1942.37,2550.72 1960.92,2545.67 1957.55,2533.32Z"/>
            </g>
        </g>
        <g id="T.-6-Post-Narrow13">
            <g id="Drill70">
                <path d="M2022.92,2492.07C2019.57,2479.72 2001.03,2484.77 2004.4,2497.12C2007.75,2509.47 2026.3,2504.42 2022.92,2492.07Z"/>
            </g>
        </g>
        <g id="T.-6-Post-Narrow14">
            <g id="Drill71">
                <path d="M2070.19,2174.29C2066.84,2161.94 2048.3,2166.99 2051.67,2179.34C2055.02,2191.69 2073.57,2186.64 2070.19,2174.29Z"/>
            </g>
        </g>
        <g id="T.-6-Post-Narrow15">
            <g id="Drill72">
                <path d="M324.462,2397.71C321.104,2385.36 302.566,2390.41 305.937,2402.75C309.288,2415.11 327.834,2410.05 324.462,2397.71Z"/>
            </g>
        </g>
        <g id="T.-6-Post-Narrow16">
            <g id="Drill73">
                <path d="M353.063,2338.54C349.705,2326.19 331.166,2331.24 334.538,2343.59C337.889,2355.94 356.435,2350.89 353.063,2338.54Z"/>
            </g>
        </g>
        <g id="T.-6-Post-Narrow17">
            <g id="Drill74">
                <path d="M415.827,2321.9C412.469,2309.55 393.931,2314.6 397.303,2326.95C400.654,2339.3 419.199,2334.25 415.827,2321.9Z"/>
            </g>
        </g>
        <g id="T.-6-Post-Narrow18">
            <g id="Drill75">
                <path d="M2520.53,923.14C2517.17,910.788 2498.64,915.839 2502.01,928.187C2505.36,940.541 2523.9,935.488 2520.53,923.14Z"/>
            </g>
        </g>
        <g id="T.-6-Post-Narrow19">
            <g id="Drill76">
                <path d="M2478.79,1037.79C2475.43,1025.44 2456.89,1030.49 2460.26,1042.84C2463.62,1055.19 2482.16,1050.14 2478.79,1037.79Z"/>
            </g>
        </g>
        <g id="Trough-Guard">
            <g id="Drill77">
                <path d="M933.775,4491.01C931.287,4491.01 929.273,4493.02 929.273,4495.51C929.273,4498 931.287,4500.02 933.775,4500.02C936.264,4500.02 938.277,4498 938.277,4495.51C938.277,4493.02 936.264,4491.01 933.775,4491.01"/>
                <path d="M904.283,4469.71C901.794,4469.71 899.781,4471.72 899.781,4474.21C899.781,4476.7 901.794,4478.72 904.283,4478.72C906.771,4478.72 908.785,4476.7 908.785,4474.21C908.785,4471.72 906.771,4469.71 904.283,4469.71"/>
                <path d="M1313.07,4690.9C1310.58,4690.9 1308.57,4692.91 1308.57,4695.4C1308.57,4697.89 1310.58,4699.91 1313.07,4699.91C1315.56,4699.91 1317.57,4697.89 1317.57,4695.4C1317.57,4692.91 1315.56,4690.9 1313.07,4690.9"/>
                <path d="M1437.59,4618.81C1435.1,4618.81 1433.09,4620.82 1433.09,4623.31C1433.09,4625.8 1435.1,4627.82 1437.59,4627.82C1440.08,4627.82 1442.09,4625.8 1442.09,4623.31C1442.09,4620.82 1440.08,4618.81 1437.59,4618.81"/>
            </g>
        </g>
        <g id="Eject-Switch">
            <g id="Drill78">
                <path d="M1706.21,2122.76C1705.32,2125.08 1706.47,2127.68 1708.8,2128.57C1711.12,2129.48 1713.73,2128.32 1714.63,2125.99C1715.52,2123.67 1714.36,2121.06 1712.03,2120.17C1709.71,2119.27 1707.1,2120.43 1706.21,2122.76"/>
                <path d="M1723.89,2090.89C1723,2093.22 1724.15,2095.82 1726.48,2096.72C1728.8,2097.62 1731.41,2096.46 1732.31,2094.13C1733.19,2091.81 1732.04,2089.2 1729.71,2088.31C1727.39,2087.41 1724.78,2088.57 1723.89,2090.89"/>
            </g>
        </g>
        <g id="_30-deg-Eject">
            <g id="Drill79">
                <path d="M457.917,2686.72L449.108,2727.9C448.22,2732.17 449.764,2736.76 453.139,2739.58C454.613,2740.82 456.486,2741.72 458.353,2742.12L516.997,2754.69C521.267,2755.57 525.881,2754.04 528.711,2750.66C529.945,2749.19 530.841,2747.31 531.243,2745.44L543.811,2686.78C544.699,2682.51 543.16,2677.92 539.78,2675.09C538.306,2673.86 536.433,2672.95 534.566,2672.55L494.419,2663.95C492.552,2663.55 490.703,2662.65 489.229,2661.42C488.332,2660.66 487.483,2659.71 486.865,2658.76L480.796,2649.39L460.132,2617.58C459.209,2616.16 457.938,2614.71 456.592,2613.58C448.99,2607.21 437.604,2608.22 431.242,2615.82C426.187,2621.86 425.614,2630.64 429.933,2637.2L450.605,2669.01L456.254,2677.68C458.017,2680.32 458.612,2683.63 457.917,2686.72Z"/>
                <path d="M310.034,2589.14C309.967,2586.65 307.901,2584.69 305.407,2584.76C302.921,2584.83 300.956,2586.89 301.023,2589.39C301.091,2591.88 303.164,2593.84 305.65,2593.77C308.144,2593.7 310.101,2591.64 310.034,2589.14"/>
                <path d="M342.713,2639.45C342.646,2636.96 340.58,2635 338.086,2635.07C335.6,2635.13 333.635,2637.2 333.703,2639.69C333.77,2642.19 335.843,2644.14 338.329,2644.08C340.823,2644.01 342.78,2641.94 342.713,2639.45"/>
            </g>
        </g>
        <g id="_30-deg-Eject1">
            <g id="Drill80">
                <path d="M1748.17,1927.75L1707.51,1938.73C1703.31,1939.89 1699.93,1943.36 1698.96,1947.65C1698.54,1949.53 1698.59,1951.61 1699.09,1953.45L1714.7,2011.36C1715.86,2015.56 1719.33,2018.97 1723.63,2019.94C1725.51,2020.36 1727.59,2020.3 1729.43,2019.81L1787.36,2004.18C1791.56,2003.02 1794.94,1999.56 1795.91,1995.26C1796.34,1993.38 1796.28,1991.31 1795.79,1989.46L1785.1,1949.82C1784.6,1947.98 1784.56,1945.92 1784.98,1944.05C1785.24,1942.9 1785.7,1941.71 1786.26,1940.73L1825.94,1871.3C1825.94,1871.3 1855.1,1801.55 1871.58,1762.13C1872.27,1760.48 1871.62,1758.59 1870.08,1757.7C1868.53,1756.82 1866.57,1757.23 1865.5,1758.65C1839.93,1792.88 1794.7,1853.41 1794.7,1853.41L1755.44,1922.14C1753.9,1924.92 1751.23,1926.96 1748.17,1927.75Z"/>
                <path d="M1766.85,1751.31C1769.04,1750.11 1769.83,1747.38 1768.63,1745.19C1767.44,1743.01 1764.7,1742.21 1762.52,1743.4C1760.33,1744.6 1759.54,1747.34 1760.73,1749.52C1761.93,1751.71 1764.66,1752.51 1766.85,1751.31" style="fill-rule:nonzero;"/>
                <path d="M1737.03,1803.36C1739.22,1802.16 1740.02,1799.43 1738.82,1797.24C1737.62,1795.06 1734.88,1794.26 1732.7,1795.46C1730.51,1796.65 1729.72,1799.39 1730.91,1801.58C1732.11,1803.76 1734.84,1804.56 1737.03,1803.36" style="fill-rule:nonzero;"/>
            </g>
        </g>
        <g id="Eject-Switch1">
            <g id="Drill81">
                <path d="M612.025,2811.86C613.703,2813.69 616.554,2813.83 618.388,2812.15C620.237,2810.47 620.363,2807.62 618.685,2805.78C617.007,2803.94 614.156,2803.81 612.314,2805.49C610.473,2807.16 610.347,2810.02 612.025,2811.86"/>
                <path d="M591.435,2781.8C593.113,2783.63 595.964,2783.76 597.798,2782.09C599.647,2780.41 599.773,2777.56 598.095,2775.72C596.417,2773.88 593.566,2773.75 591.724,2775.43C589.883,2777.1 589.757,2779.96 591.435,2781.8"/>
            </g>
        </g>
        <g id="T.-6-Post-Narrow20">
            <g id="Drill82">
                <path d="M535.747,2501.8C532.389,2489.45 513.851,2494.5 517.223,2506.85C520.574,2519.2 539.119,2514.15 535.747,2501.8Z"/>
            </g>
        </g>
        <g id="Captive-Ball">
            <g id="Drill83">
                <path d="M575.827,1712.38C580.898,1710.84 586.261,1713.71 587.796,1718.78C589.331,1723.85 586.46,1729.22 581.389,1730.75C576.318,1732.29 570.955,1729.42 569.42,1724.35C567.885,1719.27 570.756,1713.91 575.827,1712.38Z"/>
                <path d="M656.684,1687.9C651.613,1689.44 648.742,1694.8 650.277,1699.87C651.812,1704.94 657.175,1707.81 662.246,1706.28C667.317,1704.74 670.188,1699.38 668.653,1694.31C667.119,1689.24 661.755,1686.37 656.684,1687.9Z"/>
                <path d="M635.862,1764.92C630.791,1766.45 627.92,1771.82 629.455,1776.89C630.99,1781.96 636.354,1784.83 641.425,1783.29C646.496,1781.76 649.367,1776.39 647.832,1771.32C646.297,1766.25 640.934,1763.38 635.862,1764.92Z"/>
            </g>
        </g>
        <g id="MAGNET2">
            <g id="Drill84">
                <path d="M1173.93,2426.71C1173.86,2424.22 1171.8,2422.26 1169.31,2422.33C1166.82,2422.39 1164.85,2424.46 1164.92,2426.95C1164.99,2429.45 1167.06,2431.4 1169.55,2431.34C1172.04,2431.27 1174,2429.2 1173.93,2426.71"/>
                <path d="M1174.29,2498.58C1174.23,2496.09 1172.16,2494.13 1169.67,2494.2C1167.18,2494.27 1165.22,2496.33 1165.28,2498.83C1165.35,2501.32 1167.42,2503.28 1169.91,2503.21C1172.4,2503.14 1174.36,2501.08 1174.29,2498.58"/>
                <path d="M1507.43,2426.45C1507.43,2428.94 1509.44,2430.96 1511.93,2430.96C1514.42,2430.96 1516.44,2428.94 1516.44,2426.45C1516.44,2423.95 1514.42,2421.94 1511.93,2421.94C1509.44,2421.94 1507.43,2423.95 1507.43,2426.45"/>
                <path d="M1507.43,2498.47C1507.47,2500.96 1509.52,2502.94 1512.01,2502.9C1514.5,2502.85 1516.48,2500.81 1516.44,2498.31C1516.4,2495.82 1514.35,2493.84 1511.86,2493.88C1509.37,2493.93 1507.39,2495.97 1507.43,2498.47"/>
                <path d="M1340.71,2430.33C1322.88,2430.33 1308.41,2444.79 1308.42,2462.63C1308.42,2480.47 1322.88,2494.93 1340.72,2494.92C1358.56,2494.93 1373.01,2480.46 1373.01,2462.62C1373.01,2444.79 1358.55,2430.33 1340.71,2430.33Z"/>
            </g>
        </g>
        <g id="MAGNET3">
            <g id="Drill85">
                <path d="M371.653,2050.23C369.238,2049.6 366.786,2051.05 366.161,2053.46C365.538,2055.87 366.98,2058.33 369.395,2058.95C371.811,2059.58 374.264,2058.13 374.887,2055.72C375.512,2053.3 374.068,2050.85 371.653,2050.23"/>
                <path d="M440.826,2069.75C438.411,2069.12 435.959,2070.57 435.335,2072.98C434.712,2075.39 436.154,2077.85 438.569,2078.47C440.984,2079.1 443.438,2077.65 444.061,2075.24C444.686,2072.83 443.242,2070.37 440.826,2069.75"/>
                <path d="M463.594,1729.66C465.992,1730.35 468.482,1728.97 469.171,1726.57C469.859,1724.18 468.483,1721.68 466.086,1721C463.688,1720.31 461.196,1721.69 460.509,1724.08C459.819,1726.48 461.197,1728.97 463.594,1729.66"/>
                <path d="M532.804,1749.56C535.212,1750.21 537.679,1748.79 538.329,1746.38C538.976,1743.98 537.559,1741.51 535.151,1740.86C532.742,1740.21 530.273,1741.64 529.626,1744.04C528.976,1746.45 530.395,1748.91 532.804,1749.56"/>
                <path d="M421.237,1890.95C416.309,1908.09 426.205,1925.98 443.349,1930.91C460.497,1935.84 478.385,1925.94 483.314,1908.8C488.25,1891.65 478.345,1873.76 461.202,1868.83C444.062,1863.9 426.165,1873.8 421.237,1890.95Z"/>
            </g>
        </g>
        <g id="M.-Shape">
            <g id="Drill86">
                <circle cx="426.397" cy="3582.35" r="5.94"/>
                <circle cx="426.389" cy="3438.24" r="5.94"/>
            </g>
        </g>
        <g id="M.-Shape1">
            <g id="Drill87">
                <circle cx="553.775" cy="3618.06" r="5.94"/>
                <circle cx="553.767" cy="3473.95" r="5.94"/>
            </g>
        </g>
        <g id="M.-Shape2">
            <g id="Drill88">
                <circle cx="1863.26" cy="3618.05" r="5.94"/>
                <circle cx="1863.26" cy="3473.93" r="5.94"/>
            </g>
        </g>
        <g id="M.-Shape3">
            <g id="Drill89">
                <circle cx="1990.75" cy="3582.22" r="5.94"/>
                <circle cx="1990.74" cy="3438.1" r="5.94"/>
            </g>
        </g>
        <g id="M.-Shape4">
            <g id="Drill90">
                <circle cx="2020.19" cy="3582.22" r="5.94"/>
                <circle cx="2020.18" cy="3438.1" r="5.94"/>
            </g>
        </g>
        <g id="M.-Shape5">
            <g id="Drill91">
                <circle cx="2020.19" cy="3760.67" r="5.94"/>
                <circle cx="2020.18" cy="3616.56" r="5.94"/>
            </g>
        </g>
        <g id="M.-Shape6">
            <g id="Drill92">
                <circle cx="2023.39" cy="4108.74" r="5.94"/>
                <circle cx="2023.39" cy="3964.63" r="5.94"/>
            </g>
        </g>
        <g id="M.-Shape7">
            <g id="Drill93">
                <path d="M2018.1,3938.38C2016.25,3935.67 2016.94,3931.97 2019.64,3930.12C2022.35,3928.27 2026.05,3928.96 2027.9,3931.67C2029.75,3934.37 2029.06,3938.07 2026.36,3939.92C2023.65,3941.78 2019.95,3941.08 2018.1,3938.38Z"/>
                <path d="M1899.19,4019.8C1897.34,4017.1 1898.04,4013.4 1900.74,4011.55C1903.44,4009.69 1907.14,4010.39 1909,4013.09C1910.85,4015.8 1910.16,4019.5 1907.45,4021.35C1904.75,4023.2 1901.05,4022.51 1899.19,4019.8Z"/>
            </g>
        </g>
        <g id="M.-Shape8">
            <g id="Drill94">
                <path d="M406.848,2737.17C409.581,2735.36 413.27,2736.11 415.079,2738.85C416.889,2741.58 416.138,2745.27 413.404,2747.08C410.671,2748.89 406.982,2748.14 405.173,2745.4C403.364,2742.67 404.114,2738.98 406.848,2737.17Z"/>
                <path d="M327.301,2617C330.034,2615.19 333.723,2615.95 335.532,2618.68C337.342,2621.41 336.591,2625.1 333.857,2626.91C331.124,2628.72 327.435,2627.97 325.626,2625.24C323.817,2622.5 324.567,2618.81 327.301,2617Z"/>
            </g>
        </g>
        <g id="M.-Shape9">
            <g id="Drill95">
                <circle cx="330.577" cy="2592.52" r="5.94"/>
                <circle cx="330.57" cy="2448.41" r="5.94"/>
            </g>
        </g>
        <g id="M.-Shape10">
            <g id="Drill96">
                <path d="M530.891,2459.42C533.741,2457.8 537.37,2458.8 538.989,2461.65C540.609,2464.5 539.609,2468.13 536.759,2469.75C533.908,2471.37 530.279,2470.37 528.66,2467.52C527.041,2464.67 528.04,2461.04 530.891,2459.42Z"/>
                <path d="M459.701,2334.12C462.552,2332.5 466.181,2333.5 467.8,2336.35C469.419,2339.2 468.42,2342.83 465.569,2344.45C462.719,2346.07 459.09,2345.07 457.471,2342.22C455.851,2339.37 456.851,2335.74 459.701,2334.12Z"/>
            </g>
        </g>
        <g id="Flipper-Left">
            <g id="Drill97">
                <path d="M1124.97,4196.69C1122.48,4196.69 1120.46,4198.71 1120.46,4201.2C1120.46,4203.69 1122.48,4205.71 1124.97,4205.71C1127.46,4205.71 1129.48,4203.69 1129.48,4201.2C1129.48,4198.71 1127.46,4196.69 1124.97,4196.69"/>
            </g>
        </g>
        <g id="Flipper-Left1">
            <g id="Drill98">
                <path d="M584.9,2484.37C582.837,2482.97 580.038,2483.51 578.639,2485.56C577.237,2487.63 577.769,2490.42 579.832,2491.82C581.889,2493.22 584.691,2492.69 586.093,2490.63C587.492,2488.57 586.957,2485.77 584.9,2484.37"/>
            </g>
        </g>
        <g id="Flipper-Left2">
            <g id="Drill99">
                <path d="M723.595,2333.49C721.132,2333.88 719.467,2336.2 719.863,2338.65C720.259,2341.11 722.566,2342.78 725.029,2342.38C727.484,2341.99 729.158,2339.68 728.762,2337.22C728.366,2334.76 726.051,2333.09 723.595,2333.49"/>
            </g>
        </g>
        <g id="O-Target-Narrow">
            <g id="Drill100">
                <path d="M403.197,2771.69C396.961,2768.84 389.584,2771.59 386.734,2777.82L372.401,2809.19C369.551,2815.42 372.3,2822.8 378.537,2825.65L407.219,2838.76C413.455,2841.61 420.832,2838.86 423.682,2832.62L438.015,2801.26C440.865,2795.02 438.116,2787.64 431.879,2784.79L403.197,2771.69Z"/>
                <path d="M450.824,2849.15C449.795,2851.42 450.8,2854.09 453.067,2855.12C455.33,2856.15 458.004,2855.14 459.033,2852.87C460.059,2850.61 459.058,2847.94 456.791,2846.91C454.531,2845.88 451.854,2846.88 450.824,2849.15"/>
                <path d="M468.228,2811.07C467.199,2813.33 468.204,2816 470.471,2817.03C472.734,2818.07 475.408,2817.05 476.437,2814.79C477.463,2812.53 476.462,2809.85 474.195,2808.82C471.935,2807.8 469.257,2808.8 468.228,2811.07"/>
            </g>
        </g>
        <g id="O-Target-Narrow1">
            <g id="Drill101">
                <path d="M1936.31,1701.66C1939.71,1695.71 1937.63,1688.11 1931.68,1684.71L1901.73,1667.62C1895.77,1664.22 1888.18,1666.3 1884.78,1672.25L1869.15,1699.64C1865.75,1705.59 1867.83,1713.19 1873.78,1716.59L1903.73,1733.68C1909.68,1737.08 1917.28,1735 1920.68,1729.05L1936.31,1701.66Z"/>
                <path d="M1854.88,1742.13C1852.71,1740.9 1849.96,1741.66 1848.73,1743.83C1847.5,1745.99 1848.27,1748.75 1850.43,1749.97C1852.59,1751.2 1855.35,1750.44 1856.58,1748.28C1857.8,1746.12 1857.04,1743.36 1854.88,1742.13"/>
                <path d="M1891.25,1762.89C1889.08,1761.66 1886.33,1762.42 1885.1,1764.59C1883.87,1766.75 1884.63,1769.5 1886.8,1770.73C1888.96,1771.95 1891.71,1771.2 1892.94,1769.03C1894.17,1766.88 1893.41,1764.12 1891.25,1762.89"/>
            </g>
        </g>
        <g id="O-Target-Narrow2">
            <g id="Drill102">
                <path d="M570.446,2537.4C566.588,2531.73 558.854,2530.26 553.186,2534.12L524.678,2553.52C519.01,2557.38 517.54,2565.11 521.398,2570.78L539.141,2596.85C542.999,2602.52 550.734,2603.99 556.402,2600.13L584.91,2580.73C590.578,2576.87 592.048,2569.13 588.19,2563.47L570.446,2537.4Z"/>
                <path d="M571.055,2628.33C569.001,2629.73 568.477,2632.54 569.883,2634.59C571.282,2636.65 574.093,2637.17 576.148,2635.77C578.196,2634.36 578.726,2631.56 577.321,2629.5C575.919,2627.45 573.11,2626.92 571.055,2628.33"/>
                <path d="M605.672,2604.77C603.617,2606.17 603.093,2608.98 604.499,2611.03C605.898,2613.09 608.709,2613.61 610.764,2612.21C612.812,2610.8 613.343,2607.99 611.937,2605.94C610.535,2603.89 607.726,2603.36 605.672,2604.77"/>
            </g>
        </g>
        <g id="O-Target-Narrow3">
            <g id="Drill103">
                <path d="M527.299,1302.11C525.312,1295.55 518.371,1291.83 511.809,1293.82L478.803,1303.81C472.241,1305.8 468.525,1312.74 470.512,1319.3L479.647,1349.48C481.634,1356.05 488.575,1359.76 495.137,1357.78L528.143,1347.79C534.706,1345.8 538.421,1338.86 536.434,1332.3L527.299,1302.11Z"/>
                <path d="M500.688,1389.07C498.307,1389.79 496.968,1392.31 497.695,1394.69C498.415,1397.08 500.942,1398.41 503.323,1397.69C505.696,1396.96 507.042,1394.44 506.315,1392.06C505.59,1389.68 503.069,1388.34 500.688,1389.07"/>
                <path d="M540.765,1376.93C538.384,1377.66 537.045,1380.18 537.773,1382.56C538.492,1384.95 541.019,1386.28 543.4,1385.56C545.774,1384.83 547.12,1382.31 546.393,1379.93C545.668,1377.55 543.146,1376.21 540.765,1376.93"/>
            </g>
        </g>
        <g id="Round-Hole-Small-w-PlasHole">
            <g id="Drill104">
                <circle cx="2535.99" cy="2523.16" r="5.94" style="fill-opacity:0.853255;"/>
            </g>
        </g>
        <g id="Spinner">
            <g id="Drill105">
                <path d="M2127.62,1900.95C2128.72,1898.71 2127.8,1896.01 2125.57,1894.91C2123.34,1893.8 2120.64,1894.72 2119.53,1896.95C2118.43,1899.18 2119.34,1901.88 2121.58,1902.99C2123.8,1904.09 2126.5,1903.17 2127.62,1900.95" style="stroke:black;stroke-width:0.74px;stroke-linecap:round;stroke-miterlimit:10;"/>
                <path d="M2137.84,1853.84C2138.94,1851.6 2138.03,1848.9 2135.8,1847.8C2133.57,1846.69 2130.86,1847.61 2129.76,1849.84C2128.66,1852.07 2129.57,1854.77 2131.8,1855.88C2134.03,1856.99 2136.73,1856.07 2137.84,1853.84" style="stroke:black;stroke-width:0.74px;stroke-linecap:round;stroke-miterlimit:10;"/>
            </g>
        </g>
        <g id="Spinner1">
            <g id="Drill106">
                <path d="M1968.76,1472.31C1970.42,1470.45 1970.25,1467.61 1968.39,1465.95C1966.54,1464.29 1963.68,1464.46 1962.03,1466.32C1960.37,1468.18 1960.54,1471.02 1962.4,1472.68C1964.25,1474.34 1967.1,1474.17 1968.76,1472.31" style="stroke:black;stroke-width:0.74px;stroke-linecap:round;stroke-miterlimit:10;"/>
                <path d="M1991.11,1429.6C1992.76,1427.74 1992.6,1424.89 1990.73,1423.24C1988.88,1421.58 1986.03,1421.75 1984.37,1423.61C1982.72,1425.46 1982.88,1428.31 1984.74,1429.97C1986.6,1431.62 1989.44,1431.45 1991.11,1429.6" style="stroke:black;stroke-width:0.74px;stroke-linecap:round;stroke-miterlimit:10;"/>
            </g>
        </g>
        <g id="T.-6-Post-Narrow21">
            <g id="Drill107">
                <path d="M1309.74,1057.7C1303.49,1046.52 1286.72,1055.9 1292.98,1067.07C1299.22,1078.25 1315.99,1068.87 1309.74,1057.7Z"/>
            </g>
        </g>
        <g id="T.-6-Post-Narrow22">
            <g id="Drill108">
                <path d="M1369.19,1136.88C1362.95,1125.7 1346.18,1135.09 1352.44,1146.25C1358.68,1157.43 1375.45,1148.05 1369.19,1136.88Z"/>
            </g>
        </g>
        <g id="Spinner2">
            <g id="Drill109">
                <path d="M318.247,1746.49C318.385,1748.98 320.519,1750.87 323.006,1750.73C325.491,1750.59 327.39,1748.45 327.246,1745.97C327.105,1743.49 324.978,1741.59 322.487,1741.73C320.006,1741.87 318.112,1744 318.247,1746.49" style="stroke:black;stroke-width:0.74px;stroke-linecap:round;stroke-miterlimit:10;"/>
                <path d="M332.624,1792.5C332.769,1794.99 334.896,1796.88 337.383,1796.74C339.868,1796.6 341.768,1794.47 341.623,1791.98C341.483,1789.5 339.355,1787.6 336.864,1787.74C334.383,1787.88 332.49,1790.01 332.624,1792.5" style="stroke:black;stroke-width:0.74px;stroke-linecap:round;stroke-miterlimit:10;"/>
            </g>
        </g>
        <g id="M.-Shape11">
            <g id="Drill110">
                <path d="M1469.98,1498.9C1472.96,1500.27 1474.27,1503.8 1472.9,1506.78C1471.53,1509.76 1468,1511.07 1465.02,1509.7C1462.04,1508.33 1460.74,1504.8 1462.1,1501.82C1463.47,1498.85 1467,1497.54 1469.98,1498.9Z"/>
                <path d="M1530.06,1367.91C1533.04,1369.28 1534.35,1372.81 1532.99,1375.79C1531.62,1378.77 1528.09,1380.08 1525.11,1378.71C1522.13,1377.34 1520.82,1373.82 1522.19,1370.84C1523.55,1367.86 1527.08,1366.55 1530.06,1367.91Z"/>
            </g>
        </g>
        <g id="M.-Shape12">
            <g id="Drill111">
                <path d="M1578.24,1551.56C1581.22,1552.92 1582.53,1556.45 1581.16,1559.43C1579.79,1562.41 1576.26,1563.72 1573.29,1562.35C1570.31,1560.99 1569,1557.46 1570.36,1554.48C1571.73,1551.5 1575.26,1550.19 1578.24,1551.56Z"/>
                <path d="M1638.32,1420.57C1641.3,1421.93 1642.61,1425.46 1641.25,1428.44C1639.88,1431.42 1636.35,1432.73 1633.37,1431.36C1630.39,1430 1629.08,1426.47 1630.45,1423.49C1631.81,1420.51 1635.34,1419.2 1638.32,1420.57Z"/>
            </g>
        </g>
        <g id="Captive-Ball1">
            <g id="Drill112">
                <path d="M1476.49,1524C1481.31,1526.21 1483.43,1531.92 1481.22,1536.73C1479.01,1541.55 1473.3,1543.66 1468.49,1541.45C1463.67,1539.25 1461.56,1533.54 1463.77,1528.73C1465.98,1523.91 1471.68,1521.8 1476.49,1524Z"/>
                <path d="M1553.28,1559.23C1548.46,1557.02 1542.76,1559.14 1540.55,1563.95C1538.34,1568.77 1540.46,1574.47 1545.27,1576.68C1550.09,1578.89 1555.79,1576.78 1558,1571.96C1560.21,1567.14 1558.1,1561.44 1553.28,1559.23Z"/>
                <path d="M1486.67,1603.13C1481.85,1600.92 1476.15,1603.04 1473.94,1607.86C1471.73,1612.67 1473.84,1618.38 1478.66,1620.58C1483.48,1622.79 1489.18,1620.68 1491.39,1615.86C1493.6,1611.05 1491.48,1605.34 1486.67,1603.13Z"/>
            </g>
        </g>
        <g id="O-Target-Narrow4">
            <g id="Drill113">
                <path d="M1623.77,1376.02C1626.63,1369.78 1623.89,1362.4 1617.65,1359.54L1586.31,1345.16C1580.08,1342.31 1572.7,1345.04 1569.84,1351.28L1556.69,1379.94C1553.83,1386.17 1556.57,1393.55 1562.8,1396.41L1594.14,1410.79C1600.38,1413.65 1607.76,1410.91 1610.62,1404.68L1623.77,1376.02Z"/>
                <path d="M1546.23,1423.53C1543.97,1422.5 1541.3,1423.5 1540.26,1425.76C1539.22,1428.02 1540.23,1430.7 1542.5,1431.73C1544.75,1432.76 1547.43,1431.76 1548.47,1429.5C1549.5,1427.24 1548.5,1424.56 1546.23,1423.53"/>
                <path d="M1584.29,1440.99C1582.03,1439.96 1579.35,1440.96 1578.32,1443.22C1577.28,1445.48 1578.29,1448.16 1580.56,1449.19C1582.81,1450.22 1585.49,1449.22 1586.53,1446.96C1587.55,1444.7 1586.56,1442.02 1584.29,1440.99"/>
            </g>
        </g>
        <g id="T.-6-Post-Narrow23">
            <g id="Drill114">
                <path d="M1702.08,803.402C1698.72,791.051 1680.18,796.102 1683.56,808.45C1686.91,820.803 1705.45,815.75 1702.08,803.402Z"/>
            </g>
        </g>
        <g id="O-Target-Norm1">
            <g id="Drill115">
                <path d="M2475.5,1750.52C2473.34,1749.27 2470.59,1750.01 2469.34,1752.16C2468.09,1754.31 2468.84,1757.07 2470.99,1758.32C2473.14,1759.56 2475.9,1758.83 2477.15,1756.67C2478.39,1754.52 2477.66,1751.76 2475.5,1750.52"/>
                <path d="M2511.7,1771.56C2509.54,1770.32 2506.79,1771.05 2505.54,1773.21C2504.29,1775.36 2505.03,1778.12 2507.19,1779.37C2509.34,1780.61 2512.1,1779.87 2513.35,1777.72C2514.59,1775.57 2513.85,1772.81 2511.7,1771.56"/>
                <path d="M2577.99,1722.76C2581.44,1716.83 2579.43,1709.22 2573.5,1705.77L2502.2,1664.32C2496.27,1660.87 2488.66,1662.89 2485.22,1668.81L2469.37,1696.08C2465.92,1702 2467.93,1709.61 2473.86,1713.06L2545.16,1754.51C2551.09,1757.96 2558.7,1755.94 2562.14,1750.02L2577.99,1722.76Z"/>
            </g>
        </g>
        <g id="T.-6-Post-Narrow24">
            <g id="Drill116">
                <path d="M1623.95,709.078C1620.6,696.726 1602.06,701.777 1605.43,714.125C1608.78,726.479 1627.33,721.426 1623.95,709.078Z"/>
            </g>
        </g>
        <g id="O-Target-Narrow5">
            <g id="Drill117">
                <path d="M1348.27,1299.34C1351.82,1293.47 1349.95,1285.83 1344.09,1282.27L1314.6,1264.39C1308.74,1260.83 1301.09,1262.7 1297.54,1268.57L1281.18,1295.53C1277.63,1301.39 1279.5,1309.04 1285.36,1312.6L1314.85,1330.48C1320.71,1334.03 1328.36,1332.16 1331.91,1326.3L1348.27,1299.34Z"/>
                <path d="M1265.79,1337.63C1263.66,1336.35 1260.89,1337.03 1259.6,1339.16C1258.31,1341.29 1259,1344.07 1261.13,1345.35C1263.26,1346.63 1266.04,1345.95 1267.32,1343.82C1268.6,1341.69 1267.92,1338.92 1265.79,1337.63"/>
                <path d="M1301.59,1359.35C1299.46,1358.06 1296.69,1358.75 1295.4,1360.88C1294.11,1363.01 1294.81,1365.78 1296.94,1367.07C1299.06,1368.35 1301.84,1367.66 1303.12,1365.53C1304.41,1363.41 1303.72,1360.63 1301.59,1359.35"/>
            </g>
        </g>
        <g id="Drop-No-KD">
            <g id="Drill118">
                <path d="M1181.67,1574.15C1180.3,1569.31 1175.25,1566.5 1170.41,1567.87L1072.97,1595.51C1068.13,1596.89 1065.31,1601.93 1066.69,1606.77L1074.73,1635.13C1076.11,1639.97 1081.15,1642.79 1085.99,1641.41L1183.43,1613.77C1188.28,1612.4 1191.09,1607.35 1189.72,1602.51L1181.67,1574.15Z"/>
                <path d="M1111.1,1808.03C1108.71,1808.71 1107.33,1811.21 1108.01,1813.6C1108.69,1816 1111.19,1817.38 1113.59,1816.69C1115.97,1816.01 1117.36,1813.51 1116.68,1811.12C1116,1808.73 1113.5,1807.34 1111.1,1808.03"/>
                <path d="M1249.64,1768.73C1247.24,1769.41 1245.86,1771.91 1246.55,1774.3C1247.23,1776.7 1249.73,1778.08 1252.12,1777.39C1254.51,1776.71 1255.9,1774.21 1255.21,1771.82C1254.53,1769.43 1252.03,1768.04 1249.64,1768.73"/>
                <path d="M1078.35,1692.58C1075.96,1693.27 1074.58,1695.77 1075.26,1698.16C1075.94,1700.55 1078.44,1701.93 1080.84,1701.25C1083.22,1700.57 1084.61,1698.07 1083.93,1695.67C1083.25,1693.29 1080.75,1691.9 1078.35,1692.58"/>
                <path d="M1216.89,1653.29C1214.49,1653.97 1213.11,1656.47 1213.8,1658.86C1214.48,1661.25 1216.98,1662.63 1219.37,1661.95C1221.76,1661.27 1223.15,1658.77 1222.46,1656.38C1221.78,1653.99 1219.28,1652.6 1216.89,1653.29"/>
            </g>
        </g>
        <g id="Drop-No-KD1">
            <g id="Drill119">
                <path d="M975.583,1748.68C974.211,1743.84 969.167,1741.03 964.328,1742.4L866.881,1770.05C862.042,1771.42 859.228,1776.46 860.601,1781.3L868.647,1809.67C870.02,1814.51 875.063,1817.32 879.903,1815.95L977.35,1788.3C982.189,1786.93 985.003,1781.89 983.63,1777.05L975.583,1748.68Z"/>
                <path d="M905.018,1982.56C902.624,1983.25 901.242,1985.74 901.927,1988.14C902.605,1990.53 905.108,1991.91 907.501,1991.23C909.887,1990.54 911.277,1988.05 910.592,1985.65C909.909,1983.27 907.411,1981.88 905.018,1982.56"/>
                <path d="M1043.55,1943.26C1041.16,1943.95 1039.78,1946.44 1040.46,1948.84C1041.14,1951.23 1043.64,1952.61 1046.04,1951.93C1048.42,1951.25 1049.81,1948.75 1049.13,1946.35C1048.44,1943.97 1045.94,1942.58 1043.55,1943.26"/>
                <path d="M872.268,1867.12C869.875,1867.8 868.492,1870.3 869.177,1872.69C869.855,1875.09 872.358,1876.47 874.752,1875.78C877.138,1875.1 878.528,1872.6 877.842,1870.21C877.159,1867.82 874.661,1866.43 872.268,1867.12"/>
                <path d="M1010.8,1827.82C1008.41,1828.5 1007.02,1831 1007.71,1833.39C1008.39,1835.79 1010.89,1837.17 1013.28,1836.48C1015.67,1835.8 1017.06,1833.3 1016.38,1830.91C1015.69,1828.52 1013.2,1827.13 1010.8,1827.82"/>
            </g>
        </g>
        <g id="Drop-No-KD2">
            <g id="Drill120">
                <path d="M769.489,1923.23C768.116,1918.39 763.073,1915.58 758.234,1916.95L660.787,1944.6C655.948,1945.97 653.133,1951.01 654.506,1955.85L662.553,1984.22C663.926,1989.06 668.969,1991.87 673.808,1990.5L771.255,1962.85C776.094,1961.48 778.908,1956.44 777.536,1951.6L769.489,1923.23Z"/>
                <path d="M698.923,2157.11C696.53,2157.8 695.147,2160.3 695.833,2162.69C696.511,2165.08 699.014,2166.47 701.407,2165.78C703.793,2165.1 705.183,2162.6 704.498,2160.2C703.814,2157.82 701.316,2156.43 698.923,2157.11"/>
                <path d="M837.457,2117.81C835.063,2118.5 833.681,2120.99 834.366,2123.39C835.044,2125.78 837.547,2127.16 839.941,2126.48C842.327,2125.8 843.717,2123.3 843.031,2120.91C842.348,2118.52 839.85,2117.13 837.457,2117.81"/>
                <path d="M666.173,2041.67C663.78,2042.36 662.397,2044.85 663.083,2047.24C663.761,2049.64 666.264,2051.02 668.657,2050.34C671.043,2049.65 672.433,2047.15 671.748,2044.76C671.064,2042.37 668.567,2040.98 666.173,2041.67"/>
                <path d="M804.707,2002.37C802.314,2003.06 800.931,2005.55 801.616,2007.94C802.294,2010.34 804.797,2011.72 807.191,2011.04C809.577,2010.35 810.967,2007.85 810.281,2005.46C809.598,2003.07 807.1,2001.68 804.707,2002.37"/>
            </g>
        </g>
    </g>
</svg>
