<?xml version="1.0" encoding="UTF-8" standalone="no"?>
<!DOCTYPE svg PUBLIC "-//W3C//DTD SVG 1.1//EN" "http://www.w3.org/Graphics/SVG/1.1/DTD/svg11.dtd">
<svg width="5882px" height="11466px" version="1.1" xmlns="http://www.w3.org/2000/svg" xmlns:xlink="http://www.w3.org/1999/xlink" xml:space="preserve" xmlns:serif="http://www.serif.com/" style="fill-rule:evenodd;clip-rule:evenodd;stroke-linecap:round;stroke-linejoin:round;stroke-miterlimit:10;">
    <g id="Ramp-Opening" serif:id="Ramp Opening">
        <g id="Drill-TODO--Group---Group-" serif:id="Drill TODO (Group) (Group)">
            <circle cx="2466.42" cy="6605.68" r="3" style="fill:rgb(52,94,242);"/>
            <circle cx="2576.28" cy="6605.68" r="3" style="fill:rgb(52,94,242);"/>
        </g>
    </g>
    <g id="Slide-Rail-Right" serif:id="Slide Rail Right">
        <g id="Drill">
            <circle cx="2027.37" cy="4946.32" r="5.25" style="fill:rgb(251,0,85);"/>
            <circle cx="2027.37" cy="5120.11" r="5.25" style="fill:rgb(251,0,85);"/>
            <circle cx="2027.37" cy="5294.28" r="5.25" style="fill:rgb(251,0,85);"/>
            <circle cx="2027.37" cy="5468.29" r="5.25" style="fill:rgb(251,0,85);"/>
            <circle cx="2027.37" cy="5642.38" r="5.25" style="fill:rgb(251,0,85);"/>
            <circle cx="2027.37" cy="5816.46" r="5.25" style="fill:rgb(251,0,85);"/>
            <circle cx="2027.37" cy="5990.47" r="5.25" style="fill:rgb(251,0,85);"/>
            <circle cx="2027.37" cy="6164.57" r="5.25" style="fill:rgb(251,0,85);"/>
            <circle cx="2027.37" cy="6338.24" r="5.25" style="fill:rgb(251,0,85);"/>
        </g>
    </g>
    <g id="Round-Hole-Small-w-PlasHole" serif:id="Round Hole Small w PlasHole">
        <g id="Drill1" serif:id="Drill">
            <circle cx="466.84" cy="8997.78" r="5.94" style="fill:rgb(52,94,242);fill-opacity:0.853255;"/>
        </g>
    </g>
    <g id="Arrow-Insert-Tailed" serif:id="Arrow Insert Tailed">
        <g id="Drill2" serif:id="Drill">
            <path id="_-Curve-" serif:id="(Curve)" d="M380.281,8612.45C375.509,8612.45 371.641,8616.32 371.641,8621.09C371.641,8626.53 371.641,8633.83 371.641,8640.78C371.641,8644.33 369.471,8647.52 366.17,8648.82C362.868,8650.12 359.107,8649.27 356.685,8646.68C342.216,8631.18 320.75,8608.19 308.643,8595.22C303.477,8589.69 303.477,8581.1 308.643,8575.57C320.75,8562.6 342.216,8539.61 356.685,8524.11C359.107,8521.51 362.868,8520.67 366.17,8521.97C369.471,8523.27 371.641,8526.46 371.641,8530C371.641,8536.96 371.641,8544.25 371.641,8549.7C371.641,8554.47 375.509,8558.34 380.281,8558.34C383.068,8558.34 386.236,8558.34 389.322,8558.34C393.142,8558.34 396.804,8559.85 399.505,8562.56C402.205,8565.26 403.722,8568.92 403.722,8572.74C403.722,8580.57 403.722,8590.22 403.722,8598.05C403.722,8601.87 402.205,8605.53 399.505,8608.23C396.804,8610.93 393.142,8612.45 389.322,8612.45C386.236,8612.45 383.068,8612.45 380.281,8612.45Z" style="fill-opacity:0.717647;"/>
        </g>
    </g>
    <g id="MAGNET">
        <g id="Drill3" serif:id="Drill">
            <circle cx="3023.41" cy="4937.63" r="5.25" style="fill:rgb(251,0,85);"/>
            <circle cx="3023.78" cy="5009.6" r="5.25" style="fill:rgb(251,0,85);"/>
            <circle cx="3366.09" cy="5009.45" r="5.25" style="fill:rgb(251,0,85);"/>
            <circle cx="3365.81" cy="4937.47" r="5.25" style="fill:rgb(251,0,85);"/>
            <path d="M3194.69,4941.13C3176.86,4941.13 3162.4,4955.59 3162.4,4973.43C3162.4,4991.27 3176.86,5005.73 3194.7,5005.72C3212.54,5005.73 3226.99,4991.26 3226.99,4973.42C3226.99,4955.59 3212.53,4941.13 3194.69,4941.13Z"/>
        </g>
    </g>
    <g id="Spinner">
        <g id="Drill4" serif:id="Drill">
            <circle cx="3675.05" cy="4924.11" r="5.25" style="fill:rgb(52,94,242);"/>
            <circle cx="3675.05" cy="4972.38" r="5.25" style="fill:rgb(52,94,242);"/>
        </g>
    </g>
    <g id="Flipper-Mech-Left" serif:id="Flipper Mech Left">
        <g id="Drill5" serif:id="Drill">
            <circle cx="3917.89" cy="4978.55" r="5.25" style="fill:rgb(251,0,85);"/>
            <circle cx="3961.47" cy="4962.42" r="5.25" style="fill:rgb(251,0,85);"/>
            <circle cx="4255.82" cy="4852.5" r="5.25" style="fill:rgb(251,0,85);"/>
            <circle cx="4299.54" cy="4836.12" r="5.25" style="fill:rgb(251,0,85);"/>
            <circle cx="4410.2" cy="5132.65" r="5.25" style="fill:rgb(251,0,85);"/>
            <circle cx="4366.51" cy="5149.15" r="5.25" style="fill:rgb(251,0,85);"/>
            <circle cx="4072.11" cy="5258.89" r="5.25" style="fill:rgb(251,0,85);"/>
            <circle cx="4028.48" cy="5275.12" r="5.25" style="fill:rgb(251,0,85);"/>
            <circle cx="4323.58" cy="5047.44" r="24"/>
        </g>
    </g>
    <g id="Flipper-Mech-Right" serif:id="Flipper Mech Right">
        <g id="Drill6" serif:id="Drill">
            <circle cx="3320.36" cy="5626.99" r="24"/>
            <circle cx="3180.71" cy="5467.03" r="5.25" style="fill:rgb(251,0,85);"/>
            <circle cx="3222.11" cy="5446.14" r="5.25" style="fill:rgb(251,0,85);"/>
            <circle cx="3501.03" cy="5302.75" r="5.25" style="fill:rgb(251,0,85);"/>
            <circle cx="3542.69" cy="5281.45" r="5.25" style="fill:rgb(251,0,85);"/>
            <circle cx="3685.93" cy="5562.92" r="5.25" style="fill:rgb(251,0,85);"/>
            <circle cx="3644.5" cy="5584.07" r="5.25" style="fill:rgb(251,0,85);"/>
            <circle cx="3365.49" cy="5726.67" r="5.25" style="fill:rgb(251,0,85);"/>
            <circle cx="3323.99" cy="5747.63" r="5.25" style="fill:rgb(251,0,85);"/>
        </g>
    </g>
    <g id="T-8">
        <path id="Drill7" serif:id="Drill" d="M3806.94,8210.29C3806.95,8195.9 3785.33,8195.9 3785.34,8210.29C3785.33,8224.69 3806.95,8224.7 3806.93,8210.3L3806.94,8210.29Z"/>
    </g>
    <g id="T-6-R-POST" serif:id="T-6 R POST">
        <g id="Drill8" serif:id="Drill">
            <path d="M3884.09,8212.35C3884.08,8224.83 3902.81,8224.83 3902.81,8212.35C3902.82,8199.87 3884.08,8199.87 3884.09,8212.35Z"/>
        </g>
    </g>
    <g id="M-Shape">
        <g id="Drill9" serif:id="Drill">
            <circle cx="4015.7" cy="8281.43" r="5.94" style="fill:rgb(52,94,242);"/>
            <circle cx="4015.7" cy="8137.32" r="5.94" style="fill:rgb(52,94,242);"/>
        </g>
    </g>
    <g id="T-8-R" serif:id="T-8 R">
        <path id="Drill10" serif:id="Drill" d="M3906.31,8316.6C3906.32,8302.21 3884.7,8302.21 3884.71,8316.6C3884.7,8331 3906.32,8331.01 3906.3,8316.61L3906.31,8316.6Z"/>
    </g>
    <g id="T-6-Post-Narrow" serif:id="T-6 Post Narrow">
        <g id="Drill11" serif:id="Drill">
            <path d="M3844.42,8388.05C3841.06,8375.7 3822.52,8380.75 3825.89,8393.1C3829.24,8405.45 3847.79,8400.4 3844.42,8388.05Z"/>
        </g>
    </g>
    <g id="Sling-Left" serif:id="Sling Left">
        <g id="Drill12" serif:id="Drill">
            <path d="M3511.61,6177.61C3506.89,6164.16 3492.14,6157.07 3478.68,6161.79L3403.25,6188.25C3389.8,6192.97 3382.71,6207.72 3387.43,6221.17C3392.15,6234.62 3406.9,6241.71 3420.35,6236.99L3495.78,6210.53C3509.24,6205.81 3516.33,6191.06 3511.61,6177.61Z"/>
            <path d="M3450.48,6081.06C3448.21,6074.61 3441.14,6071.22 3434.69,6073.49L3406.82,6083.29C3400.37,6085.56 3396.98,6092.63 3399.24,6099.07L3407.46,6122.43C3409.73,6128.88 3416.8,6132.27 3423.24,6130L3451.12,6120.2C3457.57,6117.93 3460.96,6110.86 3458.69,6104.41L3450.48,6081.06Z"/>
            <path d="M3515.89,6268.49C3513.53,6261.76 3506.15,6258.23 3499.43,6260.59L3473.04,6269.87C3466.32,6272.23 3462.78,6279.61 3465.15,6286.34L3473.72,6310.7C3476.08,6317.42 3483.46,6320.96 3490.18,6318.6L3516.57,6309.32C3523.29,6306.95 3526.83,6299.57 3524.46,6292.85L3515.89,6268.49Z"/>
            <circle cx="3492.91" cy="6097.76" r="5.25" style="fill:rgb(251,0,85);"/>
            <circle cx="3444.49" cy="6149.55" r="5.25" style="fill:rgb(251,0,85);"/>
            <circle cx="3546.5" cy="6250.6" r="5.25" style="fill:rgb(251,0,85);"/>
        </g>
    </g>
    <g id="Sling-Right" serif:id="Sling Right">
        <g id="Drill13" serif:id="Drill">
            <path d="M4020.66,6066.28C4025.38,6052.83 4040.13,6045.74 4053.58,6050.46L4127.46,6076.37C4140.91,6081.09 4148,6095.84 4143.28,6109.29C4138.56,6122.74 4123.81,6129.84 4110.36,6125.12L4036.48,6099.2C4023.03,6094.48 4015.94,6079.73 4020.66,6066.28Z"/>
            <path d="M4081.47,5969.61C4083.74,5963.17 4090.81,5959.78 4097.26,5962.04L4123.89,5971.41C4130.34,5973.68 4133.73,5980.75 4131.46,5987.2L4123.25,6010.55C4120.98,6017 4113.91,6020.39 4107.47,6018.12L4080.83,6008.76C4074.38,6006.49 4070.99,5999.42 4073.26,5992.97L4081.47,5969.61Z"/>
            <path d="M4015.3,6156.78C4017.66,6150.06 4025.04,6146.52 4031.77,6148.88L4057.67,6157.99C4064.39,6160.36 4067.93,6167.74 4065.56,6174.46L4056.99,6198.82C4054.63,6205.54 4047.25,6209.08 4040.53,6206.72L4014.63,6197.61C4007.91,6195.24 4004.37,6187.87 4006.73,6181.14L4015.3,6156.78Z"/>
            <circle cx="4037.95" cy="5985.82" r="5.25" style="fill:rgb(251,0,85);"/>
            <circle cx="3984.32" cy="6138.65" r="5.25" style="fill:rgb(251,0,85);"/>
            <circle cx="4054.5" cy="6128.44" r="5.25" style="fill:rgb(251,0,85);"/>
        </g>
    </g>
    <g id="Switch-w-Outline" serif:id="Switch w/Outline">
        <g id="Drill14" serif:id="Drill">
            <path d="M4342.12,5991.56C4342.12,5986.58 4338.08,5982.54 4333.1,5982.54C4328.12,5982.54 4324.08,5986.58 4324.08,5991.56L4324.08,6135.64C4324.08,6140.62 4328.12,6144.66 4333.1,6144.66C4338.08,6144.66 4342.12,6140.62 4342.12,6135.64L4342.12,5991.56Z"/>
            <circle cx="4291.76" cy="6189.9" r="5.25" style="fill:rgb(251,0,85);"/>
            <circle cx="4291.73" cy="6226" r="5.25" style="fill:rgb(251,0,85);"/>
        </g>
    </g>
    <g id="O-Target-Narrow" serif:id="O Target Narrow">
        <g id="Drill15" serif:id="Drill">
            <path d="M3531.37,6476.83C3531.37,6469.97 3525.81,6464.4 3518.95,6464.4L3484.46,6464.4C3477.61,6464.4 3472.04,6469.97 3472.04,6476.83L3472.04,6508.36C3472.04,6515.22 3477.61,6520.79 3484.46,6520.79L3518.95,6520.79C3525.81,6520.79 3531.37,6515.22 3531.37,6508.36L3531.37,6476.83Z"/>
            <circle cx="3480.89" cy="6556.87" r="5.25" style="fill:rgb(251,0,85);"/>
            <circle cx="3522.93" cy="6556.75" r="5.25" style="fill:rgb(251,0,85);"/>
        </g>
    </g>
    <g id="O-Target-Norm" serif:id="O Target Norm">
        <g id="Drill16" serif:id="Drill">
            <circle cx="3622.48" cy="6555.65" r="5.25" style="fill:rgb(251,0,85);"/>
            <circle cx="3664.52" cy="6555.53" r="5.25" style="fill:rgb(251,0,85);"/>
            <path d="M3697.13,6475.8C3697.13,6468.94 3691.56,6463.37 3684.71,6463.37L3602.23,6463.37C3595.38,6463.37 3589.81,6468.94 3589.81,6475.8L3589.81,6507.33C3589.81,6514.19 3595.38,6519.76 3602.23,6519.76L3684.71,6519.76C3691.56,6519.76 3697.13,6514.19 3697.13,6507.33L3697.13,6475.8Z"/>
        </g>
    </g>
    <g id="O-Target-Wide" serif:id="O Target Wide">
        <g id="Drill17" serif:id="Drill">
            <path d="M3909.22,6478.74C3909.22,6471.89 3903.65,6466.32 3896.79,6466.32L3758.81,6466.32C3751.95,6466.32 3746.39,6471.89 3746.39,6478.74L3746.39,6510.28C3746.39,6517.14 3751.95,6522.7 3758.81,6522.7L3896.79,6522.7C3903.65,6522.7 3909.22,6517.14 3909.22,6510.28L3909.22,6478.74Z"/>
            <circle cx="3806.78" cy="6558.7" r="5.25" style="fill:rgb(251,0,85);"/>
            <circle cx="3848.83" cy="6558.58" r="5.25" style="fill:rgb(251,0,85);"/>
        </g>
    </g>
    <g id="_30-deg-Eject" serif:id="30 deg Eject">
        <g id="Drill18" serif:id="Drill">
            <path d="M3545.5,6870.92L3536.69,6912.1C3535.8,6916.37 3537.35,6920.95 3540.72,6923.78C3542.19,6925.02 3544.07,6925.92 3545.93,6926.32L3604.58,6938.88C3608.85,6939.77 3613.46,6938.24 3616.29,6934.86C3617.53,6933.39 3618.42,6931.51 3618.82,6929.64L3631.39,6870.97C3632.28,6866.7 3630.74,6862.12 3627.36,6859.29C3625.89,6858.05 3624.01,6857.15 3622.15,6856.75L3582,6848.15C3580.13,6847.75 3578.28,6846.85 3576.81,6845.61C3575.91,6844.86 3575.06,6843.91 3574.45,6842.96L3568.38,6833.59L3547.71,6801.77C3546.79,6800.36 3545.52,6798.9 3544.17,6797.78C3536.57,6791.41 3525.18,6792.42 3518.82,6800.02C3513.77,6806.06 3513.2,6814.84 3517.51,6821.4L3538.19,6853.2L3543.84,6861.88C3545.6,6864.52 3546.19,6867.83 3545.5,6870.92Z"/>
            <circle cx="3393.29" cy="6773.35" r="5.25" style="fill:rgb(251,0,85);"/>
            <circle cx="3425.9" cy="6823.63" r="5.25" style="fill:rgb(251,0,85);"/>
        </g>
    </g>
    <g id="Eject-Switch" serif:id="Eject Switch">
        <g id="Drill19" serif:id="Drill">
            <circle cx="3801.72" cy="6764.71" r="5.25" style="fill:rgb(251,0,85);"/>
            <circle cx="3821.95" cy="6794.55" r="5.25" style="fill:rgb(251,0,85);"/>
        </g>
    </g>
    <g id="Round-Hole" serif:id="Round Hole">
        <g id="Drill20" serif:id="Drill">
            <circle cx="4131.3" cy="8036.11" r="5.94" style="fill:rgb(52,94,242);"/>
        </g>
    </g>
    <g id="Round-Hole-Small" serif:id="Round Hole Small">
        <g id="Drill21" serif:id="Drill">
            <circle cx="4197.24" cy="8037.75" r="5.94" style="fill:rgb(52,94,242);"/>
        </g>
    </g>
    <g id="Deflector--w-Sleeve--2-500-5788-02" serif:id="Deflector, w/Sleeve #2 500-5788-02">
        <g id="Drill22" serif:id="Drill">
            <circle cx="4050.48" cy="6891.01" r="5.25" style="fill:rgb(251,0,85);"/>
            <circle cx="4050.35" cy="6711.75" r="5.25" style="fill:rgb(251,0,85);"/>
            <circle cx="3990.33" cy="6891.07" r="5.25" style="fill:rgb(251,0,85);"/>
            <circle cx="3990.51" cy="6711.64" r="5.25" style="fill:rgb(251,0,85);"/>
            <path d="M3995.75,6785.68C3974.7,6810.45 4011.91,6842.03 4032.93,6817.23C4053.98,6792.46 4016.77,6760.88 3995.75,6785.68Z" style="fill-rule:nonzero;"/>
        </g>
    </g>
    <g id="Pop-Bumper-Spoon" serif:id="Pop Bumper Spoon">
        <g id="Drill23" serif:id="Drill">
            <circle cx="3540.96" cy="7115.41" r="5.25" style="fill:rgb(251,0,85);"/>
            <circle cx="3576.88" cy="7115.4" r="5.25" style="fill:rgb(251,0,85);"/>
        </g>
    </g>
    <g id="Pop-Bumper" serif:id="Pop Bumper">
        <g id="Drill24" serif:id="Drill">
            <path d="M3861.25,7050.47C3853.22,7054.44 3859.18,7066.49 3867.2,7062.51C3875.23,7058.55 3869.27,7046.5 3861.25,7050.47L3861.25,7050.47Z"/>
            <path d="M3768.42,7126.15C3760.39,7130.12 3766.35,7142.17 3774.38,7138.2C3782.4,7134.23 3776.44,7122.18 3768.42,7126.16L3768.42,7126.15Z"/>
            <path d="M3810.05,7238.46C3802.03,7242.42 3807.98,7254.47 3816.01,7250.5C3824.03,7246.53 3818.08,7234.49 3810.06,7238.47L3810.05,7238.46Z"/>
            <path d="M3878.37,7229.61C3884.59,7206.45 3849.79,7197.12 3843.6,7220.31C3837.38,7243.48 3872.18,7252.8 3878.37,7229.61Z"/>
            <path d="M3912.49,7102.12C3918.72,7078.95 3883.91,7069.64 3877.72,7092.82C3871.5,7115.99 3906.3,7125.31 3912.49,7102.12Z"/>
            <path d="M3863.59,7190C3863.59,7190 3867.64,7191.81 3869.71,7192.36C3886.86,7196.95 3904.6,7186.7 3909.19,7169.55C3909.74,7167.49 3910.27,7163.09 3910.27,7163.09C3915.68,7161.12 3919.9,7156.5 3921.4,7150.87C3923.97,7141.29 3918.25,7131.39 3908.67,7128.83C3903.04,7127.32 3896.91,7128.73 3892.5,7132.43C3892.5,7132.43 3888.45,7130.63 3886.39,7130.07C3869.23,7125.48 3851.49,7135.73 3846.91,7152.88C3846.35,7154.94 3845.82,7159.34 3845.82,7159.34C3840.42,7161.32 3836.2,7165.93 3834.69,7171.57C3832.12,7181.14 3837.85,7191.04 3847.42,7193.61C3853.06,7195.11 3859.18,7193.7 3863.59,7190Z"/>
            <path d="M3858.06,7120.89C3855.66,7120.24 3853.19,7121.67 3852.54,7124.07C3851.89,7126.47 3853.32,7128.95 3855.72,7129.59C3858.13,7130.24 3860.59,7128.82 3861.25,7126.41C3861.89,7124.01 3860.47,7121.53 3858.06,7120.89"/>
            <path d="M3899.82,7193.48C3897.41,7192.83 3894.94,7194.26 3894.29,7196.66C3893.65,7199.06 3895.07,7201.54 3897.47,7202.18C3899.88,7202.82 3902.34,7201.4 3903,7199C3903.64,7196.6 3902.22,7194.12 3899.82,7193.48"/>
        </g>
    </g>
    <g id="Scoop">
        <g id="Drill25" serif:id="Drill">
            <circle cx="4430.64" cy="6814.72" r="5.25" style="fill:rgb(251,0,85);"/>
            <path d="M4293.28,6922.44C4293.28,6925.34 4290.93,6927.69 4288.03,6927.69C4285.13,6927.69 4282.78,6925.34 4282.78,6922.44C4282.78,6919.54 4285.13,6917.19 4288.03,6917.19C4290.93,6917.19 4293.28,6919.54 4293.28,6922.44Z" style="fill:rgb(251,0,85);"/>
            <path d="M4358.71,6748.23C4358.71,6745.66 4356.62,6743.58 4354.06,6743.58L4222.23,6743.58C4219.67,6743.58 4217.59,6745.66 4217.59,6748.23L4217.59,6875.25C4217.59,6877.82 4219.67,6879.9 4222.23,6879.9L4354.06,6879.9C4356.62,6879.9 4358.71,6877.82 4358.71,6875.25L4358.71,6748.23Z"/>
            <circle cx="4145.71" cy="6814.72" r="5.25" style="fill:rgb(251,0,85);"/>
        </g>
    </g>
    <g id="Hanger">
        <g id="T-81" serif:id="T-8">
            <path id="Drill26" serif:id="Drill" d="M4179.19,7165.24C4179.2,7150.84 4157.59,7150.84 4157.59,7165.24C4157.58,7179.64 4179.2,7179.64 4179.19,7165.25L4179.19,7165.24Z"/>
        </g>
        <g id="T-8-R1" serif:id="T-8 R">
            <path id="Drill27" serif:id="Drill" d="M4179.2,7069.25C4179.21,7054.85 4157.59,7054.85 4157.6,7069.25C4157.59,7083.64 4179.21,7083.65 4179.19,7069.25L4179.2,7069.25Z"/>
        </g>
    </g>
    <g id="Trough">
        <g id="Drill28" serif:id="Drill">
            <path d="M4535.81,7412.01C4532.51,7406.3 4525.2,7404.35 4519.5,7407.64L3734.29,7861.2C3728.58,7864.5 3726.62,7871.81 3729.92,7877.52L3787.99,7978.04C3791.28,7983.74 3798.59,7985.7 3804.3,7982.41L4589.51,7528.84C4595.21,7525.55 4597.17,7518.24 4593.88,7512.53L4535.81,7412.01Z" style="fill-opacity:0.756863;"/>
            <circle cx="4418" cy="7383.3" r="5.25" style="fill:rgb(251,0,85);"/>
            <circle cx="4559.39" cy="7629.74" r="5.25" style="fill:rgb(251,0,85);"/>
            <circle cx="4414.62" cy="7665.98" r="5.25" style="fill:rgb(251,0,85);"/>
            <circle cx="4223.57" cy="7776.47" r="5.25" style="fill:rgb(251,0,85);"/>
            <circle cx="3903.3" cy="7961.49" r="5.25" style="fill:rgb(251,0,85);"/>
            <circle cx="3801.91" cy="7786.01" r="5.25" style="fill:rgb(251,0,85);"/>
            <circle cx="4122.23" cy="7601.01" r="5.25" style="fill:rgb(251,0,85);"/>
            <circle cx="4313.3" cy="7490.5" r="5.25" style="fill:rgb(251,0,85);"/>
            <path d="M4320.76,7719.72C4320.69,7717.22 4318.63,7715.26 4316.14,7715.33C4313.65,7715.4 4311.68,7717.46 4311.75,7719.96C4311.82,7722.45 4313.89,7724.41 4316.38,7724.34C4318.87,7724.28 4320.83,7722.21 4320.76,7719.72" style="fill:rgb(52,94,242);"/>
            <circle cx="4490.71" cy="7400.92" r="5.25" style="fill:rgb(52,94,242);"/>
            <circle cx="4580.89" cy="7555.97" r="5.25" style="fill:rgb(52,94,242);"/>
            <circle cx="4440.35" cy="7648.48" r="5.25" style="fill:rgb(52,94,242);"/>
            <circle cx="4316.46" cy="7719.91" r="5.25" style="fill:rgb(52,94,242);"/>
            <circle cx="4053.01" cy="7872.09" r="5.25" style="fill:rgb(52,94,242);"/>
            <circle cx="3946.96" cy="7932.53" r="5.25" style="fill:rgb(52,94,242);"/>
            <circle cx="3527" cy="7766.47" r="5.25" style="fill:rgb(52,94,242);"/>
            <circle cx="3500.89" cy="7748.32" r="5.25" style="fill:rgb(52,94,242);"/>
        </g>
    </g>
    <g id="Shooter-Switch" serif:id="Shooter Switch">
        <g id="Drill29" serif:id="Drill">
            <circle cx="4753.63" cy="7406.56" r="5.25" style="fill:rgb(251,0,85);"/>
            <circle cx="4753.63" cy="7442.65" r="5.25" style="fill:rgb(251,0,85);"/>
        </g>
    </g>
    <g id="Launcher">
        <g id="Drill30" serif:id="Drill">
            <circle cx="4698.45" cy="6928.68" r="5.25" style="fill:rgb(251,0,85);"/>
            <circle cx="4812.32" cy="7300.65" r="5.25" style="fill:rgb(251,0,85);"/>
            <circle cx="4824.48" cy="7337.02" r="5.25" style="fill:rgb(251,0,85);"/>
            <circle cx="4812.29" cy="7180.27" r="5.25" style="fill:rgb(251,0,85);"/>
            <circle cx="4824.44" cy="7144.19" r="5.25" style="fill:rgb(251,0,85);"/>
            <circle cx="4804.18" cy="7029.63" r="5.25" style="fill:rgb(251,0,85);"/>
            <circle cx="4824.95" cy="6928.68" r="5.25" style="fill:rgb(251,0,85);"/>
            <circle cx="4698.45" cy="6964.63" r="5.25" style="fill:rgb(251,0,85);"/>
            <circle cx="4824.95" cy="6964.73" r="5.25" style="fill:rgb(251,0,85);"/>
        </g>
    </g>
    <g id="Captive-Ball" serif:id="Captive Ball">
        <g id="Drill31" serif:id="Drill">
            <circle cx="4707.56" cy="6693.2" r="9.6"/>
            <circle cx="4792.04" cy="6693.2" r="9.6"/>
            <circle cx="4749.8" cy="6760.88" r="9.6"/>
        </g>
    </g>
    <g id="Adj-Post-Chan" serif:id="Adj Post Chan">
        <g id="Drill32" serif:id="Drill">
            <path d="M3609.41,7465.27C3612,7463.87 3614.96,7463.08 3618.1,7463.08C3621.24,7463.08 3624.2,7463.87 3626.79,7465.27L3626.79,7497.46C3624.2,7498.86 3621.24,7499.65 3618.1,7499.65C3614.96,7499.65 3612,7498.86 3609.41,7497.46L3609.41,7465.27Z"/>
        </g>
    </g>
    <g id="T-6-R-PlasMet-POST" serif:id="T-6 R PlasMet POST">
        <g id="Drill33" serif:id="Drill">
            <path d="M3675.9,8269.75C3675.89,8282.23 3694.62,8282.23 3694.62,8269.75C3694.63,8257.27 3675.89,8257.27 3675.9,8269.75Z"/>
        </g>
    </g>
    <g id="Round-Hole-Small-w-PlasHole1" serif:id="Round Hole Small w PlasHole">
        <g id="Drill34" serif:id="Drill">
            <circle cx="4266.79" cy="8094.23" r="5.94" style="fill:rgb(52,94,242);fill-opacity:0.853255;"/>
        </g>
    </g>
    <g id="Drop-No-KD" serif:id="Drop No KD">
        <g id="Drill35" serif:id="Drill">
            <path d="M4799.57,6287.97C4799.57,6282.94 4795.49,6278.86 4790.46,6278.86L4689.17,6278.86C4684.14,6278.86 4680.05,6282.94 4680.05,6287.97L4680.05,6317.45C4680.05,6322.48 4684.14,6326.57 4689.17,6326.57L4790.46,6326.57C4795.49,6326.57 4799.57,6322.48 4799.57,6317.45L4799.57,6287.97Z"/>
            <circle cx="4667.74" cy="6497.9" r="5.25" style="fill:rgb(251,0,85);"/>
            <circle cx="4811.73" cy="6497.97" r="5.25" style="fill:rgb(251,0,85);"/>
            <circle cx="4811.93" cy="6378.21" r="5.25" style="fill:rgb(251,0,85);"/>
            <circle cx="4667.96" cy="6378.37" r="5.25" style="fill:rgb(251,0,85);"/>
        </g>
    </g>
    <g id="Switch-Plain" serif:id="Switch Plain">
        <g id="Drill36" serif:id="Drill">
            <path d="M4452.33,6258.95C4452.33,6263.93 4456.37,6267.97 4461.35,6267.97C4466.33,6267.97 4470.37,6263.93 4470.37,6258.95L4470.37,6114.87C4470.37,6109.89 4466.33,6105.85 4461.35,6105.85C4456.37,6105.85 4452.33,6109.89 4452.33,6114.87L4452.33,6258.95Z"/>
            <circle cx="4502.77" cy="6024.47" r="5.25" style="fill:rgb(251,0,85);"/>
            <circle cx="4502.78" cy="6060.65" r="5.25" style="fill:rgb(251,0,85);"/>
        </g>
    </g>
    <g id="Slide-Rail-Left" serif:id="Slide Rail Left">
        <g id="Drill37" serif:id="Drill">
            <circle cx="1962.32" cy="4946.32" r="5.25" style="fill:rgb(251,0,85);"/>
            <circle cx="1962.32" cy="5120.11" r="5.25" style="fill:rgb(251,0,85);"/>
            <circle cx="1962.32" cy="5294.28" r="5.25" style="fill:rgb(251,0,85);"/>
            <circle cx="1962.32" cy="5468.29" r="5.25" style="fill:rgb(251,0,85);"/>
            <circle cx="1962.32" cy="5642.38" r="5.25" style="fill:rgb(251,0,85);"/>
            <circle cx="1962.32" cy="5816.46" r="5.25" style="fill:rgb(251,0,85);"/>
            <circle cx="1962.32" cy="5990.47" r="5.25" style="fill:rgb(251,0,85);"/>
            <circle cx="1962.32" cy="6164.57" r="5.25" style="fill:rgb(251,0,85);"/>
            <circle cx="1962.32" cy="6338.24" r="5.25" style="fill:rgb(251,0,85);"/>
        </g>
    </g>
</svg>
