<?xml version="1.0" encoding="UTF-8" standalone="no"?>
<!DOCTYPE svg PUBLIC "-//W3C//DTD SVG 1.1//EN" "http://www.w3.org/Graphics/SVG/1.1/DTD/svg11.dtd">
<svg width="4544px" height="5760px" version="1.1" xmlns="http://www.w3.org/2000/svg" xmlns:xlink="http://www.w3.org/1999/xlink" xml:space="preserve" style="fill-rule:evenodd;clip-rule:evenodd;stroke-linecap:round;stroke-linejoin:round;stroke-miterlimit:2.613;">
    <g clip-path="url(#_clip1)">
        <g id="T.-6-R-PlasMet-POST">
            <g id="Metal">
                <path d="M503.565,1253.96C503.558,1266.44 522.292,1266.44 522.285,1253.96C522.299,1241.48 503.558,1241.48 503.565,1253.96Z" style="fill:none;stroke:black;stroke-width:0.74px;stroke-miterlimit:10;"/>
            </g>
        </g>
        <g id="T.-6-R-PlasMet-POST1">
            <g id="Metal1">
                <path d="M448.991,1270.77C448.984,1283.25 467.718,1283.25 467.711,1270.77C467.725,1258.29 448.984,1258.29 448.991,1270.77Z" style="fill:none;stroke:black;stroke-width:0.74px;stroke-miterlimit:10;"/>
            </g>
        </g>
        <g id="T.-6-R-PlasMet-POST2">
            <g id="Metal2">
                <path d="M2013.51,2569.74C2013.5,2582.22 2032.24,2582.22 2032.23,2569.74C2032.24,2557.26 2013.5,2557.26 2013.51,2569.74Z" style="fill:none;stroke:black;stroke-width:0.74px;stroke-miterlimit:10;"/>
            </g>
        </g>
        <g id="T.-6-R-PlasMet-POST3">
            <g id="Metal3">
                <path d="M1472.4,1386.35C1472.4,1398.83 1491.13,1398.83 1491.12,1386.35C1491.14,1373.87 1472.4,1373.87 1472.4,1386.35Z" style="fill:none;stroke:black;stroke-width:0.74px;stroke-miterlimit:10;"/>
            </g>
        </g>
        <g id="T.-6-R-PlasMet-POST4">
            <g id="Metal4">
                <path d="M1305.5,1224.95C1305.49,1237.43 1324.22,1237.43 1324.21,1224.95C1324.23,1212.47 1305.49,1212.47 1305.5,1224.95Z" style="fill:none;stroke:black;stroke-width:0.74px;stroke-miterlimit:10;"/>
            </g>
        </g>
        <g id="T.-6-R-PlasMet-POST5">
            <g id="Metal5">
                <path d="M1765.96,818.174C1765.96,830.654 1784.69,830.654 1784.68,818.174C1784.7,805.694 1765.96,805.694 1765.96,818.174Z" style="fill:none;stroke:black;stroke-width:0.74px;stroke-miterlimit:10;"/>
            </g>
        </g>
        <g id="T.-6-R-PlasMet-POST6">
            <g id="Metal6">
                <path d="M1542.78,699.096C1542.78,711.576 1561.51,711.576 1561.5,699.096C1561.52,686.616 1542.78,686.616 1542.78,699.096Z" style="fill:none;stroke:black;stroke-width:0.74px;stroke-miterlimit:10;"/>
            </g>
        </g>
        <g id="T.-6-R-PlasMet-POST7">
            <g id="Metal7">
                <path d="M974.302,704.766C974.295,717.246 993.029,717.246 993.022,704.766C993.036,692.286 974.295,692.286 974.302,704.766Z" style="fill:none;stroke:black;stroke-width:0.74px;stroke-miterlimit:10;"/>
            </g>
        </g>
        <g id="T.-6-R-PlasMet-POST8">
            <g id="Metal8">
                <path d="M1140.66,847.32C1140.65,859.8 1159.39,859.8 1159.38,847.32C1159.39,834.84 1140.65,834.84 1140.66,847.32Z" style="fill:none;stroke:black;stroke-width:0.74px;stroke-miterlimit:10;"/>
            </g>
        </g>
        <g id="T.-6-R-PlasMet-POST9">
            <g id="Metal9">
                <path d="M1021,996.473C1021,1008.95 1039.73,1008.95 1039.72,996.473C1039.74,983.993 1021,983.993 1021,996.473Z" style="fill:none;stroke:black;stroke-width:0.74px;stroke-miterlimit:10;"/>
            </g>
        </g>
        <g id="T.-6-R-PlasMet-POST10">
            <g id="Metal10">
                <path d="M1019.48,1193.26C1019.47,1205.74 1038.21,1205.74 1038.2,1193.26C1038.21,1180.78 1019.47,1180.78 1019.48,1193.26Z" style="fill:none;stroke:black;stroke-width:0.74px;stroke-miterlimit:10;"/>
            </g>
        </g>
        <g id="T.-6-R-PlasMet-POST11">
            <g id="Metal11">
                <path d="M806.344,1217.28C806.337,1229.76 825.071,1229.76 825.064,1217.28C825.078,1204.8 806.337,1204.8 806.344,1217.28Z" style="fill:none;stroke:black;stroke-width:0.74px;stroke-miterlimit:10;"/>
            </g>
        </g>
        <g id="T.-6-R-PlasMet-POST12">
            <g id="Metal12">
                <path d="M773.088,1041.42C773.081,1053.9 791.815,1053.9 791.808,1041.42C791.822,1028.94 773.081,1028.94 773.088,1041.42Z" style="fill:none;stroke:black;stroke-width:0.74px;stroke-miterlimit:10;"/>
            </g>
        </g>
        <g id="T.-6-R-PlasMet-POST13">
            <g id="Metal13">
                <path d="M882.562,747.162C882.555,759.642 901.289,759.642 901.282,747.162C901.296,734.682 882.555,734.682 882.562,747.162Z" style="fill:none;stroke:black;stroke-width:0.74px;stroke-miterlimit:10;"/>
            </g>
        </g>
        <g id="T.-6-R-PlasMet-POST14">
            <g id="Metal14">
                <path d="M506.664,963.984C506.657,976.464 525.391,976.464 525.384,963.984C525.398,951.504 506.657,951.504 506.664,963.984Z" style="fill:none;stroke:black;stroke-width:0.74px;stroke-miterlimit:10;"/>
            </g>
        </g>
        <g id="T.-6-R-PlasMet-POST15">
            <g id="Metal15">
                <path d="M461.269,1201.31C461.262,1213.79 479.996,1213.79 479.989,1201.31C480.003,1188.83 461.262,1188.83 461.269,1201.31Z" style="fill:none;stroke:black;stroke-width:0.74px;stroke-miterlimit:10;"/>
            </g>
        </g>
        <g id="T.-6-R-PlasMet-POST16">
            <g id="Metal16">
                <path d="M272.18,1611.8C272.173,1624.28 290.907,1624.28 290.9,1611.8C290.914,1599.32 272.173,1599.32 272.18,1611.8Z" style="fill:none;stroke:black;stroke-width:0.74px;stroke-miterlimit:10;"/>
            </g>
        </g>
        <g id="T.-6-R-PlasMet-POST17">
            <g id="Metal17">
                <path d="M271.558,981.92C271.551,994.4 290.285,994.4 290.278,981.92C290.292,969.44 271.551,969.44 271.558,981.92Z" style="fill:none;stroke:black;stroke-width:0.74px;stroke-miterlimit:10;"/>
            </g>
        </g>
        <g id="T.-6-R-PlasMet-POST18">
            <g id="Metal18">
                <path d="M296.573,892.665C296.566,905.145 315.3,905.145 315.293,892.665C315.307,880.185 296.566,880.185 296.573,892.665Z" style="fill:none;stroke:black;stroke-width:0.74px;stroke-miterlimit:10;"/>
            </g>
        </g>
        <g id="T.-6-R-PlasMet-POST19">
            <g id="Metal19">
                <path d="M361.914,583.431C361.907,595.911 380.641,595.911 380.634,583.431C380.648,570.951 361.907,570.951 361.914,583.431Z" style="fill:none;stroke:black;stroke-width:0.74px;stroke-miterlimit:10;"/>
            </g>
        </g>
        <g id="T.-6-R-PlasMet-POST20">
            <g id="Metal20">
                <path d="M827.86,509.204C827.853,521.684 846.587,521.684 846.58,509.204C846.594,496.724 827.853,496.724 827.86,509.204Z" style="fill:none;stroke:black;stroke-width:0.74px;stroke-miterlimit:10;"/>
            </g>
        </g>
        <g id="T.-6-R-PlasMet-POST21">
            <g id="Metal21">
                <path d="M911.072,509.204C911.065,521.684 929.799,521.684 929.792,509.204C929.805,496.724 911.065,496.724 911.072,509.204Z" style="fill:none;stroke:black;stroke-width:0.74px;stroke-miterlimit:10;"/>
            </g>
        </g>
        <g id="T.-6-R-PlasMet-POST22">
            <g id="Metal22">
                <path d="M1513.66,509.208C1513.66,521.688 1532.39,521.688 1532.38,509.208C1532.4,496.728 1513.66,496.728 1513.66,509.208Z" style="fill:none;stroke:black;stroke-width:0.74px;stroke-miterlimit:10;"/>
            </g>
        </g>
        <g id="T.-6-R-PlasMet-POST23">
            <g id="Metal23">
                <path d="M1700.84,520.61C1700.84,533.09 1719.57,533.09 1719.56,520.61C1719.58,508.13 1700.84,508.13 1700.84,520.61Z" style="fill:none;stroke:black;stroke-width:0.74px;stroke-miterlimit:10;"/>
            </g>
        </g>
        <g id="T.-6-R-PlasMet-POST24">
            <g id="Metal24">
                <path d="M2033.55,564.258C2033.54,576.738 2052.28,576.738 2052.27,564.258C2052.28,551.778 2033.54,551.778 2033.55,564.258Z" style="fill:none;stroke:black;stroke-width:0.74px;stroke-miterlimit:10;"/>
            </g>
        </g>
        <g id="T.-6-R-PlasMet-POST25">
            <g id="Metal25">
                <path d="M2150.11,1111.54C2150.11,1124.02 2168.84,1124.02 2168.83,1111.54C2168.85,1099.06 2150.11,1099.06 2150.11,1111.54Z" style="fill:none;stroke:black;stroke-width:0.74px;stroke-miterlimit:10;"/>
            </g>
        </g>
        <g id="T.-6-R-PlasMet-POST26">
            <g id="Metal26">
                <path d="M1733.76,1111.51C1733.76,1123.99 1752.49,1123.99 1752.48,1111.51C1752.5,1099.03 1733.76,1099.03 1733.76,1111.51Z" style="fill:none;stroke:black;stroke-width:0.74px;stroke-miterlimit:10;"/>
            </g>
        </g>
        <g id="T.-6-R-PlasMet-POST27">
            <g id="Metal27">
                <path d="M1818.38,1214.48C1818.37,1226.96 1837.1,1226.96 1837.1,1214.48C1837.11,1202 1818.37,1202 1818.38,1214.48Z" style="fill:none;stroke:black;stroke-width:0.74px;stroke-miterlimit:10;"/>
            </g>
        </g>
        <g id="T.-6-R-PlasMet-POST28">
            <g id="Metal28">
                <path d="M1980.7,1414.07C1980.69,1426.55 1999.42,1426.55 1999.42,1414.07C1999.43,1401.59 1980.69,1401.59 1980.7,1414.07Z" style="fill:none;stroke:black;stroke-width:0.74px;stroke-miterlimit:10;"/>
            </g>
        </g>
        <g id="T.-6-R-PlasMet-POST29">
            <g id="Metal29">
                <path d="M1801.17,1709.16C1801.16,1721.64 1819.9,1721.64 1819.89,1709.16C1819.9,1696.68 1801.16,1696.68 1801.17,1709.16Z" style="fill:none;stroke:black;stroke-width:0.74px;stroke-miterlimit:10;"/>
            </g>
        </g>
        <g id="T.-6-R-PlasMet-POST30">
            <g id="Metal30">
                <path d="M1870.78,1893.76C1870.77,1906.24 1889.51,1906.24 1889.5,1893.76C1889.51,1881.28 1870.77,1881.28 1870.78,1893.76Z" style="fill:none;stroke:black;stroke-width:0.74px;stroke-miterlimit:10;"/>
            </g>
        </g>
        <g id="T.-6-R-PlasMet-POST31">
            <g id="Metal31">
                <path d="M2124.24,1794.36C2124.24,1806.84 2142.97,1806.84 2142.96,1794.36C2142.98,1781.88 2124.24,1781.88 2124.24,1794.36Z" style="fill:none;stroke:black;stroke-width:0.74px;stroke-miterlimit:10;"/>
            </g>
        </g>
        <g id="T.-6-R-PlasMet-POST32">
            <g id="Metal32">
                <path d="M2091.97,2097.72C2091.96,2110.2 2110.69,2110.2 2110.69,2097.72C2110.7,2085.24 2091.96,2085.24 2091.97,2097.72Z" style="fill:none;stroke:black;stroke-width:0.74px;stroke-miterlimit:10;"/>
            </g>
        </g>
        <g id="T.-6-R-PlasMet-POST33">
            <g id="Metal33">
                <path d="M326.533,2729.91C326.526,2742.39 345.26,2742.39 345.253,2729.91C345.267,2717.43 326.526,2717.43 326.533,2729.91Z" style="fill:none;stroke:black;stroke-width:0.74px;stroke-miterlimit:10;"/>
            </g>
        </g>
        <g id="T.-6-R-PlasMet-POST34">
            <g id="Metal34">
                <path d="M406.882,2082.38C406.875,2094.86 425.609,2094.86 425.602,2082.38C425.616,2069.9 406.875,2069.9 406.882,2082.38Z" style="fill:none;stroke:black;stroke-width:0.74px;stroke-miterlimit:10;"/>
            </g>
        </g>
        <g id="T.-6-R-PlasMet-POST35">
            <g id="Metal35">
                <path d="M316.933,2219.18C316.926,2231.66 335.66,2231.66 335.653,2219.18C335.667,2206.7 316.926,2206.7 316.933,2219.18Z" style="fill:none;stroke:black;stroke-width:0.74px;stroke-miterlimit:10;"/>
            </g>
        </g>
        <g id="T.-6-R-PlasMet-POST36">
            <g id="Metal36">
                <path d="M2062.84,3189.32C2062.83,3201.8 2081.56,3201.8 2081.56,3189.32C2081.57,3176.84 2062.83,3176.84 2062.84,3189.32Z" style="fill:none;stroke:black;stroke-width:0.74px;stroke-miterlimit:10;"/>
            </g>
        </g>
        <g id="T.-6-R-PlasMet-POST37">
            <g id="Metal37">
                <path d="M2109.82,3241.05C2109.82,3253.53 2128.55,3253.53 2128.54,3241.05C2128.56,3228.57 2109.82,3228.57 2109.82,3241.05Z" style="fill:none;stroke:black;stroke-width:0.74px;stroke-miterlimit:10;"/>
            </g>
        </g>
        <g id="T.-6-R-PlasMet-POST38">
            <g id="Metal38">
                <path d="M1935.9,3764.3C1935.89,3776.78 1954.63,3776.78 1954.62,3764.3C1954.63,3751.82 1935.89,3751.82 1935.9,3764.3Z" style="fill:none;stroke:black;stroke-width:0.74px;stroke-miterlimit:10;"/>
            </g>
        </g>
        <g id="T.-6-R-PlasMet-POST39">
            <g id="Metal39">
                <path d="M1618.74,3987.29C1618.73,3999.77 1637.47,3999.77 1637.46,3987.29C1637.48,3974.81 1618.73,3974.81 1618.74,3987.29Z" style="fill:none;stroke:black;stroke-width:0.74px;stroke-miterlimit:10;"/>
            </g>
        </g>
        <g id="T.-6-R-PlasMet-POST40">
            <g id="Metal40">
                <path d="M779.602,3987.29C779.595,3999.77 798.329,3999.77 798.322,3987.29C798.336,3974.81 779.595,3974.81 779.602,3987.29Z" style="fill:none;stroke:black;stroke-width:0.74px;stroke-miterlimit:10;"/>
            </g>
        </g>
        <g id="T.-6-R-PlasMet-POST41">
            <g id="Metal41">
                <path d="M462.45,3764.31C462.443,3776.79 481.177,3776.79 481.17,3764.31C481.184,3751.83 462.443,3751.83 462.45,3764.31Z" style="fill:none;stroke:black;stroke-width:0.74px;stroke-miterlimit:10;"/>
            </g>
        </g>
        <g id="Flipper-Mech-Left">
            <g id="Metal42">
                <path d="M1970.33,708.922C1974.91,696.496 1988.73,690.132 2001.15,694.719C2013.58,699.306 2019.94,713.119 2015.36,725.546C2010.77,737.972 1996.96,744.336 1984.53,739.749C1972.1,735.161 1965.74,721.348 1970.33,708.922Z" style="fill:none;stroke:black;stroke-width:1.33px;"/>
            </g>
        </g>
        <g id="Flipper-Mech-Left1">
            <g id="Metal43">
                <path d="M448.758,2252.63C438.751,2243.95 437.671,2228.78 446.349,2218.78C455.027,2208.77 470.197,2207.69 480.204,2216.37C490.212,2225.04 491.292,2240.21 482.614,2250.22C473.936,2260.23 458.766,2261.31 448.758,2252.63Z" style="fill:none;stroke:black;stroke-width:1.33px;"/>
            </g>
        </g>
        <g id="Flipper-Mech-Left2">
            <g id="Metal44">
                <circle cx="884.895" cy="4057.75" r="24" style="fill:none;stroke:black;stroke-width:1.33px;"/>
            </g>
        </g>
        <g id="Flipper-Mech-Right">
            <g id="Metal45">
                <circle cx="1533.1" cy="4057.8" r="24" style="fill:none;stroke:black;stroke-width:1.33px;"/>
            </g>
        </g>
        <g id="Deflector.2c.-w.2f.Sleeve-.23.2-500.-5788.-02">
            <g id="Metal46">
                <path d="M1982.46,1583.2C1969.4,1553.44 1924.72,1573.08 1937.83,1602.83C1950.88,1632.59 1995.57,1612.96 1982.46,1583.2Z" style="fill:none;stroke:black;stroke-width:1.07px;stroke-linecap:butt;stroke-linejoin:bevel;"/>
            </g>
        </g>
        <g id="Deflector.2c.-w.2f.Sleeve-.23.2-500.-5788.-021">
            <g id="Metal47">
                <path d="M2034.91,3271.06C2029.27,3239.05 1981.2,3247.57 1986.9,3279.57C1992.55,3311.58 2040.61,3303.08 2034.91,3271.06Z" style="fill:none;stroke:black;stroke-width:1.07px;stroke-linecap:butt;stroke-linejoin:bevel;"/>
            </g>
        </g>
        <g id="Right-Guide">
            <g id="Metal48">
                <path d="M2146.35,3132.06C2146.35,3118.94 2138.07,3107.26 2125.7,3102.91C2113.34,3098.56 2099.57,3102.49 2091.35,3112.71C2060.95,3150.55 2029.25,3189.99 2029.25,3189.99C2029.25,3189.99 2029.25,3189.99 2029.25,3189.99C2027.06,3189.2 2024.62,3190.17 2023.56,3192.24C2022.5,3194.32 2023.15,3196.85 2025.08,3198.16C2057.9,3220.96 2100.49,3259.47 2123.12,3316.11C2129.74,3332.69 2137.3,3364.5 2141.97,3385.69C2142.23,3386.8 2143.29,3387.55 2144.43,3387.42C2145.56,3387.29 2146.42,3386.32 2146.42,3385.18C2146.41,3336.49 2146.38,3215.9 2146.35,3132.06Z" style="fill:rgb(156,156,156);fill-opacity:0.615686;stroke:black;stroke-width:0.74px;stroke-miterlimit:1.5;"/>
            </g>
        </g>
        <g id="R-Ball-Guide">
            <g id="Metal49">
                <path d="M1921.66,3724.8L1540.01,3993.45C1538.54,3994.49 1537.93,3996.28 1538.33,3998.06C1538.72,3999.82 1540.36,4001.21 1542.13,4001.51C1556.35,4003.97 1569.01,4012.09 1577.31,4024.06C1585.6,4036.04 1588.82,4050.75 1586.29,4065.16C1585.97,4066.95 1586.76,4068.76 1588.31,4069.75C1589.84,4070.73 1591.83,4070.69 1593.32,4069.63L1995.65,3786.93C1996.3,3786.44 1997.24,3785.97 1997.29,3784.48L1997.29,3605.41C1997.29,3601.57 1994.17,3598.45 1990.33,3598.45C1986.48,3598.45 1983.36,3601.57 1983.36,3605.41C1983.36,3652.94 1960.35,3697.48 1921.66,3724.8L1921.66,3724.8ZM1688.47,3979.41C1675.74,3988.34 1658.16,3985.26 1649.23,3972.54C1640.3,3959.81 1643.37,3942.23 1656.1,3933.3L1713.34,3893.11C1726.07,3884.18 1743.65,3887.26 1752.58,3899.98C1761.52,3912.7 1758.44,3930.29 1745.71,3939.22L1688.47,3979.41ZM1787.09,3848.4C1802.25,3848.4 1814.55,3860.7 1814.55,3875.86C1814.55,3891.02 1802.25,3903.31 1787.09,3903.31C1771.93,3903.31 1759.63,3891.02 1759.63,3875.86C1759.63,3860.7 1771.93,3848.4 1787.09,3848.4ZM1859.14,3859.27C1846.54,3868.12 1829.12,3865.07 1820.27,3852.46C1811.42,3839.86 1814.47,3822.44 1827.07,3813.59L1885.01,3772.92C1897.61,3764.07 1915.03,3767.12 1923.88,3779.73C1932.73,3792.33 1929.68,3809.75 1917.07,3818.6L1859.14,3859.27Z" style="fill:rgb(102,102,102);fill-opacity:0.615686;stroke:black;stroke-width:0.74px;stroke-miterlimit:10;"/>
            </g>
        </g>
        <g id="L-Ball-Guide">
            <g id="Metal50">
                <path d="M495.411,3724.8L877.067,3993.45C878.535,3994.49 879.141,3996.28 878.741,3998.06C878.349,3999.82 876.711,4001.21 874.945,4001.51C860.724,4003.97 848.065,4012.09 839.766,4024.06C831.475,4036.04 828.249,4050.75 830.778,4065.16C831.105,4066.95 830.31,4068.76 828.766,4069.75C827.229,4070.73 825.247,4070.69 823.754,4069.63L421.418,3786.93C420.77,3786.44 419.829,3785.97 419.779,3784.48L419.782,3605.41C419.782,3601.57 422.9,3598.45 426.746,3598.45C430.592,3598.45 433.711,3601.57 433.711,3605.41C433.711,3652.94 456.728,3697.48 495.411,3724.8L495.411,3724.8ZM728.605,3979.41C741.33,3988.34 758.912,3985.26 767.845,3972.54C776.777,3959.81 773.699,3942.23 760.975,3933.3L703.729,3893.11C691.005,3884.18 673.422,3887.26 664.49,3899.98C655.557,3912.7 658.635,3930.29 671.36,3939.22L728.605,3979.41ZM629.984,3848.4C614.822,3848.4 602.527,3860.7 602.527,3875.86C602.527,3891.02 614.822,3903.31 629.984,3903.31C645.145,3903.31 657.44,3891.02 657.44,3875.86C657.44,3860.7 645.145,3848.4 629.984,3848.4ZM557.932,3859.27C570.537,3868.12 587.955,3865.07 596.804,3852.46C605.653,3839.86 602.603,3822.44 589.998,3813.59L532.067,3772.92C519.462,3764.07 502.044,3767.12 493.195,3779.73C484.347,3792.33 487.396,3809.75 500.001,3818.6L557.932,3859.27Z" style="fill:rgb(102,102,102);fill-opacity:0.615686;stroke:black;stroke-width:0.74px;stroke-miterlimit:10;"/>
            </g>
        </g>
        <g id="Misc-Met">
            <g id="Metal51">
                <path d="M1775.44,1364.29C1775.44,1364.29 1776.56,1327.94 1777.82,1287.04C1779.97,1217.08 1745.56,1151.03 1686.99,1112.69C1686.98,1112.69 1686.98,1112.69 1686.98,1112.69C1682.27,1109.61 1679.97,1103.9 1681.24,1098.41C1682.51,1092.91 1687.07,1088.79 1692.66,1088.09C1696.63,1087.58 1700.83,1087.05 1705.24,1086.49C1746.07,1081.32 1781.83,1056.56 1801.04,1020.15C1820.26,983.749 1820.52,940.263 1801.75,903.626C1795.93,892.262 1792.3,885.166 1792.3,885.166C1792.3,885.166 1657.3,718.562 1625.28,679.039C1624.4,677.956 1624.34,676.426 1625.12,675.274C1625.91,674.122 1627.35,673.621 1628.68,674.04C1652.25,682.525 1712.8,708.202 1766.8,764.021C1804.23,802.725 1856.06,885.165 1867.16,942.666C1881.9,1019.11 1872.08,1153.22 1862.22,1216.09C1850.26,1292.37 1799.73,1367.69 1799.73,1367.69L1775.44,1364.29Z" style="fill:rgb(255,200,0);fill-opacity:0.45098;stroke:black;stroke-width:0.53px;stroke-miterlimit:10;"/>
                <path d="M878.466,488.848C878.829,488.835 879.181,488.97 879.441,489.222C879.702,489.474 879.85,489.821 879.85,490.184C879.85,496.642 879.853,523.739 879.853,529.509C879.853,530.108 879.369,530.593 878.77,530.594C878.436,530.594 878.134,530.594 878.055,530.595C556.72,531.04 297.6,791.666 297.6,1113.08L297.6,1373.76C297.6,1373.76 297.781,1377.81 298.092,1384.8C304.138,1520.41 327.878,1654.65 368.708,1784.12C415.663,1933 478.082,2130.91 490.701,2170.92C492.103,2175.37 489.956,2180.16 485.705,2182.07C477.313,2185.85 459.205,2180.63 444.328,2187.32C430.69,2193.46 420.185,2204.95 415.29,2219.08C410.394,2233.21 411.541,2248.73 418.46,2261.99C424.652,2273.85 429.473,2283.09 429.473,2283.09C429.473,2283.09 393.952,2284.19 360.718,2285.21C345.854,2285.67 331.438,2280.09 320.761,2269.74C310.084,2259.38 304.058,2245.15 304.058,2230.28C304.058,2120.18 304.058,1883.68 304.058,1832.14C304.058,1829.48 302.999,1826.92 301.115,1825.04C299.231,1823.16 296.676,1822.1 294.011,1822.1C285.746,1822.1 274.088,1822.1 265.822,1822.1C260.273,1822.1 255.775,1817.6 255.775,1812.05C255.775,1714.52 255.773,939.528 255.773,927.151C255.773,927.051 255.776,926.951 255.782,926.852C256.071,922.329 262.848,816.004 269.471,712.081C276.735,598.123 368.952,508.09 483.051,503.56C640.629,497.303 859.105,489.535 878.466,488.848ZM322.184,1726.29C321.961,1723.81 323.491,1721.43 325.962,1720.67L335.081,1717.87C337.917,1717.01 340.925,1718.6 341.795,1721.44L351.429,1752.85C352.299,1755.69 350.703,1758.69 347.867,1759.56L345.75,1760.21L358.118,1797.51C360.006,1803.2 356.916,1809.36 351.222,1811.25L332.911,1817.32C327.217,1819.21 321.061,1816.12 319.173,1810.42L297.756,1745.84C295.868,1740.14 298.958,1733.99 304.652,1732.1L322.184,1726.29Z" style="fill:rgb(255,200,0);fill-opacity:0.45098;stroke:black;stroke-width:0.53px;stroke-miterlimit:10;"/>
                <path d="M1018.92,1237C1013.29,1237.17 1008.39,1233.17 1007.42,1227.62C1004.11,1208.62 996.229,1163.44 986.651,1108.54C972.403,1026.85 996.264,943.138 1051.44,881.242C1106.61,819.346 1187.05,786.058 1269.82,790.862C1285.03,791.744 1299.76,792.599 1313.78,793.413C1316.46,793.568 1318.54,795.811 1318.49,798.494C1318.44,801.177 1316.28,803.344 1313.6,803.403C1308.73,803.511 1303.88,803.619 1299.1,803.725C1247.25,804.877 1201.89,838.941 1186.33,888.421C1186.33,888.421 1186.33,888.421 1186.33,888.421C1186.27,888.599 1186.21,888.776 1186.16,888.954C1185.12,892.429 1174.16,928.975 1167.9,949.833C1165.13,959.081 1158.98,966.945 1150.66,971.858C1135.85,980.618 1111.42,995.054 1094.5,1005.06C1082.82,1011.96 1075.65,1024.51 1075.64,1038.06C1075.57,1084.19 1075.42,1189.99 1075.37,1224.34C1075.36,1230.46 1070.49,1235.47 1064.37,1235.65C1051.71,1236.03 1031.07,1236.64 1018.92,1237Z" style="fill:rgb(255,200,0);fill-opacity:0.45098;stroke:black;stroke-width:0.53px;stroke-miterlimit:10;"/>
                <path d="M1580.73,530.597C1576.23,530.465 1568.12,530.383 1564.94,530.355C1564.21,530.349 1563.62,529.752 1563.62,529.019C1563.62,522.774 1563.62,496.317 1563.62,489.938C1563.62,489.575 1563.77,489.227 1564.03,488.976C1564.29,488.724 1564.64,488.589 1565.01,488.603C1584.01,489.326 1794.51,497.334 1960.07,503.632C2074.32,507.978 2166.75,598.068 2174.02,712.167C2180.64,815.984 2187.4,922.084 2187.69,926.602C2187.7,926.702 2187.7,926.802 2187.7,926.902C2187.7,935.992 2187.7,1355.62 2187.7,1390.39C2187.7,1390.89 2187.44,1391.35 2187.02,1391.62C2186.6,1391.89 2186.07,1391.93 2185.62,1391.72C2178,1388.23 2151.81,1376.23 2146.73,1373.9C2146.21,1373.66 2145.87,1373.14 2145.87,1372.57C2145.87,1359.91 2145.87,1223.84 2145.87,1223.84C2119.94,845.085 1874.19,541.921 1580.73,530.597Z" style="fill:rgb(255,200,0);fill-opacity:0.45098;stroke:black;stroke-width:0.56px;stroke-miterlimit:10;"/>
                <path d="M1561.4,490.516C1561.4,490.162 1561.26,489.822 1561.01,489.571C1560.76,489.321 1560.42,489.18 1560.06,489.18C1527.65,489.18 916.03,489.18 883.615,489.18C883.26,489.18 882.921,489.321 882.67,489.571C882.419,489.822 882.279,490.162 882.279,490.516C882.279,496.722 882.279,522.694 882.279,528.9C882.279,529.254 882.419,529.594 882.67,529.845C882.921,530.096 883.26,530.236 883.615,530.236C916.03,530.236 1527.65,530.236 1560.06,530.236C1560.42,530.236 1560.76,530.096 1561.01,529.845C1561.26,529.594 1561.4,529.254 1561.4,528.9C1561.4,522.694 1561.4,496.722 1561.4,490.516Z" style="fill:rgb(255,200,0);fill-opacity:0.45098;stroke:black;stroke-width:0.53px;stroke-miterlimit:10;"/>
                <path d="M1581.82,720.901C1570.04,728.229 1555.82,731.083 1541.83,728.571C1501.99,721.419 1428.41,694.601 1342.07,679.098C1221.98,657.535 1046.93,666.799 953.693,745.493C860.451,824.187 800.607,971.647 817.999,1092.41C840.012,1245.27 871.25,1432.62 878.44,1475.44C878.838,1477.8 878.261,1480.21 876.841,1482.14C875.422,1484.06 873.282,1485.33 870.911,1485.64C870.378,1485.72 869.845,1485.79 869.317,1485.86C864.858,1486.45 860.665,1483.6 859.588,1479.23C845.43,1421.82 756.076,1059.47 735.621,976.518C734.517,972.039 731.676,968.183 727.725,965.801C723.774,963.419 719.038,962.707 714.561,963.821C673.108,974.137 566.749,1000.61 525.628,1010.84C516.428,1013.13 510.763,1022.37 512.898,1031.61C520.995,1066.64 539.139,1145.13 540.171,1149.6C540.213,1149.78 540.257,1149.96 540.302,1150.14C541.704,1155.76 564.416,1246.7 570.572,1271.36C571.435,1274.81 569.492,1278.35 566.114,1279.47C558.533,1281.99 545.959,1286.17 541.833,1287.55C541.049,1287.81 540.191,1287.47 539.801,1286.74C539.8,1286.74 539.8,1286.74 539.8,1286.74C535.104,1277.97 524.858,1273.76 515.354,1276.68C500.29,1281.33 478.087,1288.16 463.196,1292.75C454.289,1295.5 449.03,1304.67 451.163,1313.74C451.163,1313.74 451.163,1313.74 451.163,1313.74C451.346,1314.52 450.966,1315.32 450.249,1315.66C447.759,1316.87 442.029,1319.64 438.308,1321.44C437.506,1321.83 436.566,1321.81 435.78,1321.39C434.993,1320.98 434.454,1320.2 434.33,1319.32C433.39,1312.68 431.388,1298.52 429.747,1286.92C428.066,1275.03 427.212,1263.04 427.191,1251.04C427.128,1215.89 426.995,1141.3 426.988,1137.39C426.988,1137.28 426.99,1137.17 426.995,1137.07C427.074,1135.26 427.822,1118.15 428.916,1093.12C435.322,946.629 531.136,819.151 670.07,772.27C715.782,756.845 749.995,745.3 749.995,745.3L1096.25,653.875C1096.25,653.875 1577.06,671.086 1621.11,672.663C1621.68,672.684 1622.19,673.039 1622.41,673.571C1622.63,674.103 1622.52,674.714 1622.13,675.134C1620.22,677.173 1617.77,679.797 1617.77,679.797C1616.85,679.717 1615.92,679.676 1614.98,679.676C1597.44,679.676 1581.74,700.986 1581.74,718.529C1581.74,719.327 1581.77,720.118 1581.82,720.901Z" style="fill:rgb(255,200,0);fill-opacity:0.45098;stroke:black;stroke-width:0.53px;stroke-miterlimit:10;"/>
                <path d="M516.744,1227.73C517.173,1227.54 517.617,1227.38 518.075,1227.24C524.415,1225.32 531.117,1228.92 533.031,1235.26L632.982,1566.31L660.128,1558.16C670.769,1554.97 682.001,1561.02 685.193,1571.66C688.386,1582.3 682.339,1593.53 671.698,1596.73L644.618,1604.85L655.679,1641.49C657.593,1647.83 654,1654.53 647.66,1656.44C641.32,1658.36 634.619,1654.76 632.705,1648.42L617.368,1597.63L561.452,1614.4L576.742,1665.05C578.656,1671.39 575.063,1678.09 568.723,1680C562.383,1681.92 555.682,1678.33 553.768,1671.99L431.12,1265.75C429.339,1259.86 432.325,1253.64 437.855,1251.27L437.828,1251.18L516.744,1227.73ZM468.358,1306.06L558.342,1604.11L614.259,1587.33L524.319,1289.43L468.358,1306.06Z" style="fill:rgb(255,84,197);fill-opacity:0.45098;stroke:black;stroke-width:0.33px;stroke-linecap:butt;stroke-miterlimit:1.41421;"/>
                <path d="M2138.14,2160.28C2138.14,2170.88 2129.54,2179.48 2118.94,2179.48C2108.74,2179.48 2098.29,2179.48 2098.29,2179.48C2096.92,2179.48 2095.81,2178.37 2095.81,2177C2095.81,2177 2095.81,2177 2095.81,2176.99C2095.81,2157.83 2080.25,2142.28 2061.09,2142.28C2059.85,2142.28 2058.62,2142.34 2057.4,2142.47C2053.31,2142.9 2049.27,2141.31 2046.57,2138.21C2043.86,2135.11 2042.83,2130.89 2043.81,2126.9C2060.36,2057.97 2075.97,1980.07 2096,1865.01C2115.7,1751.79 2128.81,1621.98 2137.71,1540.73C2143.15,1491.09 2145.4,1393.71 2145.74,1377.68C2145.75,1377.18 2146.01,1376.73 2146.44,1376.46C2146.86,1376.2 2147.39,1376.16 2147.84,1376.37C2155.66,1379.99 2183.48,1392.84 2188.73,1395.26C2189.25,1395.5 2189.59,1396.03 2189.59,1396.6C2189.59,1396.6 2189.5,1879.15 2189.48,1982.15C2189.48,1992.76 2180.89,2001.35 2170.28,2001.35C2158.84,2001.35 2146.53,2001.35 2146.53,2001.35C2141.9,2001.35 2138.14,2005.11 2138.14,2009.74C2138.14,2009.74 2138.14,2115.85 2138.14,2160.28ZM2101.13,1916.75C2101.36,1916.88 2101.62,1916.98 2101.89,1917.04L2136.22,1924.48C2137.68,1924.8 2139.11,1923.87 2139.43,1922.42L2157.07,1841.04C2157.39,1839.59 2156.47,1838.15 2155.01,1837.84L2120.68,1830.39C2119.22,1830.08 2117.79,1831 2117.47,1832.45C2117.47,1832.45 2110.54,1864.43 2108.95,1871.77C2108.77,1872.6 2107.96,1873.14 2107.12,1873C2105.74,1872.76 2103.7,1872.41 2102.3,1872.17C2101.43,1872.02 2100.61,1872.6 2100.46,1873.47C2099.3,1880.25 2094.7,1907.05 2093.53,1913.83C2093.38,1914.7 2093.96,1915.52 2094.83,1915.67C2097.12,1916.06 2101.13,1916.75 2101.13,1916.75Z" style="fill:rgb(255,200,0);fill-opacity:0.45098;stroke:black;stroke-width:0.47px;stroke-linecap:butt;stroke-miterlimit:1.41421;"/>
                <path d="M1839.85,1919.45C1838.28,1922.21 1839.19,1925.72 1841.91,1927.36C1845.9,1929.75 1851.82,1933.31 1857.68,1936.83C1862.89,1939.96 1869.14,1940.82 1875,1939.22C1880.86,1937.62 1885.81,1933.69 1888.7,1928.36C1910.8,1886.78 1959.61,1785.1 1983.06,1658.55C2013.28,1495.46 2021.26,1347.62 2023.26,1268.84C2023.29,1265.31 2020.71,1262.31 2017.22,1261.82C2013.73,1261.34 2010.42,1263.51 2009.48,1266.9C1997.04,1314.7 1978.23,1380.87 1960.38,1420.27C1917.1,1515.8 1811.43,1664.96 1781.38,1706.63C1776.02,1714.03 1771.7,1722.13 1768.57,1730.72C1759.05,1756.76 1737.63,1815.36 1727.71,1842.51C1724.65,1850.87 1727.84,1860.23 1735.36,1865C1736.61,1865.79 1737.82,1866.55 1738.92,1867.25C1740.27,1868.1 1741.9,1868.37 1743.45,1867.98C1745,1867.6 1746.32,1866.6 1747.11,1865.21C1761.51,1839.99 1823.65,1731.13 1854.69,1676.76C1859.4,1668.5 1867.2,1662.46 1876.38,1659.96C1885.55,1657.46 1895.34,1658.71 1903.59,1663.44C1913.66,1669.21 1924.82,1675.61 1934.88,1681.38C1952.03,1691.2 1957.97,1713.07 1948.15,1730.23C1916.86,1784.89 1853.93,1894.85 1839.85,1919.45ZM1959.97,1533.89L1984.56,1497.24C1986.24,1494.74 1985.57,1491.35 1983.07,1489.67L1958.9,1473.45C1956.4,1471.77 1953,1472.44 1951.33,1474.94L1928.3,1509.25L1926.81,1508.25C1924.31,1506.57 1920.91,1507.24 1919.22,1509.74L1902.97,1533.97C1901.29,1536.48 1901.95,1539.88 1904.46,1541.56L1935.22,1562.2C1937.72,1563.88 1941.12,1563.21 1942.8,1560.7L1959.06,1536.47C1959.6,1535.67 1959.89,1534.79 1959.97,1533.89Z" style="fill:rgb(255,200,0);fill-opacity:0.45098;stroke:black;stroke-width:0.53px;stroke-miterlimit:10;"/>
            </g>
        </g>
        <g id="Habitrails">
            <g opacity="0.75">
                <path d="M1866.12,1582.06C1842.71,1547.85 1819.31,1513.64 1795.9,1479.42C1762.15,1430.08 1728.41,1380.72 1694.7,1331.35C1683.05,1314.29 1671.4,1297.22 1659.77,1280.15C1647.42,1262.04 1635.09,1243.92 1622.79,1225.78L1622.41,1225.22C1621.34,1223.61 1620.3,1221.98 1619.31,1220.32C1617.22,1216.8 1615.32,1213.17 1613.61,1209.45C1610.97,1203.71 1608.8,1197.78 1607.06,1191.71C1605.87,1187.59 1604.89,1183.41 1604.1,1179.19C1602.25,1169.37 1601.44,1159.37 1601.5,1149.39C1601.51,1146.05 1601.63,1142.7 1601.84,1139.37C1602.15,1134.53 1602.65,1129.7 1603.35,1124.9C1604.59,1116.38 1606.42,1107.95 1608.9,1099.71C1609.43,1097.95 1609.99,1096.21 1610.58,1094.47C1611.15,1092.78 1611.75,1091.09 1612.39,1089.41C1612.86,1088.17 1613.36,1086.93 1613.88,1085.71C1616.24,1080.14 1619.01,1074.75 1622.05,1069.52C1623.71,1066.67 1625.44,1063.86 1627.23,1061.08C1628.47,1059.17 1629.73,1057.28 1631.02,1055.4C1634.32,1050.59 1637.76,1045.87 1641.31,1041.23C1645.33,1035.96 1649.48,1030.78 1653.7,1025.67C1659.62,1018.51 1665.69,1011.49 1671.89,1004.57C1673.73,1002.52 1675.58,1000.48 1677.44,998.449C1678.37,997.436 1679.3,996.426 1680.24,995.42C1680.39,995.255 1681.73,993.82 1681.82,993.733C1682.17,993.39 1682.54,993.069 1682.89,992.737C1683.1,992.551 1683.3,992.364 1683.5,992.177C1684.12,991.594 1684.74,991.009 1685.36,990.427C1686.06,989.776 1686.76,989.131 1687.48,988.503C1688.4,987.696 1689.35,986.918 1690.32,986.173C1692.67,984.364 1695.18,982.757 1697.75,981.265C1704.44,977.373 1711.76,974.555 1719.34,972.946C1721.37,972.515 1723.42,972.17 1725.47,971.913C1726.44,971.792 1727.42,971.687 1728.39,971.611C1729.68,971.511 1730.98,971.464 1732.27,971.436C1733.32,971.421 1734.36,971.421 1735.4,971.401C1735.47,971.399 1735.54,971.397 1735.61,971.395C1736.92,971.45 1738.24,971.505 1739.55,971.559C1744.69,972.138 1744.71,972.05 1749.8,972.983C1750.05,973.048 1750.3,973.112 1750.56,973.174C1751.23,973.334 1751.91,973.492 1752.58,973.654C1752.94,973.742 1753.3,973.831 1753.66,973.921C1754.73,974.197 1755.8,974.488 1756.85,974.816C1757.78,975.105 1758.7,975.421 1759.61,975.752C1760.74,976.163 1761.87,976.603 1762.98,977.07C1767,978.759 1770.87,980.806 1774.52,983.181C1779.1,986.152 1783.34,989.634 1787.14,993.544C1790.56,997.062 1793.63,1000.92 1796.28,1005.05C1799.47,1010.01 1802.06,1015.37 1803.97,1020.96C1805.19,1024.55 1806.14,1028.24 1806.8,1031.99C1807.99,1038.76 1808.22,1045.69 1807.49,1052.52C1806.72,1059.69 1804.88,1066.74 1802.06,1073.38C1800.65,1076.68 1799,1079.88 1797.13,1082.95C1796.43,1084.09 1795.71,1085.21 1794.95,1086.31C1794.66,1086.72 1794.38,1087.13 1794.08,1087.53C1793.24,1088.69 1792.35,1089.8 1791.44,1090.9C1790.77,1091.7 1790.08,1092.49 1789.41,1093.29L1789.36,1093.36L1788.67,1094.19C1788.17,1094.73 1787.67,1095.26 1787.17,1095.8C1786.82,1096.18 1786.47,1096.57 1786.11,1096.95C1784.56,1098.64 1783.02,1100.33 1781.49,1102.04C1779.18,1104.61 1776.89,1107.2 1774.63,1109.82C1770.84,1114.18 1767.12,1118.61 1763.49,1123.1C1760.64,1126.62 1757.86,1130.19 1755.18,1133.84C1754.03,1135.41 1752.89,1137.01 1751.79,1138.62C1750.94,1139.87 1750.11,1141.14 1749.32,1142.43C1749.26,1142.53 1749.2,1142.63 1749.14,1142.74C1748.91,1143.62 1748.73,1144.52 1748.58,1145.43C1748.46,1146.19 1748.36,1146.95 1748.29,1147.71C1748.24,1148.22 1748.21,1148.74 1748.18,1149.26L1748.18,1149.37C1758.03,1163.88 1767.91,1178.39 1777.79,1192.89C1791.61,1213.17 1805.45,1233.45 1819.29,1253.73C1851.27,1300.55 1883.26,1347.35 1915.27,1394.15C1934.67,1422.51 1954.07,1450.87 1973.48,1479.22C1995.45,1465.62 2024.08,1471.16 2038.28,1492.11C2052.41,1512.94 2047.08,1541.39 2026.59,1556.83C2070.12,1620.43 2113.67,1684.02 2157.23,1747.61L2158.03,1748.78L2159.01,1750.03C2168.56,1755.8 2177.05,1763.65 2183.76,1773.45C2186.14,1776.94 2188.22,1780.56 2189.99,1784.26L2189.99,1812.7C2190.29,1816.54 2190.29,1820.4 2189.99,1824.23L2189.99,1853.56C2184.09,1865.99 2174.92,1877.07 2162.75,1885.39C2126.07,1910.48 2075.91,1901.07 2050.82,1864.38C2044.28,1854.82 2040.08,1844.34 2038.1,1833.62L2031.78,1824C2001.64,1780 1971.5,1735.99 1941.37,1691.98C1931.89,1678.14 1922.41,1664.29 1912.93,1650.44L1873.87,1660.19C1864.74,1662.47 1855.15,1658.85 1849.81,1651.1C1847.55,1647.82 1845.12,1644.3 1842.87,1641.02C1837.53,1633.27 1837.56,1623.02 1842.94,1615.3L1866.12,1582.06ZM2139.24,1770.9C2126.78,1752.7 2114.32,1734.51 2101.85,1716.31C2027.66,1607.97 1953.48,1499.62 1879.36,1391.24C1849.48,1347.55 1819.62,1303.86 1789.78,1260.15C1778.06,1242.99 1766.35,1225.83 1754.65,1208.65C1743.54,1192.35 1732.43,1176.04 1721.36,1159.7C1721.31,1159.58 1721.27,1159.45 1721.22,1159.32C1720.97,1158.51 1720.79,1157.67 1720.65,1156.84C1720.54,1156.18 1720.44,1155.51 1720.38,1154.85C1720.28,1153.89 1720.22,1152.93 1720.18,1151.96C1720.14,1150.6 1720.15,1149.23 1720.22,1147.87C1720.31,1145.84 1720.51,1143.82 1720.81,1141.81C1721.03,1140.32 1721.3,1138.84 1721.63,1137.37C1721.91,1136.12 1722.24,1134.88 1722.61,1133.66C1722.73,1133.28 1722.84,1132.91 1722.97,1132.54C1723.04,1132.32 1723.12,1132.1 1723.2,1131.88C1723.21,1131.84 1723.23,1131.81 1723.25,1131.78C1723.31,1131.63 1723.33,1131.6 1723.42,1131.42C1723.54,1131.16 1723.67,1130.91 1723.81,1130.65C1724.21,1129.89 1724.64,1129.15 1725.08,1128.41C1726.36,1126.26 1727.74,1124.17 1729.16,1122.11C1731.01,1119.43 1732.93,1116.81 1734.89,1114.21C1737.39,1110.91 1739.96,1107.66 1742.57,1104.44C1745.96,1100.26 1749.43,1096.14 1752.95,1092.07C1756.02,1088.53 1759.12,1085.02 1762.26,1081.54C1764.03,1079.59 1765.8,1077.65 1767.6,1075.74C1767.77,1075.53 1767.94,1075.32 1768.12,1075.11C1768.64,1074.49 1769.16,1073.88 1769.69,1073.26C1769.9,1073 1770.12,1072.75 1770.33,1072.48C1770.72,1072.01 1771.09,1071.54 1771.45,1071.05C1772.04,1070.23 1772.6,1069.38 1773.13,1068.52C1773.98,1067.15 1774.76,1065.72 1775.46,1064.27C1776.94,1061.16 1778.08,1057.89 1778.82,1054.53C1779.57,1051.18 1779.94,1047.74 1779.91,1044.3C1779.88,1040.86 1779.46,1037.42 1778.65,1034.08C1777.85,1030.74 1776.66,1027.48 1775.12,1024.41C1773.22,1020.61 1770.79,1017.08 1767.91,1013.95C1765.48,1011.32 1762.75,1008.99 1759.78,1007C1756.81,1005.01 1753.6,1003.38 1750.25,1002.14C1749.49,1001.86 1748.73,1001.6 1747.95,1001.38C1746.65,1001 1745.33,1000.71 1744.02,1000.4C1743.69,1000.32 1743.37,1000.24 1743.04,1000.16L1742.85,1000.11L1736.42,999.384C1736.35,999.385 1736.28,999.387 1736.22,999.389C1735.2,999.414 1734.19,999.414 1733.18,999.425C1732.85,999.431 1732.51,999.437 1732.17,999.446C1731.63,999.463 1731.09,999.487 1730.56,999.528C1729.82,999.585 1729.08,999.674 1728.34,999.776C1727.01,999.962 1725.68,1000.21 1724.37,1000.51C1721.41,1001.19 1718.53,1002.17 1715.76,1003.43C1714.27,1004.11 1712.82,1004.88 1711.41,1005.71C1710.27,1006.38 1709.16,1007.08 1708.09,1007.85C1707.48,1008.29 1706.88,1008.75 1706.31,1009.24C1705.58,1009.85 1704.89,1010.49 1704.2,1011.14C1703.57,1011.74 1702.94,1012.33 1702.3,1012.93L1701.93,1013.27L1701.55,1013.62C1701.05,1014.15 1700.55,1014.69 1700.06,1015.22C1694.4,1021.33 1688.87,1027.54 1683.44,1033.85C1680.23,1037.57 1677.07,1041.33 1673.95,1045.13C1670.95,1048.78 1668,1052.47 1665.11,1056.21C1660.8,1061.79 1656.63,1067.47 1652.7,1073.32C1650.66,1076.37 1648.69,1079.46 1646.82,1082.62C1644.97,1085.77 1643.22,1088.98 1641.64,1092.27C1640.59,1094.44 1639.62,1096.66 1638.74,1098.91C1638.22,1100.22 1637.75,1101.55 1637.29,1102.88C1636.64,1104.76 1636.04,1106.65 1635.48,1108.56C1634.24,1112.76 1633.21,1117.03 1632.36,1121.33C1631.97,1123.32 1631.61,1125.33 1631.3,1127.34C1630.59,1131.92 1630.08,1136.52 1629.79,1141.14C1629.58,1144.37 1629.48,1147.6 1629.49,1150.83C1629.5,1153.36 1629.58,1155.9 1629.73,1158.43C1629.85,1160.54 1630.02,1162.64 1630.25,1164.74C1631.22,1173.67 1633.14,1182.52 1636.25,1190.96C1637.35,1193.97 1638.61,1196.92 1640.02,1199.8C1641.06,1201.91 1642.18,1203.98 1643.38,1206.01C1644.12,1207.25 1644.9,1208.47 1645.7,1209.68C1646.98,1211.58 1648.27,1213.48 1649.56,1215.38C1660.66,1231.72 1671.78,1248.05 1682.9,1264.38C1694.54,1281.44 1706.18,1298.5 1717.82,1315.56C1746.69,1357.84 1775.58,1400.1 1804.48,1442.36C1886.62,1562.49 1968.84,1682.56 2051.08,1802.63L2064.6,1822.37C2065.19,1831.51 2068.16,1840.62 2073.71,1848.73C2090.16,1872.78 2123.04,1878.95 2147.1,1862.5C2171.15,1846.05 2177.32,1813.16 2160.87,1789.11C2155.24,1780.89 2147.7,1774.76 2139.24,1770.9ZM2064.13,1852.68C2067.52,1852.68 2070.27,1855.44 2070.27,1858.83C2070.27,1862.22 2067.52,1864.97 2064.13,1864.97C2060.74,1864.97 2057.98,1862.22 2057.98,1858.83C2057.98,1855.44 2060.74,1852.68 2064.13,1852.68ZM2174.21,1777.54C2177.6,1777.54 2180.36,1780.29 2180.36,1783.68C2180.36,1787.07 2177.6,1789.83 2174.21,1789.83C2170.82,1789.83 2168.07,1787.07 2168.07,1783.68C2168.07,1780.29 2170.82,1777.54 2174.21,1777.54ZM1778.35,1079.34C1781.74,1079.34 1784.49,1082.1 1784.49,1085.49C1784.49,1088.88 1781.74,1091.63 1778.35,1091.63C1774.96,1091.63 1772.2,1088.88 1772.2,1085.49C1772.2,1082.1 1774.96,1079.34 1778.35,1079.34ZM1687.95,1001.11C1691.34,1001.11 1694.1,1003.86 1694.1,1007.25C1694.1,1010.64 1691.34,1013.39 1687.95,1013.39C1684.56,1013.39 1681.81,1010.64 1681.81,1007.25C1681.81,1003.86 1684.56,1001.11 1687.95,1001.11Z"/>
                <path d="M697.307,3506.22C699.025,3506.22 700.67,3506.91 701.874,3508.14C703.078,3509.37 703.739,3511.02 703.709,3512.74C703.661,3519.56 703.577,3529.33 703.458,3530.73C699.943,3571.94 665.336,3604.34 623.221,3604.34C581.32,3604.34 546.85,3572.27 543.041,3531.36C542.896,3529.8 542.795,3519.72 542.741,3512.75C542.709,3511.03 543.369,3509.37 544.573,3508.14C545.776,3506.92 547.423,3506.23 549.141,3506.23C553.682,3506.22 559.727,3506.22 564.214,3506.22C567.649,3506.22 570.472,3508.93 570.612,3512.37C570.944,3521.5 571.777,3536.41 573.04,3540.26L573.046,3540.28C573.208,3540.78 573.377,3541.26 573.554,3541.75L573.557,3541.76C573.674,3542.09 573.794,3542.41 573.916,3542.72L573.923,3542.74C574.109,3543.22 574.3,3543.7 574.499,3544.18L574.508,3544.2C574.639,3544.51 574.774,3544.82 574.911,3545.13L574.917,3545.15C574.986,3545.3 575.055,3545.46 575.126,3545.61L575.13,3545.62C575.27,3545.93 575.413,3546.24 575.559,3546.54L575.566,3546.56L575.572,3546.57C575.719,3546.87 575.868,3547.18 576.021,3547.48L576.023,3547.49C576.098,3547.64 576.175,3547.79 576.252,3547.94L576.264,3547.96C576.417,3548.26 576.573,3548.55 576.732,3548.85L576.74,3548.86L576.746,3548.87C576.825,3549.02 576.906,3549.17 576.986,3549.31L576.99,3549.32C577.153,3549.61 577.319,3549.91 577.487,3550.2L577.496,3550.21L577.506,3550.23C577.673,3550.52 577.842,3550.8 578.014,3551.09L578.026,3551.11C578.112,3551.25 578.198,3551.39 578.285,3551.53L578.291,3551.54L578.3,3551.56C578.474,3551.84 578.65,3552.11 578.829,3552.39L578.841,3552.41L578.852,3552.43C578.941,3552.56 579.031,3552.7 579.122,3552.84L579.267,3553.06L579.41,3553.27C579.502,3553.41 579.594,3553.54 579.687,3553.68L579.698,3553.69L579.712,3553.71C579.897,3553.98 580.085,3554.25 580.275,3554.51L580.289,3554.53L580.299,3554.55C580.393,3554.68 580.488,3554.81 580.584,3554.94L580.59,3554.95L580.602,3554.97C580.796,3555.23 580.991,3555.49 581.189,3555.75L581.205,3555.77L581.221,3555.79C581.419,3556.05 581.619,3556.31 581.822,3556.57L581.835,3556.59L581.843,3556.59C581.942,3556.72 582.043,3556.84 582.143,3556.97L582.156,3556.99L582.174,3557.01C582.377,3557.26 582.582,3557.51 582.79,3557.75L582.809,3557.78L582.825,3557.8C582.928,3557.92 583.031,3558.04 583.135,3558.16L583.303,3558.36L583.481,3558.56C583.586,3558.68 583.692,3558.8 583.798,3558.92L583.817,3558.94L583.838,3558.96C584.052,3559.2 584.268,3559.44 584.485,3559.67L584.507,3559.7L584.52,3559.71C584.628,3559.83 584.735,3559.94 584.844,3560.06L584.857,3560.07L584.88,3560.1C585.099,3560.33 585.321,3560.56 585.545,3560.78L585.569,3560.81L585.591,3560.83C585.702,3560.95 585.813,3561.06 585.924,3561.17L586.118,3561.36L586.274,3561.51L586.295,3561.53L586.304,3561.54C586.416,3561.65 586.529,3561.76 586.642,3561.87L586.663,3561.89L586.69,3561.92C586.918,3562.14 587.149,3562.35 587.381,3562.57L587.409,3562.59L587.429,3562.61C587.543,3562.72 587.658,3562.82 587.774,3562.93L587.787,3562.94L587.813,3562.96L587.963,3563.1L588.174,3563.29C588.291,3563.39 588.408,3563.49 588.526,3563.6L588.554,3563.62L588.582,3563.65C588.7,3563.75 588.819,3563.85 588.938,3563.95L589.157,3564.14L589.304,3564.26L589.333,3564.29L589.35,3564.3C589.468,3564.4 589.587,3564.5 589.707,3564.6L589.728,3564.62L589.76,3564.64C590.003,3564.84 590.248,3565.04 590.494,3565.23L590.527,3565.26L590.554,3565.28C590.675,3565.38 590.797,3565.47 590.919,3565.57L590.932,3565.58L590.959,3565.6L591.133,3565.73L591.313,3565.87L591.339,3565.89L591.351,3565.9C591.473,3565.99 591.597,3566.08 591.72,3566.18L591.75,3566.2L591.784,3566.22C591.91,3566.32 592.036,3566.41 592.162,3566.5L592.406,3566.68L592.544,3566.78L592.58,3566.8L592.604,3566.82C592.728,3566.91 592.853,3567 592.978,3567.08L593,3567.1L593.036,3567.12L593.185,3567.23L593.427,3567.39C593.555,3567.48 593.683,3567.57 593.812,3567.66L593.848,3567.68L593.882,3567.7C594.01,3567.79 594.138,3567.87 594.266,3567.96L594.276,3567.97L594.303,3567.98L594.504,3568.11L594.672,3568.22L594.708,3568.25L594.727,3568.26C594.855,3568.34 594.984,3568.42 595.113,3568.5L595.142,3568.52L595.183,3568.55C595.446,3568.71 595.712,3568.88 595.979,3569.04L596.02,3569.06L596.051,3569.08C596.181,3569.16 596.312,3569.24 596.443,3569.32L596.463,3569.33L596.502,3569.35L596.673,3569.45L596.878,3569.57L596.908,3569.59L596.92,3569.59C597.053,3569.67 597.186,3569.75 597.319,3569.82L597.357,3569.84L597.397,3569.87C597.531,3569.94 597.666,3570.01 597.801,3570.09L598.062,3570.23L598.218,3570.32L598.261,3570.34L598.287,3570.35C598.421,3570.43 598.555,3570.5 598.689,3570.57L598.718,3570.58L598.763,3570.61L598.909,3570.68L599.181,3570.82C599.319,3570.89 599.457,3570.96 599.595,3571.03L599.639,3571.06L599.676,3571.07C599.813,3571.14 599.949,3571.21 600.086,3571.28L600.103,3571.28L600.142,3571.3L600.339,3571.4L600.529,3571.49L600.57,3571.51L600.589,3571.52C600.726,3571.59 600.864,3571.65 601.002,3571.71L601.039,3571.73L601.085,3571.75C601.226,3571.82 601.367,3571.88 601.509,3571.95L601.793,3572.07L601.938,3572.14L601.986,3572.16L602.018,3572.17C602.157,3572.23 602.296,3572.29 602.436,3572.35L602.462,3572.37L602.51,3572.39L602.678,3572.46L602.911,3572.56L602.942,3572.57L602.952,3572.57C603.094,3572.63 603.236,3572.69 603.378,3572.75L603.423,3572.77L603.467,3572.78C603.609,3572.84 603.752,3572.9 603.894,3572.95L603.907,3572.96L603.942,3572.97L604.169,3573.06L604.345,3573.13L604.393,3573.15L604.419,3573.16C604.561,3573.21 604.704,3573.27 604.846,3573.32L604.882,3573.33L604.932,3573.35L605.075,3573.4L605.374,3573.51C605.521,3573.57 605.668,3573.62 605.816,3573.67L605.866,3573.69L605.905,3573.7C606.049,3573.75 606.194,3573.8 606.338,3573.85L606.361,3573.86L606.409,3573.87L606.602,3573.94L606.816,3574.01L606.859,3574.02L606.877,3574.03C607.022,3574.07 607.168,3574.12 607.315,3574.17L607.359,3574.18L607.408,3574.2C607.556,3574.24 607.704,3574.29 607.852,3574.33L607.86,3574.34L607.886,3574.34L608.149,3574.42L608.311,3574.47L608.364,3574.49L608.397,3574.5C608.544,3574.54 608.69,3574.58 608.838,3574.62L608.87,3574.63L608.924,3574.65L609.087,3574.69L609.352,3574.77L609.379,3574.77L609.387,3574.78C609.537,3574.82 609.687,3574.86 609.838,3574.89L609.889,3574.91L609.934,3574.92C610.083,3574.96 610.233,3575 610.382,3575.03L610.401,3575.04L610.446,3575.05L610.666,3575.11L610.864,3575.15L610.915,3575.16L610.94,3575.17C611.089,3575.21 611.239,3575.24 611.389,3575.28L611.431,3575.29L611.485,3575.3C611.638,3575.33 611.793,3575.37 611.947,3575.4L612.264,3575.47L612.414,3575.5L612.469,3575.51L612.508,3575.52C612.659,3575.55 612.81,3575.58 612.962,3575.61L612.991,3575.62L613.045,3575.63L613.232,3575.66L613.473,3575.71L613.514,3575.72L613.529,3575.72C613.683,3575.75 613.836,3575.78 613.99,3575.8L614.04,3575.81L614.09,3575.82C614.244,3575.85 614.399,3575.87 614.554,3575.9L614.567,3575.9L614.604,3575.91L614.858,3575.95L615.04,3575.98L615.096,3575.99L615.127,3575.99C615.28,3576.01 615.434,3576.04 615.588,3576.06L615.626,3576.07L615.683,3576.07L615.841,3576.1L616.163,3576.14C616.321,3576.16 616.479,3576.18 616.637,3576.2L616.693,3576.21L616.738,3576.21C616.893,3576.23 617.049,3576.25 617.204,3576.27L617.228,3576.27L617.28,3576.28L617.494,3576.3L617.715,3576.33L617.766,3576.33L617.788,3576.33C617.944,3576.35 618.101,3576.36 618.258,3576.38L618.305,3576.38L618.36,3576.39C618.519,3576.4 618.678,3576.42 618.838,3576.43L619.161,3576.46L619.329,3576.47L619.387,3576.47L619.425,3576.47C619.582,3576.49 619.739,3576.5 619.896,3576.51L619.93,3576.51L619.988,3576.51L620.169,3576.52L620.441,3576.54L620.475,3576.54L620.487,3576.54C620.647,3576.55 620.807,3576.56 620.968,3576.56L621.022,3576.57L621.072,3576.57C621.232,3576.57 621.392,3576.58 621.552,3576.58L621.57,3576.58L621.616,3576.59L621.86,3576.59L622.063,3576.6L622.119,3576.6L622.147,3576.6C622.307,3576.6 622.466,3576.6 622.626,3576.61L622.669,3576.61L622.728,3576.61L622.88,3576.61L623.221,3576.61C623.221,3576.61 623.563,3576.61 623.563,3576.61L623.715,3576.61L623.773,3576.61L623.817,3576.61C623.976,3576.6 624.136,3576.6 624.295,3576.6L624.324,3576.6L624.38,3576.6L624.583,3576.59L624.827,3576.59L624.873,3576.58L624.891,3576.58C625.051,3576.58 625.211,3576.57 625.371,3576.57L625.421,3576.57L625.475,3576.56C625.636,3576.56 625.796,3576.55 625.956,3576.54L625.967,3576.54L626.002,3576.54L626.274,3576.52L626.455,3576.51L626.512,3576.51L626.546,3576.51C626.704,3576.5 626.861,3576.49 627.018,3576.47L627.056,3576.47L627.114,3576.47L627.281,3576.46L627.574,3576.43L627.598,3576.43L627.605,3576.43C627.764,3576.42 627.924,3576.4 628.083,3576.39L628.138,3576.38L628.185,3576.38C628.342,3576.36 628.499,3576.35 628.655,3576.33L628.677,3576.33L628.728,3576.33L628.949,3576.3L629.162,3576.28L629.214,3576.27L629.238,3576.27C629.394,3576.25 629.55,3576.23 629.705,3576.21L629.75,3576.21L629.805,3576.2C629.964,3576.18 630.122,3576.16 630.28,3576.14L630.284,3576.14L630.301,3576.14L630.601,3576.1L630.76,3576.07L630.817,3576.07L630.855,3576.06C631.009,3576.04 631.162,3576.01 631.316,3575.99L631.347,3575.99L631.403,3575.98L631.585,3575.95L631.838,3575.91L631.876,3575.9L631.889,3575.9C632.044,3575.88 632.199,3575.85 632.353,3575.82L632.403,3575.81L632.453,3575.8C632.607,3575.78 632.76,3575.75 632.914,3575.72L632.929,3575.72L632.97,3575.71L633.211,3575.66L633.398,3575.63L633.452,3575.62L633.481,3575.61C633.633,3575.58 633.784,3575.55 633.935,3575.52L633.974,3575.51L634.029,3575.5L634.179,3575.47L634.486,3575.4L634.494,3575.4L634.496,3575.4C634.65,3575.37 634.805,3575.33 634.958,3575.3L635.012,3575.29L635.054,3575.28C635.204,3575.24 635.354,3575.21 635.503,3575.17L635.528,3575.16L635.579,3575.15L635.776,3575.11L635.997,3575.05L636.042,3575.04L636.061,3575.03C636.21,3575 636.36,3574.96 636.509,3574.92L636.554,3574.91L636.605,3574.89C636.756,3574.86 636.906,3574.82 637.056,3574.78L637.064,3574.77L637.091,3574.77L637.356,3574.69L637.519,3574.65L637.572,3574.63L637.605,3574.62C637.752,3574.58 637.899,3574.54 638.046,3574.5L638.078,3574.49L638.131,3574.47L638.294,3574.42L638.557,3574.34L638.582,3574.34L638.59,3574.33C638.739,3574.29 638.887,3574.24 639.035,3574.2L639.084,3574.18L639.128,3574.17C639.275,3574.12 639.421,3574.07 639.566,3574.03L639.584,3574.02L639.627,3574.01L639.841,3573.94L640.034,3573.87L640.082,3573.86L640.105,3573.85C640.249,3573.8 640.394,3573.75 640.538,3573.7L640.577,3573.69L640.627,3573.67C640.775,3573.62 640.922,3573.57 641.069,3573.51L641.07,3573.51L641.075,3573.51L641.368,3573.4L641.51,3573.35L641.561,3573.33L641.597,3573.32C641.739,3573.27 641.881,3573.21 642.023,3573.16L642.049,3573.15L642.098,3573.13L642.274,3573.06L642.501,3572.97L642.536,3572.96L642.549,3572.95C642.691,3572.9 642.834,3572.84 642.976,3572.78L643.02,3572.77L643.064,3572.75C643.207,3572.69 643.349,3572.63 643.491,3572.57L643.501,3572.57L643.532,3572.56L643.765,3572.46L643.933,3572.39L643.981,3572.37L644.007,3572.35C644.147,3572.29 644.286,3572.23 644.425,3572.17L644.457,3572.16L644.505,3572.14L644.649,3572.07L644.922,3571.95L644.932,3571.95L644.934,3571.95C645.076,3571.88 645.217,3571.82 645.358,3571.75L645.404,3571.73L645.441,3571.71C645.579,3571.65 645.716,3571.59 645.854,3571.52L645.873,3571.51L645.914,3571.49L646.104,3571.4L646.301,3571.3L646.34,3571.28L646.357,3571.28C646.494,3571.21 646.63,3571.14 646.766,3571.07L646.804,3571.06L646.848,3571.03C646.986,3570.96 647.124,3570.89 647.262,3570.82L647.266,3570.82L647.279,3570.82L647.534,3570.68L647.68,3570.61L647.725,3570.58L647.754,3570.57C647.888,3570.5 648.022,3570.43 648.156,3570.35L648.181,3570.34L648.225,3570.32L648.38,3570.23L648.614,3570.11L648.635,3570.09L648.642,3570.09C648.777,3570.01 648.912,3569.94 649.046,3569.87L649.086,3569.84L649.124,3569.82C649.257,3569.75 649.39,3569.67 649.523,3569.59L649.535,3569.59L649.565,3569.57L649.77,3569.45L649.941,3569.35L649.98,3569.33L650,3569.32C650.131,3569.24 650.262,3569.16 650.392,3569.08L650.423,3569.06L650.464,3569.04C650.731,3568.88 650.996,3568.71 651.26,3568.55L651.301,3568.52L651.33,3568.5C651.459,3568.42 651.588,3568.34 651.716,3568.26L651.735,3568.25L651.771,3568.22L651.939,3568.11L652.14,3567.98L652.166,3567.97L652.177,3567.96C652.305,3567.87 652.433,3567.79 652.561,3567.7L652.595,3567.68L652.631,3567.66C652.76,3567.57 652.888,3567.48 653.016,3567.39L653.021,3567.39L653.036,3567.38L653.258,3567.23L653.407,3567.12L653.443,3567.1L653.465,3567.08C653.59,3567 653.715,3566.91 653.839,3566.82L653.863,3566.8L653.899,3566.78L654.036,3566.68L654.277,3566.5L654.28,3566.5L654.281,3566.5C654.407,3566.41 654.533,3566.32 654.659,3566.22L654.693,3566.2L654.723,3566.18C654.846,3566.08 654.969,3565.99 655.092,3565.9L655.104,3565.89L655.13,3565.87L655.31,3565.73L655.484,3565.6L655.511,3565.58L655.524,3565.57C655.646,3565.47 655.767,3565.38 655.888,3565.28L655.916,3565.26L655.948,3565.23C656.195,3565.04 656.44,3564.84 656.682,3564.64L656.715,3564.62L656.736,3564.6C656.856,3564.5 656.974,3564.4 657.093,3564.3L657.109,3564.29L657.139,3564.26L657.286,3564.14L657.49,3563.97L657.501,3563.96L657.505,3563.95C657.624,3563.85 657.743,3563.75 657.861,3563.65L657.889,3563.62L657.916,3563.6C658.035,3563.49 658.152,3563.39 658.269,3563.29L658.274,3563.28L658.287,3563.27L658.48,3563.1L658.63,3562.96L658.656,3562.94L658.669,3562.93C658.784,3562.82 658.899,3562.72 659.014,3562.61L659.034,3562.59L659.062,3562.57C659.294,3562.35 659.525,3562.14 659.753,3561.92L659.78,3561.89L659.801,3561.87C659.914,3561.76 660.026,3561.65 660.138,3561.54L660.148,3561.53L660.168,3561.51L660.325,3561.36L660.499,3561.19L660.513,3561.17L660.518,3561.17C660.63,3561.06 660.742,3560.95 660.852,3560.83L660.874,3560.81L660.898,3560.78C661.122,3560.56 661.343,3560.33 661.563,3560.1L661.585,3560.07L661.599,3560.06C661.707,3559.94 661.815,3559.83 661.922,3559.71L661.936,3559.7L661.957,3559.67C662.175,3559.44 662.391,3559.2 662.605,3558.96L662.626,3558.94L662.645,3558.92C662.751,3558.8 662.857,3558.68 662.962,3558.56L662.966,3558.56L662.974,3558.55L663.139,3558.36L663.288,3558.18L663.301,3558.17L663.308,3558.16C663.412,3558.04 663.515,3557.92 663.618,3557.8L663.634,3557.78L663.653,3557.75C663.86,3557.51 664.065,3557.26 664.268,3557.01L664.287,3556.99L664.299,3556.97C664.4,3556.85 664.5,3556.72 664.6,3556.59L664.608,3556.59L664.621,3556.57C664.824,3556.31 665.024,3556.05 665.222,3555.79L665.238,3555.77L665.253,3555.75C665.451,3555.49 665.647,3555.23 665.84,3554.97L665.853,3554.95L665.859,3554.94C665.955,3554.81 666.05,3554.68 666.144,3554.55L666.154,3554.53L666.168,3554.51C666.358,3554.25 666.546,3553.98 666.731,3553.71L666.745,3553.69L666.756,3553.68C666.849,3553.54 666.941,3553.41 667.033,3553.27L667.035,3553.27L667.039,3553.26L667.176,3553.06L667.318,3552.84L667.32,3552.84L667.321,3552.84C667.412,3552.7 667.502,3552.56 667.591,3552.43L667.601,3552.41L667.613,3552.39C667.792,3552.11 667.969,3551.84 668.142,3551.56L668.152,3551.54L668.158,3551.53C668.245,3551.39 668.331,3551.25 668.416,3551.11L668.421,3551.1L668.429,3551.09C668.601,3550.8 668.77,3550.52 668.937,3550.23L668.947,3550.21L668.955,3550.2C669.124,3549.91 669.29,3549.61 669.453,3549.32L669.455,3549.31L669.456,3549.31C669.537,3549.17 669.618,3549.02 669.697,3548.87L669.703,3548.86L669.711,3548.85C669.87,3548.55 670.026,3548.26 670.179,3547.96L670.186,3547.95L670.191,3547.94C670.268,3547.79 670.344,3547.64 670.42,3547.49L670.421,3547.49L670.422,3547.48C670.574,3547.18 670.724,3546.87 670.871,3546.57L670.877,3546.56L670.883,3546.54C671.03,3546.24 671.173,3545.93 671.313,3545.62L671.316,3545.62L671.317,3545.61C671.388,3545.46 671.457,3545.3 671.526,3545.15L671.528,3545.14L671.532,3545.13C671.669,3544.82 671.804,3544.51 671.935,3544.2L671.94,3544.19L671.944,3544.18C672.142,3543.7 672.334,3543.22 672.519,3542.74L672.523,3542.74L672.526,3542.72C672.649,3542.41 672.769,3542.09 672.885,3541.76L672.888,3541.76L672.889,3541.75C673.066,3541.26 673.235,3540.78 673.397,3540.28L673.4,3540.27L673.403,3540.26C674.666,3536.41 675.498,3521.5 675.842,3512.37C675.982,3508.94 678.8,3506.24 682.228,3506.24C686.717,3506.22 692.765,3506.22 697.307,3506.22ZM556.721,3513.07C560.112,3513.07 562.865,3515.82 562.865,3519.21C562.865,3522.6 560.112,3525.36 556.721,3525.36C553.33,3525.36 550.577,3522.6 550.577,3519.21C550.577,3515.82 553.33,3513.07 556.721,3513.07ZM689.5,3513.07C692.891,3513.07 695.644,3515.82 695.644,3519.21C695.644,3522.6 692.891,3525.36 689.5,3525.36C686.109,3525.36 683.356,3522.6 683.356,3519.21C683.356,3515.82 686.109,3513.07 689.5,3513.07Z" style="fill:rgb(84,0,178);fill-opacity:0.701961;"/>
                <path d="M1868.5,3502.58C1870.21,3502.58 1871.86,3503.27 1873.06,3504.5C1874.27,3505.72 1874.93,3507.38 1874.9,3509.1C1874.85,3515.92 1874.77,3525.68 1874.65,3527.09C1871.13,3568.3 1836.52,3600.7 1794.41,3600.7C1752.51,3600.7 1718.04,3568.62 1714.23,3527.71C1714.08,3526.16 1713.98,3516.07 1713.93,3509.1C1713.9,3507.39 1714.56,3505.73 1715.76,3504.5C1716.97,3503.27 1718.61,3502.58 1720.33,3502.58C1724.87,3502.58 1730.91,3502.58 1735.4,3502.58C1738.84,3502.58 1741.66,3505.29 1741.8,3508.72C1742.13,3517.86 1742.97,3532.77 1744.23,3536.62L1744.23,3536.64C1744.4,3537.13 1744.57,3537.62 1744.74,3538.11L1744.75,3538.12C1744.86,3538.44 1744.98,3538.76 1745.11,3539.08L1745.11,3539.1C1745.3,3539.58 1745.49,3540.06 1745.69,3540.53L1745.7,3540.55C1745.83,3540.87 1745.96,3541.18 1746.1,3541.49L1746.11,3541.5C1746.17,3541.66 1746.24,3541.81 1746.31,3541.97L1746.32,3541.98C1746.46,3542.28 1746.6,3542.59 1746.75,3542.9L1746.75,3542.91L1746.76,3542.92C1746.91,3543.23 1747.06,3543.53 1747.21,3543.84L1747.21,3543.84C1747.29,3543.99 1747.36,3544.14 1747.44,3544.29L1747.45,3544.32C1747.61,3544.61 1747.76,3544.91 1747.92,3545.2L1747.93,3545.22L1747.93,3545.23C1748.01,3545.38 1748.09,3545.52 1748.17,3545.67L1748.18,3545.68C1748.34,3545.97 1748.51,3546.26 1748.68,3546.55L1748.68,3546.57L1748.69,3546.59C1748.86,3546.87 1749.03,3547.16 1749.2,3547.44L1749.22,3547.46C1749.3,3547.6 1749.39,3547.74 1749.47,3547.89L1749.48,3547.89L1749.49,3547.91C1749.66,3548.19 1749.84,3548.47 1750.02,3548.75L1750.03,3548.77L1750.04,3548.78C1750.13,3548.92 1750.22,3549.06 1750.31,3549.2L1750.45,3549.41L1750.6,3549.63C1750.69,3549.76 1750.78,3549.9 1750.88,3550.03L1750.89,3550.05L1750.9,3550.07C1751.09,3550.34 1751.27,3550.61 1751.46,3550.87L1751.48,3550.89L1751.49,3550.9C1751.58,3551.04 1751.68,3551.17 1751.77,3551.3L1751.78,3551.31L1751.79,3551.32C1751.98,3551.59 1752.18,3551.85 1752.38,3552.11L1752.39,3552.13L1752.41,3552.15C1752.61,3552.41 1752.81,3552.67 1753.01,3552.92L1753.02,3552.94L1753.03,3552.95C1753.13,3553.08 1753.23,3553.2 1753.33,3553.33L1753.34,3553.34L1753.36,3553.36C1753.57,3553.61 1753.77,3553.86 1753.98,3554.11L1754,3554.13L1754.01,3554.15C1754.12,3554.27 1754.22,3554.39 1754.32,3554.51L1754.33,3554.52L1754.34,3554.54L1754.49,3554.71L1754.67,3554.91C1754.77,3555.03 1754.88,3555.15 1754.99,3555.27L1755.01,3555.3L1755.03,3555.32C1755.24,3555.56 1755.46,3555.8 1755.67,3556.03L1755.69,3556.05L1755.71,3556.07C1755.82,3556.18 1755.92,3556.3 1756.03,3556.41L1756.05,3556.43L1756.07,3556.45C1756.29,3556.68 1756.51,3556.91 1756.73,3557.14L1756.76,3557.17L1756.78,3557.19C1756.89,3557.3 1757,3557.41 1757.11,3557.52L1757.31,3557.72L1757.46,3557.87L1757.48,3557.89L1757.49,3557.9C1757.61,3558.01 1757.72,3558.12 1757.83,3558.23L1757.85,3558.25L1757.88,3558.27C1758.11,3558.49 1758.34,3558.71 1758.57,3558.92L1758.6,3558.95L1758.62,3558.97C1758.73,3559.07 1758.85,3559.18 1758.96,3559.28L1758.98,3559.3L1759,3559.32L1759.15,3559.45L1759.36,3559.64C1759.48,3559.75 1759.6,3559.85 1759.72,3559.95L1759.74,3559.98L1759.77,3560C1759.89,3560.11 1760.01,3560.21 1760.13,3560.31L1760.35,3560.5L1760.49,3560.62L1760.52,3560.64L1760.54,3560.66C1760.66,3560.76 1760.78,3560.86 1760.89,3560.95L1760.92,3560.97L1760.95,3561C1761.19,3561.2 1761.44,3561.39 1761.68,3561.59L1761.72,3561.62L1761.74,3561.64C1761.86,3561.73 1761.99,3561.83 1762.11,3561.92L1762.12,3561.93L1762.15,3561.95L1762.32,3562.09L1762.5,3562.22L1762.53,3562.24L1762.54,3562.25C1762.66,3562.35 1762.79,3562.44 1762.91,3562.53L1762.94,3562.55L1762.97,3562.58C1763.1,3562.67 1763.22,3562.76 1763.35,3562.86L1763.6,3563.03L1763.73,3563.13L1763.77,3563.16L1763.79,3563.18C1763.92,3563.26 1764.04,3563.35 1764.17,3563.44L1764.19,3563.45L1764.22,3563.48L1764.37,3563.58L1764.62,3563.75C1764.74,3563.84 1764.87,3563.93 1765,3564.01L1765.04,3564.04L1765.07,3564.06C1765.2,3564.14 1765.33,3564.23 1765.45,3564.31L1765.47,3564.32L1765.49,3564.34L1765.69,3564.47L1765.86,3564.58L1765.9,3564.6L1765.91,3564.61C1766.04,3564.7 1766.17,3564.78 1766.3,3564.86L1766.33,3564.88L1766.37,3564.9C1766.63,3565.07 1766.9,3565.23 1767.17,3565.39L1767.21,3565.42L1767.24,3565.44C1767.37,3565.51 1767.5,3565.59 1767.63,3565.67L1767.65,3565.68L1767.69,3565.7L1767.86,3565.81L1768.07,3565.93L1768.1,3565.94L1768.11,3565.95C1768.24,3566.03 1768.37,3566.1 1768.51,3566.18L1768.55,3566.2L1768.59,3566.22C1768.72,3566.3 1768.85,3566.37 1768.99,3566.45L1769.25,3566.59L1769.41,3566.67L1769.45,3566.7L1769.48,3566.71C1769.61,3566.78 1769.74,3566.85 1769.88,3566.92L1769.91,3566.94L1769.95,3566.96L1770.1,3567.04L1770.37,3567.18C1770.51,3567.25 1770.64,3567.32 1770.78,3567.39L1770.83,3567.41L1770.87,3567.43C1771,3567.5 1771.14,3567.57 1771.27,3567.63L1771.29,3567.64L1771.33,3567.66L1771.53,3567.76L1771.72,3567.85L1771.76,3567.87L1771.78,3567.88C1771.91,3567.94 1772.05,3568.01 1772.19,3568.07L1772.23,3568.09L1772.27,3568.11C1772.41,3568.17 1772.56,3568.24 1772.7,3568.3L1772.98,3568.43L1773.13,3568.49L1773.17,3568.51L1773.21,3568.53C1773.35,3568.59 1773.48,3568.65 1773.62,3568.71L1773.65,3568.72L1773.7,3568.74L1773.87,3568.81L1774.1,3568.91L1774.13,3568.92L1774.14,3568.93C1774.28,3568.99 1774.42,3569.05 1774.57,3569.1L1774.61,3569.12L1774.65,3569.14C1774.8,3569.2 1774.94,3569.25 1775.08,3569.31L1775.1,3569.32L1775.13,3569.33L1775.36,3569.42L1775.53,3569.49L1775.58,3569.5L1775.61,3569.51C1775.75,3569.57 1775.89,3569.62 1776.03,3569.68L1776.07,3569.69L1776.12,3569.71L1776.26,3569.76L1776.56,3569.87C1776.71,3569.92 1776.86,3569.97 1777,3570.02L1777.05,3570.04L1777.09,3570.06C1777.24,3570.11 1777.38,3570.16 1777.53,3570.2L1777.55,3570.21L1777.6,3570.23L1777.79,3570.29L1778,3570.36L1778.05,3570.38L1778.07,3570.38C1778.21,3570.43 1778.36,3570.48 1778.5,3570.52L1778.55,3570.54L1778.6,3570.55C1778.74,3570.6 1778.89,3570.64 1779.04,3570.69L1779.05,3570.69L1779.07,3570.7L1779.34,3570.78L1779.5,3570.83L1779.55,3570.84L1779.59,3570.85C1779.73,3570.89 1779.88,3570.94 1780.03,3570.98L1780.06,3570.99L1780.11,3571L1780.28,3571.05L1780.54,3571.12L1780.57,3571.13L1780.58,3571.13C1780.73,3571.17 1780.88,3571.21 1781.03,3571.25L1781.08,3571.26L1781.12,3571.28C1781.27,3571.32 1781.42,3571.35 1781.57,3571.39L1781.59,3571.39L1781.63,3571.41L1781.86,3571.46L1782.05,3571.51L1782.1,3571.52L1782.13,3571.53C1782.28,3571.56 1782.43,3571.6 1782.58,3571.63L1782.62,3571.64L1782.67,3571.65C1782.83,3571.69 1782.98,3571.72 1783.13,3571.76L1783.45,3571.83L1783.6,3571.86L1783.66,3571.87L1783.7,3571.88C1783.85,3571.91 1784,3571.94 1784.15,3571.97L1784.18,3571.97L1784.23,3571.98L1784.42,3572.02L1784.66,3572.07L1784.7,3572.07L1784.72,3572.08C1784.87,3572.11 1785.02,3572.13 1785.18,3572.16L1785.23,3572.17L1785.28,3572.18C1785.43,3572.2 1785.59,3572.23 1785.74,3572.26L1785.76,3572.26L1785.79,3572.26L1786.05,3572.31L1786.23,3572.33L1786.28,3572.34L1786.32,3572.35C1786.47,3572.37 1786.62,3572.39 1786.78,3572.42L1786.82,3572.42L1786.87,3572.43L1787.03,3572.45L1787.35,3572.5C1787.51,3572.52 1787.67,3572.54 1787.83,3572.56L1787.88,3572.57L1787.93,3572.57C1788.08,3572.59 1788.24,3572.61 1788.39,3572.62L1788.42,3572.63L1788.47,3572.63L1788.68,3572.66L1788.9,3572.68L1788.95,3572.69L1788.98,3572.69C1789.13,3572.7 1789.29,3572.72 1789.45,3572.73L1789.49,3572.74L1789.55,3572.74C1789.71,3572.76 1789.87,3572.77 1790.03,3572.79L1790.35,3572.81L1790.52,3572.82L1790.58,3572.83L1790.61,3572.83C1790.77,3572.84 1790.93,3572.85 1791.09,3572.86L1791.12,3572.86L1791.18,3572.87L1791.36,3572.88L1791.63,3572.89L1791.66,3572.89L1791.67,3572.9C1791.84,3572.9 1792,3572.91 1792.16,3572.92L1792.21,3572.92L1792.26,3572.92C1792.42,3572.93 1792.58,3572.93 1792.74,3572.94L1792.76,3572.94L1792.8,3572.94L1793.05,3572.95L1793.25,3572.95L1793.31,3572.95L1793.34,3572.95C1793.5,3572.96 1793.65,3572.96 1793.81,3572.96L1793.86,3572.96L1793.92,3572.96L1794.07,3572.96L1794.41,3572.97C1794.41,3572.97 1794.75,3572.96 1794.75,3572.96L1794.9,3572.96L1794.96,3572.96L1795.01,3572.96C1795.16,3572.96 1795.32,3572.96 1795.48,3572.95L1795.51,3572.95L1795.57,3572.95L1795.77,3572.95L1796.02,3572.94L1796.06,3572.94L1796.08,3572.94C1796.24,3572.93 1796.4,3572.93 1796.56,3572.92L1796.61,3572.92L1796.66,3572.92C1796.82,3572.91 1796.98,3572.9 1797.14,3572.9L1797.16,3572.89L1797.19,3572.89L1797.46,3572.88L1797.64,3572.87L1797.7,3572.86L1797.74,3572.86C1797.89,3572.85 1798.05,3572.84 1798.21,3572.83L1798.24,3572.83L1798.3,3572.82L1798.47,3572.81L1798.76,3572.79L1798.79,3572.79L1798.79,3572.79C1798.95,3572.77 1799.11,3572.76 1799.27,3572.74L1799.33,3572.74L1799.37,3572.73C1799.53,3572.72 1799.69,3572.7 1799.84,3572.69L1799.87,3572.69L1799.92,3572.68L1800.14,3572.66L1800.35,3572.63L1800.4,3572.63L1800.43,3572.62C1800.58,3572.61 1800.74,3572.59 1800.89,3572.57L1800.94,3572.57L1800.99,3572.56C1801.15,3572.54 1801.31,3572.52 1801.47,3572.5L1801.47,3572.5L1801.49,3572.49L1801.79,3572.45L1801.95,3572.43L1802.01,3572.42L1802.04,3572.42C1802.2,3572.39 1802.35,3572.37 1802.5,3572.35L1802.54,3572.34L1802.59,3572.33L1802.77,3572.31L1803.03,3572.26L1803.06,3572.26L1803.08,3572.26C1803.23,3572.23 1803.39,3572.2 1803.54,3572.18L1803.59,3572.17L1803.64,3572.16C1803.8,3572.13 1803.95,3572.1 1804.1,3572.08L1804.12,3572.07L1804.16,3572.07L1804.4,3572.02L1804.59,3571.98L1804.64,3571.97L1804.67,3571.97C1804.82,3571.94 1804.97,3571.91 1805.12,3571.88L1805.16,3571.87L1805.22,3571.86L1805.37,3571.83L1805.67,3571.76L1805.68,3571.76L1805.68,3571.76C1805.84,3571.72 1805.99,3571.69 1806.15,3571.65L1806.2,3571.64L1806.24,3571.63C1806.39,3571.6 1806.54,3571.56 1806.69,3571.53L1806.72,3571.52L1806.77,3571.51L1806.97,3571.46L1807.18,3571.41L1807.23,3571.39L1807.25,3571.39C1807.4,3571.35 1807.55,3571.32 1807.7,3571.28L1807.74,3571.26L1807.79,3571.25C1807.94,3571.21 1808.09,3571.17 1808.24,3571.13L1808.25,3571.13L1808.28,3571.12L1808.54,3571.05L1808.71,3571L1808.76,3570.99L1808.79,3570.98C1808.94,3570.94 1809.09,3570.89 1809.23,3570.85L1809.27,3570.84L1809.32,3570.83L1809.48,3570.78L1809.75,3570.7L1809.77,3570.69L1809.78,3570.69C1809.93,3570.64 1810.08,3570.6 1810.22,3570.55L1810.27,3570.54L1810.32,3570.52C1810.46,3570.48 1810.61,3570.43 1810.75,3570.38L1810.77,3570.38L1810.82,3570.36L1811.03,3570.29L1811.22,3570.23L1811.27,3570.21L1811.29,3570.2C1811.44,3570.16 1811.58,3570.11 1811.73,3570.06L1811.77,3570.04L1811.82,3570.02C1811.96,3569.97 1812.11,3569.92 1812.26,3569.87L1812.26,3569.87L1812.26,3569.87L1812.56,3569.76L1812.7,3569.71L1812.75,3569.69L1812.79,3569.68C1812.93,3569.62 1813.07,3569.57 1813.21,3569.51L1813.24,3569.5L1813.29,3569.49L1813.46,3569.42L1813.69,3569.33L1813.72,3569.32L1813.74,3569.31C1813.88,3569.25 1814.02,3569.2 1814.16,3569.14L1814.21,3569.12L1814.25,3569.1C1814.39,3569.05 1814.54,3568.99 1814.68,3568.93L1814.69,3568.92L1814.72,3568.91L1814.95,3568.81L1815.12,3568.74L1815.17,3568.72L1815.19,3568.71C1815.34,3568.65 1815.47,3568.59 1815.61,3568.53L1815.65,3568.51L1815.69,3568.49L1815.84,3568.43L1816.11,3568.31L1816.12,3568.3L1816.12,3568.3C1816.26,3568.24 1816.4,3568.17 1816.55,3568.11L1816.59,3568.09L1816.63,3568.07C1816.77,3568.01 1816.9,3567.94 1817.04,3567.88L1817.06,3567.87L1817.1,3567.85L1817.29,3567.76L1817.49,3567.66L1817.53,3567.64L1817.55,3567.63C1817.68,3567.57 1817.82,3567.5 1817.95,3567.43L1817.99,3567.41L1818.04,3567.39C1818.17,3567.32 1818.31,3567.25 1818.45,3567.18L1818.45,3567.18L1818.47,3567.17L1818.72,3567.04L1818.87,3566.96L1818.91,3566.94L1818.94,3566.92C1819.08,3566.85 1819.21,3566.78 1819.34,3566.71L1819.37,3566.7L1819.41,3566.67L1819.57,3566.59L1819.8,3566.46L1819.82,3566.45L1819.83,3566.45C1819.97,3566.37 1820.1,3566.3 1820.23,3566.22L1820.27,3566.2L1820.31,3566.18C1820.44,3566.1 1820.58,3566.03 1820.71,3565.95L1820.72,3565.94L1820.75,3565.93L1820.96,3565.81L1821.13,3565.7L1821.17,3565.68L1821.19,3565.67C1821.32,3565.59 1821.45,3565.52 1821.58,3565.44L1821.61,3565.42L1821.65,3565.39C1821.92,3565.23 1822.18,3565.07 1822.45,3564.9L1822.49,3564.88L1822.52,3564.86C1822.65,3564.78 1822.78,3564.7 1822.9,3564.61L1822.92,3564.6L1822.96,3564.58L1823.13,3564.47L1823.33,3564.34L1823.36,3564.32L1823.37,3564.31C1823.49,3564.23 1823.62,3564.14 1823.75,3564.06L1823.78,3564.04L1823.82,3564.01C1823.95,3563.93 1824.08,3563.84 1824.2,3563.75L1824.21,3563.75L1824.22,3563.74L1824.45,3563.58L1824.6,3563.48L1824.63,3563.45L1824.65,3563.44C1824.78,3563.35 1824.9,3563.26 1825.03,3563.18L1825.05,3563.16L1825.09,3563.13L1825.23,3563.03L1825.47,3562.86L1825.47,3562.86L1825.47,3562.86C1825.6,3562.76 1825.72,3562.67 1825.85,3562.58L1825.88,3562.55L1825.91,3562.53C1826.03,3562.44 1826.16,3562.35 1826.28,3562.25L1826.29,3562.24L1826.32,3562.22L1826.5,3562.09L1826.67,3561.95L1826.7,3561.93L1826.71,3561.92C1826.83,3561.83 1826.96,3561.73 1827.08,3561.64L1827.1,3561.62L1827.14,3561.59C1827.38,3561.39 1827.63,3561.2 1827.87,3561L1827.9,3560.97L1827.92,3560.95C1828.04,3560.86 1828.16,3560.76 1828.28,3560.66L1828.3,3560.64L1828.33,3560.62L1828.47,3560.5L1828.68,3560.32L1828.69,3560.31L1828.69,3560.31C1828.81,3560.21 1828.93,3560.11 1829.05,3560L1829.08,3559.98L1829.11,3559.95C1829.22,3559.85 1829.34,3559.75 1829.46,3559.64L1829.46,3559.64L1829.48,3559.63L1829.67,3559.45L1829.82,3559.32L1829.84,3559.3L1829.86,3559.28C1829.97,3559.18 1830.09,3559.07 1830.2,3558.97L1830.22,3558.95L1830.25,3558.92C1830.48,3558.71 1830.71,3558.49 1830.94,3558.27L1830.97,3558.25L1830.99,3558.23C1831.1,3558.12 1831.22,3558.01 1831.33,3557.9L1831.34,3557.89L1831.36,3557.87L1831.51,3557.72L1831.69,3557.54L1831.7,3557.53L1831.71,3557.52C1831.82,3557.41 1831.93,3557.3 1832.04,3557.19L1832.06,3557.17L1832.09,3557.14C1832.31,3556.91 1832.53,3556.68 1832.75,3556.45L1832.77,3556.43L1832.79,3556.41C1832.9,3556.3 1833,3556.18 1833.11,3556.07L1833.12,3556.05L1833.15,3556.03C1833.36,3555.8 1833.58,3555.56 1833.79,3555.32L1833.81,3555.3L1833.83,3555.27C1833.94,3555.16 1834.05,3555.03 1834.15,3554.91L1834.15,3554.91L1834.16,3554.9L1834.33,3554.71L1834.48,3554.54L1834.49,3554.52L1834.5,3554.51C1834.6,3554.39 1834.7,3554.27 1834.81,3554.15L1834.82,3554.13L1834.84,3554.11C1835.05,3553.86 1835.25,3553.61 1835.46,3553.36L1835.48,3553.34L1835.49,3553.33C1835.59,3553.2 1835.69,3553.08 1835.79,3552.95L1835.8,3552.94L1835.81,3552.92C1836.01,3552.67 1836.21,3552.41 1836.41,3552.15L1836.43,3552.13L1836.44,3552.11C1836.64,3551.85 1836.84,3551.59 1837.03,3551.32L1837.04,3551.31L1837.05,3551.3C1837.14,3551.17 1837.24,3551.04 1837.33,3550.9L1837.34,3550.89L1837.36,3550.87C1837.55,3550.61 1837.73,3550.34 1837.92,3550.07L1837.93,3550.05L1837.94,3550.03C1838.04,3549.9 1838.13,3549.76 1838.22,3549.63L1838.22,3549.62L1838.23,3549.62L1838.36,3549.41L1838.51,3549.2L1838.51,3549.2L1838.51,3549.2C1838.6,3549.06 1838.69,3548.92 1838.78,3548.78L1838.79,3548.77L1838.8,3548.75C1838.98,3548.47 1839.16,3548.19 1839.33,3547.91L1839.34,3547.89L1839.35,3547.89C1839.43,3547.74 1839.52,3547.6 1839.61,3547.46L1839.61,3547.46L1839.62,3547.44C1839.79,3547.16 1839.96,3546.87 1840.12,3546.59L1840.13,3546.57L1840.14,3546.55C1840.31,3546.26 1840.48,3545.97 1840.64,3545.68L1840.64,3545.67L1840.64,3545.67C1840.73,3545.52 1840.81,3545.38 1840.88,3545.23L1840.89,3545.22L1840.9,3545.2C1841.06,3544.91 1841.21,3544.61 1841.37,3544.32L1841.37,3544.3L1841.38,3544.29C1841.46,3544.14 1841.53,3543.99 1841.61,3543.84L1841.61,3543.84L1841.61,3543.84C1841.76,3543.53 1841.91,3543.23 1842.06,3542.92L1842.07,3542.91L1842.07,3542.9C1842.22,3542.59 1842.36,3542.28 1842.5,3541.98L1842.5,3541.97L1842.51,3541.97C1842.58,3541.81 1842.64,3541.66 1842.71,3541.5L1842.72,3541.5L1842.72,3541.49C1842.86,3541.18 1842.99,3540.87 1843.12,3540.55L1843.13,3540.54L1843.13,3540.53C1843.33,3540.06 1843.52,3539.58 1843.71,3539.1L1843.71,3539.09L1843.72,3539.08C1843.84,3538.76 1843.96,3538.44 1844.07,3538.12L1844.08,3538.11L1844.08,3538.11C1844.25,3537.62 1844.42,3537.13 1844.59,3536.64L1844.59,3536.63L1844.59,3536.62C1845.86,3532.76 1846.94,3517.83 1847.4,3508.69C1847.55,3505.28 1850.36,3502.59 1853.78,3502.59C1858.17,3502.58 1864.05,3502.58 1868.5,3502.58ZM1728.07,3513.07C1731.46,3513.07 1734.22,3515.82 1734.22,3519.21C1734.22,3522.6 1731.46,3525.36 1728.07,3525.36C1724.68,3525.36 1721.93,3522.6 1721.93,3519.21C1721.93,3515.82 1724.68,3513.07 1728.07,3513.07ZM1860.85,3513.07C1864.24,3513.07 1867,3515.82 1867,3519.21C1867,3522.6 1864.24,3525.36 1860.85,3525.36C1857.46,3525.36 1854.71,3522.6 1854.71,3519.21C1854.71,3515.82 1857.46,3513.07 1860.85,3513.07Z" style="fill:rgb(84,0,178);fill-opacity:0.701961;"/>
                <path d="M2189.99,1865.83C2184.21,1875.46 2176.31,1884.03 2166.44,1890.78C2131.86,1914.44 2085.3,1907.43 2059.06,1875.81C2058.06,1874.61 2052.28,1866.34 2048.3,1860.62C2047.31,1859.22 2046.91,1857.48 2047.22,1855.79C2047.52,1854.09 2048.49,1852.59 2049.91,1851.62C2053.65,1849.06 2058.64,1845.65 2062.35,1843.11C2065.18,1841.17 2069.04,1841.82 2071.09,1844.57C2076.52,1851.92 2085.63,1863.76 2088.85,1866.22L2088.86,1866.24C2089.27,1866.55 2089.69,1866.86 2090.11,1867.16L2090.12,1867.17C2090.4,1867.37 2090.68,1867.57 2090.96,1867.76L2090.98,1867.77C2091.4,1868.07 2091.83,1868.35 2092.26,1868.63L2092.28,1868.64C2092.57,1868.83 2092.85,1869.01 2093.14,1869.19L2093.15,1869.19C2093.3,1869.28 2093.44,1869.37 2093.59,1869.46L2093.6,1869.47C2093.89,1869.64 2094.18,1869.81 2094.47,1869.98L2094.48,1869.99L2094.5,1870C2094.79,1870.17 2095.09,1870.34 2095.38,1870.5L2095.39,1870.5C2095.53,1870.58 2095.68,1870.66 2095.83,1870.74L2095.85,1870.76C2096.15,1870.91 2096.44,1871.07 2096.74,1871.22L2096.76,1871.23L2096.77,1871.24C2096.91,1871.31 2097.06,1871.39 2097.21,1871.46L2097.22,1871.47C2097.52,1871.62 2097.82,1871.77 2098.13,1871.91L2098.14,1871.92L2098.16,1871.93C2098.46,1872.07 2098.76,1872.21 2099.06,1872.35L2099.09,1872.36C2099.24,1872.43 2099.39,1872.5 2099.54,1872.56L2099.55,1872.57L2099.56,1872.57C2099.87,1872.71 2100.17,1872.84 2100.47,1872.97L2100.49,1872.97L2100.51,1872.98C2100.66,1873.05 2100.82,1873.11 2100.97,1873.17L2101.21,1873.27L2101.45,1873.37C2101.6,1873.42 2101.75,1873.49 2101.91,1873.54L2101.93,1873.55L2101.95,1873.56C2102.25,1873.68 2102.56,1873.79 2102.87,1873.9L2102.89,1873.91L2102.9,1873.92C2103.05,1873.97 2103.21,1874.03 2103.36,1874.08L2103.37,1874.08L2103.39,1874.09C2103.7,1874.2 2104.01,1874.31 2104.32,1874.41L2104.34,1874.42L2104.37,1874.42C2104.68,1874.53 2104.99,1874.63 2105.3,1874.72L2105.32,1874.73L2105.33,1874.73C2105.49,1874.78 2105.64,1874.83 2105.79,1874.87L2105.81,1874.88L2105.84,1874.89C2106.15,1874.98 2106.46,1875.07 2106.77,1875.15L2106.8,1875.16L2106.82,1875.17C2106.97,1875.21 2107.13,1875.26 2107.28,1875.3L2107.29,1875.3L2107.31,1875.3L2107.53,1875.36L2107.79,1875.43C2107.95,1875.47 2108.1,1875.51 2108.26,1875.55L2108.29,1875.55L2108.32,1875.56C2108.63,1875.64 2108.94,1875.71 2109.25,1875.78L2109.28,1875.79L2109.3,1875.8C2109.46,1875.83 2109.61,1875.86 2109.76,1875.9L2109.78,1875.9L2109.82,1875.91C2110.13,1875.98 2110.44,1876.04 2110.76,1876.1L2110.79,1876.11L2110.82,1876.12C2110.97,1876.15 2111.13,1876.17 2111.28,1876.2L2111.55,1876.25L2111.77,1876.29L2111.8,1876.3L2111.81,1876.3C2111.96,1876.33 2112.12,1876.35 2112.27,1876.38L2112.3,1876.38L2112.34,1876.39C2112.65,1876.44 2112.96,1876.49 2113.28,1876.54L2113.31,1876.54L2113.34,1876.55C2113.49,1876.57 2113.65,1876.59 2113.8,1876.61L2113.82,1876.62L2113.86,1876.62L2114.06,1876.65L2114.34,1876.68C2114.49,1876.7 2114.65,1876.72 2114.8,1876.74L2114.84,1876.75L2114.88,1876.75C2115.03,1876.77 2115.19,1876.79 2115.34,1876.8L2115.63,1876.83L2115.82,1876.85L2115.86,1876.86L2115.88,1876.86C2116.03,1876.87 2116.19,1876.89 2116.34,1876.9L2116.37,1876.9L2116.41,1876.91C2116.72,1876.93 2117.04,1876.96 2117.35,1876.98L2117.39,1876.98L2117.43,1876.99C2117.58,1877 2117.74,1877.01 2117.89,1877.01L2117.91,1877.02L2117.94,1877.02L2118.16,1877.03L2118.39,1877.04L2118.42,1877.04L2118.43,1877.04C2118.59,1877.05 2118.74,1877.06 2118.89,1877.07L2118.93,1877.07L2118.97,1877.07C2119.13,1877.07 2119.29,1877.08 2119.44,1877.08L2119.74,1877.09L2119.91,1877.1L2119.96,1877.1L2119.99,1877.1C2120.14,1877.1 2120.29,1877.1 2120.45,1877.11L2120.47,1877.11L2120.52,1877.11L2120.7,1877.11L2120.99,1877.11C2121.15,1877.11 2121.3,1877.11 2121.46,1877.11L2121.5,1877.11L2121.54,1877.11C2121.7,1877.1 2121.85,1877.1 2122,1877.1L2122.01,1877.1L2122.05,1877.1L2122.29,1877.09L2122.49,1877.09L2122.53,1877.09L2122.55,1877.09C2122.7,1877.08 2122.86,1877.08 2123.01,1877.07L2123.04,1877.07L2123.09,1877.07C2123.4,1877.06 2123.71,1877.04 2124.03,1877.02L2124.07,1877.02L2124.11,1877.02C2124.26,1877.01 2124.41,1877 2124.57,1876.99L2124.59,1876.99L2124.63,1876.99L2124.83,1876.97L2125.07,1876.95L2125.1,1876.95L2125.12,1876.95C2125.27,1876.94 2125.42,1876.93 2125.57,1876.91L2125.62,1876.91L2125.66,1876.9C2125.82,1876.89 2125.97,1876.88 2126.12,1876.86L2126.42,1876.83L2126.6,1876.82L2126.64,1876.81L2126.67,1876.81C2126.82,1876.79 2126.98,1876.77 2127.13,1876.76L2127.16,1876.75L2127.21,1876.75L2127.37,1876.73L2127.66,1876.69L2127.68,1876.69C2127.83,1876.67 2127.98,1876.65 2128.14,1876.63L2128.19,1876.62L2128.23,1876.62C2128.38,1876.6 2128.53,1876.57 2128.68,1876.55L2128.7,1876.55L2128.74,1876.54L2128.96,1876.51L2129.17,1876.48L2129.21,1876.47L2129.23,1876.47C2129.38,1876.44 2129.53,1876.42 2129.68,1876.4L2129.72,1876.39L2129.77,1876.38C2129.93,1876.36 2130.08,1876.33 2130.23,1876.3L2130.54,1876.25L2130.69,1876.22L2130.74,1876.21L2130.78,1876.2C2130.93,1876.17 2131.08,1876.14 2131.23,1876.12L2131.26,1876.11L2131.31,1876.1L2131.49,1876.06L2131.73,1876.01L2131.77,1876.01L2131.78,1876C2131.93,1875.97 2132.08,1875.94 2132.23,1875.91L2132.28,1875.9L2132.32,1875.89C2132.47,1875.86 2132.62,1875.82 2132.77,1875.79L2132.78,1875.78L2132.82,1875.78L2133.06,1875.72L2133.24,1875.68L2133.29,1875.66L2133.32,1875.66C2133.47,1875.62 2133.61,1875.59 2133.76,1875.55L2133.8,1875.54L2133.85,1875.53L2134,1875.49L2134.3,1875.41L2134.31,1875.41C2134.46,1875.37 2134.61,1875.33 2134.76,1875.29L2134.81,1875.28L2134.85,1875.27C2135,1875.23 2135.14,1875.19 2135.29,1875.14L2135.32,1875.14L2135.36,1875.12L2135.56,1875.07L2135.78,1875.01L2135.82,1874.99L2135.84,1874.99C2135.98,1874.94 2136.13,1874.9 2136.28,1874.86L2136.32,1874.84L2136.37,1874.83C2136.52,1874.78 2136.67,1874.74 2136.82,1874.69L2136.82,1874.69L2136.85,1874.68L2137.11,1874.6L2137.27,1874.55L2137.32,1874.53L2137.36,1874.52C2137.5,1874.47 2137.65,1874.42 2137.79,1874.37L2137.82,1874.36L2137.88,1874.35L2138.04,1874.29L2138.3,1874.2L2138.32,1874.19L2138.33,1874.19C2138.48,1874.14 2138.62,1874.09 2138.77,1874.03L2138.82,1874.02L2138.87,1874C2139.01,1873.95 2139.16,1873.89 2139.3,1873.84L2139.32,1873.83L2139.36,1873.82L2139.57,1873.74L2139.76,1873.67L2139.81,1873.65L2139.84,1873.64C2139.98,1873.58 2140.12,1873.53 2140.27,1873.47L2140.31,1873.46L2140.36,1873.44C2140.51,1873.38 2140.65,1873.32 2140.8,1873.26L2141.1,1873.14L2141.24,1873.08L2141.29,1873.06L2141.33,1873.04C2141.47,1872.98 2141.61,1872.92 2141.75,1872.86L2141.78,1872.85L2141.83,1872.83L2142.01,1872.75L2142.23,1872.65L2142.27,1872.64L2142.28,1872.63C2142.43,1872.57 2142.57,1872.5 2142.71,1872.44L2142.76,1872.42L2142.8,1872.4C2142.95,1872.33 2143.09,1872.27 2143.23,1872.2L2143.24,1872.19L2143.28,1872.18L2143.51,1872.07L2143.68,1871.99L2143.73,1871.97L2143.76,1871.95C2143.9,1871.88 2144.04,1871.82 2144.18,1871.75L2144.21,1871.73L2144.26,1871.71L2144.41,1871.63L2144.68,1871.5L2144.7,1871.49C2144.84,1871.42 2144.98,1871.35 2145.12,1871.27L2145.17,1871.25L2145.21,1871.23C2145.35,1871.15 2145.49,1871.08 2145.63,1871.01L2145.65,1871L2145.7,1870.97L2145.89,1870.87L2146.08,1870.77L2146.12,1870.74L2146.14,1870.73C2146.28,1870.66 2146.42,1870.58 2146.56,1870.5L2146.6,1870.48L2146.65,1870.45C2146.79,1870.38 2146.93,1870.3 2147.07,1870.22L2147.35,1870.06L2147.49,1869.97L2147.54,1869.94L2147.58,1869.92C2147.71,1869.85 2147.85,1869.77 2147.98,1869.68L2148.01,1869.67L2148.06,1869.64L2148.22,1869.54L2148.45,1869.4L2148.48,1869.38L2148.49,1869.38C2148.63,1869.3 2148.76,1869.21 2148.9,1869.12L2148.95,1869.1L2148.99,1869.07C2149.12,1868.99 2149.26,1868.9 2149.39,1868.81L2149.41,1868.8L2149.45,1868.78L2149.65,1868.65L2149.82,1868.54L2149.87,1868.51L2149.89,1868.49C2150.03,1868.4 2150.16,1868.31 2150.29,1868.23L2150.33,1868.2L2150.38,1868.17L2150.5,1868.08L2150.79,1867.89C2150.79,1867.89 2151.07,1867.7 2151.07,1867.7L2151.19,1867.61L2151.24,1867.58L2151.28,1867.55C2151.41,1867.46 2151.54,1867.37 2151.67,1867.28L2151.69,1867.26L2151.74,1867.23L2151.9,1867.11L2152.1,1866.97L2152.14,1866.94L2152.15,1866.93C2152.28,1866.83 2152.41,1866.74 2152.53,1866.64L2152.58,1866.61L2152.62,1866.58C2152.75,1866.48 2152.88,1866.39 2153,1866.29L2153.01,1866.28L2153.04,1866.26L2153.26,1866.1L2153.4,1865.99L2153.45,1865.95L2153.47,1865.93C2153.6,1865.83 2153.72,1865.74 2153.84,1865.64L2153.87,1865.61L2153.92,1865.58L2154.05,1865.47L2154.28,1865.29L2154.3,1865.27L2154.3,1865.27C2154.43,1865.17 2154.55,1865.07 2154.67,1864.96L2154.72,1864.93L2154.75,1864.9C2154.87,1864.8 2154.99,1864.7 2155.12,1864.6L2155.13,1864.58L2155.17,1864.55L2155.34,1864.4L2155.5,1864.26L2155.54,1864.23L2155.56,1864.21C2155.68,1864.11 2155.8,1864.01 2155.91,1863.9L2155.95,1863.88L2155.99,1863.84C2156.11,1863.73 2156.23,1863.63 2156.35,1863.52L2156.35,1863.52L2156.36,1863.51L2156.59,1863.3L2156.71,1863.19L2156.75,1863.16L2156.78,1863.13C2156.89,1863.02 2157.01,1862.92 2157.12,1862.81L2157.14,1862.79L2157.18,1862.75L2157.32,1862.62L2157.5,1862.45L2157.53,1862.42L2157.54,1862.41C2157.65,1862.3 2157.77,1862.19 2157.88,1862.09L2157.91,1862.05L2157.95,1862.02C2158.06,1861.91 2158.17,1861.8 2158.28,1861.69L2158.29,1861.67L2158.32,1861.65L2158.5,1861.47L2158.63,1861.34L2158.67,1861.3L2158.69,1861.28C2158.8,1861.17 2158.91,1861.06 2159.01,1860.94L2159.04,1860.91L2159.08,1860.88L2159.19,1860.76L2159.4,1860.54L2159.41,1860.53L2159.41,1860.53C2159.52,1860.41 2159.63,1860.3 2159.73,1860.18L2159.77,1860.14L2159.8,1860.11C2159.9,1860 2160.01,1859.88 2160.11,1859.77L2160.13,1859.75L2160.16,1859.71L2160.3,1859.56L2160.45,1859.39L2160.48,1859.36L2160.49,1859.34C2160.6,1859.23 2160.7,1859.11 2160.8,1859L2160.83,1858.96L2160.87,1858.92C2160.97,1858.8 2161.07,1858.69 2161.17,1858.57L2161.18,1858.56L2161.19,1858.54L2161.37,1858.33L2161.48,1858.2L2161.51,1858.16L2161.54,1858.13C2161.63,1858.01 2161.73,1857.9 2161.83,1857.78L2161.85,1857.75L2161.89,1857.71L2161.99,1857.58L2162.16,1857.36L2162.18,1857.34L2162.19,1857.34C2162.28,1857.22 2162.38,1857.09 2162.48,1856.97L2162.51,1856.93L2162.54,1856.89C2162.63,1856.78 2162.72,1856.65 2162.82,1856.53L2162.83,1856.52L2162.86,1856.48L2162.99,1856.3L2163.12,1856.14L2163.15,1856.1L2163.16,1856.08C2163.25,1855.96 2163.35,1855.84 2163.43,1855.71L2163.46,1855.68L2163.49,1855.64C2163.58,1855.51 2163.68,1855.38 2163.77,1855.26L2163.77,1855.26L2163.77,1855.25L2163.95,1855L2164.04,1854.88L2164.07,1854.83L2164.1,1854.8C2164.18,1854.68 2164.27,1854.55 2164.36,1854.43L2164.37,1854.4L2164.4,1854.36L2164.51,1854.21L2164.65,1854.01L2164.67,1853.98L2164.68,1853.96C2164.76,1853.84 2164.85,1853.71 2164.93,1853.58L2164.96,1853.54L2164.98,1853.5C2165.07,1853.37 2165.15,1853.25 2165.24,1853.12L2165.24,1853.11L2165.26,1853.08L2165.4,1852.87L2165.5,1852.71L2165.52,1852.67L2165.54,1852.64C2165.62,1852.52 2165.7,1852.39 2165.78,1852.26L2165.8,1852.23L2165.83,1852.18L2165.91,1852.05L2166.07,1851.8L2166.07,1851.79L2166.07,1851.78C2166.16,1851.65 2166.24,1851.52 2166.31,1851.38L2166.34,1851.34L2166.36,1851.31C2166.44,1851.17 2166.52,1851.04 2166.59,1850.91L2166.6,1850.89L2166.63,1850.86L2166.73,1850.67L2166.84,1850.48L2166.86,1850.44L2166.87,1850.43C2166.95,1850.3 2167.02,1850.16 2167.09,1850.03L2167.12,1849.99L2167.14,1849.95C2167.21,1849.82 2167.29,1849.68 2167.36,1849.54L2167.36,1849.54L2167.37,1849.53L2167.51,1849.27L2167.58,1849.13L2167.61,1849.08L2167.62,1849.06C2167.69,1848.92 2167.76,1848.79 2167.83,1848.65L2167.85,1848.63L2167.87,1848.58L2167.95,1848.42L2168.07,1848.19L2168.08,1848.17L2168.09,1848.16C2168.16,1848.02 2168.22,1847.88 2168.29,1847.75L2168.31,1847.7L2168.33,1847.66C2168.4,1847.53 2168.47,1847.39 2168.53,1847.25L2168.54,1847.24L2168.55,1847.21L2168.66,1846.99L2168.74,1846.81L2168.76,1846.77L2168.77,1846.75C2168.84,1846.62 2168.9,1846.48 2168.96,1846.34L2168.98,1846.31L2169,1846.26C2169.13,1845.98 2169.25,1845.69 2169.38,1845.41L2169.4,1845.36L2169.41,1845.33C2169.47,1845.19 2169.53,1845.05 2169.59,1844.91L2169.6,1844.89L2169.62,1844.85L2169.69,1844.67L2169.78,1844.44L2169.8,1844.41L2169.8,1844.4C2169.86,1844.26 2169.92,1844.12 2169.97,1843.98L2169.99,1843.94L2170.01,1843.9C2170.06,1843.75 2170.12,1843.61 2170.18,1843.47L2170.18,1843.46L2170.18,1843.44L2170.28,1843.19L2170.35,1843.02L2170.36,1842.98L2170.37,1842.95C2170.42,1842.81 2170.48,1842.67 2170.53,1842.53L2170.54,1842.5L2170.55,1842.46L2170.61,1842.3L2170.71,1842.02L2170.71,1842.01L2170.71,1842.01C2170.77,1841.87 2170.82,1841.72 2170.87,1841.57L2170.88,1841.53L2170.89,1841.5C2170.95,1841.35 2170.99,1841.2 2171.04,1841.06L2171.05,1841.04L2171.06,1841.01L2171.13,1840.8L2171.2,1840.59L2171.21,1840.56L2171.21,1840.54C2171.26,1840.39 2171.31,1840.25 2171.35,1840.1L2171.36,1840.07L2171.38,1840.03C2171.47,1839.73 2171.56,1839.42 2171.65,1839.12L2171.66,1839.08L2171.67,1839.06C2171.71,1838.91 2171.75,1838.76 2171.79,1838.61L2171.8,1838.59L2171.81,1838.55L2171.86,1838.37L2171.93,1838.11L2171.94,1838.1L2171.94,1838.09C2171.98,1837.94 2172.02,1837.79 2172.06,1837.63L2172.07,1837.6L2172.08,1837.56C2172.12,1837.41 2172.15,1837.26 2172.19,1837.11L2172.19,1837.1L2172.2,1837.09L2172.26,1836.83L2172.31,1836.64L2172.32,1836.6L2172.32,1836.59C2172.36,1836.43 2172.39,1836.28 2172.43,1836.13L2172.43,1836.11L2172.44,1836.07C2172.51,1835.76 2172.58,1835.45 2172.64,1835.14L2172.65,1835.1L2172.66,1835.08C2172.69,1834.92 2172.72,1834.77 2172.75,1834.61L2172.75,1834.6L2172.76,1834.57L2172.8,1834.36L2172.85,1834.12L2172.85,1834.1L2172.85,1834.09C2172.88,1833.93 2172.91,1833.78 2172.94,1833.62L2172.94,1833.59L2172.95,1833.56C2173.01,1833.25 2173.06,1832.93 2173.11,1832.62L2173.11,1832.58L2173.12,1832.56C2173.14,1832.41 2173.17,1832.25 2173.19,1832.1L2173.19,1832.08L2173.2,1832.04C2173.24,1831.73 2173.29,1831.41 2173.33,1831.09L2173.33,1831.06L2173.34,1831.03C2173.36,1830.87 2173.38,1830.72 2173.4,1830.56L2173.4,1830.55L2173.4,1830.54L2173.43,1830.29L2173.45,1830.06L2173.45,1830.04L2173.46,1830.03C2173.47,1829.87 2173.49,1829.71 2173.51,1829.56L2173.51,1829.53L2173.51,1829.5C2173.54,1829.18 2173.57,1828.86 2173.6,1828.54L2173.6,1828.51L2173.6,1828.49C2173.62,1828.33 2173.63,1828.17 2173.64,1828.01L2173.64,1828L2173.64,1827.98C2173.66,1827.65 2173.68,1827.33 2173.7,1827L2173.7,1826.97L2173.7,1826.95C2173.72,1826.62 2173.73,1826.29 2173.74,1825.97L2173.74,1825.95L2173.74,1825.94C2173.75,1825.77 2173.76,1825.61 2173.76,1825.45L2173.76,1825.43L2173.76,1825.41C2173.77,1825.08 2173.77,1824.76 2173.77,1824.43L2173.77,1824.4L2173.77,1824.39C2173.77,1824.22 2173.77,1824.06 2173.77,1823.89L2173.77,1823.89L2173.77,1823.88L2173.77,1823.64L2173.76,1823.38L2173.76,1823.38L2173.76,1823.38C2173.76,1823.21 2173.76,1823.05 2173.75,1822.88L2173.75,1822.86L2173.75,1822.84C2173.74,1822.51 2173.73,1822.18 2173.72,1821.85L2173.72,1821.83L2173.72,1821.82C2173.71,1821.66 2173.7,1821.49 2173.69,1821.33L2173.69,1821.32L2173.69,1821.3C2173.67,1820.97 2173.65,1820.64 2173.62,1820.31L2173.62,1820.29L2173.62,1820.27C2173.6,1819.94 2173.57,1819.6 2173.54,1819.27L2173.54,1819.26L2173.53,1819.26C2173.52,1819.09 2173.5,1818.92 2173.49,1818.76L2173.48,1818.75L2173.48,1818.73C2173.45,1818.4 2173.41,1818.07 2173.37,1817.73L2173.37,1817.72L2173.37,1817.71C2173.34,1817.54 2173.32,1817.37 2173.3,1817.21L2173.3,1817.21L2173.3,1817.2C2173.25,1816.87 2173.21,1816.53 2173.15,1816.19L2173.15,1816.18L2173.15,1816.17C2173.1,1815.83 2173.04,1815.5 2172.98,1815.16L2172.98,1815.16L2172.98,1815.15C2172.95,1814.99 2172.92,1814.82 2172.89,1814.65L2172.89,1814.64L2172.89,1814.64C2172.83,1814.3 2172.76,1813.97 2172.69,1813.64L2172.69,1813.62L2172.69,1813.61C2172.59,1813.11 2172.47,1812.61 2172.36,1812.11L2172.35,1812.1L2172.35,1812.09C2172.27,1811.76 2172.19,1811.42 2172.1,1811.09L2172.1,1811.09L2172.1,1811.08C2171.97,1810.58 2171.83,1810.08 2171.69,1809.58L2171.69,1809.57L2171.68,1809.56C2170.55,1805.67 2162.82,1792.89 2157.95,1785.16C2156.13,1782.25 2156.93,1778.43 2159.76,1776.49C2163.46,1773.95 2168.45,1770.54 2172.2,1767.97C2173.61,1767 2175.36,1766.64 2177.05,1766.97C2178.73,1767.31 2180.22,1768.3 2181.16,1769.74C2184.11,1774.11 2188.04,1779.97 2189.99,1782.95L2189.99,1865.83ZM2064.13,1852.68C2067.52,1852.68 2070.27,1855.44 2070.27,1858.83C2070.27,1862.22 2067.52,1864.97 2064.13,1864.97C2060.74,1864.97 2057.98,1862.22 2057.98,1858.83C2057.98,1855.44 2060.74,1852.68 2064.13,1852.68ZM2174.21,1777.54C2177.6,1777.54 2180.36,1780.29 2180.36,1783.68C2180.36,1787.07 2177.6,1789.83 2174.21,1789.83C2170.82,1789.83 2168.07,1787.07 2168.07,1783.68C2168.07,1780.29 2170.82,1777.54 2174.21,1777.54Z" style="fill:rgb(84,0,178);fill-opacity:0.701961;"/>
            </g>
        </g>
    </g>
</svg>
