<?xml version="1.0" encoding="UTF-8" standalone="no"?>
<!DOCTYPE svg PUBLIC "-//W3C//DTD SVG 1.1//EN" "http://www.w3.org/Graphics/SVG/1.1/DTD/svg11.dtd">
<svg width="4544px" height="4993px" version="1.1" xmlns="http://www.w3.org/2000/svg" xmlns:xlink="http://www.w3.org/1999/xlink" xml:space="preserve" style="fill-rule:evenodd;clip-rule:evenodd;stroke-linecap:round;stroke-linejoin:round;stroke-miterlimit:2.613;">
    <g clip-path="url(#_clip2)">
        <g id="R-Ball-Guide">
            <g id="Metal">
                <path d="M1921.66,3594.06L1540.01,3862.72C1538.54,3863.76 1537.93,3865.54 1538.33,3867.32C1538.72,3869.08 1540.36,3870.47 1542.13,3870.77C1556.35,3873.23 1569.01,3881.36 1577.31,3893.32C1585.6,3905.3 1588.82,3920.01 1586.29,3934.42C1585.97,3936.22 1586.76,3938.03 1588.31,3939.02C1589.84,3939.99 1591.83,3939.95 1593.32,3938.9L1995.65,3656.2C1996.3,3655.7 1997.24,3655.24 1997.29,3653.74L1997.29,3474.68C1997.29,3470.83 1994.17,3467.71 1990.33,3467.71C1986.48,3467.71 1983.36,3470.83 1983.36,3474.68C1983.36,3522.2 1960.35,3566.74 1921.66,3594.06L1921.66,3594.06ZM1618.75,3856.57C1618.74,3869.05 1637.48,3869.05 1637.47,3856.57C1637.48,3844.09 1618.74,3844.09 1618.75,3856.57ZM1688.47,3848.67C1675.74,3857.6 1658.16,3854.53 1649.23,3841.8C1640.3,3829.08 1643.37,3811.49 1656.1,3802.56L1713.34,3762.37C1726.07,3753.44 1743.65,3756.52 1752.58,3769.24C1761.52,3781.97 1758.44,3799.55 1745.71,3808.48L1688.47,3848.67ZM1787.09,3717.66C1802.25,3717.66 1814.55,3729.96 1814.55,3745.12C1814.55,3760.28 1802.25,3772.57 1787.09,3772.57C1771.93,3772.57 1759.63,3760.28 1759.63,3745.12C1759.63,3729.96 1771.93,3717.66 1787.09,3717.66ZM1859.14,3728.53C1846.54,3737.38 1829.12,3734.33 1820.27,3721.73C1811.42,3709.12 1814.47,3691.7 1827.07,3682.86L1885.01,3642.19C1897.61,3633.34 1915.03,3636.39 1923.88,3648.99C1932.73,3661.6 1929.68,3679.01 1917.07,3687.86L1859.14,3728.53ZM1935.91,3633.58C1935.9,3646.06 1954.63,3646.06 1954.63,3633.58C1954.64,3621.1 1935.9,3621.1 1935.91,3633.58Z" style="fill:rgb(102,102,102);fill-opacity:0.615686;stroke:black;stroke-width:0.74px;stroke-miterlimit:10;"/>
            </g>
        </g>
        <g id="L-Ball-Guide">
            <g id="Metal1">
                <path d="M495.411,3594.06L877.067,3862.72C878.535,3863.76 879.141,3865.54 878.741,3867.32C878.349,3869.08 876.711,3870.47 874.945,3870.77C860.724,3873.23 848.065,3881.36 839.766,3893.32C831.475,3905.3 828.249,3920.01 830.778,3934.42C831.105,3936.22 830.31,3938.03 828.766,3939.02C827.229,3939.99 825.247,3939.95 823.754,3938.9L421.418,3656.2C420.77,3655.7 419.829,3655.24 419.779,3653.74L419.782,3474.68C419.782,3470.83 422.9,3467.71 426.746,3467.71C430.592,3467.71 433.711,3470.83 433.711,3474.68C433.711,3522.2 456.728,3566.74 495.411,3594.06L495.411,3594.06ZM779.611,3856.57C779.604,3869.05 798.338,3869.05 798.331,3856.57C798.345,3844.09 779.604,3844.09 779.611,3856.57ZM728.605,3848.67C741.33,3857.6 758.912,3854.53 767.845,3841.8C776.777,3829.08 773.699,3811.49 760.975,3802.56L703.729,3762.37C691.005,3753.44 673.422,3756.52 664.49,3769.24C655.557,3781.97 658.635,3799.55 671.36,3808.48L728.605,3848.67ZM629.984,3717.66C614.822,3717.66 602.527,3729.96 602.527,3745.12C602.527,3760.28 614.822,3772.57 629.984,3772.57C645.145,3772.57 657.44,3760.28 657.44,3745.12C657.44,3729.96 645.145,3717.66 629.984,3717.66ZM557.932,3728.53C570.537,3737.38 587.955,3734.33 596.804,3721.73C605.653,3709.12 602.603,3691.7 589.998,3682.86L532.067,3642.19C519.462,3633.34 502.044,3636.39 493.195,3648.99C484.347,3661.6 487.396,3679.01 500.001,3687.86L557.932,3728.53ZM462.46,3633.59C462.453,3646.07 481.187,3646.07 481.18,3633.59C481.193,3621.11 462.453,3621.11 462.46,3633.59Z" style="fill:rgb(102,102,102);fill-opacity:0.615686;stroke:black;stroke-width:0.74px;stroke-miterlimit:10;"/>
            </g>
        </g>
    </g>
</svg>
