<?xml version="1.0" encoding="UTF-8" standalone="no"?>
<!DOCTYPE svg PUBLIC "-//W3C//DTD SVG 1.1//EN" "http://www.w3.org/Graphics/SVG/1.1/DTD/svg11.dtd">
<svg width="4544px" height="5760px" version="1.1" xmlns="http://www.w3.org/2000/svg" xmlns:xlink="http://www.w3.org/1999/xlink" xml:space="preserve" style="fill-rule:evenodd;clip-rule:evenodd;stroke-linecap:round;stroke-linejoin:round;stroke-miterlimit:10;">
    <g clip-path="url(#_clip1)">
        <g id="T.-6-R-PlasMet-POST">
            <g id="Metal">
                <path d="M326.533,2729.91C326.526,2742.39 345.26,2742.39 345.253,2729.91C345.267,2717.43 326.526,2717.43 326.533,2729.91Z" style="fill:none;stroke:black;stroke-width:0.74px;"/>
            </g>
        </g>
        <g id="T.-6-R-PlasMet-POST1">
            <g id="Metal1">
                <path d="M271.317,1789.98C271.31,1802.46 290.044,1802.46 290.037,1789.98C290.051,1777.5 271.31,1777.5 271.317,1789.98Z" style="fill:none;stroke:black;stroke-width:0.74px;"/>
            </g>
        </g>
        <g id="T.-6-R-PlasMet-POST2">
            <g id="Metal2">
                <path d="M383.411,2098.53C383.405,2111.01 402.138,2111.01 402.131,2098.53C402.145,2086.05 383.405,2086.05 383.411,2098.53Z" style="fill:none;stroke:black;stroke-width:0.74px;"/>
            </g>
        </g>
        <g id="T.-6-R-PlasMet-POST3">
            <g id="Metal3">
                <path d="M316.933,2219.18C316.926,2231.66 335.66,2231.66 335.653,2219.18C335.667,2206.7 316.926,2206.7 316.933,2219.18Z" style="fill:none;stroke:black;stroke-width:0.74px;"/>
            </g>
        </g>
        <g id="T.-6-R-PlasMet-POST4">
            <g id="Metal4">
                <path d="M2062.84,3189.32C2062.83,3201.8 2081.56,3201.8 2081.56,3189.32C2081.57,3176.84 2062.83,3176.84 2062.84,3189.32Z" style="fill:none;stroke:black;stroke-width:0.74px;"/>
            </g>
        </g>
        <g id="T.-6-R-PlasMet-POST5">
            <g id="Metal5">
                <path d="M2109.82,3241.05C2109.82,3253.53 2128.55,3253.53 2128.54,3241.05C2128.56,3228.57 2109.82,3228.57 2109.82,3241.05Z" style="fill:none;stroke:black;stroke-width:0.74px;"/>
            </g>
        </g>
        <g id="T.-6-R-PlasMet-POST6">
            <g id="Metal6">
                <path d="M1935.9,3764.3C1935.89,3776.78 1954.63,3776.78 1954.62,3764.3C1954.63,3751.82 1935.89,3751.82 1935.9,3764.3Z" style="fill:none;stroke:black;stroke-width:0.74px;"/>
            </g>
        </g>
        <g id="T.-6-R-PlasMet-POST7">
            <g id="Metal7">
                <path d="M1618.74,3987.29C1618.73,3999.77 1637.47,3999.77 1637.46,3987.29C1637.48,3974.81 1618.73,3974.81 1618.74,3987.29Z" style="fill:none;stroke:black;stroke-width:0.74px;"/>
            </g>
        </g>
        <g id="T.-6-R-PlasMet-POST8">
            <g id="Metal8">
                <path d="M779.602,3987.29C779.595,3999.77 798.329,3999.77 798.322,3987.29C798.336,3974.81 779.595,3974.81 779.602,3987.29Z" style="fill:none;stroke:black;stroke-width:0.74px;"/>
            </g>
        </g>
        <g id="T.-6-R-PlasMet-POST9">
            <g id="Metal9">
                <path d="M462.45,3764.31C462.443,3776.79 481.177,3776.79 481.17,3764.31C481.184,3751.83 462.443,3751.83 462.45,3764.31Z" style="fill:none;stroke:black;stroke-width:0.74px;"/>
            </g>
        </g>
        <g id="Right-Guide">
            <g id="Metal10">
                <path d="M2146.35,3132.06C2146.35,3118.94 2138.07,3107.26 2125.7,3102.91C2113.34,3098.56 2099.57,3102.49 2091.35,3112.71C2060.95,3150.55 2029.25,3189.99 2029.25,3189.99C2029.25,3189.99 2029.25,3189.99 2029.25,3189.99C2027.06,3189.2 2024.62,3190.17 2023.56,3192.24C2022.5,3194.32 2023.15,3196.85 2025.08,3198.16C2057.9,3220.96 2100.49,3259.47 2123.12,3316.11C2129.74,3332.69 2137.3,3364.5 2141.97,3385.69C2142.23,3386.8 2143.29,3387.55 2144.43,3387.42C2145.56,3387.29 2146.42,3386.32 2146.42,3385.18C2146.41,3336.49 2146.38,3215.9 2146.35,3132.06Z" style="fill:rgb(156,156,156);fill-opacity:0.615686;stroke:black;stroke-width:0.74px;stroke-miterlimit:1.5;"/>
            </g>
        </g>
        <g id="R-Ball-Guide">
            <g id="Metal11">
                <path d="M1921.66,3724.8L1540.01,3993.45C1538.54,3994.49 1537.93,3996.28 1538.33,3998.06C1538.72,3999.82 1540.36,4001.21 1542.13,4001.51C1556.35,4003.97 1569.01,4012.09 1577.31,4024.06C1585.6,4036.04 1588.82,4050.75 1586.29,4065.16C1585.97,4066.95 1586.76,4068.76 1588.31,4069.75C1589.84,4070.73 1591.83,4070.69 1593.32,4069.63L1995.65,3786.93C1996.3,3786.44 1997.24,3785.97 1997.29,3784.48L1997.29,3605.41C1997.29,3601.57 1994.17,3598.45 1990.33,3598.45C1986.48,3598.45 1983.36,3601.57 1983.36,3605.41C1983.36,3652.94 1960.35,3697.48 1921.66,3724.8L1921.66,3724.8ZM1688.47,3979.41C1675.74,3988.34 1658.16,3985.26 1649.23,3972.54C1640.3,3959.81 1643.37,3942.23 1656.1,3933.3L1713.34,3893.11C1726.07,3884.18 1743.65,3887.26 1752.58,3899.98C1761.52,3912.7 1758.44,3930.29 1745.71,3939.22L1688.47,3979.41ZM1787.09,3848.4C1802.25,3848.4 1814.55,3860.7 1814.55,3875.86C1814.55,3891.02 1802.25,3903.31 1787.09,3903.31C1771.93,3903.31 1759.63,3891.02 1759.63,3875.86C1759.63,3860.7 1771.93,3848.4 1787.09,3848.4ZM1859.14,3859.27C1846.54,3868.12 1829.12,3865.07 1820.27,3852.46C1811.42,3839.86 1814.47,3822.44 1827.07,3813.59L1885.01,3772.92C1897.61,3764.07 1915.03,3767.12 1923.88,3779.73C1932.73,3792.33 1929.68,3809.75 1917.07,3818.6L1859.14,3859.27Z" style="fill:rgb(102,102,102);fill-opacity:0.615686;stroke:black;stroke-width:0.74px;"/>
            </g>
        </g>
        <g id="L-Ball-Guide">
            <g id="Metal12">
                <path d="M495.411,3724.8L877.067,3993.45C878.535,3994.49 879.141,3996.28 878.741,3998.06C878.349,3999.82 876.711,4001.21 874.945,4001.51C860.724,4003.97 848.065,4012.09 839.766,4024.06C831.475,4036.04 828.249,4050.75 830.778,4065.16C831.105,4066.95 830.31,4068.76 828.766,4069.75C827.229,4070.73 825.247,4070.69 823.754,4069.63L421.418,3786.93C420.77,3786.44 419.829,3785.97 419.779,3784.48L419.782,3605.41C419.782,3601.57 422.9,3598.45 426.746,3598.45C430.592,3598.45 433.711,3601.57 433.711,3605.41C433.711,3652.94 456.728,3697.48 495.411,3724.8L495.411,3724.8ZM728.605,3979.41C741.33,3988.34 758.912,3985.26 767.845,3972.54C776.777,3959.81 773.699,3942.23 760.975,3933.3L703.729,3893.11C691.005,3884.18 673.422,3887.26 664.49,3899.98C655.557,3912.7 658.635,3930.29 671.36,3939.22L728.605,3979.41ZM629.984,3848.4C614.822,3848.4 602.527,3860.7 602.527,3875.86C602.527,3891.02 614.822,3903.31 629.984,3903.31C645.145,3903.31 657.44,3891.02 657.44,3875.86C657.44,3860.7 645.145,3848.4 629.984,3848.4ZM557.932,3859.27C570.537,3868.12 587.955,3865.07 596.804,3852.46C605.653,3839.86 602.603,3822.44 589.998,3813.59L532.067,3772.92C519.462,3764.07 502.044,3767.12 493.195,3779.73C484.347,3792.33 487.396,3809.75 500.001,3818.6L557.932,3859.27Z" style="fill:rgb(102,102,102);fill-opacity:0.615686;stroke:black;stroke-width:0.74px;"/>
            </g>
        </g>
    </g>
</svg>
