<?xml version="1.0" encoding="UTF-8" standalone="no"?>
<!DOCTYPE svg PUBLIC "-//W3C//DTD SVG 1.1//EN" "http://www.w3.org/Graphics/SVG/1.1/DTD/svg11.dtd">
<svg width="4544px" height="5760px" version="1.1" xmlns="http://www.w3.org/2000/svg" xmlns:xlink="http://www.w3.org/1999/xlink" xml:space="preserve" xmlns:serif="http://www.serif.com/" style="fill-rule:evenodd;clip-rule:evenodd;stroke-linecap:round;stroke-linejoin:round;stroke-miterlimit:2.613;">
    <g id="T-6-R-PlasMet-POST" serif:id="T-6 R PlasMet POST">
        <g id="Metal">
            <circle cx="680.361" cy="1626.91" r="9.36" style="fill:none;stroke:rgb(255,5,255);stroke-width:0.87px;stroke-miterlimit:10;"/>
        </g>
    </g>
    <g id="T-6-R-PlasMet-POST1" serif:id="T-6 R PlasMet POST">
        <g id="Metal1" serif:id="Metal">
            <circle cx="879.555" cy="1582.59" r="9.36" style="fill:none;stroke:rgb(255,5,255);stroke-width:0.87px;stroke-miterlimit:10;"/>
        </g>
    </g>
    <g id="Deflector--w-Sleeve--2-500-5788-02" serif:id="Deflector, w/Sleeve #2 500-5788-02">
        <g id="Metal2" serif:id="Metal">
            <path d="M1982.46,1583.2C1969.4,1553.44 1924.72,1573.08 1937.83,1602.83C1950.88,1632.59 1995.57,1612.96 1982.46,1583.2Z" style="fill:none;stroke:black;stroke-width:1.07px;stroke-linecap:butt;stroke-linejoin:bevel;"/>
        </g>
    </g>
    <g id="Deflector--w-Sleeve--2-500-5788-021" serif:id="Deflector, w/Sleeve #2 500-5788-02">
        <g id="Metal3" serif:id="Metal">
            <path d="M2024.18,3276.3C2006.41,3249.09 1965.56,3275.8 1983.38,3303C2001.15,3330.21 2042,3303.5 2024.18,3276.3Z" style="fill:none;stroke:black;stroke-width:1.07px;stroke-linecap:butt;stroke-linejoin:bevel;"/>
        </g>
    </g>
    <g id="Ball-Guides" serif:id="Ball Guides">
        <g id="R-Ball-Guide" serif:id="R Ball Guide">
            <g id="Metal4" serif:id="Metal">
                <path d="M1921.66,3724.8L1540.01,3993.45C1538.54,3994.49 1537.93,3996.28 1538.33,3998.06C1538.72,3999.82 1540.36,4001.21 1542.13,4001.51C1556.35,4003.97 1569.01,4012.09 1577.31,4024.06C1585.6,4036.04 1588.82,4050.75 1586.29,4065.16C1585.97,4066.95 1586.76,4068.76 1588.31,4069.75C1589.84,4070.73 1591.83,4070.69 1593.32,4069.63L1995.65,3786.93C1996.3,3786.44 1997.24,3785.97 1997.29,3784.48L1997.29,3605.41C1997.29,3601.57 1994.17,3598.45 1990.33,3598.45C1986.48,3598.45 1983.36,3601.57 1983.36,3605.41C1983.36,3652.94 1960.35,3697.48 1921.66,3724.8L1921.66,3724.8ZM1688.47,3979.41C1675.74,3988.34 1658.16,3985.26 1649.23,3972.54C1640.3,3959.81 1643.37,3942.23 1656.1,3933.3L1713.34,3893.11C1726.07,3884.18 1743.65,3887.26 1752.58,3899.98C1761.52,3912.7 1758.44,3930.29 1745.71,3939.22L1688.47,3979.41ZM1787.09,3848.4C1802.25,3848.4 1814.55,3860.7 1814.55,3875.86C1814.55,3891.02 1802.25,3903.31 1787.09,3903.31C1771.93,3903.31 1759.63,3891.02 1759.63,3875.86C1759.63,3860.7 1771.93,3848.4 1787.09,3848.4ZM1859.14,3859.27C1846.54,3868.12 1829.12,3865.07 1820.27,3852.46C1811.42,3839.86 1814.47,3822.44 1827.07,3813.59L1885.01,3772.92C1897.61,3764.07 1915.03,3767.12 1923.88,3779.73C1932.73,3792.33 1929.68,3809.75 1917.07,3818.6L1859.14,3859.27Z" style="fill:rgb(102,102,102);fill-opacity:0.615686;stroke:black;stroke-width:0.74px;stroke-miterlimit:10;"/>
            </g>
        </g>
        <g id="L-Ball-Guide" serif:id="L Ball Guide">
            <g id="Metal5" serif:id="Metal">
                <path d="M495.411,3724.8L877.067,3993.45C878.535,3994.49 879.141,3996.28 878.741,3998.06C878.349,3999.82 876.711,4001.21 874.945,4001.51C860.724,4003.97 848.065,4012.09 839.766,4024.06C831.475,4036.04 828.249,4050.75 830.778,4065.16C831.105,4066.95 830.31,4068.76 828.766,4069.75C827.229,4070.73 825.247,4070.69 823.754,4069.63L421.418,3786.93C420.77,3786.44 419.829,3785.97 419.779,3784.48L419.782,3605.41C419.782,3601.57 422.9,3598.45 426.746,3598.45C430.592,3598.45 433.711,3601.57 433.711,3605.41C433.711,3652.94 456.728,3697.48 495.411,3724.8L495.411,3724.8ZM728.605,3979.41C741.33,3988.34 758.912,3985.26 767.845,3972.54C776.777,3959.81 773.699,3942.23 760.975,3933.3L703.729,3893.11C691.005,3884.18 673.422,3887.26 664.49,3899.98C655.557,3912.7 658.635,3930.29 671.36,3939.22L728.605,3979.41ZM629.984,3848.4C614.822,3848.4 602.527,3860.7 602.527,3875.86C602.527,3891.02 614.822,3903.31 629.984,3903.31C645.145,3903.31 657.44,3891.02 657.44,3875.86C657.44,3860.7 645.145,3848.4 629.984,3848.4ZM557.932,3859.27C570.537,3868.12 587.955,3865.07 596.804,3852.46C605.653,3839.86 602.603,3822.44 589.998,3813.59L532.067,3772.92C519.462,3764.07 502.044,3767.12 493.195,3779.73C484.347,3792.33 487.396,3809.75 500.001,3818.6L557.932,3859.27Z" style="fill:rgb(102,102,102);fill-opacity:0.615686;stroke:black;stroke-width:0.74px;stroke-miterlimit:10;"/>
            </g>
        </g>
    </g>
    <g id="Misc-Met" serif:id="Misc Met">
        <g id="Metal6" serif:id="Metal">
            <path d="M1775.44,1364.29C1775.44,1364.29 1776.56,1327.94 1777.82,1287.04C1779.97,1217.08 1745.56,1151.03 1686.99,1112.69C1686.98,1112.69 1686.98,1112.69 1686.98,1112.69C1682.27,1109.61 1679.97,1103.9 1681.24,1098.41C1682.51,1092.91 1687.07,1088.79 1692.66,1088.09C1696.63,1087.58 1700.83,1087.05 1705.24,1086.49C1746.07,1081.32 1781.83,1056.56 1801.04,1020.15C1820.26,983.749 1820.52,940.263 1801.75,903.626C1795.93,892.262 1792.3,885.166 1792.3,885.166C1792.3,885.166 1657.3,718.562 1625.28,679.039C1624.4,677.956 1624.34,676.426 1625.12,675.274C1625.91,674.122 1627.35,673.621 1628.68,674.04C1652.25,682.525 1712.8,708.202 1766.8,764.021C1804.23,802.725 1856.06,885.165 1867.16,942.666C1881.9,1019.11 1872.08,1153.22 1862.22,1216.09C1850.26,1292.37 1799.73,1367.69 1799.73,1367.69L1775.44,1364.29Z" style="fill:rgb(255,200,0);fill-opacity:0.45098;stroke:black;stroke-width:0.53px;stroke-miterlimit:10;"/>
            <path d="M878.466,488.848C878.829,488.835 879.181,488.97 879.441,489.222C879.702,489.474 879.85,489.821 879.85,490.184C879.85,496.642 879.853,523.739 879.853,529.509C879.853,530.108 879.369,530.593 878.77,530.594C878.436,530.594 878.134,530.594 878.055,530.595C556.72,531.04 297.6,791.666 297.6,1113.08L297.6,1373.76C297.6,1373.76 297.781,1377.81 298.092,1384.8C304.138,1520.41 327.878,1654.65 368.708,1784.12C415.663,1933 478.082,2130.91 490.701,2170.92C492.103,2175.37 489.956,2180.16 485.705,2182.07C477.313,2185.85 459.205,2180.63 444.328,2187.32C430.69,2193.46 420.185,2204.95 415.29,2219.08C410.394,2233.21 411.541,2248.73 418.46,2261.99C424.652,2273.85 429.473,2283.09 429.473,2283.09C429.473,2283.09 393.952,2284.19 360.718,2285.21C345.854,2285.67 331.438,2280.09 320.761,2269.74C310.084,2259.38 304.058,2245.15 304.058,2230.28C304.058,2120.18 304.058,1883.68 304.058,1832.14C304.058,1829.48 302.999,1826.92 301.115,1825.04C299.231,1823.16 296.676,1822.1 294.011,1822.1C285.746,1822.1 274.088,1822.1 265.822,1822.1C260.273,1822.1 255.775,1817.6 255.775,1812.05C255.775,1714.52 255.773,939.528 255.773,927.151C255.773,927.051 255.776,926.951 255.782,926.852C256.071,922.329 262.848,816.004 269.471,712.081C276.735,598.123 368.952,508.09 483.051,503.56C640.629,497.303 859.105,489.535 878.466,488.848ZM322.184,1726.29C321.961,1723.81 323.491,1721.43 325.962,1720.67L335.081,1717.87C337.917,1717.01 340.925,1718.6 341.795,1721.44L351.429,1752.85C352.299,1755.69 350.703,1758.69 347.867,1759.56L345.75,1760.21L358.118,1797.51C360.006,1803.2 356.916,1809.36 351.222,1811.25L332.911,1817.32C327.217,1819.21 321.061,1816.12 319.173,1810.42L297.756,1745.84C295.868,1740.14 298.958,1733.99 304.652,1732.1L322.184,1726.29Z" style="fill:rgb(255,200,0);fill-opacity:0.45098;stroke:black;stroke-width:0.53px;stroke-miterlimit:10;"/>
            <path d="M1018.92,1237C1013.29,1237.17 1008.39,1233.17 1007.42,1227.62C1004.11,1208.62 996.229,1163.44 986.651,1108.54C972.403,1026.85 996.264,943.138 1051.44,881.242C1106.61,819.346 1187.05,786.058 1269.82,790.862C1285.03,791.744 1299.76,792.599 1313.78,793.413C1316.46,793.568 1318.54,795.811 1318.49,798.494C1318.44,801.177 1316.28,803.344 1313.6,803.403C1308.73,803.511 1303.88,803.619 1299.1,803.725C1247.25,804.877 1201.89,838.941 1186.33,888.421C1186.33,888.421 1186.33,888.421 1186.33,888.421C1186.27,888.599 1186.21,888.776 1186.16,888.954C1185.12,892.429 1174.16,928.975 1167.9,949.833C1165.13,959.081 1158.98,966.945 1150.66,971.858C1135.85,980.618 1111.42,995.054 1094.5,1005.06C1082.82,1011.96 1075.65,1024.51 1075.64,1038.06C1075.57,1084.19 1075.42,1189.99 1075.37,1224.34C1075.36,1230.46 1070.49,1235.47 1064.37,1235.65C1051.71,1236.03 1031.07,1236.64 1018.92,1237Z" style="fill:rgb(255,200,0);fill-opacity:0.45098;stroke:black;stroke-width:0.53px;stroke-miterlimit:10;"/>
            <path d="M1580.73,530.597C1576.23,530.465 1568.12,530.383 1564.94,530.355C1564.21,530.349 1563.62,529.752 1563.62,529.019C1563.62,522.774 1563.62,496.317 1563.62,489.938C1563.62,489.575 1563.77,489.227 1564.03,488.976C1564.29,488.724 1564.64,488.589 1565.01,488.603C1584.01,489.326 1794.51,497.334 1960.07,503.632C2074.32,507.978 2166.75,598.068 2174.02,712.167C2180.64,815.984 2187.4,922.084 2187.69,926.602C2187.7,926.702 2187.7,926.802 2187.7,926.902C2187.7,935.992 2187.7,1355.62 2187.7,1390.39C2187.7,1390.89 2187.44,1391.35 2187.02,1391.62C2186.6,1391.89 2186.07,1391.93 2185.62,1391.72C2178,1388.23 2151.81,1376.23 2146.73,1373.9C2146.21,1373.66 2145.87,1373.14 2145.87,1372.57C2145.87,1359.91 2145.87,1223.84 2145.87,1223.84C2119.94,845.085 1874.19,541.921 1580.73,530.597Z" style="fill:rgb(255,200,0);fill-opacity:0.45098;stroke:black;stroke-width:0.56px;stroke-miterlimit:10;"/>
            <path d="M1561.4,490.516C1561.4,490.162 1561.26,489.822 1561.01,489.571C1560.76,489.321 1560.42,489.18 1560.06,489.18C1527.65,489.18 916.03,489.18 883.615,489.18C883.26,489.18 882.921,489.321 882.67,489.571C882.419,489.822 882.279,490.162 882.279,490.516C882.279,496.722 882.279,522.694 882.279,528.9C882.279,529.254 882.419,529.594 882.67,529.845C882.921,530.096 883.26,530.236 883.615,530.236C916.03,530.236 1527.65,530.236 1560.06,530.236C1560.42,530.236 1560.76,530.096 1561.01,529.845C1561.26,529.594 1561.4,529.254 1561.4,528.9C1561.4,522.694 1561.4,496.722 1561.4,490.516Z" style="fill:rgb(255,200,0);fill-opacity:0.45098;stroke:black;stroke-width:0.53px;stroke-miterlimit:10;"/>
            <path d="M516.744,1227.73C517.173,1227.54 517.617,1227.38 518.075,1227.24C524.415,1225.32 531.117,1228.92 533.031,1235.26L647.915,1615.77L675.061,1607.63C685.702,1604.43 696.934,1610.48 700.127,1621.12C703.32,1631.76 697.272,1643 686.631,1646.19L659.551,1654.31C659.551,1654.31 654,1654.53 647.66,1656.44C641.32,1658.36 634.619,1654.76 632.705,1648.42L617.368,1597.63L561.452,1614.4L576.742,1665.05C578.656,1671.39 575.063,1678.09 568.723,1680C562.383,1681.92 555.682,1678.33 553.768,1671.99L431.12,1265.75C429.339,1259.86 432.325,1253.64 437.855,1251.27L437.828,1251.18L516.744,1227.73ZM468.358,1306.06L558.342,1604.11L614.259,1587.33L524.319,1289.43L468.358,1306.06Z" style="fill:rgb(0,98,255);fill-opacity:0.45098;stroke:black;stroke-width:0.33px;stroke-linecap:butt;stroke-miterlimit:1.41421;"/>
            <path d="M2138.14,2160.28C2138.14,2170.88 2129.54,2179.48 2118.94,2179.48C2108.74,2179.48 2098.29,2179.48 2098.29,2179.48C2096.92,2179.48 2095.81,2178.37 2095.81,2177C2095.81,2177 2095.81,2177 2095.81,2176.99C2095.81,2157.83 2080.25,2142.28 2061.09,2142.28C2059.85,2142.28 2058.62,2142.34 2057.4,2142.47C2053.31,2142.9 2049.27,2141.31 2046.57,2138.21C2043.86,2135.11 2042.83,2130.89 2043.81,2126.9C2060.36,2057.97 2075.97,1980.07 2096,1865.01C2115.7,1751.79 2128.81,1621.98 2137.71,1540.73C2143.15,1491.09 2145.4,1393.71 2145.74,1377.68C2145.75,1377.18 2146.01,1376.73 2146.44,1376.46C2146.86,1376.2 2147.39,1376.16 2147.84,1376.37C2155.66,1379.99 2183.48,1392.84 2188.73,1395.26C2189.25,1395.5 2189.59,1396.03 2189.59,1396.6C2189.59,1396.6 2189.5,1879.15 2189.48,1982.15C2189.48,1992.76 2180.89,2001.35 2170.28,2001.35C2158.84,2001.35 2146.53,2001.35 2146.53,2001.35C2141.9,2001.35 2138.14,2005.11 2138.14,2009.74C2138.14,2009.74 2138.14,2115.85 2138.14,2160.28ZM2101.13,1916.75C2101.36,1916.88 2101.62,1916.98 2101.89,1917.04L2136.22,1924.48C2137.68,1924.8 2139.11,1923.87 2139.43,1922.42L2157.07,1841.04C2157.39,1839.59 2156.47,1838.15 2155.01,1837.84L2120.68,1830.39C2119.22,1830.08 2117.79,1831 2117.47,1832.45C2117.47,1832.45 2110.54,1864.43 2108.95,1871.77C2108.77,1872.6 2107.96,1873.14 2107.12,1873C2105.74,1872.76 2103.7,1872.41 2102.3,1872.17C2101.43,1872.02 2100.61,1872.6 2100.46,1873.47C2099.3,1880.25 2094.7,1907.05 2093.53,1913.83C2093.38,1914.7 2093.96,1915.52 2094.83,1915.67C2097.12,1916.06 2101.13,1916.75 2101.13,1916.75Z" style="fill:rgb(255,200,0);fill-opacity:0.45098;stroke:black;stroke-width:0.47px;stroke-linecap:butt;stroke-miterlimit:1.41421;"/>
            <path d="M1839.85,1919.45C1838.28,1922.21 1839.19,1925.72 1841.91,1927.36C1845.9,1929.75 1851.82,1933.31 1857.68,1936.83C1862.89,1939.96 1869.14,1940.82 1875,1939.22C1880.86,1937.62 1885.81,1933.69 1888.7,1928.36C1910.8,1886.78 1959.61,1785.1 1983.06,1658.55C2013.28,1495.46 2021.26,1347.62 2023.26,1268.84C2023.29,1265.31 2020.71,1262.31 2017.22,1261.82C2013.73,1261.34 2010.42,1263.51 2009.48,1266.9C1997.04,1314.7 1978.23,1380.87 1960.38,1420.27C1917.1,1515.8 1811.43,1664.96 1781.38,1706.63C1776.02,1714.03 1771.7,1722.13 1768.57,1730.72C1759.05,1756.76 1737.63,1815.36 1727.71,1842.51C1724.65,1850.87 1727.84,1860.23 1735.36,1865C1736.61,1865.79 1737.82,1866.55 1738.92,1867.25C1740.27,1868.1 1741.9,1868.37 1743.45,1867.98C1745,1867.6 1746.32,1866.6 1747.11,1865.21C1761.51,1839.99 1823.65,1731.13 1854.69,1676.76C1859.4,1668.5 1867.2,1662.46 1876.38,1659.96C1885.55,1657.46 1895.34,1658.71 1903.59,1663.44C1913.66,1669.21 1924.82,1675.61 1934.88,1681.38C1952.03,1691.2 1957.97,1713.07 1948.15,1730.23C1916.86,1784.89 1853.93,1894.85 1839.85,1919.45ZM1959.97,1533.89L1984.56,1497.24C1986.24,1494.74 1985.57,1491.35 1983.07,1489.67L1958.9,1473.45C1956.4,1471.77 1953,1472.44 1951.33,1474.94L1928.3,1509.25L1926.81,1508.25C1924.31,1506.57 1920.91,1507.24 1919.22,1509.74L1902.97,1533.97C1901.29,1536.48 1901.95,1539.88 1904.46,1541.56L1935.22,1562.2C1937.72,1563.88 1941.12,1563.21 1942.8,1560.7L1959.06,1536.47C1959.6,1535.67 1959.89,1534.79 1959.97,1533.89Z" style="fill:rgb(255,200,0);fill-opacity:0.45098;stroke:black;stroke-width:0.53px;stroke-miterlimit:10;"/>
            <path d="M872.196,1563.78C876.489,1561.91 878.81,1557.23 877.69,1552.68C859.136,1477.4 735.621,976.518 735.621,976.518C734.517,972.039 731.676,968.183 727.725,965.801C723.774,963.419 719.038,962.707 714.561,963.821C673.108,974.137 566.749,1000.61 525.628,1010.84C516.428,1013.13 510.763,1022.37 512.898,1031.61C520.995,1066.64 539.139,1145.13 540.171,1149.6C540.213,1149.78 540.257,1149.96 540.302,1150.14C541.704,1155.76 564.416,1246.7 570.572,1271.36C571.435,1274.81 569.492,1278.35 566.114,1279.47C558.533,1281.99 545.959,1286.17 541.833,1287.55C541.049,1287.81 540.191,1287.47 539.801,1286.74C539.8,1286.74 539.8,1286.74 539.8,1286.74C535.104,1277.97 524.858,1273.76 515.354,1276.68C500.29,1281.33 478.087,1288.16 463.196,1292.75C454.289,1295.5 449.03,1304.67 451.163,1313.74C451.163,1313.74 451.163,1313.74 451.163,1313.74C451.346,1314.52 450.966,1315.32 450.249,1315.66C447.759,1316.87 442.029,1319.64 438.308,1321.44C437.506,1321.83 436.566,1321.81 435.78,1321.39C434.993,1320.98 434.454,1320.2 434.33,1319.32C433.39,1312.68 423.951,1286.83 422.311,1275.23C420.63,1263.35 418.953,1251.03 417.834,1239.08C414.497,1203.42 412.925,1129.33 412.918,1125.43C412.918,1125.32 412.921,1125.21 412.925,1125.11C413.004,1123.29 413.752,1106.19 414.847,1081.16C421.253,934.666 531.136,819.151 670.07,772.27C715.782,756.845 749.995,745.3 749.995,745.3L1102.59,649.458C1102.59,649.458 1577.96,670.228 1621.19,672.606C1621.76,672.637 1622.26,672.996 1622.47,673.525C1622.68,674.054 1622.57,674.659 1622.18,675.076C1620.27,677.123 1617.77,679.797 1617.77,679.797C1616.85,679.717 1615.92,679.676 1614.98,679.676C1597.44,679.676 1581.74,700.986 1581.74,718.529C1581.74,719.327 1581.77,720.118 1581.82,720.901C1570.04,728.229 1555.82,731.083 1541.83,728.571C1501.99,721.419 1428.41,694.601 1342.07,679.098C1221.98,657.535 1046.93,666.799 953.693,745.493C860.451,824.187 800.607,971.647 817.999,1092.41C840.552,1249.02 888.307,1521.41 900.464,1574.81C901.001,1577.16 900.938,1587.64 896.384,1593.87L896.344,1593.88C892.707,1598.85 886.83,1602.08 880.204,1602.08C869.173,1602.08 860.217,1593.12 860.217,1582.09C860.217,1573.91 865.147,1566.87 872.196,1563.78Z" style="fill:rgb(255,200,0);fill-opacity:0.45098;stroke:black;stroke-width:0.53px;stroke-miterlimit:10;"/>
            <path d="M2146.35,3132.06C2146.35,3118.94 2138.07,3107.26 2125.7,3102.91C2113.34,3098.56 2099.57,3102.49 2091.35,3112.71C2060.95,3150.55 2029.25,3189.99 2029.25,3189.99C2029.25,3189.99 2029.25,3189.99 2029.25,3189.99C2027.06,3189.2 2024.62,3190.17 2023.56,3192.24C2022.5,3194.32 2023.15,3196.85 2025.08,3198.16C2057.9,3220.96 2100.49,3259.47 2123.12,3316.11C2129.74,3332.69 2137.3,3364.5 2141.97,3385.69C2142.23,3386.8 2143.29,3387.55 2144.43,3387.42C2145.56,3387.29 2146.42,3386.32 2146.42,3385.18C2146.41,3336.49 2146.38,3215.9 2146.35,3132.06Z" style="fill:rgb(255,200,0);fill-opacity:0.45098;stroke:black;stroke-width:0.74px;stroke-miterlimit:1.5;"/>
        </g>
    </g>
    <g id="T-6-R-PlasMet-Posts" serif:id="T-6 R PlasMet Posts">
        <g id="T-6-R-PlasMet-POST2" serif:id="T-6 R PlasMet POST">
            <g id="Metal7" serif:id="Metal">
                <circle cx="1523.03" cy="509.223" r="9.36" style="fill:none;stroke:rgb(255,5,255);stroke-width:0.87px;stroke-miterlimit:10;"/>
            </g>
        </g>
        <g id="T-6-R-PlasMet-POST3" serif:id="T-6 R PlasMet POST">
            <g id="Metal8" serif:id="Metal">
                <circle cx="799.423" cy="788.959" r="9.36" style="fill:none;stroke:rgb(255,5,255);stroke-width:0.87px;stroke-miterlimit:10;"/>
            </g>
        </g>
        <g id="T-6-R-PlasMet-POST4" serif:id="T-6 R PlasMet POST">
            <g id="Metal9" serif:id="Metal">
                <circle cx="983.669" cy="704.782" r="9.36" style="fill:none;stroke:rgb(255,5,255);stroke-width:0.87px;stroke-miterlimit:10;"/>
            </g>
        </g>
        <g id="T-6-R-PlasMet-POST5" serif:id="T-6 R PlasMet POST">
            <g id="Metal10" serif:id="Metal">
                <circle cx="512.933" cy="1253.97" r="9.36" style="fill:none;stroke:rgb(255,5,255);stroke-width:0.87px;stroke-miterlimit:10;"/>
            </g>
        </g>
        <g id="T-6-R-PlasMet-POST6" serif:id="T-6 R PlasMet POST">
            <g id="Metal11" serif:id="Metal">
                <circle cx="458.358" cy="1270.79" r="9.36" style="fill:none;stroke:rgb(255,5,255);stroke-width:0.87px;stroke-miterlimit:10;"/>
            </g>
        </g>
        <g id="T-6-R-PlasMet-POST7" serif:id="T-6 R PlasMet POST">
            <g id="Metal12" serif:id="Metal">
                <circle cx="2022.88" cy="2569.76" r="9.36" style="fill:none;stroke:rgb(255,5,255);stroke-width:0.87px;stroke-miterlimit:10;"/>
            </g>
        </g>
        <g id="T-6-R-PlasMet-POST8" serif:id="T-6 R PlasMet POST">
            <g id="Metal13" serif:id="Metal">
                <circle cx="1481.77" cy="1386.37" r="9.36" style="fill:none;stroke:rgb(255,5,255);stroke-width:0.87px;stroke-miterlimit:10;"/>
            </g>
        </g>
        <g id="T-6-R-PlasMet-POST9" serif:id="T-6 R PlasMet POST">
            <g id="Metal14" serif:id="Metal">
                <circle cx="1775.33" cy="818.189" r="9.36" style="fill:none;stroke:rgb(255,5,255);stroke-width:0.87px;stroke-miterlimit:10;"/>
            </g>
        </g>
        <g id="T-6-R-PlasMet-POST10" serif:id="T-6 R PlasMet POST">
            <g id="Metal15" serif:id="Metal">
                <circle cx="1552.15" cy="699.111" r="9.36" style="fill:none;stroke:rgb(255,5,255);stroke-width:0.87px;stroke-miterlimit:10;"/>
            </g>
        </g>
        <g id="T-6-R-PlasMet-POST11" serif:id="T-6 R PlasMet POST">
            <g id="Metal16" serif:id="Metal">
                <circle cx="1150.03" cy="847.335" r="9.36" style="fill:none;stroke:rgb(255,5,255);stroke-width:0.87px;stroke-miterlimit:10;"/>
            </g>
        </g>
        <g id="T-6-R-PlasMet-POST12" serif:id="T-6 R PlasMet POST">
            <g id="Metal17" serif:id="Metal">
                <circle cx="1030.37" cy="996.489" r="9.36" style="fill:none;stroke:rgb(255,5,255);stroke-width:0.87px;stroke-miterlimit:10;"/>
            </g>
        </g>
        <g id="T-6-R-PlasMet-POST13" serif:id="T-6 R PlasMet POST">
            <g id="Metal18" serif:id="Metal">
                <circle cx="1018.96" cy="1108.08" r="9.36" style="fill:none;stroke:rgb(255,5,255);stroke-width:0.87px;stroke-miterlimit:10;"/>
            </g>
        </g>
        <g id="T-6-R-PlasMet-POST14" serif:id="T-6 R PlasMet POST">
            <g id="Metal19" serif:id="Metal">
                <circle cx="815.712" cy="1217.3" r="9.36" style="fill:none;stroke:rgb(255,5,255);stroke-width:0.87px;stroke-miterlimit:10;"/>
            </g>
        </g>
        <g id="T-6-R-PlasMet-POST15" serif:id="T-6 R PlasMet POST">
            <g id="Metal20" serif:id="Metal">
                <circle cx="782.455" cy="1041.44" r="9.36" style="fill:none;stroke:rgb(255,5,255);stroke-width:0.87px;stroke-miterlimit:10;"/>
            </g>
        </g>
        <g id="T-6-R-PlasMet-POST16" serif:id="T-6 R PlasMet POST">
            <g id="Metal21" serif:id="Metal">
                <circle cx="891.929" cy="747.178" r="9.36" style="fill:none;stroke:rgb(255,5,255);stroke-width:0.87px;stroke-miterlimit:10;"/>
            </g>
        </g>
        <g id="T-6-R-PlasMet-POST17" serif:id="T-6 R PlasMet POST">
            <g id="Metal22" serif:id="Metal">
                <circle cx="516.032" cy="964" r="9.36" style="fill:none;stroke:rgb(255,5,255);stroke-width:0.87px;stroke-miterlimit:10;"/>
            </g>
        </g>
        <g id="T-6-R-PlasMet-POST18" serif:id="T-6 R PlasMet POST">
            <g id="Metal23" serif:id="Metal">
                <circle cx="470.636" cy="1201.33" r="9.36" style="fill:none;stroke:rgb(255,5,255);stroke-width:0.87px;stroke-miterlimit:10;"/>
            </g>
        </g>
        <g id="T-6-R-PlasMet-POST19" serif:id="T-6 R PlasMet POST">
            <g id="Metal24" serif:id="Metal">
                <circle cx="291.574" cy="1609.23" r="9.36" style="fill:none;stroke:rgb(255,5,255);stroke-width:0.87px;stroke-miterlimit:10;"/>
            </g>
        </g>
        <g id="T-6-R-PlasMet-POST20" serif:id="T-6 R PlasMet POST">
            <g id="Metal25" serif:id="Metal">
                <circle cx="280.925" cy="981.936" r="9.36" style="fill:none;stroke:rgb(255,5,255);stroke-width:0.87px;stroke-miterlimit:10;"/>
            </g>
        </g>
        <g id="T-6-R-PlasMet-POST21" serif:id="T-6 R PlasMet POST">
            <g id="Metal26" serif:id="Metal">
                <circle cx="362.961" cy="777.574" r="9.36" style="fill:none;stroke:rgb(255,5,255);stroke-width:0.87px;stroke-miterlimit:10;"/>
            </g>
        </g>
        <g id="T-6-R-PlasMet-POST22" serif:id="T-6 R PlasMet POST">
            <g id="Metal27" serif:id="Metal">
                <circle cx="371.282" cy="583.447" r="9.36" style="fill:none;stroke:rgb(255,5,255);stroke-width:0.87px;stroke-miterlimit:10;"/>
            </g>
        </g>
        <g id="T-6-R-PlasMet-POST23" serif:id="T-6 R PlasMet POST">
            <g id="Metal28" serif:id="Metal">
                <circle cx="837.228" cy="509.22" r="9.36" style="fill:none;stroke:rgb(255,5,255);stroke-width:0.87px;stroke-miterlimit:10;"/>
            </g>
        </g>
        <g id="T-6-R-PlasMet-POST24" serif:id="T-6 R PlasMet POST">
            <g id="Metal29" serif:id="Metal">
                <circle cx="920.439" cy="509.22" r="9.36" style="fill:none;stroke:rgb(255,5,255);stroke-width:0.87px;stroke-miterlimit:10;"/>
            </g>
        </g>
        <g id="T-6-R-PlasMet-POST25" serif:id="T-6 R PlasMet POST">
            <g id="Metal30" serif:id="Metal">
                <circle cx="1710.21" cy="520.625" r="9.36" style="fill:none;stroke:rgb(255,5,255);stroke-width:0.87px;stroke-miterlimit:10;"/>
            </g>
        </g>
        <g id="T-6-R-PlasMet-POST26" serif:id="T-6 R PlasMet POST">
            <g id="Metal31" serif:id="Metal">
                <circle cx="2042.92" cy="564.273" r="9.36" style="fill:none;stroke:rgb(255,5,255);stroke-width:0.87px;stroke-miterlimit:10;"/>
            </g>
        </g>
        <g id="T-6-R-PlasMet-POST27" serif:id="T-6 R PlasMet POST">
            <g id="Metal32" serif:id="Metal">
                <circle cx="2159.48" cy="1111.56" r="9.36" style="fill:none;stroke:rgb(255,5,255);stroke-width:0.87px;stroke-miterlimit:10;"/>
            </g>
        </g>
        <g id="T-6-R-PlasMet-POST28" serif:id="T-6 R PlasMet POST">
            <g id="Metal33" serif:id="Metal">
                <circle cx="1743.13" cy="1111.52" r="9.36" style="fill:none;stroke:rgb(255,5,255);stroke-width:0.87px;stroke-miterlimit:10;"/>
            </g>
        </g>
        <g id="T-6-R-PlasMet-POST29" serif:id="T-6 R PlasMet POST">
            <g id="Metal34" serif:id="Metal">
                <circle cx="1827.75" cy="1214.49" r="9.36" style="fill:none;stroke:rgb(255,5,255);stroke-width:0.87px;stroke-miterlimit:10;"/>
            </g>
        </g>
        <g id="T-6-R-PlasMet-POST30" serif:id="T-6 R PlasMet POST">
            <g id="Metal35" serif:id="Metal">
                <circle cx="1990.06" cy="1414.09" r="9.36" style="fill:none;stroke:rgb(255,5,255);stroke-width:0.87px;stroke-miterlimit:10;"/>
            </g>
        </g>
        <g id="T-6-R-PlasMet-POST31" serif:id="T-6 R PlasMet POST">
            <g id="Metal36" serif:id="Metal">
                <circle cx="1810.54" cy="1709.17" r="9.36" style="fill:none;stroke:rgb(255,5,255);stroke-width:0.87px;stroke-miterlimit:10;"/>
            </g>
        </g>
        <g id="T-6-R-PlasMet-POST32" serif:id="T-6 R PlasMet POST">
            <g id="Metal37" serif:id="Metal">
                <circle cx="1880.15" cy="1893.78" r="9.36" style="fill:none;stroke:rgb(255,5,255);stroke-width:0.87px;stroke-miterlimit:10;"/>
            </g>
        </g>
        <g id="T-6-R-PlasMet-POST33" serif:id="T-6 R PlasMet POST">
            <g id="Metal38" serif:id="Metal">
                <circle cx="2133.61" cy="1794.38" r="9.36" style="fill:none;stroke:rgb(255,5,255);stroke-width:0.87px;stroke-miterlimit:10;"/>
            </g>
        </g>
        <g id="T-6-R-PlasMet-POST34" serif:id="T-6 R PlasMet POST">
            <g id="Metal39" serif:id="Metal">
                <circle cx="2101.33" cy="2097.73" r="9.36" style="fill:none;stroke:rgb(255,5,255);stroke-width:0.87px;stroke-miterlimit:10;"/>
            </g>
        </g>
        <g id="T-6-R-PlasMet-POST35" serif:id="T-6 R PlasMet POST">
            <g id="Metal40" serif:id="Metal">
                <circle cx="335.9" cy="2729.93" r="9.36" style="fill:none;stroke:rgb(255,5,255);stroke-width:0.87px;stroke-miterlimit:10;"/>
            </g>
        </g>
        <g id="T-6-R-PlasMet-POST36" serif:id="T-6 R PlasMet POST">
            <g id="Metal41" serif:id="Metal">
                <circle cx="410.711" cy="2094.07" r="9.36" style="fill:none;stroke:rgb(255,5,255);stroke-width:0.87px;stroke-miterlimit:10;"/>
            </g>
        </g>
        <g id="T-6-R-PlasMet-POST37" serif:id="T-6 R PlasMet POST">
            <g id="Metal42" serif:id="Metal">
                <circle cx="326.301" cy="2219.2" r="9.36" style="fill:none;stroke:rgb(255,5,255);stroke-width:0.87px;stroke-miterlimit:10;"/>
            </g>
        </g>
        <g id="T-6-R-PlasMet-POST38" serif:id="T-6 R PlasMet POST">
            <g id="Metal43" serif:id="Metal">
                <circle cx="2072.2" cy="3189.33" r="9.36" style="fill:none;stroke:rgb(255,5,255);stroke-width:0.87px;stroke-miterlimit:10;"/>
            </g>
        </g>
        <g id="T-6-R-PlasMet-POST39" serif:id="T-6 R PlasMet POST">
            <g id="Metal44" serif:id="Metal">
                <circle cx="2119.19" cy="3241.07" r="9.36" style="fill:none;stroke:rgb(255,5,255);stroke-width:0.87px;stroke-miterlimit:10;"/>
            </g>
        </g>
        <g id="T-6-NR-PlasMet-POST" serif:id="T-6 NR PlasMet POST">
            <g id="Metal45" serif:id="Metal">
                <circle cx="788.969" cy="3987.31" r="9.36" style="fill:none;stroke:rgb(255,5,255);stroke-width:0.87px;stroke-miterlimit:10;"/>
            </g>
        </g>
        <g id="T-6-NR-PlasMet-POST1" serif:id="T-6 NR PlasMet POST">
            <g id="Metal46" serif:id="Metal">
                <circle cx="1628.11" cy="3987.31" r="9.36" style="fill:none;stroke:rgb(255,5,255);stroke-width:0.87px;stroke-miterlimit:10;"/>
            </g>
        </g>
        <g id="T-6-NR-PlasMet-POST2" serif:id="T-6 NR PlasMet POST">
            <g id="Metal47" serif:id="Metal">
                <circle cx="471.818" cy="3764.32" r="9.36" style="fill:none;stroke:rgb(255,5,255);stroke-width:0.87px;stroke-miterlimit:10;"/>
            </g>
        </g>
        <g id="T-6-NR-PlasMet-POST3" serif:id="T-6 NR PlasMet POST">
            <g id="Metal48" serif:id="Metal">
                <circle cx="1945.27" cy="3764.32" r="9.36" style="fill:none;stroke:rgb(255,5,255);stroke-width:0.87px;stroke-miterlimit:10;"/>
            </g>
        </g>
    </g>
</svg>
