<?xml version="1.0" encoding="UTF-8" standalone="no"?>
<!DOCTYPE svg PUBLIC "-//W3C//DTD SVG 1.1//EN" "http://www.w3.org/Graphics/SVG/1.1/DTD/svg11.dtd">
<svg width="4544px" height="5760px" version="1.1" xmlns="http://www.w3.org/2000/svg" xmlns:xlink="http://www.w3.org/1999/xlink" xml:space="preserve" style="fill-rule:evenodd;clip-rule:evenodd;stroke-linecap:round;stroke-linejoin:round;stroke-miterlimit:2.613;">
    <g clip-path="url(#_clip1)">
        <g id="T.-6-R-PlasMet-POST">
            <g id="Metal">
                <path d="M326.533,2729.91C326.526,2742.39 345.26,2742.39 345.253,2729.91C345.267,2717.43 326.526,2717.43 326.533,2729.91Z" style="fill:none;stroke:black;stroke-width:0.74px;stroke-miterlimit:10;"/>
            </g>
        </g>
        <g id="T.-6-R-PlasMet-POST1">
            <g id="Metal1">
                <path d="M271.317,1789.98C271.31,1802.46 290.044,1802.46 290.037,1789.98C290.051,1777.5 271.31,1777.5 271.317,1789.98Z" style="fill:none;stroke:black;stroke-width:0.74px;stroke-miterlimit:10;"/>
            </g>
        </g>
        <g id="T.-6-R-PlasMet-POST2">
            <g id="Metal2">
                <path d="M383.411,2098.53C383.405,2111.01 402.138,2111.01 402.131,2098.53C402.145,2086.05 383.405,2086.05 383.411,2098.53Z" style="fill:none;stroke:black;stroke-width:0.74px;stroke-miterlimit:10;"/>
            </g>
        </g>
        <g id="T.-6-R-PlasMet-POST3">
            <g id="Metal3">
                <path d="M316.933,2219.18C316.926,2231.66 335.66,2231.66 335.653,2219.18C335.667,2206.7 316.926,2206.7 316.933,2219.18Z" style="fill:none;stroke:black;stroke-width:0.74px;stroke-miterlimit:10;"/>
            </g>
        </g>
        <g id="T.-6-R-PlasMet-POST4">
            <g id="Metal4">
                <path d="M2062.84,3189.32C2062.83,3201.8 2081.56,3201.8 2081.56,3189.32C2081.57,3176.84 2062.83,3176.84 2062.84,3189.32Z" style="fill:none;stroke:black;stroke-width:0.74px;stroke-miterlimit:10;"/>
            </g>
        </g>
        <g id="T.-6-R-PlasMet-POST5">
            <g id="Metal5">
                <path d="M2109.82,3241.05C2109.82,3253.53 2128.55,3253.53 2128.54,3241.05C2128.56,3228.57 2109.82,3228.57 2109.82,3241.05Z" style="fill:none;stroke:black;stroke-width:0.74px;stroke-miterlimit:10;"/>
            </g>
        </g>
        <g id="T.-6-R-PlasMet-POST6">
            <g id="Metal6">
                <path d="M1935.9,3764.3C1935.89,3776.78 1954.63,3776.78 1954.62,3764.3C1954.63,3751.82 1935.89,3751.82 1935.9,3764.3Z" style="fill:none;stroke:black;stroke-width:0.74px;stroke-miterlimit:10;"/>
            </g>
        </g>
        <g id="T.-6-R-PlasMet-POST7">
            <g id="Metal7">
                <path d="M1618.74,3987.29C1618.73,3999.77 1637.47,3999.77 1637.46,3987.29C1637.48,3974.81 1618.73,3974.81 1618.74,3987.29Z" style="fill:none;stroke:black;stroke-width:0.74px;stroke-miterlimit:10;"/>
            </g>
        </g>
        <g id="T.-6-R-PlasMet-POST8">
            <g id="Metal8">
                <path d="M779.602,3987.29C779.595,3999.77 798.329,3999.77 798.322,3987.29C798.336,3974.81 779.595,3974.81 779.602,3987.29Z" style="fill:none;stroke:black;stroke-width:0.74px;stroke-miterlimit:10;"/>
            </g>
        </g>
        <g id="T.-6-R-PlasMet-POST9">
            <g id="Metal9">
                <path d="M462.45,3764.31C462.443,3776.79 481.177,3776.79 481.17,3764.31C481.184,3751.83 462.443,3751.83 462.45,3764.31Z" style="fill:none;stroke:black;stroke-width:0.74px;stroke-miterlimit:10;"/>
            </g>
        </g>
        <g id="Right-Guide">
            <g id="Metal10">
                <path d="M2146.35,3132.06C2146.35,3118.94 2138.07,3107.26 2125.7,3102.91C2113.34,3098.56 2099.57,3102.49 2091.35,3112.71C2060.95,3150.55 2029.25,3189.99 2029.25,3189.99C2029.25,3189.99 2029.25,3189.99 2029.25,3189.99C2027.06,3189.2 2024.62,3190.17 2023.56,3192.24C2022.5,3194.32 2023.15,3196.85 2025.08,3198.16C2057.9,3220.96 2100.49,3259.47 2123.12,3316.11C2129.74,3332.69 2137.3,3364.5 2141.97,3385.69C2142.23,3386.8 2143.29,3387.55 2144.43,3387.42C2145.56,3387.29 2146.42,3386.32 2146.42,3385.18C2146.41,3336.49 2146.38,3215.9 2146.35,3132.06Z" style="fill:rgb(156,156,156);fill-opacity:0.615686;stroke:black;stroke-width:0.74px;stroke-miterlimit:1.5;"/>
            </g>
        </g>
        <g id="R-Ball-Guide">
            <g id="Metal11">
                <path d="M1921.66,3724.8L1540.01,3993.45C1538.54,3994.49 1537.93,3996.28 1538.33,3998.06C1538.72,3999.82 1540.36,4001.21 1542.13,4001.51C1556.35,4003.97 1569.01,4012.09 1577.31,4024.06C1585.6,4036.04 1588.82,4050.75 1586.29,4065.16C1585.97,4066.95 1586.76,4068.76 1588.31,4069.75C1589.84,4070.73 1591.83,4070.69 1593.32,4069.63L1995.65,3786.93C1996.3,3786.44 1997.24,3785.97 1997.29,3784.48L1997.29,3605.41C1997.29,3601.57 1994.17,3598.45 1990.33,3598.45C1986.48,3598.45 1983.36,3601.57 1983.36,3605.41C1983.36,3652.94 1960.35,3697.48 1921.66,3724.8L1921.66,3724.8ZM1688.47,3979.41C1675.74,3988.34 1658.16,3985.26 1649.23,3972.54C1640.3,3959.81 1643.37,3942.23 1656.1,3933.3L1713.34,3893.11C1726.07,3884.18 1743.65,3887.26 1752.58,3899.98C1761.52,3912.7 1758.44,3930.29 1745.71,3939.22L1688.47,3979.41ZM1787.09,3848.4C1802.25,3848.4 1814.55,3860.7 1814.55,3875.86C1814.55,3891.02 1802.25,3903.31 1787.09,3903.31C1771.93,3903.31 1759.63,3891.02 1759.63,3875.86C1759.63,3860.7 1771.93,3848.4 1787.09,3848.4ZM1859.14,3859.27C1846.54,3868.12 1829.12,3865.07 1820.27,3852.46C1811.42,3839.86 1814.47,3822.44 1827.07,3813.59L1885.01,3772.92C1897.61,3764.07 1915.03,3767.12 1923.88,3779.73C1932.73,3792.33 1929.68,3809.75 1917.07,3818.6L1859.14,3859.27Z" style="fill:rgb(102,102,102);fill-opacity:0.615686;stroke:black;stroke-width:0.74px;stroke-miterlimit:10;"/>
            </g>
        </g>
        <g id="L-Ball-Guide">
            <g id="Metal12">
                <path d="M495.411,3724.8L877.067,3993.45C878.535,3994.49 879.141,3996.28 878.741,3998.06C878.349,3999.82 876.711,4001.21 874.945,4001.51C860.724,4003.97 848.065,4012.09 839.766,4024.06C831.475,4036.04 828.249,4050.75 830.778,4065.16C831.105,4066.95 830.31,4068.76 828.766,4069.75C827.229,4070.73 825.247,4070.69 823.754,4069.63L421.418,3786.93C420.77,3786.44 419.829,3785.97 419.779,3784.48L419.782,3605.41C419.782,3601.57 422.9,3598.45 426.746,3598.45C430.592,3598.45 433.711,3601.57 433.711,3605.41C433.711,3652.94 456.728,3697.48 495.411,3724.8L495.411,3724.8ZM728.605,3979.41C741.33,3988.34 758.912,3985.26 767.845,3972.54C776.777,3959.81 773.699,3942.23 760.975,3933.3L703.729,3893.11C691.005,3884.18 673.422,3887.26 664.49,3899.98C655.557,3912.7 658.635,3930.29 671.36,3939.22L728.605,3979.41ZM629.984,3848.4C614.822,3848.4 602.527,3860.7 602.527,3875.86C602.527,3891.02 614.822,3903.31 629.984,3903.31C645.145,3903.31 657.44,3891.02 657.44,3875.86C657.44,3860.7 645.145,3848.4 629.984,3848.4ZM557.932,3859.27C570.537,3868.12 587.955,3865.07 596.804,3852.46C605.653,3839.86 602.603,3822.44 589.998,3813.59L532.067,3772.92C519.462,3764.07 502.044,3767.12 493.195,3779.73C484.347,3792.33 487.396,3809.75 500.001,3818.6L557.932,3859.27Z" style="fill:rgb(102,102,102);fill-opacity:0.615686;stroke:black;stroke-width:0.74px;stroke-miterlimit:10;"/>
            </g>
        </g>
        <g id="Habitrails">
            <g opacity="0.75">
                <path d="M549.179,3465.67C549.116,3462.93 549.045,3460.18 548.962,3457.44C548.727,3449.69 548.419,3441.94 547.932,3434.2C547.756,3431.41 547.556,3428.62 547.306,3425.84C547.194,3424.59 547.07,3423.34 546.933,3422.09C546.842,3421.26 546.744,3420.43 546.633,3419.61C546.534,3418.88 546.421,3418.15 546.304,3417.42C546.001,3415.55 545.638,3413.68 545.243,3411.83C544.679,3409.17 544.044,3406.53 543.358,3403.9C542.557,3400.84 541.688,3397.79 540.765,3394.76C539.875,3391.85 538.937,3388.94 537.948,3386.05C536.11,3380.68 534.128,3375.36 531.952,3370.12C531.217,3368.35 530.461,3366.58 529.672,3364.83C529.148,3363.67 528.615,3362.51 528.056,3361.37C527.731,3360.7 527.396,3360.04 527.054,3359.38C526.825,3358.95 526.59,3358.52 526.357,3358.08C525.708,3356.87 525.057,3355.66 524.407,3354.45C521.31,3348.66 518.221,3342.86 515.146,3337.05C510.263,3327.83 505.409,3318.59 500.568,3309.34C492.948,3294.79 485.361,3280.22 477.793,3265.64C457.365,3226.29 437.059,3186.88 416.791,3147.44C390.621,3096.53 364.536,3045.57 338.487,2994.59L259.287,2994.59C257.153,2994.59 255.421,2992.86 255.421,2990.73L255.421,2982.99C255.421,2982.92 255.423,2982.85 255.428,2982.77C255.423,2982.65 255.421,2982.52 255.421,2982.39L255.421,2800.02C255.421,2798.96 255.681,2797.96 256.139,2797.09C255.573,2792.26 255.157,2787.41 254.899,2782.56C254.765,2780.05 254.675,2777.53 254.63,2775.01C254.604,2773.53 254.594,2772.04 254.591,2770.56C254.588,2767.91 254.589,2765.26 254.589,2762.6C254.587,2755.55 254.584,2748.5 254.582,2741.45C254.581,2714.46 254.582,2687.47 254.585,2660.48L254.589,2633.49L254.592,2614.87C254.582,2589.5 254.572,2564.12 254.561,2538.75C254.506,2385.95 254.454,2233.14 254.462,2080.34C254.464,2022.96 254.471,1965.58 254.5,1908.19C254.512,1883.99 254.527,1859.79 254.554,1835.59C254.562,1829 254.571,1822.42 254.58,1815.83C254.583,1813.56 254.583,1811.28 254.587,1809.01C254.589,1808.23 254.592,1807.46 254.595,1806.68C254.605,1805.07 254.623,1803.45 254.661,1801.83C254.78,1796.76 255.044,1791.69 255.458,1786.63L255.528,1785.79C255.458,1785.42 255.421,1785.03 255.421,1784.63L255.421,1647.07C255.421,1647.07 255.421,1602.26 255.421,1602.26C255.421,1602.13 255.423,1602 255.428,1601.88C255.423,1601.8 255.421,1601.73 255.421,1601.66L255.421,1593.92C255.421,1591.79 257.153,1590.06 259.287,1590.06L350.543,1590.06C356.959,1583.95 363.657,1578.14 370.63,1572.67C374.312,1569.79 378.068,1567 381.899,1564.31C384.053,1562.8 386.23,1561.32 388.429,1559.88C389.6,1559.11 390.778,1558.35 391.96,1557.6C395.842,1555.14 399.727,1552.68 403.613,1550.22C419.664,1540.07 435.737,1529.95 451.818,1519.85C469.745,1508.58 487.684,1497.34 505.632,1486.11C542.307,1463.17 579.016,1440.28 615.763,1417.45C645.127,1399.21 674.515,1381.01 703.945,1362.87C718.149,1354.12 732.363,1345.38 746.596,1336.68C757.533,1329.99 768.48,1323.32 779.453,1316.68C783.444,1314.27 787.438,1311.87 791.438,1309.47C793.329,1308.34 795.225,1307.22 797.115,1306.08C797.489,1305.86 797.488,1305.86 797.86,1305.63C799.423,1304.66 800.937,1303.61 802.366,1302.45C803.522,1301.52 804.623,1300.51 805.65,1299.43C806.269,1298.79 806.857,1298.11 807.419,1297.41C808.08,1296.59 808.7,1295.73 809.274,1294.85C810.654,1292.72 811.767,1290.44 812.668,1288.07C814.081,1284.36 814.949,1280.45 815.468,1276.52C815.66,1275.06 815.798,1273.59 815.891,1272.12C816.006,1270.3 816.057,1268.49 816.041,1266.67C816.02,1264.35 815.898,1262.03 815.687,1259.71C815.551,1258.22 815.379,1256.74 815.169,1255.26C814.976,1253.9 814.75,1252.55 814.501,1251.2C814.225,1249.72 813.935,1248.25 813.65,1246.78C809.111,1223.38 804.507,1200 799.89,1176.62C794.946,1151.58 789.984,1126.53 785.016,1101.5C772.017,1035.99 758.956,970.495 745.885,905.003L743.295,892.035C743.216,891.415 743.138,890.796 743.057,890.176C742.926,889.197 742.788,888.218 742.657,887.239C742.579,886.654 742.505,886.07 742.437,885.485L724.447,799.371C720.328,779.651 732.993,760.296 752.713,756.177L824.174,741.248C843.894,737.128 863.249,749.794 867.369,769.514L886.43,860.753L886.627,861.498L886.736,861.901L887.121,863.308C889.868,877.057 892.612,890.807 895.356,904.556L1104.51,890.828C1115.82,890.085 1125.93,897.849 1128.14,908.973C1129.49,915.816 1131.01,923.504 1132.37,930.347C1134.57,941.47 1128.18,952.502 1117.44,956.126L918.968,1023.08C924.26,1049.69 929.546,1076.3 934.82,1102.92C939.141,1124.72 943.453,1146.52 947.747,1168.33C949.936,1179.45 952.12,1190.57 954.292,1201.69C955.639,1208.59 956.985,1215.49 958.316,1222.39L958.554,1223.63C958.908,1225.51 959.245,1227.4 959.558,1229.29C960.048,1232.25 960.48,1235.22 960.857,1238.2C962.468,1250.93 963.05,1263.79 962.518,1276.61C962.007,1288.92 960.457,1301.18 957.802,1313.21C954.901,1326.35 950.655,1339.21 945.057,1351.45C941.311,1359.64 936.958,1367.56 932.036,1375.11C930.737,1377.1 929.396,1379.06 928.018,1381C925.507,1384.52 922.87,1387.96 920.108,1391.3C917.112,1394.91 913.975,1398.41 910.705,1401.78C903.296,1409.42 895.202,1416.39 886.582,1422.62C883.11,1425.14 879.551,1427.53 875.919,1429.8C874.775,1430.52 873.621,1431.22 872.464,1431.91C871.206,1432.66 869.948,1433.41 868.69,1434.16C855.747,1441.91 842.856,1449.74 829.983,1457.6C816.795,1465.65 803.626,1473.74 790.467,1481.83C756.649,1502.65 722.892,1523.56 689.165,1544.52C645.302,1571.77 601.49,1599.11 557.735,1626.54C538.724,1638.45 519.722,1650.38 500.742,1662.35C493.663,1666.81 486.586,1671.28 479.515,1675.76C476.51,1677.66 473.504,1679.56 470.502,1681.47C470.121,1681.71 469.74,1681.95 469.361,1682.2C467.036,1683.71 464.765,1685.31 462.554,1686.99C458.489,1690.08 454.625,1693.43 450.952,1696.97C445.583,1702.15 440.624,1707.75 436.063,1713.65C432.481,1718.29 429.143,1723.11 426.051,1728.08C423.819,1731.68 421.723,1735.35 419.752,1739.09C417.729,1742.93 415.85,1746.85 414.12,1750.83C412.027,1755.65 410.148,1760.56 408.513,1765.55C407.281,1769.3 406.178,1773.1 405.23,1776.94C404.357,1780.48 403.615,1784.04 403.012,1787.63C402.416,1791.18 401.955,1794.75 401.658,1798.34C401.419,1801.23 401.289,1804.13 401.263,1807.03C401.255,1808.21 401.253,1809.38 401.251,1810.56C401.243,1818.67 401.23,1826.78 401.221,1834.88C401.203,1852.53 401.189,1870.18 401.177,1887.83C401.144,1941.15 401.135,1994.47 401.131,2047.79L432.656,2062.61C440.573,2066.34 445.627,2074.3 445.627,2083.05C445.627,2091.05 445.627,2100.99 445.627,2108.99C445.627,2117.74 440.573,2125.7 432.656,2129.43L401.131,2144.25C401.132,2163.22 401.134,2182.2 401.136,2201.17C401.156,2339.06 401.202,2476.96 401.258,2614.85C401.253,2644.45 401.248,2674.04 401.246,2703.63C401.246,2719.95 401.246,2736.26 401.251,2752.58C401.252,2755.9 401.253,2759.23 401.255,2762.55C401.255,2764.78 401.25,2767.01 401.254,2769.24C401.256,2770.12 401.255,2771 401.265,2771.88C401.294,2773.69 401.38,2775.49 401.533,2777.29C402.005,2782.84 403.032,2788.33 404.422,2793.72C405.6,2798.29 407.045,2802.78 408.694,2807.2C409.929,2810.51 411.277,2813.77 412.726,2816.99C413.353,2818.39 413.998,2819.77 414.661,2821.14C415.22,2822.3 415.792,2823.45 416.37,2824.6C419.185,2830.13 422.009,2835.65 424.828,2841.17C432.616,2856.43 440.404,2871.68 448.193,2886.94C471.429,2932.44 494.677,2977.93 517.98,3023.39C535.655,3057.87 553.353,3092.34 571.105,3126.78C585.277,3154.28 599.48,3181.76 613.751,3209.2C620.314,3221.82 626.894,3234.43 633.502,3247.03C638.841,3257.21 644.196,3267.38 649.598,3277.53C650.685,3279.57 651.774,3281.61 652.865,3283.65C654.045,3285.86 655.231,3288.06 656.412,3290.26C656.641,3290.69 656.87,3291.13 657.098,3291.56C657.824,3292.96 658.538,3294.36 659.237,3295.77C660.603,3298.52 661.911,3301.31 663.177,3304.11C664.907,3307.93 666.561,3311.8 668.149,3315.68C671.478,3323.83 674.539,3332.09 677.346,3340.43C680.589,3350.07 683.508,3359.82 685.995,3369.69C688.305,3378.85 690.247,3388.11 691.623,3397.46C691.741,3398.26 691.854,3399.06 691.963,3399.87L722.525,3424.61C727.82,3428.89 730.897,3435.34 730.897,3442.16C730.897,3461.22 730.897,3500.69 730.897,3519.76C730.897,3526.57 727.82,3533.02 722.525,3537.31L689.952,3563.68C675.521,3585.39 650.84,3599.71 622.842,3599.71C578.396,3599.71 542.311,3563.62 542.311,3519.18C542.311,3507.59 544.764,3496.57 549.179,3486.61L549.179,3465.67ZM668.233,3492.2C668.213,3489.07 668.185,3485.94 668.15,3482.81C668.035,3472.59 667.844,3462.37 667.522,3452.16C667.237,3443.12 666.851,3434.09 666.256,3425.06C666.072,3422.28 665.863,3419.49 665.626,3416.71C665.181,3411.48 664.626,3406.26 663.853,3401.07C662.704,3393.37 661.114,3385.73 659.252,3378.17C656.782,3368.14 653.815,3358.24 650.505,3348.46C649.484,3345.45 648.422,3342.44 647.327,3339.45C645.707,3335.03 644.01,3330.63 642.229,3326.27C640.951,3323.14 639.626,3320.03 638.249,3316.95C636.827,3313.76 635.348,3310.6 633.786,3307.47C633.106,3306.11 632.407,3304.76 631.697,3303.42C630.525,3301.23 629.35,3299.05 628.18,3296.87C621.633,3284.62 615.156,3272.34 608.705,3260.04C601.229,3245.78 593.788,3231.51 586.367,3217.23C568.857,3183.53 551.443,3149.78 534.065,3116.01C499.916,3049.65 465.922,2983.2 431.971,2916.74C419.146,2891.63 406.332,2866.52 393.51,2841.41C392.802,2840.02 392.094,2838.63 391.387,2837.24C390.665,2835.81 389.951,2834.37 389.255,2832.92C388.394,2831.12 387.559,2829.32 386.751,2827.5C384.926,2823.38 383.243,2819.2 381.718,2814.96C379.927,2809.98 378.364,2804.92 377.074,2799.79C375.415,2793.19 374.209,2786.46 373.634,2779.67C373.405,2776.97 373.281,2774.26 373.261,2771.55C373.256,2770.43 373.253,2769.3 373.252,2768.18C373.252,2766.31 373.255,2764.43 373.255,2762.56C373.252,2755.16 373.25,2747.75 373.248,2740.35C373.243,2698.52 373.251,2656.69 373.259,2614.86C373.236,2559.7 373.215,2504.54 373.195,2449.38C373.153,2316.3 373.12,2183.22 373.13,2050.14C373.134,1996.03 373.143,1941.92 373.178,1887.81C373.191,1867.01 373.206,1846.22 373.233,1825.42C373.24,1820.09 373.243,1814.76 373.253,1809.43C373.255,1808.56 373.258,1807.68 373.263,1806.81C373.296,1803.21 373.457,1799.62 373.754,1796.03C374.14,1791.37 374.748,1786.74 375.546,1782.13C376.899,1774.32 378.808,1766.61 381.191,1759.05C381.804,1757.1 382.446,1755.16 383.121,1753.23C384.13,1750.35 385.21,1747.49 386.353,1744.65C389.388,1737.13 392.881,1729.79 396.791,1722.67C401.404,1714.28 406.603,1706.21 412.359,1698.56C417.81,1691.32 423.762,1684.44 430.223,1678.08C433.676,1674.67 437.273,1671.42 441.015,1668.34C444.321,1665.61 447.741,1663.03 451.273,1660.61C452.211,1659.97 453.156,1659.34 454.11,1658.72C455.243,1657.98 456.386,1657.26 457.526,1656.54C461.138,1654.25 464.75,1651.97 468.363,1649.68C500.753,1629.21 533.208,1608.84 565.689,1588.52C604.649,1564.13 643.651,1539.82 682.695,1515.57C709.893,1498.68 737.112,1481.82 764.367,1465.03C778.645,1456.22 792.934,1447.44 807.241,1438.69C817.007,1432.71 826.779,1426.75 836.571,1420.82C841.873,1417.61 847.18,1414.41 852.497,1411.23C854.571,1409.98 856.651,1408.75 858.725,1407.5C859.116,1407.27 859.507,1407.03 859.897,1406.79C863.271,1404.71 866.58,1402.52 869.8,1400.2C874.619,1396.74 879.246,1393.01 883.642,1389.02C886.243,1386.66 888.765,1384.21 891.193,1381.68C893.49,1379.28 895.713,1376.81 897.849,1374.27C901.921,1369.42 905.685,1364.32 909.112,1358.99C912.972,1353 916.404,1346.73 919.389,1340.25C924.664,1328.81 928.534,1316.74 931.051,1304.39C933.365,1293.04 934.544,1281.47 934.693,1269.89C934.816,1260.27 934.236,1250.64 933,1241.1C932.664,1238.51 932.281,1235.92 931.848,1233.34C931.529,1231.45 931.182,1229.56 930.82,1227.68C930.154,1224.22 929.483,1220.77 928.812,1217.32C924.771,1196.56 920.686,1175.81 916.591,1155.06C911.123,1127.35 905.63,1099.64 900.131,1071.94C886.75,1004.53 873.314,937.144 859.856,869.757C859.724,869.272 859.592,868.788 859.463,868.302C859.248,867.494 859.037,866.684 858.821,865.876C858.757,865.64 858.693,865.404 858.629,865.169C858.489,864.671 858.347,864.174 858.191,863.681C858.002,863.082 857.794,862.488 857.566,861.902C857.145,860.821 856.656,859.766 856.136,858.729C855.795,858.046 855.443,857.368 855.073,856.7C853.214,853.337 850.925,850.212 848.278,847.425C845.632,844.637 842.63,842.189 839.368,840.157C837.879,839.23 836.336,838.389 834.75,837.641C833.676,837.133 832.581,836.673 831.472,836.247C830.817,835.995 830.158,835.752 829.494,835.527C828.334,835.133 827.155,834.798 825.956,834.545C824.976,834.338 823.987,834.181 822.998,834.031C822.138,833.901 821.279,833.773 820.419,833.641L819.924,833.564L819.405,833.481L812.938,833.371C812.871,833.379 812.804,833.387 812.737,833.396C811.733,833.516 810.726,833.612 809.72,833.719C809.385,833.756 809.05,833.795 808.716,833.836C808.181,833.904 807.648,833.978 807.117,834.071C806.319,834.21 805.528,834.385 804.741,834.575C803.234,834.939 801.746,835.381 800.285,835.898C796.024,837.405 791.994,839.552 788.367,842.247C784.305,845.264 780.757,848.964 777.912,853.148C775.068,857.331 772.933,861.99 771.62,866.875C771.148,868.633 770.782,870.418 770.524,872.22C770.385,873.196 770.28,874.177 770.2,875.16C770.076,876.682 769.999,878.211 770.053,879.738C770.103,881.138 770.272,882.528 770.462,883.915C770.579,884.776 770.699,885.637 770.814,886.499L770.879,886.996L770.946,887.517C773.381,899.706 775.813,911.895 778.246,924.084C791.865,992.353 805.47,1060.62 818.997,1128.91C823.965,1153.99 828.927,1179.07 833.854,1204.16C835.395,1212.01 836.933,1219.86 838.465,1227.71C839.218,1231.57 839.97,1235.43 840.719,1239.29C841.139,1241.45 841.558,1243.61 841.971,1245.77C842.067,1246.28 842.161,1246.79 842.252,1247.31C842.503,1248.74 842.733,1250.18 842.935,1251.63C843.192,1253.47 843.404,1255.32 843.572,1257.18C843.811,1259.81 843.964,1262.45 844.02,1265.09C844.068,1267.35 844.043,1269.62 843.943,1271.89C843.885,1273.22 843.8,1274.55 843.689,1275.87C842.937,1284.82 840.938,1293.71 837.227,1301.9C836.651,1303.18 836.034,1304.43 835.375,1305.66C834.615,1307.09 833.799,1308.48 832.928,1309.84C831.281,1312.4 829.438,1314.84 827.42,1317.12C824.015,1320.97 820.106,1324.36 815.881,1327.29C814.949,1327.93 814.002,1328.56 813.04,1329.16C812.195,1329.69 811.338,1330.2 810.482,1330.71C809.599,1331.24 808.715,1331.77 807.832,1332.29C805.829,1333.49 803.826,1334.69 801.825,1335.89C788.251,1344.06 774.72,1352.3 761.207,1360.56C746.999,1369.25 732.811,1377.97 718.633,1386.71C681.846,1409.38 645.122,1432.15 608.433,1454.98C566.66,1480.97 524.928,1507.03 483.251,1533.17C466.654,1543.59 450.065,1554.01 433.494,1564.47C427.71,1568.12 421.929,1571.77 416.151,1575.42C412.92,1577.47 409.686,1579.51 406.459,1581.56C405.955,1581.89 405.451,1582.21 404.948,1582.53C402.439,1584.16 399.959,1585.84 397.514,1587.56C394.731,1589.52 391.992,1591.55 389.297,1593.63C380.756,1600.22 372.666,1607.39 365.044,1615.03C356.996,1623.09 349.472,1631.67 342.489,1640.67C338.546,1645.76 334.773,1650.97 331.178,1656.31C329.154,1659.31 327.188,1662.35 325.277,1665.43C316.603,1679.38 309.098,1694.07 302.867,1709.27C301.142,1713.48 299.514,1717.73 297.992,1722.01C296.83,1725.28 295.731,1728.57 294.689,1731.88C291.212,1742.93 288.421,1754.19 286.396,1765.6C285.505,1770.61 284.759,1775.65 284.175,1780.71C283.632,1785.41 283.22,1790.13 282.957,1794.85C282.822,1797.27 282.724,1799.68 282.663,1802.1C282.636,1803.15 282.621,1804.2 282.606,1805.25C282.598,1806.15 282.594,1807.05 282.59,1807.95C282.583,1810.59 282.583,1813.23 282.58,1815.86C282.571,1822.45 282.561,1829.04 282.554,1835.62C282.532,1855.3 282.518,1874.97 282.507,1894.64C282.475,1949.59 282.466,2004.54 282.462,2059.48C282.451,2219.24 282.503,2378.99 282.561,2538.74L282.576,2576.8L282.592,2614.87C282.587,2639.07 282.584,2663.27 282.582,2687.47C282.581,2705.46 282.58,2723.45 282.581,2741.45C282.582,2748.5 282.586,2755.55 282.588,2762.6C282.589,2765.24 282.587,2767.87 282.591,2770.51C282.592,2771.08 282.594,2771.64 282.597,2772.21C282.617,2774.49 282.667,2776.78 282.764,2779.05C282.951,2783.47 283.292,2787.89 283.773,2792.29C285.037,2803.83 287.289,2815.27 290.341,2826.47C294.088,2840.22 299.039,2853.64 304.932,2866.62C305.994,2868.96 307.085,2871.28 308.207,2873.59C308.963,2875.14 309.735,2876.69 310.515,2878.23C312.553,2882.24 314.606,2886.25 316.652,2890.26C318.573,2894.02 320.494,2897.78 322.415,2901.55C332.02,2920.36 341.624,2939.18 351.231,2957.99C389.65,3033.2 428.122,3108.39 466.818,3183.46C481.649,3212.23 496.513,3240.99 511.46,3269.7C516.55,3279.48 521.651,3289.25 526.767,3299.01C533.29,3311.46 539.84,3323.9 546.453,3336.3C547.331,3337.94 548.209,3339.59 549.089,3341.23C549.948,3342.83 550.811,3344.43 551.672,3346.04C551.804,3346.29 551.937,3346.54 552.068,3346.8C553.238,3349.07 554.327,3351.38 555.37,3353.71C556.291,3355.77 557.177,3357.84 558.035,3359.93C560.35,3365.54 562.473,3371.24 564.439,3376.99C565.53,3380.17 566.566,3383.38 567.549,3386.6C568.582,3389.99 569.554,3393.4 570.449,3396.83C571.194,3399.68 571.886,3402.55 572.508,3405.43C573.083,3408.09 573.599,3410.76 574.025,3413.45C574.168,3414.36 574.302,3415.26 574.422,3416.17C574.685,3418.16 574.895,3420.15 575.085,3422.15C575.388,3425.34 575.625,3428.55 575.832,3431.75C576.368,3440.02 576.698,3448.31 576.949,3456.6C577.124,3462.39 577.252,3468.18 577.351,3473.98C577.449,3479.78 577.518,3485.58 577.558,3491.37L577.563,3492.02C572.788,3499.95 570.042,3509.25 570.042,3519.18C570.042,3548.32 593.701,3571.98 622.842,3571.98C651.983,3571.98 675.642,3548.32 675.642,3519.18C675.642,3509.33 672.938,3500.1 668.233,3492.2Z"/>
                <path d="M2009.2,1453.94C2004.59,1446.77 1999.99,1439.58 1995.38,1432.39C1988.02,1420.88 1980.66,1409.36 1973.29,1397.85C1968.74,1390.73 1964.18,1383.62 1959.6,1376.51C1955.66,1370.41 1951.72,1364.32 1947.73,1358.25C1946.65,1356.61 1945.58,1354.97 1944.49,1353.34C1943.71,1352.16 1942.92,1350.98 1942.13,1349.79L1941.65,1349.06C1941.23,1348.41 1940.81,1347.76 1940.39,1347.1C1939.66,1345.94 1938.94,1344.78 1938.24,1343.6C1936.72,1341.05 1935.26,1338.44 1933.88,1335.81C1932.59,1333.35 1931.36,1330.86 1930.2,1328.34C1926.64,1320.64 1923.64,1312.67 1921.18,1304.54C1918.63,1296.13 1916.66,1287.54 1915.18,1278.88C1914.34,1273.93 1913.66,1268.97 1913.14,1263.98C1912.88,1261.53 1912.67,1259.07 1912.47,1256.62C1912.21,1253.35 1911.97,1250.08 1911.75,1246.81C1911.5,1243.04 1911.28,1239.26 1911.08,1235.49C1910.76,1229.5 1910.49,1223.51 1910.25,1217.52C1909.63,1201.53 1909.25,1185.53 1908.99,1169.53C1908.85,1160.88 1908.75,1152.24 1908.69,1143.59C1908.64,1136.88 1908.61,1130.16 1908.61,1123.44L1908.61,1121.88C1908.61,1121.22 1908.59,1120.56 1908.61,1119.91C1908.63,1119.41 1908.68,1118.92 1908.72,1118.43C1908.74,1118.16 1908.76,1117.89 1908.77,1117.62C1908.83,1116.76 1908.88,1115.89 1908.94,1115.03C1909,1114.16 1909.06,1113.29 1909.15,1112.42C1909.26,1111.24 1909.41,1110.05 1909.6,1108.88C1909.8,1107.61 1910.05,1106.35 1910.33,1105.1C1910.71,1103.45 1911.15,1101.81 1911.63,1100.19C1912.96,1095.7 1914.72,1091.34 1916.88,1087.19C1919.95,1081.28 1923.83,1075.8 1928.38,1070.93C1932.03,1067.03 1936.11,1063.52 1940.52,1060.5C1943.93,1058.16 1947.55,1056.12 1951.31,1054.39C1953.69,1053.3 1956.12,1052.33 1958.61,1051.5C1959.77,1051.11 1960.94,1050.75 1962.12,1050.41C1964.54,1049.73 1966.98,1049.14 1969.46,1048.72C1971.04,1048.46 1972.64,1048.27 1974.24,1048.13C1975.9,1047.99 1977.57,1047.91 1979.23,1047.81L1979.66,1047.78L1980.16,1047.75C1981.47,1047.75 1982.78,1047.76 1984.09,1047.76C1986.24,1047.92 1988.39,1048.02 1990.54,1048.23C1991.85,1048.37 1993.15,1048.6 1994.45,1048.8C1994.61,1048.83 1994.77,1048.87 1994.93,1048.9C1995.2,1048.96 1995.47,1049.02 1995.75,1049.08C1996.58,1049.26 1997.41,1049.43 1998.25,1049.6C1999.5,1049.87 2000.74,1050.15 2001.98,1050.48C2003.18,1050.8 2004.38,1051.16 2005.57,1051.56C2007.95,1052.36 2010.28,1053.33 2012.57,1054.38C2015.43,1055.7 2018.22,1057.2 2020.89,1058.88C2025.42,1061.72 2029.64,1065.05 2033.44,1068.81C2037.02,1072.34 2040.24,1076.24 2043.02,1080.42C2045.73,1084.51 2048.03,1088.86 2049.88,1093.4C2050.87,1095.83 2051.72,1098.3 2052.44,1100.82C2052.92,1102.48 2053.34,1104.16 2053.69,1105.86C2053.92,1106.92 2054.12,1107.99 2054.3,1109.06C2054.43,1109.88 2054.56,1110.71 2054.66,1111.54C2054.84,1112.96 2054.96,1114.39 2055.05,1115.82C2055.11,1116.94 2055.16,1118.06 2055.21,1119.18C2055.22,1119.38 2055.24,1119.57 2055.24,1119.76C2055.25,1119.93 2055.27,1120.11 2055.27,1120.29C2055.29,1120.95 2055.29,1121.62 2055.28,1122.28C2055.28,1123.67 2055.28,1125.05 2055.28,1126.43C2055.29,1134.25 2055.34,1142.06 2055.41,1149.87C2055.51,1159.81 2055.66,1169.74 2055.87,1179.67C2056.17,1193.79 2056.58,1207.89 2057.25,1221.99C2057.38,1224.67 2057.51,1227.35 2057.66,1230.02C2057.93,1234.7 2058.23,1239.37 2058.6,1244.04C2058.74,1245.83 2058.88,1247.62 2059.09,1249.4C2059.51,1253.13 2060.13,1256.85 2061.11,1260.47C2061.55,1262.13 2062.08,1263.77 2062.71,1265.36C2063.17,1266.52 2063.7,1267.66 2064.36,1268.72C2064.6,1269.1 2064.86,1269.47 2065.1,1269.84C2065.65,1270.66 2066.19,1271.47 2066.73,1272.29C2071.4,1279.35 2076.02,1286.44 2080.62,1293.56C2086.29,1302.34 2091.94,1311.15 2097.58,1319.96L2099.33,1322.69L2185.9,1322.69C2188.03,1322.7 2189.76,1324.43 2189.76,1326.56L2189.76,1334.29C2189.76,1334.37 2189.76,1334.44 2189.76,1334.51C2189.76,1334.64 2189.76,1334.76 2189.76,1334.89L2189.76,1514.11C2189.79,1514.73 2189.81,1515.35 2189.83,1515.97C2189.91,1518.11 2189.93,1520.24 2189.94,1522.37C2189.93,1681.47 2189.91,1840.57 2189.9,1999.67C2189.89,2149.11 2189.88,2298.54 2189.89,2447.97C2189.89,2487.9 2189.9,2527.82 2189.91,2567.74C2189.92,2582.5 2189.92,2597.26 2189.93,2612.03C2189.93,2615.08 2189.93,2618.13 2189.93,2621.19C2189.93,2623.87 2189.94,2626.55 2189.94,2629.22C2189.94,2630.18 2189.94,2631.14 2189.93,2632.1C2189.91,2635.26 2189.86,2638.43 2189.76,2641.6C2189.63,2645.97 2189.44,2650.35 2189.18,2654.72C2189.12,2655.63 2189.07,2656.53 2189,2657.44C2189.22,2658.24 2189.33,2659.1 2189.33,2659.99L2189.33,2890.68C2189.33,2890.84 2189.33,2891 2189.33,2891.16C2189.33,2891.26 2189.33,2891.35 2189.33,2891.44L2189.33,2901.22C2189.33,2903.92 2187.6,2906.11 2185.47,2906.11L2094.1,2906.11L2090.95,2911.08C2082.98,2923.69 2075.03,2936.3 2067.09,2948.93C2042.1,2988.69 2017.24,3028.54 1992.52,3068.47C1980.38,3088.08 1968.27,3107.71 1956.21,3127.36C1947.7,3141.23 1939.21,3155.1 1930.75,3169C1922.99,3181.76 1915.26,3194.53 1907.58,3207.34C1903.25,3214.55 1898.94,3221.76 1894.67,3229.01C1892.26,3233.1 1889.87,3237.19 1887.49,3241.3C1887.23,3241.74 1886.98,3242.18 1886.72,3242.63C1885.59,3244.62 1884.51,3246.65 1883.49,3248.7C1882.8,3250.07 1882.15,3251.45 1881.51,3252.85C1879.45,3257.36 1877.63,3261.98 1876.03,3266.67C1872.03,3278.37 1869.37,3290.5 1867.82,3302.76C1867.49,3305.4 1867.2,3308.05 1866.98,3310.7C1866.74,3313.68 1866.55,3316.66 1866.4,3319.64C1866.19,3323.53 1866.04,3327.42 1865.91,3331.31C1865.72,3337.39 1865.58,3343.47 1865.48,3349.56C1865.39,3355.41 1865.33,3361.27 1865.29,3367.13C1865.23,3376.71 1865.23,3386.29 1865.27,3395.88C1865.33,3409.19 1865.47,3422.5 1865.65,3435.81C1865.83,3449.44 1866.08,3463.08 1866.36,3476.71L1866.43,3480.21L1867.36,3482.22C1871.98,3492.38 1874.56,3503.66 1874.56,3515.53C1874.56,3559.98 1838.48,3596.06 1794.03,3596.06C1765.63,3596.06 1740.65,3581.33 1726.31,3559.1L1692.12,3531.42C1686.82,3527.14 1683.75,3520.69 1683.75,3513.87C1683.75,3494.81 1683.75,3455.34 1683.75,3436.27C1683.75,3429.46 1686.82,3423.01 1692.12,3418.72L1718.61,3397.27C1718.58,3390.43 1718.57,3383.6 1718.58,3376.76C1718.6,3368.28 1718.66,3359.81 1718.77,3351.33C1718.87,3344.19 1719.01,3337.05 1719.22,3329.91C1719.35,3325.45 1719.51,3320.99 1719.71,3316.53C1720,3310.1 1720.37,3303.68 1720.93,3297.28C1721.21,3294.03 1721.55,3290.8 1721.92,3287.57C1722.69,3280.96 1723.66,3274.37 1724.81,3267.82C1725.68,3262.88 1726.66,3257.97 1727.75,3253.08C1728.78,3248.45 1729.91,3243.84 1731.14,3239.25C1732.94,3232.58 1734.95,3225.96 1737.18,3219.41C1739.18,3213.56 1741.35,3207.77 1743.7,3202.06C1747.03,3193.96 1750.72,3186.02 1754.79,3178.26C1755.83,3176.27 1756.9,3174.3 1757.99,3172.33C1759.19,3170.17 1760.43,3168.03 1761.67,3165.9C1762.98,3163.64 1764.29,3161.39 1765.61,3159.14C1770.42,3150.95 1775.27,3142.79 1780.15,3134.65C1789.5,3119.03 1798.94,3103.46 1808.41,3087.92C1816.06,3075.35 1823.74,3062.8 1831.44,3050.26C1855.94,3010.36 1880.6,2970.56 1905.38,2930.83C1921.1,2905.62 1936.87,2880.45 1952.7,2855.32C1968.39,2830.43 1984.14,2805.56 2000.01,2780.78C2003.44,2775.41 2006.89,2770.04 2010.34,2764.68C2011.52,2762.84 2012.71,2761 2013.9,2759.16C2014.06,2758.9 2014.23,2758.64 2014.39,2758.38C2014.78,2757.73 2015.17,2757.09 2015.54,2756.44C2016.91,2754.03 2018.17,2751.56 2019.34,2749.05C2020.89,2745.74 2022.31,2742.36 2023.63,2738.95C2025.31,2734.6 2026.84,2730.2 2028.25,2725.75C2029.69,2721.2 2031.01,2716.61 2032.22,2711.99C2033.9,2705.58 2035.38,2699.12 2036.67,2692.62C2037.81,2686.89 2038.81,2681.13 2039.67,2675.35C2040.54,2669.57 2041.25,2663.77 2041.82,2657.96C2042.33,2652.77 2042.72,2647.56 2042.97,2642.35C2043.12,2639.14 2043.22,2635.93 2043.25,2632.72C2043.28,2630.4 2043.27,2628.08 2043.27,2625.75L2043.27,2624.91L2001.86,2605.44C1993.94,2601.72 1988.89,2593.75 1988.89,2585C1988.89,2577 1988.89,2567.06 1988.89,2559.06C1988.89,2550.31 1993.94,2542.35 2001.86,2538.62L2043.24,2519.17C2043.22,2431.66 2043.22,2344.14 2043.22,2256.63C2043.22,2171.09 2043.23,2085.55 2043.23,2000C2043.24,1922.34 2043.24,1844.67 2043.25,1767.01C2043.26,1715.82 2043.25,1664.63 2043.27,1613.45C2043.27,1607.36 2043.28,1601.26 2043.28,1595.17C2043.29,1587.05 2043.3,1578.94 2043.31,1570.83C2043.32,1564.75 2043.32,1558.67 2043.32,1552.59C2043.32,1547.75 2043.32,1542.92 2043.31,1538.09C2026.11,1540.34 2008.53,1533.33 1998.29,1518.4C1984.14,1497.79 1989.15,1469.56 2009.2,1453.94ZM1838.58,3487.2C1838.33,3475.84 1838.1,3464.47 1837.91,3453.11C1837.68,3439.71 1837.5,3426.3 1837.38,3412.9C1837.28,3400.83 1837.23,3388.75 1837.25,3376.68C1837.27,3366.59 1837.35,3356.5 1837.53,3346.41C1837.6,3342.45 1837.69,3338.5 1837.8,3334.55C1837.91,3330.75 1838.04,3326.94 1838.2,3323.14C1838.41,3318.21 1838.67,3313.28 1839.08,3308.37C1839.27,3306.06 1839.51,3303.76 1839.77,3301.47C1841.04,3290.6 1843.07,3279.81 1845.96,3269.25C1847.46,3263.78 1849.19,3258.36 1851.16,3253.04C1852.26,3250.07 1853.44,3247.13 1854.7,3244.22C1856.32,3240.49 1858.07,3236.82 1859.96,3233.22C1860.57,3232.06 1861.19,3230.91 1861.83,3229.77C1862.48,3228.61 1863.15,3227.45 1863.82,3226.3C1864.5,3225.12 1865.18,3223.95 1865.87,3222.77C1868.29,3218.62 1870.74,3214.47 1873.19,3210.33C1877.14,3203.66 1881.12,3197.01 1885.11,3190.37C1890.25,3181.8 1895.42,3173.24 1900.61,3164.7C1914.13,3142.4 1927.75,3120.17 1941.41,3097.96C1953.52,3078.28 1965.66,3058.64 1977.84,3039.01C1987.98,3022.66 1998.15,3006.31 2008.34,2989.99C2026.14,2961.46 2044.01,2932.97 2061.97,2904.53C2078.48,2878.38 2095.07,2852.28 2111.82,2826.27C2112.34,2825.46 2112.87,2824.65 2113.39,2823.84C2114.09,2822.75 2114.79,2821.65 2115.47,2820.54C2116.57,2818.75 2117.64,2816.94 2118.69,2815.11C2121.04,2810.98 2123.25,2806.76 2125.32,2802.49C2128.03,2796.93 2130.51,2791.26 2132.82,2785.53C2135.82,2778.07 2138.52,2770.49 2140.98,2762.83C2142.85,2756.98 2144.59,2751.09 2146.19,2745.16C2148.81,2735.46 2151.09,2725.66 2153.05,2715.81C2154.3,2709.55 2155.42,2703.27 2156.41,2696.97C2157.82,2688.05 2158.98,2679.08 2159.87,2670.08C2160.64,2662.25 2161.22,2654.41 2161.56,2646.55C2161.73,2642.66 2161.85,2638.77 2161.9,2634.88C2161.91,2633.9 2161.93,2632.92 2161.93,2631.93C2161.94,2630.64 2161.94,2629.35 2161.94,2628.06C2161.93,2615.34 2161.93,2602.62 2161.92,2589.89C2161.9,2523.91 2161.89,2457.92 2161.89,2391.94C2161.88,2317.22 2161.89,2242.5 2161.89,2167.78C2161.9,1952.67 2161.92,1737.55 2161.94,1522.43C2161.94,1521.97 2161.94,1521.51 2161.93,1521.05C2161.92,1519.67 2161.9,1518.29 2161.85,1516.91C2161.75,1514.12 2161.59,1511.33 2161.36,1508.54C2160.41,1497.12 2158.32,1485.8 2155.17,1474.78C2152.09,1463.99 2148.01,1453.49 2142.93,1443.49C2141.1,1439.88 2139.14,1436.34 2137.05,1432.87C2135.93,1431.01 2134.77,1429.17 2133.58,1427.35C2133.23,1426.82 2132.87,1426.28 2132.51,1425.75C2131.87,1424.79 2131.24,1423.84 2130.6,1422.88C2129.74,1421.58 2128.87,1420.29 2128.01,1418.99C2122.71,1410.94 2117.47,1402.86 2112.24,1394.77C2106.73,1386.23 2101.25,1377.67 2095.77,1369.11C2088.51,1357.76 2081.25,1346.4 2073.99,1335.05C2068.75,1326.86 2063.5,1318.67 2058.23,1310.5C2055.14,1305.71 2052.04,1300.93 2048.92,1296.16C2047.09,1293.36 2045.25,1290.56 2043.39,1287.76C2042.64,1286.62 2041.88,1285.49 2041.12,1284.35C2041.02,1284.19 2040.92,1284.04 2040.81,1283.88C2040.24,1282.97 2039.69,1282.05 2039.19,1281.1C2038.45,1279.73 2037.78,1278.31 2037.17,1276.88C2036.32,1274.85 2035.57,1272.78 2034.92,1270.68C2034.23,1268.48 2033.65,1266.25 2033.15,1264C2032.35,1260.39 2031.75,1256.73 2031.32,1253.05C2031.09,1251.06 2030.91,1249.06 2030.75,1247.05C2030.6,1245.16 2030.46,1243.27 2030.32,1241.38C2029.9,1235.36 2029.57,1229.34 2029.28,1223.31C2028.8,1213.29 2028.46,1203.26 2028.19,1193.23C2027.9,1182.78 2027.7,1172.32 2027.55,1161.87C2027.43,1153.5 2027.36,1145.13 2027.31,1136.76C2027.3,1133.33 2027.28,1129.91 2027.28,1126.48C2027.28,1125.45 2027.28,1124.42 2027.28,1123.38C2027.28,1122.9 2027.27,1122.41 2027.28,1121.93C2027.28,1121.77 2027.28,1121.62 2027.29,1121.46C2027.29,1121.36 2027.29,1121.27 2027.28,1121.17C2027.26,1120.74 2027.24,1120.32 2027.22,1119.9C2027.19,1119.36 2027.16,1118.82 2027.14,1118.28C2027.12,1117.88 2027.1,1117.47 2027.07,1117.07C2027.03,1116.46 2026.98,1115.86 2026.91,1115.26C2026.81,1114.45 2026.68,1113.65 2026.54,1112.86C2026.28,1111.47 2025.96,1110.09 2025.58,1108.72C2023.95,1102.94 2021.16,1097.5 2017.43,1092.8C2013.73,1088.15 2009.12,1084.25 2003.93,1081.37C2002.62,1080.65 2001.28,1080 1999.92,1079.39C1998.57,1078.8 1997.2,1078.25 1995.79,1077.82C1994.56,1077.45 1993.3,1077.17 1992.04,1076.91C1991.19,1076.73 1990.34,1076.56 1989.49,1076.38L1989,1076.27L1988.49,1076.16L1982.04,1075.68C1981.86,1075.7 1981.69,1075.71 1981.51,1075.72C1980.23,1075.8 1978.94,1075.87 1977.66,1075.95C1977.42,1075.97 1977.18,1075.99 1976.94,1076.01C1975.98,1076.08 1975.02,1076.18 1974.06,1076.34C1972.86,1076.55 1971.67,1076.83 1970.49,1077.15C1969.43,1077.44 1968.37,1077.75 1967.33,1078.1C1964.33,1079.12 1961.44,1080.46 1958.72,1082.09C1956,1083.71 1953.44,1085.62 1951.12,1087.78C1948.8,1089.93 1946.7,1092.33 1944.88,1094.92C1943.09,1097.46 1941.57,1100.18 1940.34,1103.02C1939.83,1104.2 1939.37,1105.4 1938.96,1106.61C1938.71,1107.37 1938.48,1108.14 1938.26,1108.91C1937.85,1110.35 1937.48,1111.81 1937.25,1113.3C1937.04,1114.62 1936.93,1115.96 1936.85,1117.3C1936.79,1118.16 1936.74,1119.03 1936.68,1119.9L1936.65,1120.4L1936.61,1120.92C1936.61,1122.79 1936.61,1124.65 1936.61,1126.51C1936.63,1141.79 1936.78,1157.07 1937.04,1172.34C1937.31,1188.13 1937.71,1203.92 1938.36,1219.7C1938.54,1223.85 1938.73,1228.01 1938.94,1232.16C1939.19,1237.04 1939.48,1241.92 1939.81,1246.79C1939.99,1249.32 1940.17,1251.84 1940.38,1254.36C1940.56,1256.59 1940.75,1258.82 1940.99,1261.05C1941.4,1264.99 1941.92,1268.92 1942.56,1272.83C1944.96,1287.53 1948.99,1302.01 1955.15,1315.59C1957.1,1319.87 1959.25,1324.06 1961.62,1328.12C1962.36,1329.4 1963.13,1330.66 1963.91,1331.91C1964.3,1332.53 1964.7,1333.14 1965.09,1333.75C1966.18,1335.4 1967.29,1337.05 1968.38,1338.7C1972.24,1344.53 1976.05,1350.39 1979.85,1356.25C1983.68,1362.18 1987.5,1368.12 1991.31,1374.07C2000.55,1388.47 2009.75,1402.89 2018.97,1417.3C2021.39,1421.09 2023.82,1424.87 2026.24,1428.66C2033.36,1439.75 2040.48,1450.83 2047.69,1461.85C2049.89,1465.2 2052.09,1468.55 2054.3,1471.88C2054.99,1472.92 2055.69,1473.96 2056.38,1475C2056.84,1475.69 2057.31,1476.38 2057.77,1477.08C2057.99,1477.42 2058.22,1477.77 2058.44,1478.12C2059.19,1479.3 2059.9,1480.5 2060.59,1481.72C2063.05,1486.13 2065.09,1490.78 2066.71,1495.57C2069.06,1502.49 2070.55,1509.71 2071.08,1517C2071.18,1518.35 2071.24,1519.7 2071.26,1521.05C2071.27,1521.42 2071.27,1521.78 2071.27,1522.15C2071.29,1526.21 2071.3,1530.27 2071.3,1534.33C2071.35,1558.68 2071.29,1583.03 2071.27,1607.38L2071.27,1613.46C2071.25,1664.64 2071.26,1715.83 2071.25,1767.01C2071.25,1816.16 2071.24,1865.31 2071.24,1914.47C2071.22,2054.45 2071.22,2194.43 2071.22,2334.41C2071.22,2399.24 2071.22,2464.06 2071.24,2528.88C2071.24,2549.23 2071.24,2569.58 2071.25,2589.93C2071.26,2597.31 2071.26,2604.7 2071.26,2612.08C2071.26,2615.14 2071.26,2618.2 2071.27,2621.26C2071.27,2624.24 2071.27,2627.23 2071.27,2630.21C2071.27,2630.92 2071.26,2631.63 2071.26,2632.34C2071.24,2634.47 2071.2,2636.59 2071.13,2638.72C2070.97,2643.92 2070.67,2649.11 2070.26,2654.3C2069.66,2661.84 2068.81,2669.36 2067.75,2676.86C2066.82,2683.41 2065.72,2689.95 2064.46,2696.45C2062.82,2704.86 2060.9,2713.22 2058.66,2721.5C2057.47,2725.92 2056.18,2730.31 2054.79,2734.68C2053.01,2740.28 2051.05,2745.82 2048.87,2751.28C2047.46,2754.79 2045.96,2758.27 2044.34,2761.69C2042.85,2764.83 2041.25,2767.92 2039.5,2770.93C2039.04,2771.73 2038.57,2772.52 2038.08,2773.31C2037.86,2773.66 2037.73,2773.87 2037.5,2774.22C2035.41,2777.47 2033.31,2780.73 2031.21,2783.99C2013.73,2811.19 1996.41,2838.5 1979.17,2865.85C1960.67,2895.19 1942.26,2924.58 1923.92,2954.01C1911.06,2974.65 1898.24,2995.3 1885.45,3015.98C1874.6,3033.53 1863.78,3051.09 1852.99,3068.68C1844.17,3083.07 1835.37,3097.47 1826.6,3111.89C1818.74,3124.82 1810.91,3137.77 1803.14,3150.75C1798.65,3158.26 1794.19,3165.77 1789.76,3173.31C1788.47,3175.52 1787.17,3177.74 1785.88,3179.96C1784.73,3181.95 1783.58,3183.94 1782.46,3185.94C1781.4,3187.85 1780.36,3189.77 1779.35,3191.71C1775.38,3199.33 1771.8,3207.16 1768.61,3215.15C1762.09,3231.44 1757.17,3248.36 1753.73,3265.56C1752.05,3273.91 1750.72,3282.34 1749.74,3290.81C1749.33,3294.31 1748.97,3297.81 1748.69,3301.32C1748.38,3305.1 1748.13,3308.89 1747.93,3312.68C1747.77,3315.8 1747.63,3318.91 1747.51,3322.03C1747.28,3327.78 1747.12,3333.54 1746.99,3339.3C1746.9,3343.43 1746.83,3347.57 1746.77,3351.7C1746.6,3364.37 1746.56,3377.03 1746.59,3389.69C1746.61,3398.86 1746.66,3408.03 1746.75,3417.2C1746.86,3428.19 1747.01,3439.18 1747.18,3450.17C1747.31,3458.14 1747.45,3466.12 1747.61,3474.09L1748.15,3489.4C1743.75,3497.11 1741.23,3506.03 1741.23,3515.53C1741.23,3544.67 1764.89,3568.33 1794.03,3568.33C1823.17,3568.33 1846.83,3544.67 1846.83,3515.53C1846.83,3505.11 1843.8,3495.39 1838.58,3487.2Z"/>
                <path d="M696.927,3508.13C698.645,3508.13 700.29,3508.82 701.494,3510.04C702.698,3511.27 703.359,3512.92 703.329,3514.64C703.281,3521.46 703.198,3531.23 703.078,3532.63C699.563,3573.84 664.956,3606.24 622.842,3606.24C580.94,3606.24 546.47,3574.17 542.661,3533.26C542.516,3531.7 542.416,3521.62 542.361,3514.65C542.329,3512.93 542.989,3511.27 544.193,3510.04C545.397,3508.82 547.043,3508.13 548.761,3508.13C553.302,3508.13 559.347,3508.13 563.835,3508.13C567.269,3508.13 570.092,3510.84 570.232,3514.27C570.565,3523.4 571.397,3538.31 572.66,3542.16L572.666,3542.18C572.828,3542.68 572.998,3543.17 573.174,3543.65L573.178,3543.66C573.294,3543.99 573.414,3544.31 573.537,3544.63L573.544,3544.64C573.729,3545.12 573.921,3545.6 574.119,3546.08L574.128,3546.1C574.259,3546.41 574.394,3546.72 574.531,3547.03L574.537,3547.05C574.606,3547.2 574.676,3547.36 574.746,3547.51L574.75,3547.52C574.89,3547.83 575.033,3548.14 575.18,3548.44L575.186,3548.45L575.192,3548.47C575.339,3548.78 575.489,3549.08 575.641,3549.38L575.643,3549.39C575.719,3549.54 575.795,3549.69 575.872,3549.84L575.884,3549.86C576.038,3550.16 576.194,3550.45 576.352,3550.75L576.36,3550.76L576.366,3550.77C576.446,3550.92 576.526,3551.07 576.607,3551.21L576.611,3551.22C576.773,3551.51 576.939,3551.81 577.108,3552.1L577.116,3552.11L577.126,3552.13C577.293,3552.42 577.462,3552.7 577.634,3552.99L577.647,3553.01C577.732,3553.15 577.818,3553.29 577.905,3553.43L577.911,3553.44L577.921,3553.45C578.094,3553.74 578.271,3554.01 578.45,3554.29L578.462,3554.31L578.472,3554.33C578.561,3554.47 578.652,3554.6 578.742,3554.74L578.887,3554.96L579.03,3555.17C579.122,3555.31 579.214,3555.44 579.307,3555.58L579.318,3555.59L579.332,3555.61C579.517,3555.88 579.705,3556.15 579.895,3556.42L579.909,3556.44L579.919,3556.45C580.013,3556.58 580.108,3556.71 580.204,3556.84L580.211,3556.85L580.223,3556.87C580.416,3557.13 580.612,3557.39 580.81,3557.65L580.825,3557.68L580.841,3557.7C581.039,3557.95 581.239,3558.21 581.442,3558.47L581.456,3558.49L581.463,3558.49C581.563,3558.62 581.663,3558.74 581.764,3558.87L581.776,3558.89L581.795,3558.91C581.997,3559.16 582.203,3559.41 582.41,3559.65L582.429,3559.68L582.445,3559.7C582.548,3559.82 582.651,3559.94 582.755,3560.06L582.762,3560.07L582.775,3560.08L582.924,3560.26L583.101,3560.46C583.206,3560.58 583.312,3560.7 583.418,3560.82L583.437,3560.84L583.458,3560.86C583.672,3561.1 583.888,3561.34 584.106,3561.58L584.127,3561.6L584.141,3561.61C584.248,3561.73 584.356,3561.84 584.464,3561.96L584.478,3561.97L584.5,3562C584.72,3562.23 584.941,3562.46 585.165,3562.69L585.189,3562.71L585.211,3562.73C585.322,3562.85 585.433,3562.96 585.545,3563.07L585.738,3563.26L585.895,3563.41L585.915,3563.43L585.925,3563.44C586.037,3563.55 586.149,3563.66 586.262,3563.77L586.283,3563.79L586.31,3563.82C586.538,3564.04 586.769,3564.25 587.001,3564.47L587.029,3564.49L587.049,3564.51C587.164,3564.62 587.278,3564.72 587.394,3564.83L587.407,3564.84L587.433,3564.86L587.583,3565L587.794,3565.19C587.911,3565.29 588.029,3565.39 588.147,3565.5L588.174,3565.52L588.202,3565.55C588.32,3565.65 588.439,3565.75 588.558,3565.85L588.777,3566.04L588.924,3566.16L588.954,3566.19L588.97,3566.2C589.089,3566.3 589.207,3566.4 589.327,3566.5L589.348,3566.52L589.381,3566.54C589.623,3566.74 589.868,3566.94 590.115,3567.13L590.147,3567.16L590.175,3567.18C590.296,3567.28 590.417,3567.37 590.539,3567.47L590.552,3567.48L590.579,3567.5L590.753,3567.63L590.933,3567.77L590.959,3567.79L590.971,3567.8C591.094,3567.89 591.217,3567.98 591.341,3568.08L591.37,3568.1L591.404,3568.12C591.53,3568.22 591.656,3568.31 591.783,3568.4L592.027,3568.58L592.164,3568.68L592.2,3568.7L592.224,3568.72C592.348,3568.81 592.473,3568.9 592.598,3568.99L592.62,3569L592.656,3569.03L592.805,3569.13L593.047,3569.3C593.175,3569.38 593.303,3569.47 593.432,3569.56L593.468,3569.58L593.502,3569.6C593.63,3569.69 593.758,3569.77 593.886,3569.86L593.897,3569.87L593.923,3569.88L594.124,3570.01L594.292,3570.12L594.328,3570.15L594.347,3570.16C594.475,3570.24 594.604,3570.32 594.733,3570.4L594.763,3570.42L594.803,3570.45C595.067,3570.61 595.332,3570.78 595.599,3570.94L595.64,3570.96L595.671,3570.98C595.801,3571.06 595.932,3571.14 596.063,3571.22L596.083,3571.23L596.122,3571.25L596.293,3571.35L596.498,3571.47L596.528,3571.49L596.54,3571.49C596.673,3571.57 596.806,3571.65 596.939,3571.72L596.977,3571.74L597.017,3571.76C597.151,3571.84 597.286,3571.92 597.421,3571.99L597.683,3572.13L597.838,3572.22L597.882,3572.24L597.907,3572.26C598.041,3572.33 598.175,3572.4 598.309,3572.47L598.338,3572.48L598.383,3572.51L598.529,3572.58L598.801,3572.72C598.939,3572.8 599.077,3572.87 599.215,3572.93L599.259,3572.96L599.297,3572.97C599.433,3573.04 599.57,3573.11 599.706,3573.18L599.723,3573.19L599.762,3573.2L599.959,3573.3L600.149,3573.39L600.19,3573.41L600.209,3573.42C600.347,3573.49 600.484,3573.55 600.622,3573.61L600.659,3573.63L600.706,3573.65C600.846,3573.72 600.988,3573.78 601.129,3573.85L601.414,3573.97L601.558,3574.04L601.606,3574.06L601.638,3574.07C601.777,3574.14 601.916,3574.2 602.056,3574.26L602.083,3574.27L602.13,3574.29L602.298,3574.36L602.531,3574.46L602.562,3574.47L602.573,3574.47C602.714,3574.53 602.856,3574.59 602.999,3574.65L603.043,3574.67L603.087,3574.68C603.229,3574.74 603.372,3574.8 603.514,3574.86L603.527,3574.86L603.562,3574.87L603.789,3574.96L603.965,3575.03L604.014,3575.05L604.04,3575.06C604.182,3575.11 604.324,3575.17 604.466,3575.22L604.502,3575.23L604.553,3575.25L604.695,3575.3L604.994,3575.41C605.141,3575.47 605.288,3575.52 605.436,3575.57L605.486,3575.59L605.526,3575.6C605.67,3575.65 605.814,3575.7 605.958,3575.75L605.981,3575.76L606.03,3575.77L606.222,3575.84L606.436,3575.91L606.479,3575.92L606.497,3575.93C606.642,3575.97 606.788,3576.02 606.935,3576.07L606.979,3576.08L607.028,3576.1C607.176,3576.14 607.324,3576.19 607.473,3576.24L607.481,3576.24L607.506,3576.24L607.769,3576.32L607.932,3576.37L607.985,3576.39L608.017,3576.4C608.164,3576.44 608.311,3576.48 608.458,3576.52L608.491,3576.53L608.544,3576.55L608.707,3576.59L608.972,3576.67L608.999,3576.67L609.007,3576.68C609.157,3576.72 609.307,3576.76 609.458,3576.8L609.509,3576.81L609.554,3576.82C609.703,3576.86 609.853,3576.9 610.002,3576.93L610.021,3576.94L610.066,3576.95L610.287,3577.01L610.484,3577.05L610.535,3577.07L610.56,3577.07C610.709,3577.11 610.859,3577.14 611.009,3577.18L611.051,3577.19L611.105,3577.2C611.259,3577.23 611.413,3577.27 611.567,3577.3L611.884,3577.37L612.034,3577.4L612.089,3577.41L612.128,3577.42C612.279,3577.45 612.431,3577.48 612.582,3577.51L612.611,3577.52L612.665,3577.53L612.852,3577.57L613.093,3577.61L613.134,3577.62L613.149,3577.62C613.303,3577.65 613.456,3577.68 613.61,3577.7L613.66,3577.71L613.71,3577.72C613.865,3577.75 614.019,3577.78 614.174,3577.8L614.187,3577.8L614.225,3577.81L614.478,3577.85L614.66,3577.88L614.716,3577.89L614.747,3577.89C614.901,3577.92 615.054,3577.94 615.208,3577.96L615.246,3577.97L615.303,3577.97L615.462,3578L615.783,3578.04C615.941,3578.06 616.099,3578.08 616.258,3578.1L616.313,3578.11L616.358,3578.12C616.513,3578.13 616.669,3578.15 616.825,3578.17L616.849,3578.17L616.901,3578.18L617.114,3578.2L617.336,3578.23L617.386,3578.23L617.408,3578.23C617.564,3578.25 617.721,3578.26 617.878,3578.28L617.925,3578.28L617.98,3578.29C618.139,3578.3 618.298,3578.32 618.458,3578.33L618.782,3578.36L618.949,3578.37L619.007,3578.37L619.045,3578.38C619.202,3578.39 619.359,3578.4 619.517,3578.41L619.551,3578.41L619.608,3578.41L619.789,3578.42L620.061,3578.44L620.096,3578.44L620.107,3578.44C620.267,3578.45 620.427,3578.46 620.588,3578.46L620.642,3578.47L620.692,3578.47C620.852,3578.47 621.012,3578.48 621.172,3578.48L621.19,3578.49L621.236,3578.49L621.48,3578.49L621.683,3578.5L621.739,3578.5L621.768,3578.5C621.927,3578.5 622.086,3578.51 622.246,3578.51L622.29,3578.51L622.348,3578.51L622.5,3578.51L622.842,3578.51C622.842,3578.51 623.183,3578.51 623.183,3578.51L623.335,3578.51L623.394,3578.51L623.437,3578.51C623.597,3578.51 623.756,3578.5 623.916,3578.5L623.944,3578.5L624,3578.5L624.204,3578.49L624.447,3578.49L624.493,3578.49L624.512,3578.48C624.671,3578.48 624.831,3578.47 624.991,3578.47L625.041,3578.47L625.095,3578.46C625.256,3578.46 625.416,3578.45 625.576,3578.44L625.588,3578.44L625.623,3578.44L625.894,3578.42L626.075,3578.41L626.133,3578.41L626.167,3578.41C626.324,3578.4 626.482,3578.39 626.639,3578.38L626.676,3578.37L626.734,3578.37L626.902,3578.36L627.194,3578.33L627.218,3578.33L627.225,3578.33C627.385,3578.32 627.544,3578.3 627.704,3578.29L627.759,3578.28L627.805,3578.28C627.962,3578.26 628.119,3578.25 628.275,3578.23L628.297,3578.23L628.348,3578.23L628.569,3578.2L628.783,3578.18L628.835,3578.17L628.859,3578.17C629.014,3578.15 629.17,3578.13 629.325,3578.12L629.37,3578.11L629.426,3578.1C629.584,3578.08 629.742,3578.06 629.9,3578.04L629.904,3578.04L629.921,3578.04L630.222,3578L630.38,3577.97L630.437,3577.97L630.475,3577.96C630.629,3577.94 630.783,3577.92 630.936,3577.89L630.967,3577.89L631.023,3577.88L631.205,3577.85L631.459,3577.81L631.496,3577.8L631.509,3577.8C631.664,3577.78 631.819,3577.75 631.973,3577.72L632.024,3577.71L632.073,3577.7C632.227,3577.68 632.38,3577.65 632.534,3577.62L632.549,3577.62L632.59,3577.61L632.831,3577.57L633.018,3577.53L633.072,3577.52L633.101,3577.51C633.253,3577.48 633.404,3577.45 633.555,3577.42L633.594,3577.41L633.649,3577.4L633.799,3577.37L634.106,3577.3L634.114,3577.3L634.116,3577.3C634.271,3577.27 634.425,3577.23 634.578,3577.2L634.632,3577.19L634.674,3577.18C634.824,3577.14 634.974,3577.11 635.124,3577.07L635.148,3577.07L635.199,3577.05L635.397,3577.01L635.617,3576.95L635.662,3576.94L635.681,3576.93C635.831,3576.9 635.98,3576.86 636.129,3576.82L636.174,3576.81L636.225,3576.8C636.376,3576.76 636.526,3576.72 636.676,3576.68L636.685,3576.67L636.711,3576.67L636.976,3576.59L637.139,3576.55L637.193,3576.53L637.226,3576.52C637.373,3576.48 637.519,3576.44 637.666,3576.4L637.699,3576.39L637.752,3576.37L637.914,3576.32L638.177,3576.24L638.203,3576.24L638.211,3576.24C638.359,3576.19 638.507,3576.14 638.655,3576.1L638.705,3576.08L638.748,3576.07C638.895,3576.02 639.041,3575.97 639.186,3575.93L639.204,3575.92L639.247,3575.91L639.462,3575.84L639.654,3575.77L639.702,3575.76L639.725,3575.75C639.869,3575.7 640.014,3575.65 640.158,3575.6L640.197,3575.59L640.247,3575.57C640.395,3575.52 640.542,3575.47 640.689,3575.41L640.69,3575.41L640.696,3575.41L640.988,3575.3L641.131,3575.25L641.181,3575.23L641.217,3575.22C641.359,3575.17 641.502,3575.11 641.644,3575.06L641.67,3575.05L641.718,3575.03L641.894,3574.96L642.121,3574.87L642.156,3574.86L642.169,3574.86C642.312,3574.8 642.454,3574.74 642.596,3574.68L642.64,3574.67L642.685,3574.65C642.827,3574.59 642.969,3574.53 643.111,3574.47L643.122,3574.47L643.152,3574.46L643.386,3574.36L643.553,3574.29L643.601,3574.27L643.627,3574.26C643.767,3574.2 643.906,3574.13 644.045,3574.07L644.078,3574.06L644.126,3574.04L644.27,3573.97L644.543,3573.85L644.552,3573.85L644.554,3573.85C644.696,3573.78 644.837,3573.72 644.978,3573.65L645.024,3573.63L645.061,3573.61C645.199,3573.55 645.337,3573.49 645.474,3573.42L645.493,3573.41L645.534,3573.39L645.724,3573.3L645.921,3573.2L645.96,3573.19L645.977,3573.18C646.114,3573.11 646.25,3573.04 646.387,3572.97L646.424,3572.96L646.468,3572.93C646.606,3572.87 646.744,3572.8 646.882,3572.72L646.886,3572.72L646.899,3572.72L647.154,3572.58L647.3,3572.51L647.345,3572.48L647.374,3572.47C647.508,3572.4 647.642,3572.33 647.776,3572.26L647.802,3572.24L647.845,3572.22L648.001,3572.13L648.234,3572.01L648.255,3571.99L648.262,3571.99C648.397,3571.92 648.532,3571.84 648.666,3571.76L648.706,3571.74L648.744,3571.72C648.877,3571.65 649.01,3571.57 649.143,3571.49L649.155,3571.49L649.185,3571.47L649.39,3571.35L649.561,3571.25L649.601,3571.23L649.62,3571.22C649.751,3571.14 649.882,3571.06 650.013,3570.98L650.043,3570.96L650.084,3570.94C650.351,3570.78 650.617,3570.61 650.88,3570.45L650.921,3570.42L650.95,3570.4C651.079,3570.32 651.208,3570.24 651.336,3570.16L651.355,3570.15L651.391,3570.12L651.559,3570.01L651.76,3569.88L651.787,3569.87L651.797,3569.86C651.925,3569.77 652.054,3569.69 652.181,3569.6L652.215,3569.58L652.251,3569.56C652.38,3569.47 652.508,3569.38 652.636,3569.3L652.641,3569.29L652.656,3569.28L652.878,3569.13L653.027,3569.03L653.064,3569L653.085,3568.99C653.21,3568.9 653.335,3568.81 653.459,3568.72L653.483,3568.7L653.52,3568.68L653.657,3568.58L653.897,3568.4L653.9,3568.4L653.901,3568.4C654.027,3568.31 654.153,3568.22 654.279,3568.12L654.313,3568.1L654.343,3568.08C654.466,3567.98 654.589,3567.89 654.712,3567.8L654.724,3567.79L654.75,3567.77L654.93,3567.63L655.104,3567.5L655.131,3567.48L655.144,3567.47C655.266,3567.37 655.387,3567.28 655.509,3567.18L655.536,3567.16L655.569,3567.13C655.815,3566.94 656.06,3566.74 656.303,3566.54L656.335,3566.52L656.356,3566.5C656.476,3566.4 656.595,3566.3 656.713,3566.2L656.73,3566.19L656.759,3566.16L656.906,3566.04L657.11,3565.87L657.121,3565.86L657.125,3565.85C657.244,3565.75 657.363,3565.65 657.481,3565.55L657.509,3565.52L657.537,3565.5C657.655,3565.39 657.772,3565.29 657.889,3565.19L657.894,3565.18L657.907,3565.17L658.1,3565L658.25,3564.86L658.276,3564.84L658.289,3564.83C658.405,3564.72 658.519,3564.62 658.634,3564.51L658.654,3564.49L658.682,3564.47C658.914,3564.25 659.145,3564.04 659.374,3563.82L659.4,3563.79L659.421,3563.77C659.534,3563.66 659.647,3563.55 659.759,3563.44L659.768,3563.43L659.789,3563.41L659.945,3563.26L660.119,3563.09L660.133,3563.07L660.139,3563.07C660.25,3562.96 660.362,3562.85 660.472,3562.73L660.494,3562.71L660.518,3562.69C660.742,3562.46 660.964,3562.23 661.183,3562L661.206,3561.97L661.219,3561.96C661.328,3561.84 661.435,3561.73 661.543,3561.61L661.556,3561.6L661.578,3561.58C661.796,3561.34 662.011,3561.1 662.225,3560.86L662.246,3560.84L662.265,3560.82C662.371,3560.7 662.477,3560.58 662.582,3560.46L662.586,3560.45L662.594,3560.45L662.76,3560.26L662.908,3560.08L662.922,3560.07L662.928,3560.06C663.032,3559.94 663.136,3559.82 663.238,3559.7L663.254,3559.68L663.273,3559.65C663.481,3559.41 663.686,3559.16 663.889,3558.91L663.907,3558.89L663.92,3558.87C664.02,3558.74 664.121,3558.62 664.22,3558.49L664.228,3558.49L664.241,3558.47C664.444,3558.21 664.644,3557.95 664.842,3557.7L664.858,3557.68L664.874,3557.65C665.072,3557.39 665.267,3557.13 665.461,3556.87L665.473,3556.85L665.479,3556.84C665.575,3556.71 665.67,3556.58 665.765,3556.45L665.774,3556.44L665.788,3556.42C665.978,3556.15 666.166,3555.88 666.351,3555.61L666.365,3555.59L666.376,3555.58C666.469,3555.44 666.561,3555.31 666.653,3555.17L666.655,3555.17L666.659,3555.16L666.796,3554.96L666.939,3554.74L666.94,3554.74L666.941,3554.74C667.032,3554.6 667.122,3554.47 667.211,3554.33L667.222,3554.31L667.234,3554.29C667.413,3554.01 667.589,3553.74 667.763,3553.45L667.772,3553.44L667.778,3553.43C667.865,3553.29 667.951,3553.15 668.037,3553.01L668.041,3553L668.049,3552.99C668.221,3552.7 668.39,3552.42 668.557,3552.13L668.567,3552.11L668.576,3552.1C668.744,3551.81 668.91,3551.51 669.073,3551.22L669.075,3551.22L669.077,3551.21C669.158,3551.07 669.238,3550.92 669.317,3550.77L669.323,3550.76L669.331,3550.75C669.49,3550.45 669.646,3550.16 669.799,3549.86L669.806,3549.85L669.811,3549.84C669.888,3549.69 669.964,3549.54 670.04,3549.39L670.041,3549.39L670.042,3549.38C670.195,3549.08 670.344,3548.78 670.491,3548.47L670.497,3548.45L670.504,3548.44C670.65,3548.14 670.793,3547.83 670.933,3547.52L670.936,3547.51L670.937,3547.51C671.008,3547.36 671.077,3547.2 671.146,3547.05L671.149,3547.04L671.152,3547.03C671.29,3546.72 671.424,3546.41 671.555,3546.1L671.56,3546.09L671.564,3546.08C671.763,3545.6 671.955,3545.12 672.14,3544.64L672.143,3544.64L672.147,3544.63C672.269,3544.31 672.389,3543.99 672.506,3543.66L672.508,3543.66L672.509,3543.65C672.686,3543.17 672.855,3542.68 673.017,3542.18L673.02,3542.17L673.023,3542.16C674.286,3538.31 675.119,3523.4 675.462,3514.27C675.602,3510.84 678.42,3508.14 681.849,3508.14C686.338,3508.13 692.386,3508.13 696.927,3508.13Z" style="fill:rgb(84,0,178);fill-opacity:0.701961;"/>
                <path d="M1868.12,3504.48C1869.83,3504.48 1871.48,3505.17 1872.68,3506.4C1873.89,3507.62 1874.55,3509.28 1874.52,3511C1874.47,3517.82 1874.39,3527.59 1874.27,3528.99C1870.75,3570.2 1836.14,3602.6 1794.03,3602.6C1752.13,3602.6 1717.66,3570.53 1713.85,3529.61C1713.7,3528.06 1713.6,3517.97 1713.55,3511C1713.52,3509.28 1714.18,3507.63 1715.38,3506.4C1716.59,3505.17 1718.23,3504.48 1719.95,3504.48C1724.49,3504.48 1730.54,3504.48 1735.02,3504.48C1738.46,3504.48 1741.28,3507.19 1741.42,3510.62C1741.75,3519.76 1742.59,3534.67 1743.85,3538.52L1743.85,3538.54C1744.02,3539.03 1744.19,3539.52 1744.36,3540.01L1744.37,3540.02C1744.48,3540.34 1744.6,3540.66 1744.73,3540.98L1744.73,3541C1744.92,3541.48 1745.11,3541.96 1745.31,3542.43L1745.32,3542.45C1745.45,3542.77 1745.58,3543.08 1745.72,3543.39L1745.73,3543.4C1745.79,3543.56 1745.86,3543.71 1745.93,3543.87L1745.94,3543.88C1746.08,3544.18 1746.22,3544.49 1746.37,3544.8L1746.37,3544.81L1746.38,3544.82C1746.53,3545.13 1746.68,3545.44 1746.83,3545.74L1746.83,3545.74C1746.91,3545.89 1746.98,3546.04 1747.06,3546.19L1747.07,3546.22C1747.23,3546.51 1747.38,3546.81 1747.54,3547.1L1747.55,3547.12L1747.55,3547.13C1747.63,3547.28 1747.71,3547.42 1747.8,3547.57L1747.8,3547.58C1747.96,3547.87 1748.13,3548.16 1748.3,3548.45L1748.31,3548.47L1748.31,3548.49C1748.48,3548.77 1748.65,3549.06 1748.82,3549.34L1748.84,3549.36C1748.92,3549.51 1749.01,3549.65 1749.09,3549.79L1749.1,3549.8L1749.11,3549.81C1749.28,3550.09 1749.46,3550.37 1749.64,3550.65L1749.65,3550.67L1749.66,3550.68C1749.75,3550.82 1749.84,3550.96 1749.93,3551.1L1750.08,3551.31L1750.22,3551.53C1750.31,3551.66 1750.4,3551.8 1750.5,3551.93L1750.51,3551.95L1750.52,3551.97C1750.7,3552.24 1750.89,3552.51 1751.08,3552.77L1751.1,3552.79L1751.11,3552.81C1751.2,3552.94 1751.3,3553.07 1751.39,3553.2L1751.4,3553.21L1751.41,3553.22C1751.6,3553.49 1751.8,3553.75 1752,3554.01L1752.01,3554.03L1752.03,3554.05C1752.23,3554.31 1752.43,3554.57 1752.63,3554.82L1752.64,3554.84L1752.65,3554.85C1752.75,3554.98 1752.85,3555.1 1752.95,3555.22L1752.97,3555.24L1752.98,3555.26C1753.19,3555.51 1753.39,3555.76 1753.6,3556.01L1753.62,3556.03L1753.63,3556.05C1753.74,3556.17 1753.84,3556.3 1753.94,3556.42L1753.95,3556.42L1753.96,3556.44L1754.11,3556.61L1754.29,3556.82C1754.39,3556.93 1754.5,3557.06 1754.61,3557.17L1754.62,3557.2L1754.65,3557.22C1754.86,3557.46 1755.08,3557.7 1755.29,3557.93L1755.32,3557.95L1755.33,3557.97C1755.44,3558.08 1755.54,3558.2 1755.65,3558.31L1755.67,3558.33L1755.69,3558.35C1755.91,3558.58 1756.13,3558.81 1756.35,3559.04L1756.38,3559.07L1756.4,3559.09C1756.51,3559.2 1756.62,3559.31 1756.73,3559.43L1756.93,3559.62L1757.08,3559.77L1757.1,3559.79L1757.11,3559.8C1757.23,3559.91 1757.34,3560.02 1757.45,3560.13L1757.47,3560.15L1757.5,3560.17C1757.73,3560.39 1757.96,3560.61 1758.19,3560.82L1758.22,3560.85L1758.24,3560.87C1758.35,3560.97 1758.47,3561.08 1758.58,3561.18L1758.6,3561.2L1758.62,3561.22L1758.77,3561.36L1758.98,3561.54C1759.1,3561.65 1759.22,3561.75 1759.34,3561.85L1759.36,3561.88L1759.39,3561.9C1759.51,3562.01 1759.63,3562.11 1759.75,3562.21L1759.97,3562.4L1760.11,3562.52L1760.14,3562.54L1760.16,3562.56C1760.28,3562.66 1760.4,3562.76 1760.52,3562.85L1760.54,3562.87L1760.57,3562.9C1760.81,3563.1 1761.06,3563.3 1761.3,3563.49L1761.34,3563.52L1761.36,3563.54C1761.48,3563.63 1761.61,3563.73 1761.73,3563.82L1761.74,3563.83L1761.77,3563.85L1761.94,3563.99L1762.12,3564.12L1762.15,3564.14L1762.16,3564.15C1762.28,3564.25 1762.4,3564.34 1762.53,3564.43L1762.56,3564.45L1762.59,3564.48C1762.72,3564.57 1762.84,3564.66 1762.97,3564.76L1763.22,3564.93L1763.35,3565.03L1763.39,3565.06L1763.41,3565.08C1763.54,3565.16 1763.66,3565.25 1763.79,3565.34L1763.81,3565.36L1763.84,3565.38L1763.99,3565.48L1764.24,3565.65C1764.36,3565.74 1764.49,3565.83 1764.62,3565.91L1764.66,3565.94L1764.69,3565.96C1764.82,3566.05 1764.95,3566.13 1765.08,3566.22L1765.09,3566.22L1765.11,3566.24L1765.31,3566.37L1765.48,3566.48L1765.52,3566.5L1765.54,3566.51C1765.66,3566.6 1765.79,3566.68 1765.92,3566.76L1765.95,3566.78L1765.99,3566.8C1766.26,3566.97 1766.52,3567.13 1766.79,3567.29L1766.83,3567.32L1766.86,3567.34C1766.99,3567.42 1767.12,3567.49 1767.25,3567.57L1767.27,3567.58L1767.31,3567.61L1767.48,3567.71L1767.69,3567.83L1767.72,3567.84L1767.73,3567.85C1767.86,3567.93 1767.99,3568 1768.13,3568.08L1768.16,3568.1L1768.2,3568.12C1768.34,3568.2 1768.47,3568.27 1768.61,3568.35L1768.87,3568.49L1769.03,3568.57L1769.07,3568.6L1769.1,3568.61C1769.23,3568.68 1769.36,3568.75 1769.5,3568.82L1769.53,3568.84L1769.57,3568.86L1769.72,3568.94L1769.99,3569.08C1770.13,3569.15 1770.27,3569.22 1770.4,3569.29L1770.45,3569.31L1770.49,3569.33C1770.62,3569.4 1770.76,3569.47 1770.89,3569.53L1770.91,3569.54L1770.95,3569.56L1771.15,3569.66L1771.34,3569.75L1771.38,3569.77L1771.4,3569.78C1771.54,3569.84 1771.67,3569.91 1771.81,3569.97L1771.85,3569.99L1771.89,3570.01C1772.04,3570.07 1772.18,3570.14 1772.32,3570.2L1772.6,3570.33L1772.75,3570.39L1772.79,3570.41L1772.83,3570.43C1772.97,3570.49 1773.11,3570.55 1773.24,3570.61L1773.27,3570.62L1773.32,3570.64L1773.49,3570.71L1773.72,3570.81L1773.75,3570.83L1773.76,3570.83C1773.9,3570.89 1774.04,3570.95 1774.19,3571L1774.23,3571.02L1774.28,3571.04C1774.42,3571.1 1774.56,3571.16 1774.7,3571.21L1774.72,3571.22L1774.75,3571.23L1774.98,3571.32L1775.15,3571.39L1775.2,3571.41L1775.23,3571.41C1775.37,3571.47 1775.51,3571.52 1775.65,3571.58L1775.69,3571.59L1775.74,3571.61L1775.88,3571.66L1776.18,3571.77C1776.33,3571.82 1776.48,3571.87 1776.62,3571.93L1776.67,3571.94L1776.71,3571.96C1776.86,3572.01 1777,3572.06 1777.15,3572.1L1777.17,3572.11L1777.22,3572.13L1777.41,3572.19L1777.62,3572.26L1777.67,3572.28L1777.68,3572.28C1777.83,3572.33 1777.98,3572.38 1778.12,3572.42L1778.17,3572.44L1778.22,3572.45C1778.36,3572.5 1778.51,3572.55 1778.66,3572.59L1778.67,3572.59L1778.69,3572.6L1778.96,3572.68L1779.12,3572.73L1779.17,3572.74L1779.21,3572.75C1779.35,3572.8 1779.5,3572.84 1779.65,3572.88L1779.68,3572.89L1779.73,3572.9L1779.9,3572.95L1780.16,3573.02L1780.19,3573.03L1780.19,3573.03C1780.35,3573.07 1780.5,3573.11 1780.65,3573.15L1780.7,3573.16L1780.74,3573.18C1780.89,3573.22 1781.04,3573.25 1781.19,3573.29L1781.21,3573.3L1781.25,3573.31L1781.48,3573.36L1781.67,3573.41L1781.72,3573.42L1781.75,3573.43C1781.9,3573.46 1782.05,3573.5 1782.2,3573.53L1782.24,3573.54L1782.29,3573.55C1782.45,3573.59 1782.6,3573.62 1782.76,3573.66L1783.07,3573.72L1783.22,3573.76L1783.28,3573.77L1783.32,3573.78C1783.47,3573.81 1783.62,3573.84 1783.77,3573.87L1783.8,3573.87L1783.85,3573.88L1784.04,3573.92L1784.28,3573.97L1784.32,3573.97L1784.34,3573.98C1784.49,3574.01 1784.64,3574.03 1784.8,3574.06L1784.85,3574.07L1784.9,3574.08C1785.05,3574.1 1785.21,3574.13 1785.36,3574.16L1785.38,3574.16L1785.41,3574.16L1785.67,3574.21L1785.85,3574.23L1785.9,3574.24L1785.93,3574.25C1786.09,3574.27 1786.24,3574.3 1786.4,3574.32L1786.43,3574.32L1786.49,3574.33L1786.65,3574.35L1786.97,3574.4C1787.13,3574.42 1787.29,3574.44 1787.45,3574.46L1787.5,3574.47L1787.55,3574.47C1787.7,3574.49 1787.86,3574.51 1788.01,3574.53L1788.04,3574.53L1788.09,3574.53L1788.3,3574.56L1788.52,3574.58L1788.57,3574.59L1788.6,3574.59C1788.75,3574.61 1788.91,3574.62 1789.07,3574.64L1789.11,3574.64L1789.17,3574.64C1789.33,3574.66 1789.49,3574.67 1789.65,3574.69L1789.97,3574.71L1790.14,3574.72L1790.19,3574.73L1790.23,3574.73C1790.39,3574.74 1790.55,3574.75 1790.7,3574.76L1790.74,3574.76L1790.8,3574.77L1790.98,3574.78L1791.25,3574.79L1791.28,3574.8L1791.3,3574.8C1791.45,3574.8 1791.62,3574.81 1791.78,3574.82L1791.83,3574.82L1791.88,3574.82C1792.04,3574.83 1792.2,3574.84 1792.36,3574.84L1792.38,3574.84L1792.42,3574.84L1792.67,3574.85L1792.87,3574.85L1792.93,3574.86L1792.96,3574.86C1793.12,3574.86 1793.28,3574.86 1793.43,3574.86L1793.48,3574.86L1793.54,3574.86L1793.69,3574.87L1794.03,3574.87C1794.03,3574.87 1794.37,3574.87 1794.37,3574.87L1794.52,3574.86L1794.58,3574.86L1794.62,3574.86C1794.79,3574.86 1794.94,3574.86 1795.1,3574.86L1795.13,3574.86L1795.19,3574.85L1795.39,3574.85L1795.63,3574.84L1795.68,3574.84L1795.7,3574.84C1795.86,3574.84 1796.02,3574.83 1796.18,3574.82L1796.23,3574.82L1796.28,3574.82C1796.44,3574.81 1796.6,3574.8 1796.76,3574.8L1796.78,3574.8L1796.81,3574.79L1797.08,3574.78L1797.26,3574.77L1797.32,3574.76L1797.36,3574.76C1797.51,3574.75 1797.67,3574.74 1797.83,3574.73L1797.86,3574.73L1797.92,3574.72L1798.09,3574.71L1798.38,3574.69L1798.41,3574.69L1798.41,3574.69C1798.57,3574.67 1798.73,3574.66 1798.89,3574.64L1798.95,3574.64L1798.99,3574.64C1799.15,3574.62 1799.31,3574.61 1799.46,3574.59L1799.49,3574.59L1799.54,3574.58L1799.76,3574.56L1799.97,3574.53L1800.02,3574.53L1800.05,3574.53C1800.2,3574.51 1800.36,3574.49 1800.51,3574.47L1800.56,3574.47L1800.61,3574.46C1800.77,3574.44 1800.93,3574.42 1801.09,3574.4L1801.09,3574.4L1801.11,3574.39L1801.41,3574.35L1801.57,3574.33L1801.62,3574.32L1801.66,3574.32C1801.82,3574.3 1801.97,3574.27 1802.12,3574.25L1802.16,3574.24L1802.21,3574.23L1802.39,3574.21L1802.65,3574.16L1802.68,3574.16L1802.7,3574.16C1802.85,3574.13 1803.01,3574.11 1803.16,3574.08L1803.21,3574.07L1803.26,3574.06C1803.41,3574.03 1803.57,3574.01 1803.72,3573.98L1803.74,3573.97L1803.78,3573.97L1804.02,3573.92L1804.21,3573.88L1804.26,3573.87L1804.29,3573.87C1804.44,3573.84 1804.59,3573.81 1804.74,3573.78L1804.78,3573.77L1804.84,3573.76L1804.99,3573.72L1805.29,3573.66L1805.3,3573.66L1805.3,3573.66C1805.46,3573.62 1805.61,3573.59 1805.77,3573.55L1805.82,3573.54L1805.86,3573.53C1806.01,3573.5 1806.16,3573.46 1806.31,3573.43L1806.34,3573.42L1806.39,3573.41L1806.59,3573.36L1806.81,3573.31L1806.85,3573.3L1806.87,3573.29C1807.02,3573.25 1807.17,3573.22 1807.32,3573.18L1807.36,3573.16L1807.41,3573.15C1807.56,3573.11 1807.71,3573.07 1807.87,3573.03L1807.87,3573.03L1807.9,3573.02L1808.16,3572.95L1808.33,3572.9L1808.38,3572.89L1808.41,3572.88C1808.56,3572.84 1808.71,3572.8 1808.85,3572.75L1808.89,3572.74L1808.94,3572.73L1809.1,3572.68L1809.37,3572.6L1809.39,3572.59L1809.4,3572.59C1809.55,3572.55 1809.69,3572.5 1809.84,3572.45L1809.89,3572.44L1809.94,3572.42C1810.08,3572.38 1810.23,3572.33 1810.38,3572.28L1810.39,3572.28L1810.43,3572.26L1810.65,3572.19L1810.84,3572.13L1810.89,3572.11L1810.91,3572.1C1811.06,3572.06 1811.2,3572.01 1811.35,3571.96L1811.38,3571.94L1811.44,3571.93C1811.58,3571.87 1811.73,3571.82 1811.88,3571.77L1811.88,3571.77L1811.88,3571.77L1812.18,3571.66L1812.32,3571.61L1812.37,3571.59L1812.4,3571.58C1812.55,3571.52 1812.69,3571.47 1812.83,3571.41L1812.86,3571.41L1812.91,3571.39L1813.08,3571.32L1813.31,3571.23L1813.34,3571.22L1813.36,3571.21C1813.5,3571.16 1813.64,3571.1 1813.78,3571.04L1813.83,3571.02L1813.87,3571C1814.02,3570.95 1814.16,3570.89 1814.3,3570.83L1814.31,3570.83L1814.34,3570.81L1814.57,3570.71L1814.74,3570.64L1814.79,3570.62L1814.82,3570.61C1814.95,3570.55 1815.09,3570.49 1815.23,3570.43L1815.27,3570.41L1815.31,3570.39L1815.46,3570.33L1815.73,3570.21L1815.74,3570.2L1815.74,3570.2C1815.88,3570.14 1816.03,3570.07 1816.17,3570.01L1816.21,3569.99L1816.25,3569.97C1816.39,3569.91 1816.53,3569.84 1816.66,3569.78L1816.68,3569.77L1816.72,3569.75L1816.91,3569.66L1817.11,3569.56L1817.15,3569.54L1817.16,3569.53C1817.3,3569.47 1817.44,3569.4 1817.58,3569.33L1817.61,3569.31L1817.66,3569.29C1817.8,3569.22 1817.93,3569.15 1818.07,3569.08L1818.07,3569.08L1818.09,3569.07L1818.34,3568.94L1818.49,3568.86L1818.53,3568.84L1818.56,3568.82C1818.7,3568.75 1818.83,3568.68 1818.96,3568.61L1818.99,3568.6L1819.03,3568.57L1819.19,3568.49L1819.42,3568.36L1819.44,3568.35L1819.45,3568.35C1819.59,3568.27 1819.72,3568.2 1819.85,3568.12L1819.89,3568.1L1819.93,3568.08C1820.07,3568 1820.2,3567.93 1820.33,3567.85L1820.34,3567.84L1820.37,3567.83L1820.58,3567.71L1820.75,3567.61L1820.79,3567.58L1820.81,3567.57C1820.94,3567.49 1821.07,3567.42 1821.2,3567.34L1821.23,3567.32L1821.27,3567.29C1821.54,3567.13 1821.81,3566.97 1822.07,3566.8L1822.11,3566.78L1822.14,3566.76C1822.27,3566.68 1822.4,3566.6 1822.53,3566.51L1822.54,3566.5L1822.58,3566.48L1822.75,3566.37L1822.95,3566.24L1822.98,3566.22L1822.99,3566.22C1823.11,3566.13 1823.24,3566.05 1823.37,3565.96L1823.4,3565.94L1823.44,3565.91C1823.57,3565.83 1823.7,3565.74 1823.82,3565.65L1823.83,3565.65L1823.84,3565.64L1824.07,3565.48L1824.22,3565.38L1824.25,3565.36L1824.27,3565.34C1824.4,3565.25 1824.52,3565.16 1824.65,3565.08L1824.67,3565.06L1824.71,3565.03L1824.85,3564.93L1825.09,3564.76L1825.09,3564.76L1825.09,3564.76C1825.22,3564.66 1825.34,3564.57 1825.47,3564.48L1825.5,3564.45L1825.53,3564.43C1825.65,3564.34 1825.78,3564.25 1825.9,3564.15L1825.91,3564.14L1825.94,3564.12L1826.12,3563.99L1826.29,3563.85L1826.32,3563.83L1826.33,3563.82C1826.45,3563.73 1826.58,3563.63 1826.7,3563.54L1826.72,3563.52L1826.76,3563.49C1827,3563.3 1827.25,3563.1 1827.49,3562.9L1827.52,3562.87L1827.55,3562.85C1827.66,3562.76 1827.78,3562.66 1827.9,3562.56L1827.92,3562.54L1827.95,3562.52L1828.09,3562.4L1828.3,3562.22L1828.31,3562.21L1828.31,3562.21C1828.43,3562.11 1828.55,3562.01 1828.67,3561.9L1828.7,3561.88L1828.73,3561.85C1828.84,3561.75 1828.96,3561.65 1829.08,3561.54L1829.08,3561.54L1829.1,3561.53L1829.29,3561.36L1829.44,3561.22L1829.46,3561.2L1829.48,3561.18C1829.59,3561.08 1829.71,3560.97 1829.82,3560.87L1829.84,3560.85L1829.87,3560.82C1830.1,3560.61 1830.33,3560.39 1830.56,3560.17L1830.59,3560.15L1830.61,3560.13C1830.72,3560.02 1830.84,3559.91 1830.95,3559.8L1830.96,3559.79L1830.98,3559.77L1831.13,3559.62L1831.31,3559.44L1831.32,3559.43L1831.33,3559.43C1831.44,3559.31 1831.55,3559.2 1831.66,3559.09L1831.68,3559.07L1831.71,3559.04C1831.93,3558.81 1832.15,3558.58 1832.37,3558.35L1832.39,3558.33L1832.41,3558.31C1832.52,3558.2 1832.62,3558.08 1832.73,3557.97L1832.74,3557.95L1832.77,3557.93C1832.98,3557.7 1833.2,3557.46 1833.41,3557.22L1833.43,3557.2L1833.45,3557.17C1833.56,3557.06 1833.66,3556.94 1833.77,3556.82L1833.77,3556.81L1833.78,3556.8L1833.95,3556.61L1834.1,3556.44L1834.11,3556.42L1834.12,3556.42C1834.22,3556.3 1834.32,3556.17 1834.43,3556.05L1834.44,3556.03L1834.46,3556.01C1834.67,3555.76 1834.87,3555.51 1835.08,3555.26L1835.1,3555.24L1835.11,3555.22C1835.21,3555.1 1835.31,3554.98 1835.41,3554.85L1835.42,3554.84L1835.43,3554.82C1835.63,3554.57 1835.83,3554.31 1836.03,3554.05L1836.05,3554.03L1836.06,3554.01C1836.26,3553.75 1836.46,3553.49 1836.65,3553.22L1836.66,3553.21L1836.67,3553.2C1836.76,3553.07 1836.86,3552.94 1836.95,3552.81L1836.96,3552.79L1836.98,3552.77C1837.17,3552.51 1837.35,3552.24 1837.54,3551.97L1837.55,3551.95L1837.57,3551.93C1837.66,3551.8 1837.75,3551.66 1837.84,3551.53L1837.84,3551.53L1837.85,3551.52L1837.98,3551.31L1838.13,3551.1L1838.13,3551.1L1838.13,3551.1C1838.22,3550.96 1838.31,3550.82 1838.4,3550.68L1838.41,3550.67L1838.42,3550.65C1838.6,3550.37 1838.78,3550.09 1838.95,3549.81L1838.96,3549.8L1838.97,3549.79C1839.05,3549.65 1839.14,3549.51 1839.23,3549.36L1839.23,3549.36L1839.24,3549.34C1839.41,3549.06 1839.58,3548.77 1839.75,3548.49L1839.76,3548.47L1839.76,3548.45C1839.93,3548.16 1840.1,3547.87 1840.26,3547.58L1840.26,3547.57L1840.27,3547.57C1840.35,3547.42 1840.43,3547.28 1840.51,3547.13L1840.51,3547.12L1840.52,3547.1C1840.68,3546.81 1840.83,3546.51 1840.99,3546.22L1840.99,3546.2L1841,3546.19C1841.08,3546.04 1841.15,3545.89 1841.23,3545.74L1841.23,3545.74L1841.23,3545.74C1841.38,3545.43 1841.53,3545.13 1841.68,3544.82L1841.69,3544.81L1841.69,3544.8C1841.84,3544.49 1841.98,3544.18 1842.12,3543.88L1842.12,3543.87L1842.13,3543.87C1842.2,3543.71 1842.27,3543.56 1842.33,3543.4L1842.34,3543.4L1842.34,3543.39C1842.48,3543.08 1842.61,3542.77 1842.74,3542.45L1842.75,3542.44L1842.75,3542.43C1842.95,3541.96 1843.14,3541.48 1843.33,3541L1843.33,3540.99L1843.34,3540.98C1843.46,3540.66 1843.58,3540.34 1843.69,3540.02L1843.7,3540.01L1843.7,3540.01C1843.87,3539.52 1844.04,3539.03 1844.2,3538.54L1844.21,3538.53L1844.21,3538.52C1845.48,3534.67 1846.56,3519.73 1847.02,3510.6C1847.17,3507.18 1849.98,3504.49 1853.4,3504.49C1857.79,3504.48 1863.67,3504.48 1868.12,3504.48Z" style="fill:rgb(84,0,178);fill-opacity:0.701961;"/>
                <path d="M1865.75,1583.96C1842.33,1549.75 1818.93,1515.54 1795.52,1481.32C1761.77,1431.98 1728.03,1382.62 1694.32,1333.25C1682.67,1316.19 1671.02,1299.12 1659.39,1282.05C1647.04,1263.94 1634.71,1245.82 1622.4,1227.68L1622.03,1227.12C1620.96,1225.51 1619.92,1223.88 1618.93,1222.22C1616.84,1218.7 1614.94,1215.07 1613.23,1211.35C1610.59,1205.62 1608.42,1199.68 1606.68,1193.61C1605.49,1189.49 1604.51,1185.31 1603.72,1181.09C1601.87,1171.27 1601.06,1161.27 1601.12,1151.29C1601.13,1147.95 1601.25,1144.6 1601.46,1141.27C1601.77,1136.43 1602.27,1131.6 1602.97,1126.8C1604.21,1118.29 1606.04,1109.85 1608.52,1101.61C1609.05,1099.85 1609.61,1098.11 1610.2,1096.37C1610.77,1094.67 1611.37,1092.99 1612.01,1091.31C1612.48,1090.07 1612.98,1088.83 1613.5,1087.61C1615.86,1082.04 1618.63,1076.65 1621.67,1071.42C1623.33,1068.57 1625.06,1065.76 1626.85,1062.99C1628.09,1061.07 1629.35,1059.18 1630.64,1057.3C1633.94,1052.49 1637.38,1047.77 1640.93,1043.13C1644.95,1037.86 1649.1,1032.68 1653.32,1027.57C1659.24,1020.41 1665.32,1013.39 1671.51,1006.47C1673.35,1004.42 1675.2,1002.38 1677.06,1000.35C1677.99,999.337 1678.92,998.326 1679.86,997.321C1680.01,997.155 1681.35,995.72 1681.44,995.633C1681.79,995.29 1682.16,994.97 1682.52,994.638C1682.72,994.452 1682.92,994.264 1683.12,994.077C1683.74,993.494 1684.36,992.91 1684.98,992.327C1685.67,991.677 1686.38,991.031 1687.1,990.403C1688.02,989.597 1688.97,988.819 1689.94,988.073C1692.29,986.264 1694.8,984.657 1697.37,983.166C1704.07,979.273 1711.38,976.456 1718.96,974.846C1720.99,974.416 1723.04,974.071 1725.09,973.814C1726.07,973.692 1727.04,973.587 1728.01,973.512C1729.3,973.412 1730.6,973.364 1731.89,973.336C1732.93,973.321 1733.98,973.321 1735.03,973.301C1735.09,973.3 1735.16,973.298 1735.23,973.296C1736.54,973.35 1737.86,973.405 1739.17,973.46C1744.31,974.039 1744.33,973.95 1749.41,974.884C1749.67,974.949 1749.92,975.012 1750.18,975.074C1750.85,975.235 1751.53,975.393 1752.2,975.554C1752.56,975.643 1752.92,975.732 1753.28,975.822C1754.35,976.097 1755.42,976.389 1756.47,976.717C1757.4,977.005 1758.32,977.321 1759.23,977.652C1760.36,978.064 1761.49,978.504 1762.6,978.971C1766.62,980.66 1770.49,982.707 1774.14,985.082C1778.72,988.052 1782.96,991.535 1786.76,995.444C1790.18,998.962 1793.25,1002.82 1795.9,1006.95C1799.09,1011.92 1801.68,1017.27 1803.59,1022.86C1804.81,1026.45 1805.76,1030.14 1806.42,1033.89C1807.61,1040.66 1807.84,1047.59 1807.11,1054.42C1806.34,1061.59 1804.5,1068.64 1801.68,1075.28C1800.27,1078.59 1798.62,1081.79 1796.75,1084.85C1796.06,1085.99 1795.33,1087.11 1794.57,1088.2C1794.29,1088.62 1794,1089.03 1793.7,1089.43C1792.86,1090.59 1791.97,1091.7 1791.06,1092.8C1790.39,1093.6 1789.7,1094.39 1789.03,1095.19L1788.98,1095.26L1788.29,1096.1C1787.79,1096.63 1787.29,1097.16 1786.8,1097.7C1786.44,1098.08 1786.09,1098.46 1785.73,1098.85C1784.18,1100.54 1782.64,1102.23 1781.11,1103.94C1778.8,1106.51 1776.51,1109.11 1774.25,1111.72C1770.46,1116.08 1766.74,1120.51 1763.11,1125C1760.26,1128.52 1757.48,1132.09 1754.8,1135.74C1753.65,1137.31 1752.51,1138.9 1751.41,1140.52C1750.56,1141.77 1749.73,1143.04 1748.94,1144.33C1748.88,1144.43 1748.82,1144.53 1748.76,1144.64C1748.53,1145.52 1748.35,1146.42 1748.2,1147.33C1748.08,1148.09 1747.98,1148.85 1747.91,1149.61C1747.86,1150.12 1747.83,1150.64 1747.8,1151.16L1747.8,1151.27C1757.65,1165.79 1767.53,1180.29 1777.41,1194.79C1791.23,1215.08 1805.07,1235.35 1818.91,1255.63C1850.88,1302.45 1882.88,1349.25 1914.89,1396.05C1934.29,1424.41 1953.69,1452.77 1973.1,1481.12C1995.07,1467.53 2023.7,1473.06 2037.9,1494.01C2052.03,1514.84 2046.7,1543.29 2026.21,1558.73C2069.75,1622.33 2113.29,1685.92 2156.85,1749.51L2157.65,1750.68L2158.63,1751.93C2168.18,1757.7 2176.67,1765.55 2183.38,1775.35C2185.76,1778.85 2187.84,1782.46 2189.61,1786.16L2189.61,1814.6C2189.91,1818.44 2189.91,1822.3 2189.61,1826.13L2189.61,1855.46C2183.7,1867.89 2174.54,1878.97 2162.37,1887.29C2125.69,1912.38 2075.53,1902.97 2050.44,1866.29C2043.9,1856.72 2039.7,1846.24 2037.72,1835.53L2031.4,1825.9C2001.26,1781.9 1971.12,1737.89 1940.99,1693.88C1931.51,1680.04 1922.03,1666.19 1912.55,1652.35L1873.49,1662.1C1864.36,1664.37 1854.77,1660.75 1849.43,1653C1847.17,1649.72 1844.75,1646.2 1842.49,1642.92C1837.15,1635.17 1837.18,1624.92 1842.56,1617.2L1865.75,1583.96ZM2138.87,1772.8C2126.4,1754.61 2113.94,1736.41 2101.47,1718.21C2027.28,1609.87 1953.1,1501.52 1878.98,1393.14C1849.1,1349.45 1819.24,1305.76 1789.4,1262.05C1777.68,1244.89 1765.97,1227.73 1754.27,1210.56C1743.16,1194.25 1732.05,1177.94 1720.98,1161.61C1720.93,1161.48 1720.89,1161.35 1720.84,1161.22C1720.59,1160.41 1720.41,1159.57 1720.27,1158.74C1720.15,1158.08 1720.07,1157.41 1720,1156.75C1719.9,1155.79 1719.84,1154.83 1719.81,1153.86C1719.76,1152.5 1719.78,1151.13 1719.84,1149.77C1719.93,1147.74 1720.13,1145.72 1720.43,1143.71C1720.65,1142.22 1720.92,1140.74 1721.25,1139.27C1721.53,1138.02 1721.86,1136.78 1722.23,1135.56C1722.35,1135.18 1722.46,1134.81 1722.59,1134.44C1722.66,1134.22 1722.74,1134 1722.82,1133.78C1722.83,1133.74 1722.85,1133.71 1722.87,1133.68C1722.93,1133.53 1722.95,1133.5 1723.04,1133.32C1723.16,1133.06 1723.3,1132.81 1723.43,1132.55C1723.83,1131.79 1724.26,1131.05 1724.7,1130.31C1725.98,1128.16 1727.36,1126.07 1728.78,1124.01C1730.63,1121.34 1732.55,1118.71 1734.51,1116.12C1737.01,1112.81 1739.58,1109.56 1742.19,1106.34C1745.58,1102.16 1749.05,1098.05 1752.57,1093.98C1755.64,1090.43 1758.74,1086.92 1761.88,1083.44C1763.65,1081.49 1765.42,1079.55 1767.22,1077.63C1767.39,1077.43 1767.56,1077.22 1767.74,1077.01C1768.26,1076.39 1768.79,1075.78 1769.31,1075.16C1769.53,1074.9 1769.74,1074.64 1769.95,1074.38C1770.34,1073.91 1770.71,1073.44 1771.07,1072.95C1771.66,1072.13 1772.22,1071.28 1772.75,1070.42C1773.6,1069.05 1774.38,1067.62 1775.08,1066.17C1776.57,1063.06 1777.7,1059.79 1778.44,1056.43C1779.19,1053.08 1779.56,1049.64 1779.53,1046.2C1779.5,1042.76 1779.08,1039.32 1778.27,1035.98C1777.47,1032.64 1776.28,1029.38 1774.74,1026.31C1772.84,1022.51 1770.41,1018.98 1767.53,1015.85C1765.1,1013.23 1762.37,1010.89 1759.4,1008.9C1756.43,1006.91 1753.22,1005.28 1749.87,1004.04C1749.11,1003.76 1748.35,1003.5 1747.57,1003.28C1746.27,1002.9 1744.95,1002.61 1743.64,1002.3C1743.32,1002.22 1742.99,1002.14 1742.66,1002.06L1742.47,1002.01L1736.04,1001.28C1735.97,1001.29 1735.9,1001.29 1735.84,1001.29C1734.83,1001.32 1733.81,1001.32 1732.8,1001.33C1732.47,1001.33 1732.13,1001.34 1731.79,1001.35C1731.25,1001.36 1730.71,1001.39 1730.18,1001.43C1729.44,1001.49 1728.7,1001.58 1727.97,1001.68C1726.63,1001.86 1725.3,1002.11 1723.99,1002.41C1721.03,1003.09 1718.14,1004.07 1715.38,1005.33C1713.89,1006.01 1712.44,1006.78 1711.03,1007.61C1709.89,1008.28 1708.78,1008.98 1707.71,1009.75C1707.1,1010.19 1706.5,1010.65 1705.92,1011.14C1705.2,1011.75 1704.51,1012.39 1703.82,1013.04C1703.19,1013.63 1702.56,1014.23 1701.92,1014.83L1701.56,1015.17L1701.17,1015.52C1700.67,1016.06 1700.17,1016.59 1699.68,1017.12C1694.03,1023.23 1688.49,1029.44 1683.06,1035.75C1679.85,1039.47 1676.68,1043.23 1673.57,1047.03C1670.57,1050.68 1667.62,1054.37 1664.73,1058.11C1660.42,1063.69 1656.25,1069.37 1652.32,1075.22C1650.28,1078.27 1648.31,1081.36 1646.44,1084.52C1644.59,1087.67 1642.84,1090.88 1641.26,1094.17C1640.21,1096.35 1639.24,1098.56 1638.36,1100.81C1637.84,1102.12 1637.37,1103.45 1636.91,1104.78C1636.27,1106.66 1635.66,1108.56 1635.1,1110.46C1633.86,1114.66 1632.83,1118.93 1631.98,1123.23C1631.59,1125.22 1631.23,1127.23 1630.92,1129.24C1630.2,1133.82 1629.7,1138.42 1629.41,1143.05C1629.2,1146.27 1629.1,1149.5 1629.11,1152.73C1629.12,1155.26 1629.2,1157.8 1629.35,1160.33C1629.47,1162.44 1629.64,1164.54 1629.87,1166.64C1630.84,1175.57 1632.76,1184.42 1635.87,1192.86C1636.97,1195.87 1638.23,1198.82 1639.64,1201.7C1640.68,1203.81 1641.8,1205.88 1643,1207.91C1643.74,1209.15 1644.52,1210.37 1645.32,1211.58C1646.6,1213.48 1647.89,1215.38 1649.18,1217.28C1660.28,1233.62 1671.4,1249.95 1682.52,1266.28C1694.16,1283.34 1705.8,1300.4 1717.44,1317.46C1746.31,1359.74 1775.2,1402 1804.1,1444.26C1886.24,1564.38 1968.46,1684.46 2050.7,1804.53L2064.22,1824.27C2064.81,1833.41 2067.78,1842.52 2073.33,1850.63C2089.78,1874.68 2122.66,1880.85 2146.72,1864.4C2170.77,1847.95 2176.94,1815.06 2160.49,1791.01C2154.86,1782.79 2147.32,1776.66 2138.87,1772.8Z"/>
                <path d="M2189.61,1867.74C2183.83,1877.36 2175.93,1885.93 2166.06,1892.68C2131.48,1916.34 2084.92,1909.33 2058.68,1877.71C2057.68,1876.51 2051.9,1868.24 2047.92,1862.52C2046.93,1861.12 2046.54,1859.38 2046.84,1857.69C2047.14,1855.99 2048.11,1854.5 2049.53,1853.53C2053.27,1850.96 2058.26,1847.55 2061.97,1845.01C2064.8,1843.07 2068.66,1843.72 2070.71,1846.47C2076.14,1853.82 2085.25,1865.66 2088.47,1868.12L2088.48,1868.14C2088.89,1868.45 2089.31,1868.76 2089.73,1869.06L2089.74,1869.07C2090.02,1869.27 2090.3,1869.47 2090.58,1869.66L2090.6,1869.67C2091.02,1869.97 2091.45,1870.25 2091.88,1870.53L2091.9,1870.54C2092.18,1870.73 2092.47,1870.91 2092.76,1871.09L2092.77,1871.1C2092.92,1871.18 2093.06,1871.27 2093.21,1871.36L2093.22,1871.37C2093.51,1871.54 2093.8,1871.72 2094.09,1871.88L2094.1,1871.89L2094.12,1871.9C2094.41,1872.07 2094.71,1872.24 2095,1872.4L2095.01,1872.4C2095.15,1872.48 2095.3,1872.56 2095.45,1872.64L2095.47,1872.66C2095.77,1872.82 2096.06,1872.97 2096.36,1873.12L2096.38,1873.13L2096.39,1873.14C2096.53,1873.21 2096.68,1873.29 2096.83,1873.37L2096.84,1873.37C2097.14,1873.52 2097.44,1873.67 2097.75,1873.81L2097.76,1873.82L2097.78,1873.83C2098.08,1873.97 2098.38,1874.11 2098.68,1874.25L2098.7,1874.26C2098.86,1874.33 2099.01,1874.4 2099.16,1874.46L2099.17,1874.47L2099.18,1874.47C2099.49,1874.61 2099.79,1874.74 2100.09,1874.87L2100.11,1874.88L2100.13,1874.88C2100.28,1874.95 2100.43,1875.01 2100.59,1875.07L2100.83,1875.17L2101.07,1875.27C2101.22,1875.33 2101.37,1875.38 2101.53,1875.44L2101.55,1875.45L2101.57,1875.46C2101.87,1875.58 2102.18,1875.69 2102.49,1875.8L2102.51,1875.81L2102.52,1875.82C2102.68,1875.87 2102.83,1875.93 2102.98,1875.98L2102.99,1875.99L2103.01,1875.99C2103.32,1876.1 2103.63,1876.21 2103.94,1876.31L2103.96,1876.32L2103.99,1876.33C2104.3,1876.43 2104.61,1876.53 2104.92,1876.62L2104.94,1876.63L2104.95,1876.63C2105.11,1876.68 2105.26,1876.73 2105.41,1876.77L2105.43,1876.78L2105.46,1876.79C2105.77,1876.88 2106.08,1876.97 2106.39,1877.06L2106.42,1877.06L2106.44,1877.07C2106.6,1877.11 2106.75,1877.15 2106.9,1877.2L2106.91,1877.2L2106.93,1877.2L2107.15,1877.26L2107.41,1877.33C2107.57,1877.37 2107.72,1877.41 2107.88,1877.45L2107.91,1877.45L2107.94,1877.46C2108.25,1877.54 2108.56,1877.61 2108.87,1877.68L2108.9,1877.69L2108.92,1877.7C2109.08,1877.73 2109.23,1877.77 2109.39,1877.8L2109.4,1877.8L2109.44,1877.81C2109.75,1877.88 2110.06,1877.94 2110.38,1878L2110.41,1878.01L2110.44,1878.02C2110.59,1878.05 2110.75,1878.08 2110.9,1878.11L2111.17,1878.15L2111.39,1878.19L2111.42,1878.2L2111.43,1878.2C2111.58,1878.23 2111.74,1878.25 2111.89,1878.28L2111.92,1878.29L2111.96,1878.29C2112.27,1878.34 2112.58,1878.39 2112.9,1878.44L2112.93,1878.44L2112.96,1878.45C2113.12,1878.47 2113.27,1878.49 2113.42,1878.51L2113.44,1878.52L2113.48,1878.52L2113.68,1878.55L2113.96,1878.58C2114.11,1878.6 2114.27,1878.62 2114.42,1878.64L2114.46,1878.64L2114.5,1878.65C2114.65,1878.67 2114.81,1878.68 2114.96,1878.7L2115.25,1878.73L2115.44,1878.75L2115.48,1878.76L2115.5,1878.76C2115.66,1878.77 2115.81,1878.79 2115.96,1878.8L2115.99,1878.8L2116.03,1878.81C2116.34,1878.83 2116.66,1878.86 2116.97,1878.88L2117.01,1878.88L2117.05,1878.88C2117.2,1878.9 2117.36,1878.91 2117.51,1878.91L2117.53,1878.92L2117.56,1878.92L2117.78,1878.93L2118.01,1878.94L2118.04,1878.94L2118.05,1878.94C2118.21,1878.95 2118.36,1878.96 2118.51,1878.97L2118.55,1878.97L2118.59,1878.97C2118.75,1878.97 2118.91,1878.98 2119.06,1878.99L2119.37,1878.99L2119.53,1879L2119.58,1879L2119.61,1879C2119.76,1879 2119.91,1879 2120.07,1879.01L2120.09,1879.01L2120.14,1879.01L2120.32,1879.01L2120.61,1879.01C2120.77,1879.01 2120.92,1879.01 2121.08,1879.01L2121.12,1879.01L2121.16,1879.01C2121.32,1879 2121.47,1879 2121.62,1879L2121.64,1879L2121.67,1879L2121.91,1878.99L2122.11,1878.99L2122.15,1878.99L2122.17,1878.99C2122.32,1878.98 2122.48,1878.98 2122.63,1878.97L2122.66,1878.97L2122.71,1878.97C2123.02,1878.96 2123.34,1878.94 2123.65,1878.92L2123.69,1878.92L2123.73,1878.92C2123.88,1878.91 2124.03,1878.9 2124.18,1878.89L2124.21,1878.89L2124.25,1878.89L2124.45,1878.87L2124.69,1878.86L2124.72,1878.85L2124.74,1878.85C2124.89,1878.84 2125.04,1878.83 2125.19,1878.81L2125.24,1878.81L2125.28,1878.81C2125.44,1878.79 2125.59,1878.78 2125.74,1878.76L2126.04,1878.73L2126.22,1878.72L2126.26,1878.71L2126.29,1878.71C2126.45,1878.69 2126.6,1878.67 2126.75,1878.66L2126.78,1878.65L2126.83,1878.65L2126.99,1878.63L2127.28,1878.59L2127.3,1878.59C2127.45,1878.57 2127.6,1878.55 2127.76,1878.53L2127.81,1878.52L2127.85,1878.52C2128,1878.5 2128.15,1878.48 2128.3,1878.45L2128.32,1878.45L2128.36,1878.44L2128.58,1878.41L2128.79,1878.38L2128.83,1878.37L2128.85,1878.37C2129,1878.35 2129.15,1878.32 2129.3,1878.3L2129.34,1878.29L2129.39,1878.28C2129.55,1878.26 2129.7,1878.23 2129.85,1878.2L2130.16,1878.15L2130.31,1878.12L2130.37,1878.11L2130.4,1878.1C2130.55,1878.07 2130.7,1878.05 2130.85,1878.02L2130.88,1878.01L2130.93,1878L2131.11,1877.96L2131.35,1877.91L2131.39,1877.91L2131.4,1877.9C2131.55,1877.87 2131.7,1877.84 2131.85,1877.81L2131.89,1877.8L2131.94,1877.79C2132.09,1877.76 2132.24,1877.72 2132.39,1877.69L2132.4,1877.68L2132.44,1877.68L2132.68,1877.62L2132.86,1877.58L2132.91,1877.57L2132.94,1877.56C2133.09,1877.52 2133.23,1877.49 2133.38,1877.45L2133.42,1877.44L2133.47,1877.43L2133.62,1877.39L2133.92,1877.31L2133.93,1877.31C2134.08,1877.27 2134.23,1877.23 2134.38,1877.19L2134.43,1877.18L2134.47,1877.17C2134.62,1877.13 2134.76,1877.09 2134.91,1877.05L2134.94,1877.04L2134.98,1877.03L2135.18,1876.97L2135.4,1876.91L2135.44,1876.89L2135.46,1876.89C2135.6,1876.85 2135.75,1876.8 2135.9,1876.76L2135.94,1876.74L2135.99,1876.73C2136.14,1876.68 2136.29,1876.64 2136.44,1876.59L2136.44,1876.59L2136.47,1876.58L2136.73,1876.5L2136.89,1876.44L2136.95,1876.43L2136.98,1876.42C2137.12,1876.37 2137.27,1876.32 2137.41,1876.27L2137.45,1876.26L2137.5,1876.25L2137.66,1876.19L2137.92,1876.1L2137.94,1876.09L2137.95,1876.09C2138.1,1876.04 2138.24,1875.99 2138.39,1875.93L2138.44,1875.92L2138.49,1875.9C2138.63,1875.85 2138.78,1875.8 2138.92,1875.74L2138.94,1875.74L2138.98,1875.72L2139.19,1875.64L2139.38,1875.57L2139.43,1875.55L2139.46,1875.54C2139.6,1875.48 2139.74,1875.43 2139.89,1875.37L2139.93,1875.36L2139.98,1875.34C2140.12,1875.28 2140.27,1875.22 2140.42,1875.16L2140.72,1875.04L2140.86,1874.98L2140.91,1874.96L2140.95,1874.94C2141.09,1874.88 2141.23,1874.82 2141.38,1874.76L2141.4,1874.75L2141.45,1874.73L2141.63,1874.65L2141.85,1874.55L2141.89,1874.54L2141.9,1874.53C2142.05,1874.47 2142.19,1874.4 2142.33,1874.34L2142.38,1874.32L2142.42,1874.3C2142.57,1874.23 2142.71,1874.17 2142.85,1874.1L2142.86,1874.1L2142.9,1874.08L2143.13,1873.97L2143.3,1873.89L2143.35,1873.87L2143.38,1873.85C2143.52,1873.79 2143.66,1873.72 2143.8,1873.65L2143.83,1873.63L2143.88,1873.61L2144.03,1873.54L2144.3,1873.4L2144.32,1873.39C2144.46,1873.32 2144.6,1873.25 2144.74,1873.17L2144.79,1873.15L2144.83,1873.13C2144.97,1873.06 2145.11,1872.98 2145.25,1872.91L2145.27,1872.9L2145.32,1872.87L2145.51,1872.77L2145.7,1872.67L2145.75,1872.64L2145.76,1872.63C2145.9,1872.56 2146.04,1872.48 2146.18,1872.4L2146.22,1872.38L2146.27,1872.36C2146.41,1872.28 2146.55,1872.2 2146.69,1872.12L2146.97,1871.96L2147.11,1871.87L2147.16,1871.84L2147.2,1871.83C2147.33,1871.75 2147.47,1871.66 2147.6,1871.58L2147.63,1871.57L2147.68,1871.54L2147.84,1871.44L2148.07,1871.3L2148.1,1871.29L2148.11,1871.28C2148.25,1871.19 2148.38,1871.11 2148.52,1871.03L2148.57,1871L2148.61,1870.97C2148.74,1870.88 2148.88,1870.8 2149.01,1870.71L2149.03,1870.7L2149.07,1870.68L2149.27,1870.55L2149.44,1870.44L2149.49,1870.41L2149.51,1870.39C2149.65,1870.3 2149.78,1870.22 2149.91,1870.13L2149.95,1870.1L2150,1870.07L2150.12,1869.98L2150.41,1869.79C2150.41,1869.79 2150.69,1869.6 2150.69,1869.6L2150.81,1869.51L2150.86,1869.48L2150.9,1869.45C2151.03,1869.36 2151.16,1869.27 2151.29,1869.18L2151.31,1869.16L2151.36,1869.13L2151.52,1869.01L2151.72,1868.87L2151.76,1868.84L2151.77,1868.83C2151.9,1868.73 2152.03,1868.64 2152.16,1868.54L2152.2,1868.51L2152.24,1868.48C2152.37,1868.38 2152.5,1868.29 2152.62,1868.19L2152.63,1868.18L2152.66,1868.16L2152.88,1868L2153.02,1867.89L2153.07,1867.85L2153.09,1867.83C2153.22,1867.73 2153.34,1867.63 2153.46,1867.54L2153.49,1867.51L2153.54,1867.48L2153.67,1867.37L2153.9,1867.19L2153.92,1867.17L2153.92,1867.17C2154.05,1867.07 2154.17,1866.97 2154.29,1866.87L2154.34,1866.83L2154.37,1866.8C2154.49,1866.7 2154.62,1866.6 2154.74,1866.5L2154.75,1866.48L2154.79,1866.45L2154.96,1866.31L2155.12,1866.16L2155.16,1866.13L2155.18,1866.12C2155.3,1866.01 2155.42,1865.91 2155.53,1865.81L2155.57,1865.78L2155.61,1865.74C2155.73,1865.63 2155.85,1865.53 2155.97,1865.42L2155.97,1865.42L2155.98,1865.41L2156.21,1865.2L2156.33,1865.1L2156.37,1865.06L2156.4,1865.03C2156.51,1864.92 2156.62,1864.82 2156.74,1864.71L2156.76,1864.69L2156.8,1864.65L2156.94,1864.53L2157.12,1864.35L2157.15,1864.32L2157.16,1864.31C2157.27,1864.2 2157.39,1864.1 2157.5,1863.99L2157.53,1863.95L2157.57,1863.91C2157.68,1863.81 2157.79,1863.7 2157.9,1863.59L2157.91,1863.58L2157.94,1863.55L2158.12,1863.37L2158.25,1863.24L2158.29,1863.2L2158.31,1863.18C2158.42,1863.07 2158.53,1862.96 2158.63,1862.85L2158.66,1862.82L2158.7,1862.78L2158.81,1862.66L2159.02,1862.44L2159.03,1862.43L2159.03,1862.43C2159.14,1862.32 2159.25,1862.2 2159.35,1862.08L2159.39,1862.04L2159.42,1862.01C2159.52,1861.9 2159.63,1861.79 2159.73,1861.67L2159.75,1861.65L2159.78,1861.61L2159.92,1861.46L2160.07,1861.29L2160.1,1861.26L2160.11,1861.24C2160.22,1861.13 2160.32,1861.01 2160.42,1860.9L2160.45,1860.86L2160.49,1860.82C2160.59,1860.7 2160.69,1860.59 2160.79,1860.47L2160.8,1860.46L2160.81,1860.44L2160.99,1860.23L2161.1,1860.1L2161.14,1860.06L2161.16,1860.03C2161.26,1859.91 2161.35,1859.8 2161.45,1859.68L2161.47,1859.65L2161.51,1859.61L2161.61,1859.48L2161.78,1859.27L2161.8,1859.24L2161.81,1859.24C2161.9,1859.12 2162,1859 2162.1,1858.87L2162.13,1858.83L2162.16,1858.8C2162.25,1858.67 2162.35,1858.55 2162.44,1858.43L2162.45,1858.42L2162.48,1858.38L2162.62,1858.2L2162.74,1858.04L2162.77,1858L2162.78,1857.98C2162.87,1857.86 2162.97,1857.74 2163.06,1857.61L2163.08,1857.58L2163.11,1857.54C2163.2,1857.41 2163.3,1857.29 2163.39,1857.16L2163.39,1857.16L2163.39,1857.15L2163.57,1856.9L2163.66,1856.78L2163.69,1856.73L2163.72,1856.7C2163.8,1856.58 2163.89,1856.45 2163.98,1856.33L2163.99,1856.31L2164.02,1856.26L2164.13,1856.11L2164.27,1855.91L2164.29,1855.88L2164.3,1855.86C2164.38,1855.74 2164.47,1855.61 2164.55,1855.48L2164.58,1855.44L2164.6,1855.4C2164.69,1855.27 2164.77,1855.15 2164.86,1855.02L2164.86,1855.01L2164.88,1854.98L2165.02,1854.77L2165.12,1854.61L2165.14,1854.57L2165.16,1854.55C2165.24,1854.42 2165.32,1854.29 2165.4,1854.16L2165.42,1854.13L2165.45,1854.09L2165.53,1853.95L2165.69,1853.7L2165.69,1853.69L2165.69,1853.68C2165.78,1853.55 2165.86,1853.42 2165.93,1853.29L2165.96,1853.24L2165.98,1853.21C2166.06,1853.08 2166.14,1852.94 2166.21,1852.81L2166.22,1852.8L2166.25,1852.76L2166.35,1852.57L2166.46,1852.38L2166.48,1852.35L2166.49,1852.33C2166.57,1852.2 2166.64,1852.06 2166.71,1851.93L2166.74,1851.89L2166.76,1851.85C2166.83,1851.72 2166.91,1851.58 2166.98,1851.44L2166.98,1851.44L2166.99,1851.43L2167.13,1851.17L2167.2,1851.03L2167.23,1850.98L2167.24,1850.95C2167.32,1850.82 2167.39,1850.69 2167.45,1850.55L2167.47,1850.53L2167.49,1850.48L2167.57,1850.33L2167.69,1850.09L2167.7,1850.07L2167.71,1850.06C2167.78,1849.92 2167.85,1849.78 2167.91,1849.64L2167.93,1849.6L2167.95,1849.57C2168.02,1849.43 2168.09,1849.29 2168.15,1849.15L2168.16,1849.14L2168.18,1849.11L2168.28,1848.89L2168.36,1848.72L2168.38,1848.67L2168.39,1848.65C2168.45,1848.52 2168.52,1848.38 2168.58,1848.24L2168.6,1848.21L2168.62,1848.16C2168.75,1847.88 2168.87,1847.59 2169,1847.31L2169.02,1847.27L2169.03,1847.23C2169.09,1847.09 2169.15,1846.95 2169.21,1846.81L2169.22,1846.79L2169.24,1846.75L2169.31,1846.57L2169.4,1846.35L2169.42,1846.32L2169.42,1846.3C2169.48,1846.16 2169.54,1846.02 2169.59,1845.88L2169.61,1845.84L2169.62,1845.8C2169.68,1845.65 2169.74,1845.51 2169.8,1845.37L2169.8,1845.36L2169.8,1845.34L2169.9,1845.09L2169.97,1844.92L2169.98,1844.88L2169.99,1844.86C2170.04,1844.71 2170.1,1844.57 2170.15,1844.42L2170.16,1844.4L2170.18,1844.36L2170.23,1844.2L2170.33,1843.92L2170.33,1843.91L2170.33,1843.91C2170.39,1843.77 2170.44,1843.62 2170.49,1843.47L2170.5,1843.43L2170.51,1843.39C2170.57,1843.25 2170.62,1843.1 2170.66,1842.96L2170.67,1842.94L2170.68,1842.91L2170.75,1842.7L2170.82,1842.49L2170.83,1842.45L2170.83,1842.44C2170.88,1842.29 2170.93,1842.15 2170.97,1842L2170.98,1841.97L2171,1841.93C2171.09,1841.63 2171.18,1841.33 2171.27,1841.02L2171.28,1840.98L2171.29,1840.96C2171.33,1840.81 2171.37,1840.66 2171.41,1840.51L2171.42,1840.49L2171.43,1840.45L2171.48,1840.27L2171.55,1840.01L2171.56,1840L2171.56,1839.99C2171.6,1839.84 2171.64,1839.69 2171.68,1839.54L2171.69,1839.5L2171.7,1839.46C2171.74,1839.31 2171.77,1839.16 2171.81,1839.01L2171.81,1839L2171.82,1838.99L2171.88,1838.74L2171.93,1838.54L2171.93,1838.51L2171.94,1838.49C2171.98,1838.34 2172.01,1838.18 2172.05,1838.03L2172.05,1838.01L2172.06,1837.97C2172.13,1837.66 2172.2,1837.35 2172.26,1837.04L2172.27,1837L2172.28,1836.98C2172.31,1836.82 2172.34,1836.67 2172.37,1836.52L2172.37,1836.5L2172.38,1836.47L2172.42,1836.26L2172.47,1836.02L2172.47,1836L2172.47,1835.99C2172.5,1835.84 2172.53,1835.68 2172.56,1835.52L2172.56,1835.49L2172.57,1835.46C2172.62,1835.15 2172.68,1834.83 2172.73,1834.52L2172.73,1834.48L2172.74,1834.46C2172.76,1834.31 2172.79,1834.15 2172.81,1834L2172.81,1833.98L2172.82,1833.94C2172.86,1833.63 2172.91,1833.31 2172.95,1832.99L2172.95,1832.96L2172.96,1832.93C2172.98,1832.77 2173,1832.62 2173.02,1832.46L2173.02,1832.45L2173.02,1832.44L2173.05,1832.19L2173.07,1831.96L2173.07,1831.94L2173.08,1831.93C2173.09,1831.77 2173.11,1831.62 2173.13,1831.46L2173.13,1831.43L2173.13,1831.4C2173.16,1831.08 2173.19,1830.76 2173.22,1830.44L2173.22,1830.41L2173.22,1830.39C2173.24,1830.23 2173.25,1830.07 2173.26,1829.91L2173.26,1829.9L2173.26,1829.88C2173.28,1829.55 2173.3,1829.23 2173.32,1828.9L2173.32,1828.87L2173.32,1828.85C2173.34,1828.52 2173.35,1828.19 2173.36,1827.87L2173.37,1827.85L2173.37,1827.84C2173.37,1827.67 2173.38,1827.51 2173.38,1827.35L2173.38,1827.33L2173.38,1827.31C2173.39,1826.98 2173.39,1826.66 2173.39,1826.33L2173.39,1826.31L2173.39,1826.29C2173.39,1826.12 2173.39,1825.96 2173.39,1825.8L2173.39,1825.79L2173.39,1825.78L2173.39,1825.54L2173.39,1825.28L2173.39,1825.28L2173.39,1825.28C2173.38,1825.11 2173.38,1824.95 2173.37,1824.78L2173.37,1824.76L2173.37,1824.74C2173.36,1824.41 2173.35,1824.08 2173.34,1823.75L2173.34,1823.73L2173.34,1823.72C2173.33,1823.56 2173.32,1823.39 2173.31,1823.23L2173.31,1823.22L2173.31,1823.2C2173.29,1822.87 2173.27,1822.54 2173.24,1822.21L2173.24,1822.19L2173.24,1822.17C2173.22,1821.84 2173.19,1821.5 2173.16,1821.17L2173.16,1821.16L2173.16,1821.16C2173.14,1820.99 2173.12,1820.83 2173.11,1820.66L2173.11,1820.65L2173.1,1820.63C2173.07,1820.3 2173.03,1819.97 2172.99,1819.63L2172.99,1819.62L2172.99,1819.61C2172.96,1819.44 2172.94,1819.27 2172.92,1819.11L2172.92,1819.11L2172.92,1819.1C2172.87,1818.77 2172.83,1818.43 2172.77,1818.09L2172.77,1818.08L2172.77,1818.07C2172.72,1817.73 2172.66,1817.4 2172.6,1817.06L2172.6,1817.06L2172.6,1817.05C2172.57,1816.89 2172.54,1816.72 2172.51,1816.55L2172.51,1816.55L2172.51,1816.54C2172.45,1816.2 2172.38,1815.87 2172.31,1815.54L2172.31,1815.53L2172.31,1815.52C2172.2,1815.01 2172.09,1814.51 2171.97,1814.01L2171.97,1814L2171.97,1813.99C2171.89,1813.66 2171.81,1813.32 2171.72,1812.99L2171.72,1812.99L2171.72,1812.98C2171.59,1812.48 2171.45,1811.98 2171.31,1811.48L2171.31,1811.47L2171.3,1811.46C2170.17,1807.57 2162.44,1794.79 2157.57,1787.06C2155.75,1784.15 2156.55,1780.33 2159.38,1778.39C2163.08,1775.85 2168.07,1772.44 2171.82,1769.87C2173.24,1768.9 2174.98,1768.54 2176.67,1768.87C2178.35,1769.21 2179.84,1770.2 2180.78,1771.63C2183.73,1776.02 2187.66,1781.87 2189.61,1784.85L2189.61,1867.74Z" style="fill:rgb(84,0,178);fill-opacity:0.701961;"/>
            </g>
        </g>
    </g>
</svg>
