<?xml version="1.0" encoding="UTF-8" standalone="no"?>
<!DOCTYPE svg PUBLIC "-//W3C//DTD SVG 1.1//EN" "http://www.w3.org/Graphics/SVG/1.1/DTD/svg11.dtd">
<svg width="4544px" height="5760px" version="1.1" xmlns="http://www.w3.org/2000/svg" xmlns:xlink="http://www.w3.org/1999/xlink" xml:space="preserve" style="fill-rule:evenodd;clip-rule:evenodd;stroke-linecap:round;stroke-linejoin:round;stroke-miterlimit:10;">
    <g clip-path="url(#_clip1)">
        <g id="T.-6-R-PlasMet-POST">
            <g id="Plastic">
                <path d="M327.493,2729.91C327.487,2741.11 344.299,2741.11 344.293,2729.91C344.305,2718.71 327.487,2718.71 327.493,2729.91Z" style="fill:none;stroke:black;stroke-width:0.96px;"/>
            </g>
        </g>
        <g id="T.-6-R-PlasMet-POST1">
            <g id="Plastic1">
                <path d="M272.277,1789.98C272.271,1801.18 289.084,1801.18 289.077,1789.98C289.09,1778.78 272.271,1778.78 272.277,1789.98Z" style="fill:none;stroke:black;stroke-width:0.96px;"/>
            </g>
        </g>
        <g id="T.-6-R-PlasMet-POST2">
            <g id="Plastic2">
                <path d="M384.371,2098.53C384.365,2109.73 401.178,2109.73 401.171,2098.53C401.184,2087.33 384.365,2087.33 384.371,2098.53Z" style="fill:none;stroke:black;stroke-width:0.96px;"/>
            </g>
        </g>
        <g id="T.-6-R-PlasMet-POST3">
            <g id="Plastic3">
                <path d="M317.893,2219.18C317.887,2230.38 334.7,2230.38 334.693,2219.18C334.706,2207.98 317.887,2207.98 317.893,2219.18Z" style="fill:none;stroke:black;stroke-width:0.96px;"/>
            </g>
        </g>
        <g id="T.-6-R-PlasMet-POST4">
            <g id="Plastic4">
                <path d="M2063.8,3189.32C2063.79,3200.52 2080.6,3200.52 2080.6,3189.32C2080.61,3178.12 2063.79,3178.12 2063.8,3189.32Z" style="fill:none;stroke:black;stroke-width:0.96px;"/>
            </g>
        </g>
        <g id="T.-6-R-PlasMet-POST5">
            <g id="Plastic5">
                <path d="M2110.78,3241.05C2110.78,3252.25 2127.59,3252.25 2127.58,3241.05C2127.6,3229.85 2110.78,3229.85 2110.78,3241.05Z" style="fill:none;stroke:black;stroke-width:0.96px;"/>
            </g>
        </g>
        <g id="T.-6-R-PlasMet-POST6">
            <g id="Plastic6">
                <path d="M1936.86,3764.3C1936.85,3775.5 1953.66,3775.5 1953.66,3764.3C1953.67,3753.1 1936.85,3753.1 1936.86,3764.3Z" style="fill:none;stroke:black;stroke-width:0.96px;"/>
            </g>
        </g>
        <g id="T.-6-R-PlasMet-POST7">
            <g id="Plastic7">
                <path d="M1619.7,3987.29C1619.69,3998.49 1636.51,3998.49 1636.5,3987.29C1636.51,3976.09 1619.69,3976.09 1619.7,3987.29Z" style="fill:none;stroke:black;stroke-width:0.96px;"/>
            </g>
        </g>
        <g id="T.-6-R-PlasMet-POST8">
            <g id="Plastic8">
                <path d="M780.562,3987.29C780.556,3998.49 797.368,3998.49 797.362,3987.29C797.375,3976.09 780.556,3976.09 780.562,3987.29Z" style="fill:none;stroke:black;stroke-width:0.96px;"/>
            </g>
        </g>
        <g id="T.-6-R-PlasMet-POST9">
            <g id="Plastic9">
                <path d="M463.41,3764.31C463.404,3775.51 480.216,3775.51 480.21,3764.31C480.223,3753.11 463.404,3753.11 463.41,3764.31Z" style="fill:none;stroke:black;stroke-width:0.96px;"/>
            </g>
        </g>
        <g id="Playfield-Outline-.--Top-Bottom-Sticker-Drill-Rout-Plastic-Bevel-Art-Assembly-Rubber-Todo">
            <path d="M250.028,382.57L2193.89,382.57L2193.89,4510.83L2133.9,4510.83L2133.9,4408.84L2133.89,4408.84C2133.89,4402.23 2128.51,4396.84 2121.89,4396.84L2091.95,4396.84L2092.01,4221.88L2092,4221.87C2092,4216.92 2087.96,4212.88 2083.01,4212.88C2078.05,4212.88 2074.01,4216.92 2074.01,4221.87L2074.01,4221.88L2074.06,4396.84L2013.9,4396.84C2007.29,4396.84 2001.91,4402.23 2001.91,4408.84L2001.91,4799.99L1329.95,4799.99L1105.57,4532.58L1105.56,4532.54C1101.06,4527.19 1094.21,4524.01 1087.18,4524.01L771.991,4524.01C758.778,4524.01 747.992,4534.79 747.992,4548L747.992,4799.99L551.237,4799.99L375.011,4647.61L375.011,4549.55C375.011,4536.34 364.232,4525.56 351.012,4525.56L250.028,4525.56L250.028,382.57Z" style="fill:none;stroke:rgb(35,31,32);stroke-width:1.11px;stroke-miterlimit:2.613;"/>
        </g>
        <g id="Playfield-Guides-.--Top-Bottom-Sticker-Drill-Rout-Plastic-Bevel-Art-Assembly-Rubber-Todo">
            <path d="M433.899,4799.99L225.12,4799.99" style="fill:none;stroke:rgb(35,31,32);stroke-width:1.11px;stroke-miterlimit:2.613;"/>
            <path d="M2210.9,4799.99L2099.49,4799.99" style="fill:none;stroke:rgb(35,31,32);stroke-width:1.11px;stroke-miterlimit:2.613;"/>
            <path d="M2194.03,4817.86L2194.03,4763.96" style="fill:none;stroke:black;stroke-width:0.74px;"/>
            <path d="M250.14,4823.45L250.14,4758.68" style="fill:none;stroke:black;stroke-width:0.74px;"/>
        </g>
        <g id="T.-6-Post-Narrow">
            <g id="Plastic10">
                <path d="M346.642,2990.71C343.284,2978.36 324.745,2983.41 328.117,2995.76C331.468,3008.11 350.013,3003.06 346.642,2990.71Z" style="fill:none;stroke:black;stroke-width:1.19px;stroke-miterlimit:2.613;"/>
            </g>
        </g>
        <g id="T.-6-Post-Narrow1">
            <g id="Plastic11">
                <path d="M428.768,3142.32C425.41,3129.96 406.872,3135.01 410.244,3147.36C413.595,3159.72 432.14,3154.66 428.768,3142.32Z" style="fill:none;stroke:black;stroke-width:1.19px;stroke-miterlimit:2.613;"/>
            </g>
        </g>
        <g id="T.-6-Post-Narrow2">
            <g id="Plastic12">
                <path d="M388.496,3193.08C385.138,3180.72 366.6,3185.78 369.971,3198.12C373.322,3210.48 391.868,3205.42 388.496,3193.08Z" style="fill:none;stroke:black;stroke-width:1.19px;stroke-miterlimit:2.613;"/>
            </g>
        </g>
        <g id="T.-6-Post-Narrow3">
            <g id="Plastic13">
                <path d="M726.09,3421.76C722.732,3409.41 704.194,3414.46 707.566,3426.81C710.917,3439.16 729.462,3434.11 726.09,3421.76Z" style="fill:none;stroke:black;stroke-width:1.19px;stroke-miterlimit:2.613;"/>
            </g>
        </g>
        <g id="T.-6-Post-Narrow4">
            <g id="Plastic14">
                <path d="M726.115,3685.66C722.757,3673.31 704.218,3678.36 707.59,3690.71C710.941,3703.06 729.486,3698.01 726.115,3685.66Z" style="fill:none;stroke:black;stroke-width:1.19px;stroke-miterlimit:2.613;"/>
            </g>
        </g>
        <g id="T.-6-Post-Narrow5">
            <g id="Plastic15">
                <path d="M845.771,3769.25C842.413,3756.9 823.875,3761.95 827.246,3774.3C830.597,3786.66 849.143,3781.6 845.771,3769.25Z" style="fill:none;stroke:black;stroke-width:1.19px;stroke-miterlimit:2.613;"/>
            </g>
        </g>
        <g id="T.-6-Post-Narrow6">
            <g id="Plastic16">
                <path d="M1710.35,3421.77C1707,3409.42 1688.46,3414.47 1691.83,3426.82C1695.18,3439.17 1713.73,3434.12 1710.35,3421.77Z" style="fill:none;stroke:black;stroke-width:1.19px;stroke-miterlimit:2.613;"/>
            </g>
        </g>
        <g id="T.-6-Post-Narrow7">
            <g id="Plastic17">
                <path d="M1709.86,3685.35C1706.51,3673 1687.97,3678.05 1691.34,3690.4C1694.69,3702.75 1713.23,3697.7 1709.86,3685.35Z" style="fill:none;stroke:black;stroke-width:1.19px;stroke-miterlimit:2.613;"/>
            </g>
        </g>
        <g id="T.-6-Post-Narrow8">
            <g id="Plastic18">
                <path d="M1589.88,3769.27C1586.53,3756.92 1567.99,3761.97 1571.36,3774.32C1574.71,3786.67 1593.26,3781.62 1589.88,3769.27Z" style="fill:none;stroke:black;stroke-width:1.19px;stroke-miterlimit:2.613;"/>
            </g>
        </g>
        <g id="T.-6-Post-Narrow9">
            <g id="Plastic19">
                <path d="M2082.82,2958.26C2079.46,2945.91 2060.92,2950.96 2064.29,2963.31C2067.64,2975.66 2086.19,2970.61 2082.82,2958.26Z" style="fill:none;stroke:black;stroke-width:1.19px;stroke-miterlimit:2.613;"/>
            </g>
        </g>
        <g id="T.-6-Post-Narrow10">
            <g id="Plastic20">
                <path d="M2119.38,3011.71C2116.02,2999.35 2097.48,3004.41 2100.85,3016.75C2104.2,3029.11 2122.75,3024.05 2119.38,3011.71Z" style="fill:none;stroke:black;stroke-width:1.19px;stroke-miterlimit:2.613;"/>
            </g>
        </g>
        <g id="T.-6-Post-Narrow11">
            <g id="Plastic21">
                <path d="M2026.56,3157.08C2023.2,3144.73 2004.66,3149.78 2008.03,3162.12C2011.38,3174.48 2029.93,3169.43 2026.56,3157.08Z" style="fill:none;stroke:black;stroke-width:1.19px;stroke-miterlimit:2.613;"/>
            </g>
        </g>
        <g id="T.-6-Post-Narrow12">
            <g id="Plastic22">
                <path d="M1957.55,2533.32C1954.19,2520.97 1935.65,2526.02 1939.02,2538.37C1942.37,2550.72 1960.92,2545.67 1957.55,2533.32Z" style="fill:none;stroke:black;stroke-width:1.19px;stroke-miterlimit:2.613;"/>
            </g>
        </g>
        <g id="T.-6-Post-Narrow13">
            <g id="Plastic23">
                <path d="M2022.92,2492.07C2019.57,2479.72 2001.03,2484.77 2004.4,2497.12C2007.75,2509.47 2026.3,2504.42 2022.92,2492.07Z" style="fill:none;stroke:black;stroke-width:1.19px;stroke-miterlimit:2.613;"/>
            </g>
        </g>
        <g id="T.-6-Post-Narrow14">
            <g id="Plastic24">
                <path d="M2070.19,2174.29C2066.84,2161.94 2048.3,2166.99 2051.67,2179.34C2055.02,2191.69 2073.57,2186.64 2070.19,2174.29Z" style="fill:none;stroke:black;stroke-width:1.19px;stroke-miterlimit:2.613;"/>
            </g>
        </g>
        <g id="T.-6-Post-Narrow15">
            <g id="Plastic25">
                <path d="M2520.53,923.14C2517.17,910.788 2498.64,915.839 2502.01,928.187C2505.36,940.541 2523.9,935.488 2520.53,923.14Z" style="fill:none;stroke:black;stroke-width:1.19px;stroke-miterlimit:2.613;"/>
            </g>
        </g>
        <g id="T.-6-Post-Narrow16">
            <g id="Plastic26">
                <path d="M2478.79,1037.79C2475.43,1025.44 2456.89,1030.49 2460.26,1042.84C2463.62,1055.19 2482.16,1050.14 2478.79,1037.79Z" style="fill:none;stroke:black;stroke-width:1.19px;stroke-miterlimit:2.613;"/>
            </g>
        </g>
        <g id="T.-6-Post-Narrow17">
            <g id="Plastic27">
                <path d="M535.747,2501.8C532.389,2489.45 513.851,2494.5 517.223,2506.85C520.574,2519.2 539.119,2514.15 535.747,2501.8Z" style="fill:none;stroke:black;stroke-width:1.19px;stroke-miterlimit:2.613;"/>
            </g>
        </g>
        <g id="Round-Hole-Small-w-PlasHole">
            <g id="Plastic28">
                <circle cx="2535.99" cy="2523.16" r="7.68" style="fill:none;stroke:black;stroke-width:1.44px;stroke-miterlimit:1.5;"/>
            </g>
        </g>
        <g id="_.23.6-Screw-Plas2Wood">
            <g id="Plastic29">
                <path d="M285.439,3151.11C285.439,3145.95 281.245,3141.75 276.079,3141.75L204.079,3141.75C198.913,3141.75 194.719,3145.95 194.719,3151.11C194.719,3156.28 198.913,3160.47 204.079,3160.47L276.079,3160.47C281.245,3160.47 285.439,3156.28 285.439,3151.11Z" style="fill:none;stroke:black;stroke-opacity:0.843137;stroke-width:0.53px;"/>
            </g>
        </g>
        <g id="_.23.6-Screw-Plas2Wood1">
            <g id="Plastic30">
                <path d="M285.439,2604.42C285.439,2599.25 281.245,2595.06 276.079,2595.06L204.079,2595.06C198.913,2595.06 194.719,2599.25 194.719,2604.42C194.719,2609.59 198.913,2613.78 204.079,2613.78L276.079,2613.78C281.245,2613.78 285.439,2609.59 285.439,2604.42Z" style="fill:none;stroke:black;stroke-opacity:0.843137;stroke-width:0.53px;"/>
            </g>
        </g>
        <g id="_.23.6-Screw-Plas2Wood2">
            <g id="Plastic31">
                <path d="M285.439,1873.49C285.439,1868.33 281.245,1864.13 276.079,1864.13L204.079,1864.13C198.913,1864.13 194.719,1868.33 194.719,1873.49C194.719,1878.66 198.913,1882.85 204.079,1882.85L276.079,1882.85C281.245,1882.85 285.439,1878.66 285.439,1873.49Z" style="fill:none;stroke:black;stroke-opacity:0.843137;stroke-width:0.53px;"/>
            </g>
        </g>
        <g id="T.-6-Post-Narrow18">
            <g id="Plastic32">
                <path d="M1309.74,1057.7C1303.49,1046.52 1286.72,1055.9 1292.98,1067.07C1299.22,1078.25 1315.99,1068.87 1309.74,1057.7Z" style="fill:none;stroke:black;stroke-width:1.19px;stroke-miterlimit:2.613;"/>
            </g>
        </g>
        <g id="T.-6-Post-Narrow19">
            <g id="Plastic33">
                <path d="M1369.19,1136.88C1362.95,1125.7 1346.18,1135.09 1352.44,1146.25C1358.68,1157.43 1375.45,1148.05 1369.19,1136.88Z" style="fill:none;stroke:black;stroke-width:1.19px;stroke-miterlimit:2.613;"/>
            </g>
        </g>
        <g id="T.-6-Post-Narrow20">
            <g id="Plastic34">
                <path d="M1702.08,803.402C1698.72,791.051 1680.18,796.102 1683.56,808.45C1686.91,820.803 1705.45,815.75 1702.08,803.402Z" style="fill:none;stroke:black;stroke-width:1.19px;stroke-miterlimit:2.613;"/>
            </g>
        </g>
        <g id="T.-6-Post-Narrow21">
            <g id="Plastic35">
                <path d="M1623.95,709.078C1620.6,696.726 1602.06,701.777 1605.43,714.125C1608.78,726.479 1627.33,721.426 1623.95,709.078Z" style="fill:none;stroke:black;stroke-width:1.19px;stroke-miterlimit:2.613;"/>
            </g>
        </g>
        <g id="R-.23.6-Screw-Plas2Wood">
            <g id="Plastic36">
                <path d="M2249.25,3309.17C2249.25,3304.01 2245.05,3299.81 2239.89,3299.81L2167.89,3299.81C2162.72,3299.81 2158.53,3304.01 2158.53,3309.17C2158.53,3314.34 2162.72,3318.53 2167.89,3318.53L2239.89,3318.53C2245.05,3318.53 2249.25,3314.34 2249.25,3309.17Z" style="fill:none;stroke:black;stroke-opacity:0.843137;stroke-width:0.53px;"/>
            </g>
        </g>
        <g id="R-.23.6-Screw-Plas2Wood1">
            <g id="Plastic37">
                <path d="M2704.89,2493.12C2704.89,2487.95 2700.7,2483.76 2695.53,2483.76L2623.53,2483.76C2618.37,2483.76 2614.17,2487.95 2614.17,2493.12C2614.17,2498.28 2618.37,2502.48 2623.53,2502.48L2695.53,2502.48C2700.7,2502.48 2704.89,2498.28 2704.89,2493.12Z" style="fill:none;stroke:black;stroke-opacity:0.843137;stroke-width:0.53px;"/>
            </g>
        </g>
        <g id="R-.23.6-Screw-Plas2Wood2">
            <g id="Plastic38">
                <path d="M2249.25,2037.98C2249.25,2032.81 2245.05,2028.62 2239.89,2028.62L2167.89,2028.62C2162.72,2028.62 2158.53,2032.81 2158.53,2037.98C2158.53,2043.14 2162.72,2047.34 2167.89,2047.34L2239.89,2047.34C2245.05,2047.34 2249.25,2043.14 2249.25,2037.98Z" style="fill:none;stroke:black;stroke-opacity:0.843137;stroke-width:0.53px;"/>
            </g>
        </g>
        <g id="Misc-Plas.2e.">
            <g id="Plastics">
                <path d="M1596.98,3795.21C1587.13,3802.15 1573.92,3801.96 1564.28,3794.72C1554.64,3787.49 1550.76,3774.86 1554.68,3763.46C1585.5,3673.74 1635.87,3527.1 1674.49,3414.67C1678.91,3401.82 1691.96,3394.05 1705.36,3396.29C1718.76,3398.53 1728.57,3410.12 1728.57,3423.7C1728.55,3526.86 1728.52,3647.2 1728.51,3688.05C1728.51,3697.09 1724.12,3705.55 1716.73,3710.76C1693.69,3727.01 1641.02,3764.15 1596.98,3795.21Z" style="fill:rgb(0,201,255);fill-opacity:0.45098;stroke:black;stroke-width:1.07px;stroke-miterlimit:2.613;"/>
                <path d="M820.435,3795.21C830.286,3802.15 843.491,3801.96 853.132,3794.72C862.773,3787.49 866.651,3774.86 862.735,3763.46C831.913,3673.74 781.542,3527.1 742.92,3414.67C738.507,3401.82 725.453,3394.05 712.055,3396.29C698.657,3398.53 688.84,3410.12 688.844,3423.7C688.867,3526.86 688.894,3647.2 688.903,3688.05C688.906,3697.09 693.297,3705.55 700.679,3710.76C723.725,3727.01 776.389,3764.15 820.435,3795.21Z" style="fill:rgb(0,201,255);fill-opacity:0.45098;stroke:black;stroke-width:1.07px;stroke-miterlimit:2.613;"/>
                <path d="M2135.41,1561.89C2136.21,1554.53 2136.97,1547.46 2137.71,1540.73C2143.15,1491.09 2145.4,1393.71 2145.74,1377.68C2145.75,1377.18 2146.01,1376.73 2146.44,1376.46C2146.86,1376.2 2147.39,1376.16 2147.84,1376.37C2155.66,1379.99 2183.48,1392.84 2188.73,1395.26C2189.25,1395.5 2189.59,1396.03 2189.59,1396.6L2189.56,1540.98L2189.59,1540.98L2189.28,2926.91C2189.28,2926.91 2189.28,3339.04 2189.28,3425.83C2189.28,3430.03 2187.6,3434.06 2184.61,3437.01C2181.61,3439.95 2177.57,3441.58 2173.36,3441.52C2170.2,3441.47 2166.92,3441.43 2163.87,3441.38C2156.31,3441.27 2149.9,3435.78 2148.63,3428.32C2143.14,3396.73 2127.24,3315.36 2104,3279.86C2074.82,3235.28 2028.59,3201.52 2001.51,3184.22C1988.73,3176.07 1982.8,3160.51 1986.9,3145.92C2003.11,3088.37 2041.89,2950.6 2050.76,2919.09C2052.41,2913.22 2052.16,2906.99 2050.04,2901.28C2031.95,2852.45 1943.77,2614.48 1920.54,2551.78C1916.9,2541.97 1916.87,2531.19 1920.45,2521.37C1944.82,2453.4 2043.09,2170.43 2082.53,1921.08C2082.63,1920.45 2082.76,1919.67 2082.91,1918.75C2083.14,1917.36 2083.92,1916.12 2085.07,1915.31C2086.22,1914.5 2087.65,1914.18 2089.04,1914.42C2094.56,1915.41 2102.46,1916.83 2102.46,1916.83C2108.44,1917.9 2114.17,1913.91 2115.24,1907.93L2119.12,1886.25C2120.19,1880.27 2116.2,1874.54 2110.22,1873.47C2110.22,1873.47 2102.26,1872.05 2096.73,1871.06C2095.35,1870.81 2094.12,1870.02 2093.32,1868.86C2092.52,1867.7 2092.22,1866.27 2092.48,1864.89C2092.49,1864.89 2092.49,1864.89 2092.49,1864.89C2112.67,1758.76 2129.47,1615.28 2135.41,1561.89Z" style="fill:rgb(0,201,255);fill-opacity:0.45098;stroke:black;stroke-width:1.07px;stroke-linecap:butt;stroke-miterlimit:1.41421;"/>
                <path d="M351.011,1758.62C356.057,1757.18 361.325,1760.06 362.838,1765.08C364.754,1771.44 366.711,1777.78 368.708,1784.12C415.663,1933 478.053,2130.82 490.672,2170.83C492.074,2175.28 489.928,2180.07 485.677,2181.98C477.284,2185.76 459.205,2180.63 444.328,2187.32C434.979,2191.53 427.103,2198.25 421.496,2206.61C418.587,2211.28 416.334,2216.38 414.844,2221.78C411.27,2234.73 412.346,2248.46 417.771,2260.62C417.994,2261.08 418.223,2261.53 418.46,2261.99L420.88,2266.62L549.643,2488.52C554.472,2496.84 554.516,2507.1 549.758,2515.47C545,2523.83 536.158,2529.03 526.536,2529.13C492.449,2529.49 445.746,2529.98 408.296,2530.38C373.312,2530.74 345.029,2558.99 344.614,2593.97C344.609,2594.35 344.605,2594.73 344.6,2595.09C344.517,2602.14 346.488,2609.05 350.274,2615C366.884,2641.07 414.793,2716.28 436.047,2749.64C442.514,2759.79 443.407,2772.53 438.421,2783.48C420.002,2823.95 375.008,2922.8 360.055,2955.65C356.954,2962.47 357.21,2970.34 360.748,2976.93C376.869,3007 423.406,3093.8 443.048,3130.43C448.463,3140.53 447.376,3152.87 440.28,3161.87C428.641,3176.63 411.042,3198.94 400.603,3212.18C395.142,3219.1 386.809,3223.14 377.99,3223.14C356.135,3223.14 313.394,3223.14 284.747,3223.14C277.109,3223.14 269.784,3220.11 264.383,3214.71C258.982,3209.31 255.947,3201.98 255.947,3194.35C255.947,3119.91 255.947,2926.91 255.947,2926.91L255.642,1540.98L255.775,1540.98L255.773,927.151C255.773,927.051 255.776,926.951 255.782,926.852L256.612,913.832L314.418,973.549C303.428,1018.25 297.6,1064.98 297.6,1113.08L297.6,1373.76C297.6,1373.76 297.781,1377.81 298.092,1384.8C300.395,1436.45 305.265,1487.91 312.669,1538.98L312.802,1538.98C312.802,1538.98 321.477,1594.54 327.234,1621.95C331.458,1642.05 339.551,1677.54 344.328,1698.33C344.889,1700.54 345.455,1702.75 346.025,1704.96C347.326,1710 344.372,1715.16 339.365,1716.59C333.524,1718.26 327.001,1720.12 327.001,1720.12C324.039,1720.97 322.322,1724.06 323.167,1727.02L332.075,1758.22C332.921,1761.18 336.011,1762.9 338.972,1762.06C338.972,1762.06 345.282,1760.25 351.011,1758.62Z" style="fill:rgb(0,201,255);fill-opacity:0.45098;stroke:black;stroke-width:0.66px;"/>
                <rect x="882.279" y="489.18" width="679.12" height="41.162" style="fill:rgb(0,201,255);fill-opacity:0.45098;stroke:black;stroke-width:0.53px;"/>
                <path d="M439.129,3673.21C445.836,3673.21 452.063,3676.69 455.584,3682.39C465.731,3698.87 479.194,3713.35 495.411,3724.8L877.067,3993.45C878.535,3994.49 879.141,3996.28 878.741,3998.06C878.349,3999.82 876.711,4001.21 874.945,4001.51C860.724,4003.97 848.065,4012.09 839.766,4024.06C831.475,4036.04 828.249,4050.75 830.778,4065.16C831.105,4066.95 830.31,4068.76 828.766,4069.75C827.229,4070.73 825.247,4070.69 823.754,4069.63L421.418,3786.93C420.77,3786.44 419.829,3785.97 419.779,3784.48C419.779,3784.48 419.78,3724.43 419.78,3692.56C419.781,3681.87 428.443,3673.21 439.128,3673.21C439.129,3673.21 439.129,3673.21 439.129,3673.21Z" style="fill:rgb(0,201,255);fill-opacity:0.45098;stroke:black;stroke-width:0.98px;"/>
                <path d="M1977.94,3673.21C1988.63,3673.21 1997.29,3681.87 1997.29,3692.56C1997.29,3724.43 1997.29,3784.48 1997.29,3784.48C1997.24,3785.97 1996.3,3786.44 1995.65,3786.93L1593.32,4069.63C1591.83,4070.69 1589.84,4070.73 1588.31,4069.75C1586.76,4068.76 1585.97,4066.95 1586.29,4065.16C1588.82,4050.75 1585.6,4036.04 1577.31,4024.06C1569.01,4012.09 1556.35,4003.97 1542.13,4001.51C1540.36,4001.21 1538.72,3999.82 1538.33,3998.06C1537.93,3996.28 1538.54,3994.49 1540.01,3993.45L1921.66,3724.8C1937.88,3713.35 1951.34,3698.87 1961.51,3682.41C1965.03,3676.71 1971.25,3673.24 1977.94,3673.24C1977.94,3673.21 1977.94,3673.21 1977.94,3673.21Z" style="fill:rgb(0,201,255);fill-opacity:0.45098;stroke:black;stroke-width:0.98px;"/>
                <path d="M1922.49,1502.61C1920.09,1501 1919.35,1497.8 1920.81,1495.3C1936.29,1468.7 1950.1,1442.97 1960.38,1420.27C1975.33,1387.28 1990.94,1335.52 2002.93,1291.5C2004.1,1287.19 2008.02,1284.19 2012.49,1284.19C2012.52,1284.19 2012.54,1284.19 2012.57,1284.19C2015.26,1284.19 2017.83,1285.29 2019.69,1287.22C2021.56,1289.15 2022.56,1291.75 2022.47,1294.44C2019.45,1377.29 2010.27,1511.74 1983.06,1658.55C1959.58,1785.22 1910.71,1886.98 1888.63,1928.48C1885.75,1933.8 1880.83,1937.71 1875,1939.32C1869.17,1940.93 1862.94,1940.1 1857.73,1937.01C1857.73,1937.01 1846.15,1930.15 1837.71,1925.14C1832.89,1922.29 1826.88,1922.36 1822.13,1925.32C1815.6,1929.46 1807.96,1932.03 1799.7,1932.5C1773.75,1933.95 1751.5,1914.07 1750.04,1888.12C1749.93,1886.26 1749.94,1884.43 1750.05,1882.62C1750.36,1877.05 1747.55,1871.78 1742.76,1868.94C1739.26,1866.79 1735.99,1864.85 1735.99,1864.85C1728.16,1860.2 1724.74,1850.63 1727.87,1842.08C1737.86,1814.73 1759.1,1756.62 1768.57,1730.72C1771.7,1722.13 1776.02,1714.03 1781.38,1706.63C1800.01,1680.8 1847.72,1613.64 1891.59,1543.56C1892.38,1542.3 1893.64,1541.42 1895.09,1541.11C1896.54,1540.8 1898.06,1541.09 1899.29,1541.91C1899.92,1542.34 1900.36,1542.63 1900.36,1542.63C1905.58,1546.13 1912.66,1544.74 1916.16,1539.52L1928.86,1520.6C1932.36,1515.38 1930.96,1508.3 1925.74,1504.79C1925.74,1504.79 1924.18,1503.75 1922.49,1502.61Z" style="fill:rgb(0,201,255);fill-opacity:0.45098;stroke:black;stroke-width:0.53px;"/>
                <path d="M1792.3,885.166C1792.3,885.166 1733.16,842.33 1728.12,736.07C1719.94,563.619 1569.34,530.346 1563.62,530.344C1563.62,530.344 1563.62,530.344 1563.62,530.344L1563.62,488.55C1563.62,488.55 1786.53,497.03 1960.07,503.632C2074.32,507.978 2166.75,598.068 2174.02,712.167C2180.64,815.984 2187.4,922.084 2187.69,926.602C2187.7,926.702 2187.7,926.802 2187.7,926.902C2187.7,935.992 2187.7,1355.62 2187.7,1390.39C2187.7,1390.89 2187.44,1391.35 2187.02,1391.62C2186.6,1391.89 2186.07,1391.93 2185.62,1391.72C2178,1388.23 2151.81,1376.23 2146.73,1373.9C2146.21,1373.66 2145.87,1373.14 2145.87,1372.57C2145.87,1362.09 2103.92,1022.42 2039.19,903.283C2034.77,895.445 2025.49,891.747 2016.89,894.401C2008.3,897.054 2002.71,905.341 2003.48,914.305C2027.26,1184.73 1799.73,1367.69 1799.73,1367.69L1775.44,1364.29C1775.44,1364.29 1776.56,1327.94 1777.82,1287.04C1779.97,1217.08 1745.56,1151.03 1686.99,1112.69C1686.98,1112.69 1686.98,1112.69 1686.98,1112.69C1682.27,1109.61 1679.97,1103.9 1681.24,1098.41C1682.51,1092.91 1687.07,1088.79 1692.66,1088.09C1696.63,1087.58 1700.83,1087.05 1705.24,1086.49C1746.07,1081.32 1781.83,1056.56 1801.04,1020.15C1820.26,983.749 1820.52,940.263 1801.75,903.626C1795.93,892.262 1792.3,885.166 1792.3,885.166Z" style="fill:rgb(0,201,255);fill-opacity:0.45098;stroke:black;stroke-width:0.56px;"/>
                <path d="M922.964,775.173C852.95,851.967 809.014,967.985 815.658,1069.87C815.792,1071.85 815.311,1073.82 814.282,1075.51C809.899,1082.72 797.299,1103.43 787.675,1119.24C785.66,1122.56 781.849,1124.33 778.017,1123.74C774.184,1123.15 771.082,1120.32 770.153,1116.55C759.165,1071.99 735.621,976.518 735.621,976.518C734.517,972.039 731.676,968.183 727.725,965.801C723.774,963.419 719.038,962.707 714.561,963.821C673.108,974.137 566.749,1000.61 525.628,1010.84C516.428,1013.13 510.763,1022.37 512.898,1031.61C520.995,1066.64 539.139,1145.13 540.171,1149.6C540.213,1149.78 540.257,1149.96 540.302,1150.14C540.302,1150.14 549.423,1186.67 553.751,1204C554.996,1208.98 552.091,1214.07 547.162,1215.53C524.709,1222.17 465.331,1239.75 439.493,1247.4C436.592,1248.26 433.456,1247.7 431.03,1245.89C428.604,1244.08 427.173,1241.24 427.168,1238.21L427.064,1179.98C421.728,1134.11 399.75,1051.37 316.205,965.018C257.368,904.201 257.233,904.096 257.233,904.096L269.471,712.081C276.735,598.123 368.952,508.09 483.051,503.56C648.061,497.008 879.85,488.799 879.85,488.799L879.854,530.593C879.854,530.593 879.854,530.593 879.853,530.593C724.763,530.654 620.551,674.008 547.535,843.458C582.485,812.333 623.896,787.85 670.07,772.27C715.782,756.845 749.995,745.3 749.995,745.3L959.986,689.854L922.964,775.173Z" style="fill:rgb(0,201,255);fill-opacity:0.45098;stroke:black;stroke-width:1.05px;"/>
                <path d="M943.607,754.391C943.335,754.641 943.064,754.892 942.792,755.144L972.564,686.533L1096.25,653.875L1627.7,674.278C1627.7,674.278 1718.33,681.925 1734.33,806.137C1739.53,846.54 1656.87,828.294 1594.91,802.15C1535.68,777.162 1500.61,722.187 1442.9,739.646C1363.76,763.59 1344.51,803.619 1313.6,803.403C1308.73,803.369 1303.88,803.619 1299.1,803.725C1247.25,804.877 1201.89,838.941 1186.33,888.421C1186.33,888.421 1186.33,888.421 1186.33,888.421C1186.27,888.599 1186.21,888.776 1186.16,888.954C1185.12,892.429 1061.41,918.47 1061.39,932.028C1061.33,978.15 1070.92,1237.89 1070.87,1272.24C1070.86,1278.36 1065.99,1283.37 1059.87,1283.55C1047.21,1283.93 1040.97,1284.11 1028.82,1284.47C1023.19,1284.64 1018.29,1280.64 1017.32,1275.09C1014,1256.09 946.526,1084.06 936.948,1029.15C922.7,947.47 911.412,831.395 943.393,754.894C943.463,754.726 943.535,754.558 943.607,754.391Z" style="fill:rgb(0,201,255);fill-opacity:0.45098;stroke:black;stroke-width:1.05px;"/>
                <path d="M1292.87,1048.18C1284.43,1053.59 1284.91,1077.38 1284.91,1077.38L1284.91,1299.83L1329.74,1327.74L1350.5,1303.49C1328.49,1242.45 1336.61,1194.34 1379.27,1149.96C1378.53,1100.22 1347.38,1068.89 1317.25,1046.82C1317.25,1046.82 1302.3,1042.15 1292.87,1048.18Z" style="fill:rgb(0,201,255);fill-opacity:0.45098;stroke:black;stroke-width:0.33px;"/>
                <path d="M1221.7,906.213C1215.2,906.214 1209.15,902.93 1205.61,897.486C1202.06,892.043 1201.51,885.177 1204.14,879.239C1221.88,839.088 1262.06,811.026 1308.75,811.026C1356.46,811.026 1397.39,840.349 1414.47,881.944C1430.76,913.607 1464.32,931.976 1499.74,935.7C1535.15,939.424 1571.24,927.354 1593.76,899.773C1614.32,869.523 1649.01,849.637 1688.31,849.637C1751.36,849.637 1802.55,900.827 1802.55,963.878C1802.55,1026.93 1751.36,1078.12 1688.31,1078.12C1678.39,1078.12 1668.76,1076.85 1659.58,1074.47C1630.04,1078.35 1603.06,1094.64 1585.92,1119.92C1570.73,1142.34 1564.96,1169.32 1568.97,1195.28C1576.85,1210.79 1581.29,1228.34 1581.29,1246.92C1581.29,1253.7 1580.7,1260.35 1579.56,1266.81C1577.87,1276.35 1559.36,1331.88 1577.39,1340.41C1634.77,1367.56 1627.37,1426.95 1623.59,1437.62C1623.59,1437.62 1613.78,1465.37 1598.94,1507.34C1597.24,1512.14 1593.7,1516.07 1589.11,1518.27C1584.51,1520.46 1579.23,1520.74 1574.43,1519.04C1548.48,1509.85 1503.82,1494.03 1503.82,1494.03C1485.07,1487.39 1464.45,1497.23 1457.81,1515.98C1457.81,1515.98 1454.32,1525.85 1450.91,1535.47C1447.37,1545.46 1436.4,1550.7 1426.41,1547.16C1393.28,1535.45 1326.25,1511.74 1326.25,1511.74C1315.57,1507.96 1309.97,1496.23 1313.75,1485.56C1313.75,1485.56 1355.6,1367.23 1369.82,1327.02C1372.6,1319.16 1371.83,1310.47 1367.72,1303.21C1358.21,1286.62 1352.81,1267.39 1352.81,1246.92C1352.81,1218.79 1363,1193.02 1379.88,1173.11C1387.8,1149.31 1387.13,1123.02 1377.15,1099.1C1365.21,1070.46 1341.47,1048.91 1312.71,1039.44C1311.39,1039.49 1310.07,1039.51 1308.75,1039.51C1307.05,1039.51 1305.35,1039.47 1303.67,1039.4C1293.38,1038.99 1285.25,1030.53 1285.25,1020.24C1285.23,995.896 1285.23,951.007 1285.23,925.413C1285.23,914.81 1276.63,906.213 1266.03,906.213C1253.07,906.213 1235.82,906.213 1221.7,906.213Z" style="fill:rgb(0,201,255);fill-opacity:0.45098;stroke:black;stroke-width:0.33px;"/>
            </g>
        </g>
    </g>
</svg>
