<?xml version="1.0" encoding="UTF-8" standalone="no"?>
<!DOCTYPE svg PUBLIC "-//W3C//DTD SVG 1.1//EN" "http://www.w3.org/Graphics/SVG/1.1/DTD/svg11.dtd">
<svg width="4544px" height="4993px" version="1.1" xmlns="http://www.w3.org/2000/svg" xmlns:xlink="http://www.w3.org/1999/xlink" xml:space="preserve" style="fill-rule:evenodd;clip-rule:evenodd;stroke-linecap:round;stroke-linejoin:round;stroke-miterlimit:2.613;">
    <g clip-path="url(#_clip2)">
        <g id="Playfield-Outline-.--Top-Bottom-Sticker-Drill-Rout-Plastic-Bevel-Art-Assembly-Rubber-Todo">
            <path d="M250.028,347.831L2193.89,347.831L2193.89,4380.1L2133.9,4380.1L2133.9,4278.1L2133.89,4278.1C2133.89,4271.49 2128.51,4266.11 2121.89,4266.11L2091.95,4266.11L2092.01,4091.14L2092,4091.14C2092,4086.18 2087.96,4082.14 2083.01,4082.14C2078.05,4082.14 2074.01,4086.18 2074.01,4091.14L2074.01,4091.14L2074.06,4266.11L2013.9,4266.11C2007.29,4266.11 2001.91,4271.49 2001.91,4278.1L2001.91,4669.25L1329.95,4669.25L1105.57,4401.84L1105.56,4401.8C1101.06,4396.46 1094.21,4393.27 1087.18,4393.27L771.991,4393.27C758.778,4393.27 747.992,4404.05 747.992,4417.26L747.992,4669.25L551.237,4669.25L375.011,4516.87L375.011,4418.81C375.011,4405.6 364.232,4394.82 351.012,4394.82L250.028,4394.82L250.028,347.831Z" style="fill:none;stroke:rgb(35,31,32);stroke-width:1.11px;"/>
        </g>
        <g id="Playfield-Guides-.--Top-Bottom-Sticker-Drill-Rout-Plastic-Bevel-Art-Assembly-Rubber-Todo">
            <path d="M433.899,4669.25L225.12,4669.25" style="fill:none;stroke:rgb(35,31,32);stroke-width:1.11px;"/>
            <path d="M2210.9,4669.25L2099.49,4669.25" style="fill:none;stroke:rgb(35,31,32);stroke-width:1.11px;"/>
            <path d="M2194.03,4687.12L2194.03,4633.23" style="fill:none;stroke:black;stroke-width:0.74px;stroke-miterlimit:10;"/>
            <path d="M250.14,4692.72L250.14,4627.94" style="fill:none;stroke:black;stroke-width:0.74px;stroke-miterlimit:10;"/>
        </g>
        <g id="R-Ball-Guide">
            <g id="Plastic">
                <path d="M1921.66,3594.06L1540.01,3862.72C1538.54,3863.76 1537.93,3865.54 1538.33,3867.32C1538.72,3869.08 1540.36,3870.47 1542.13,3870.77C1556.35,3873.23 1569.01,3881.36 1577.31,3893.32C1585.6,3905.3 1588.82,3920.01 1586.29,3934.42C1585.97,3936.22 1586.76,3938.03 1588.31,3939.02C1589.84,3939.99 1591.83,3939.95 1593.32,3938.9L1995.65,3656.2C1996.3,3655.7 1997.24,3655.24 1997.29,3653.74L1997.29,3474.68C1997.29,3470.83 1994.17,3467.71 1990.33,3467.71C1986.48,3467.71 1983.36,3470.83 1983.36,3474.68C1983.36,3522.2 1960.35,3566.74 1921.66,3594.06L1921.66,3594.06ZM1618.75,3856.57C1618.74,3869.05 1637.48,3869.05 1637.47,3856.57C1637.48,3844.09 1618.74,3844.09 1618.75,3856.57ZM1935.91,3633.58C1935.9,3646.06 1954.63,3646.06 1954.63,3633.58C1954.64,3621.1 1935.9,3621.1 1935.91,3633.58Z" style="fill:rgb(156,156,156);stroke:black;stroke-width:1.07px;stroke-miterlimit:10;"/>
            </g>
        </g>
        <g id="L-Ball-Guide">
            <g id="Plastic1">
                <path d="M495.411,3594.06L877.067,3862.72C878.535,3863.76 879.141,3865.54 878.741,3867.32C878.349,3869.08 876.711,3870.47 874.945,3870.77C860.724,3873.23 848.065,3881.36 839.766,3893.32C831.475,3905.3 828.249,3920.01 830.778,3934.42C831.105,3936.22 830.31,3938.03 828.766,3939.02C827.229,3939.99 825.247,3939.95 823.754,3938.9L421.418,3656.2C420.77,3655.7 419.829,3655.24 419.779,3653.74L419.782,3474.68C419.782,3470.83 422.9,3467.71 426.746,3467.71C430.592,3467.71 433.711,3470.83 433.711,3474.68C433.711,3522.2 456.728,3566.74 495.411,3594.06L495.411,3594.06ZM779.611,3856.57C779.604,3869.05 798.338,3869.05 798.331,3856.57C798.345,3844.09 779.604,3844.09 779.611,3856.57ZM462.46,3633.59C462.453,3646.07 481.187,3646.07 481.18,3633.59C481.193,3621.11 462.453,3621.11 462.46,3633.59Z" style="fill:rgb(156,156,156);stroke:black;stroke-width:1.07px;stroke-miterlimit:10;"/>
            </g>
        </g>
        <g id="Plastics">
            <g id="Plastics1">
                <path d="M1596.98,3664.47C1587.13,3671.41 1573.92,3671.22 1564.28,3663.99C1554.64,3656.75 1550.76,3644.13 1554.68,3632.73C1585.5,3543 1635.87,3396.37 1674.49,3283.93C1678.91,3271.09 1691.96,3263.31 1705.36,3265.55C1718.76,3267.79 1728.57,3279.39 1728.57,3292.97C1728.55,3396.12 1728.52,3516.46 1728.51,3557.32C1728.51,3566.35 1724.12,3574.82 1716.73,3580.02C1693.69,3596.27 1641.02,3633.41 1596.98,3664.47Z" style="fill:rgb(156,156,156);stroke:black;stroke-width:1.07px;"/>
                <path d="M820.435,3664.47C830.286,3671.41 843.491,3671.22 853.132,3663.99C862.773,3656.75 866.651,3644.13 862.735,3632.73C831.913,3543 781.542,3396.37 742.92,3283.93C738.507,3271.09 725.453,3263.31 712.055,3265.55C698.657,3267.79 688.84,3279.39 688.844,3292.97C688.867,3396.12 688.894,3516.46 688.903,3557.32C688.906,3566.35 693.297,3574.82 700.679,3580.02C723.725,3596.27 776.389,3633.41 820.435,3664.47Z" style="fill:rgb(156,156,156);stroke:black;stroke-width:1.07px;"/>
                <path d="M440.28,3031.14C447.376,3022.14 448.463,3009.79 443.048,2999.69C423.406,2963.06 376.869,2876.27 360.748,2846.2C357.21,2839.6 356.954,2831.73 360.055,2824.91C375.008,2792.06 420.002,2693.21 438.421,2652.74C443.407,2641.79 442.514,2629.06 436.047,2618.91C414.793,2585.54 366.884,2510.34 350.274,2484.26C346.488,2478.32 344.517,2471.4 344.6,2464.36C344.605,2463.99 344.609,2463.62 344.614,2463.24C345.029,2428.25 373.312,2400.01 408.296,2399.64C445.746,2399.25 492.449,2398.76 526.536,2398.4C536.158,2398.3 545,2393.09 549.758,2384.73C554.516,2376.37 554.472,2366.1 549.643,2357.78C516.719,2301.05 456.57,2197.39 420.557,2135.33C412.783,2121.93 410.724,2105.97 414.844,2091.04C418.964,2076.11 428.916,2063.47 442.46,2055.95C446.168,2053.89 449.766,2051.9 453.129,2050.03C465.542,2043.14 471.542,2028.59 467.588,2014.95C434.592,1901.19 292.019,1409.6 292.019,1409.6L255.642,1410.25L255.947,2796.18C255.947,2796.18 255.947,2989.17 255.947,3063.61C255.947,3071.25 258.982,3078.57 264.383,3083.97C269.784,3089.37 277.109,3092.41 284.747,3092.41C313.394,3092.41 356.135,3092.41 377.99,3092.41C386.809,3092.41 395.142,3088.37 400.603,3081.44C411.042,3068.21 428.641,3045.89 440.28,3031.14Z" style="fill:rgb(156,156,156);stroke:black;stroke-width:1.07px;stroke-linecap:butt;stroke-miterlimit:1.41421;"/>
                <path d="M2032.55,2853.03C2035.7,2841.85 2031.83,2829.88 2022.73,2822.66C2003.35,2807.28 1969.24,2780.22 1945.01,2760.99C1937.59,2755.11 1932.83,2746.51 1931.77,2737.1C1930.72,2727.7 1933.45,2718.26 1939.38,2710.88C1949.72,2697.99 1961.83,2682.89 1971.54,2670.8C1982.52,2657.12 1985.11,2638.53 1978.3,2622.38C1961.22,2581.89 1928.91,2505.29 1914.66,2471.49C1910.11,2460.69 1910.04,2448.53 1914.46,2437.68C1946.24,2356.61 2080.09,1990 2147.01,1410.85C2147.13,1409.8 2189.59,1410.25 2189.59,1410.25L2189.28,2796.18C2189.28,2796.18 2189.28,3092.59 2189.28,3271.41C2189.28,3281.43 2181.97,3289.95 2172.06,3291.46C2162.16,3292.98 2152.63,3287.04 2149.63,3277.48C2149.63,3277.48 2149.63,3277.47 2149.63,3277.47C2129.64,3213.72 2087.48,3159.24 2030.78,3123.89C2016.41,3114.93 2002.64,3106.35 1991.63,3099.49C1977.29,3090.55 1970.57,3073.2 1975.15,3056.93C1989.59,3005.62 2020.31,2896.51 2032.55,2853.03Z" style="fill:rgb(156,156,156);stroke:black;stroke-width:1.07px;stroke-linecap:butt;stroke-miterlimit:1.41421;"/>
            </g>
        </g>
    </g>
</svg>
