<?xml version="1.0" encoding="UTF-8" standalone="no"?>
<!DOCTYPE svg PUBLIC "-//W3C//DTD SVG 1.1//EN" "http://www.w3.org/Graphics/SVG/1.1/DTD/svg11.dtd">
<svg width="4544px" height="4993px" version="1.1" xmlns="http://www.w3.org/2000/svg" xmlns:xlink="http://www.w3.org/1999/xlink" xml:space="preserve" style="fill-rule:evenodd;clip-rule:evenodd;stroke-linecap:round;stroke-linejoin:round;stroke-miterlimit:2.613;">
    <g clip-path="url(#_clip2)">
        <g id="Playfield-Outline-.--Top-Bottom-Sticker-Drill-Rout-Plastic-Bevel-Art-Assembly-Rubber-Todo">
            <path d="M250.028,347.831L2193.89,347.831L2193.89,4380.1L2133.9,4380.1L2133.9,4278.1L2133.89,4278.1C2133.89,4271.49 2128.51,4266.11 2121.89,4266.11L2091.95,4266.11L2092.01,4091.14L2092,4091.14C2092,4086.18 2087.96,4082.14 2083.01,4082.14C2078.05,4082.14 2074.01,4086.18 2074.01,4091.14L2074.01,4091.14L2074.06,4266.11L2013.9,4266.11C2007.29,4266.11 2001.91,4271.49 2001.91,4278.1L2001.91,4669.25L1329.95,4669.25L1105.57,4401.84L1105.56,4401.8C1101.06,4396.46 1094.21,4393.27 1087.18,4393.27L771.991,4393.27C758.778,4393.27 747.992,4404.05 747.992,4417.26L747.992,4669.25L551.237,4669.25L375.011,4516.87L375.011,4418.81C375.011,4405.6 364.232,4394.82 351.012,4394.82L250.028,4394.82L250.028,347.831Z" style="fill:none;stroke:rgb(35,31,32);stroke-width:1.11px;"/>
        </g>
        <g id="Playfield-Guides-.--Top-Bottom-Sticker-Drill-Rout-Plastic-Bevel-Art-Assembly-Rubber-Todo">
            <path d="M433.899,4669.25L225.12,4669.25" style="fill:none;stroke:rgb(35,31,32);stroke-width:1.11px;"/>
            <path d="M2210.9,4669.25L2099.49,4669.25" style="fill:none;stroke:rgb(35,31,32);stroke-width:1.11px;"/>
            <path d="M2194.03,4687.12L2194.03,4633.23" style="fill:none;stroke:black;stroke-width:0.74px;stroke-miterlimit:10;"/>
            <path d="M250.14,4692.72L250.14,4627.94" style="fill:none;stroke:black;stroke-width:0.74px;stroke-miterlimit:10;"/>
        </g>
        <g id="R-Ball-Guide">
            <g id="Plastic">
                <path d="M1921.66,3594.06L1540.01,3862.72C1538.54,3863.76 1537.93,3865.54 1538.33,3867.32C1538.72,3869.08 1540.36,3870.47 1542.13,3870.77C1556.35,3873.23 1569.01,3881.36 1577.31,3893.32C1585.6,3905.3 1588.82,3920.01 1586.29,3934.42C1585.97,3936.22 1586.76,3938.03 1588.31,3939.02C1589.84,3939.99 1591.83,3939.95 1593.32,3938.9L1995.65,3656.2C1996.3,3655.7 1997.24,3655.24 1997.29,3653.74L1997.29,3474.68C1997.29,3470.83 1994.17,3467.71 1990.33,3467.71C1986.48,3467.71 1983.36,3470.83 1983.36,3474.68C1983.36,3522.2 1960.35,3566.74 1921.66,3594.06L1921.66,3594.06ZM1618.75,3856.57C1618.74,3869.05 1637.48,3869.05 1637.47,3856.57C1637.48,3844.09 1618.74,3844.09 1618.75,3856.57ZM1935.91,3633.58C1935.9,3646.06 1954.63,3646.06 1954.63,3633.58C1954.64,3621.1 1935.9,3621.1 1935.91,3633.58Z" style="fill:rgb(156,156,156);fill-opacity:0.717647;stroke:black;stroke-width:1.07px;stroke-miterlimit:10;"/>
            </g>
        </g>
        <g id="L-Ball-Guide">
            <g id="Plastic1">
                <path d="M495.411,3594.06L877.067,3862.72C878.535,3863.76 879.141,3865.54 878.741,3867.32C878.349,3869.08 876.711,3870.47 874.945,3870.77C860.724,3873.23 848.065,3881.36 839.766,3893.32C831.475,3905.3 828.249,3920.01 830.778,3934.42C831.105,3936.22 830.31,3938.03 828.766,3939.02C827.229,3939.99 825.247,3939.95 823.754,3938.9L421.418,3656.2C420.77,3655.7 419.829,3655.24 419.779,3653.74L419.782,3474.68C419.782,3470.83 422.9,3467.71 426.746,3467.71C430.592,3467.71 433.711,3470.83 433.711,3474.68C433.711,3522.2 456.728,3566.74 495.411,3594.06L495.411,3594.06ZM779.611,3856.57C779.604,3869.05 798.338,3869.05 798.331,3856.57C798.345,3844.09 779.604,3844.09 779.611,3856.57ZM462.46,3633.59C462.453,3646.07 481.187,3646.07 481.18,3633.59C481.193,3621.11 462.453,3621.11 462.46,3633.59Z" style="fill:rgb(156,156,156);fill-opacity:0.717647;stroke:black;stroke-width:1.07px;stroke-miterlimit:10;"/>
            </g>
        </g>
        <g id="Misc-Plas.2e.">
            <g id="Plastics">
                <path d="M1596.98,3664.47C1587.13,3671.41 1573.92,3671.22 1564.28,3663.99C1554.64,3656.75 1550.76,3644.13 1554.68,3632.73C1585.5,3543 1635.87,3396.37 1674.49,3283.93C1678.91,3271.09 1691.96,3263.31 1705.36,3265.55C1718.76,3267.79 1728.57,3279.39 1728.57,3292.97C1728.55,3396.12 1728.52,3516.46 1728.51,3557.32C1728.51,3566.35 1724.12,3574.82 1716.73,3580.02C1693.69,3596.27 1641.02,3633.41 1596.98,3664.47Z" style="fill:rgb(156,156,156);fill-opacity:0.717647;stroke:black;stroke-width:1.07px;"/>
                <path d="M820.435,3664.47C830.286,3671.41 843.491,3671.22 853.132,3663.99C862.773,3656.75 866.651,3644.13 862.735,3632.73C831.913,3543 781.542,3396.37 742.92,3283.93C738.507,3271.09 725.453,3263.31 712.055,3265.55C698.657,3267.79 688.84,3279.39 688.844,3292.97C688.867,3396.12 688.894,3516.46 688.903,3557.32C688.906,3566.35 693.297,3574.82 700.679,3580.02C723.725,3596.27 776.389,3633.41 820.435,3664.47Z" style="fill:rgb(156,156,156);fill-opacity:0.717647;stroke:black;stroke-width:1.07px;"/>
                <path d="M2091.53,1739.39C2092.02,1736.67 2092.37,1734.78 2092.49,1734.15C2117.75,1601.33 2137.71,1409.99 2137.71,1409.99L2189.59,1410.25L2189.28,2796.18C2189.28,2796.18 2189.28,3092.59 2189.28,3271.41C2189.28,3281.43 2181.97,3289.95 2172.06,3291.46C2162.16,3292.98 2152.63,3287.04 2149.63,3277.48C2149.63,3277.48 2149.63,3277.47 2149.63,3277.47C2129.64,3213.72 2087.48,3159.24 2030.78,3123.89C2016.41,3114.93 2002.64,3106.35 1991.63,3099.49C1977.29,3090.55 1970.57,3073.2 1975.15,3056.93C1993.6,2991.41 2039.47,2828.45 2050.76,2788.35C2052.41,2782.49 2052.16,2776.25 2050.04,2770.54C2031.95,2721.71 1943.77,2483.74 1920.54,2421.04C1916.9,2411.24 1916.87,2400.46 1920.45,2390.63C1944.82,2322.67 2043.09,2039.69 2082.53,1790.34C2082.79,1788.73 2083.24,1786.07 2083.81,1782.75L2102.46,1786.09C2108.44,1787.16 2114.17,1783.17 2115.24,1777.19L2119.12,1755.51C2120.19,1749.53 2116.2,1743.81 2110.22,1742.74L2091.53,1739.39Z" style="fill:rgb(156,156,156);fill-opacity:0.717647;stroke:black;stroke-width:1.07px;stroke-linecap:butt;stroke-miterlimit:1.41421;"/>
                <path d="M355.294,1627.77L467.588,2014.95C471.542,2028.59 465.542,2043.14 453.129,2050.03C449.766,2051.9 446.168,2053.89 442.46,2055.95C428.916,2063.47 418.964,2076.11 414.844,2091.04C410.724,2105.97 412.783,2121.93 420.557,2135.33C456.57,2197.39 516.719,2301.05 549.643,2357.78C554.472,2366.1 554.516,2376.37 549.758,2384.73C545,2393.09 536.158,2398.3 526.536,2398.4C492.449,2398.76 445.746,2399.25 408.296,2399.64C373.312,2400.01 345.029,2428.25 344.614,2463.24C344.609,2463.62 344.605,2463.99 344.6,2464.36C344.517,2471.4 346.488,2478.32 350.274,2484.26C366.884,2510.34 414.793,2585.54 436.047,2618.91C442.514,2629.06 443.407,2641.79 438.421,2652.74C420.002,2693.21 375.008,2792.06 360.055,2824.91C356.954,2831.73 357.21,2839.6 360.748,2846.2C376.869,2876.27 423.406,2963.06 443.048,2999.69C448.463,3009.79 447.376,3022.14 440.28,3031.14C428.641,3045.89 411.042,3068.21 400.603,3081.44C395.142,3088.37 386.809,3092.41 377.99,3092.41C356.135,3092.41 313.394,3092.41 284.747,3092.41C277.109,3092.41 269.784,3089.37 264.383,3083.97C258.982,3078.57 255.947,3071.25 255.947,3063.61C255.947,2989.17 255.947,2796.18 255.947,2796.18L255.642,1410.25L292.019,1409.6L343.026,1585.47L333.764,1588.1C327.918,1589.76 324.521,1595.86 326.182,1601.7L332.202,1622.89C333.863,1628.73 339.958,1632.13 345.803,1630.47L355.294,1627.77Z" style="fill:rgb(156,156,156);fill-opacity:0.717647;stroke:black;stroke-width:1.07px;stroke-linecap:butt;stroke-miterlimit:1.41421;"/>
            </g>
        </g>
    </g>
</svg>
