<?xml version="1.0" encoding="UTF-8" standalone="no"?>
<!DOCTYPE svg PUBLIC "-//W3C//DTD SVG 1.1//EN" "http://www.w3.org/Graphics/SVG/1.1/DTD/svg11.dtd">
<svg width="4544px" height="5760px" version="1.1" xmlns="http://www.w3.org/2000/svg" xmlns:xlink="http://www.w3.org/1999/xlink" xml:space="preserve" style="fill-rule:evenodd;clip-rule:evenodd;stroke-linecap:round;stroke-linejoin:round;stroke-miterlimit:2.613;">
    <g clip-path="url(#_clip1)">
        <g id="T.-6-R-PlasMet-POST">
            <g id="Plastic">
                <path d="M327.493,2729.91C327.487,2741.11 344.299,2741.11 344.293,2729.91C344.305,2718.71 327.487,2718.71 327.493,2729.91Z" style="fill:none;stroke:black;stroke-width:0.96px;stroke-miterlimit:10;"/>
            </g>
        </g>
        <g id="T.-6-R-PlasMet-POST1">
            <g id="Plastic1">
                <path d="M272.277,1789.98C272.271,1801.18 289.084,1801.18 289.077,1789.98C289.09,1778.78 272.271,1778.78 272.277,1789.98Z" style="fill:none;stroke:black;stroke-width:0.96px;stroke-miterlimit:10;"/>
            </g>
        </g>
        <g id="T.-6-R-PlasMet-POST2">
            <g id="Plastic2">
                <path d="M384.371,2098.53C384.365,2109.73 401.178,2109.73 401.171,2098.53C401.184,2087.33 384.365,2087.33 384.371,2098.53Z" style="fill:none;stroke:black;stroke-width:0.96px;stroke-miterlimit:10;"/>
            </g>
        </g>
        <g id="T.-6-R-PlasMet-POST3">
            <g id="Plastic3">
                <path d="M317.893,2219.18C317.887,2230.38 334.7,2230.38 334.693,2219.18C334.706,2207.98 317.887,2207.98 317.893,2219.18Z" style="fill:none;stroke:black;stroke-width:0.96px;stroke-miterlimit:10;"/>
            </g>
        </g>
        <g id="T.-6-R-PlasMet-POST4">
            <g id="Plastic4">
                <path d="M2063.8,3189.32C2063.79,3200.52 2080.6,3200.52 2080.6,3189.32C2080.61,3178.12 2063.79,3178.12 2063.8,3189.32Z" style="fill:none;stroke:black;stroke-width:0.96px;stroke-miterlimit:10;"/>
            </g>
        </g>
        <g id="T.-6-R-PlasMet-POST5">
            <g id="Plastic5">
                <path d="M2110.78,3241.05C2110.78,3252.25 2127.59,3252.25 2127.58,3241.05C2127.6,3229.85 2110.78,3229.85 2110.78,3241.05Z" style="fill:none;stroke:black;stroke-width:0.96px;stroke-miterlimit:10;"/>
            </g>
        </g>
        <g id="T.-6-R-PlasMet-POST6">
            <g id="Plastic6">
                <path d="M1936.86,3764.3C1936.85,3775.5 1953.66,3775.5 1953.66,3764.3C1953.67,3753.1 1936.85,3753.1 1936.86,3764.3Z" style="fill:none;stroke:black;stroke-width:0.96px;stroke-miterlimit:10;"/>
            </g>
        </g>
        <g id="T.-6-R-PlasMet-POST7">
            <g id="Plastic7">
                <path d="M1619.7,3987.29C1619.69,3998.49 1636.51,3998.49 1636.5,3987.29C1636.51,3976.09 1619.69,3976.09 1619.7,3987.29Z" style="fill:none;stroke:black;stroke-width:0.96px;stroke-miterlimit:10;"/>
            </g>
        </g>
        <g id="T.-6-R-PlasMet-POST8">
            <g id="Plastic8">
                <path d="M780.562,3987.29C780.556,3998.49 797.368,3998.49 797.362,3987.29C797.375,3976.09 780.556,3976.09 780.562,3987.29Z" style="fill:none;stroke:black;stroke-width:0.96px;stroke-miterlimit:10;"/>
            </g>
        </g>
        <g id="T.-6-R-PlasMet-POST9">
            <g id="Plastic9">
                <path d="M463.41,3764.31C463.404,3775.51 480.216,3775.51 480.21,3764.31C480.223,3753.11 463.404,3753.11 463.41,3764.31Z" style="fill:none;stroke:black;stroke-width:0.96px;stroke-miterlimit:10;"/>
            </g>
        </g>
        <g id="Playfield-Outline-.--Top-Bottom-Sticker-Drill-Rout-Plastic-Bevel-Art-Assembly-Rubber-Todo">
            <path d="M250.028,382.57L2193.89,382.57L2193.89,4510.83L2133.9,4510.83L2133.9,4408.84L2133.89,4408.84C2133.89,4402.23 2128.51,4396.84 2121.89,4396.84L2091.95,4396.84L2092.01,4221.88L2092,4221.87C2092,4216.92 2087.96,4212.88 2083.01,4212.88C2078.05,4212.88 2074.01,4216.92 2074.01,4221.87L2074.01,4221.88L2074.06,4396.84L2013.9,4396.84C2007.29,4396.84 2001.91,4402.23 2001.91,4408.84L2001.91,4799.99L1329.95,4799.99L1105.57,4532.58L1105.56,4532.54C1101.06,4527.19 1094.21,4524.01 1087.18,4524.01L771.991,4524.01C758.778,4524.01 747.992,4534.79 747.992,4548L747.992,4799.99L551.237,4799.99L375.011,4647.61L375.011,4549.55C375.011,4536.34 364.232,4525.56 351.012,4525.56L250.028,4525.56L250.028,382.57Z" style="fill:none;stroke:rgb(35,31,32);stroke-width:1.11px;"/>
        </g>
        <g id="Playfield-Guides-.--Top-Bottom-Sticker-Drill-Rout-Plastic-Bevel-Art-Assembly-Rubber-Todo">
            <path d="M433.899,4799.99L225.12,4799.99" style="fill:none;stroke:rgb(35,31,32);stroke-width:1.11px;"/>
            <path d="M2210.9,4799.99L2099.49,4799.99" style="fill:none;stroke:rgb(35,31,32);stroke-width:1.11px;"/>
            <path d="M2194.03,4817.86L2194.03,4763.96" style="fill:none;stroke:black;stroke-width:0.74px;stroke-miterlimit:10;"/>
            <path d="M250.14,4823.45L250.14,4758.68" style="fill:none;stroke:black;stroke-width:0.74px;stroke-miterlimit:10;"/>
        </g>
        <g id="R-Ball-Guide">
            <g id="Plastic10">
                <path d="M1921.66,3724.8L1540.01,3993.45C1538.54,3994.49 1537.93,3996.28 1538.33,3998.06C1538.72,3999.82 1540.36,4001.21 1542.13,4001.51C1556.35,4003.97 1569.01,4012.09 1577.31,4024.06C1585.6,4036.04 1588.82,4050.75 1586.29,4065.16C1585.97,4066.95 1586.76,4068.76 1588.31,4069.75C1589.84,4070.73 1591.83,4070.69 1593.32,4069.63L1995.65,3786.93C1996.3,3786.44 1997.24,3785.97 1997.29,3784.48L1997.29,3605.41C1997.29,3601.57 1994.17,3598.45 1990.33,3598.45C1986.48,3598.45 1983.36,3601.57 1983.36,3605.41C1983.36,3652.94 1960.35,3697.48 1921.66,3724.8L1921.66,3724.8Z" style="fill:rgb(156,156,156);fill-opacity:0.717647;stroke:black;stroke-width:1.07px;stroke-miterlimit:10;"/>
            </g>
        </g>
        <g id="L-Ball-Guide">
            <g id="Plastic11">
                <path d="M495.411,3724.8L877.067,3993.45C878.535,3994.49 879.141,3996.28 878.741,3998.06C878.349,3999.82 876.711,4001.21 874.945,4001.51C860.724,4003.97 848.065,4012.09 839.766,4024.06C831.475,4036.04 828.249,4050.75 830.778,4065.16C831.105,4066.95 830.31,4068.76 828.766,4069.75C827.229,4070.73 825.247,4070.69 823.754,4069.63L421.418,3786.93C420.77,3786.44 419.829,3785.97 419.779,3784.48L419.782,3605.41C419.782,3601.57 422.9,3598.45 426.746,3598.45C430.592,3598.45 433.711,3601.57 433.711,3605.41C433.711,3652.94 456.728,3697.48 495.411,3724.8L495.411,3724.8Z" style="fill:rgb(156,156,156);fill-opacity:0.717647;stroke:black;stroke-width:1.07px;stroke-miterlimit:10;"/>
            </g>
        </g>
        <g id="T.-6-Post-Narrow">
            <g id="Plastic12">
                <path d="M346.642,2990.71C343.284,2978.36 324.745,2983.41 328.117,2995.76C331.468,3008.11 350.013,3003.06 346.642,2990.71Z" style="fill:none;stroke:black;stroke-width:1.19px;"/>
            </g>
        </g>
        <g id="T.-6-Post-Narrow1">
            <g id="Plastic13">
                <path d="M428.768,3142.32C425.41,3129.96 406.872,3135.01 410.244,3147.36C413.595,3159.72 432.14,3154.66 428.768,3142.32Z" style="fill:none;stroke:black;stroke-width:1.19px;"/>
            </g>
        </g>
        <g id="T.-6-Post-Narrow2">
            <g id="Plastic14">
                <path d="M388.496,3193.08C385.138,3180.72 366.6,3185.78 369.971,3198.12C373.322,3210.48 391.868,3205.42 388.496,3193.08Z" style="fill:none;stroke:black;stroke-width:1.19px;"/>
            </g>
        </g>
        <g id="T.-6-Post-Narrow3">
            <g id="Plastic15">
                <path d="M726.09,3421.76C722.732,3409.41 704.194,3414.46 707.566,3426.81C710.917,3439.16 729.462,3434.11 726.09,3421.76Z" style="fill:none;stroke:black;stroke-width:1.19px;"/>
            </g>
        </g>
        <g id="T.-6-Post-Narrow4">
            <g id="Plastic16">
                <path d="M726.115,3685.66C722.757,3673.31 704.218,3678.36 707.59,3690.71C710.941,3703.06 729.486,3698.01 726.115,3685.66Z" style="fill:none;stroke:black;stroke-width:1.19px;"/>
            </g>
        </g>
        <g id="T.-6-Post-Narrow5">
            <g id="Plastic17">
                <path d="M845.771,3769.25C842.413,3756.9 823.875,3761.95 827.246,3774.3C830.597,3786.66 849.143,3781.6 845.771,3769.25Z" style="fill:none;stroke:black;stroke-width:1.19px;"/>
            </g>
        </g>
        <g id="T.-6-Post-Narrow6">
            <g id="Plastic18">
                <path d="M1710.35,3421.77C1707,3409.42 1688.46,3414.47 1691.83,3426.82C1695.18,3439.17 1713.73,3434.12 1710.35,3421.77Z" style="fill:none;stroke:black;stroke-width:1.19px;"/>
            </g>
        </g>
        <g id="T.-6-Post-Narrow7">
            <g id="Plastic19">
                <path d="M1709.86,3685.35C1706.51,3673 1687.97,3678.05 1691.34,3690.4C1694.69,3702.75 1713.23,3697.7 1709.86,3685.35Z" style="fill:none;stroke:black;stroke-width:1.19px;"/>
            </g>
        </g>
        <g id="T.-6-Post-Narrow8">
            <g id="Plastic20">
                <path d="M1589.88,3769.27C1586.53,3756.92 1567.99,3761.97 1571.36,3774.32C1574.71,3786.67 1593.26,3781.62 1589.88,3769.27Z" style="fill:none;stroke:black;stroke-width:1.19px;"/>
            </g>
        </g>
        <g id="T.-6-Post-Narrow9">
            <g id="Plastic21">
                <path d="M2082.82,2958.26C2079.46,2945.91 2060.92,2950.96 2064.29,2963.31C2067.64,2975.66 2086.19,2970.61 2082.82,2958.26Z" style="fill:none;stroke:black;stroke-width:1.19px;"/>
            </g>
        </g>
        <g id="T.-6-Post-Narrow10">
            <g id="Plastic22">
                <path d="M2119.38,3011.71C2116.02,2999.35 2097.48,3004.41 2100.85,3016.75C2104.2,3029.11 2122.75,3024.05 2119.38,3011.71Z" style="fill:none;stroke:black;stroke-width:1.19px;"/>
            </g>
        </g>
        <g id="T.-6-Post-Narrow11">
            <g id="Plastic23">
                <path d="M2026.56,3157.08C2023.2,3144.73 2004.66,3149.78 2008.03,3162.12C2011.38,3174.48 2029.93,3169.43 2026.56,3157.08Z" style="fill:none;stroke:black;stroke-width:1.19px;"/>
            </g>
        </g>
        <g id="T.-6-Post-Narrow12">
            <g id="Plastic24">
                <path d="M1957.55,2533.32C1954.19,2520.97 1935.65,2526.02 1939.02,2538.37C1942.37,2550.72 1960.92,2545.67 1957.55,2533.32Z" style="fill:none;stroke:black;stroke-width:1.19px;"/>
            </g>
        </g>
        <g id="T.-6-Post-Narrow13">
            <g id="Plastic25">
                <path d="M2022.92,2492.07C2019.57,2479.72 2001.03,2484.77 2004.4,2497.12C2007.75,2509.47 2026.3,2504.42 2022.92,2492.07Z" style="fill:none;stroke:black;stroke-width:1.19px;"/>
            </g>
        </g>
        <g id="T.-6-Post-Narrow14">
            <g id="Plastic26">
                <path d="M2070.19,2174.29C2066.84,2161.94 2048.3,2166.99 2051.67,2179.34C2055.02,2191.69 2073.57,2186.64 2070.19,2174.29Z" style="fill:none;stroke:black;stroke-width:1.19px;"/>
            </g>
        </g>
        <g id="T.-6-Post-Narrow15">
            <g id="Plastic27">
                <path d="M324.462,2397.71C321.104,2385.36 302.566,2390.41 305.937,2402.75C309.288,2415.11 327.834,2410.05 324.462,2397.71Z" style="fill:none;stroke:black;stroke-width:1.19px;"/>
            </g>
        </g>
        <g id="T.-6-Post-Narrow16">
            <g id="Plastic28">
                <path d="M353.063,2338.54C349.705,2326.19 331.166,2331.24 334.538,2343.59C337.889,2355.94 356.435,2350.89 353.063,2338.54Z" style="fill:none;stroke:black;stroke-width:1.19px;"/>
            </g>
        </g>
        <g id="T.-6-Post-Narrow17">
            <g id="Plastic29">
                <path d="M415.827,2321.9C412.469,2309.55 393.931,2314.6 397.303,2326.95C400.654,2339.3 419.199,2334.25 415.827,2321.9Z" style="fill:none;stroke:black;stroke-width:1.19px;"/>
            </g>
        </g>
        <g id="T.-6-Post-Narrow18">
            <g id="Plastic30">
                <path d="M2520.53,923.14C2517.17,910.788 2498.64,915.839 2502.01,928.187C2505.36,940.541 2523.9,935.488 2520.53,923.14Z" style="fill:none;stroke:black;stroke-width:1.19px;"/>
            </g>
        </g>
        <g id="T.-6-Post-Narrow19">
            <g id="Plastic31">
                <path d="M2478.79,1037.79C2475.43,1025.44 2456.89,1030.49 2460.26,1042.84C2463.62,1055.19 2482.16,1050.14 2478.79,1037.79Z" style="fill:none;stroke:black;stroke-width:1.19px;"/>
            </g>
        </g>
        <g id="T.-6-Post-Narrow20">
            <g id="Plastic32">
                <path d="M535.747,2501.8C532.389,2489.45 513.851,2494.5 517.223,2506.85C520.574,2519.2 539.119,2514.15 535.747,2501.8Z" style="fill:none;stroke:black;stroke-width:1.19px;"/>
            </g>
        </g>
        <g id="Round-Hole-Small-w-PlasHole">
            <g id="Plastic33">
                <circle cx="2535.99" cy="2523.16" r="7.68" style="fill:none;stroke:black;stroke-width:1.44px;stroke-miterlimit:1.5;"/>
            </g>
        </g>
        <g id="_.23.6-Screw-Plas2Wood">
            <g id="Plastic34">
                <path d="M285.439,3151.11C285.439,3145.95 281.245,3141.75 276.079,3141.75L204.079,3141.75C198.913,3141.75 194.719,3145.95 194.719,3151.11C194.719,3156.28 198.913,3160.47 204.079,3160.47L276.079,3160.47C281.245,3160.47 285.439,3156.28 285.439,3151.11Z" style="fill:none;stroke:black;stroke-opacity:0.843137;stroke-width:0.53px;stroke-miterlimit:10;"/>
            </g>
        </g>
        <g id="_.23.6-Screw-Plas2Wood1">
            <g id="Plastic35">
                <path d="M285.439,2604.42C285.439,2599.25 281.245,2595.06 276.079,2595.06L204.079,2595.06C198.913,2595.06 194.719,2599.25 194.719,2604.42C194.719,2609.59 198.913,2613.78 204.079,2613.78L276.079,2613.78C281.245,2613.78 285.439,2609.59 285.439,2604.42Z" style="fill:none;stroke:black;stroke-opacity:0.843137;stroke-width:0.53px;stroke-miterlimit:10;"/>
            </g>
        </g>
        <g id="_.23.6-Screw-Plas2Wood2">
            <g id="Plastic36">
                <path d="M285.439,1873.49C285.439,1868.33 281.245,1864.13 276.079,1864.13L204.079,1864.13C198.913,1864.13 194.719,1868.33 194.719,1873.49C194.719,1878.66 198.913,1882.85 204.079,1882.85L276.079,1882.85C281.245,1882.85 285.439,1878.66 285.439,1873.49Z" style="fill:none;stroke:black;stroke-opacity:0.843137;stroke-width:0.53px;stroke-miterlimit:10;"/>
            </g>
        </g>
        <g id="T.-6-Post-Narrow21">
            <g id="Plastic37">
                <path d="M1309.74,1057.7C1303.49,1046.52 1286.72,1055.9 1292.98,1067.07C1299.22,1078.25 1315.99,1068.87 1309.74,1057.7Z" style="fill:none;stroke:black;stroke-width:1.19px;"/>
            </g>
        </g>
        <g id="T.-6-Post-Narrow22">
            <g id="Plastic38">
                <path d="M1369.19,1136.88C1362.95,1125.7 1346.18,1135.09 1352.44,1146.25C1358.68,1157.43 1375.45,1148.05 1369.19,1136.88Z" style="fill:none;stroke:black;stroke-width:1.19px;"/>
            </g>
        </g>
        <g id="Misc-Plas.2e.">
            <g id="Plastics">
                <path d="M1596.98,3795.21C1587.13,3802.15 1573.92,3801.96 1564.28,3794.72C1554.64,3787.49 1550.76,3774.86 1554.68,3763.46C1585.5,3673.74 1635.87,3527.1 1674.49,3414.67C1678.91,3401.82 1691.96,3394.05 1705.36,3396.29C1718.76,3398.53 1728.57,3410.12 1728.57,3423.7C1728.55,3526.86 1728.52,3647.2 1728.51,3688.05C1728.51,3697.09 1724.12,3705.55 1716.73,3710.76C1693.69,3727.01 1641.02,3764.15 1596.98,3795.21Z" style="fill:rgb(156,156,156);fill-opacity:0.717647;stroke:black;stroke-width:1.07px;"/>
                <path d="M820.435,3795.21C830.286,3802.15 843.491,3801.96 853.132,3794.72C862.773,3787.49 866.651,3774.86 862.735,3763.46C831.913,3673.74 781.542,3527.1 742.92,3414.67C738.507,3401.82 725.453,3394.05 712.055,3396.29C698.657,3398.53 688.84,3410.12 688.844,3423.7C688.867,3526.86 688.894,3647.2 688.903,3688.05C688.906,3697.09 693.297,3705.55 700.679,3710.76C723.725,3727.01 776.389,3764.15 820.435,3795.21Z" style="fill:rgb(156,156,156);fill-opacity:0.717647;stroke:black;stroke-width:1.07px;"/>
                <path d="M2091.53,1870.13C2092.02,1867.4 2092.37,1865.52 2092.49,1864.89C2117.75,1732.06 2137.71,1540.73 2137.71,1540.73L2189.59,1540.98L2189.28,2926.91C2189.28,2926.91 2189.28,3339.04 2189.28,3425.83C2189.28,3430.03 2187.6,3434.06 2184.61,3437.01C2181.61,3439.95 2177.57,3441.58 2173.36,3441.52C2170.2,3441.47 2166.92,3441.43 2163.87,3441.38C2156.31,3441.27 2149.9,3435.78 2148.63,3428.32C2143.14,3396.73 2127.24,3315.36 2104,3279.86C2074.82,3235.28 2028.59,3201.52 2001.51,3184.22C1988.73,3176.07 1982.8,3160.51 1986.9,3145.92C2003.11,3088.37 2041.89,2950.6 2050.76,2919.09C2052.41,2913.22 2052.16,2906.99 2050.04,2901.28C2031.95,2852.45 1943.77,2614.48 1920.54,2551.78C1916.9,2541.97 1916.87,2531.19 1920.45,2521.37C1944.82,2453.4 2043.09,2170.43 2082.53,1921.08C2082.79,1919.47 2083.24,1916.8 2083.81,1913.49L2102.46,1916.83C2108.44,1917.9 2114.17,1913.91 2115.24,1907.93L2119.12,1886.25C2120.19,1880.27 2116.2,1874.54 2110.22,1873.47L2091.53,1870.13Z" style="fill:rgb(156,156,156);fill-opacity:0.717647;stroke:black;stroke-width:1.07px;stroke-linecap:butt;stroke-miterlimit:1.41421;"/>
                <path d="M355.294,1758.51L358.489,1769.53C358.489,1769.53 381.736,1865.68 478.512,2136.14C480.195,2140.85 483.505,2150.27 485.97,2157.31C487.703,2162.24 485.361,2167.68 480.586,2169.82C467.679,2175.44 444.376,2185.62 442.46,2186.69C428.916,2194.2 418.964,2206.85 414.844,2221.78C410.724,2236.71 412.783,2252.67 420.557,2266.07C456.57,2328.13 516.719,2431.78 549.643,2488.52C554.472,2496.84 554.516,2507.1 549.758,2515.47C545,2523.83 536.158,2529.03 526.536,2529.13C492.449,2529.49 445.746,2529.98 408.296,2530.38C373.312,2530.74 345.029,2558.99 344.614,2593.97C344.609,2594.35 344.605,2594.73 344.6,2595.09C344.517,2602.14 346.488,2609.05 350.274,2615C366.884,2641.07 414.793,2716.28 436.047,2749.64C442.514,2759.79 443.407,2772.53 438.421,2783.48C420.002,2823.95 375.008,2922.8 360.055,2955.65C356.954,2962.47 357.21,2970.34 360.748,2976.93C376.869,3007 423.406,3093.8 443.048,3130.43C448.463,3140.53 447.376,3152.87 440.28,3161.87C428.641,3176.63 411.042,3198.94 400.603,3212.18C395.142,3219.1 386.809,3223.14 377.99,3223.14C356.135,3223.14 313.394,3223.14 284.747,3223.14C277.109,3223.14 269.784,3220.11 264.383,3214.71C258.982,3209.31 255.947,3201.98 255.947,3194.35C255.947,3119.91 255.947,2926.91 255.947,2926.91L255.642,1540.98L292.019,1540.34L343.026,1716.21L333.764,1718.84C327.918,1720.5 324.521,1726.59 326.182,1732.44L332.202,1753.62C333.863,1759.47 339.958,1762.87 345.803,1761.2L355.294,1758.51Z" style="fill:rgb(156,156,156);fill-opacity:0.717647;stroke:black;stroke-width:1.07px;stroke-linecap:butt;stroke-miterlimit:1.41421;"/>
            </g>
        </g>
        <g id="T.-6-Post-Narrow23">
            <g id="Plastic39">
                <path d="M1702.08,803.402C1698.72,791.051 1680.18,796.102 1683.56,808.45C1686.91,820.803 1705.45,815.75 1702.08,803.402Z" style="fill:none;stroke:black;stroke-width:1.19px;"/>
            </g>
        </g>
        <g id="T.-6-Post-Narrow24">
            <g id="Plastic40">
                <path d="M1623.95,709.078C1620.6,696.726 1602.06,701.777 1605.43,714.125C1608.78,726.479 1627.33,721.426 1623.95,709.078Z" style="fill:none;stroke:black;stroke-width:1.19px;"/>
            </g>
        </g>
        <g id="R-.23.6-Screw-Plas2Wood">
            <g id="Plastic41">
                <path d="M2249.25,3309.17C2249.25,3304.01 2245.05,3299.81 2239.89,3299.81L2167.89,3299.81C2162.72,3299.81 2158.53,3304.01 2158.53,3309.17C2158.53,3314.34 2162.72,3318.53 2167.89,3318.53L2239.89,3318.53C2245.05,3318.53 2249.25,3314.34 2249.25,3309.17Z" style="fill:none;stroke:black;stroke-opacity:0.843137;stroke-width:0.53px;stroke-miterlimit:10;"/>
            </g>
        </g>
        <g id="R-.23.6-Screw-Plas2Wood1">
            <g id="Plastic42">
                <path d="M2704.89,2493.12C2704.89,2487.95 2700.7,2483.76 2695.53,2483.76L2623.53,2483.76C2618.37,2483.76 2614.17,2487.95 2614.17,2493.12C2614.17,2498.28 2618.37,2502.48 2623.53,2502.48L2695.53,2502.48C2700.7,2502.48 2704.89,2498.28 2704.89,2493.12Z" style="fill:none;stroke:black;stroke-opacity:0.843137;stroke-width:0.53px;stroke-miterlimit:10;"/>
            </g>
        </g>
        <g id="R-.23.6-Screw-Plas2Wood2">
            <g id="Plastic43">
                <path d="M2249.25,1676.6C2249.25,1671.43 2245.05,1667.24 2239.89,1667.24L2167.89,1667.24C2162.72,1667.24 2158.53,1671.43 2158.53,1676.6C2158.53,1681.77 2162.72,1685.96 2167.89,1685.96L2239.89,1685.96C2245.05,1685.96 2249.25,1681.77 2249.25,1676.6Z" style="fill:none;stroke:black;stroke-opacity:0.843137;stroke-width:0.53px;stroke-miterlimit:10;"/>
            </g>
        </g>
    </g>
</svg>
