<?xml version="1.0" encoding="UTF-8" standalone="no"?>
<!DOCTYPE svg PUBLIC "-//W3C//DTD SVG 1.1//EN" "http://www.w3.org/Graphics/SVG/1.1/DTD/svg11.dtd">
<svg width="4544px" height="4993px" version="1.1" xmlns="http://www.w3.org/2000/svg" xmlns:xlink="http://www.w3.org/1999/xlink" xml:space="preserve" style="fill-rule:evenodd;clip-rule:evenodd;stroke-linecap:round;stroke-linejoin:round;stroke-miterlimit:2.613;">
    <g clip-path="url(#_clip2)">
        <g id="Playfield-Outline-.--Top-Bottom-Sticker-Drill-Rout-Plastic-Bevel-Art-Assembly-Rubber-Todo">
            <path d="M250.028,347.831L2193.89,347.831L2193.89,4380.1L2133.9,4380.1L2133.9,4278.1L2133.89,4278.1C2133.89,4271.49 2128.51,4266.11 2121.89,4266.11L2091.95,4266.11L2092.01,4091.14L2092,4091.14C2092,4086.18 2087.96,4082.14 2083.01,4082.14C2078.05,4082.14 2074.01,4086.18 2074.01,4091.14L2074.01,4091.14L2074.06,4266.11L2013.9,4266.11C2007.29,4266.11 2001.91,4271.49 2001.91,4278.1L2001.91,4669.25L1329.95,4669.25L1105.57,4401.84L1105.56,4401.8C1101.06,4396.46 1094.21,4393.27 1087.18,4393.27L771.991,4393.27C758.778,4393.27 747.992,4404.05 747.992,4417.26L747.992,4669.25L551.237,4669.25L375.011,4516.87L375.011,4418.81C375.011,4405.6 364.232,4394.82 351.012,4394.82L250.028,4394.82L250.028,347.831Z" style="fill:none;stroke:rgb(35,31,32);stroke-width:1.11px;"/>
        </g>
        <g id="Playfield-Guides-.--Top-Bottom-Sticker-Drill-Rout-Plastic-Bevel-Art-Assembly-Rubber-Todo">
            <path d="M433.899,4669.25L225.12,4669.25" style="fill:none;stroke:rgb(35,31,32);stroke-width:1.11px;"/>
            <path d="M2210.9,4669.25L2099.49,4669.25" style="fill:none;stroke:rgb(35,31,32);stroke-width:1.11px;"/>
            <path d="M2194.03,4687.12L2194.03,4633.23" style="fill:none;stroke:black;stroke-width:0.74px;stroke-miterlimit:10;"/>
            <path d="M250.14,4692.72L250.14,4627.94" style="fill:none;stroke:black;stroke-width:0.74px;stroke-miterlimit:10;"/>
        </g>
        <g id="Rubber-Segment">
            <path id="Assembly-Top5" d="M1854.52,936.658L1812.59,1053.12L1824.18,1057.3L1866.12,940.832L1854.52,936.658Z" style="fill:rgb(200,200,200);"/>
        </g>
        <g id="Rubber-Segment1">
            <path id="Assembly-Top6" d="M1897.5,957.379L1855.57,1073.84L1867.16,1078.02L1909.09,961.553L1897.5,957.379Z" style="fill:rgb(200,200,200);"/>
        </g>
        <g id="Rubber-Segment2">
            <path id="Assembly-Top7" d="M2078.23,2048.33L2030.64,2370.58L2042.83,2372.38L2090.42,2050.13L2078.23,2048.33Z" style="fill:rgb(200,200,200);"/>
        </g>
        <g id="Rubber-Segment3">
            <path id="Assembly-Top8" d="M2027.22,2375.77L1954.44,2421.78L1961.02,2432.2L2033.8,2386.19L2027.22,2375.77Z" style="fill:rgb(200,200,200);"/>
        </g>
        <g id="Rubber-Segment4">
            <path id="Assembly-Top9" d="M2032.46,2036.96L1919.82,2396.38L1931.58,2400.07L2044.21,2040.65L2032.46,2036.96Z" style="fill:rgb(200,200,200);"/>
        </g>
        <g id="Rubber-Segment5">
            <path id="Assembly-Top10" d="M2073.22,2853.43L2111.55,2909.62L2121.73,2902.67L2083.4,2846.49L2073.22,2853.43Z" style="fill:rgb(200,200,200);"/>
        </g>
        <g id="Rubber-Segment6">
            <path id="Assembly-Top11" d="M2031.08,2854.49L1974.3,3055.17L1986.15,3058.53L2042.94,2857.85L2031.08,2854.49Z" style="fill:rgb(200,200,200);"/>
        </g>
        <g id="Rubber-Segment7">
            <path id="Assembly-Top12" d="M2111.01,2926.36L2018.41,3070.94L2028.79,3077.58L2121.39,2933L2111.01,2926.36Z" style="fill:rgb(200,200,200);"/>
        </g>
        <g id="Rubber-Segment8">
            <path id="Assembly-Top13" d="M1730.56,3556.77L1730.56,3293.15L1718.24,3293.15L1718.24,3556.77L1730.56,3556.77Z" style="fill:rgb(200,200,200);"/>
        </g>
        <g id="Rubber-Segment9">
            <path id="Assembly-Top14" d="M1710.1,3571.87L1589.88,3656.05L1596.95,3666.14L1717.17,3581.96L1710.1,3571.87Z" style="fill:rgb(200,200,200);"/>
        </g>
        <g id="Rubber-Segment10">
            <path id="Assembly-Top15" d="M1671.83,3285.24L1554.53,3627.84L1566.19,3631.83L1683.48,3289.23L1671.83,3285.24Z" style="fill:rgb(200,200,200);"/>
        </g>
        <g id="Rubber-Segment11">
            <path id="Assembly-Top16" d="M827.159,3656.07L708.643,3573.08L701.575,3583.18L820.092,3666.16L827.159,3656.07Z" style="fill:rgb(200,200,200);"/>
        </g>
        <g id="Rubber-Segment12">
            <path id="Assembly-Top17" d="M687.082,3293.85L687.082,3557.86L699.404,3557.86L699.404,3293.85L687.082,3293.85Z" style="fill:rgb(200,200,200);"/>
        </g>
        <g id="Rubber-Segment13">
            <path id="Assembly-Top18" d="M733.407,3288.32L852.24,3633.44L863.891,3629.43L745.058,3284.31L733.407,3288.32Z" style="fill:rgb(200,200,200);"/>
        </g>
        <g id="Rubber-Segment14">
            <path id="Assembly-Top19" d="M308.001,2868.43L350.294,3072.65L362.361,3070.15L320.067,2865.93L308.001,2868.43Z" style="fill:rgb(200,200,200);"/>
        </g>
        <g id="Rubber-Segment15">
            <path id="Assembly-Top20" d="M434.677,3023.31L392.429,3076.62L402.086,3084.27L444.334,3030.97L434.677,3023.31Z" style="fill:rgb(200,200,200);"/>
        </g>
        <g id="Rubber-Segment16">
            <path id="Assembly-Top21" d="M446.305,3000.59L364.31,2849.58L353.481,2855.46L435.476,3006.47L446.305,3000.59Z" style="fill:rgb(200,200,200);"/>
        </g>
        <g id="T.-6-Post-Narrow">
            <g id="Assembly-Top39">
                <g id="Rubber">
                    <path d="M337.401,2892.42C353.921,2892.42 367.316,2879.03 367.316,2862.51C367.316,2845.99 353.921,2832.6 337.401,2832.6C320.881,2832.6 307.487,2845.99 307.487,2862.51C307.487,2879.03 320.881,2892.42 337.401,2892.42ZM337.401,2880.13C347.135,2880.13 355.02,2872.24 355.02,2862.51C355.02,2852.78 347.135,2844.89 337.401,2844.89C327.667,2844.89 319.782,2852.78 319.782,2862.51C319.782,2872.24 327.667,2880.13 337.401,2880.13Z" style="fill:url(#_Linear16);"/>
                </g>
            </g>
        </g>
        <g id="T.-6-Post-Narrow1">
            <g id="Assembly-Top40">
                <g id="Rubber1">
                    <path d="M419.528,3044.03C436.048,3044.03 449.442,3030.63 449.442,3014.11C449.442,2997.59 436.048,2984.21 419.528,2984.21C403.008,2984.21 389.614,2997.59 389.614,3014.11C389.614,3030.63 403.008,3044.03 419.528,3044.03ZM419.528,3031.74C429.262,3031.74 437.147,3023.85 437.147,3014.12C437.147,3004.38 429.262,2996.5 419.528,2996.5C409.794,2996.5 401.909,3004.38 401.909,3014.12C401.909,3023.85 409.794,3031.74 419.528,3031.74Z" style="fill:url(#_Linear18);"/>
                </g>
            </g>
        </g>
        <g id="T.-6-Post-Narrow2">
            <g id="Assembly-Top41">
                <g id="Rubber2">
                    <path d="M379.256,3094.79C395.776,3094.79 409.17,3081.39 409.17,3064.87C409.17,3048.35 395.776,3034.97 379.256,3034.97C362.736,3034.97 349.341,3048.35 349.341,3064.87C349.341,3081.39 362.736,3094.79 379.256,3094.79ZM379.256,3082.49C388.989,3082.49 396.875,3074.61 396.875,3064.88C396.875,3055.14 388.989,3047.26 379.256,3047.26C369.522,3047.26 361.637,3055.14 361.637,3064.88C361.637,3074.61 369.522,3082.49 379.256,3082.49Z" style="fill:url(#_Linear20);"/>
                </g>
            </g>
        </g>
        <g id="T.-6-Post-Narrow3">
            <g id="Assembly-Top42">
                <g id="Rubber3">
                    <path d="M716.85,3323.47C733.37,3323.47 746.764,3310.08 746.764,3293.56C746.764,3277.04 733.37,3263.65 716.85,3263.65C700.33,3263.65 686.936,3277.04 686.936,3293.56C686.936,3310.08 700.33,3323.47 716.85,3323.47ZM716.85,3311.18C726.584,3311.18 734.469,3303.3 734.469,3293.56C734.469,3283.83 726.584,3275.94 716.85,3275.94C707.116,3275.94 699.231,3283.83 699.231,3293.56C699.231,3303.3 707.116,3311.18 716.85,3311.18Z" style="fill:url(#_Linear22);"/>
                </g>
            </g>
        </g>
        <g id="T.-6-Post-Narrow4">
            <g id="Assembly-Top43">
                <g id="Rubber4">
                    <path d="M716.874,3587.37C733.394,3587.37 746.789,3573.98 746.789,3557.46C746.789,3540.94 733.394,3527.55 716.874,3527.55C700.354,3527.55 686.96,3540.94 686.96,3557.46C686.96,3573.98 700.354,3587.37 716.874,3587.37ZM716.874,3575.08C726.608,3575.08 734.493,3567.2 734.493,3557.46C734.493,3547.73 726.608,3539.84 716.874,3539.84C707.141,3539.84 699.256,3547.73 699.256,3557.46C699.256,3567.2 707.141,3575.08 716.874,3575.08Z" style="fill:url(#_Linear24);"/>
                </g>
            </g>
        </g>
        <g id="T.-6-Post-Narrow5">
            <g id="Assembly-Top44">
                <g id="Rubber5">
                    <path d="M836.531,3670.97C853.051,3670.97 866.445,3657.57 866.445,3641.05C866.445,3624.53 853.051,3611.15 836.531,3611.15C820.011,3611.15 806.617,3624.53 806.617,3641.05C806.617,3657.57 820.011,3670.97 836.531,3670.97ZM836.531,3658.67C846.265,3658.67 854.15,3650.79 854.15,3641.06C854.15,3631.32 846.265,3623.44 836.531,3623.44C826.797,3623.44 818.912,3631.32 818.912,3641.06C818.912,3650.79 826.797,3658.67 836.531,3658.67Z" style="fill:url(#_Linear26);"/>
                </g>
            </g>
        </g>
        <g id="T.-6-Post-Narrow6">
            <g id="Assembly-Top45">
                <g id="Rubber6">
                    <path d="M1701.11,3323.48C1717.63,3323.48 1731.03,3310.09 1731.03,3293.57C1731.03,3277.05 1717.63,3263.66 1701.11,3263.66C1684.59,3263.66 1671.2,3277.05 1671.2,3293.57C1671.2,3310.09 1684.59,3323.48 1701.11,3323.48ZM1701.11,3311.19C1710.85,3311.19 1718.73,3303.3 1718.73,3293.57C1718.73,3283.84 1710.85,3275.95 1701.11,3275.95C1691.38,3275.95 1683.49,3283.84 1683.49,3293.57C1683.49,3303.3 1691.38,3311.19 1701.11,3311.19Z" style="fill:url(#_Linear28);"/>
                </g>
            </g>
        </g>
        <g id="T.-6-Post-Narrow7">
            <g id="Assembly-Top46">
                <g id="Rubber7">
                    <path d="M1700.62,3587.07C1717.14,3587.07 1730.54,3573.67 1730.54,3557.15C1730.54,3540.63 1717.14,3527.25 1700.62,3527.25C1684.1,3527.25 1670.71,3540.63 1670.71,3557.15C1670.71,3573.67 1684.1,3587.07 1700.62,3587.07ZM1700.62,3574.77C1710.36,3574.77 1718.24,3566.89 1718.24,3557.16C1718.24,3547.42 1710.36,3539.54 1700.62,3539.54C1690.89,3539.54 1683,3547.42 1683,3557.16C1683,3566.89 1690.89,3574.77 1700.62,3574.77Z" style="fill:url(#_Linear30);"/>
                </g>
            </g>
        </g>
        <g id="T.-6-Post-Narrow8">
            <g id="Assembly-Top47">
                <g id="Rubber8">
                    <path d="M1580.64,3670.99C1597.16,3670.99 1610.56,3657.59 1610.56,3641.07C1610.56,3624.55 1597.16,3611.16 1580.64,3611.16C1564.12,3611.16 1550.73,3624.55 1550.73,3641.07C1550.73,3657.59 1564.12,3670.99 1580.64,3670.99ZM1580.64,3658.69C1590.38,3658.69 1598.26,3650.81 1598.26,3641.07C1598.26,3631.34 1590.38,3623.45 1580.64,3623.45C1570.91,3623.45 1563.03,3631.34 1563.03,3641.07C1563.03,3650.81 1570.91,3658.69 1580.64,3658.69Z" style="fill:url(#_Linear32);"/>
                </g>
            </g>
        </g>
        <g id="T.-6-Post-Narrow9">
            <g id="Assembly-Top48">
                <g id="Rubber9">
                    <path d="M2059.16,2894.19C2075.68,2894.19 2089.07,2880.8 2089.07,2864.28C2089.07,2847.76 2075.68,2834.37 2059.16,2834.37C2042.64,2834.37 2029.24,2847.76 2029.24,2864.28C2029.24,2880.8 2042.64,2894.19 2059.16,2894.19ZM2059.16,2881.9C2068.89,2881.9 2076.78,2874.01 2076.78,2864.28C2076.78,2854.55 2068.89,2846.66 2059.16,2846.66C2049.42,2846.66 2041.54,2854.55 2041.54,2864.28C2041.54,2874.01 2049.42,2881.9 2059.16,2881.9Z" style="fill:url(#_Linear34);"/>
                </g>
            </g>
        </g>
        <g id="T.-6-Post-Narrow10">
            <g id="Assembly-Top49">
                <g id="Rubber10">
                    <path d="M2095.72,2947.64C2112.24,2947.64 2125.63,2934.25 2125.63,2917.73C2125.63,2901.21 2112.24,2887.82 2095.72,2887.82C2079.2,2887.82 2065.8,2901.21 2065.8,2917.73C2065.8,2934.25 2079.2,2947.64 2095.72,2947.64ZM2095.72,2935.35C2105.45,2935.35 2113.34,2927.46 2113.34,2917.73C2113.34,2907.99 2105.45,2900.11 2095.72,2900.11C2085.99,2900.11 2078.1,2907.99 2078.1,2917.73C2078.1,2927.46 2085.99,2935.35 2095.72,2935.35Z" style="fill:url(#_Linear36);"/>
                </g>
            </g>
        </g>
        <g id="T.-6-Post-Narrow11">
            <g id="Assembly-Top50">
                <g id="Rubber11">
                    <path d="M2002.9,3093.01C2019.42,3093.01 2032.81,3079.62 2032.81,3063.1C2032.81,3046.58 2019.42,3033.19 2002.9,3033.19C1986.38,3033.19 1972.98,3046.58 1972.98,3063.1C1972.98,3079.62 1986.38,3093.01 2002.9,3093.01ZM2002.9,3080.72C2012.63,3080.72 2020.52,3072.83 2020.52,3063.1C2020.52,3053.37 2012.63,3045.48 2002.9,3045.48C1993.16,3045.48 1985.28,3053.37 1985.28,3063.1C1985.28,3072.83 1993.16,3080.72 2002.9,3080.72Z" style="fill:url(#_Linear38);"/>
                </g>
            </g>
        </g>
        <g id="T.-6-Post-Narrow12">
            <g id="Assembly-Top51">
                <g id="Rubber12">
                    <path d="M1948.31,2435.04C1964.83,2435.04 1978.22,2421.64 1978.22,2405.12C1978.22,2388.6 1964.83,2375.22 1948.31,2375.22C1931.79,2375.22 1918.39,2388.6 1918.39,2405.12C1918.39,2421.64 1931.79,2435.04 1948.31,2435.04ZM1948.31,2422.74C1958.04,2422.74 1965.93,2414.86 1965.93,2405.12C1965.93,2395.39 1958.04,2387.51 1948.31,2387.51C1938.57,2387.51 1930.69,2395.39 1930.69,2405.12C1930.69,2414.86 1938.57,2422.74 1948.31,2422.74Z" style="fill:url(#_Linear40);"/>
                </g>
            </g>
        </g>
        <g id="T.-6-Post-Narrow13">
            <g id="Assembly-Top52">
                <g id="Rubber13">
                    <path d="M2013.68,2393.78C2030.2,2393.78 2043.6,2380.39 2043.6,2363.87C2043.6,2347.35 2030.2,2333.96 2013.68,2333.96C1997.16,2333.96 1983.77,2347.35 1983.77,2363.87C1983.77,2380.39 1997.16,2393.78 2013.68,2393.78ZM2013.68,2381.49C2023.42,2381.49 2031.3,2373.6 2031.3,2363.87C2031.3,2354.14 2023.42,2346.25 2013.68,2346.25C2003.95,2346.25 1996.06,2354.14 1996.06,2363.87C1996.06,2373.6 2003.95,2381.49 2013.68,2381.49Z" style="fill:url(#_Linear42);"/>
                </g>
            </g>
        </g>
        <g id="T.-6-Post-Narrow14">
            <g id="Assembly-Top53">
                <g id="Rubber14">
                    <path d="M2060.95,2076C2077.47,2076 2090.87,2062.61 2090.87,2046.09C2090.87,2029.57 2077.47,2016.18 2060.95,2016.18C2044.43,2016.18 2031.04,2029.57 2031.04,2046.09C2031.04,2062.61 2044.43,2076 2060.95,2076ZM2060.95,2063.71C2070.69,2063.71 2078.57,2055.82 2078.57,2046.09C2078.57,2036.36 2070.69,2028.47 2060.95,2028.47C2051.22,2028.47 2043.33,2036.36 2043.33,2046.09C2043.33,2055.82 2051.22,2063.71 2060.95,2063.71Z" style="fill:url(#_Linear44);"/>
                </g>
            </g>
        </g>
        <g id="T.-6-Post-Narrow15">
            <g id="Assembly-Top54">
                <g id="Rubber15">
                    <path d="M315.222,2299.42C331.742,2299.42 345.136,2286.03 345.136,2269.51C345.136,2252.99 331.742,2239.6 315.222,2239.6C298.702,2239.6 285.308,2252.99 285.308,2269.51C285.308,2286.03 298.702,2299.42 315.222,2299.42ZM315.222,2287.13C324.956,2287.13 332.841,2279.24 332.841,2269.51C332.841,2259.77 324.956,2251.89 315.222,2251.89C305.488,2251.89 297.603,2259.77 297.603,2269.51C297.603,2279.24 305.488,2287.13 315.222,2287.13Z" style="fill:url(#_Linear46);"/>
                </g>
            </g>
        </g>
        <g id="T.-6-Post-Narrow16">
            <g id="Assembly-Top55">
                <g id="Rubber16">
                    <path d="M343.823,2240.25C360.343,2240.25 373.737,2226.86 373.737,2210.34C373.737,2193.82 360.343,2180.43 343.823,2180.43C327.303,2180.43 313.908,2193.82 313.908,2210.34C313.908,2226.86 327.303,2240.25 343.823,2240.25ZM343.823,2227.96C353.556,2227.96 361.441,2220.07 361.441,2210.34C361.441,2200.61 353.556,2192.72 343.823,2192.72C334.089,2192.72 326.204,2200.61 326.204,2210.34C326.204,2220.07 334.089,2227.96 343.823,2227.96Z" style="fill:url(#_Linear48);"/>
                </g>
            </g>
        </g>
        <g id="T.-6-Post-Narrow17">
            <g id="Assembly-Top56">
                <g id="Rubber17">
                    <path d="M406.587,2223.61C423.107,2223.61 436.501,2210.22 436.501,2193.7C436.501,2177.18 423.107,2163.79 406.587,2163.79C390.067,2163.79 376.673,2177.18 376.673,2193.7C376.673,2210.22 390.067,2223.61 406.587,2223.61ZM406.587,2211.32C416.321,2211.32 424.206,2203.43 424.206,2193.7C424.206,2183.97 416.321,2176.08 406.587,2176.08C396.853,2176.08 388.968,2183.97 388.968,2193.7C388.968,2203.43 396.853,2211.32 406.587,2211.32Z" style="fill:url(#_Linear50);"/>
                </g>
            </g>
        </g>
        <g id="T.-6-Post-Narrow18">
            <g id="Assembly-Top57">
                <g id="Rubber18">
                    <path d="M1881.5,980.394C1898.02,980.394 1911.41,967 1911.41,950.48C1911.41,933.96 1898.02,920.573 1881.5,920.573C1864.98,920.573 1851.59,933.96 1851.59,950.48C1851.59,967 1864.98,980.394 1881.5,980.394ZM1881.5,968.101C1891.23,968.101 1899.12,960.216 1899.12,950.482C1899.12,940.748 1891.23,932.863 1881.5,932.863C1871.77,932.863 1863.88,940.748 1863.88,950.482C1863.88,960.216 1871.77,968.101 1881.5,968.101Z" style="fill:url(#_Linear52);"/>
                </g>
            </g>
        </g>
        <g id="T.-6-Post-Narrow19">
            <g id="Assembly-Top58">
                <g id="Rubber19">
                    <path d="M1839.76,1095.04C1856.28,1095.04 1869.67,1081.65 1869.67,1065.13C1869.67,1048.61 1856.28,1035.22 1839.76,1035.22C1823.24,1035.22 1809.84,1048.61 1809.84,1065.13C1809.84,1081.65 1823.24,1095.04 1839.76,1095.04ZM1839.76,1082.75C1849.49,1082.75 1857.38,1074.87 1857.38,1065.13C1857.38,1055.4 1849.49,1047.51 1839.76,1047.51C1830.02,1047.51 1822.14,1055.4 1822.14,1065.13C1822.14,1074.87 1830.02,1082.75 1839.76,1082.75Z" style="fill:url(#_Linear54);"/>
                </g>
            </g>
        </g>
    </g>
</svg>
