<?xml version="1.0" encoding="UTF-8" standalone="no"?>
<!DOCTYPE svg PUBLIC "-//W3C//DTD SVG 1.1//EN" "http://www.w3.org/Graphics/SVG/1.1/DTD/svg11.dtd">
<svg width="4544px" height="5760px" version="1.1" xmlns="http://www.w3.org/2000/svg" xmlns:xlink="http://www.w3.org/1999/xlink" xml:space="preserve" style="fill-rule:evenodd;clip-rule:evenodd;stroke-linejoin:round;stroke-miterlimit:1.41421;">
    <g clip-path="url(#_clip1)">
        <g id="Playfield-Outline-.--Top-Bottom-Sticker-Drill-Rout-Plastic-Bevel-Art-Assembly-Rubber-Todo">
            <path d="M250.028,382.57L2193.89,382.57L2193.89,4510.83L2133.9,4510.83L2133.9,4408.84L2133.89,4408.84C2133.89,4402.23 2128.51,4396.84 2121.89,4396.84L2091.95,4396.84L2092.01,4221.88L2092,4221.87C2092,4216.92 2087.96,4212.88 2083.01,4212.88C2078.05,4212.88 2074.01,4216.92 2074.01,4221.87L2074.01,4221.88L2074.06,4396.84L2013.9,4396.84C2007.29,4396.84 2001.91,4402.23 2001.91,4408.84L2001.91,4799.99L1329.95,4799.99L1105.57,4532.58L1105.56,4532.54C1101.06,4527.19 1094.21,4524.01 1087.18,4524.01L771.991,4524.01C758.778,4524.01 747.992,4534.79 747.992,4548L747.992,4799.99L551.237,4799.99L375.011,4647.61L375.011,4549.55C375.011,4536.34 364.232,4525.56 351.012,4525.56L250.028,4525.56L250.028,382.57Z" style="fill:none;stroke:rgb(35,31,32);stroke-width:1.11px;stroke-linecap:round;stroke-miterlimit:2.613;"/>
        </g>
        <g id="Playfield-Guides-.--Top-Bottom-Sticker-Drill-Rout-Plastic-Bevel-Art-Assembly-Rubber-Todo">
            <path d="M433.899,4799.99L225.12,4799.99" style="fill:none;stroke:rgb(35,31,32);stroke-width:1.11px;stroke-linecap:round;stroke-miterlimit:2.613;"/>
            <path d="M2210.9,4799.99L2099.49,4799.99" style="fill:none;stroke:rgb(35,31,32);stroke-width:1.11px;stroke-linecap:round;stroke-miterlimit:2.613;"/>
            <path d="M2194.03,4817.86L2194.03,4763.96" style="fill:none;stroke:black;stroke-width:0.74px;stroke-linecap:round;stroke-miterlimit:10;"/>
            <path d="M250.14,4823.45L250.14,4758.68" style="fill:none;stroke:black;stroke-width:0.74px;stroke-linecap:round;stroke-miterlimit:10;"/>
        </g>
        <g id="Rubber-Segment">
            <path id="Assembly-Top4" d="M2484.31,911.854L2442.38,1028.32L2453.98,1032.49L2495.91,916.028L2484.31,911.854Z" style="fill:rgb(200,200,200);"/>
        </g>
        <g id="Rubber-Segment1">
            <path id="Assembly-Top5" d="M2527.29,932.574L2485.36,1049.04L2496.95,1053.21L2538.88,936.749L2527.29,932.574Z" style="fill:rgb(200,200,200);"/>
        </g>
        <g id="Rubber-Segment2">
            <path id="Assembly-Top6" d="M2078.23,2179.07L2030.64,2501.32L2042.83,2503.12L2090.42,2180.87L2078.23,2179.07Z" style="fill:rgb(200,200,200);"/>
        </g>
        <g id="Rubber-Segment3">
            <path id="Assembly-Top7" d="M2027.22,2506.51L1954.44,2552.52L1961.02,2562.93L2033.8,2516.93L2027.22,2506.51Z" style="fill:rgb(200,200,200);"/>
        </g>
        <g id="Rubber-Segment4">
            <path id="Assembly-Top8" d="M2032.46,2167.7L1919.82,2527.12L1931.58,2530.8L2044.21,2171.38L2032.46,2167.7Z" style="fill:rgb(200,200,200);"/>
        </g>
        <g id="Rubber-Segment5">
            <path id="Assembly-Top9" d="M2087.64,2949.94L2125.97,3006.13L2136.15,2999.19L2097.82,2943L2087.64,2949.94Z" style="fill:rgb(200,200,200);"/>
        </g>
        <g id="Rubber-Segment6">
            <path id="Assembly-Top10" d="M2045.5,2951.01L1988.72,3151.69L2000.57,3155.04L2057.36,2954.36L2045.5,2951.01Z" style="fill:rgb(200,200,200);"/>
        </g>
        <g id="Rubber-Segment7">
            <path id="Assembly-Top11" d="M2125.43,3022.87L2032.83,3167.45L2043.21,3174.1L2135.81,3029.52L2125.43,3022.87Z" style="fill:rgb(200,200,200);"/>
        </g>
        <g id="Rubber-Segment8">
            <path id="Assembly-Top12" d="M1730.56,3687.51L1730.56,3423.88L1718.24,3423.88L1718.24,3687.51L1730.56,3687.51Z" style="fill:rgb(200,200,200);"/>
        </g>
        <g id="Rubber-Segment9">
            <path id="Assembly-Top13" d="M1710.1,3702.61L1589.88,3786.78L1596.95,3796.88L1717.17,3712.7L1710.1,3702.61Z" style="fill:rgb(200,200,200);"/>
        </g>
        <g id="Rubber-Segment10">
            <path id="Assembly-Top14" d="M1671.83,3415.98L1554.53,3758.58L1566.19,3762.57L1683.48,3419.97L1671.83,3415.98Z" style="fill:rgb(200,200,200);"/>
        </g>
        <g id="Rubber-Segment11">
            <path id="Assembly-Top15" d="M827.159,3786.8L708.643,3703.82L701.575,3713.91L820.092,3796.9L827.159,3786.8Z" style="fill:rgb(200,200,200);"/>
        </g>
        <g id="Rubber-Segment12">
            <path id="Assembly-Top16" d="M687.082,3424.58L687.082,3688.59L699.404,3688.59L699.404,3424.58L687.082,3424.58Z" style="fill:rgb(200,200,200);"/>
        </g>
        <g id="Rubber-Segment13">
            <path id="Assembly-Top17" d="M733.407,3419.06L852.24,3764.17L863.891,3760.16L745.058,3415.05L733.407,3419.06Z" style="fill:rgb(200,200,200);"/>
        </g>
        <g id="Rubber-Segment14">
            <path id="Assembly-Top18" d="M308.001,2999.16L350.294,3203.39L362.361,3200.89L320.067,2996.66L308.001,2999.16Z" style="fill:rgb(200,200,200);"/>
        </g>
        <g id="Rubber-Segment15">
            <path id="Assembly-Top19" d="M434.677,3154.05L392.429,3207.35L402.086,3215.01L444.334,3161.7L434.677,3154.05Z" style="fill:rgb(200,200,200);"/>
        </g>
        <g id="Rubber-Segment16">
            <path id="Assembly-Top20" d="M446.305,3131.33L364.31,2980.31L353.481,2986.19L435.476,3137.21L446.305,3131.33Z" style="fill:rgb(200,200,200);"/>
        </g>
        <g id="T.-6-Post-Narrow">
            <g id="Assembly-Top32">
                <g id="Rubber">
                    <path d="M337.401,3023.16C353.921,3023.16 367.316,3009.76 367.316,2993.24C367.316,2976.72 353.921,2963.34 337.401,2963.34C320.881,2963.34 307.487,2976.72 307.487,2993.24C307.487,3009.76 320.881,3023.16 337.401,3023.16ZM337.401,3010.87C347.135,3010.87 355.02,3002.98 355.02,2993.25C355.02,2983.51 347.135,2975.63 337.401,2975.63C327.667,2975.63 319.782,2983.51 319.782,2993.25C319.782,3002.98 327.667,3010.87 337.401,3010.87Z" style="fill:url(#_Linear8);"/>
                </g>
            </g>
        </g>
        <g id="T.-6-Post-Narrow1">
            <g id="Assembly-Top33">
                <g id="Rubber1">
                    <path d="M419.528,3174.76C436.048,3174.76 449.442,3161.37 449.442,3144.85C449.442,3128.33 436.048,3114.94 419.528,3114.94C403.008,3114.94 389.614,3128.33 389.614,3144.85C389.614,3161.37 403.008,3174.76 419.528,3174.76ZM419.528,3162.47C429.262,3162.47 437.147,3154.59 437.147,3144.85C437.147,3135.12 429.262,3127.23 419.528,3127.23C409.794,3127.23 401.909,3135.12 401.909,3144.85C401.909,3154.59 409.794,3162.47 419.528,3162.47Z" style="fill:url(#_Linear10);"/>
                </g>
            </g>
        </g>
        <g id="T.-6-Post-Narrow2">
            <g id="Assembly-Top34">
                <g id="Rubber2">
                    <path d="M379.256,3225.53C395.776,3225.53 409.17,3212.13 409.17,3195.61C409.17,3179.09 395.776,3165.7 379.256,3165.7C362.736,3165.7 349.341,3179.09 349.341,3195.61C349.341,3212.13 362.736,3225.53 379.256,3225.53ZM379.256,3213.23C388.989,3213.23 396.875,3205.35 396.875,3195.61C396.875,3185.88 388.989,3177.99 379.256,3177.99C369.522,3177.99 361.637,3185.88 361.637,3195.61C361.637,3205.35 369.522,3213.23 379.256,3213.23Z" style="fill:url(#_Linear12);"/>
                </g>
            </g>
        </g>
        <g id="T.-6-Post-Narrow3">
            <g id="Assembly-Top35">
                <g id="Rubber3">
                    <path d="M716.85,3454.21C733.37,3454.21 746.764,3440.82 746.764,3424.3C746.764,3407.78 733.37,3394.39 716.85,3394.39C700.33,3394.39 686.936,3407.78 686.936,3424.3C686.936,3440.82 700.33,3454.21 716.85,3454.21ZM716.85,3441.92C726.584,3441.92 734.469,3434.03 734.469,3424.3C734.469,3414.57 726.584,3406.68 716.85,3406.68C707.116,3406.68 699.231,3414.57 699.231,3424.3C699.231,3434.03 707.116,3441.92 716.85,3441.92Z" style="fill:url(#_Linear14);"/>
                </g>
            </g>
        </g>
        <g id="T.-6-Post-Narrow4">
            <g id="Assembly-Top36">
                <g id="Rubber4">
                    <path d="M716.874,3718.11C733.394,3718.11 746.789,3704.72 746.789,3688.2C746.789,3671.68 733.394,3658.29 716.874,3658.29C700.354,3658.29 686.96,3671.68 686.96,3688.2C686.96,3704.72 700.354,3718.11 716.874,3718.11ZM716.874,3705.82C726.608,3705.82 734.493,3697.93 734.493,3688.2C734.493,3678.47 726.608,3670.58 716.874,3670.58C707.141,3670.58 699.256,3678.47 699.256,3688.2C699.256,3697.93 707.141,3705.82 716.874,3705.82Z" style="fill:url(#_Linear16);"/>
                </g>
            </g>
        </g>
        <g id="T.-6-Post-Narrow5">
            <g id="Assembly-Top37">
                <g id="Rubber5">
                    <path d="M836.531,3801.7C853.051,3801.7 866.445,3788.31 866.445,3771.79C866.445,3755.27 853.051,3741.88 836.531,3741.88C820.011,3741.88 806.617,3755.27 806.617,3771.79C806.617,3788.31 820.011,3801.7 836.531,3801.7ZM836.531,3789.41C846.265,3789.41 854.15,3781.53 854.15,3771.79C854.15,3762.06 846.265,3754.17 836.531,3754.17C826.797,3754.17 818.912,3762.06 818.912,3771.79C818.912,3781.53 826.797,3789.41 836.531,3789.41Z" style="fill:url(#_Linear18);"/>
                </g>
            </g>
        </g>
        <g id="T.-6-Post-Narrow6">
            <g id="Assembly-Top38">
                <g id="Rubber6">
                    <path d="M1701.11,3454.22C1717.63,3454.22 1731.03,3440.83 1731.03,3424.31C1731.03,3407.78 1717.63,3394.4 1701.11,3394.4C1684.59,3394.4 1671.2,3407.78 1671.2,3424.31C1671.2,3440.83 1684.59,3454.22 1701.11,3454.22ZM1701.11,3441.93C1710.85,3441.93 1718.73,3434.04 1718.73,3424.31C1718.73,3414.57 1710.85,3406.69 1701.11,3406.69C1691.38,3406.69 1683.49,3414.57 1683.49,3424.31C1683.49,3434.04 1691.38,3441.93 1701.11,3441.93Z" style="fill:url(#_Linear20);"/>
                </g>
            </g>
        </g>
        <g id="T.-6-Post-Narrow7">
            <g id="Assembly-Top39">
                <g id="Rubber7">
                    <path d="M1700.62,3717.8C1717.14,3717.8 1730.54,3704.41 1730.54,3687.89C1730.54,3671.37 1717.14,3657.98 1700.62,3657.98C1684.1,3657.98 1670.71,3671.37 1670.71,3687.89C1670.71,3704.41 1684.1,3717.8 1700.62,3717.8ZM1700.62,3705.51C1710.36,3705.51 1718.24,3697.62 1718.24,3687.89C1718.24,3678.16 1710.36,3670.27 1700.62,3670.27C1690.89,3670.27 1683,3678.16 1683,3687.89C1683,3697.62 1690.89,3705.51 1700.62,3705.51Z" style="fill:url(#_Linear22);"/>
                </g>
            </g>
        </g>
        <g id="T.-6-Post-Narrow8">
            <g id="Assembly-Top40">
                <g id="Rubber8">
                    <path d="M1580.64,3801.72C1597.16,3801.72 1610.56,3788.33 1610.56,3771.81C1610.56,3755.29 1597.16,3741.9 1580.64,3741.9C1564.12,3741.9 1550.73,3755.29 1550.73,3771.81C1550.73,3788.33 1564.12,3801.72 1580.64,3801.72ZM1580.64,3789.43C1590.38,3789.43 1598.26,3781.54 1598.26,3771.81C1598.26,3762.08 1590.38,3754.19 1580.64,3754.19C1570.91,3754.19 1563.03,3762.08 1563.03,3771.81C1563.03,3781.54 1570.91,3789.43 1580.64,3789.43Z" style="fill:url(#_Linear24);"/>
                </g>
            </g>
        </g>
        <g id="T.-6-Post-Narrow9">
            <g id="Assembly-Top41">
                <g id="Rubber9">
                    <path d="M2073.58,2990.71C2090.1,2990.71 2103.49,2977.31 2103.49,2960.79C2103.49,2944.27 2090.1,2930.89 2073.58,2930.89C2057.06,2930.89 2043.66,2944.27 2043.66,2960.79C2043.66,2977.31 2057.06,2990.71 2073.58,2990.71ZM2073.58,2978.41C2083.31,2978.41 2091.2,2970.53 2091.2,2960.8C2091.2,2951.06 2083.31,2943.18 2073.58,2943.18C2063.84,2943.18 2055.96,2951.06 2055.96,2960.8C2055.96,2970.53 2063.84,2978.41 2073.58,2978.41Z" style="fill:url(#_Linear26);"/>
                </g>
            </g>
        </g>
        <g id="T.-6-Post-Narrow10">
            <g id="Assembly-Top42">
                <g id="Rubber10">
                    <path d="M2110.14,3044.16C2126.66,3044.16 2140.05,3030.76 2140.05,3014.24C2140.05,2997.72 2126.66,2984.34 2110.14,2984.34C2093.62,2984.34 2080.22,2997.72 2080.22,3014.24C2080.22,3030.76 2093.62,3044.16 2110.14,3044.16ZM2110.14,3031.86C2119.87,3031.86 2127.76,3023.98 2127.76,3014.24C2127.76,3004.51 2119.87,2996.62 2110.14,2996.62C2100.4,2996.62 2092.52,3004.51 2092.52,3014.24C2092.52,3023.98 2100.4,3031.86 2110.14,3031.86Z" style="fill:url(#_Linear28);"/>
                </g>
            </g>
        </g>
        <g id="T.-6-Post-Narrow11">
            <g id="Assembly-Top43">
                <g id="Rubber11">
                    <path d="M2017.32,3189.53C2033.84,3189.53 2047.23,3176.13 2047.23,3159.61C2047.23,3143.09 2033.84,3129.71 2017.32,3129.71C2000.8,3129.71 1987.4,3143.09 1987.4,3159.61C1987.4,3176.13 2000.8,3189.53 2017.32,3189.53ZM2017.32,3177.23C2027.05,3177.23 2034.94,3169.35 2034.94,3159.62C2034.94,3149.88 2027.05,3142 2017.32,3142C2007.58,3142 1999.7,3149.88 1999.7,3159.62C1999.7,3169.35 2007.58,3177.23 2017.32,3177.23Z" style="fill:url(#_Linear30);"/>
                </g>
            </g>
        </g>
        <g id="T.-6-Post-Narrow12">
            <g id="Assembly-Top44">
                <g id="Rubber12">
                    <path d="M1948.31,2565.77C1964.83,2565.77 1978.22,2552.38 1978.22,2535.86C1978.22,2519.34 1964.83,2505.95 1948.31,2505.95C1931.79,2505.95 1918.39,2519.34 1918.39,2535.86C1918.39,2552.38 1931.79,2565.77 1948.31,2565.77ZM1948.31,2553.48C1958.04,2553.48 1965.93,2545.6 1965.93,2535.86C1965.93,2526.13 1958.04,2518.24 1948.31,2518.24C1938.57,2518.24 1930.69,2526.13 1930.69,2535.86C1930.69,2545.6 1938.57,2553.48 1948.31,2553.48Z" style="fill:url(#_Linear32);"/>
                </g>
            </g>
        </g>
        <g id="T.-6-Post-Narrow13">
            <g id="Assembly-Top45">
                <g id="Rubber13">
                    <path d="M2013.68,2524.52C2030.2,2524.52 2043.6,2511.12 2043.6,2494.61C2043.6,2478.09 2030.2,2464.7 2013.68,2464.7C1997.16,2464.7 1983.77,2478.09 1983.77,2494.61C1983.77,2511.12 1997.16,2524.52 2013.68,2524.52ZM2013.68,2512.23C2023.42,2512.23 2031.3,2504.34 2031.3,2494.61C2031.3,2484.87 2023.42,2476.99 2013.68,2476.99C2003.95,2476.99 1996.06,2484.87 1996.06,2494.61C1996.06,2504.34 2003.95,2512.23 2013.68,2512.23Z" style="fill:url(#_Linear34);"/>
                </g>
            </g>
        </g>
        <g id="T.-6-Post-Narrow14">
            <g id="Assembly-Top46">
                <g id="Rubber14">
                    <path d="M2060.95,2206.74C2077.47,2206.74 2090.87,2193.34 2090.87,2176.82C2090.87,2160.3 2077.47,2146.92 2060.95,2146.92C2044.43,2146.92 2031.04,2160.3 2031.04,2176.82C2031.04,2193.34 2044.43,2206.74 2060.95,2206.74ZM2060.95,2194.45C2070.69,2194.45 2078.57,2186.56 2078.57,2176.83C2078.57,2167.09 2070.69,2159.21 2060.95,2159.21C2051.22,2159.21 2043.33,2167.09 2043.33,2176.83C2043.33,2186.56 2051.22,2194.45 2060.95,2194.45Z" style="fill:url(#_Linear36);"/>
                </g>
            </g>
        </g>
        <g id="T.-6-Post-Narrow15">
            <g id="Assembly-Top47">
                <g id="Rubber15">
                    <path d="M315.222,2430.16C331.742,2430.16 345.136,2416.76 345.136,2400.24C345.136,2383.72 331.742,2370.34 315.222,2370.34C298.702,2370.34 285.308,2383.72 285.308,2400.24C285.308,2416.76 298.702,2430.16 315.222,2430.16ZM315.222,2417.86C324.956,2417.86 332.841,2409.98 332.841,2400.24C332.841,2390.51 324.956,2382.63 315.222,2382.63C305.488,2382.63 297.603,2390.51 297.603,2400.24C297.603,2409.98 305.488,2417.86 315.222,2417.86Z" style="fill:url(#_Linear38);"/>
                </g>
            </g>
        </g>
        <g id="T.-6-Post-Narrow16">
            <g id="Assembly-Top48">
                <g id="Rubber16">
                    <path d="M343.823,2370.99C360.343,2370.99 373.737,2357.59 373.737,2341.07C373.737,2324.55 360.343,2311.17 343.823,2311.17C327.303,2311.17 313.908,2324.55 313.908,2341.07C313.908,2357.59 327.303,2370.99 343.823,2370.99ZM343.823,2358.7C353.556,2358.7 361.441,2350.81 361.441,2341.08C361.441,2331.34 353.556,2323.46 343.823,2323.46C334.089,2323.46 326.204,2331.34 326.204,2341.08C326.204,2350.81 334.089,2358.7 343.823,2358.7Z" style="fill:url(#_Linear40);"/>
                </g>
            </g>
        </g>
        <g id="T.-6-Post-Narrow17">
            <g id="Assembly-Top49">
                <g id="Rubber17">
                    <path d="M406.587,2354.35C423.107,2354.35 436.501,2340.96 436.501,2324.44C436.501,2307.92 423.107,2294.53 406.587,2294.53C390.067,2294.53 376.673,2307.92 376.673,2324.44C376.673,2340.96 390.067,2354.35 406.587,2354.35ZM406.587,2342.06C416.321,2342.06 424.206,2334.17 424.206,2324.44C424.206,2314.7 416.321,2306.82 406.587,2306.82C396.853,2306.82 388.968,2314.7 388.968,2324.44C388.968,2334.17 396.853,2342.06 406.587,2342.06Z" style="fill:url(#_Linear42);"/>
                </g>
            </g>
        </g>
        <g id="T.-6-Post-Narrow18">
            <g id="Assembly-Top50">
                <g id="Rubber18">
                    <path d="M2511.29,955.59C2527.81,955.59 2541.21,942.196 2541.21,925.676C2541.21,909.156 2527.81,895.769 2511.29,895.769C2494.77,895.769 2481.38,909.156 2481.38,925.676C2481.38,942.196 2494.77,955.59 2511.29,955.59ZM2511.29,943.297C2521.03,943.297 2528.91,935.412 2528.91,925.678C2528.91,915.944 2521.03,908.059 2511.29,908.059C2501.56,908.059 2493.67,915.944 2493.67,925.678C2493.67,935.412 2501.56,943.297 2511.29,943.297Z" style="fill:url(#_Linear44);"/>
                </g>
            </g>
        </g>
        <g id="T.-6-Post-Narrow19">
            <g id="Assembly-Top51">
                <g id="Rubber19">
                    <path d="M2469.55,1070.24C2486.07,1070.24 2499.46,1056.85 2499.46,1040.33C2499.46,1023.81 2486.07,1010.42 2469.55,1010.42C2453.03,1010.42 2439.64,1023.81 2439.64,1040.33C2439.64,1056.85 2453.03,1070.24 2469.55,1070.24ZM2469.55,1057.95C2479.28,1057.95 2487.17,1050.06 2487.17,1040.33C2487.17,1030.59 2479.28,1022.71 2469.55,1022.71C2459.82,1022.71 2451.93,1030.59 2451.93,1040.33C2451.93,1050.06 2459.82,1057.95 2469.55,1057.95Z" style="fill:url(#_Linear46);"/>
                </g>
            </g>
        </g>
        <g id="T.-6-Post-Narrow20">
            <g id="Assembly-Top53">
                <g id="Rubber20">
                    <path d="M526.507,2534.25C543.027,2534.25 556.421,2520.86 556.421,2504.34C556.421,2487.82 543.027,2474.43 526.507,2474.43C509.987,2474.43 496.593,2487.82 496.593,2504.34C496.593,2520.86 509.987,2534.25 526.507,2534.25ZM526.507,2521.96C536.241,2521.96 544.126,2514.07 544.126,2504.34C544.126,2494.6 536.241,2486.72 526.507,2486.72C516.773,2486.72 508.888,2494.6 508.888,2504.34C508.888,2514.07 516.773,2521.96 526.507,2521.96Z" style="fill:url(#_Linear48);"/>
                </g>
            </g>
        </g>
        <g id="Adj-Post">
            <g id="Rubber-Loose">
                <path d="M339.84,3213.35C362.358,3213.35 380.64,3231.63 380.64,3254.15C380.64,3276.67 362.358,3294.95 339.84,3294.95C317.322,3294.95 299.04,3276.67 299.04,3254.15C299.04,3231.63 317.322,3213.35 339.84,3213.35ZM339.84,3233.75C351.099,3233.75 360.24,3242.89 360.24,3254.15C360.24,3265.41 351.099,3274.55 339.84,3274.55C328.581,3274.55 319.44,3265.41 319.44,3254.15C319.44,3242.89 328.581,3233.75 339.84,3233.75Z" style="fill:rgb(156,156,156);fill-opacity:0.717647;"/>
            </g>
            <g id="Rubber-Tight">
                <path d="M339.84,3218.39C359.576,3218.39 375.6,3234.41 375.6,3254.15C375.6,3273.89 359.576,3289.91 339.84,3289.91C320.104,3289.91 304.08,3273.89 304.08,3254.15C304.08,3234.41 320.104,3218.39 339.84,3218.39ZM339.84,3233.75C351.099,3233.75 360.24,3242.89 360.24,3254.15C360.24,3265.41 351.099,3274.55 339.84,3274.55C328.581,3274.55 319.44,3265.41 319.44,3254.15C319.44,3242.89 328.581,3233.75 339.84,3233.75Z" style="fill:rgb(156,156,156);fill-opacity:0.717647;"/>
            </g>
        </g>
        <g id="Adj-Post1">
            <g id="Rubber-Loose1">
                <path d="M339.84,3280.76C362.358,3280.76 380.64,3299.04 380.64,3321.56C380.64,3344.08 362.358,3362.36 339.84,3362.36C317.322,3362.36 299.04,3344.08 299.04,3321.56C299.04,3299.04 317.322,3280.76 339.84,3280.76ZM339.84,3301.16C351.099,3301.16 360.24,3310.3 360.24,3321.56C360.24,3332.82 351.099,3341.96 339.84,3341.96C328.581,3341.96 319.44,3332.82 319.44,3321.56C319.44,3310.3 328.581,3301.16 339.84,3301.16Z" style="fill:rgb(156,156,156);fill-opacity:0.717647;"/>
            </g>
            <g id="Rubber-Tight1">
                <path d="M339.84,3285.8C359.576,3285.8 375.6,3301.82 375.6,3321.56C375.6,3341.3 359.576,3357.32 339.84,3357.32C320.104,3357.32 304.08,3341.3 304.08,3321.56C304.08,3301.82 320.104,3285.8 339.84,3285.8ZM339.84,3301.16C351.099,3301.16 360.24,3310.3 360.24,3321.56C360.24,3332.82 351.099,3341.96 339.84,3341.96C328.581,3341.96 319.44,3332.82 319.44,3321.56C319.44,3310.3 328.581,3301.16 339.84,3301.16Z" style="fill:rgb(156,156,156);fill-opacity:0.717647;"/>
            </g>
        </g>
        <g id="T.-6-Post-Narrow21">
            <g id="Assembly-Top71">
                <g id="Rubber21">
                    <path d="M1308.61,1091.42C1324.64,1087.43 1334.4,1071.19 1330.41,1055.16C1326.42,1039.13 1310.18,1029.38 1294.15,1033.37C1278.12,1037.36 1268.36,1053.59 1272.36,1069.62C1276.35,1085.65 1292.58,1095.41 1308.61,1091.42ZM1305.64,1079.49C1315.09,1077.14 1320.83,1067.58 1318.48,1058.13C1316.13,1048.69 1306.57,1042.94 1297.12,1045.3C1287.68,1047.65 1281.93,1057.2 1284.29,1066.65C1286.64,1076.1 1296.19,1081.84 1305.64,1079.49Z" style="fill:url(#_Linear58);"/>
                </g>
            </g>
        </g>
        <g id="T.-6-Post-Narrow22">
            <g id="Assembly-Top72">
                <g id="Rubber22">
                    <path d="M1368.07,1170.6C1384.1,1166.61 1393.86,1150.37 1389.87,1134.34C1385.88,1118.31 1369.64,1108.56 1353.62,1112.55C1337.58,1116.54 1327.82,1132.77 1331.81,1148.8C1335.81,1164.83 1352.04,1174.59 1368.07,1170.6ZM1365.1,1158.67C1374.55,1156.32 1380.29,1146.76 1377.94,1137.32C1375.59,1127.87 1366.03,1122.12 1356.59,1124.48C1347.14,1126.83 1341.39,1136.39 1343.75,1145.83C1346.1,1155.28 1355.65,1161.02 1365.1,1158.67Z" style="fill:url(#_Linear60);"/>
                </g>
            </g>
        </g>
        <g id="Rubber-Segment17">
            <path id="Assembly-Top73" d="M1384.92,1124.37L1325.69,1045.49L1315.83,1052.89L1375.06,1131.77L1384.92,1124.37Z" style="fill:rgb(200,200,200);"/>
        </g>
        <g id="Rubber-Segment18">
            <path id="Assembly-Top74" d="M1275.37,1078.07L1338.72,1162.16L1348.56,1154.75L1285.22,1070.65L1275.37,1078.07Z" style="fill:rgb(200,200,200);"/>
        </g>
        <g id="Rubber-Segment19">
            <path id="Assembly-Top78" d="M1680.7,817.042L1600.57,721.6L1591.13,729.523L1671.26,824.965L1680.7,817.042Z" style="fill:rgb(200,200,200);"/>
        </g>
        <g id="Rubber-Segment20">
            <path id="Assembly-Top79" d="M1717.78,789.858L1637.65,694.416L1628.21,702.339L1708.34,797.781L1717.78,789.858Z" style="fill:rgb(200,200,200);"/>
        </g>
        <g id="T.-6-Post-Narrow23">
            <g id="Assembly-Top81">
                <g id="Rubber23">
                    <path d="M1692.84,835.852C1709.36,835.852 1722.75,822.458 1722.75,805.938C1722.75,789.418 1709.36,776.031 1692.84,776.031C1676.32,776.031 1662.92,789.418 1662.92,805.938C1662.92,822.458 1676.32,835.852 1692.84,835.852ZM1692.84,823.559C1702.57,823.559 1710.46,815.674 1710.46,805.94C1710.46,796.206 1702.57,788.321 1692.84,788.321C1683.11,788.321 1675.22,796.206 1675.22,805.94C1675.22,815.674 1683.11,823.559 1692.84,823.559Z" style="fill:url(#_Linear66);"/>
                </g>
            </g>
        </g>
        <g id="T.-6-Post-Narrow24">
            <g id="Assembly-Top83">
                <g id="Rubber24">
                    <path d="M1614.72,741.528C1631.24,741.528 1644.63,728.133 1644.63,711.613C1644.63,695.093 1631.24,681.707 1614.72,681.707C1598.19,681.707 1584.8,695.093 1584.8,711.613C1584.8,728.133 1598.19,741.528 1614.72,741.528ZM1614.72,729.234C1624.45,729.234 1632.33,721.349 1632.33,711.616C1632.33,701.882 1624.45,693.997 1614.72,693.997C1604.98,693.997 1597.1,701.882 1597.1,711.616C1597.1,721.349 1604.98,729.234 1614.72,729.234Z" style="fill:url(#_Linear68);"/>
                </g>
            </g>
        </g>
    </g>
</svg>
