<?xml version="1.0" encoding="UTF-8" standalone="no"?>
<!DOCTYPE svg PUBLIC "-//W3C//DTD SVG 1.1//EN" "http://www.w3.org/Graphics/SVG/1.1/DTD/svg11.dtd">
<svg width="4544px" height="5760px" version="1.1" xmlns="http://www.w3.org/2000/svg" xmlns:xlink="http://www.w3.org/1999/xlink" xml:space="preserve" xmlns:serif="http://www.serif.com/" style="fill-rule:evenodd;clip-rule:evenodd;stroke-linecap:round;stroke-linejoin:round;stroke-miterlimit:2.613;">
    <g id="Playfield-Outline---Top-Bottom-WoodWalls-Habitrails-Sticker-Drill-Rout-Plastic-Bevel-Art-Assembly-Rubber-Todo" serif:id="Playfield Outline - Top Bottom WoodWalls Habitrails Sticker Drill Rout Plastic Bevel Art Assembly Rubber Todo">
        <path id="PF-Outline" serif:id="PF Outline" d="M250.028,480L2193.89,480L2193.89,4510.83L2133.9,4510.83L2133.9,4408.84L2133.89,4408.84C2133.89,4402.23 2128.51,4396.84 2121.89,4396.84L2091.95,4396.84L2092.01,4221.88L2092,4221.87C2092,4216.92 2087.96,4212.88 2083.01,4212.88C2078.05,4212.88 2074.01,4216.92 2074.01,4221.87L2074.01,4221.88L2074.06,4396.84L2013.9,4396.84C2007.29,4396.84 2001.91,4402.23 2001.91,4408.84L2001.91,4799.99L1123.93,4799.99L899.543,4532.58L899.536,4532.54C895.034,4527.19 888.192,4524.01 881.163,4524.01L771.991,4524.01C758.778,4524.01 747.992,4534.79 747.992,4548L747.992,4799.99L551.237,4799.99L375.011,4647.61L375.011,4549.55C375.011,4536.34 364.232,4525.56 351.012,4525.56L250.028,4525.56L250.028,480Z" style="fill:none;stroke:rgb(35,31,32);stroke-width:1.11px;"/>
        <g id="Guidemarks">
            <path d="M433.899,4799.99L225.12,4799.99" style="fill:none;stroke:rgb(35,31,32);stroke-width:1.11px;"/>
            <path d="M2210.9,4799.99L2099.49,4799.99" style="fill:none;stroke:rgb(35,31,32);stroke-width:1.11px;"/>
            <path d="M2194.03,5165.14L2194.03,4763.96" style="fill:none;stroke:black;stroke-width:0.74px;stroke-miterlimit:10;"/>
            <path d="M250.14,5165.14L250.14,4758.68" style="fill:none;stroke:black;stroke-width:0.74px;stroke-miterlimit:10;"/>
            <path d="M1064.77,5199.99L1099.31,5199.99L1099.31,5213.15L1037.02,5213.15L1069.21,5174.16C1072.38,5170.28 1075.03,5166.91 1077.17,5164.07C1079.32,5161.23 1080.95,5158.85 1082.07,5156.92C1084.35,5153.16 1085.49,5149.78 1085.49,5146.77C1085.49,5142.45 1083.97,5138.82 1080.93,5135.9C1077.88,5132.98 1074.12,5131.51 1069.63,5131.51C1060.26,5131.51 1054.9,5137.06 1053.54,5148.15L1039.6,5148.15C1041.84,5128.61 1051.71,5118.84 1069.21,5118.84C1077.66,5118.84 1084.75,5121.52 1090.48,5126.89C1096.25,5132.25 1099.13,5138.9 1099.13,5146.83C1099.13,5151.88 1097.79,5156.82 1095.1,5161.67C1093.74,5164.19 1091.75,5167.19 1089.13,5170.65C1086.5,5174.11 1083.19,5178.21 1079.18,5182.93L1064.77,5199.99Z" style="fill-rule:nonzero;"/>
            <path d="M1115.11,5166.17C1115.11,5151.4 1118.55,5139.6 1125.44,5130.79C1131.61,5122.82 1139.08,5118.84 1147.85,5118.84C1156.62,5118.84 1164.09,5122.82 1170.25,5130.79C1177.14,5139.6 1180.59,5151.6 1180.59,5166.78C1180.59,5181.91 1177.14,5193.89 1170.25,5202.7C1164.09,5210.67 1156.64,5214.65 1147.91,5214.65C1139.18,5214.65 1131.69,5210.67 1125.44,5202.7C1118.55,5193.89 1115.11,5181.71 1115.11,5166.17ZM1128.86,5166.23C1128.86,5176.53 1130.65,5185.08 1134.21,5191.89C1137.77,5198.57 1142.32,5201.92 1147.85,5201.92C1153.33,5201.92 1157.88,5198.57 1161.48,5191.89C1165.09,5185.24 1166.89,5176.85 1166.89,5166.72C1166.89,5156.58 1165.09,5148.17 1161.48,5141.48C1157.88,5134.84 1153.33,5131.51 1147.85,5131.51C1142.4,5131.51 1137.88,5134.84 1134.27,5141.48C1130.67,5148.09 1128.86,5156.34 1128.86,5166.23Z" style="fill-rule:nonzero;"/>
            <path d="M1196.44,5206.42C1196.44,5204.18 1197.27,5202.24 1198.91,5200.6C1200.55,5198.95 1202.51,5198.13 1204.79,5198.13C1207.08,5198.13 1209.04,5198.95 1210.68,5200.6C1212.32,5202.24 1213.14,5204.2 1213.14,5206.48C1213.14,5208.81 1212.32,5210.79 1210.68,5212.43C1209.08,5214.03 1207.12,5214.83 1204.79,5214.83C1202.43,5214.83 1200.45,5214.03 1198.85,5212.43C1197.25,5210.83 1196.44,5208.82 1196.44,5206.42Z" style="fill-rule:nonzero;"/>
            <path d="M1254.59,5199.99L1289.13,5199.99L1289.13,5213.15L1226.84,5213.15L1259.04,5174.16C1262.2,5170.28 1264.86,5166.91 1267,5164.07C1269.14,5161.23 1270.77,5158.85 1271.89,5156.92C1274.18,5153.16 1275.32,5149.78 1275.32,5146.77C1275.32,5142.45 1273.8,5138.82 1270.75,5135.9C1267.71,5132.98 1263.94,5131.51 1259.46,5131.51C1250.09,5131.51 1244.72,5137.06 1243.36,5148.15L1229.42,5148.15C1231.66,5128.61 1241.54,5118.84 1259.04,5118.84C1267.49,5118.84 1274.58,5121.52 1280.3,5126.89C1286.07,5132.25 1288.95,5138.9 1288.95,5146.83C1288.95,5151.88 1287.61,5156.82 1284.93,5161.67C1283.57,5164.19 1281.58,5167.19 1278.95,5170.65C1276.33,5174.11 1273.01,5178.21 1269.01,5182.93L1254.59,5199.99Z" style="fill-rule:nonzero;"/>
            <path d="M1364.4,5133.5L1335.81,5133.5L1331.24,5148.87C1331.92,5148.79 1332.58,5148.73 1333.2,5148.69C1333.82,5148.65 1334.39,5148.63 1334.91,5148.63C1343.92,5148.63 1351.31,5151.68 1357.07,5157.77C1362.88,5163.81 1365.78,5171.56 1365.78,5181.01C1365.78,5190.78 1362.5,5198.83 1355.93,5205.16C1349.37,5211.49 1341.1,5214.65 1331.12,5214.65C1318.83,5214.65 1309.14,5208.89 1302.05,5197.35L1312.62,5188.4C1315.55,5193.37 1318.49,5196.87 1321.45,5198.91C1324.41,5200.92 1328.04,5201.92 1332.33,5201.92C1337.93,5201.92 1342.64,5199.95 1346.44,5196.03C1350.25,5191.98 1352.15,5187.08 1352.15,5181.31C1352.15,5175.39 1350.27,5170.54 1346.5,5166.78C1342.74,5162.89 1338.03,5160.95 1332.38,5160.95C1326.1,5160.95 1320.67,5163.69 1316.11,5169.18L1311.48,5169.18L1326.08,5120.4L1364.4,5120.4L1364.4,5133.5Z" style="fill-rule:nonzero;"/>
            <path d="M1394.98,5157.7L1384.77,5157.7L1382.18,5120.4L1397.56,5120.4L1394.98,5157.7ZM1416.96,5157.7L1406.75,5157.7L1404.17,5120.4L1419.55,5120.4L1416.96,5157.7Z" style="fill-rule:nonzero;"/>
            <path d="M271.142,5097.84L271.142,5111.77L252.569,5093.19L271.142,5074.62L271.142,5088.55L2171.55,5088.55L2171.55,5074.62L2190.13,5093.19L2171.55,5111.77L2171.55,5097.84L271.142,5097.84Z" style="fill-opacity:0.717647;"/>
        </g>
        <g id="Launcher-Grading" serif:id="Launcher Grading">
            <path d="M2119.04,4396.86L2091.93,3740.9L2082.95,3434.52L2073.89,3740.89L2046.82,4396.86" style="fill:none;stroke:black;stroke-width:0.74px;stroke-miterlimit:10;"/>
        </g>
    </g>
    <g id="Rubber-Segments" serif:id="Rubber Segments">
        <g id="Rubber-Segment" serif:id="Rubber Segment">
            <path id="Assembly-Top23" serif:id="Assembly Top" d="M2078.23,2179.07L2030.64,2501.32L2042.83,2503.12L2090.42,2180.87L2078.23,2179.07Z" style="fill:rgb(200,200,200);"/>
        </g>
        <g id="Rubber-Segment1" serif:id="Rubber Segment">
            <path id="Assembly-Top24" serif:id="Assembly Top" d="M2027.22,2506.51L1954.44,2552.52L1961.02,2562.93L2033.8,2516.93L2027.22,2506.51Z" style="fill:rgb(200,200,200);"/>
        </g>
        <g id="Rubber-Segment2" serif:id="Rubber Segment">
            <path id="Assembly-Top25" serif:id="Assembly Top" d="M2032.46,2167.7L1919.82,2527.12L1931.58,2530.8L2044.21,2171.38L2032.46,2167.7Z" style="fill:rgb(200,200,200);"/>
        </g>
        <g id="Rubber-Segment3" serif:id="Rubber Segment">
            <path id="Assembly-Top26" serif:id="Assembly Top" d="M2087.64,2949.94L2125.97,3006.13L2136.15,2999.19L2097.82,2943L2087.64,2949.94Z" style="fill:rgb(200,200,200);"/>
        </g>
        <g id="Rubber-Segment4" serif:id="Rubber Segment">
            <path id="Assembly-Top27" serif:id="Assembly Top" d="M2045.5,2951.01L1988.72,3151.69L2000.57,3155.04L2057.36,2954.36L2045.5,2951.01Z" style="fill:rgb(200,200,200);"/>
        </g>
        <g id="Rubber-Segment5" serif:id="Rubber Segment">
            <path id="Assembly-Top28" serif:id="Assembly Top" d="M2125.43,3022.87L2032.83,3167.45L2043.21,3174.1L2135.81,3029.52L2125.43,3022.87Z" style="fill:rgb(200,200,200);"/>
        </g>
        <g id="Rubber-Segment6" serif:id="Rubber Segment">
            <path id="Assembly-Top29" serif:id="Assembly Top" d="M1730.56,3687.51L1730.56,3423.88L1718.24,3423.88L1718.24,3687.51L1730.56,3687.51Z" style="fill:rgb(200,200,200);"/>
        </g>
        <g id="Rubber-Segment7" serif:id="Rubber Segment">
            <path id="Assembly-Top30" serif:id="Assembly Top" d="M1710.1,3702.61L1589.88,3786.78L1596.95,3796.88L1717.17,3712.7L1710.1,3702.61Z" style="fill:rgb(200,200,200);"/>
        </g>
        <g id="Rubber-Segment8" serif:id="Rubber Segment">
            <path id="Assembly-Top31" serif:id="Assembly Top" d="M1671.83,3415.98L1554.53,3758.58L1566.19,3762.57L1683.48,3419.97L1671.83,3415.98Z" style="fill:rgb(200,200,200);"/>
        </g>
        <g id="Rubber-Segment9" serif:id="Rubber Segment">
            <path id="Assembly-Top32" serif:id="Assembly Top" d="M827.159,3786.8L708.643,3703.82L701.575,3713.91L820.092,3796.9L827.159,3786.8Z" style="fill:rgb(200,200,200);"/>
        </g>
        <g id="Rubber-Segment10" serif:id="Rubber Segment">
            <path id="Assembly-Top33" serif:id="Assembly Top" d="M687.082,3424.58L687.082,3688.59L699.404,3688.59L699.404,3424.58L687.082,3424.58Z" style="fill:rgb(200,200,200);"/>
        </g>
        <g id="Rubber-Segment11" serif:id="Rubber Segment">
            <path id="Assembly-Top34" serif:id="Assembly Top" d="M733.407,3419.06L852.24,3764.17L863.891,3760.16L745.058,3415.05L733.407,3419.06Z" style="fill:rgb(200,200,200);"/>
        </g>
        <g id="Rubber-Segment12" serif:id="Rubber Segment">
            <path id="Assembly-Top35" serif:id="Assembly Top" d="M308.001,2999.16L350.294,3203.39L362.361,3200.89L320.067,2996.66L308.001,2999.16Z" style="fill:rgb(200,200,200);"/>
        </g>
        <g id="Rubber-Segment13" serif:id="Rubber Segment">
            <path id="Assembly-Top36" serif:id="Assembly Top" d="M434.677,3154.05L392.429,3207.35L402.086,3215.01L444.334,3161.7L434.677,3154.05Z" style="fill:rgb(200,200,200);"/>
        </g>
        <g id="Rubber-Segment14" serif:id="Rubber Segment">
            <path id="Assembly-Top37" serif:id="Assembly Top" d="M446.305,3131.33L364.31,2980.31L353.481,2986.19L435.476,3137.21L446.305,3131.33Z" style="fill:rgb(200,200,200);"/>
        </g>
        <g id="Rubber-Segment15" serif:id="Rubber Segment">
            <path id="Assembly-Top38" serif:id="Assembly Top" d="M1389.33,1115.89L1323.32,1042.59L1314.16,1050.84L1380.17,1124.14L1389.33,1115.89Z" style="fill:rgb(200,200,200);"/>
        </g>
        <g id="Rubber-Segment16" serif:id="Rubber Segment">
            <path id="Assembly-Top39" serif:id="Assembly Top" d="M1275.55,1078.81L1346.38,1156.7L1355.5,1148.41L1284.67,1070.52L1275.55,1078.81Z" style="fill:rgb(200,200,200);"/>
        </g>
        <g id="Rubber-Segment17" serif:id="Rubber Segment">
            <path id="Assembly-Top40" serif:id="Assembly Top" d="M1680.7,817.042L1600.57,721.6L1591.13,729.523L1671.26,824.965L1680.7,817.042Z" style="fill:rgb(200,200,200);"/>
        </g>
        <g id="Rubber-Segment18" serif:id="Rubber Segment">
            <path id="Assembly-Top41" serif:id="Assembly Top" d="M1717.78,789.858L1637.65,694.416L1628.21,702.339L1708.34,797.781L1717.78,789.858Z" style="fill:rgb(200,200,200);"/>
        </g>
    </g>
    <g id="Adjustable-Posts" serif:id="Adjustable Posts">
        <g id="Adj-Post" serif:id="Adj Post">
            <g id="Rubber-Loose" serif:id="Rubber Loose">
                <path d="M339.84,3213.35C362.358,3213.35 380.64,3231.63 380.64,3254.15C380.64,3276.67 362.358,3294.95 339.84,3294.95C317.322,3294.95 299.04,3276.67 299.04,3254.15C299.04,3231.63 317.322,3213.35 339.84,3213.35ZM339.84,3233.75C351.099,3233.75 360.24,3242.89 360.24,3254.15C360.24,3265.41 351.099,3274.55 339.84,3274.55C328.581,3274.55 319.44,3265.41 319.44,3254.15C319.44,3242.89 328.581,3233.75 339.84,3233.75Z" style="fill:rgb(156,156,156);fill-opacity:0.717647;"/>
            </g>
            <g id="Rubber-Tight" serif:id="Rubber Tight">
                <path d="M339.84,3218.39C359.576,3218.39 375.6,3234.41 375.6,3254.15C375.6,3273.89 359.576,3289.91 339.84,3289.91C320.104,3289.91 304.08,3273.89 304.08,3254.15C304.08,3234.41 320.104,3218.39 339.84,3218.39ZM339.84,3233.75C351.099,3233.75 360.24,3242.89 360.24,3254.15C360.24,3265.41 351.099,3274.55 339.84,3274.55C328.581,3274.55 319.44,3265.41 319.44,3254.15C319.44,3242.89 328.581,3233.75 339.84,3233.75Z" style="fill:rgb(156,156,156);fill-opacity:0.717647;"/>
            </g>
        </g>
        <g id="Adj-Post1" serif:id="Adj Post">
            <g id="Rubber-Loose1" serif:id="Rubber Loose">
                <path d="M339.84,3280.76C362.358,3280.76 380.64,3299.04 380.64,3321.56C380.64,3344.08 362.358,3362.36 339.84,3362.36C317.322,3362.36 299.04,3344.08 299.04,3321.56C299.04,3299.04 317.322,3280.76 339.84,3280.76ZM339.84,3301.16C351.099,3301.16 360.24,3310.3 360.24,3321.56C360.24,3332.82 351.099,3341.96 339.84,3341.96C328.581,3341.96 319.44,3332.82 319.44,3321.56C319.44,3310.3 328.581,3301.16 339.84,3301.16Z" style="fill:rgb(156,156,156);fill-opacity:0.717647;"/>
            </g>
            <g id="Rubber-Tight1" serif:id="Rubber Tight">
                <path d="M339.84,3285.8C359.576,3285.8 375.6,3301.82 375.6,3321.56C375.6,3341.3 359.576,3357.32 339.84,3357.32C320.104,3357.32 304.08,3341.3 304.08,3321.56C304.08,3301.82 320.104,3285.8 339.84,3285.8ZM339.84,3301.16C351.099,3301.16 360.24,3310.3 360.24,3321.56C360.24,3332.82 351.099,3341.96 339.84,3341.96C328.581,3341.96 319.44,3332.82 319.44,3321.56C319.44,3310.3 328.581,3301.16 339.84,3301.16Z" style="fill:rgb(156,156,156);fill-opacity:0.717647;"/>
            </g>
        </g>
    </g>
</svg>
