<?xml version="1.0" encoding="UTF-8" standalone="no"?>
<!DOCTYPE svg PUBLIC "-//W3C//DTD SVG 1.1//EN" "http://www.w3.org/Graphics/SVG/1.1/DTD/svg11.dtd">
<svg width="5882px" height="11466px" version="1.1" xmlns="http://www.w3.org/2000/svg" xmlns:xlink="http://www.w3.org/1999/xlink" xml:space="preserve" xmlns:serif="http://www.serif.com/" style="fill-rule:evenodd;clip-rule:evenodd;stroke-linecap:round;stroke-linejoin:round;stroke-miterlimit:10;">
    <g id="Ramp-Opening" serif:id="Ramp Opening">
        <g id="ROUT-TOP" serif:id="ROUT TOP">
            <path d="M2624.39,6636.54C2624.39,6631.1 2619.98,6626.69 2614.54,6626.69L2427.11,6626.69C2421.67,6626.69 2417.26,6631.1 2417.26,6636.54L2417.26,6707.8C2417.26,6713.23 2421.67,6717.65 2427.11,6717.65L2614.54,6717.65C2619.98,6717.65 2624.39,6713.23 2624.39,6707.8L2624.39,6636.54Z" style="fill:rgb(47,47,47);fill-opacity:0.509804;stroke:black;stroke-opacity:0.615686;stroke-width:0.6px;"/>
            <g transform="matrix(4.73102,1.3402e-16,0,4.73102,-3631.34,3283.07)">
                <path d="M1291.45,720.538L1292.07,721.394L1291.7,721.394L1291.13,720.572L1291.07,720.572L1291.07,721.394L1290.77,721.394L1290.77,719.384L1291.12,719.384C1291.39,719.384 1291.58,719.434 1291.7,719.534C1291.83,719.645 1291.89,719.792 1291.89,719.974C1291.89,720.116 1291.85,720.239 1291.77,720.341C1291.69,720.444 1291.58,720.509 1291.45,720.538ZM1291.07,720.307L1291.17,720.307C1291.45,720.307 1291.6,720.197 1291.6,719.978C1291.6,719.772 1291.46,719.669 1291.18,719.669L1291.07,719.669L1291.07,720.307Z" style="fill-rule:nonzero;"/>
                <path d="M1292.23,720.38C1292.23,720.097 1292.33,719.854 1292.54,719.651C1292.75,719.448 1292.99,719.346 1293.28,719.346C1293.57,719.346 1293.82,719.449 1294.02,719.654C1294.23,719.858 1294.33,720.105 1294.33,720.392C1294.33,720.681 1294.23,720.926 1294.02,721.128C1293.81,721.33 1293.56,721.431 1293.27,721.431C1293.01,721.431 1292.78,721.341 1292.57,721.161C1292.34,720.963 1292.23,720.702 1292.23,720.38ZM1292.53,720.384C1292.53,720.606 1292.61,720.789 1292.76,720.932C1292.91,721.075 1293.08,721.147 1293.27,721.147C1293.48,721.147 1293.66,721.074 1293.81,720.928C1293.95,720.781 1294.02,720.601 1294.02,720.389C1294.02,720.175 1293.95,719.995 1293.81,719.85C1293.67,719.704 1293.49,719.631 1293.28,719.631C1293.07,719.631 1292.89,719.704 1292.75,719.85C1292.61,719.994 1292.53,720.172 1292.53,720.384Z" style="fill-rule:nonzero;"/>
                <path d="M1295.01,719.384L1295.01,720.595C1295.01,720.768 1295.04,720.894 1295.1,720.974C1295.18,721.089 1295.3,721.147 1295.45,721.147C1295.61,721.147 1295.73,721.089 1295.81,720.974C1295.87,720.897 1295.89,720.77 1295.89,720.595L1295.89,719.384L1296.2,719.384L1296.2,720.678C1296.2,720.89 1296.13,721.065 1296,721.202C1295.85,721.355 1295.67,721.431 1295.45,721.431C1295.24,721.431 1295.06,721.355 1294.91,721.202C1294.78,721.065 1294.71,720.89 1294.71,720.678L1294.71,719.384L1295.01,719.384Z" style="fill-rule:nonzero;"/>
                <path d="M1297.24,719.669L1297.24,721.394L1296.93,721.394L1296.93,719.669L1296.47,719.669L1296.47,719.384L1297.7,719.384L1297.7,719.669L1297.24,719.669Z" style="fill-rule:nonzero;"/>
                <path d="M1298.78,721.249C1298.78,721.2 1298.8,721.158 1298.83,721.122C1298.87,721.087 1298.91,721.069 1298.96,721.069C1299.01,721.069 1299.05,721.087 1299.09,721.122C1299.12,721.158 1299.14,721.2 1299.14,721.25C1299.14,721.3 1299.12,721.343 1299.09,721.379C1299.05,721.414 1299.01,721.431 1298.96,721.431C1298.91,721.431 1298.87,721.414 1298.83,721.379C1298.8,721.344 1298.78,721.301 1298.78,721.249Z" style="fill-rule:nonzero;"/>
                <path d="M1299.49,720.376C1299.49,720.056 1299.56,719.8 1299.71,719.609C1299.84,719.437 1300.01,719.35 1300.19,719.35C1300.38,719.35 1300.55,719.437 1300.68,719.609C1300.83,719.8 1300.9,720.06 1300.9,720.389C1300.9,720.717 1300.83,720.977 1300.68,721.168C1300.55,721.341 1300.38,721.427 1300.2,721.427C1300.01,721.427 1299.85,721.341 1299.71,721.168C1299.56,720.977 1299.49,720.713 1299.49,720.376ZM1299.78,720.378C1299.78,720.601 1299.82,720.786 1299.9,720.934C1299.98,721.078 1300.08,721.151 1300.19,721.151C1300.31,721.151 1300.41,721.078 1300.49,720.934C1300.57,720.789 1300.61,720.608 1300.61,720.388C1300.61,720.168 1300.57,719.986 1300.49,719.841C1300.41,719.697 1300.31,719.625 1300.19,719.625C1300.08,719.625 1299.98,719.697 1299.9,719.841C1299.82,719.984 1299.78,720.163 1299.78,720.378Z" style="fill-rule:nonzero;"/>
                <path d="M1302.06,719.668L1301.07,719.668L1301.07,719.384L1302.57,719.384L1301.3,721.463L1301.06,721.311L1302.06,719.668Z" style="fill-rule:nonzero;"/>
                <path d="M1302.69,720.376C1302.69,720.056 1302.77,719.8 1302.91,719.609C1303.05,719.437 1303.21,719.35 1303.4,719.35C1303.59,719.35 1303.75,719.437 1303.89,719.609C1304.04,719.8 1304.11,720.06 1304.11,720.389C1304.11,720.717 1304.04,720.977 1303.89,721.168C1303.75,721.341 1303.59,721.427 1303.4,721.427C1303.21,721.427 1303.05,721.341 1302.91,721.168C1302.77,720.977 1302.69,720.713 1302.69,720.376ZM1302.99,720.378C1302.99,720.601 1303.03,720.786 1303.11,720.934C1303.18,721.078 1303.28,721.151 1303.4,721.151C1303.52,721.151 1303.62,721.078 1303.7,720.934C1303.77,720.789 1303.81,720.608 1303.81,720.388C1303.81,720.168 1303.77,719.986 1303.7,719.841C1303.62,719.697 1303.52,719.625 1303.4,719.625C1303.28,719.625 1303.18,719.697 1303.11,719.841C1303.03,719.984 1302.99,720.163 1302.99,720.378Z" style="fill-rule:nonzero;"/>
                <path d="M1305.29,721.394L1305.29,719.384L1305.71,719.384C1305.91,719.384 1306.07,719.404 1306.19,719.444C1306.31,719.483 1306.43,719.549 1306.53,719.643C1306.74,719.832 1306.84,720.081 1306.84,720.389C1306.84,720.698 1306.73,720.948 1306.52,721.139C1306.41,721.235 1306.3,721.301 1306.18,721.338C1306.07,721.376 1305.91,721.394 1305.7,721.394L1305.29,721.394ZM1305.59,721.109L1305.73,721.109C1305.86,721.109 1305.98,721.095 1306.07,721.066C1306.16,721.036 1306.24,720.988 1306.31,720.922C1306.46,720.786 1306.54,720.608 1306.54,720.389C1306.54,720.169 1306.46,719.99 1306.32,719.853C1306.18,719.73 1305.99,719.669 1305.73,719.669L1305.59,719.669L1305.59,721.109Z" style="fill-rule:nonzero;"/>
                <path d="M1308.33,719.669L1307.53,719.669L1307.53,720.152L1308.31,720.152L1308.31,720.437L1307.53,720.437L1307.53,721.109L1308.33,721.109L1308.33,721.394L1307.22,721.394L1307.22,719.384L1308.33,719.384L1308.33,719.669Z" style="fill-rule:nonzero;"/>
                <path d="M1309.84,719.669L1309.04,719.669L1309.04,720.152L1309.82,720.152L1309.82,720.437L1309.04,720.437L1309.04,721.109L1309.84,721.109L1309.84,721.394L1308.73,721.394L1308.73,719.384L1309.84,719.384L1309.84,719.669Z" style="fill-rule:nonzero;"/>
                <path d="M1310.54,720.578L1310.54,721.394L1310.24,721.394L1310.24,719.384L1310.58,719.384C1310.75,719.384 1310.88,719.396 1310.96,719.419C1311.05,719.443 1311.13,719.487 1311.19,719.552C1311.31,719.665 1311.37,719.807 1311.37,719.979C1311.37,720.163 1311.31,720.309 1311.18,720.417C1311.06,720.524 1310.89,720.578 1310.68,720.578L1310.54,720.578ZM1310.54,720.297L1310.66,720.297C1310.93,720.297 1311.07,720.19 1311.07,719.975C1311.07,719.768 1310.93,719.664 1310.64,719.664L1310.54,719.664L1310.54,720.297Z" style="fill-rule:nonzero;"/>
                <path d="M1295.95,722.415L1295.95,724.141L1295.65,724.141L1295.65,722.415L1295.19,722.415L1295.19,722.13L1296.41,722.13L1296.41,722.415L1295.95,722.415Z" style="fill-rule:nonzero;"/>
                <path d="M1296.52,723.126C1296.52,722.843 1296.62,722.6 1296.83,722.397C1297.04,722.194 1297.29,722.092 1297.58,722.092C1297.86,722.092 1298.11,722.195 1298.31,722.4C1298.52,722.605 1298.62,722.851 1298.62,723.138C1298.62,723.427 1298.52,723.672 1298.31,723.874C1298.1,724.076 1297.85,724.177 1297.56,724.177C1297.3,724.177 1297.07,724.087 1296.86,723.907C1296.63,723.709 1296.52,723.448 1296.52,723.126ZM1296.83,723.13C1296.83,723.352 1296.9,723.535 1297.05,723.678C1297.2,723.822 1297.37,723.893 1297.56,723.893C1297.77,723.893 1297.95,723.82 1298.1,723.674C1298.24,723.527 1298.32,723.347 1298.32,723.135C1298.32,722.921 1298.24,722.741 1298.1,722.596C1297.96,722.45 1297.78,722.378 1297.57,722.378C1297.36,722.378 1297.18,722.45 1297.04,722.596C1296.9,722.74 1296.83,722.918 1296.83,723.13Z" style="fill-rule:nonzero;"/>
                <path d="M1299.31,723.324L1299.31,724.141L1299,724.141L1299,722.13L1299.35,722.13C1299.51,722.13 1299.64,722.142 1299.73,722.165C1299.81,722.189 1299.89,722.233 1299.96,722.298C1300.07,722.411 1300.13,722.553 1300.13,722.725C1300.13,722.909 1300.07,723.055 1299.94,723.163C1299.82,723.27 1299.65,723.324 1299.45,723.324L1299.31,723.324ZM1299.31,723.043L1299.42,723.043C1299.7,723.043 1299.84,722.936 1299.84,722.721C1299.84,722.514 1299.69,722.41 1299.41,722.41L1299.31,722.41L1299.31,723.043Z" style="fill-rule:nonzero;"/>
                <path d="M1302.4,722.43L1302.16,722.575C1302.11,722.496 1302.07,722.444 1302.02,722.419C1301.98,722.391 1301.92,722.378 1301.86,722.378C1301.77,722.378 1301.7,722.401 1301.65,722.449C1301.59,722.496 1301.56,722.555 1301.56,722.626C1301.56,722.724 1301.64,722.803 1301.78,722.863L1301.98,722.945C1302.15,723.011 1302.27,723.092 1302.34,723.187C1302.42,723.282 1302.45,723.398 1302.45,723.536C1302.45,723.721 1302.39,723.874 1302.27,723.995C1302.14,724.116 1301.99,724.177 1301.81,724.177C1301.63,724.177 1301.49,724.125 1301.37,724.022C1301.26,723.919 1301.19,723.773 1301.16,723.586L1301.47,723.518C1301.49,723.636 1301.51,723.718 1301.55,723.763C1301.61,723.85 1301.7,723.893 1301.82,723.893C1301.91,723.893 1301.99,723.861 1302.05,723.798C1302.12,723.735 1302.15,723.654 1302.15,723.557C1302.15,723.518 1302.14,723.482 1302.13,723.45C1302.12,723.417 1302.1,723.387 1302.08,723.36C1302.06,723.333 1302.03,723.307 1301.99,723.283C1301.95,723.259 1301.91,723.236 1301.86,723.215L1301.67,723.134C1301.39,723.018 1301.26,722.848 1301.26,722.624C1301.26,722.473 1301.31,722.346 1301.43,722.245C1301.54,722.142 1301.69,722.091 1301.86,722.091C1302.09,722.091 1302.27,722.204 1302.4,722.43Z" style="fill-rule:nonzero;"/>
                <rect x="1302.82" y="722.13" width="0.303" height="2.01" style="fill-rule:nonzero;"/>
                <path d="M1303.61,724.141L1303.61,722.13L1304.03,722.13C1304.23,722.13 1304.39,722.15 1304.51,722.19C1304.63,722.229 1304.75,722.296 1304.85,722.389C1305.06,722.578 1305.16,722.827 1305.16,723.135C1305.16,723.444 1305.05,723.694 1304.84,723.885C1304.73,723.981 1304.61,724.047 1304.5,724.085C1304.38,724.122 1304.23,724.141 1304.02,724.141L1303.61,724.141ZM1303.91,723.855L1304.05,723.855C1304.18,723.855 1304.3,723.841 1304.39,723.812C1304.48,723.782 1304.56,723.734 1304.63,723.668C1304.78,723.532 1304.86,723.354 1304.86,723.135C1304.86,722.915 1304.78,722.736 1304.63,722.599C1304.5,722.476 1304.31,722.415 1304.05,722.415L1303.91,722.415L1303.91,723.855Z" style="fill-rule:nonzero;"/>
                <path d="M1306.65,722.415L1305.85,722.415L1305.85,722.898L1306.63,722.898L1306.63,723.184L1305.85,723.184L1305.85,723.855L1306.65,723.855L1306.65,724.141L1305.54,724.141L1305.54,722.13L1306.65,722.13L1306.65,722.415Z" style="fill-rule:nonzero;"/>
            </g>
        </g>
    </g>
    <g id="MAGNET">
        <g id="Rout-Bottom" serif:id="Rout Bottom">
            <g transform="matrix(5.56854,-3.09116e-16,0,5.56854,-4044.29,1070.3)">
                <path d="M1291.63,720.538L1292.25,721.394L1291.88,721.394L1291.31,720.572L1291.25,720.572L1291.25,721.394L1290.95,721.394L1290.95,719.384L1291.3,719.384C1291.57,719.384 1291.76,719.434 1291.88,719.534C1292.01,719.645 1292.07,719.792 1292.07,719.974C1292.07,720.116 1292.03,720.239 1291.95,720.341C1291.87,720.444 1291.76,720.509 1291.63,720.538ZM1291.25,720.307L1291.35,720.307C1291.63,720.307 1291.78,720.197 1291.78,719.978C1291.78,719.772 1291.64,719.669 1291.36,719.669L1291.25,719.669L1291.25,720.307Z" style="fill-rule:nonzero;"/>
                <path d="M1292.41,720.38C1292.41,720.097 1292.51,719.854 1292.72,719.651C1292.92,719.448 1293.17,719.346 1293.46,719.346C1293.75,719.346 1294,719.449 1294.2,719.654C1294.41,719.858 1294.51,720.105 1294.51,720.392C1294.51,720.681 1294.4,720.926 1294.2,721.128C1293.99,721.33 1293.74,721.431 1293.45,721.431C1293.19,721.431 1292.95,721.341 1292.75,721.161C1292.52,720.963 1292.41,720.702 1292.41,720.38ZM1292.71,720.384C1292.71,720.606 1292.79,720.789 1292.94,720.932C1293.09,721.075 1293.26,721.147 1293.45,721.147C1293.66,721.147 1293.84,721.074 1293.99,720.928C1294.13,720.781 1294.2,720.601 1294.2,720.389C1294.2,720.175 1294.13,719.995 1293.99,719.85C1293.85,719.704 1293.67,719.631 1293.46,719.631C1293.25,719.631 1293.07,719.704 1292.93,719.85C1292.79,719.994 1292.71,720.172 1292.71,720.384Z" style="fill-rule:nonzero;"/>
                <path d="M1295.19,719.384L1295.19,720.595C1295.19,720.768 1295.22,720.894 1295.28,720.974C1295.36,721.089 1295.48,721.147 1295.63,721.147C1295.79,721.147 1295.91,721.089 1295.99,720.974C1296.05,720.897 1296.08,720.77 1296.08,720.595L1296.08,719.384L1296.38,719.384L1296.38,720.678C1296.38,720.89 1296.31,721.065 1296.18,721.202C1296.03,721.355 1295.85,721.431 1295.63,721.431C1295.42,721.431 1295.24,721.355 1295.09,721.202C1294.96,721.065 1294.89,720.89 1294.89,720.678L1294.89,719.384L1295.19,719.384Z" style="fill-rule:nonzero;"/>
                <path d="M1297.41,719.669L1297.41,721.394L1297.11,721.394L1297.11,719.669L1296.65,719.669L1296.65,719.384L1297.88,719.384L1297.88,719.669L1297.41,719.669Z" style="fill-rule:nonzero;"/>
                <path d="M1298.96,721.249C1298.96,721.2 1298.98,721.158 1299.01,721.122C1299.05,721.087 1299.09,721.069 1299.14,721.069C1299.19,721.069 1299.23,721.087 1299.27,721.122C1299.3,721.158 1299.32,721.2 1299.32,721.25C1299.32,721.3 1299.3,721.343 1299.27,721.379C1299.23,721.414 1299.19,721.431 1299.14,721.431C1299.09,721.431 1299.05,721.414 1299.01,721.379C1298.98,721.344 1298.96,721.301 1298.96,721.249Z" style="fill-rule:nonzero;"/>
                <path d="M1300.24,720.461L1300.24,720.202C1300.37,720.202 1300.46,720.187 1300.5,720.159C1300.58,720.108 1300.62,720.028 1300.62,719.917C1300.62,719.831 1300.59,719.761 1300.53,719.707C1300.48,719.652 1300.4,719.625 1300.31,719.625C1300.23,719.625 1300.16,719.645 1300.12,719.686C1300.07,719.728 1300.04,719.798 1300.02,719.897L1299.72,719.897C1299.75,719.708 1299.81,719.569 1299.91,719.481C1300.01,719.393 1300.14,719.349 1300.32,719.349C1300.49,719.349 1300.64,719.401 1300.75,719.505C1300.86,719.608 1300.91,719.742 1300.91,719.905C1300.91,720.089 1300.84,720.232 1300.7,720.335C1300.86,720.433 1300.95,720.592 1300.95,720.812C1300.95,720.993 1300.88,721.141 1300.76,721.255C1300.64,721.37 1300.49,721.427 1300.3,721.427C1300.05,721.427 1299.87,721.338 1299.76,721.16C1299.71,721.085 1299.68,720.982 1299.66,720.85L1299.96,720.85C1299.97,720.947 1300.01,721.022 1300.07,721.073C1300.13,721.125 1300.21,721.151 1300.31,721.151C1300.41,721.151 1300.49,721.118 1300.55,721.053C1300.62,720.986 1300.65,720.902 1300.65,720.799C1300.65,720.664 1300.6,720.568 1300.5,720.51C1300.45,720.477 1300.36,720.461 1300.24,720.461Z" style="fill-rule:nonzero;"/>
                <path d="M1301.69,719.668L1301.34,719.668L1301.51,719.384L1301.99,719.384L1301.99,721.394L1301.69,721.394L1301.69,719.668Z" style="fill-rule:nonzero;"/>
                <path d="M1303.07,721.109L1303.82,721.109L1303.82,721.394L1302.46,721.394L1303.16,720.549C1303.23,720.465 1303.29,720.392 1303.34,720.331C1303.38,720.269 1303.42,720.217 1303.44,720.176C1303.49,720.094 1303.52,720.021 1303.52,719.956C1303.52,719.862 1303.48,719.783 1303.42,719.72C1303.35,719.657 1303.27,719.625 1303.17,719.625C1302.97,719.625 1302.85,719.745 1302.82,719.986L1302.52,719.986C1302.57,719.562 1302.78,719.35 1303.16,719.35C1303.35,719.35 1303.5,719.408 1303.62,719.525C1303.75,719.641 1303.81,719.785 1303.81,719.957C1303.81,720.066 1303.78,720.174 1303.72,720.279C1303.69,720.333 1303.65,720.398 1303.59,720.473C1303.54,720.548 1303.46,720.637 1303.38,720.74L1303.07,721.109Z" style="fill-rule:nonzero;"/>
                <path d="M1305.11,721.394L1305.11,719.384L1305.53,719.384C1305.73,719.384 1305.89,719.404 1306.01,719.444C1306.13,719.483 1306.25,719.549 1306.35,719.643C1306.56,719.832 1306.66,720.081 1306.66,720.389C1306.66,720.698 1306.55,720.948 1306.34,721.139C1306.23,721.235 1306.12,721.301 1306,721.338C1305.89,721.376 1305.73,721.394 1305.52,721.394L1305.11,721.394ZM1305.41,721.109L1305.55,721.109C1305.68,721.109 1305.8,721.095 1305.89,721.066C1305.98,721.036 1306.06,720.988 1306.13,720.922C1306.28,720.786 1306.36,720.608 1306.36,720.389C1306.36,720.169 1306.28,719.99 1306.13,719.853C1306,719.73 1305.81,719.669 1305.55,719.669L1305.41,719.669L1305.41,721.109Z" style="fill-rule:nonzero;"/>
                <path d="M1308.15,719.669L1307.35,719.669L1307.35,720.152L1308.13,720.152L1308.13,720.437L1307.35,720.437L1307.35,721.109L1308.15,721.109L1308.15,721.394L1307.04,721.394L1307.04,719.384L1308.15,719.384L1308.15,719.669Z" style="fill-rule:nonzero;"/>
                <path d="M1309.66,719.669L1308.86,719.669L1308.86,720.152L1309.64,720.152L1309.64,720.437L1308.86,720.437L1308.86,721.109L1309.66,721.109L1309.66,721.394L1308.55,721.394L1308.55,719.384L1309.66,719.384L1309.66,719.669Z" style="fill-rule:nonzero;"/>
                <path d="M1310.36,720.578L1310.36,721.394L1310.06,721.394L1310.06,719.384L1310.4,719.384C1310.57,719.384 1310.7,719.396 1310.79,719.419C1310.87,719.443 1310.95,719.487 1311.01,719.552C1311.13,719.665 1311.19,719.807 1311.19,719.979C1311.19,720.163 1311.12,720.309 1311,720.417C1310.88,720.524 1310.71,720.578 1310.5,720.578L1310.36,720.578ZM1310.36,720.297L1310.48,720.297C1310.76,720.297 1310.89,720.19 1310.89,719.975C1310.89,719.768 1310.75,719.664 1310.46,719.664L1310.36,719.664L1310.36,720.297Z" style="fill-rule:nonzero;"/>
                <path d="M1292.26,724.141L1292.26,722.13L1292.56,722.13C1292.69,722.13 1292.8,722.141 1292.88,722.161C1292.96,722.182 1293.03,722.217 1293.08,722.267C1293.14,722.318 1293.18,722.382 1293.22,722.458C1293.25,722.536 1293.27,722.614 1293.27,722.693C1293.27,722.837 1293.21,722.959 1293.1,723.059C1293.21,723.095 1293.29,723.159 1293.36,723.25C1293.42,723.34 1293.45,723.445 1293.45,723.565C1293.45,723.722 1293.39,723.855 1293.28,723.963C1293.22,724.03 1293.14,724.077 1293.06,724.103C1292.97,724.128 1292.85,724.141 1292.71,724.141L1292.26,724.141ZM1292.56,722.993L1292.65,722.993C1292.77,722.993 1292.85,722.968 1292.9,722.919C1292.95,722.869 1292.98,722.795 1292.98,722.698C1292.98,722.603 1292.95,722.531 1292.9,722.482C1292.85,722.433 1292.77,722.409 1292.66,722.409L1292.56,722.409L1292.56,722.993ZM1292.56,723.855L1292.75,723.855C1292.88,723.855 1292.98,723.828 1293.05,723.775C1293.12,723.717 1293.15,723.643 1293.15,723.553C1293.15,723.467 1293.12,723.394 1293.05,723.335C1292.99,723.276 1292.88,723.247 1292.71,723.247L1292.56,723.247L1292.56,723.855Z" style="fill-rule:nonzero;"/>
                <path d="M1293.72,723.126C1293.72,722.843 1293.82,722.6 1294.03,722.397C1294.23,722.194 1294.48,722.092 1294.77,722.092C1295.06,722.092 1295.3,722.195 1295.51,722.4C1295.71,722.605 1295.82,722.851 1295.82,723.138C1295.82,723.427 1295.71,723.672 1295.51,723.874C1295.3,724.076 1295.05,724.177 1294.76,724.177C1294.5,724.177 1294.26,724.087 1294.06,723.907C1293.83,723.709 1293.72,723.448 1293.72,723.126ZM1294.02,723.13C1294.02,723.352 1294.1,723.535 1294.25,723.678C1294.39,723.822 1294.57,723.893 1294.76,723.893C1294.97,723.893 1295.15,723.82 1295.29,723.674C1295.44,723.527 1295.51,723.347 1295.51,723.135C1295.51,722.921 1295.44,722.741 1295.3,722.596C1295.15,722.45 1294.98,722.378 1294.77,722.378C1294.56,722.378 1294.38,722.45 1294.24,722.596C1294.09,722.74 1294.02,722.918 1294.02,723.13Z" style="fill-rule:nonzero;"/>
                <path d="M1296.68,722.415L1296.68,724.141L1296.38,724.141L1296.38,722.415L1295.92,722.415L1295.92,722.13L1297.14,722.13L1297.14,722.415L1296.68,722.415Z" style="fill-rule:nonzero;"/>
                <path d="M1297.97,722.415L1297.97,724.141L1297.66,724.141L1297.66,722.415L1297.2,722.415L1297.2,722.13L1298.43,722.13L1298.43,722.415L1297.97,722.415Z" style="fill-rule:nonzero;"/>
                <path d="M1298.54,723.126C1298.54,722.843 1298.64,722.6 1298.85,722.397C1299.05,722.194 1299.3,722.092 1299.59,722.092C1299.88,722.092 1300.12,722.195 1300.33,722.4C1300.54,722.605 1300.64,722.851 1300.64,723.138C1300.64,723.427 1300.54,723.672 1300.33,723.874C1300.12,724.076 1299.87,724.177 1299.58,724.177C1299.32,724.177 1299.08,724.087 1298.88,723.907C1298.65,723.709 1298.54,723.448 1298.54,723.126ZM1298.84,723.13C1298.84,723.352 1298.92,723.535 1299.07,723.678C1299.21,723.822 1299.39,723.893 1299.58,723.893C1299.79,723.893 1299.97,723.82 1300.12,723.674C1300.26,723.527 1300.33,723.347 1300.33,723.135C1300.33,722.921 1300.26,722.741 1300.12,722.596C1299.98,722.45 1299.8,722.378 1299.59,722.378C1299.38,722.378 1299.2,722.45 1299.06,722.596C1298.91,722.74 1298.84,722.918 1298.84,723.13Z" style="fill-rule:nonzero;"/>
                <path d="M1300.95,724.141L1301.37,721.979L1302.06,723.542L1302.78,721.979L1303.16,724.141L1302.85,724.141L1302.65,722.927L1302.06,724.233L1301.48,722.926L1301.26,724.141L1300.95,724.141Z" style="fill-rule:nonzero;"/>
                <path d="M1305.54,722.43L1305.3,722.575C1305.25,722.496 1305.21,722.444 1305.16,722.419C1305.12,722.391 1305.07,722.378 1305,722.378C1304.91,722.378 1304.84,722.401 1304.79,722.449C1304.73,722.496 1304.7,722.555 1304.7,722.626C1304.7,722.724 1304.78,722.803 1304.92,722.863L1305.12,722.945C1305.29,723.011 1305.41,723.092 1305.48,723.187C1305.56,723.282 1305.6,723.398 1305.6,723.536C1305.6,723.721 1305.53,723.874 1305.41,723.995C1305.29,724.116 1305.13,724.177 1304.95,724.177C1304.77,724.177 1304.63,724.125 1304.52,724.022C1304.4,723.919 1304.33,723.773 1304.31,723.586L1304.61,723.518C1304.63,723.636 1304.65,723.718 1304.69,723.763C1304.75,723.85 1304.84,723.893 1304.96,723.893C1305.05,723.893 1305.13,723.861 1305.19,723.798C1305.26,723.735 1305.29,723.654 1305.29,723.557C1305.29,723.518 1305.28,723.482 1305.27,723.45C1305.26,723.417 1305.25,723.387 1305.22,723.36C1305.2,723.333 1305.17,723.307 1305.13,723.283C1305.1,723.259 1305.05,723.236 1305,723.215L1304.81,723.134C1304.53,723.018 1304.4,722.848 1304.4,722.624C1304.4,722.473 1304.45,722.346 1304.57,722.245C1304.68,722.142 1304.83,722.091 1305,722.091C1305.23,722.091 1305.41,722.204 1305.54,722.43Z" style="fill-rule:nonzero;"/>
                <rect x="1305.96" y="722.13" width="0.303" height="2.01" style="fill-rule:nonzero;"/>
                <path d="M1306.75,724.141L1306.75,722.13L1307.17,722.13C1307.37,722.13 1307.53,722.15 1307.65,722.19C1307.77,722.229 1307.89,722.296 1307.99,722.389C1308.2,722.578 1308.3,722.827 1308.3,723.135C1308.3,723.444 1308.19,723.694 1307.98,723.885C1307.87,723.981 1307.76,724.047 1307.64,724.085C1307.53,724.122 1307.37,724.141 1307.16,724.141L1306.75,724.141ZM1307.05,723.855L1307.19,723.855C1307.32,723.855 1307.44,723.841 1307.53,723.812C1307.62,723.782 1307.7,723.734 1307.77,723.668C1307.92,723.532 1308,723.354 1308,723.135C1308,722.915 1307.92,722.736 1307.78,722.599C1307.64,722.476 1307.45,722.415 1307.19,722.415L1307.05,722.415L1307.05,723.855Z" style="fill-rule:nonzero;"/>
                <path d="M1309.79,722.415L1308.99,722.415L1308.99,722.898L1309.77,722.898L1309.77,723.184L1308.99,723.184L1308.99,723.855L1309.79,723.855L1309.79,724.141L1308.68,724.141L1308.68,722.13L1309.79,722.13L1309.79,722.415Z" style="fill-rule:nonzero;"/>
            </g>
            <path d="M3194.69,4829.38C3115.13,4829.4 3050.64,4893.87 3050.65,4973.43C3050.66,5053.01 3115.15,5117.48 3194.7,5117.46C3274.27,5117.48 3338.75,5052.97 3338.74,4973.42C3338.75,4893.87 3274.24,4829.37 3194.69,4829.38ZM3194.69,4941.13C3176.86,4941.13 3162.4,4955.59 3162.4,4973.43C3162.4,4991.27 3176.86,5005.73 3194.7,5005.72C3212.54,5005.73 3226.99,4991.26 3226.99,4973.42C3226.99,4955.59 3212.53,4941.13 3194.69,4941.13Z" style="fill:rgb(67,27,42);fill-opacity:0.509804;"/>
        </g>
    </g>
    <g id="T-6-R-POST" serif:id="T-6 R POST">
        <g id="Rout-Top" serif:id="Rout Top">
            <path d="M3912.64,8212.32C3912.66,8186.73 3874.22,8186.72 3874.24,8212.32C3874.21,8237.92 3912.65,8237.92 3912.63,8212.33L3912.64,8212.32Z" style="fill:rgb(47,47,47);fill-opacity:0.509804;"/>
            <g transform="matrix(0.649966,0,0,0.649966,-2994.07,7781.2)">
                <path d="M10568.2,602.983L10571.3,607.201L10569.4,607.201L10566.6,603.15L10566.3,603.15L10566.3,607.201L10564.8,607.201L10564.8,597.303L10566.6,597.303C10567.9,597.303 10568.8,597.549 10569.4,598.04C10570.1,598.587 10570.4,599.31 10570.4,600.207C10570.4,600.908 10570.2,601.511 10569.8,602.015C10569.4,602.519 10568.9,602.842 10568.2,602.983ZM10566.3,601.848L10566.8,601.848C10568.2,601.848 10568.9,601.308 10568.9,600.226C10568.9,599.213 10568.2,598.707 10566.9,598.707L10566.3,598.707L10566.3,601.848Z" style="fill-rule:nonzero;"/>
                <path d="M10572,602.207C10572,600.814 10572.5,599.617 10573.6,598.617C10574.6,597.617 10575.8,597.117 10577.2,597.117C10578.6,597.117 10579.8,597.622 10580.9,598.63C10581.9,599.639 10582.4,600.85 10582.4,602.265C10582.4,603.688 10581.9,604.895 10580.8,605.887C10579.8,606.883 10578.6,607.381 10577.1,607.381C10575.9,607.381 10574.7,606.938 10573.7,606.054C10572.6,605.075 10572,603.793 10572,602.207ZM10573.5,602.226C10573.5,603.321 10573.9,604.22 10574.6,604.925C10575.4,605.631 10576.2,605.983 10577.2,605.983C10578.2,605.983 10579.1,605.624 10579.8,604.906C10580.5,604.18 10580.9,603.295 10580.9,602.252C10580.9,601.197 10580.5,600.312 10579.8,599.598C10579.1,598.88 10578.2,598.521 10577.2,598.521C10576.2,598.521 10575.3,598.88 10574.6,599.598C10573.9,600.308 10573.5,601.184 10573.5,602.226Z" style="fill-rule:nonzero;"/>
                <path d="M10585.7,597.303L10585.7,603.265C10585.7,604.115 10585.9,604.737 10586.2,605.13C10586.6,605.699 10587.2,605.983 10587.9,605.983C10588.7,605.983 10589.3,605.699 10589.7,605.13C10589.9,604.75 10590.1,604.128 10590.1,603.265L10590.1,597.303L10591.6,597.303L10591.6,603.675C10591.6,604.718 10591.3,605.577 10590.6,606.252C10589.9,607.005 10589,607.381 10587.9,607.381C10586.9,607.381 10586,607.005 10585.2,606.252C10584.6,605.577 10584.3,604.718 10584.3,603.675L10584.3,597.303L10585.7,597.303Z" style="fill-rule:nonzero;"/>
                <path d="M10596.7,598.707L10596.7,607.201L10595.2,607.201L10595.2,598.707L10592.9,598.707L10592.9,597.303L10599,597.303L10599,598.707L10596.7,598.707Z" style="fill-rule:nonzero;"/>
                <path d="M10604.3,606.483C10604.3,606.244 10604.4,606.037 10604.5,605.861C10604.7,605.686 10604.9,605.598 10605.2,605.598C10605.4,605.598 10605.6,605.686 10605.8,605.861C10606,606.037 10606.1,606.246 10606.1,606.49C10606.1,606.737 10606,606.949 10605.8,607.124C10605.6,607.295 10605.4,607.381 10605.2,607.381C10604.9,607.381 10604.7,607.295 10604.5,607.124C10604.4,606.953 10604.3,606.74 10604.3,606.483Z" style="fill-rule:nonzero;"/>
                <path d="M10607.8,602.188C10607.8,600.611 10608.1,599.352 10608.9,598.412C10609.5,597.562 10610.3,597.136 10611.3,597.136C10612.2,597.136 10613,597.562 10613.6,598.412C10614.4,599.352 10614.7,600.632 10614.7,602.252C10614.7,603.868 10614.4,605.145 10613.6,606.086C10613,606.936 10612.2,607.361 10611.3,607.361C10610.3,607.361 10609.5,606.936 10608.9,606.086C10608.1,605.145 10607.8,603.846 10607.8,602.188ZM10609.2,602.194C10609.2,603.293 10609.4,604.205 10609.8,604.932C10610.2,605.645 10610.7,606.002 10611.3,606.002C10611.8,606.002 10612.3,605.645 10612.7,604.932C10613.1,604.222 10613.3,603.327 10613.3,602.246C10613.3,601.164 10613.1,600.267 10612.7,599.553C10612.3,598.844 10611.8,598.489 10611.3,598.489C10610.7,598.489 10610.2,598.844 10609.8,599.553C10609.4,600.258 10609.2,601.139 10609.2,602.194Z" style="fill-rule:nonzero;"/>
                <path d="M10618.3,607.541L10617.2,606.727L10619.5,603.502C10619.4,603.519 10619.3,603.532 10619.2,603.541C10619.1,603.549 10619,603.553 10619,603.553C10618.2,603.553 10617.5,603.248 10616.9,602.637C10616.3,602.03 10616,601.299 10616,600.444C10616,599.534 10616.4,598.756 10617,598.111C10617.6,597.461 10618.4,597.136 10619.3,597.136C10620.2,597.136 10621,597.457 10621.7,598.098C10622.4,598.735 10622.7,599.487 10622.7,600.355C10622.7,601.124 10622.4,601.955 10621.7,602.848L10618.3,607.541ZM10617.5,600.335C10617.5,600.87 10617.7,601.318 10618,601.682C10618.4,602.049 10618.8,602.233 10619.4,602.233C10619.9,602.233 10620.3,602.051 10620.7,601.688C10621,601.32 10621.2,600.878 10621.2,600.361C10621.2,599.844 10621,599.402 10620.7,599.034C10620.3,598.671 10619.9,598.489 10619.4,598.489C10618.8,598.489 10618.4,598.671 10618,599.034C10617.7,599.402 10617.5,599.835 10617.5,600.335Z" style="fill-rule:nonzero;"/>
                <path d="M10626.8,602.605L10626.8,601.329C10627.4,601.329 10627.9,601.258 10628.1,601.117C10628.5,600.87 10628.7,600.472 10628.7,599.925C10628.7,599.502 10628.5,599.158 10628.2,598.893C10628,598.624 10627.6,598.489 10627.2,598.489C10626.7,598.489 10626.4,598.59 10626.2,598.79C10626,598.996 10625.8,599.342 10625.7,599.829L10624.2,599.829C10624.4,598.897 10624.7,598.215 10625.2,597.781C10625.7,597.347 10626.3,597.13 10627.2,597.13C10628,597.13 10628.8,597.386 10629.3,597.899C10629.8,598.408 10630.1,599.064 10630.1,599.867C10630.1,600.773 10629.8,601.479 10629,601.983C10629.9,602.466 10630.3,603.25 10630.3,604.336C10630.3,605.224 10630,605.951 10629.4,606.515C10628.8,607.079 10628,607.361 10627.1,607.361C10625.9,607.361 10625,606.923 10624.4,606.047C10624.2,605.68 10624,605.171 10624,604.521L10625.4,604.521C10625.5,605 10625.7,605.367 10626,605.621C10626.3,605.875 10626.7,606.002 10627.1,606.002C10627.6,606.002 10628,605.842 10628.3,605.522C10628.6,605.192 10628.8,604.776 10628.8,604.271C10628.8,603.605 10628.6,603.13 10628.1,602.848C10627.8,602.686 10627.4,602.605 10626.8,602.605Z" style="fill-rule:nonzero;"/>
                <path d="M10568.6,620.721L10568.6,610.823L10570.7,610.823C10571.7,610.823 10572.4,610.921 10573,611.118C10573.6,611.31 10574.2,611.637 10574.7,612.099C10575.7,613.03 10576.2,614.255 10576.2,615.772C10576.2,617.294 10575.7,618.524 10574.6,619.465C10574.1,619.935 10573.6,620.262 10573,620.445C10572.4,620.629 10571.6,620.721 10570.6,620.721L10568.6,620.721ZM10570.1,619.317L10570.8,619.317C10571.4,619.317 10572,619.247 10572.4,619.106C10572.9,618.956 10573.3,618.719 10573.6,618.394C10574.4,617.723 10574.7,616.849 10574.7,615.772C10574.7,614.687 10574.4,613.806 10573.6,613.131C10573,612.528 10572,612.227 10570.8,612.227L10570.1,612.227L10570.1,619.317Z" style="fill-rule:nonzero;"/>
                <path d="M10583.6,612.227L10579.6,612.227L10579.6,614.605L10583.5,614.605L10583.5,616.009L10579.6,616.009L10579.6,619.317L10583.6,619.317L10583.6,620.721L10578.1,620.721L10578.1,610.823L10583.6,610.823L10583.6,612.227Z" style="fill-rule:nonzero;"/>
                <path d="M10591,612.227L10587,612.227L10587,614.605L10590.9,614.605L10590.9,616.009L10587,616.009L10587,619.317L10591,619.317L10591,620.721L10585.5,620.721L10585.5,610.823L10591,610.823L10591,612.227Z" style="fill-rule:nonzero;"/>
                <path d="M10594.5,616.702L10594.5,620.721L10593,620.721L10593,610.823L10594.7,610.823C10595.5,610.823 10596.1,610.881 10596.5,610.996C10597,611.112 10597.3,611.33 10597.7,611.65C10598.2,612.206 10598.5,612.907 10598.5,613.753C10598.5,614.659 10598.2,615.377 10597.6,615.907C10597,616.437 10596.2,616.702 10595.2,616.702L10594.5,616.702ZM10594.5,615.317L10595,615.317C10596.4,615.317 10597.1,614.789 10597.1,613.733C10597.1,612.712 10596.4,612.201 10595,612.201L10594.5,612.201L10594.5,615.317Z" style="fill-rule:nonzero;"/>
                <path d="M10606.8,612.227L10606.8,620.721L10605.3,620.721L10605.3,612.227L10603.1,612.227L10603.1,610.823L10609.1,610.823L10609.1,612.227L10606.8,612.227Z" style="fill-rule:nonzero;"/>
                <path d="M10609.6,615.727C10609.6,614.334 10610.1,613.137 10611.2,612.137C10612.2,611.137 10613.4,610.637 10614.8,610.637C10616.2,610.637 10617.5,611.141 10618.5,612.15C10619.5,613.159 10620,614.37 10620,615.785C10620,617.208 10619.5,618.415 10618.5,619.407C10617.4,620.403 10616.2,620.901 10614.8,620.901C10613.5,620.901 10612.3,620.458 10611.3,619.574C10610.2,618.595 10609.6,617.313 10609.6,615.727ZM10611.1,615.746C10611.1,616.84 10611.5,617.74 10612.2,618.445C10613,619.15 10613.8,619.503 10614.8,619.503C10615.8,619.503 10616.7,619.144 10617.4,618.426C10618.1,617.7 10618.5,616.815 10618.5,615.772C10618.5,614.716 10618.1,613.832 10617.4,613.118C10616.7,612.4 10615.9,612.041 10614.8,612.041C10613.8,612.041 10612.9,612.4 10612.2,613.118C10611.5,613.828 10611.1,614.704 10611.1,615.746Z" style="fill-rule:nonzero;"/>
                <path d="M10623.4,616.702L10623.4,620.721L10621.9,620.721L10621.9,610.823L10623.6,610.823C10624.4,610.823 10625,610.881 10625.4,610.996C10625.9,611.112 10626.2,611.33 10626.6,611.65C10627.1,612.206 10627.4,612.907 10627.4,613.753C10627.4,614.659 10627.1,615.377 10626.5,615.907C10625.9,616.437 10625.1,616.702 10624,616.702L10623.4,616.702ZM10623.4,615.317L10623.9,615.317C10625.3,615.317 10626,614.789 10626,613.733C10626,612.712 10625.3,612.201 10623.8,612.201L10623.4,612.201L10623.4,615.317Z" style="fill-rule:nonzero;"/>
            </g>
        </g>
    </g>
    <g id="T-8-R" serif:id="T-8 R">
        <g id="Rout-Bottom1" serif:id="Rout Bottom">
            <path d="M3924.32,8316.64C3924.35,8278.24 3866.69,8278.24 3866.72,8316.64C3866.68,8355.03 3924.35,8355.04 3924.32,8316.64Z" style="fill:rgb(47,47,47);fill-opacity:0.509804;"/>
            <g transform="matrix(0.643649,0,0,0.643649,-1789.43,7556.37)">
                <path d="M8801.54,1114.58L8804.66,1118.87L8802.8,1118.87L8799.93,1114.75L8799.66,1114.75L8799.66,1118.87L8798.14,1118.87L8798.14,1108.81L8799.92,1108.81C8801.24,1108.81 8802.2,1109.06 8802.79,1109.56C8803.44,1110.12 8803.77,1110.85 8803.77,1111.76C8803.77,1112.48 8803.57,1113.09 8803.16,1113.6C8802.75,1114.11 8802.21,1114.44 8801.54,1114.58ZM8799.66,1113.43L8800.14,1113.43C8801.57,1113.43 8802.29,1112.88 8802.29,1111.78C8802.29,1110.75 8801.59,1110.24 8800.2,1110.24L8799.66,1110.24L8799.66,1113.43Z" style="fill-rule:nonzero;"/>
                <path d="M8805.44,1113.79C8805.44,1112.38 8805.95,1111.16 8806.99,1110.15C8808.02,1109.13 8809.27,1108.62 8810.72,1108.62C8812.15,1108.62 8813.38,1109.14 8814.4,1110.16C8815.43,1111.19 8815.94,1112.42 8815.94,1113.85C8815.94,1115.3 8815.43,1116.53 8814.4,1117.53C8813.36,1118.54 8812.1,1119.05 8810.64,1119.05C8809.34,1119.05 8808.18,1118.6 8807.14,1117.7C8806.01,1116.71 8805.44,1115.4 8805.44,1113.79ZM8806.97,1113.81C8806.97,1114.92 8807.34,1115.84 8808.09,1116.56C8808.83,1117.27 8809.69,1117.63 8810.66,1117.63C8811.71,1117.63 8812.6,1117.27 8813.33,1116.54C8814.05,1115.8 8814.41,1114.9 8814.41,1113.84C8814.41,1112.77 8814.06,1111.87 8813.34,1111.14C8812.63,1110.42 8811.75,1110.05 8810.7,1110.05C8809.65,1110.05 8808.77,1110.42 8808.05,1111.14C8807.33,1111.87 8806.97,1112.76 8806.97,1113.81Z" style="fill-rule:nonzero;"/>
                <path d="M8819.37,1108.81L8819.37,1114.87C8819.37,1115.73 8819.51,1116.36 8819.79,1116.76C8820.21,1117.34 8820.81,1117.63 8821.57,1117.63C8822.34,1117.63 8822.93,1117.34 8823.35,1116.76C8823.64,1116.38 8823.78,1115.75 8823.78,1114.87L8823.78,1108.81L8825.29,1108.81L8825.29,1115.29C8825.29,1116.34 8824.96,1117.22 8824.3,1117.9C8823.56,1118.67 8822.65,1119.05 8821.57,1119.05C8820.49,1119.05 8819.58,1118.67 8818.84,1117.9C8818.18,1117.22 8817.85,1116.34 8817.85,1115.29L8817.85,1108.81L8819.37,1108.81Z" style="fill-rule:nonzero;"/>
                <path d="M8830.48,1110.24L8830.48,1118.87L8828.96,1118.87L8828.96,1110.24L8826.65,1110.24L8826.65,1108.81L8832.78,1108.81L8832.78,1110.24L8830.48,1110.24Z" style="fill-rule:nonzero;"/>
                <path d="M8838.2,1118.14C8838.2,1117.89 8838.29,1117.68 8838.46,1117.51C8838.64,1117.33 8838.85,1117.24 8839.1,1117.24C8839.35,1117.24 8839.56,1117.33 8839.74,1117.51C8839.92,1117.68 8840.01,1117.9 8840.01,1118.14C8840.01,1118.39 8839.92,1118.61 8839.74,1118.79C8839.57,1118.96 8839.35,1119.05 8839.1,1119.05C8838.85,1119.05 8838.63,1118.96 8838.46,1118.79C8838.28,1118.61 8838.2,1118.4 8838.2,1118.14Z" style="fill-rule:nonzero;"/>
                <path d="M8841.73,1113.78C8841.73,1112.17 8842.1,1110.89 8842.84,1109.94C8843.51,1109.08 8844.32,1108.64 8845.27,1108.64C8846.22,1108.64 8847.03,1109.08 8847.7,1109.94C8848.45,1110.89 8848.82,1112.19 8848.82,1113.84C8848.82,1115.48 8848.45,1116.78 8847.7,1117.73C8847.03,1118.6 8846.23,1119.03 8845.28,1119.03C8844.33,1119.03 8843.52,1118.6 8842.84,1117.73C8842.1,1116.78 8841.73,1115.46 8841.73,1113.78ZM8843.22,1113.78C8843.22,1114.9 8843.41,1115.82 8843.8,1116.56C8844.18,1117.29 8844.68,1117.65 8845.27,1117.65C8845.87,1117.65 8846.36,1117.29 8846.75,1116.56C8847.14,1115.84 8847.34,1114.93 8847.34,1113.83C8847.34,1112.74 8847.14,1111.82 8846.75,1111.1C8846.36,1110.38 8845.87,1110.02 8845.27,1110.02C8844.68,1110.02 8844.19,1110.38 8843.8,1111.1C8843.41,1111.82 8843.22,1112.71 8843.22,1113.78Z" style="fill-rule:nonzero;"/>
                <path d="M8854.62,1108.46L8855.74,1109.3L8853.33,1112.56C8853.46,1112.55 8853.58,1112.53 8853.67,1112.53C8853.76,1112.52 8853.83,1112.51 8853.88,1112.51C8854.7,1112.51 8855.4,1112.82 8856,1113.45C8856.59,1114.07 8856.88,1114.81 8856.88,1115.68C8856.88,1116.6 8856.55,1117.39 8855.89,1118.05C8855.24,1118.7 8854.45,1119.03 8853.53,1119.03C8852.62,1119.03 8851.82,1118.71 8851.13,1118.06C8850.46,1117.41 8850.12,1116.65 8850.12,1115.76C8850.12,1114.97 8850.45,1114.12 8851.11,1113.24L8854.62,1108.46ZM8855.4,1115.77C8855.4,1115.24 8855.22,1114.79 8854.85,1114.42C8854.48,1114.05 8854.03,1113.86 8853.5,1113.86C8852.97,1113.86 8852.52,1114.04 8852.16,1114.41C8851.79,1114.78 8851.6,1115.23 8851.6,1115.75C8851.6,1116.28 8851.79,1116.73 8852.16,1117.1C8852.52,1117.46 8852.98,1117.65 8853.51,1117.65C8854.03,1117.65 8854.48,1117.46 8854.84,1117.1C8855.22,1116.72 8855.4,1116.28 8855.4,1115.77Z" style="fill-rule:nonzero;"/>
                <path d="M8860.96,1117.44L8864.7,1117.44L8864.7,1118.87L8857.95,1118.87L8861.44,1114.64C8861.78,1114.22 8862.07,1113.86 8862.3,1113.55C8862.53,1113.24 8862.71,1112.98 8862.83,1112.77C8863.08,1112.36 8863.2,1112 8863.2,1111.67C8863.2,1111.2 8863.04,1110.81 8862.71,1110.49C8862.38,1110.18 8861.97,1110.02 8861.49,1110.02C8860.47,1110.02 8859.89,1110.62 8859.74,1111.82L8858.23,1111.82C8858.47,1109.7 8859.54,1108.64 8861.44,1108.64C8862.35,1108.64 8863.12,1108.94 8863.74,1109.52C8864.37,1110.1 8864.68,1110.82 8864.68,1111.68C8864.68,1112.23 8864.54,1112.76 8864.25,1113.29C8864.1,1113.56 8863.88,1113.88 8863.6,1114.26C8863.31,1114.63 8862.95,1115.08 8862.52,1115.59L8860.96,1117.44Z" style="fill-rule:nonzero;"/>
                <path d="M8786.24,1132.6L8786.24,1122.54L8788.35,1122.54C8789.36,1122.54 8790.16,1122.64 8790.74,1122.84C8791.37,1123.04 8791.94,1123.37 8792.45,1123.84C8793.49,1124.79 8794.01,1126.03 8794.01,1127.57C8794.01,1129.12 8793.47,1130.37 8792.39,1131.32C8791.85,1131.8 8791.28,1132.13 8790.68,1132.32C8790.13,1132.5 8789.34,1132.6 8788.32,1132.6L8786.24,1132.6ZM8787.75,1131.17L8788.44,1131.17C8789.12,1131.17 8789.69,1131.1 8790.14,1130.96C8790.59,1130.8 8791,1130.56 8791.36,1130.23C8792.11,1129.55 8792.48,1128.66 8792.48,1127.57C8792.48,1126.47 8792.11,1125.57 8791.37,1124.89C8790.71,1124.28 8789.73,1123.97 8788.44,1123.97L8787.75,1123.97L8787.75,1131.17Z" style="fill-rule:nonzero;"/>
                <path d="M8801.47,1123.97L8797.43,1123.97L8797.43,1126.39L8801.35,1126.39L8801.35,1127.81L8797.43,1127.81L8797.43,1131.17L8801.47,1131.17L8801.47,1132.6L8795.92,1132.6L8795.92,1122.54L8801.47,1122.54L8801.47,1123.97Z" style="fill-rule:nonzero;"/>
                <path d="M8809,1123.97L8804.97,1123.97L8804.97,1126.39L8808.89,1126.39L8808.89,1127.81L8804.97,1127.81L8804.97,1131.17L8809,1131.17L8809,1132.6L8803.46,1132.6L8803.46,1122.54L8809,1122.54L8809,1123.97Z" style="fill-rule:nonzero;"/>
                <path d="M8812.51,1128.52L8812.51,1132.6L8811,1132.6L8811,1122.54L8812.72,1122.54C8813.56,1122.54 8814.19,1122.6 8814.62,1122.72C8815.06,1122.84 8815.44,1123.06 8815.77,1123.38C8816.35,1123.95 8816.63,1124.66 8816.63,1125.52C8816.63,1126.44 8816.33,1127.17 8815.71,1127.71C8815.09,1128.25 8814.26,1128.52 8813.22,1128.52L8812.51,1128.52ZM8812.51,1127.11L8813.08,1127.11C8814.47,1127.11 8815.17,1126.57 8815.17,1125.5C8815.17,1124.46 8814.45,1123.94 8813.01,1123.94L8812.51,1123.94L8812.51,1127.11Z" style="fill-rule:nonzero;"/>
                <path d="M8822.31,1132.6L8822.31,1122.54L8823.82,1122.54C8824.5,1122.54 8825.03,1122.6 8825.43,1122.7C8825.83,1122.81 8826.17,1122.98 8826.45,1123.23C8826.73,1123.48 8826.96,1123.8 8827.12,1124.18C8827.29,1124.57 8827.38,1124.96 8827.38,1125.36C8827.38,1126.08 8827.1,1126.69 8826.55,1127.19C8827.08,1127.37 8827.51,1127.69 8827.81,1128.14C8828.12,1128.6 8828.28,1129.12 8828.28,1129.72C8828.28,1130.51 8828,1131.17 8827.45,1131.71C8827.11,1132.05 8826.74,1132.28 8826.32,1132.41C8825.87,1132.53 8825.3,1132.6 8824.61,1132.6L8822.31,1132.6ZM8823.83,1126.86L8824.3,1126.86C8824.87,1126.86 8825.28,1126.74 8825.54,1126.49C8825.81,1126.24 8825.94,1125.87 8825.94,1125.38C8825.94,1124.91 8825.8,1124.55 8825.53,1124.31C8825.26,1124.06 8824.87,1123.94 8824.36,1123.94L8823.83,1123.94L8823.83,1126.86ZM8823.83,1131.17L8824.77,1131.17C8825.45,1131.17 8825.95,1131.04 8826.28,1130.77C8826.61,1130.48 8826.78,1130.11 8826.78,1129.66C8826.78,1129.23 8826.62,1128.86 8826.3,1128.57C8825.98,1128.28 8825.41,1128.13 8824.6,1128.13L8823.83,1128.13L8823.83,1131.17Z" style="fill-rule:nonzero;"/>
                <path d="M8829.62,1127.53C8829.62,1126.11 8830.14,1124.89 8831.17,1123.88C8832.2,1122.86 8833.45,1122.36 8834.9,1122.36C8836.33,1122.36 8837.56,1122.87 8838.58,1123.89C8839.61,1124.92 8840.12,1126.15 8840.12,1127.58C8840.12,1129.03 8839.61,1130.26 8838.58,1131.26C8837.54,1132.27 8836.28,1132.78 8834.82,1132.78C8833.52,1132.78 8832.35,1132.33 8831.32,1131.43C8830.18,1130.44 8829.62,1129.13 8829.62,1127.53ZM8831.15,1127.54C8831.15,1128.66 8831.52,1129.57 8832.27,1130.29C8833.01,1131 8833.86,1131.36 8834.84,1131.36C8835.89,1131.36 8836.78,1131 8837.51,1130.27C8838.23,1129.53 8838.59,1128.63 8838.59,1127.57C8838.59,1126.5 8838.24,1125.6 8837.52,1124.88C8836.81,1124.15 8835.93,1123.78 8834.88,1123.78C8833.83,1123.78 8832.95,1124.15 8832.23,1124.88C8831.51,1125.6 8831.15,1126.49 8831.15,1127.54Z" style="fill-rule:nonzero;"/>
                <path d="M8844.45,1123.97L8844.45,1132.6L8842.93,1132.6L8842.93,1123.97L8840.62,1123.97L8840.62,1122.54L8846.75,1122.54L8846.75,1123.97L8844.45,1123.97Z" style="fill-rule:nonzero;"/>
                <path d="M8850.88,1123.97L8850.88,1132.6L8849.36,1132.6L8849.36,1123.97L8847.05,1123.97L8847.05,1122.54L8853.18,1122.54L8853.18,1123.97L8850.88,1123.97Z" style="fill-rule:nonzero;"/>
                <path d="M8853.72,1127.53C8853.72,1126.11 8854.24,1124.89 8855.27,1123.88C8856.31,1122.86 8857.55,1122.36 8859,1122.36C8860.43,1122.36 8861.66,1122.87 8862.68,1123.89C8863.71,1124.92 8864.23,1126.15 8864.23,1127.58C8864.23,1129.03 8863.71,1130.26 8862.68,1131.26C8861.64,1132.27 8860.39,1132.78 8858.92,1132.78C8857.62,1132.78 8856.46,1132.33 8855.42,1131.43C8854.29,1130.44 8853.72,1129.13 8853.72,1127.53ZM8855.25,1127.54C8855.25,1128.66 8855.62,1129.57 8856.37,1130.29C8857.11,1131 8857.97,1131.36 8858.94,1131.36C8859.99,1131.36 8860.88,1131 8861.61,1130.27C8862.33,1129.53 8862.7,1128.63 8862.7,1127.57C8862.7,1126.5 8862.34,1125.6 8861.62,1124.88C8860.91,1124.15 8860.03,1123.78 8858.98,1123.78C8857.93,1123.78 8857.05,1124.15 8856.33,1124.88C8855.61,1125.6 8855.25,1126.49 8855.25,1127.54Z" style="fill-rule:nonzero;"/>
                <path d="M8865.78,1132.6L8867.9,1121.79L8871.35,1129.6L8874.92,1121.79L8876.82,1132.6L8875.27,1132.6L8874.3,1126.53L8871.32,1133.06L8868.43,1126.52L8867.35,1132.6L8865.78,1132.6Z" style="fill-rule:nonzero;"/>
            </g>
        </g>
    </g>
    <g id="Pop-Bumper" serif:id="Pop Bumper">
        <g id="Rout">
            <path d="M3769.33,7109.16L3774.46,7110.45L3773.04,7111.64L3768.2,7110.32L3767.99,7110.5L3770.63,7113.65L3769.46,7114.63L3763.02,7106.91L3764.38,7105.77C3765.4,7104.92 3766.3,7104.5 3767.07,7104.5C3767.93,7104.51 3768.64,7104.87 3769.23,7105.57C3769.69,7106.11 3769.92,7106.71 3769.94,7107.37C3769.95,7108.02 3769.75,7108.62 3769.33,7109.16ZM3767.14,7109.48L3767.51,7109.17C3768.61,7108.25 3768.81,7107.37 3768.11,7106.53C3767.45,7105.74 3766.58,7105.79 3765.51,7106.69L3765.1,7107.03L3767.14,7109.48Z" style="fill-rule:nonzero;"/>
            <path d="M3771.81,7106.06C3770.9,7104.97 3770.52,7103.7 3770.67,7102.26C3770.81,7100.82 3771.43,7099.63 3772.55,7098.7C3773.65,7097.78 3774.92,7097.39 3776.36,7097.52C3777.81,7097.65 3778.99,7098.26 3779.91,7099.36C3780.84,7100.47 3781.23,7101.74 3781.08,7103.18C3780.93,7104.62 3780.3,7105.81 3779.17,7106.75C3778.18,7107.58 3776.99,7107.99 3775.62,7107.96C3774.12,7107.93 3772.84,7107.29 3771.81,7106.06ZM3773,7105.09C3773.71,7105.94 3774.58,7106.4 3775.61,7106.47C3776.64,7106.55 3777.53,7106.27 3778.28,7105.65C3779.09,7104.97 3779.53,7104.12 3779.62,7103.1C3779.71,7102.07 3779.41,7101.15 3778.73,7100.33C3778.04,7099.51 3777.19,7099.05 3776.18,7098.95C3775.16,7098.85 3774.25,7099.14 3773.45,7099.81C3772.64,7100.48 3772.2,7101.33 3772.12,7102.35C3772.02,7103.36 3772.32,7104.28 3773,7105.09Z" style="fill-rule:nonzero;"/>
            <path d="M3779.31,7093.3L3783.19,7097.94C3783.74,7098.61 3784.26,7099 3784.73,7099.13C3785.42,7099.3 3786.06,7099.14 3786.65,7098.65C3787.24,7098.16 3787.51,7097.56 3787.46,7096.84C3787.43,7096.37 3787.14,7095.79 3786.57,7095.12L3782.69,7090.47L3783.85,7089.5L3788,7094.47C3788.68,7095.28 3788.99,7096.16 3788.92,7097.11C3788.84,7098.17 3788.39,7099.05 3787.56,7099.74C3786.73,7100.44 3785.79,7100.73 3784.73,7100.61C3783.78,7100.51 3782.97,7100.05 3782.29,7099.24L3778.14,7094.27L3779.31,7093.3Z" style="fill-rule:nonzero;"/>
            <path d="M3788.74,7087.27L3794.28,7093.89L3793.11,7094.86L3787.58,7088.24L3785.81,7089.73L3784.89,7088.63L3789.6,7084.7L3790.51,7085.79L3788.74,7087.27Z" style="fill-rule:nonzero;"/>
            <path d="M3795.81,7081.37L3792.72,7083.95L3794.26,7085.81L3797.27,7083.3L3798.18,7084.39L3795.18,7086.9L3797.33,7089.48L3800.43,7086.89L3801.34,7087.99L3797.08,7091.54L3790.64,7083.83L3794.89,7080.27L3795.81,7081.37Z" style="fill-rule:nonzero;"/>
            <path d="M3805.52,7083.55C3805.36,7083.36 3805.3,7083.14 3805.32,7082.89C3805.34,7082.64 3805.45,7082.43 3805.64,7082.28C3805.83,7082.12 3806.05,7082.05 3806.3,7082.07C3806.55,7082.09 3806.75,7082.2 3806.91,7082.39C3807.07,7082.58 3807.14,7082.81 3807.12,7083.06C3807.1,7083.3 3806.99,7083.5 3806.8,7083.66C3806.6,7083.83 3806.38,7083.9 3806.14,7083.88C3805.89,7083.86 3805.69,7083.74 3805.52,7083.55Z" style="fill-rule:nonzero;"/>
            <path d="M3805.43,7077.94C3804.4,7076.71 3803.87,7075.49 3803.83,7074.28C3803.79,7073.18 3804.13,7072.33 3804.86,7071.72C3805.59,7071.11 3806.49,7070.93 3807.56,7071.16C3808.74,7071.41 3809.86,7072.17 3810.92,7073.44C3811.97,7074.69 3812.51,7075.93 3812.55,7077.14C3812.59,7078.23 3812.25,7079.08 3811.53,7079.69C3810.8,7080.29 3809.9,7080.48 3808.83,7080.26C3807.64,7080 3806.51,7079.23 3805.43,7077.94ZM3806.58,7076.98C3807.29,7077.84 3808.03,7078.43 3808.8,7078.75C3809.57,7079.05 3810.18,7079.02 3810.64,7078.63C3811.09,7078.25 3811.24,7077.66 3811.07,7076.85C3810.91,7076.05 3810.48,7075.22 3809.77,7074.38C3809.07,7073.54 3808.33,7072.97 3807.57,7072.66C3806.81,7072.36 3806.2,7072.4 3805.74,7072.78C3805.29,7073.16 3805.14,7073.75 3805.31,7074.55C3805.47,7075.35 3805.89,7076.16 3806.58,7076.98Z" style="fill-rule:nonzero;"/>
            <path d="M3814.42,7065.81L3812.04,7067.8L3812.73,7069.39C3812.78,7069.34 3812.83,7069.29 3812.88,7069.24C3812.93,7069.19 3812.97,7069.15 3813.02,7069.12C3813.77,7068.49 3814.59,7068.23 3815.49,7068.34C3816.4,7068.43 3817.18,7068.88 3817.84,7069.66C3818.51,7070.48 3818.8,7071.37 3818.69,7072.36C3818.59,7073.34 3818.12,7074.18 3817.29,7074.87C3816.27,7075.72 3815.06,7075.92 3813.67,7075.45L3813.93,7073.97C3814.52,7074.18 3815,7074.27 3815.39,7074.23C3815.78,7074.19 3816.15,7074.03 3816.51,7073.73C3816.97,7073.34 3817.23,7072.85 3817.27,7072.26C3817.31,7071.66 3817.12,7071.11 3816.72,7070.64C3816.31,7070.14 3815.82,7069.87 3815.24,7069.82C3814.66,7069.76 3814.13,7069.92 3813.66,7070.32C3813.14,7070.75 3812.88,7071.36 3812.88,7072.13L3812.5,7072.45L3810.32,7067.38L3813.51,7064.72L3814.42,7065.81Z" style="fill-rule:nonzero;"/>
            <path d="M3818.06,7067.38C3817.03,7066.15 3816.5,7064.93 3816.46,7063.72C3816.42,7062.63 3816.76,7061.78 3817.49,7061.17C3818.22,7060.56 3819.12,7060.37 3820.18,7060.61C3821.37,7060.86 3822.49,7061.62 3823.55,7062.88C3824.6,7064.14 3825.14,7065.38 3825.18,7066.59C3825.22,7067.68 3824.88,7068.53 3824.16,7069.13C3823.43,7069.74 3822.53,7069.93 3821.46,7069.7C3820.27,7069.45 3819.14,7068.67 3818.06,7067.38ZM3819.21,7066.43C3819.92,7067.29 3820.66,7067.87 3821.43,7068.19C3822.2,7068.5 3822.81,7068.46 3823.26,7068.08C3823.72,7067.7 3823.87,7067.1 3823.7,7066.3C3823.54,7065.49 3823.11,7064.67 3822.4,7063.83C3821.7,7062.99 3820.96,7062.41 3820.2,7062.11C3819.44,7061.8 3818.83,7061.84 3818.37,7062.22C3817.92,7062.6 3817.77,7063.19 3817.94,7064C3818.1,7064.8 3818.52,7065.61 3819.21,7066.43Z" style="fill-rule:nonzero;"/>
            <path d="M3827.88,7054.57L3833.41,7061.19L3832.25,7062.16L3826.72,7055.54L3824.94,7057.02L3824.03,7055.93L3828.74,7051.99L3829.65,7053.09L3827.88,7054.57Z" style="fill-rule:nonzero;"/>
            <path d="M3832.34,7055.47C3831.43,7054.39 3831.05,7053.12 3831.19,7051.68C3831.34,7050.24 3831.96,7049.05 3833.08,7048.12C3834.17,7047.2 3835.45,7046.81 3836.89,7046.94C3838.33,7047.06 3839.52,7047.68 3840.44,7048.78C3841.37,7049.89 3841.76,7051.16 3841.61,7052.6C3841.46,7054.04 3840.82,7055.23 3839.7,7056.17C3838.7,7057 3837.52,7057.4 3836.15,7057.38C3834.64,7057.34 3833.37,7056.71 3832.34,7055.47ZM3833.52,7054.51C3834.24,7055.36 3835.11,7055.82 3836.14,7055.89C3837.17,7055.97 3838.06,7055.69 3838.8,7055.07C3839.61,7054.39 3840.06,7053.54 3840.15,7052.52C3840.23,7051.49 3839.93,7050.56 3839.26,7049.75C3838.57,7048.93 3837.72,7048.47 3836.7,7048.37C3835.69,7048.27 3834.78,7048.55 3833.97,7049.23C3833.17,7049.9 3832.73,7050.74 3832.64,7051.77C3832.55,7052.78 3832.85,7053.69 3833.52,7054.51Z" style="fill-rule:nonzero;"/>
            <path d="M3843.66,7047.3L3846.28,7050.43L3845.12,7051.4L3838.67,7043.69L3839.99,7042.59C3840.64,7042.05 3841.16,7041.69 3841.57,7041.5C3841.97,7041.31 3842.41,7041.24 3842.87,7041.27C3843.68,7041.34 3844.35,7041.7 3844.91,7042.36C3845.49,7043.06 3845.73,7043.82 3845.6,7044.63C3845.47,7045.44 3845.01,7046.18 3844.2,7046.85L3843.66,7047.3ZM3842.76,7046.22L3843.2,7045.86C3844.26,7044.96 3844.46,7044.1 3843.77,7043.28C3843.1,7042.49 3842.22,7042.55 3841.12,7043.47L3840.73,7043.79L3842.76,7046.22Z" style="fill-rule:nonzero;"/>
            <path d="M3858.24,7044.41C3842.14,7052.36 3854.09,7076.55 3870.2,7068.57C3886.32,7060.62 3874.36,7036.43 3858.25,7044.41L3858.24,7044.41ZM3861.25,7050.47C3853.22,7054.44 3859.18,7066.49 3867.2,7062.51C3875.23,7058.55 3869.27,7046.5 3861.25,7050.47L3861.25,7050.47Z" style="fill:rgb(47,47,47);fill-opacity:0.509804;"/>
            <path d="M3765.43,7120.09C3749.31,7128.05 3761.27,7152.24 3777.37,7144.26C3793.49,7136.31 3781.53,7112.12 3765.43,7120.09ZM3768.42,7126.15C3760.39,7130.12 3766.35,7142.17 3774.38,7138.2C3782.4,7134.23 3776.44,7122.18 3768.42,7126.16L3768.42,7126.15Z" style="fill:rgb(47,47,47);fill-opacity:0.509804;"/>
            <path d="M3807.06,7232.4C3790.94,7240.35 3802.9,7264.54 3819,7256.56C3835.12,7248.61 3823.16,7224.42 3807.06,7232.4L3807.06,7232.4ZM3810.05,7238.46C3802.03,7242.42 3807.98,7254.47 3816.01,7250.5C3824.03,7246.53 3818.08,7234.49 3810.06,7238.47L3810.05,7238.46Z" style="fill:rgb(47,47,47);fill-opacity:0.509804;"/>
        </g>
    </g>
    <g id="Hanger">
        <g id="T-8-R1" serif:id="T-8 R">
            <g id="Rout-Bottom2" serif:id="Rout Bottom">
                <path d="M4197.21,7069.28C4197.24,7030.88 4139.58,7030.88 4139.61,7069.28C4139.57,7107.68 4197.24,7107.68 4197.21,7069.28Z" style="fill:rgb(47,47,47);fill-opacity:0.509804;"/>
                <g transform="matrix(0.643649,0,0,0.643649,-1516.54,6309.01)">
                    <path d="M8801.54,1114.58L8804.66,1118.87L8802.8,1118.87L8799.93,1114.75L8799.66,1114.75L8799.66,1118.87L8798.14,1118.87L8798.14,1108.81L8799.92,1108.81C8801.24,1108.81 8802.2,1109.06 8802.79,1109.56C8803.44,1110.12 8803.77,1110.85 8803.77,1111.76C8803.77,1112.48 8803.57,1113.09 8803.16,1113.6C8802.75,1114.11 8802.21,1114.44 8801.54,1114.58ZM8799.66,1113.43L8800.14,1113.43C8801.57,1113.43 8802.29,1112.88 8802.29,1111.78C8802.29,1110.75 8801.59,1110.24 8800.2,1110.24L8799.66,1110.24L8799.66,1113.43Z" style="fill-rule:nonzero;"/>
                    <path d="M8805.44,1113.79C8805.44,1112.38 8805.95,1111.16 8806.99,1110.15C8808.02,1109.13 8809.27,1108.62 8810.72,1108.62C8812.15,1108.62 8813.38,1109.14 8814.4,1110.16C8815.43,1111.19 8815.94,1112.42 8815.94,1113.85C8815.94,1115.3 8815.43,1116.53 8814.4,1117.53C8813.36,1118.54 8812.1,1119.05 8810.64,1119.05C8809.34,1119.05 8808.18,1118.6 8807.14,1117.7C8806.01,1116.71 8805.44,1115.4 8805.44,1113.79ZM8806.97,1113.81C8806.97,1114.92 8807.34,1115.84 8808.09,1116.56C8808.83,1117.27 8809.69,1117.63 8810.66,1117.63C8811.71,1117.63 8812.6,1117.27 8813.33,1116.54C8814.05,1115.8 8814.41,1114.9 8814.41,1113.84C8814.41,1112.77 8814.06,1111.87 8813.34,1111.14C8812.63,1110.42 8811.75,1110.05 8810.7,1110.05C8809.65,1110.05 8808.77,1110.42 8808.05,1111.14C8807.33,1111.87 8806.97,1112.76 8806.97,1113.81Z" style="fill-rule:nonzero;"/>
                    <path d="M8819.37,1108.81L8819.37,1114.87C8819.37,1115.73 8819.51,1116.36 8819.79,1116.76C8820.21,1117.34 8820.81,1117.63 8821.57,1117.63C8822.34,1117.63 8822.93,1117.34 8823.35,1116.76C8823.64,1116.38 8823.78,1115.75 8823.78,1114.87L8823.78,1108.81L8825.29,1108.81L8825.29,1115.29C8825.29,1116.34 8824.96,1117.22 8824.3,1117.9C8823.56,1118.67 8822.65,1119.05 8821.57,1119.05C8820.49,1119.05 8819.58,1118.67 8818.84,1117.9C8818.18,1117.22 8817.85,1116.34 8817.85,1115.29L8817.85,1108.81L8819.37,1108.81Z" style="fill-rule:nonzero;"/>
                    <path d="M8830.48,1110.24L8830.48,1118.87L8828.96,1118.87L8828.96,1110.24L8826.65,1110.24L8826.65,1108.81L8832.78,1108.81L8832.78,1110.24L8830.48,1110.24Z" style="fill-rule:nonzero;"/>
                    <path d="M8838.2,1118.14C8838.2,1117.89 8838.29,1117.68 8838.46,1117.51C8838.64,1117.33 8838.85,1117.24 8839.1,1117.24C8839.35,1117.24 8839.56,1117.33 8839.74,1117.51C8839.92,1117.68 8840.01,1117.9 8840.01,1118.14C8840.01,1118.39 8839.92,1118.61 8839.74,1118.79C8839.57,1118.96 8839.35,1119.05 8839.1,1119.05C8838.85,1119.05 8838.63,1118.96 8838.46,1118.79C8838.28,1118.61 8838.2,1118.4 8838.2,1118.14Z" style="fill-rule:nonzero;"/>
                    <path d="M8841.73,1113.78C8841.73,1112.17 8842.1,1110.89 8842.84,1109.94C8843.51,1109.08 8844.32,1108.64 8845.27,1108.64C8846.22,1108.64 8847.03,1109.08 8847.7,1109.94C8848.45,1110.89 8848.82,1112.19 8848.82,1113.84C8848.82,1115.48 8848.45,1116.78 8847.7,1117.73C8847.03,1118.6 8846.23,1119.03 8845.28,1119.03C8844.33,1119.03 8843.52,1118.6 8842.84,1117.73C8842.1,1116.78 8841.73,1115.46 8841.73,1113.78ZM8843.22,1113.78C8843.22,1114.9 8843.41,1115.82 8843.8,1116.56C8844.18,1117.29 8844.68,1117.65 8845.27,1117.65C8845.87,1117.65 8846.36,1117.29 8846.75,1116.56C8847.14,1115.84 8847.34,1114.93 8847.34,1113.83C8847.34,1112.74 8847.14,1111.82 8846.75,1111.1C8846.36,1110.38 8845.87,1110.02 8845.27,1110.02C8844.68,1110.02 8844.19,1110.38 8843.8,1111.1C8843.41,1111.82 8843.22,1112.71 8843.22,1113.78Z" style="fill-rule:nonzero;"/>
                    <path d="M8854.62,1108.46L8855.74,1109.3L8853.33,1112.56C8853.46,1112.55 8853.58,1112.53 8853.67,1112.53C8853.76,1112.52 8853.83,1112.51 8853.88,1112.51C8854.7,1112.51 8855.4,1112.82 8856,1113.45C8856.59,1114.07 8856.88,1114.81 8856.88,1115.68C8856.88,1116.6 8856.55,1117.39 8855.89,1118.05C8855.24,1118.7 8854.45,1119.03 8853.53,1119.03C8852.62,1119.03 8851.82,1118.71 8851.13,1118.06C8850.46,1117.41 8850.12,1116.65 8850.12,1115.76C8850.12,1114.97 8850.45,1114.12 8851.11,1113.24L8854.62,1108.46ZM8855.4,1115.77C8855.4,1115.24 8855.22,1114.79 8854.85,1114.42C8854.48,1114.05 8854.03,1113.86 8853.5,1113.86C8852.97,1113.86 8852.52,1114.04 8852.16,1114.41C8851.79,1114.78 8851.6,1115.23 8851.6,1115.75C8851.6,1116.28 8851.79,1116.73 8852.16,1117.1C8852.52,1117.46 8852.98,1117.65 8853.51,1117.65C8854.03,1117.65 8854.48,1117.46 8854.84,1117.1C8855.22,1116.72 8855.4,1116.28 8855.4,1115.77Z" style="fill-rule:nonzero;"/>
                    <path d="M8860.96,1117.44L8864.7,1117.44L8864.7,1118.87L8857.95,1118.87L8861.44,1114.64C8861.78,1114.22 8862.07,1113.86 8862.3,1113.55C8862.53,1113.24 8862.71,1112.98 8862.83,1112.77C8863.08,1112.36 8863.2,1112 8863.2,1111.67C8863.2,1111.2 8863.04,1110.81 8862.71,1110.49C8862.38,1110.18 8861.97,1110.02 8861.49,1110.02C8860.47,1110.02 8859.89,1110.62 8859.74,1111.82L8858.23,1111.82C8858.47,1109.7 8859.54,1108.64 8861.44,1108.64C8862.35,1108.64 8863.12,1108.94 8863.74,1109.52C8864.37,1110.1 8864.68,1110.82 8864.68,1111.68C8864.68,1112.23 8864.54,1112.76 8864.25,1113.29C8864.1,1113.56 8863.88,1113.88 8863.6,1114.26C8863.31,1114.63 8862.95,1115.08 8862.52,1115.59L8860.96,1117.44Z" style="fill-rule:nonzero;"/>
                    <path d="M8786.24,1132.6L8786.24,1122.54L8788.35,1122.54C8789.36,1122.54 8790.16,1122.64 8790.74,1122.84C8791.37,1123.04 8791.94,1123.37 8792.45,1123.84C8793.49,1124.79 8794.01,1126.03 8794.01,1127.57C8794.01,1129.12 8793.47,1130.37 8792.39,1131.32C8791.85,1131.8 8791.28,1132.13 8790.68,1132.32C8790.13,1132.5 8789.34,1132.6 8788.32,1132.6L8786.24,1132.6ZM8787.75,1131.17L8788.44,1131.17C8789.12,1131.17 8789.69,1131.1 8790.14,1130.96C8790.59,1130.8 8791,1130.56 8791.36,1130.23C8792.11,1129.55 8792.48,1128.66 8792.48,1127.57C8792.48,1126.47 8792.11,1125.57 8791.37,1124.89C8790.71,1124.28 8789.73,1123.97 8788.44,1123.97L8787.75,1123.97L8787.75,1131.17Z" style="fill-rule:nonzero;"/>
                    <path d="M8801.47,1123.97L8797.43,1123.97L8797.43,1126.39L8801.35,1126.39L8801.35,1127.81L8797.43,1127.81L8797.43,1131.17L8801.47,1131.17L8801.47,1132.6L8795.92,1132.6L8795.92,1122.54L8801.47,1122.54L8801.47,1123.97Z" style="fill-rule:nonzero;"/>
                    <path d="M8809,1123.97L8804.97,1123.97L8804.97,1126.39L8808.89,1126.39L8808.89,1127.81L8804.97,1127.81L8804.97,1131.17L8809,1131.17L8809,1132.6L8803.46,1132.6L8803.46,1122.54L8809,1122.54L8809,1123.97Z" style="fill-rule:nonzero;"/>
                    <path d="M8812.51,1128.52L8812.51,1132.6L8811,1132.6L8811,1122.54L8812.72,1122.54C8813.56,1122.54 8814.19,1122.6 8814.62,1122.72C8815.06,1122.84 8815.44,1123.06 8815.77,1123.38C8816.35,1123.95 8816.63,1124.66 8816.63,1125.52C8816.63,1126.44 8816.33,1127.17 8815.71,1127.71C8815.09,1128.25 8814.26,1128.52 8813.22,1128.52L8812.51,1128.52ZM8812.51,1127.11L8813.08,1127.11C8814.47,1127.11 8815.17,1126.57 8815.17,1125.5C8815.17,1124.46 8814.45,1123.94 8813.01,1123.94L8812.51,1123.94L8812.51,1127.11Z" style="fill-rule:nonzero;"/>
                    <path d="M8822.31,1132.6L8822.31,1122.54L8823.82,1122.54C8824.5,1122.54 8825.03,1122.6 8825.43,1122.7C8825.83,1122.81 8826.17,1122.98 8826.45,1123.23C8826.73,1123.48 8826.96,1123.8 8827.12,1124.18C8827.29,1124.57 8827.38,1124.96 8827.38,1125.36C8827.38,1126.08 8827.1,1126.69 8826.55,1127.19C8827.08,1127.37 8827.51,1127.69 8827.81,1128.14C8828.12,1128.6 8828.28,1129.12 8828.28,1129.72C8828.28,1130.51 8828,1131.17 8827.45,1131.71C8827.11,1132.05 8826.74,1132.28 8826.32,1132.41C8825.87,1132.53 8825.3,1132.6 8824.61,1132.6L8822.31,1132.6ZM8823.83,1126.86L8824.3,1126.86C8824.87,1126.86 8825.28,1126.74 8825.54,1126.49C8825.81,1126.24 8825.94,1125.87 8825.94,1125.38C8825.94,1124.91 8825.8,1124.55 8825.53,1124.31C8825.26,1124.06 8824.87,1123.94 8824.36,1123.94L8823.83,1123.94L8823.83,1126.86ZM8823.83,1131.17L8824.77,1131.17C8825.45,1131.17 8825.95,1131.04 8826.28,1130.77C8826.61,1130.48 8826.78,1130.11 8826.78,1129.66C8826.78,1129.23 8826.62,1128.86 8826.3,1128.57C8825.98,1128.28 8825.41,1128.13 8824.6,1128.13L8823.83,1128.13L8823.83,1131.17Z" style="fill-rule:nonzero;"/>
                    <path d="M8829.62,1127.53C8829.62,1126.11 8830.14,1124.89 8831.17,1123.88C8832.2,1122.86 8833.45,1122.36 8834.9,1122.36C8836.33,1122.36 8837.56,1122.87 8838.58,1123.89C8839.61,1124.92 8840.12,1126.15 8840.12,1127.58C8840.12,1129.03 8839.61,1130.26 8838.58,1131.26C8837.54,1132.27 8836.28,1132.78 8834.82,1132.78C8833.52,1132.78 8832.35,1132.33 8831.32,1131.43C8830.18,1130.44 8829.62,1129.13 8829.62,1127.53ZM8831.15,1127.54C8831.15,1128.66 8831.52,1129.57 8832.27,1130.29C8833.01,1131 8833.86,1131.36 8834.84,1131.36C8835.89,1131.36 8836.78,1131 8837.51,1130.27C8838.23,1129.53 8838.59,1128.63 8838.59,1127.57C8838.59,1126.5 8838.24,1125.6 8837.52,1124.88C8836.81,1124.15 8835.93,1123.78 8834.88,1123.78C8833.83,1123.78 8832.95,1124.15 8832.23,1124.88C8831.51,1125.6 8831.15,1126.49 8831.15,1127.54Z" style="fill-rule:nonzero;"/>
                    <path d="M8844.45,1123.97L8844.45,1132.6L8842.93,1132.6L8842.93,1123.97L8840.62,1123.97L8840.62,1122.54L8846.75,1122.54L8846.75,1123.97L8844.45,1123.97Z" style="fill-rule:nonzero;"/>
                    <path d="M8850.88,1123.97L8850.88,1132.6L8849.36,1132.6L8849.36,1123.97L8847.05,1123.97L8847.05,1122.54L8853.18,1122.54L8853.18,1123.97L8850.88,1123.97Z" style="fill-rule:nonzero;"/>
                    <path d="M8853.72,1127.53C8853.72,1126.11 8854.24,1124.89 8855.27,1123.88C8856.31,1122.86 8857.55,1122.36 8859,1122.36C8860.43,1122.36 8861.66,1122.87 8862.68,1123.89C8863.71,1124.92 8864.23,1126.15 8864.23,1127.58C8864.23,1129.03 8863.71,1130.26 8862.68,1131.26C8861.64,1132.27 8860.39,1132.78 8858.92,1132.78C8857.62,1132.78 8856.46,1132.33 8855.42,1131.43C8854.29,1130.44 8853.72,1129.13 8853.72,1127.53ZM8855.25,1127.54C8855.25,1128.66 8855.62,1129.57 8856.37,1130.29C8857.11,1131 8857.97,1131.36 8858.94,1131.36C8859.99,1131.36 8860.88,1131 8861.61,1130.27C8862.33,1129.53 8862.7,1128.63 8862.7,1127.57C8862.7,1126.5 8862.34,1125.6 8861.62,1124.88C8860.91,1124.15 8860.03,1123.78 8858.98,1123.78C8857.93,1123.78 8857.05,1124.15 8856.33,1124.88C8855.61,1125.6 8855.25,1126.49 8855.25,1127.54Z" style="fill-rule:nonzero;"/>
                    <path d="M8865.78,1132.6L8867.9,1121.79L8871.35,1129.6L8874.92,1121.79L8876.82,1132.6L8875.27,1132.6L8874.3,1126.53L8871.32,1133.06L8868.43,1126.52L8867.35,1132.6L8865.78,1132.6Z" style="fill-rule:nonzero;"/>
                </g>
            </g>
        </g>
    </g>
    <g id="Captive-Ball" serif:id="Captive Ball">
        <g id="ROUT-TOP1" serif:id="ROUT TOP">
            <path d="M4797.5,6673.82C4798.04,6673.83 4798.58,6673.86 4799.11,6673.93C4800.1,6674.05 4801.07,6674.28 4802.01,6674.61C4803.94,6675.29 4805.71,6676.4 4807.17,6677.83C4808.64,6679.25 4809.78,6681 4810.51,6682.91C4810.93,6684 4811.2,6685.14 4811.33,6686.3C4811.39,6686.78 4811.41,6687.26 4811.43,6687.74C4811.49,6702.49 4811.45,6717.25 4811.43,6732C4811.42,6732.92 4811.39,6733.85 4811.35,6734.77C4811.26,6736.46 4811.11,6738.15 4810.88,6739.83C4810.56,6742.24 4810.09,6744.64 4809.48,6746.99C4808.92,6749.2 4808.23,6751.36 4807.42,6753.49C4805.61,6758.26 4803.19,6762.79 4800.26,6766.97C4797.71,6770.6 4794.77,6773.96 4791.5,6776.96C4788.5,6779.72 4785.23,6782.18 4781.75,6784.3C4777.48,6786.9 4772.89,6788.97 4768.12,6790.46C4764.95,6791.44 4761.7,6792.17 4758.41,6792.63C4754.77,6793.14 4751.09,6793.32 4747.42,6793.18C4743.67,6793.04 4739.93,6792.56 4736.26,6791.74C4733.06,6791.02 4729.91,6790.04 4726.86,6788.81C4722.82,6787.19 4718.96,6785.14 4715.35,6782.7C4712.59,6780.83 4709.98,6778.74 4707.56,6776.46C4701.7,6770.95 4696.93,6764.28 4693.62,6756.95C4692.69,6754.9 4691.87,6752.79 4691.18,6750.64C4690.11,6747.37 4689.33,6744.01 4688.83,6740.6C4688.54,6738.67 4688.35,6736.72 4688.25,6734.77C4688.21,6733.85 4688.18,6732.93 4688.17,6732C4688.12,6717.25 4688.05,6702.49 4688.17,6687.74C4688.18,6687.32 4688.2,6686.9 4688.24,6686.48C4688.36,6685.32 4688.63,6684.17 4689.03,6683.07C4689.5,6681.79 4690.16,6680.57 4690.98,6679.48C4692.61,6677.3 4694.87,6675.61 4697.43,6674.67C4698.41,6674.31 4699.44,6674.06 4700.48,6673.93C4701.02,6673.86 4701.56,6673.83 4702.1,6673.82C4733.9,6673.61 4765.7,6673.61 4797.5,6673.82Z" style="fill:rgb(47,47,47);fill-opacity:0.509804;"/>
            <g transform="matrix(0.643649,0,0,0.643649,-932.803,5963.7)">
                <path d="M8801.54,1114.58L8804.66,1118.87L8802.8,1118.87L8799.93,1114.75L8799.66,1114.75L8799.66,1118.87L8798.14,1118.87L8798.14,1108.81L8799.92,1108.81C8801.24,1108.81 8802.2,1109.06 8802.79,1109.56C8803.44,1110.12 8803.77,1110.85 8803.77,1111.76C8803.77,1112.48 8803.57,1113.09 8803.16,1113.6C8802.75,1114.11 8802.21,1114.44 8801.54,1114.58ZM8799.66,1113.43L8800.14,1113.43C8801.57,1113.43 8802.29,1112.88 8802.29,1111.78C8802.29,1110.75 8801.59,1110.24 8800.2,1110.24L8799.66,1110.24L8799.66,1113.43Z" style="fill-rule:nonzero;"/>
                <path d="M8805.44,1113.79C8805.44,1112.38 8805.95,1111.16 8806.99,1110.15C8808.02,1109.13 8809.27,1108.62 8810.72,1108.62C8812.15,1108.62 8813.38,1109.14 8814.4,1110.16C8815.43,1111.19 8815.94,1112.42 8815.94,1113.85C8815.94,1115.3 8815.43,1116.53 8814.4,1117.53C8813.36,1118.54 8812.1,1119.05 8810.64,1119.05C8809.34,1119.05 8808.18,1118.6 8807.14,1117.7C8806.01,1116.71 8805.44,1115.4 8805.44,1113.79ZM8806.97,1113.81C8806.97,1114.92 8807.34,1115.84 8808.09,1116.56C8808.83,1117.27 8809.69,1117.63 8810.66,1117.63C8811.71,1117.63 8812.6,1117.27 8813.33,1116.54C8814.05,1115.8 8814.41,1114.9 8814.41,1113.84C8814.41,1112.77 8814.06,1111.87 8813.34,1111.14C8812.63,1110.42 8811.75,1110.05 8810.7,1110.05C8809.65,1110.05 8808.77,1110.42 8808.05,1111.14C8807.33,1111.87 8806.97,1112.76 8806.97,1113.81Z" style="fill-rule:nonzero;"/>
                <path d="M8819.37,1108.81L8819.37,1114.87C8819.37,1115.73 8819.51,1116.36 8819.79,1116.76C8820.21,1117.34 8820.81,1117.63 8821.57,1117.63C8822.34,1117.63 8822.93,1117.34 8823.35,1116.76C8823.64,1116.38 8823.78,1115.75 8823.78,1114.87L8823.78,1108.81L8825.29,1108.81L8825.29,1115.29C8825.29,1116.34 8824.96,1117.22 8824.3,1117.9C8823.56,1118.67 8822.65,1119.05 8821.57,1119.05C8820.49,1119.05 8819.58,1118.67 8818.84,1117.9C8818.18,1117.22 8817.85,1116.34 8817.85,1115.29L8817.85,1108.81L8819.37,1108.81Z" style="fill-rule:nonzero;"/>
                <path d="M8830.48,1110.24L8830.48,1118.87L8828.96,1118.87L8828.96,1110.24L8826.65,1110.24L8826.65,1108.81L8832.78,1108.81L8832.78,1110.24L8830.48,1110.24Z" style="fill-rule:nonzero;"/>
                <path d="M8838.2,1118.14C8838.2,1117.89 8838.29,1117.68 8838.46,1117.51C8838.64,1117.33 8838.85,1117.24 8839.1,1117.24C8839.35,1117.24 8839.56,1117.33 8839.74,1117.51C8839.92,1117.68 8840.01,1117.9 8840.01,1118.14C8840.01,1118.39 8839.92,1118.61 8839.74,1118.79C8839.57,1118.96 8839.35,1119.05 8839.1,1119.05C8838.85,1119.05 8838.63,1118.96 8838.46,1118.79C8838.28,1118.61 8838.2,1118.4 8838.2,1118.14Z" style="fill-rule:nonzero;"/>
                <path d="M8841.73,1113.78C8841.73,1112.17 8842.1,1110.89 8842.84,1109.94C8843.51,1109.08 8844.32,1108.64 8845.27,1108.64C8846.22,1108.64 8847.03,1109.08 8847.7,1109.94C8848.45,1110.89 8848.82,1112.19 8848.82,1113.84C8848.82,1115.48 8848.45,1116.78 8847.7,1117.73C8847.03,1118.6 8846.23,1119.03 8845.28,1119.03C8844.33,1119.03 8843.52,1118.6 8842.84,1117.73C8842.1,1116.78 8841.73,1115.46 8841.73,1113.78ZM8843.22,1113.78C8843.22,1114.9 8843.41,1115.82 8843.8,1116.56C8844.18,1117.29 8844.68,1117.65 8845.27,1117.65C8845.87,1117.65 8846.36,1117.29 8846.75,1116.56C8847.14,1115.84 8847.34,1114.93 8847.34,1113.83C8847.34,1112.74 8847.14,1111.82 8846.75,1111.1C8846.36,1110.38 8845.87,1110.02 8845.27,1110.02C8844.68,1110.02 8844.19,1110.38 8843.8,1111.1C8843.41,1111.82 8843.22,1112.71 8843.22,1113.78Z" style="fill-rule:nonzero;"/>
                <path d="M8854.62,1108.46L8855.74,1109.3L8853.33,1112.56C8853.46,1112.55 8853.58,1112.53 8853.67,1112.53C8853.76,1112.52 8853.83,1112.51 8853.88,1112.51C8854.7,1112.51 8855.4,1112.82 8856,1113.45C8856.59,1114.07 8856.88,1114.81 8856.88,1115.68C8856.88,1116.6 8856.55,1117.39 8855.89,1118.05C8855.24,1118.7 8854.45,1119.03 8853.53,1119.03C8852.62,1119.03 8851.82,1118.71 8851.13,1118.06C8850.46,1117.41 8850.12,1116.65 8850.12,1115.76C8850.12,1114.97 8850.45,1114.12 8851.11,1113.24L8854.62,1108.46ZM8855.4,1115.77C8855.4,1115.24 8855.22,1114.79 8854.85,1114.42C8854.48,1114.05 8854.03,1113.86 8853.5,1113.86C8852.97,1113.86 8852.52,1114.04 8852.16,1114.41C8851.79,1114.78 8851.6,1115.23 8851.6,1115.75C8851.6,1116.28 8851.79,1116.73 8852.16,1117.1C8852.52,1117.46 8852.98,1117.65 8853.51,1117.65C8854.03,1117.65 8854.48,1117.46 8854.84,1117.1C8855.22,1116.72 8855.4,1116.28 8855.4,1115.77Z" style="fill-rule:nonzero;"/>
                <path d="M8860.96,1117.44L8864.7,1117.44L8864.7,1118.87L8857.95,1118.87L8861.44,1114.64C8861.78,1114.22 8862.07,1113.86 8862.3,1113.55C8862.53,1113.24 8862.71,1112.98 8862.83,1112.77C8863.08,1112.36 8863.2,1112 8863.2,1111.67C8863.2,1111.2 8863.04,1110.81 8862.71,1110.49C8862.38,1110.18 8861.97,1110.02 8861.49,1110.02C8860.47,1110.02 8859.89,1110.62 8859.74,1111.82L8858.23,1111.82C8858.47,1109.7 8859.54,1108.64 8861.44,1108.64C8862.35,1108.64 8863.12,1108.94 8863.74,1109.52C8864.37,1110.1 8864.68,1110.82 8864.68,1111.68C8864.68,1112.23 8864.54,1112.76 8864.25,1113.29C8864.1,1113.56 8863.88,1113.88 8863.6,1114.26C8863.31,1114.63 8862.95,1115.08 8862.52,1115.59L8860.96,1117.44Z" style="fill-rule:nonzero;"/>
                <path d="M8801.94,1132.6L8801.94,1122.54L8804.05,1122.54C8805.06,1122.54 8805.86,1122.64 8806.45,1122.84C8807.08,1123.04 8807.65,1123.37 8808.16,1123.84C8809.2,1124.79 8809.72,1126.03 8809.72,1127.57C8809.72,1129.12 8809.18,1130.37 8808.1,1131.32C8807.55,1131.8 8806.99,1132.13 8806.39,1132.32C8805.84,1132.5 8805.05,1132.6 8804.03,1132.6L8801.94,1132.6ZM8803.46,1131.17L8804.14,1131.17C8804.83,1131.17 8805.39,1131.1 8805.84,1130.96C8806.3,1130.8 8806.7,1130.56 8807.07,1130.23C8807.81,1129.55 8808.19,1128.66 8808.19,1127.57C8808.19,1126.47 8807.82,1125.57 8807.08,1124.89C8806.42,1124.28 8805.44,1123.97 8804.14,1123.97L8803.46,1123.97L8803.46,1131.17Z" style="fill-rule:nonzero;"/>
                <path d="M8817.17,1123.97L8813.14,1123.97L8813.14,1126.39L8817.05,1126.39L8817.05,1127.81L8813.14,1127.81L8813.14,1131.17L8817.17,1131.17L8817.17,1132.6L8811.62,1132.6L8811.62,1122.54L8817.17,1122.54L8817.17,1123.97Z" style="fill-rule:nonzero;"/>
                <path d="M8824.71,1123.97L8820.68,1123.97L8820.68,1126.39L8824.59,1126.39L8824.59,1127.81L8820.68,1127.81L8820.68,1131.17L8824.71,1131.17L8824.71,1132.6L8819.16,1132.6L8819.16,1122.54L8824.71,1122.54L8824.71,1123.97Z" style="fill-rule:nonzero;"/>
                <path d="M8828.22,1128.52L8828.22,1132.6L8826.7,1132.6L8826.7,1122.54L8828.42,1122.54C8829.26,1122.54 8829.9,1122.6 8830.33,1122.72C8830.76,1122.84 8831.15,1123.06 8831.48,1123.38C8832.05,1123.95 8832.34,1124.66 8832.34,1125.52C8832.34,1126.44 8832.03,1127.17 8831.42,1127.71C8830.8,1128.25 8829.97,1128.52 8828.92,1128.52L8828.22,1128.52ZM8828.22,1127.11L8828.79,1127.11C8830.18,1127.11 8830.88,1126.57 8830.88,1125.5C8830.88,1124.46 8830.16,1123.94 8828.72,1123.94L8828.22,1123.94L8828.22,1127.11Z" style="fill-rule:nonzero;"/>
                <path d="M8840.79,1123.97L8840.79,1132.6L8839.27,1132.6L8839.27,1123.97L8836.96,1123.97L8836.96,1122.54L8843.1,1122.54L8843.1,1123.97L8840.79,1123.97Z" style="fill-rule:nonzero;"/>
                <path d="M8843.63,1127.53C8843.63,1126.11 8844.15,1124.89 8845.19,1123.88C8846.22,1122.86 8847.46,1122.36 8848.91,1122.36C8850.34,1122.36 8851.57,1122.87 8852.59,1123.89C8853.62,1124.92 8854.14,1126.15 8854.14,1127.58C8854.14,1129.03 8853.62,1130.26 8852.59,1131.26C8851.55,1132.27 8850.3,1132.78 8848.83,1132.78C8847.53,1132.78 8846.37,1132.33 8845.34,1131.43C8844.2,1130.44 8843.63,1129.13 8843.63,1127.53ZM8845.16,1127.54C8845.16,1128.66 8845.53,1129.57 8846.28,1130.29C8847.02,1131 8847.88,1131.36 8848.85,1131.36C8849.91,1131.36 8850.8,1131 8851.52,1130.27C8852.25,1129.53 8852.61,1128.63 8852.61,1127.57C8852.61,1126.5 8852.25,1125.6 8851.53,1124.88C8850.82,1124.15 8849.94,1123.78 8848.89,1123.78C8847.84,1123.78 8846.96,1124.15 8846.24,1124.88C8845.52,1125.6 8845.16,1126.49 8845.16,1127.54Z" style="fill-rule:nonzero;"/>
                <path d="M8857.56,1128.52L8857.56,1132.6L8856.05,1132.6L8856.05,1122.54L8857.76,1122.54C8858.61,1122.54 8859.24,1122.6 8859.67,1122.72C8860.11,1122.84 8860.49,1123.06 8860.82,1123.38C8861.4,1123.95 8861.68,1124.66 8861.68,1125.52C8861.68,1126.44 8861.38,1127.17 8860.76,1127.71C8860.14,1128.25 8859.31,1128.52 8858.26,1128.52L8857.56,1128.52ZM8857.56,1127.11L8858.13,1127.11C8859.52,1127.11 8860.22,1126.57 8860.22,1125.5C8860.22,1124.46 8859.5,1123.94 8858.06,1123.94L8857.56,1123.94L8857.56,1127.11Z" style="fill-rule:nonzero;"/>
            </g>
        </g>
    </g>
    <g id="T-6-R-PlasMet-POST" serif:id="T-6 R PlasMet POST">
        <g id="Rout-Top1" serif:id="Rout Top">
            <path d="M3704.45,8269.72C3704.47,8244.12 3666.03,8244.11 3666.05,8269.72C3666.02,8295.31 3704.46,8295.32 3704.45,8269.72L3704.45,8269.72Z" style="fill:rgb(47,47,47);fill-opacity:0.509804;"/>
            <g transform="matrix(0.649966,0,0,0.649966,-3202.25,7838.6)">
                <path d="M10568.2,602.983L10571.3,607.201L10569.4,607.201L10566.6,603.15L10566.3,603.15L10566.3,607.201L10564.8,607.201L10564.8,597.303L10566.6,597.303C10567.9,597.303 10568.8,597.549 10569.4,598.04C10570.1,598.587 10570.4,599.31 10570.4,600.207C10570.4,600.908 10570.2,601.511 10569.8,602.015C10569.4,602.519 10568.9,602.842 10568.2,602.983ZM10566.3,601.848L10566.8,601.848C10568.2,601.848 10568.9,601.308 10568.9,600.226C10568.9,599.213 10568.2,598.707 10566.9,598.707L10566.3,598.707L10566.3,601.848Z" style="fill-rule:nonzero;"/>
                <path d="M10572,602.207C10572,600.814 10572.5,599.617 10573.6,598.617C10574.6,597.617 10575.8,597.117 10577.2,597.117C10578.6,597.117 10579.8,597.622 10580.9,598.63C10581.9,599.639 10582.4,600.85 10582.4,602.265C10582.4,603.688 10581.9,604.895 10580.8,605.887C10579.8,606.883 10578.6,607.381 10577.1,607.381C10575.9,607.381 10574.7,606.938 10573.7,606.054C10572.6,605.075 10572,603.793 10572,602.207ZM10573.5,602.226C10573.5,603.321 10573.9,604.22 10574.6,604.925C10575.4,605.631 10576.2,605.983 10577.2,605.983C10578.2,605.983 10579.1,605.624 10579.8,604.906C10580.5,604.18 10580.9,603.295 10580.9,602.252C10580.9,601.197 10580.5,600.312 10579.8,599.598C10579.1,598.88 10578.2,598.521 10577.2,598.521C10576.2,598.521 10575.3,598.88 10574.6,599.598C10573.9,600.308 10573.5,601.184 10573.5,602.226Z" style="fill-rule:nonzero;"/>
                <path d="M10585.7,597.303L10585.7,603.265C10585.7,604.115 10585.9,604.737 10586.2,605.13C10586.6,605.699 10587.2,605.983 10587.9,605.983C10588.7,605.983 10589.3,605.699 10589.7,605.13C10589.9,604.75 10590.1,604.128 10590.1,603.265L10590.1,597.303L10591.6,597.303L10591.6,603.675C10591.6,604.718 10591.3,605.577 10590.6,606.252C10589.9,607.005 10589,607.381 10587.9,607.381C10586.9,607.381 10586,607.005 10585.2,606.252C10584.6,605.577 10584.3,604.718 10584.3,603.675L10584.3,597.303L10585.7,597.303Z" style="fill-rule:nonzero;"/>
                <path d="M10596.7,598.707L10596.7,607.201L10595.2,607.201L10595.2,598.707L10592.9,598.707L10592.9,597.303L10599,597.303L10599,598.707L10596.7,598.707Z" style="fill-rule:nonzero;"/>
                <path d="M10604.3,606.483C10604.3,606.244 10604.4,606.037 10604.5,605.861C10604.7,605.686 10604.9,605.598 10605.2,605.598C10605.4,605.598 10605.6,605.686 10605.8,605.861C10606,606.037 10606.1,606.246 10606.1,606.49C10606.1,606.737 10606,606.949 10605.8,607.124C10605.6,607.295 10605.4,607.381 10605.2,607.381C10604.9,607.381 10604.7,607.295 10604.5,607.124C10604.4,606.953 10604.3,606.74 10604.3,606.483Z" style="fill-rule:nonzero;"/>
                <path d="M10607.8,602.188C10607.8,600.611 10608.1,599.352 10608.9,598.412C10609.5,597.562 10610.3,597.136 10611.3,597.136C10612.2,597.136 10613,597.562 10613.6,598.412C10614.4,599.352 10614.7,600.632 10614.7,602.252C10614.7,603.868 10614.4,605.145 10613.6,606.086C10613,606.936 10612.2,607.361 10611.3,607.361C10610.3,607.361 10609.5,606.936 10608.9,606.086C10608.1,605.145 10607.8,603.846 10607.8,602.188ZM10609.2,602.194C10609.2,603.293 10609.4,604.205 10609.8,604.932C10610.2,605.645 10610.7,606.002 10611.3,606.002C10611.8,606.002 10612.3,605.645 10612.7,604.932C10613.1,604.222 10613.3,603.327 10613.3,602.246C10613.3,601.164 10613.1,600.267 10612.7,599.553C10612.3,598.844 10611.8,598.489 10611.3,598.489C10610.7,598.489 10610.2,598.844 10609.8,599.553C10609.4,600.258 10609.2,601.139 10609.2,602.194Z" style="fill-rule:nonzero;"/>
                <path d="M10618.3,607.541L10617.2,606.727L10619.5,603.502C10619.4,603.519 10619.3,603.532 10619.2,603.541C10619.1,603.549 10619,603.553 10619,603.553C10618.2,603.553 10617.5,603.248 10616.9,602.637C10616.3,602.03 10616,601.299 10616,600.444C10616,599.534 10616.4,598.756 10617,598.111C10617.6,597.461 10618.4,597.136 10619.3,597.136C10620.2,597.136 10621,597.457 10621.7,598.098C10622.4,598.735 10622.7,599.487 10622.7,600.355C10622.7,601.124 10622.4,601.955 10621.7,602.848L10618.3,607.541ZM10617.5,600.335C10617.5,600.87 10617.7,601.318 10618,601.682C10618.4,602.049 10618.8,602.233 10619.4,602.233C10619.9,602.233 10620.3,602.051 10620.7,601.688C10621,601.32 10621.2,600.878 10621.2,600.361C10621.2,599.844 10621,599.402 10620.7,599.034C10620.3,598.671 10619.9,598.489 10619.4,598.489C10618.8,598.489 10618.4,598.671 10618,599.034C10617.7,599.402 10617.5,599.835 10617.5,600.335Z" style="fill-rule:nonzero;"/>
                <path d="M10626.8,602.605L10626.8,601.329C10627.4,601.329 10627.9,601.258 10628.1,601.117C10628.5,600.87 10628.7,600.472 10628.7,599.925C10628.7,599.502 10628.5,599.158 10628.2,598.893C10628,598.624 10627.6,598.489 10627.2,598.489C10626.7,598.489 10626.4,598.59 10626.2,598.79C10626,598.996 10625.8,599.342 10625.7,599.829L10624.2,599.829C10624.4,598.897 10624.7,598.215 10625.2,597.781C10625.7,597.347 10626.3,597.13 10627.2,597.13C10628,597.13 10628.8,597.386 10629.3,597.899C10629.8,598.408 10630.1,599.064 10630.1,599.867C10630.1,600.773 10629.8,601.479 10629,601.983C10629.9,602.466 10630.3,603.25 10630.3,604.336C10630.3,605.224 10630,605.951 10629.4,606.515C10628.8,607.079 10628,607.361 10627.1,607.361C10625.9,607.361 10625,606.923 10624.4,606.047C10624.2,605.68 10624,605.171 10624,604.521L10625.4,604.521C10625.5,605 10625.7,605.367 10626,605.621C10626.3,605.875 10626.7,606.002 10627.1,606.002C10627.6,606.002 10628,605.842 10628.3,605.522C10628.6,605.192 10628.8,604.776 10628.8,604.271C10628.8,603.605 10628.6,603.13 10628.1,602.848C10627.8,602.686 10627.4,602.605 10626.8,602.605Z" style="fill-rule:nonzero;"/>
                <path d="M10568.6,620.721L10568.6,610.823L10570.7,610.823C10571.7,610.823 10572.4,610.921 10573,611.118C10573.6,611.31 10574.2,611.637 10574.7,612.099C10575.7,613.03 10576.2,614.255 10576.2,615.772C10576.2,617.294 10575.7,618.524 10574.6,619.465C10574.1,619.935 10573.6,620.262 10573,620.445C10572.4,620.629 10571.6,620.721 10570.6,620.721L10568.6,620.721ZM10570.1,619.317L10570.8,619.317C10571.4,619.317 10572,619.247 10572.4,619.106C10572.9,618.956 10573.3,618.719 10573.6,618.394C10574.4,617.723 10574.7,616.849 10574.7,615.772C10574.7,614.687 10574.4,613.806 10573.6,613.131C10573,612.528 10572,612.227 10570.8,612.227L10570.1,612.227L10570.1,619.317Z" style="fill-rule:nonzero;"/>
                <path d="M10583.6,612.227L10579.6,612.227L10579.6,614.605L10583.5,614.605L10583.5,616.009L10579.6,616.009L10579.6,619.317L10583.6,619.317L10583.6,620.721L10578.1,620.721L10578.1,610.823L10583.6,610.823L10583.6,612.227Z" style="fill-rule:nonzero;"/>
                <path d="M10591,612.227L10587,612.227L10587,614.605L10590.9,614.605L10590.9,616.009L10587,616.009L10587,619.317L10591,619.317L10591,620.721L10585.5,620.721L10585.5,610.823L10591,610.823L10591,612.227Z" style="fill-rule:nonzero;"/>
                <path d="M10594.5,616.702L10594.5,620.721L10593,620.721L10593,610.823L10594.7,610.823C10595.5,610.823 10596.1,610.881 10596.5,610.996C10597,611.112 10597.3,611.33 10597.7,611.65C10598.2,612.206 10598.5,612.907 10598.5,613.753C10598.5,614.659 10598.2,615.377 10597.6,615.907C10597,616.437 10596.2,616.702 10595.2,616.702L10594.5,616.702ZM10594.5,615.317L10595,615.317C10596.4,615.317 10597.1,614.789 10597.1,613.733C10597.1,612.712 10596.4,612.201 10595,612.201L10594.5,612.201L10594.5,615.317Z" style="fill-rule:nonzero;"/>
                <path d="M10606.8,612.227L10606.8,620.721L10605.3,620.721L10605.3,612.227L10603.1,612.227L10603.1,610.823L10609.1,610.823L10609.1,612.227L10606.8,612.227Z" style="fill-rule:nonzero;"/>
                <path d="M10609.6,615.727C10609.6,614.334 10610.1,613.137 10611.2,612.137C10612.2,611.137 10613.4,610.637 10614.8,610.637C10616.2,610.637 10617.5,611.141 10618.5,612.15C10619.5,613.159 10620,614.37 10620,615.785C10620,617.208 10619.5,618.415 10618.5,619.407C10617.4,620.403 10616.2,620.901 10614.8,620.901C10613.5,620.901 10612.3,620.458 10611.3,619.574C10610.2,618.595 10609.6,617.313 10609.6,615.727ZM10611.1,615.746C10611.1,616.84 10611.5,617.74 10612.2,618.445C10613,619.15 10613.8,619.503 10614.8,619.503C10615.8,619.503 10616.7,619.144 10617.4,618.426C10618.1,617.7 10618.5,616.815 10618.5,615.772C10618.5,614.716 10618.1,613.832 10617.4,613.118C10616.7,612.4 10615.9,612.041 10614.8,612.041C10613.8,612.041 10612.9,612.4 10612.2,613.118C10611.5,613.828 10611.1,614.704 10611.1,615.746Z" style="fill-rule:nonzero;"/>
                <path d="M10623.4,616.702L10623.4,620.721L10621.9,620.721L10621.9,610.823L10623.6,610.823C10624.4,610.823 10625,610.881 10625.4,610.996C10625.9,611.112 10626.2,611.33 10626.6,611.65C10627.1,612.206 10627.4,612.907 10627.4,613.753C10627.4,614.659 10627.1,615.377 10626.5,615.907C10625.9,616.437 10625.1,616.702 10624,616.702L10623.4,616.702ZM10623.4,615.317L10623.9,615.317C10625.3,615.317 10626,614.789 10626,613.733C10626,612.712 10625.3,612.201 10623.8,612.201L10623.4,612.201L10623.4,615.317Z" style="fill-rule:nonzero;"/>
            </g>
        </g>
    </g>
</svg>
