<?xml version="1.0" encoding="UTF-8" standalone="no"?>
<!DOCTYPE svg PUBLIC "-//W3C//DTD SVG 1.1//EN" "http://www.w3.org/Graphics/SVG/1.1/DTD/svg11.dtd">
<svg width="5882px" height="11466px" version="1.1" xmlns="http://www.w3.org/2000/svg" xmlns:xlink="http://www.w3.org/1999/xlink" xml:space="preserve" xmlns:serif="http://www.serif.com/" style="fill-rule:evenodd;clip-rule:evenodd;stroke-linecap:round;stroke-linejoin:round;stroke-miterlimit:10;">
    <g id="Adj-Post" serif:id="Adj Post">
        <g id="Rubber-Loose" serif:id="Rubber Loose">
            <path d="M3596.6,7346.41C3619.12,7346.41 3637.4,7364.69 3637.4,7387.21C3637.4,7409.73 3619.12,7428.01 3596.6,7428.01C3574.08,7428.01 3555.8,7409.73 3555.8,7387.21C3555.8,7364.69 3574.08,7346.41 3596.6,7346.41ZM3596.6,7366.81C3607.86,7366.81 3617,7375.95 3617,7387.21C3617,7398.47 3607.86,7407.61 3596.6,7407.61C3585.34,7407.61 3576.2,7398.47 3576.2,7387.21C3576.2,7375.95 3585.34,7366.81 3596.6,7366.81Z" style="fill:rgb(156,156,156);fill-opacity:0.717647;"/>
        </g>
        <g id="Rubber-Tight" serif:id="Rubber Tight">
            <path d="M3596.6,7351.45C3616.34,7351.45 3632.36,7367.47 3632.36,7387.21C3632.36,7406.94 3616.34,7422.97 3596.6,7422.97C3576.86,7422.97 3560.84,7406.94 3560.84,7387.21C3560.84,7367.47 3576.86,7351.45 3596.6,7351.45ZM3596.6,7366.81C3607.86,7366.81 3617,7375.95 3617,7387.21C3617,7398.47 3607.86,7407.61 3596.6,7407.61C3585.34,7407.61 3576.2,7398.47 3576.2,7387.21C3576.2,7375.95 3585.34,7366.81 3596.6,7366.81Z" style="fill:rgb(156,156,156);fill-opacity:0.717647;"/>
        </g>
    </g>
</svg>
