<?xml version="1.0" encoding="UTF-8" standalone="no"?>
<!DOCTYPE svg PUBLIC "-//W3C//DTD SVG 1.1//EN" "http://www.w3.org/Graphics/SVG/1.1/DTD/svg11.dtd">
<svg width="5882px" height="11466px" version="1.1" xmlns="http://www.w3.org/2000/svg" xmlns:xlink="http://www.w3.org/1999/xlink" xml:space="preserve" xmlns:serif="http://www.serif.com/" style="fill-rule:evenodd;clip-rule:evenodd;stroke-linecap:round;stroke-linejoin:round;stroke-miterlimit:10;">
    <g id="Spinner">
        <g id="Assembly-Top2" serif:id="Assembly Top">
            <path id="Sticker" d="M3601.75,4923.83C3601.75,4919.92 3598.57,4916.74 3594.66,4916.74L3526.17,4916.74C3522.26,4916.74 3519.08,4919.92 3519.08,4923.83L3519.08,5023.67C3519.08,5027.58 3522.26,5030.76 3526.17,5030.76L3594.66,5030.76C3598.57,5030.76 3601.75,5027.58 3601.75,5023.67L3601.75,4923.83Z" style="fill:white;stroke:black;stroke-width:1.33px;stroke-miterlimit:2.613;"/>
        </g>
    </g>
    <g id="Scoop">
        <g id="Assembly-Top8" serif:id="Assembly Top">
            <g id="Sticker1" serif:id="Sticker">
                <path d="M4347.88,6748.66C4347.88,6746.41 4346.05,6744.59 4343.8,6744.59L4232.49,6744.59C4230.24,6744.59 4228.42,6746.41 4228.42,6748.66L4228.42,6894.54C4228.42,6896.79 4230.24,6898.62 4232.49,6898.62L4343.8,6898.62C4346.05,6898.62 4347.88,6896.79 4347.88,6894.54L4347.88,6748.66Z" style="fill:white;stroke:black;stroke-width:2px;stroke-miterlimit:2.613;"/>
            </g>
        </g>
    </g>
</svg>
