<?xml version="1.0" encoding="UTF-8" standalone="no"?>
<!DOCTYPE svg PUBLIC "-//W3C//DTD SVG 1.1//EN" "http://www.w3.org/Graphics/SVG/1.1/DTD/svg11.dtd">
<svg width="4544px" height="5760px" version="1.1" xmlns="http://www.w3.org/2000/svg" xmlns:xlink="http://www.w3.org/1999/xlink" xml:space="preserve" style="fill-rule:evenodd;clip-rule:evenodd;stroke-linejoin:round;stroke-miterlimit:1.41421;">
    <g clip-path="url(#_clip1)">
        <g id="Playfield-Outline-.--Top-Bottom-Sticker-Drill-Rout-Plastic-Bevel-Art-Assembly-Rubber-Todo">
            <path d="M250.028,382.57L2193.89,382.57L2193.89,4510.83L2133.9,4510.83L2133.9,4408.84L2133.89,4408.84C2133.89,4402.23 2128.51,4396.84 2121.89,4396.84L2091.95,4396.84L2092.01,4221.88L2092,4221.87C2092,4216.92 2087.96,4212.88 2083.01,4212.88C2078.05,4212.88 2074.01,4216.92 2074.01,4221.87L2074.01,4221.88L2074.06,4396.84L2013.9,4396.84C2007.29,4396.84 2001.91,4402.23 2001.91,4408.84L2001.91,4799.99L1329.95,4799.99L1105.57,4532.58L1105.56,4532.54C1101.06,4527.19 1094.21,4524.01 1087.18,4524.01L771.991,4524.01C758.778,4524.01 747.992,4534.79 747.992,4548L747.992,4799.99L551.237,4799.99L375.011,4647.61L375.011,4549.55C375.011,4536.34 364.232,4525.56 351.012,4525.56L250.028,4525.56L250.028,382.57Z" style="fill:none;stroke:rgb(35,31,32);stroke-width:1.11px;stroke-linecap:round;stroke-miterlimit:2.613;"/>
        </g>
        <g id="Playfield-Guides-.--Top-Bottom-Sticker-Drill-Rout-Plastic-Bevel-Art-Assembly-Rubber-Todo">
            <path d="M433.899,4799.99L225.12,4799.99" style="fill:none;stroke:rgb(35,31,32);stroke-width:1.11px;stroke-linecap:round;stroke-miterlimit:2.613;"/>
            <path d="M2210.9,4799.99L2099.49,4799.99" style="fill:none;stroke:rgb(35,31,32);stroke-width:1.11px;stroke-linecap:round;stroke-miterlimit:2.613;"/>
            <path d="M2194.03,4817.86L2194.03,4763.96" style="fill:none;stroke:black;stroke-width:0.74px;stroke-linecap:round;stroke-miterlimit:10;"/>
            <path d="M250.14,4823.45L250.14,4758.68" style="fill:none;stroke:black;stroke-width:0.74px;stroke-linecap:round;stroke-miterlimit:10;"/>
        </g>
        <g id="Scoop">
            <g id="Assembly-Top">
                <g id="Sticker">
                    <path d="M2842.92,2860.49C2844.34,2858.74 2844.07,2856.17 2842.32,2854.76L2755.82,2784.71C2754.07,2783.29 2751.5,2783.56 2750.09,2785.31L2658.28,2898.68C2656.87,2900.43 2657.14,2902.99 2658.88,2904.41L2745.39,2974.46C2747.13,2975.87 2749.7,2975.61 2751.11,2973.86L2842.92,2860.49Z" style="fill:white;stroke:black;stroke-width:2px;stroke-linecap:round;stroke-miterlimit:2.613;"/>
                </g>
            </g>
        </g>
        <g id="Scoop1">
            <g id="Assembly-Top1">
                <g id="Sticker1">
                    <path d="M1469.26,1413.89C1470.09,1411.8 1469.06,1409.43 1466.97,1408.6L1363.42,1367.76C1361.33,1366.93 1358.97,1367.96 1358.14,1370.05L1304.61,1505.76C1303.78,1507.85 1304.81,1510.21 1306.9,1511.04L1410.44,1551.89C1412.54,1552.71 1414.9,1551.68 1415.73,1549.59L1469.26,1413.89Z" style="fill:white;stroke:black;stroke-width:2px;stroke-linecap:round;stroke-miterlimit:2.613;"/>
                </g>
            </g>
        </g>
        <g id="Apron">
            <g opacity="0.791957">
                <g id="Sticker2">
                    <g opacity="0.347655">
                        <path d="M2029.28,4438.82L2029.28,4721.56C2029.28,4734.91 2040.11,4745.73 2053.45,4745.73L2150.16,4745.73C2163.51,4745.73 2174.33,4734.91 2174.33,4721.56L2174.33,4438.82C2174.33,4425.47 2163.51,4414.65 2150.16,4414.65L2053.45,4414.65C2040.11,4414.65 2029.28,4425.47 2029.28,4438.82ZM2114.52,4463.44C2114.52,4447.83 2101.86,4435.17 2086.24,4435.17C2070.62,4435.18 2057.97,4447.83 2057.97,4463.44L2057.97,4619.15C2057.97,4634.77 2070.63,4647.43 2086.24,4647.43C2101.86,4647.43 2114.52,4634.77 2114.52,4619.15L2114.52,4463.44Z" style="fill:white;stroke:black;stroke-width:1.48px;stroke-linecap:round;stroke-miterlimit:10;"/>
                        <path d="M1411.68,4379.38C1409.38,4380.99 1408.02,4383.62 1408.02,4386.42L1408.02,4410.19C1408.02,4414.94 1411.87,4418.8 1416.62,4418.8L1982.93,4418.7C1987.68,4418.7 1991.53,4414.85 1991.53,4410.1L1991.61,4029.1C1991.61,4024.35 1987.75,4020.5 1983,4020.5L1926.45,4020.5C1924.69,4020.5 1922.96,4021.05 1921.52,4022.06L1411.68,4379.38Z" style="fill:white;stroke:black;stroke-width:1.33px;stroke-linecap:round;stroke-miterlimit:10;"/>
                        <path d="M858.758,4379.38C861.06,4380.99 862.426,4383.62 862.426,4386.42L862.427,4410.19C862.427,4414.94 858.573,4418.8 853.821,4418.8L287.516,4418.7C282.764,4418.7 278.91,4414.85 278.91,4410.1L278.838,4029.1C278.838,4024.35 282.691,4020.5 287.443,4020.5L343.989,4020.5C345.757,4020.5 347.479,4021.05 348.927,4022.06L858.758,4379.38Z" style="fill:white;stroke:black;stroke-width:1.33px;stroke-linecap:round;stroke-miterlimit:10;"/>
                        <rect x="325.762" y="4429.33" width="528" height="282" style="fill:white;stroke:black;stroke-width:1.33px;stroke-linecap:round;stroke-miterlimit:2.613;"/>
                        <path d="M484.212,4561.2L494.276,4575.05L488.276,4575.05L478.991,4561.74L478.107,4561.74L478.107,4575.05L473.201,4575.05L473.201,4542.54L478.949,4542.54C483.244,4542.54 486.346,4543.35 488.255,4544.97C490.36,4546.76 491.413,4549.13 491.413,4552.08C491.413,4554.38 490.753,4556.36 489.434,4558.02C488.114,4559.67 486.374,4560.73 484.212,4561.2ZM478.107,4557.47L479.665,4557.47C484.311,4557.47 486.634,4555.69 486.634,4552.14C486.634,4548.82 484.374,4547.15 479.854,4547.15L478.107,4547.15L478.107,4557.47Z" style="fill-rule:nonzero;"/>
                        <path d="M502.34,4554.54L502.34,4566.31C502.34,4569.71 503.68,4571.41 506.361,4571.41C509.042,4571.41 510.382,4569.71 510.382,4566.31L510.382,4554.54L515.119,4554.54L515.119,4566.42C515.119,4568.06 514.916,4569.48 514.509,4570.67C514.116,4571.74 513.435,4572.7 512.466,4573.56C510.866,4574.94 508.831,4575.64 506.361,4575.64C503.905,4575.64 501.876,4574.94 500.276,4573.56C499.294,4572.7 498.599,4571.74 498.192,4570.67C497.799,4569.72 497.603,4568.3 497.603,4566.42L497.603,4554.54L502.34,4554.54Z" style="fill-rule:nonzero;"/>
                        <rect x="521.098" y="4539.49" width="4.737" height="35.56" style="fill-rule:nonzero;"/>
                        <path d="M550.51,4565.91L535.815,4565.91C535.941,4567.6 536.489,4568.94 537.457,4569.93C538.426,4570.92 539.668,4571.41 541.184,4571.41C542.363,4571.41 543.338,4571.13 544.11,4570.57C544.868,4570.01 545.731,4568.97 546.7,4567.45L550.7,4569.68C550.082,4570.73 549.43,4571.64 548.742,4572.39C548.054,4573.14 547.317,4573.76 546.531,4574.24C545.745,4574.72 544.896,4575.08 543.984,4575.3C543.071,4575.53 542.082,4575.64 541.015,4575.64C537.955,4575.64 535.499,4574.66 533.646,4572.69C531.794,4570.71 530.867,4568.09 530.867,4564.82C530.867,4561.58 531.766,4558.95 533.562,4556.94C535.373,4554.97 537.773,4553.98 540.763,4553.98C543.78,4553.98 546.166,4554.94 547.921,4556.86C549.661,4558.77 550.531,4561.41 550.531,4564.8L550.51,4565.91ZM545.647,4562.04C544.987,4559.51 543.394,4558.25 540.868,4558.25C540.292,4558.25 539.752,4558.34 539.247,4558.51C538.741,4558.69 538.282,4558.94 537.868,4559.27C537.454,4559.6 537.099,4560 536.804,4560.46C536.51,4560.92 536.285,4561.45 536.131,4562.04L545.647,4562.04Z" style="fill-rule:nonzero;"/>
                        <path d="M567.606,4558.04L563.69,4560.12C563.072,4558.86 562.307,4558.23 561.395,4558.23C560.96,4558.23 560.588,4558.37 560.279,4558.66C559.971,4558.95 559.816,4559.32 559.816,4559.77C559.816,4560.55 560.728,4561.33 562.553,4562.1C565.065,4563.18 566.757,4564.18 567.627,4565.09C568.497,4566 568.932,4567.23 568.932,4568.78C568.932,4570.76 568.202,4572.41 566.743,4573.74C565.325,4575.01 563.613,4575.64 561.606,4575.64C558.167,4575.64 555.732,4573.96 554.3,4570.61L558.342,4568.73C558.904,4569.72 559.332,4570.34 559.627,4570.61C560.202,4571.14 560.89,4571.41 561.69,4571.41C563.29,4571.41 564.09,4570.68 564.09,4569.22C564.09,4568.38 563.472,4567.59 562.237,4566.86C561.76,4566.62 561.283,4566.39 560.806,4566.17C560.328,4565.94 559.844,4565.71 559.353,4565.47C557.977,4564.8 557.009,4564.12 556.448,4563.45C555.732,4562.59 555.374,4561.49 555.374,4560.14C555.374,4558.36 555.984,4556.89 557.205,4555.72C558.455,4554.56 559.971,4553.98 561.753,4553.98C564.378,4553.98 566.329,4555.33 567.606,4558.04Z" style="fill-rule:nonzero;"/>
                        <path d="M611.419,4544.29L611.419,4550.1C608.583,4547.73 605.65,4546.54 602.618,4546.54C599.278,4546.54 596.463,4547.74 594.176,4550.14C591.874,4552.53 590.723,4555.45 590.723,4558.9C590.723,4562.31 591.874,4565.19 594.176,4567.53C596.478,4569.88 599.299,4571.05 602.639,4571.05C604.366,4571.05 605.832,4570.77 607.039,4570.21C607.713,4569.93 608.411,4569.55 609.134,4569.07C609.857,4568.59 610.619,4568.02 611.419,4567.35L611.419,4573.26C608.611,4574.85 605.664,4575.64 602.576,4575.64C597.93,4575.64 593.965,4574.02 590.681,4570.78C587.41,4567.51 585.775,4563.56 585.775,4558.94C585.775,4554.8 587.144,4551.11 589.881,4547.87C593.249,4543.9 597.607,4541.91 602.955,4541.91C605.874,4541.91 608.696,4542.7 611.419,4544.29Z" style="fill-rule:nonzero;"/>
                        <path d="M631.82,4554.54L636.578,4554.54L636.578,4575.05L631.82,4575.05L631.82,4572.9C629.869,4574.73 627.77,4575.64 625.525,4575.64C622.689,4575.64 620.345,4574.61 618.493,4572.57C616.654,4570.48 615.735,4567.86 615.735,4564.73C615.735,4561.66 616.654,4559.1 618.493,4557.05C620.331,4555 622.633,4553.98 625.398,4553.98C627.784,4553.98 629.925,4554.96 631.82,4556.92L631.82,4554.54ZM620.577,4564.73C620.577,4566.7 621.103,4568.3 622.156,4569.53C623.237,4570.78 624.598,4571.41 626.24,4571.41C627.995,4571.41 629.412,4570.81 630.493,4569.6C631.574,4568.35 632.114,4566.76 632.114,4564.84C632.114,4562.92 631.574,4561.33 630.493,4560.08C629.412,4558.86 628.009,4558.25 626.282,4558.25C624.654,4558.25 623.293,4558.87 622.198,4560.1C621.117,4561.35 620.577,4562.9 620.577,4564.73Z" style="fill-rule:nonzero;"/>
                        <path d="M642.557,4554.54L647.294,4554.54L647.294,4556.38C648.164,4555.46 648.936,4554.84 649.61,4554.5C650.298,4554.15 651.112,4553.98 652.052,4553.98C653.301,4553.98 654.607,4554.38 655.968,4555.2L653.8,4559.53C652.901,4558.89 652.024,4558.57 651.168,4558.57C648.585,4558.57 647.294,4560.52 647.294,4564.42L647.294,4575.05L642.557,4575.05L642.557,4554.54Z" style="fill-rule:nonzero;"/>
                        <path d="M673.506,4539.49L678.264,4539.49L678.264,4575.05L673.506,4575.05L673.506,4572.9C671.639,4574.73 669.527,4575.64 667.169,4575.64C664.361,4575.64 662.032,4574.61 660.179,4572.57C658.34,4570.48 657.421,4567.86 657.421,4564.73C657.421,4561.67 658.34,4559.12 660.179,4557.07C662.003,4555.01 664.298,4553.98 667.063,4553.98C669.463,4553.98 671.611,4554.96 673.506,4556.92L673.506,4539.49ZM662.263,4564.73C662.263,4566.7 662.789,4568.3 663.842,4569.53C664.923,4570.78 666.284,4571.41 667.927,4571.41C669.681,4571.41 671.099,4570.81 672.179,4569.6C673.26,4568.35 673.801,4566.76 673.801,4564.84C673.801,4562.92 673.26,4561.33 672.179,4560.08C671.099,4558.86 669.695,4558.25 667.969,4558.25C666.341,4558.25 664.979,4558.87 663.884,4560.1C662.804,4561.35 662.263,4562.9 662.263,4564.73Z" style="fill-rule:nonzero;"/>
                        <rect x="1412.93" y="4429.33" width="528" height="282" style="fill:white;stroke:black;stroke-width:1.33px;stroke-linecap:round;stroke-miterlimit:2.613;"/>
                        <path d="M1571.38,4561.2L1581.44,4575.05L1575.44,4575.05L1566.16,4561.74L1565.27,4561.74L1565.27,4575.05L1560.37,4575.05L1560.37,4542.54L1566.12,4542.54C1570.41,4542.54 1573.51,4543.35 1575.42,4544.97C1577.53,4546.76 1578.58,4549.13 1578.58,4552.08C1578.58,4554.38 1577.92,4556.36 1576.6,4558.02C1575.28,4559.67 1573.54,4560.73 1571.38,4561.2ZM1565.27,4557.47L1566.83,4557.47C1571.48,4557.47 1573.8,4555.69 1573.8,4552.14C1573.8,4548.82 1571.54,4547.15 1567.02,4547.15L1565.27,4547.15L1565.27,4557.47Z" style="fill-rule:nonzero;"/>
                        <path d="M1589.51,4554.54L1589.51,4566.31C1589.51,4569.71 1590.85,4571.41 1593.53,4571.41C1596.21,4571.41 1597.55,4569.71 1597.55,4566.31L1597.55,4554.54L1602.29,4554.54L1602.29,4566.42C1602.29,4568.06 1602.08,4569.48 1601.67,4570.67C1601.28,4571.74 1600.6,4572.7 1599.63,4573.56C1598.03,4574.94 1596,4575.64 1593.53,4575.64C1591.07,4575.64 1589.04,4574.94 1587.44,4573.56C1586.46,4572.7 1585.77,4571.74 1585.36,4570.67C1584.97,4569.72 1584.77,4568.3 1584.77,4566.42L1584.77,4554.54L1589.51,4554.54Z" style="fill-rule:nonzero;"/>
                        <rect x="1608.26" y="4539.49" width="4.737" height="35.56" style="fill-rule:nonzero;"/>
                        <path d="M1637.68,4565.91L1622.98,4565.91C1623.11,4567.6 1623.65,4568.94 1624.62,4569.93C1625.59,4570.92 1626.83,4571.41 1628.35,4571.41C1629.53,4571.41 1630.5,4571.13 1631.28,4570.57C1632.03,4570.01 1632.9,4568.97 1633.87,4567.45L1637.87,4569.68C1637.25,4570.73 1636.6,4571.64 1635.91,4572.39C1635.22,4573.14 1634.48,4573.76 1633.7,4574.24C1632.91,4574.72 1632.06,4575.08 1631.15,4575.3C1630.24,4575.53 1629.25,4575.64 1628.18,4575.64C1625.12,4575.64 1622.66,4574.66 1620.81,4572.69C1618.96,4570.71 1618.03,4568.09 1618.03,4564.82C1618.03,4561.58 1618.93,4558.95 1620.73,4556.94C1622.54,4554.97 1624.94,4553.98 1627.93,4553.98C1630.95,4553.98 1633.33,4554.94 1635.09,4556.86C1636.83,4558.77 1637.7,4561.41 1637.7,4564.8L1637.68,4565.91ZM1632.81,4562.04C1632.15,4559.51 1630.56,4558.25 1628.03,4558.25C1627.46,4558.25 1626.92,4558.34 1626.41,4558.51C1625.91,4558.69 1625.45,4558.94 1625.03,4559.27C1624.62,4559.6 1624.27,4560 1623.97,4560.46C1623.68,4560.92 1623.45,4561.45 1623.3,4562.04L1632.81,4562.04Z" style="fill-rule:nonzero;"/>
                        <path d="M1654.77,4558.04L1650.86,4560.12C1650.24,4558.86 1649.47,4558.23 1648.56,4558.23C1648.13,4558.23 1647.75,4558.37 1647.44,4558.66C1647.14,4558.95 1646.98,4559.32 1646.98,4559.77C1646.98,4560.55 1647.89,4561.33 1649.72,4562.1C1652.23,4563.18 1653.92,4564.18 1654.79,4565.09C1655.66,4566 1656.1,4567.23 1656.1,4568.78C1656.1,4570.76 1655.37,4572.41 1653.91,4573.74C1652.49,4575.01 1650.78,4575.64 1648.77,4575.64C1645.33,4575.64 1642.9,4573.96 1641.47,4570.61L1645.51,4568.73C1646.07,4569.72 1646.5,4570.34 1646.79,4570.61C1647.37,4571.14 1648.06,4571.41 1648.86,4571.41C1650.46,4571.41 1651.26,4570.68 1651.26,4569.22C1651.26,4568.38 1650.64,4567.59 1649.4,4566.86C1648.93,4566.62 1648.45,4566.39 1647.97,4566.17C1647.49,4565.94 1647.01,4565.71 1646.52,4565.47C1645.14,4564.8 1644.17,4564.12 1643.61,4563.45C1642.9,4562.59 1642.54,4561.49 1642.54,4560.14C1642.54,4558.36 1643.15,4556.89 1644.37,4555.72C1645.62,4554.56 1647.14,4553.98 1648.92,4553.98C1651.54,4553.98 1653.5,4555.33 1654.77,4558.04Z" style="fill-rule:nonzero;"/>
                        <path d="M1698.58,4544.29L1698.58,4550.1C1695.75,4547.73 1692.82,4546.54 1689.78,4546.54C1686.44,4546.54 1683.63,4547.74 1681.34,4550.14C1679.04,4552.53 1677.89,4555.45 1677.89,4558.9C1677.89,4562.31 1679.04,4565.19 1681.34,4567.53C1683.64,4569.88 1686.47,4571.05 1689.81,4571.05C1691.53,4571.05 1693,4570.77 1694.2,4570.21C1694.88,4569.93 1695.58,4569.55 1696.3,4569.07C1697.02,4568.59 1697.78,4568.02 1698.58,4567.35L1698.58,4573.26C1695.78,4574.85 1692.83,4575.64 1689.74,4575.64C1685.1,4575.64 1681.13,4574.02 1677.85,4570.78C1674.58,4567.51 1672.94,4563.56 1672.94,4558.94C1672.94,4554.8 1674.31,4551.11 1677.05,4547.87C1680.41,4543.9 1684.77,4541.91 1690.12,4541.91C1693.04,4541.91 1695.86,4542.7 1698.58,4544.29Z" style="fill-rule:nonzero;"/>
                        <path d="M1718.99,4554.54L1723.74,4554.54L1723.74,4575.05L1718.99,4575.05L1718.99,4572.9C1717.03,4574.73 1714.94,4575.64 1712.69,4575.64C1709.86,4575.64 1707.51,4574.61 1705.66,4572.57C1703.82,4570.48 1702.9,4567.86 1702.9,4564.73C1702.9,4561.66 1703.82,4559.1 1705.66,4557.05C1707.5,4555 1709.8,4553.98 1712.56,4553.98C1714.95,4553.98 1717.09,4554.96 1718.99,4556.92L1718.99,4554.54ZM1707.74,4564.73C1707.74,4566.7 1708.27,4568.3 1709.32,4569.53C1710.4,4570.78 1711.76,4571.41 1713.41,4571.41C1715.16,4571.41 1716.58,4570.81 1717.66,4569.6C1718.74,4568.35 1719.28,4566.76 1719.28,4564.84C1719.28,4562.92 1718.74,4561.33 1717.66,4560.08C1716.58,4558.86 1715.17,4558.25 1713.45,4558.25C1711.82,4558.25 1710.46,4558.87 1709.36,4560.1C1708.28,4561.35 1707.74,4562.9 1707.74,4564.73Z" style="fill-rule:nonzero;"/>
                        <path d="M1729.72,4554.54L1734.46,4554.54L1734.46,4556.38C1735.33,4555.46 1736.1,4554.84 1736.78,4554.5C1737.46,4554.15 1738.28,4553.98 1739.22,4553.98C1740.47,4553.98 1741.77,4554.38 1743.13,4555.2L1740.97,4559.53C1740.07,4558.89 1739.19,4558.57 1738.33,4558.57C1735.75,4558.57 1734.46,4560.52 1734.46,4564.42L1734.46,4575.05L1729.72,4575.05L1729.72,4554.54Z" style="fill-rule:nonzero;"/>
                        <path d="M1760.67,4539.49L1765.43,4539.49L1765.43,4575.05L1760.67,4575.05L1760.67,4572.9C1758.81,4574.73 1756.69,4575.64 1754.34,4575.64C1751.53,4575.64 1749.2,4574.61 1747.35,4572.57C1745.51,4570.48 1744.59,4567.86 1744.59,4564.73C1744.59,4561.67 1745.51,4559.12 1747.35,4557.07C1749.17,4555.01 1751.46,4553.98 1754.23,4553.98C1756.63,4553.98 1758.78,4554.96 1760.67,4556.92L1760.67,4539.49ZM1749.43,4564.73C1749.43,4566.7 1749.95,4568.3 1751.01,4569.53C1752.09,4570.78 1753.45,4571.41 1755.09,4571.41C1756.85,4571.41 1758.27,4570.81 1759.35,4569.6C1760.43,4568.35 1760.97,4566.76 1760.97,4564.84C1760.97,4562.92 1760.43,4561.33 1759.35,4560.08C1758.27,4558.86 1756.86,4558.25 1755.13,4558.25C1753.51,4558.25 1752.14,4558.87 1751.05,4560.1C1749.97,4561.35 1749.43,4562.9 1749.43,4564.73Z" style="fill-rule:nonzero;"/>
                        <path d="M1392.64,4764.21L1392.54,4436.4C1392.54,4431.65 1388.69,4427.8 1383.94,4427.8L1351.98,4427.8C1346.85,4427.8 1341.85,4429.43 1337.7,4432.46C1217.42,4520.45 1053.99,4520.45 933.7,4432.46C929.565,4429.44 924.56,4427.79 919.43,4427.79L886.59,4427.8C881.839,4427.8 877.985,4431.65 877.985,4436.4L877.985,4764.2C877.985,4777.56 888.81,4788.38 902.16,4788.38L1368.46,4788.38C1381.81,4788.38 1392.64,4777.56 1392.64,4764.21Z" style="fill:white;stroke:black;stroke-width:1.33px;stroke-linecap:round;stroke-miterlimit:10;"/>
                    </g>
                </g>
            </g>
        </g>
        <g id="Spinner">
            <g id="Assembly-Top69">
                <path id="Sticker3" d="M2062.28,1835.83C2063.12,1832.01 2060.69,1828.22 2056.87,1827.38L1989.98,1812.67C1986.16,1811.83 1982.37,1814.25 1981.53,1818.08L1960.09,1915.59C1959.25,1919.41 1961.67,1923.2 1965.5,1924.04L2032.38,1938.74C2036.21,1939.58 2040,1937.16 2040.84,1933.34L2062.28,1835.83Z" style="fill:white;stroke:black;stroke-width:1.33px;stroke-linecap:round;stroke-miterlimit:2.613;"/>
            </g>
        </g>
        <g id="Spinner1">
            <g id="Assembly-Top70">
                <path id="Sticker4" d="M1923.01,1392.21C1924.84,1388.75 1923.51,1384.45 1920.04,1382.63L1859.44,1350.72C1855.98,1348.9 1851.69,1350.23 1849.86,1353.69L1803.35,1442.03C1801.53,1445.5 1802.86,1449.79 1806.32,1451.61L1866.92,1483.52C1870.38,1485.35 1874.67,1484.01 1876.5,1480.55L1923.01,1392.21Z" style="fill:white;stroke:black;stroke-width:1.33px;stroke-linecap:round;stroke-miterlimit:2.613;"/>
            </g>
        </g>
        <g id="Spinner2">
            <g id="Assembly-Top75">
                <path id="Sticker5" d="M407.223,1770.83C408.38,1774.57 412.356,1776.67 416.096,1775.51L481.519,1755.26C485.258,1754.1 487.355,1750.12 486.197,1746.38L456.674,1651.01C455.517,1647.27 451.541,1645.18 447.801,1646.33L382.378,1666.59C378.639,1667.74 376.542,1671.72 377.7,1675.46L407.223,1770.83Z" style="fill:white;stroke:black;stroke-width:1.33px;stroke-linecap:round;stroke-miterlimit:2.613;"/>
            </g>
        </g>
    </g>
</svg>
