<?xml version="1.0" encoding="UTF-8" standalone="no"?>
<!DOCTYPE svg PUBLIC "-//W3C//DTD SVG 1.1//EN" "http://www.w3.org/Graphics/SVG/1.1/DTD/svg11.dtd">
<svg width="4544px" height="4993px" version="1.1" xmlns="http://www.w3.org/2000/svg" xmlns:xlink="http://www.w3.org/1999/xlink" xml:space="preserve" style="fill-rule:evenodd;clip-rule:evenodd;stroke-linecap:round;stroke-linejoin:round;stroke-miterlimit:2.613;">
    <g id="Playfield-Outline-.--Top-Bottom-Sticker-Drill-Rout-Plastic-Bevel-Art-Assembly-Rubber-Todo">
        <path d="M250.028,347.831L2193.89,347.831L2193.89,4380.1L2133.9,4380.1L2133.9,4278.1L2133.89,4278.1C2133.89,4271.49 2128.51,4266.11 2121.89,4266.11L2091.95,4266.11L2092.01,4091.14L2092,4091.14C2092,4086.18 2087.96,4082.14 2083.01,4082.14C2078.05,4082.14 2074.01,4086.18 2074.01,4091.14L2074.01,4091.14L2074.06,4266.11L2013.9,4266.11C2007.29,4266.11 2001.91,4271.49 2001.91,4278.1L2001.91,4669.25L1329.95,4669.25L1105.57,4401.84L1105.56,4401.8C1101.06,4396.46 1094.21,4393.27 1087.18,4393.27L771.991,4393.27C758.778,4393.27 747.992,4404.05 747.992,4417.26L747.992,4669.25L551.237,4669.25L375.011,4516.87L375.011,4418.81C375.011,4405.6 364.232,4394.82 351.012,4394.82L250.028,4394.82L250.028,347.831Z" style="fill:none;stroke:rgb(35,31,32);stroke-width:1.11px;"/>
    </g>
    <g id="Playfield-Guides-.--Top-Bottom-Sticker-Drill-Rout-Plastic-Bevel-Art-Assembly-Rubber-Todo">
        <path d="M433.899,4669.25L225.12,4669.25" style="fill:none;stroke:rgb(35,31,32);stroke-width:1.11px;"/>
        <path d="M2210.9,4669.25L2099.49,4669.25" style="fill:none;stroke:rgb(35,31,32);stroke-width:1.11px;"/>
        <path d="M2194.03,4687.12L2194.03,4633.23" style="fill:none;stroke:black;stroke-width:0.74px;stroke-miterlimit:10;"/>
        <path d="M250.14,4692.72L250.14,4627.94" style="fill:none;stroke:black;stroke-width:0.74px;stroke-miterlimit:10;"/>
    </g>
    <g id="Scoop">
        <g id="Assembly-Top">
            <g id="Sticker">
                <path d="M2099.5,2706.51C2100.92,2704.76 2100.65,2702.19 2098.9,2700.78L2012.4,2630.73C2010.65,2629.31 2008.08,2629.58 2006.67,2631.33L1914.86,2744.7C1913.44,2746.45 1913.72,2749.01 1915.46,2750.43L2001.97,2820.48C2003.71,2821.89 2006.28,2821.62 2007.69,2819.88L2099.5,2706.51Z" style="fill:white;stroke:black;stroke-width:2px;"/>
            </g>
        </g>
    </g>
    <g id="Scoop1">
        <g id="Assembly-Top1">
            <g id="Sticker1">
                <path d="M1683.63,1357.7C1684.98,1355.9 1684.62,1353.35 1682.83,1351.99L1593.95,1284.98C1592.15,1283.63 1589.6,1283.99 1588.24,1285.79L1500.42,1402.27C1499.07,1404.07 1499.43,1406.62 1501.22,1407.98L1590.1,1474.99C1591.9,1476.34 1594.45,1475.98 1595.81,1474.18L1683.63,1357.7Z" style="fill:white;stroke:black;stroke-width:2px;"/>
            </g>
        </g>
    </g>
    <g id="Spinner">
        <g id="Assembly-Top34">
            <path id="Sticker2" d="M2067.39,1706.48C2068.23,1702.65 2065.81,1698.87 2061.98,1698.03L1995.1,1683.32C1991.27,1682.48 1987.49,1684.9 1986.64,1688.73L1965.2,1786.23C1964.37,1790.06 1966.79,1793.84 1970.61,1794.68L2037.5,1809.39C2041.32,1810.23 2045.11,1807.81 2045.95,1803.99L2067.39,1706.48Z" style="fill:white;stroke:black;stroke-width:1.33px;"/>
        </g>
    </g>
    <g id="Spinner1">
        <g id="Assembly-Top35">
            <path id="Sticker3" d="M1912.7,1325.3C1914.49,1321.82 1913.12,1317.54 1909.64,1315.75L1848.73,1284.44C1845.24,1282.65 1840.96,1284.03 1839.17,1287.51L1793.54,1376.31C1791.75,1379.79 1793.12,1384.07 1796.61,1385.86L1857.52,1417.16C1861,1418.95 1865.28,1417.58 1867.07,1414.09L1912.7,1325.3Z" style="fill:white;stroke:black;stroke-width:1.33px;"/>
        </g>
    </g>
    <g id="Spinner2">
        <g id="Assembly-Top36">
            <path id="Sticker4" d="M407.223,1640.09C408.38,1643.83 412.356,1645.93 416.096,1644.77L481.519,1624.52C485.258,1623.36 487.355,1619.39 486.197,1615.65L456.674,1520.28C455.517,1516.54 451.541,1514.44 447.801,1515.6L382.378,1535.85C378.639,1537.01 376.542,1540.98 377.7,1544.72L407.223,1640.09Z" style="fill:white;stroke:black;stroke-width:1.33px;"/>
        </g>
    </g>
    <g id="Apron">
        <g opacity="0.791957">
            <g id="Sticker5">
                <g opacity="0.347655">
                    <path d="M2029.28,4308.09L2029.28,4590.82C2029.28,4604.17 2040.11,4614.99 2053.45,4614.99L2150.16,4615C2163.51,4615 2174.33,4604.17 2174.33,4590.82L2174.33,4308.09C2174.33,4294.74 2163.51,4283.91 2150.16,4283.91L2053.45,4283.91C2040.11,4283.91 2029.28,4294.74 2029.28,4308.09ZM2114.52,4332.7C2114.52,4317.09 2101.86,4304.43 2086.24,4304.43C2070.62,4304.44 2057.97,4317.09 2057.97,4332.7L2057.97,4488.41C2057.97,4504.03 2070.63,4516.69 2086.24,4516.69C2101.86,4516.69 2114.52,4504.03 2114.52,4488.41L2114.52,4332.7Z" style="fill:white;stroke:black;stroke-width:1.48px;stroke-miterlimit:10;"/>
                    <path d="M1411.68,4248.64C1409.38,4250.25 1408.02,4252.88 1408.02,4255.69L1408.02,4279.45C1408.02,4284.21 1411.87,4288.06 1416.62,4288.06L1982.93,4287.97C1987.68,4287.97 1991.53,4284.11 1991.53,4279.36L1991.61,3898.37C1991.61,3893.61 1987.75,3889.76 1983,3889.76L1926.45,3889.76C1924.69,3889.76 1922.96,3890.31 1921.52,3891.32L1411.68,4248.64Z" style="fill:white;stroke:black;stroke-width:1.33px;stroke-miterlimit:10;"/>
                    <path d="M858.758,4248.64C861.06,4250.25 862.426,4252.88 862.426,4255.69L862.427,4279.45C862.427,4284.21 858.573,4288.06 853.821,4288.06L287.516,4287.97C282.764,4287.97 278.91,4284.11 278.91,4279.36L278.838,3898.37C278.838,3893.61 282.691,3889.76 287.443,3889.76L343.989,3889.76C345.757,3889.76 347.479,3890.31 348.927,3891.32L858.758,4248.64Z" style="fill:white;stroke:black;stroke-width:1.33px;stroke-miterlimit:10;"/>
                    <rect x="325.762" y="4298.59" width="528" height="282" style="fill:white;stroke:black;stroke-width:1.33px;"/>
                    <path d="M484.212,4430.46L494.276,4444.31L488.276,4444.31L478.991,4431.01L478.107,4431.01L478.107,4444.31L473.201,4444.31L473.201,4411.81L478.949,4411.81C483.244,4411.81 486.346,4412.61 488.255,4414.23C490.36,4416.03 491.413,4418.4 491.413,4421.34C491.413,4423.65 490.753,4425.62 489.434,4427.28C488.114,4428.94 486.374,4430 484.212,4430.46ZM478.107,4426.73L479.665,4426.73C484.311,4426.73 486.634,4424.96 486.634,4421.41C486.634,4418.08 484.374,4416.42 479.854,4416.42L478.107,4416.42L478.107,4426.73Z" style="fill-rule:nonzero;"/>
                    <path d="M502.34,4423.81L502.34,4435.58C502.34,4438.97 503.68,4440.67 506.361,4440.67C509.042,4440.67 510.382,4438.97 510.382,4435.58L510.382,4423.81L515.119,4423.81L515.119,4435.68C515.119,4437.32 514.916,4438.74 514.509,4439.93C514.116,4441 513.435,4441.96 512.466,4442.82C510.866,4444.21 508.831,4444.9 506.361,4444.9C503.905,4444.9 501.876,4444.21 500.276,4442.82C499.294,4441.96 498.599,4441 498.192,4439.93C497.799,4438.98 497.603,4437.56 497.603,4435.68L497.603,4423.81L502.34,4423.81Z" style="fill-rule:nonzero;"/>
                    <rect x="521.098" y="4408.75" width="4.737" height="35.56" style="fill-rule:nonzero;"/>
                    <path d="M550.51,4435.18L535.815,4435.18C535.941,4436.86 536.489,4438.2 537.457,4439.2C538.426,4440.18 539.668,4440.67 541.184,4440.67C542.363,4440.67 543.338,4440.39 544.11,4439.83C544.868,4439.27 545.731,4438.23 546.7,4436.71L550.7,4438.94C550.082,4440 549.43,4440.9 548.742,4441.65C548.054,4442.4 547.317,4443.02 546.531,4443.5C545.745,4443.99 544.896,4444.34 543.984,4444.57C543.071,4444.79 542.082,4444.9 541.015,4444.9C537.955,4444.9 535.499,4443.92 533.646,4441.96C531.794,4439.98 530.867,4437.35 530.867,4434.08C530.867,4430.84 531.766,4428.22 533.562,4426.21C535.373,4424.23 537.773,4423.24 540.763,4423.24C543.78,4423.24 546.166,4424.2 547.921,4426.12C549.661,4428.03 550.531,4430.68 550.531,4434.06L550.51,4435.18ZM545.647,4431.3C544.987,4428.78 543.394,4427.51 540.868,4427.51C540.292,4427.51 539.752,4427.6 539.247,4427.78C538.741,4427.95 538.282,4428.2 537.868,4428.53C537.454,4428.86 537.099,4429.26 536.804,4429.72C536.51,4430.19 536.285,4430.71 536.131,4431.3L545.647,4431.3Z" style="fill-rule:nonzero;"/>
                    <path d="M567.606,4427.3L563.69,4429.39C563.072,4428.12 562.307,4427.49 561.395,4427.49C560.96,4427.49 560.588,4427.64 560.279,4427.92C559.971,4428.21 559.816,4428.58 559.816,4429.03C559.816,4429.82 560.728,4430.59 562.553,4431.37C565.065,4432.45 566.757,4433.44 567.627,4434.36C568.497,4435.27 568.932,4436.5 568.932,4438.04C568.932,4440.02 568.202,4441.68 566.743,4443.01C565.325,4444.27 563.613,4444.9 561.606,4444.9C558.167,4444.9 555.732,4443.23 554.3,4439.87L558.342,4438C558.904,4438.98 559.332,4439.61 559.627,4439.87C560.202,4440.4 560.89,4440.67 561.69,4440.67C563.29,4440.67 564.09,4439.94 564.09,4438.48C564.09,4437.64 563.472,4436.85 562.237,4436.12C561.76,4435.89 561.283,4435.65 560.806,4435.43C560.328,4435.2 559.844,4434.97 559.353,4434.73C557.977,4434.06 557.009,4433.39 556.448,4432.71C555.732,4431.86 555.374,4430.76 555.374,4429.41C555.374,4427.62 555.984,4426.15 557.205,4424.99C558.455,4423.82 559.971,4423.24 561.753,4423.24C564.378,4423.24 566.329,4424.59 567.606,4427.3Z" style="fill-rule:nonzero;"/>
                    <path d="M611.419,4413.55L611.419,4419.36C608.583,4416.99 605.65,4415.81 602.618,4415.81C599.278,4415.81 596.463,4417.01 594.176,4419.41C591.874,4421.79 590.723,4424.71 590.723,4428.16C590.723,4431.58 591.874,4434.45 594.176,4436.8C596.478,4439.14 599.299,4440.31 602.639,4440.31C604.366,4440.31 605.832,4440.03 607.039,4439.47C607.713,4439.19 608.411,4438.81 609.134,4438.33C609.857,4437.86 610.619,4437.28 611.419,4436.61L611.419,4442.52C608.611,4444.11 605.664,4444.9 602.576,4444.9C597.93,4444.9 593.965,4443.28 590.681,4440.04C587.41,4436.77 585.775,4432.82 585.775,4428.21C585.775,4424.07 587.144,4420.38 589.881,4417.13C593.249,4413.16 597.607,4411.18 602.955,4411.18C605.874,4411.18 608.696,4411.97 611.419,4413.55Z" style="fill-rule:nonzero;"/>
                    <path d="M631.82,4423.81L636.578,4423.81L636.578,4444.31L631.82,4444.31L631.82,4442.17C629.869,4443.99 627.77,4444.9 625.525,4444.9C622.689,4444.9 620.345,4443.88 618.493,4441.83C616.654,4439.74 615.735,4437.13 615.735,4434C615.735,4430.92 616.654,4428.36 618.493,4426.31C620.331,4424.26 622.633,4423.24 625.398,4423.24C627.784,4423.24 629.925,4424.22 631.82,4426.19L631.82,4423.81ZM620.577,4434C620.577,4435.96 621.103,4437.56 622.156,4438.8C623.237,4440.05 624.598,4440.67 626.24,4440.67C627.995,4440.67 629.412,4440.07 630.493,4438.86C631.574,4437.61 632.114,4436.03 632.114,4434.1C632.114,4432.18 631.574,4430.59 630.493,4429.34C629.412,4428.12 628.009,4427.51 626.282,4427.51C624.654,4427.51 623.293,4428.13 622.198,4429.37C621.117,4430.61 620.577,4432.16 620.577,4434Z" style="fill-rule:nonzero;"/>
                    <path d="M642.557,4423.81L647.294,4423.81L647.294,4425.64C648.164,4424.73 648.936,4424.1 649.61,4423.77C650.298,4423.41 651.112,4423.24 652.052,4423.24C653.301,4423.24 654.607,4423.65 655.968,4424.46L653.8,4428.8C652.901,4428.15 652.024,4427.83 651.168,4427.83C648.585,4427.83 647.294,4429.78 647.294,4433.68L647.294,4444.31L642.557,4444.31L642.557,4423.81Z" style="fill-rule:nonzero;"/>
                    <path d="M673.506,4408.75L678.264,4408.75L678.264,4444.31L673.506,4444.31L673.506,4442.17C671.639,4443.99 669.527,4444.9 667.169,4444.9C664.361,4444.9 662.032,4443.88 660.179,4441.83C658.34,4439.74 657.421,4437.13 657.421,4434C657.421,4430.94 658.34,4428.38 660.179,4426.33C662.003,4424.27 664.298,4423.24 667.063,4423.24C669.463,4423.24 671.611,4424.22 673.506,4426.19L673.506,4408.75ZM662.263,4434C662.263,4435.96 662.789,4437.56 663.842,4438.8C664.923,4440.05 666.284,4440.67 667.927,4440.67C669.681,4440.67 671.099,4440.07 672.179,4438.86C673.26,4437.61 673.801,4436.03 673.801,4434.1C673.801,4432.18 673.26,4430.59 672.179,4429.34C671.099,4428.12 669.695,4427.51 667.969,4427.51C666.341,4427.51 664.979,4428.13 663.884,4429.37C662.804,4430.61 662.263,4432.16 662.263,4434Z" style="fill-rule:nonzero;"/>
                    <rect x="1412.93" y="4298.59" width="528" height="282" style="fill:white;stroke:black;stroke-width:1.33px;"/>
                    <path d="M1571.38,4430.46L1581.44,4444.31L1575.44,4444.31L1566.16,4431.01L1565.27,4431.01L1565.27,4444.31L1560.37,4444.31L1560.37,4411.81L1566.12,4411.81C1570.41,4411.81 1573.51,4412.61 1575.42,4414.23C1577.53,4416.03 1578.58,4418.4 1578.58,4421.34C1578.58,4423.65 1577.92,4425.62 1576.6,4427.28C1575.28,4428.94 1573.54,4430 1571.38,4430.46ZM1565.27,4426.73L1566.83,4426.73C1571.48,4426.73 1573.8,4424.96 1573.8,4421.41C1573.8,4418.08 1571.54,4416.42 1567.02,4416.42L1565.27,4416.42L1565.27,4426.73Z" style="fill-rule:nonzero;"/>
                    <path d="M1589.51,4423.81L1589.51,4435.58C1589.51,4438.97 1590.85,4440.67 1593.53,4440.67C1596.21,4440.67 1597.55,4438.97 1597.55,4435.58L1597.55,4423.81L1602.29,4423.81L1602.29,4435.68C1602.29,4437.32 1602.08,4438.74 1601.67,4439.93C1601.28,4441 1600.6,4441.96 1599.63,4442.82C1598.03,4444.21 1596,4444.9 1593.53,4444.9C1591.07,4444.9 1589.04,4444.21 1587.44,4442.82C1586.46,4441.96 1585.77,4441 1585.36,4439.93C1584.97,4438.98 1584.77,4437.56 1584.77,4435.68L1584.77,4423.81L1589.51,4423.81Z" style="fill-rule:nonzero;"/>
                    <rect x="1608.26" y="4408.75" width="4.737" height="35.56" style="fill-rule:nonzero;"/>
                    <path d="M1637.68,4435.18L1622.98,4435.18C1623.11,4436.86 1623.65,4438.2 1624.62,4439.2C1625.59,4440.18 1626.83,4440.67 1628.35,4440.67C1629.53,4440.67 1630.5,4440.39 1631.28,4439.83C1632.03,4439.27 1632.9,4438.23 1633.87,4436.71L1637.87,4438.94C1637.25,4440 1636.6,4440.9 1635.91,4441.65C1635.22,4442.4 1634.48,4443.02 1633.7,4443.5C1632.91,4443.99 1632.06,4444.34 1631.15,4444.57C1630.24,4444.79 1629.25,4444.9 1628.18,4444.9C1625.12,4444.9 1622.66,4443.92 1620.81,4441.96C1618.96,4439.98 1618.03,4437.35 1618.03,4434.08C1618.03,4430.84 1618.93,4428.22 1620.73,4426.21C1622.54,4424.23 1624.94,4423.24 1627.93,4423.24C1630.95,4423.24 1633.33,4424.2 1635.09,4426.12C1636.83,4428.03 1637.7,4430.68 1637.7,4434.06L1637.68,4435.18ZM1632.81,4431.3C1632.15,4428.78 1630.56,4427.51 1628.03,4427.51C1627.46,4427.51 1626.92,4427.6 1626.41,4427.78C1625.91,4427.95 1625.45,4428.2 1625.03,4428.53C1624.62,4428.86 1624.27,4429.26 1623.97,4429.72C1623.68,4430.19 1623.45,4430.71 1623.3,4431.3L1632.81,4431.3Z" style="fill-rule:nonzero;"/>
                    <path d="M1654.77,4427.3L1650.86,4429.39C1650.24,4428.12 1649.47,4427.49 1648.56,4427.49C1648.13,4427.49 1647.75,4427.64 1647.44,4427.92C1647.14,4428.21 1646.98,4428.58 1646.98,4429.03C1646.98,4429.82 1647.89,4430.59 1649.72,4431.37C1652.23,4432.45 1653.92,4433.44 1654.79,4434.36C1655.66,4435.27 1656.1,4436.5 1656.1,4438.04C1656.1,4440.02 1655.37,4441.68 1653.91,4443.01C1652.49,4444.27 1650.78,4444.9 1648.77,4444.9C1645.33,4444.9 1642.9,4443.23 1641.47,4439.87L1645.51,4438C1646.07,4438.98 1646.5,4439.61 1646.79,4439.87C1647.37,4440.4 1648.06,4440.67 1648.86,4440.67C1650.46,4440.67 1651.26,4439.94 1651.26,4438.48C1651.26,4437.64 1650.64,4436.85 1649.4,4436.12C1648.93,4435.89 1648.45,4435.65 1647.97,4435.43C1647.49,4435.2 1647.01,4434.97 1646.52,4434.73C1645.14,4434.06 1644.17,4433.39 1643.61,4432.71C1642.9,4431.86 1642.54,4430.76 1642.54,4429.41C1642.54,4427.62 1643.15,4426.15 1644.37,4424.99C1645.62,4423.82 1647.14,4423.24 1648.92,4423.24C1651.54,4423.24 1653.5,4424.59 1654.77,4427.3Z" style="fill-rule:nonzero;"/>
                    <path d="M1698.58,4413.55L1698.58,4419.36C1695.75,4416.99 1692.82,4415.81 1689.78,4415.81C1686.44,4415.81 1683.63,4417.01 1681.34,4419.41C1679.04,4421.79 1677.89,4424.71 1677.89,4428.16C1677.89,4431.58 1679.04,4434.45 1681.34,4436.8C1683.64,4439.14 1686.47,4440.31 1689.81,4440.31C1691.53,4440.31 1693,4440.03 1694.2,4439.47C1694.88,4439.19 1695.58,4438.81 1696.3,4438.33C1697.02,4437.86 1697.78,4437.28 1698.58,4436.61L1698.58,4442.52C1695.78,4444.11 1692.83,4444.9 1689.74,4444.9C1685.1,4444.9 1681.13,4443.28 1677.85,4440.04C1674.58,4436.77 1672.94,4432.82 1672.94,4428.21C1672.94,4424.07 1674.31,4420.38 1677.05,4417.13C1680.41,4413.16 1684.77,4411.18 1690.12,4411.18C1693.04,4411.18 1695.86,4411.97 1698.58,4413.55Z" style="fill-rule:nonzero;"/>
                    <path d="M1718.99,4423.81L1723.74,4423.81L1723.74,4444.31L1718.99,4444.31L1718.99,4442.17C1717.03,4443.99 1714.94,4444.9 1712.69,4444.9C1709.86,4444.9 1707.51,4443.88 1705.66,4441.83C1703.82,4439.74 1702.9,4437.13 1702.9,4434C1702.9,4430.92 1703.82,4428.36 1705.66,4426.31C1707.5,4424.26 1709.8,4423.24 1712.56,4423.24C1714.95,4423.24 1717.09,4424.22 1718.99,4426.19L1718.99,4423.81ZM1707.74,4434C1707.74,4435.96 1708.27,4437.56 1709.32,4438.8C1710.4,4440.05 1711.76,4440.67 1713.41,4440.67C1715.16,4440.67 1716.58,4440.07 1717.66,4438.86C1718.74,4437.61 1719.28,4436.03 1719.28,4434.1C1719.28,4432.18 1718.74,4430.59 1717.66,4429.34C1716.58,4428.12 1715.17,4427.51 1713.45,4427.51C1711.82,4427.51 1710.46,4428.13 1709.36,4429.37C1708.28,4430.61 1707.74,4432.16 1707.74,4434Z" style="fill-rule:nonzero;"/>
                    <path d="M1729.72,4423.81L1734.46,4423.81L1734.46,4425.64C1735.33,4424.73 1736.1,4424.1 1736.78,4423.77C1737.46,4423.41 1738.28,4423.24 1739.22,4423.24C1740.47,4423.24 1741.77,4423.65 1743.13,4424.46L1740.97,4428.8C1740.07,4428.15 1739.19,4427.83 1738.33,4427.83C1735.75,4427.83 1734.46,4429.78 1734.46,4433.68L1734.46,4444.31L1729.72,4444.31L1729.72,4423.81Z" style="fill-rule:nonzero;"/>
                    <path d="M1760.67,4408.75L1765.43,4408.75L1765.43,4444.31L1760.67,4444.31L1760.67,4442.17C1758.81,4443.99 1756.69,4444.9 1754.34,4444.9C1751.53,4444.9 1749.2,4443.88 1747.35,4441.83C1745.51,4439.74 1744.59,4437.13 1744.59,4434C1744.59,4430.94 1745.51,4428.38 1747.35,4426.33C1749.17,4424.27 1751.46,4423.24 1754.23,4423.24C1756.63,4423.24 1758.78,4424.22 1760.67,4426.19L1760.67,4408.75ZM1749.43,4434C1749.43,4435.96 1749.95,4437.56 1751.01,4438.8C1752.09,4440.05 1753.45,4440.67 1755.09,4440.67C1756.85,4440.67 1758.27,4440.07 1759.35,4438.86C1760.43,4437.61 1760.97,4436.03 1760.97,4434.1C1760.97,4432.18 1760.43,4430.59 1759.35,4429.34C1758.27,4428.12 1756.86,4427.51 1755.13,4427.51C1753.51,4427.51 1752.14,4428.13 1751.05,4429.37C1749.97,4430.61 1749.43,4432.16 1749.43,4434Z" style="fill-rule:nonzero;"/>
                    <path d="M1392.64,4633.47L1392.54,4305.66C1392.54,4300.91 1388.69,4297.06 1383.94,4297.06L1351.98,4297.06C1346.85,4297.06 1341.85,4298.69 1337.7,4301.72C1217.42,4389.71 1053.99,4389.71 933.7,4301.72C929.565,4298.7 924.56,4297.06 919.43,4297.06L886.59,4297.06C881.839,4297.06 877.985,4300.91 877.985,4305.66L877.985,4633.47C877.985,4646.82 888.81,4657.64 902.16,4657.64L1368.46,4657.64C1381.81,4657.64 1392.64,4646.82 1392.64,4633.47Z" style="fill:white;stroke:black;stroke-width:1.33px;stroke-miterlimit:10;"/>
                </g>
            </g>
        </g>
    </g>
</svg>
