<?xml version="1.0" encoding="UTF-8" standalone="no"?>
<!DOCTYPE svg PUBLIC "-//W3C//DTD SVG 1.1//EN" "http://www.w3.org/Graphics/SVG/1.1/DTD/svg11.dtd">
<svg width="4544px" height="5760px" version="1.1" xmlns="http://www.w3.org/2000/svg" xmlns:xlink="http://www.w3.org/1999/xlink" xml:space="preserve" style="fill-rule:evenodd;clip-rule:evenodd;stroke-linecap:round;stroke-linejoin:round;stroke-miterlimit:10;">
    <g clip-path="url(#_clip1)">
        <g id="Playfield-Outline-.--Top-Bottom-Sticker-Drill-Rout-Plastic-Bevel-Art-Assembly-Rubber-Todo">
            <path d="M250.028,382.57L2193.89,382.57L2193.89,4510.83L2133.9,4510.83L2133.9,4408.84L2133.89,4408.84C2133.89,4402.23 2128.51,4396.84 2121.89,4396.84L2091.95,4396.84L2092.01,4221.88L2092,4221.87C2092,4216.92 2087.96,4212.88 2083.01,4212.88C2078.05,4212.88 2074.01,4216.92 2074.01,4221.87L2074.01,4221.88L2074.06,4396.84L2013.9,4396.84C2007.29,4396.84 2001.91,4402.23 2001.91,4408.84L2001.91,4799.99L1329.95,4799.99L1105.57,4532.58L1105.56,4532.54C1101.06,4527.19 1094.21,4524.01 1087.18,4524.01L771.991,4524.01C758.778,4524.01 747.992,4534.79 747.992,4548L747.992,4799.99L551.237,4799.99L375.011,4647.61L375.011,4549.55C375.011,4536.34 364.232,4525.56 351.012,4525.56L250.028,4525.56L250.028,382.57Z" style="fill:none;stroke:rgb(35,31,32);stroke-width:1.11px;stroke-miterlimit:2.613;"/>
        </g>
        <g id="Playfield-Guides-.--Top-Bottom-Sticker-Drill-Rout-Plastic-Bevel-Art-Assembly-Rubber-Todo">
            <path d="M433.899,4799.99L225.12,4799.99" style="fill:none;stroke:rgb(35,31,32);stroke-width:1.11px;stroke-miterlimit:2.613;"/>
            <path d="M2210.9,4799.99L2099.49,4799.99" style="fill:none;stroke:rgb(35,31,32);stroke-width:1.11px;stroke-miterlimit:2.613;"/>
            <path d="M2194.03,4817.86L2194.03,4763.96" style="fill:none;stroke:black;stroke-width:0.74px;"/>
            <path d="M250.14,4823.45L250.14,4758.68" style="fill:none;stroke:black;stroke-width:0.74px;"/>
        </g>
        <path id="Todo" d="M97.165,3827.38L103.505,3818.71L104.892,3829.23L109.017,3823.59L110.242,3824.49L103.944,3833.09L102.546,3822.59L98.39,3828.27L97.165,3827.38Z" style="fill-rule:nonzero;"/>
        <path id="Todo1" d="M1981.15,3906.94L1981.15,3867.39L1987.1,3867.39C1989.74,3867.39 1991.85,3867.59 1993.42,3868C1995.01,3868.41 1996.35,3869.1 1997.45,3870.08C1998.56,3871.08 1999.44,3872.34 2000.09,3873.84C2000.75,3875.36 2001.09,3876.9 2001.09,3878.45C2001.09,3881.29 2000,3883.69 1997.83,3885.65C1999.93,3886.37 2001.59,3887.63 2002.8,3889.42C2004.03,3891.2 2004.65,3893.26 2004.65,3895.62C2004.65,3898.71 2003.55,3901.33 2001.37,3903.46C2000.05,3904.78 1998.58,3905.69 1996.93,3906.2C1995.14,3906.7 1992.89,3906.94 1990.2,3906.94L1981.15,3906.94ZM1987.12,3884.37L1988.99,3884.37C1991.21,3884.37 1992.84,3883.88 1993.87,3882.9C1994.91,3881.92 1995.42,3880.47 1995.42,3878.56C1995.42,3876.69 1994.89,3875.28 1993.84,3874.32C1992.78,3873.35 1991.24,3872.87 1989.22,3872.87L1987.12,3872.87L1987.12,3884.37ZM1987.12,3901.33L1990.81,3901.33C1993.51,3901.33 1995.49,3900.8 1996.76,3899.74C1998.09,3898.6 1998.75,3897.15 1998.75,3895.39C1998.75,3893.68 1998.11,3892.25 1996.83,3891.09C1995.59,3889.94 1993.36,3889.37 1990.14,3889.37L1987.12,3889.37L1987.12,3901.33Z" style="fill-rule:nonzero;"/>
    </g>
</svg>
