<?xml version="1.0" encoding="UTF-8" standalone="no"?>
<!DOCTYPE svg PUBLIC "-//W3C//DTD SVG 1.1//EN" "http://www.w3.org/Graphics/SVG/1.1/DTD/svg11.dtd">
<svg width="4544px" height="4993px" version="1.1" xmlns="http://www.w3.org/2000/svg" xmlns:xlink="http://www.w3.org/1999/xlink" xml:space="preserve" style="fill-rule:evenodd;clip-rule:evenodd;stroke-linecap:round;stroke-linejoin:round;stroke-miterlimit:2.613;">
    <g id="Playfield-Outline-.--Top-Bottom-Sticker-Drill-Rout-Plastic-Bevel-Art-Assembly-Rubber-Todo">
        <path d="M250.028,347.831L2193.89,347.831L2193.89,4380.1L2133.9,4380.1L2133.9,4278.1L2133.89,4278.1C2133.89,4271.49 2128.51,4266.11 2121.89,4266.11L2091.95,4266.11L2092.01,4091.14L2092,4091.14C2092,4086.18 2087.96,4082.14 2083.01,4082.14C2078.05,4082.14 2074.01,4086.18 2074.01,4091.14L2074.01,4091.14L2074.06,4266.11L2013.9,4266.11C2007.29,4266.11 2001.91,4271.49 2001.91,4278.1L2001.91,4669.25L1329.95,4669.25L1105.57,4401.84L1105.56,4401.8C1101.06,4396.46 1094.21,4393.27 1087.18,4393.27L771.991,4393.27C758.778,4393.27 747.992,4404.05 747.992,4417.26L747.992,4669.25L551.237,4669.25L375.011,4516.87L375.011,4418.81C375.011,4405.6 364.232,4394.82 351.012,4394.82L250.028,4394.82L250.028,347.831Z" style="fill:none;stroke:rgb(35,31,32);stroke-width:1.11px;"/>
    </g>
    <g id="Playfield-Guides-.--Top-Bottom-Sticker-Drill-Rout-Plastic-Bevel-Art-Assembly-Rubber-Todo">
        <path d="M433.899,4669.25L225.12,4669.25" style="fill:none;stroke:rgb(35,31,32);stroke-width:1.11px;"/>
        <path d="M2210.9,4669.25L2099.49,4669.25" style="fill:none;stroke:rgb(35,31,32);stroke-width:1.11px;"/>
        <path d="M2194.03,4687.12L2194.03,4633.23" style="fill:none;stroke:black;stroke-width:0.74px;stroke-miterlimit:10;"/>
        <path d="M250.14,4692.72L250.14,4627.94" style="fill:none;stroke:black;stroke-width:0.74px;stroke-miterlimit:10;"/>
    </g>
    <path id="Todo" d="M438.971,3673.41L445.311,3664.75L446.698,3675.27L450.823,3669.63L452.048,3670.52L445.75,3679.13L444.351,3668.63L440.195,3674.31L438.971,3673.41Z" style="fill-rule:nonzero;"/>
    <path id="Todo1" d="M1981.15,3776.21L1981.15,3736.65L1987.1,3736.65C1989.74,3736.65 1991.85,3736.85 1993.42,3737.26C1995.01,3737.67 1996.35,3738.37 1997.45,3739.34C1998.56,3740.35 1999.44,3741.6 2000.09,3743.11C2000.75,3744.62 2001.09,3746.16 2001.09,3747.72C2001.09,3750.55 2000,3752.95 1997.83,3754.92C1999.93,3755.63 2001.59,3756.89 2002.8,3758.68C2004.03,3760.46 2004.65,3762.53 2004.65,3764.88C2004.65,3767.97 2003.55,3770.59 2001.37,3772.72C2000.05,3774.04 1998.58,3774.95 1996.93,3775.46C1995.14,3775.96 1992.89,3776.21 1990.2,3776.21L1981.15,3776.21ZM1987.12,3753.64L1988.99,3753.64C1991.21,3753.64 1992.84,3753.14 1993.87,3752.16C1994.91,3751.18 1995.42,3749.73 1995.42,3747.82C1995.42,3745.96 1994.89,3744.54 1993.84,3743.58C1992.78,3742.61 1991.24,3742.13 1989.22,3742.13L1987.12,3742.13L1987.12,3753.64ZM1987.12,3770.6L1990.81,3770.6C1993.51,3770.6 1995.49,3770.07 1996.76,3769.01C1998.09,3767.86 1998.75,3766.41 1998.75,3764.65C1998.75,3762.94 1998.11,3761.51 1996.83,3760.35C1995.59,3759.2 1993.36,3758.63 1990.14,3758.63L1987.12,3758.63L1987.12,3770.6Z" style="fill-rule:nonzero;"/>
</svg>
