<?xml version="1.0" encoding="UTF-8" standalone="no"?>
<!DOCTYPE svg PUBLIC "-//W3C//DTD SVG 1.1//EN" "http://www.w3.org/Graphics/SVG/1.1/DTD/svg11.dtd">
<svg width="4544px" height="5760px" version="1.1" xmlns="http://www.w3.org/2000/svg" xmlns:xlink="http://www.w3.org/1999/xlink" xml:space="preserve" xmlns:serif="http://www.serif.com/" style="fill-rule:evenodd;clip-rule:evenodd;stroke-linecap:round;stroke-linejoin:round;stroke-miterlimit:2.613;">
    <g id="Playfield-Outline---Top-Bottom-WoodWalls-Habitrails-Sticker-Drill-Rout-Plastic-Bevel-Art-Assembly-Rubber-Todo" serif:id="Playfield Outline - Top Bottom WoodWalls Habitrails Sticker Drill Rout Plastic Bevel Art Assembly Rubber Todo">
        <path id="PF-Outline" serif:id="PF Outline" d="M250.028,480L2193.89,480L2193.89,4510.83L2133.9,4510.83L2133.9,4408.84L2133.89,4408.84C2133.89,4402.23 2128.51,4396.84 2121.89,4396.84L2091.95,4396.84L2092.01,4221.88L2092,4221.87C2092,4216.92 2087.96,4212.88 2083.01,4212.88C2078.05,4212.88 2074.01,4216.92 2074.01,4221.87L2074.01,4221.88L2074.06,4396.84L2013.9,4396.84C2007.29,4396.84 2001.91,4402.23 2001.91,4408.84L2001.91,4799.99L1123.93,4799.99L899.543,4532.58L899.536,4532.54C895.034,4527.19 888.192,4524.01 881.163,4524.01L771.991,4524.01C758.778,4524.01 747.992,4534.79 747.992,4548L747.992,4799.99L551.237,4799.99L375.011,4647.61L375.011,4549.55C375.011,4536.34 364.232,4525.56 351.012,4525.56L250.028,4525.56L250.028,480Z" style="fill:none;stroke:rgb(35,31,32);stroke-width:1.11px;"/>
        <g id="Guidemarks">
            <path d="M433.899,4799.99L225.12,4799.99" style="fill:none;stroke:rgb(35,31,32);stroke-width:1.11px;"/>
            <path d="M2210.9,4799.99L2099.49,4799.99" style="fill:none;stroke:rgb(35,31,32);stroke-width:1.11px;"/>
            <path d="M2194.03,5165.14L2194.03,4763.96" style="fill:none;stroke:black;stroke-width:0.74px;stroke-miterlimit:10;"/>
            <path d="M250.14,5165.14L250.14,4758.68" style="fill:none;stroke:black;stroke-width:0.74px;stroke-miterlimit:10;"/>
            <path d="M1064.77,5199.99L1099.31,5199.99L1099.31,5213.15L1037.02,5213.15L1069.21,5174.16C1072.38,5170.28 1075.03,5166.91 1077.17,5164.07C1079.32,5161.23 1080.95,5158.85 1082.07,5156.92C1084.35,5153.16 1085.49,5149.78 1085.49,5146.77C1085.49,5142.45 1083.97,5138.82 1080.93,5135.9C1077.88,5132.98 1074.12,5131.51 1069.63,5131.51C1060.26,5131.51 1054.9,5137.06 1053.54,5148.15L1039.6,5148.15C1041.84,5128.61 1051.71,5118.84 1069.21,5118.84C1077.66,5118.84 1084.75,5121.52 1090.48,5126.89C1096.25,5132.25 1099.13,5138.9 1099.13,5146.83C1099.13,5151.88 1097.79,5156.82 1095.1,5161.67C1093.74,5164.19 1091.75,5167.19 1089.13,5170.65C1086.5,5174.11 1083.19,5178.21 1079.18,5182.93L1064.77,5199.99Z" style="fill-rule:nonzero;"/>
            <path d="M1115.11,5166.17C1115.11,5151.4 1118.55,5139.6 1125.44,5130.79C1131.61,5122.82 1139.08,5118.84 1147.85,5118.84C1156.62,5118.84 1164.09,5122.82 1170.25,5130.79C1177.14,5139.6 1180.59,5151.6 1180.59,5166.78C1180.59,5181.91 1177.14,5193.89 1170.25,5202.7C1164.09,5210.67 1156.64,5214.65 1147.91,5214.65C1139.18,5214.65 1131.69,5210.67 1125.44,5202.7C1118.55,5193.89 1115.11,5181.71 1115.11,5166.17ZM1128.86,5166.23C1128.86,5176.53 1130.65,5185.08 1134.21,5191.89C1137.77,5198.57 1142.32,5201.92 1147.85,5201.92C1153.33,5201.92 1157.88,5198.57 1161.48,5191.89C1165.09,5185.24 1166.89,5176.85 1166.89,5166.72C1166.89,5156.58 1165.09,5148.17 1161.48,5141.48C1157.88,5134.84 1153.33,5131.51 1147.85,5131.51C1142.4,5131.51 1137.88,5134.84 1134.27,5141.48C1130.67,5148.09 1128.86,5156.34 1128.86,5166.23Z" style="fill-rule:nonzero;"/>
            <path d="M1196.44,5206.42C1196.44,5204.18 1197.27,5202.24 1198.91,5200.6C1200.55,5198.95 1202.51,5198.13 1204.79,5198.13C1207.08,5198.13 1209.04,5198.95 1210.68,5200.6C1212.32,5202.24 1213.14,5204.2 1213.14,5206.48C1213.14,5208.81 1212.32,5210.79 1210.68,5212.43C1209.08,5214.03 1207.12,5214.83 1204.79,5214.83C1202.43,5214.83 1200.45,5214.03 1198.85,5212.43C1197.25,5210.83 1196.44,5208.82 1196.44,5206.42Z" style="fill-rule:nonzero;"/>
            <path d="M1254.59,5199.99L1289.13,5199.99L1289.13,5213.15L1226.84,5213.15L1259.04,5174.16C1262.2,5170.28 1264.86,5166.91 1267,5164.07C1269.14,5161.23 1270.77,5158.85 1271.89,5156.92C1274.18,5153.16 1275.32,5149.78 1275.32,5146.77C1275.32,5142.45 1273.8,5138.82 1270.75,5135.9C1267.71,5132.98 1263.94,5131.51 1259.46,5131.51C1250.09,5131.51 1244.72,5137.06 1243.36,5148.15L1229.42,5148.15C1231.66,5128.61 1241.54,5118.84 1259.04,5118.84C1267.49,5118.84 1274.58,5121.52 1280.3,5126.89C1286.07,5132.25 1288.95,5138.9 1288.95,5146.83C1288.95,5151.88 1287.61,5156.82 1284.93,5161.67C1283.57,5164.19 1281.58,5167.19 1278.95,5170.65C1276.33,5174.11 1273.01,5178.21 1269.01,5182.93L1254.59,5199.99Z" style="fill-rule:nonzero;"/>
            <path d="M1364.4,5133.5L1335.81,5133.5L1331.24,5148.87C1331.92,5148.79 1332.58,5148.73 1333.2,5148.69C1333.82,5148.65 1334.39,5148.63 1334.91,5148.63C1343.92,5148.63 1351.31,5151.68 1357.07,5157.77C1362.88,5163.81 1365.78,5171.56 1365.78,5181.01C1365.78,5190.78 1362.5,5198.83 1355.93,5205.16C1349.37,5211.49 1341.1,5214.65 1331.12,5214.65C1318.83,5214.65 1309.14,5208.89 1302.05,5197.35L1312.62,5188.4C1315.55,5193.37 1318.49,5196.87 1321.45,5198.91C1324.41,5200.92 1328.04,5201.92 1332.33,5201.92C1337.93,5201.92 1342.64,5199.95 1346.44,5196.03C1350.25,5191.98 1352.15,5187.08 1352.15,5181.31C1352.15,5175.39 1350.27,5170.54 1346.5,5166.78C1342.74,5162.89 1338.03,5160.95 1332.38,5160.95C1326.1,5160.95 1320.67,5163.69 1316.11,5169.18L1311.48,5169.18L1326.08,5120.4L1364.4,5120.4L1364.4,5133.5Z" style="fill-rule:nonzero;"/>
            <path d="M1394.98,5157.7L1384.77,5157.7L1382.18,5120.4L1397.56,5120.4L1394.98,5157.7ZM1416.96,5157.7L1406.75,5157.7L1404.17,5120.4L1419.55,5120.4L1416.96,5157.7Z" style="fill-rule:nonzero;"/>
            <path d="M271.142,5097.84L271.142,5111.77L252.569,5093.19L271.142,5074.62L271.142,5088.55L2171.55,5088.55L2171.55,5074.62L2190.13,5093.19L2171.55,5111.77L2171.55,5097.84L271.142,5097.84Z" style="fill-opacity:0.717647;"/>
        </g>
        <g id="Launcher-Grading" serif:id="Launcher Grading">
            <path d="M2119.04,4396.86L2091.93,3740.9L2082.95,3434.52L2073.89,3740.89L2046.82,4396.86" style="fill:none;stroke:black;stroke-width:0.74px;stroke-miterlimit:10;"/>
        </g>
    </g>
    <path id="Todo" d="M1981.15,3906.94L1981.15,3867.39L1987.1,3867.39C1989.74,3867.39 1991.85,3867.59 1993.42,3868C1995.01,3868.41 1996.35,3869.1 1997.45,3870.08C1998.56,3871.08 1999.44,3872.34 2000.09,3873.84C2000.75,3875.36 2001.09,3876.9 2001.09,3878.45C2001.09,3881.29 2000,3883.69 1997.83,3885.65C1999.93,3886.37 2001.59,3887.63 2002.8,3889.42C2004.03,3891.2 2004.65,3893.26 2004.65,3895.62C2004.65,3898.71 2003.55,3901.33 2001.37,3903.46C2000.05,3904.78 1998.58,3905.69 1996.93,3906.2C1995.14,3906.7 1992.89,3906.94 1990.2,3906.94L1981.15,3906.94ZM1987.12,3884.37L1988.99,3884.37C1991.21,3884.37 1992.84,3883.88 1993.87,3882.9C1994.91,3881.92 1995.42,3880.47 1995.42,3878.56C1995.42,3876.69 1994.89,3875.28 1993.84,3874.32C1992.78,3873.35 1991.24,3872.87 1989.22,3872.87L1987.12,3872.87L1987.12,3884.37ZM1987.12,3901.33L1990.81,3901.33C1993.51,3901.33 1995.49,3900.8 1996.76,3899.74C1998.09,3898.6 1998.75,3897.15 1998.75,3895.39C1998.75,3893.68 1998.11,3892.25 1996.83,3891.09C1995.59,3889.94 1993.36,3889.37 1990.14,3889.37L1987.12,3889.37L1987.12,3901.33Z" style="fill-rule:nonzero;"/>
    <g id="Flasher-Caps" serif:id="Flasher Caps">
        <g id="Flasher-Cap" serif:id="Flasher Cap">
            <g id="Plastic5" serif:id="Plastic">
                <path id="TODO-CUTOUT" serif:id="TODO CUTOUT" d="M2082.64,2291.63L2104.56,2353.55L2175.52,2353.55L2118.12,2391.82L2140.04,2453.74L2082.64,2415.47L2025.23,2453.74L2047.16,2391.82L1989.75,2353.55L2060.71,2353.55L2082.64,2291.63Z" style="fill:none;stroke:black;stroke-width:1.2px;stroke-miterlimit:10;"/>
            </g>
        </g>
        <g id="Flasher-Cap1" serif:id="Flasher Cap">
            <g id="Plastic6" serif:id="Plastic">
                <path id="TODO-CUTOUT1" serif:id="TODO CUTOUT" d="M2099.63,696.35L2121.56,758.268L2192.52,758.268L2135.11,796.535L2157.04,858.453L2099.63,820.185L2042.22,858.453L2064.15,796.535L2006.74,758.268L2077.7,758.268L2099.63,696.35Z" style="fill:none;stroke:black;stroke-width:1.2px;stroke-miterlimit:10;"/>
            </g>
        </g>
        <g id="Flasher-Cap2" serif:id="Flasher Cap">
            <g id="Plastic7" serif:id="Plastic">
                <path id="TODO-CUTOUT2" serif:id="TODO CUTOUT" d="M338.426,1913.42L360.353,1975.34L431.313,1975.34L373.906,2013.61L395.833,2075.52L338.426,2037.26L281.018,2075.52L302.946,2013.61L245.538,1975.34L316.498,1975.34L338.426,1913.42Z" style="fill:none;stroke:black;stroke-width:1.2px;stroke-miterlimit:10;"/>
            </g>
        </g>
        <g id="Flasher-Cap3" serif:id="Flasher Cap">
            <g id="Plastic8" serif:id="Plastic">
                <path id="TODO-CUTOUT3" serif:id="TODO CUTOUT" d="M346.366,2682.06L368.294,2743.97L439.253,2743.97L381.846,2782.24L403.774,2844.16L346.366,2805.89L288.958,2844.16L310.886,2782.24L253.478,2743.97L324.438,2743.97L346.366,2682.06Z" style="fill:none;stroke:black;stroke-width:1.2px;stroke-miterlimit:10;"/>
            </g>
        </g>
        <g id="Flasher-Cap4" serif:id="Flasher Cap">
            <g id="Plastic9" serif:id="Plastic">
                <path id="TODO-CUTOUT4" serif:id="TODO CUTOUT" d="M450.671,620.138L420.607,678.54L469.237,730.216L402.027,714.634L371.963,773.036L360.489,705.004L293.278,689.423L353.397,662.958L341.922,594.926L390.552,646.602L450.671,620.138Z" style="fill:none;stroke:black;stroke-width:1.2px;stroke-miterlimit:10;"/>
            </g>
        </g>
        <g id="Flasher-Cap5" serif:id="Flasher Cap">
            <g id="Plastic10" serif:id="Plastic">
                <path id="TODO-CUTOUT5" serif:id="TODO CUTOUT" d="M2105.87,2975.81L2127.8,3037.72L2198.76,3037.72L2141.35,3075.99L2163.28,3137.91L2105.87,3099.64L2048.46,3137.91L2070.39,3075.99L2012.98,3037.72L2083.94,3037.72L2105.87,2975.81Z" style="fill:none;stroke:black;stroke-width:1.2px;stroke-miterlimit:10;"/>
            </g>
        </g>
    </g>
    <g id="Ramps">
        <g id="Spring-Steel" serif:id="Spring Steel">
            <g id="Drill-TODO--Group---Group-" serif:id="Drill TODO (Group) (Group)">
                <path d="M693.464,1484.06C695.072,1483.67 696.697,1484.65 697.091,1486.26C697.485,1487.87 696.498,1489.5 694.89,1489.89C693.282,1490.28 691.657,1489.3 691.263,1487.69C690.869,1486.08 691.856,1484.45 693.464,1484.06Z" style="fill:rgb(52,94,242);"/>
                <path d="M800.173,1457.94C801.781,1457.55 803.406,1458.54 803.8,1460.14C804.193,1461.75 803.207,1463.38 801.599,1463.77C799.991,1464.17 798.365,1463.18 797.972,1461.57C797.578,1459.96 798.564,1458.34 800.173,1457.94Z" style="fill:rgb(52,94,242);"/>
            </g>
        </g>
    </g>
</svg>
