<?xml version="1.0" encoding="UTF-8" standalone="no"?>
<!DOCTYPE svg PUBLIC "-//W3C//DTD SVG 1.1//EN" "http://www.w3.org/Graphics/SVG/1.1/DTD/svg11.dtd">
<svg width="4544px" height="4993px" version="1.1" xmlns="http://www.w3.org/2000/svg" xmlns:xlink="http://www.w3.org/1999/xlink" xml:space="preserve" style="fill-rule:evenodd;clip-rule:evenodd;stroke-linecap:round;stroke-linejoin:round;stroke-miterlimit:2.613;">
    <g id="Scoop">
        <g id="Wood">
            <path d="M2126.83,2804.28C2129.94,2806.81 2130.43,2811.39 2127.9,2814.51C2125.38,2817.62 2120.8,2818.1 2117.68,2815.58C2114.56,2813.05 2114.08,2808.47 2116.61,2805.36C2119.13,2802.24 2123.71,2801.76 2126.83,2804.28Z" style="fill:none;stroke:black;stroke-width:1.33px;"/>
            <path d="M1949.28,2808.47C1946.75,2811.58 1942.17,2812.06 1939.06,2809.54C1935.94,2807.01 1935.46,2802.43 1937.98,2799.32C1940.51,2796.2 1945.09,2795.72 1948.2,2798.24C1951.32,2800.77 1951.8,2805.35 1949.28,2808.47Z" style="fill:none;stroke:black;stroke-width:1.33px;"/>
            <path d="M2108.19,2712.99C2109.81,2710.99 2109.5,2708.07 2107.51,2706.45L2005.06,2623.49C2003.07,2621.87 2000.14,2622.18 1998.52,2624.18L1918.58,2722.89C1916.97,2724.89 1917.28,2727.81 1919.27,2729.43L2021.72,2812.39C2023.71,2814 2026.64,2813.7 2028.25,2811.7L2108.19,2712.99Z" style="stroke:black;stroke-width:0.2px;"/>
            <path d="M2005.06,2623.49C2003.07,2621.87 2000.14,2622.18 1998.52,2624.18L1918.58,2722.89C1916.97,2724.89 1917.28,2727.81 1919.27,2729.43L2021.72,2812.39C2023.71,2814 2026.64,2813.7 2028.25,2811.7L2108.19,2712.99C2109.81,2710.99 2109.5,2708.07 2107.51,2706.45L2107.54,2706.48C2114.66,2712.24 2115.76,2722.71 2109.99,2729.83L2037.55,2819.29C2031.78,2826.41 2021.32,2827.51 2014.2,2821.74L1911.68,2738.72C1904.56,2732.96 1903.46,2722.49 1909.23,2715.37L1981.67,2625.91C1987.44,2618.79 1997.9,2617.69 2005.02,2623.46L2005.06,2623.49Z" style="fill:rgb(255,176,5);stroke:black;stroke-width:0.2px;"/>
            <g transform="matrix(0.63531,0.508901,-0.508901,0.63531,-3328.46,-2325.23)">
                <path d="M8937.6,786.38L8937.6,788.177C8936.73,787.443 8935.82,787.077 8934.88,787.077C8933.85,787.077 8932.98,787.448 8932.27,788.19C8931.56,788.928 8931.2,789.83 8931.2,790.898C8931.2,791.953 8931.56,792.843 8932.27,793.567C8932.98,794.292 8933.85,794.655 8934.89,794.655C8935.42,794.655 8935.88,794.568 8936.25,794.394C8936.46,794.307 8936.67,794.19 8936.9,794.043C8937.12,793.895 8937.35,793.717 8937.6,793.509L8937.6,795.338C8936.73,795.829 8935.82,796.074 8934.87,796.074C8933.43,796.074 8932.2,795.573 8931.19,794.57C8930.18,793.559 8929.67,792.339 8929.67,790.911C8929.67,789.631 8930.1,788.489 8930.94,787.487C8931.98,786.258 8933.33,785.644 8934.99,785.644C8935.89,785.644 8936.76,785.889 8937.6,786.38Z" style="fill:white;fill-rule:nonzero;"/>
                <path d="M8941.31,789.772L8945.65,789.772L8945.65,785.84L8947.17,785.84L8947.17,795.892L8945.65,795.892L8945.65,791.198L8941.31,791.198L8941.31,795.892L8939.8,795.892L8939.8,785.84L8941.31,785.84L8941.31,789.772Z" style="fill:white;fill-rule:nonzero;"/>
                <path d="M8955.48,793.45L8951.18,793.45L8950.06,795.892L8948.42,795.892L8953.4,785.208L8958.19,795.892L8956.53,795.892L8955.48,793.45ZM8954.86,792.024L8953.37,788.606L8951.81,792.024L8954.86,792.024Z" style="fill:white;fill-rule:nonzero;"/>
                <path d="M8959.1,795.892L8961.22,785.084L8964.67,792.897L8968.24,785.084L8970.14,795.892L8968.59,795.892L8967.61,789.824L8964.64,796.354L8961.75,789.817L8960.67,795.892L8959.1,795.892Z" style="fill:white;fill-rule:nonzero;"/>
                <path d="M8977.29,787.265L8973.79,787.265L8973.79,789.681L8977.17,789.681L8977.17,791.106L8973.79,791.106L8973.79,795.892L8972.27,795.892L8972.27,785.84L8977.29,785.84L8977.29,787.265Z" style="fill:white;fill-rule:nonzero;"/>
                <path d="M8984.59,787.265L8980.56,787.265L8980.56,789.681L8984.48,789.681L8984.48,791.106L8980.56,791.106L8980.56,794.466L8984.59,794.466L8984.59,795.892L8979.05,795.892L8979.05,785.84L8984.59,785.84L8984.59,787.265Z" style="fill:white;fill-rule:nonzero;"/>
                <path d="M8989.99,791.608L8993.1,795.892L8991.25,795.892L8988.38,791.777L8988.1,791.777L8988.1,795.892L8986.59,795.892L8986.59,785.84L8988.36,785.84C8989.69,785.84 8990.65,786.089 8991.24,786.588C8991.89,787.144 8992.22,787.877 8992.22,788.789C8992.22,789.501 8992.01,790.113 8991.61,790.625C8991.2,791.137 8990.66,791.465 8989.99,791.608ZM8988.1,790.455L8988.59,790.455C8990.02,790.455 8990.74,789.906 8990.74,788.808C8990.74,787.78 8990.04,787.265 8988.64,787.265L8988.1,787.265L8988.1,790.455Z" style="fill:white;fill-rule:nonzero;"/>
                <path d="M9004.27,787.265L9000.25,787.265L9000.25,789.681L9004.16,789.681L9004.16,791.106L9000.25,791.106L9000.25,794.466L9004.27,794.466L9004.27,795.892L8998.73,795.892L8998.73,785.84L9004.27,785.84L9004.27,787.265Z" style="fill:white;fill-rule:nonzero;"/>
                <path d="M9006.27,795.892L9006.27,785.84L9008.38,785.84C9009.39,785.84 9010.19,785.939 9010.77,786.139C9011.4,786.334 9011.97,786.666 9012.49,787.135C9013.52,788.081 9014.04,789.325 9014.04,790.866C9014.04,792.411 9013.5,793.661 9012.42,794.616C9011.88,795.093 9011.31,795.425 9010.71,795.612C9010.16,795.798 9009.37,795.892 9008.35,795.892L9006.27,795.892ZM9007.78,794.466L9008.47,794.466C9009.15,794.466 9009.72,794.394 9010.17,794.251C9010.62,794.099 9011.03,793.858 9011.39,793.528C9012.14,792.847 9012.51,791.959 9012.51,790.866C9012.51,789.763 9012.14,788.869 9011.4,788.183C9010.74,787.571 9009.76,787.265 9008.47,787.265L9007.78,787.265L9007.78,794.466Z" style="fill:white;fill-rule:nonzero;"/>
                <path d="M9021.12,790.657L9025.27,790.657L9025.27,790.989C9025.27,791.744 9025.18,792.413 9025,792.994C9024.83,793.533 9024.54,794.036 9024.13,794.505C9023.19,795.555 9022.01,796.08 9020.56,796.08C9019.16,796.08 9017.95,795.573 9016.95,794.557C9015.95,793.537 9015.45,792.313 9015.45,790.885C9015.45,789.427 9015.96,788.19 9016.98,787.174C9018,786.154 9019.24,785.644 9020.7,785.644C9021.49,785.644 9022.22,785.805 9022.9,786.126C9023.55,786.447 9024.19,786.968 9024.82,787.688L9023.74,788.724C9022.92,787.626 9021.91,787.077 9020.73,787.077C9019.66,787.077 9018.77,787.443 9018.05,788.177C9017.33,788.897 9016.97,789.8 9016.97,790.885C9016.97,792.005 9017.37,792.927 9018.18,793.652C9018.93,794.325 9019.74,794.661 9020.62,794.661C9021.36,794.661 9022.03,794.409 9022.63,793.906C9023.22,793.398 9023.56,792.79 9023.62,792.083L9021.12,792.083L9021.12,790.657Z" style="fill:white;fill-rule:nonzero;"/>
                <path d="M9032.73,787.265L9028.7,787.265L9028.7,789.681L9032.61,789.681L9032.61,791.106L9028.7,791.106L9028.7,794.466L9032.73,794.466L9032.73,795.892L9027.18,795.892L9027.18,785.84L9032.73,785.84L9032.73,787.265Z" style="fill:white;fill-rule:nonzero;"/>
                <path d="M9041.61,787.265L9041.61,795.892L9040.09,795.892L9040.09,787.265L9037.78,787.265L9037.78,785.84L9043.91,785.84L9043.91,787.265L9041.61,787.265Z" style="fill:white;fill-rule:nonzero;"/>
                <path d="M9044.44,790.82C9044.44,789.405 9044.96,788.19 9046,787.174C9047.03,786.159 9048.27,785.651 9049.72,785.651C9051.16,785.651 9052.39,786.163 9053.41,787.187C9054.44,788.211 9054.95,789.442 9054.95,790.879C9054.95,792.324 9054.44,793.55 9053.4,794.557C9052.37,795.568 9051.11,796.074 9049.65,796.074C9048.35,796.074 9047.18,795.625 9046.15,794.726C9045.01,793.732 9044.44,792.43 9044.44,790.82ZM9045.97,790.84C9045.97,791.951 9046.35,792.864 9047.09,793.58C9047.84,794.297 9048.69,794.655 9049.67,794.655C9050.72,794.655 9051.61,794.29 9052.34,793.561C9053.06,792.823 9053.42,791.925 9053.42,790.866C9053.42,789.794 9053.06,788.895 9052.35,788.17C9051.64,787.441 9050.76,787.077 9049.7,787.077C9048.66,787.077 9047.78,787.441 9047.06,788.17C9046.34,788.891 9045.97,789.78 9045.97,790.84Z" style="fill:white;fill-rule:nonzero;"/>
                <path d="M9058.38,791.81L9058.38,795.892L9056.86,795.892L9056.86,785.84L9058.58,785.84C9059.42,785.84 9060.06,785.898 9060.49,786.015C9060.92,786.132 9061.3,786.354 9061.63,786.679C9062.21,787.244 9062.5,787.955 9062.5,788.815C9062.5,789.735 9062.19,790.464 9061.57,791.002C9060.96,791.54 9060.13,791.81 9059.08,791.81L9058.38,791.81ZM9058.38,790.403L9058.94,790.403C9060.34,790.403 9061.03,789.867 9061.03,788.795C9061.03,787.758 9060.32,787.239 9058.88,787.239L9058.38,787.239L9058.38,790.403Z" style="fill:white;fill-rule:nonzero;"/>
                <path d="M8927.73,808.893C8927.73,808.65 8927.82,808.439 8927.99,808.261C8928.17,808.083 8928.38,807.994 8928.63,807.994C8928.88,807.994 8929.09,808.083 8929.27,808.261C8929.45,808.439 8929.54,808.652 8929.54,808.899C8929.54,809.151 8929.45,809.366 8929.27,809.544C8929.09,809.718 8928.88,809.804 8928.63,809.804C8928.38,809.804 8928.16,809.718 8927.99,809.544C8927.81,809.37 8927.73,809.153 8927.73,808.893Z" style="fill:white;fill-rule:nonzero;"/>
                <path d="M8933.23,800.989L8931.5,800.989L8932.33,799.57L8934.75,799.57L8934.75,809.622L8933.23,809.622L8933.23,800.989Z" style="fill:white;fill-rule:nonzero;"/>
                <path d="M8940.14,808.196L8943.88,808.196L8943.88,809.622L8937.13,809.622L8940.62,805.397C8940.96,804.976 8941.25,804.611 8941.48,804.303C8941.71,803.995 8941.89,803.737 8942.01,803.528C8942.26,803.12 8942.38,802.754 8942.38,802.428C8942.38,801.959 8942.22,801.567 8941.89,801.25C8941.56,800.933 8941.15,800.774 8940.66,800.774C8939.65,800.774 8939.07,801.376 8938.92,802.578L8937.41,802.578C8937.65,800.46 8938.72,799.401 8940.62,799.401C8941.53,799.401 8942.3,799.692 8942.92,800.273C8943.55,800.855 8943.86,801.575 8943.86,802.435C8943.86,802.981 8943.71,803.517 8943.42,804.043C8943.27,804.316 8943.06,804.641 8942.77,805.016C8942.49,805.391 8942.13,805.835 8941.7,806.347L8940.14,808.196Z" style="fill:white;fill-rule:nonzero;"/>
                <path d="M8952.04,800.989L8948.94,800.989L8948.44,802.656C8948.52,802.647 8948.59,802.641 8948.65,802.636C8948.72,802.632 8948.78,802.63 8948.84,802.63C8949.82,802.63 8950.62,802.96 8951.24,803.619C8951.87,804.275 8952.18,805.115 8952.18,806.139C8952.18,807.198 8951.83,808.07 8951.12,808.756C8950.41,809.442 8949.51,809.785 8948.43,809.785C8947.1,809.785 8946.05,809.16 8945.28,807.91L8946.42,806.94C8946.74,807.478 8947.06,807.858 8947.38,808.079C8947.7,808.296 8948.09,808.405 8948.56,808.405C8949.17,808.405 8949.68,808.192 8950.09,807.767C8950.5,807.328 8950.71,806.797 8950.71,806.172C8950.71,805.529 8950.5,805.004 8950.1,804.596C8949.69,804.175 8949.18,803.965 8948.57,803.965C8947.88,803.965 8947.3,804.262 8946.8,804.856L8946.3,804.856L8947.88,799.57L8952.04,799.57L8952.04,800.989Z" style="fill:white;fill-rule:nonzero;"/>
                <path d="M8960.26,806.191L8957.98,803.281L8959.72,803.281L8961.14,805.13L8962.58,803.281L8964.37,803.281L8962.03,806.191L8964.74,809.622L8963,809.622L8961.14,807.252L8959.23,809.622L8957.44,809.622L8960.26,806.191Z" style="fill:white;fill-rule:nonzero;"/>
                <path d="M8970.08,808.893C8970.08,808.65 8970.17,808.439 8970.34,808.261C8970.52,808.083 8970.73,807.994 8970.98,807.994C8971.23,807.994 8971.44,808.083 8971.62,808.261C8971.8,808.439 8971.89,808.652 8971.89,808.899C8971.89,809.151 8971.8,809.366 8971.62,809.544C8971.44,809.718 8971.23,809.804 8970.98,809.804C8970.73,809.804 8970.51,809.718 8970.34,809.544C8970.16,809.37 8970.08,809.153 8970.08,808.893Z" style="fill:white;fill-rule:nonzero;"/>
                <path d="M8975.58,800.989L8973.85,800.989L8974.68,799.57L8977.1,799.57L8977.1,809.622L8975.58,809.622L8975.58,800.989Z" style="fill:white;fill-rule:nonzero;"/>
                <path d="M8982.49,808.196L8986.23,808.196L8986.23,809.622L8979.48,809.622L8982.97,805.397C8983.31,804.976 8983.6,804.611 8983.83,804.303C8984.06,803.995 8984.24,803.737 8984.36,803.528C8984.61,803.12 8984.73,802.754 8984.73,802.428C8984.73,801.959 8984.57,801.567 8984.24,801.25C8983.91,800.933 8983.5,800.774 8983.01,800.774C8982,800.774 8981.42,801.376 8981.27,802.578L8979.76,802.578C8980,800.46 8981.07,799.401 8982.97,799.401C8983.88,799.401 8984.65,799.692 8985.27,800.273C8985.9,800.855 8986.21,801.575 8986.21,802.435C8986.21,802.981 8986.06,803.517 8985.77,804.043C8985.62,804.316 8985.41,804.641 8985.12,805.016C8984.84,805.391 8984.48,805.835 8984.05,806.347L8982.49,808.196Z" style="fill:white;fill-rule:nonzero;"/>
                <path d="M8994.39,800.989L8991.29,800.989L8990.79,802.656C8990.87,802.647 8990.94,802.641 8991,802.636C8991.07,802.632 8991.13,802.63 8991.19,802.63C8992.17,802.63 8992.97,802.96 8993.59,803.619C8994.22,804.275 8994.54,805.115 8994.54,806.139C8994.54,807.198 8994.18,808.07 8993.47,808.756C8992.76,809.442 8991.86,809.785 8990.78,809.785C8989.45,809.785 8988.4,809.16 8987.63,807.91L8988.77,806.94C8989.09,807.478 8989.41,807.858 8989.73,808.079C8990.05,808.296 8990.44,808.405 8990.91,808.405C8991.52,808.405 8992.03,808.192 8992.44,807.767C8992.85,807.328 8993.06,806.797 8993.06,806.172C8993.06,805.529 8992.85,805.004 8992.45,804.596C8992.04,804.175 8991.53,803.965 8990.92,803.965C8990.23,803.965 8989.65,804.262 8989.15,804.856L8988.65,804.856L8990.23,799.57L8994.39,799.57L8994.39,800.989Z" style="fill:white;fill-rule:nonzero;"/>
                <path d="M9002.61,806.191L9000.33,803.281L9002.08,803.281L9003.49,805.13L9004.93,803.281L9006.72,803.281L9004.38,806.191L9007.09,809.622L9005.35,809.622L9003.49,807.252L9001.58,809.622L8999.79,809.622L9002.61,806.191Z" style="fill:white;fill-rule:nonzero;"/>
                <path d="M9012.43,808.893C9012.43,808.65 9012.51,808.439 9012.69,808.261C9012.87,808.083 9013.08,807.994 9013.33,807.994C9013.58,807.994 9013.79,808.083 9013.97,808.261C9014.15,808.439 9014.24,808.652 9014.24,808.899C9014.24,809.151 9014.15,809.366 9013.97,809.544C9013.8,809.718 9013.58,809.804 9013.33,809.804C9013.08,809.804 9012.86,809.718 9012.69,809.544C9012.51,809.37 9012.43,809.153 9012.43,808.893Z" style="fill:white;fill-rule:nonzero;"/>
                <path d="M9017.93,800.989L9016.2,800.989L9017.03,799.57L9019.45,799.57L9019.45,809.622L9017.93,809.622L9017.93,800.989Z" style="fill:white;fill-rule:nonzero;"/>
                <path d="M9026.96,800.989L9022,800.989L9022,799.57L9029.5,799.57L9023.16,809.967L9021.95,809.205L9026.96,800.989Z" style="fill:white;fill-rule:nonzero;"/>
                <path d="M9035.38,800.989L9030.42,800.989L9030.42,799.57L9037.92,799.57L9031.57,809.967L9030.37,809.205L9035.38,800.989Z" style="fill:white;fill-rule:nonzero;"/>
                <path d="M9043.56,798.626L9045.03,798.626L9045.03,809.622L9043.56,809.622L9043.56,808.958C9042.98,809.522 9042.33,809.804 9041.6,809.804C9040.73,809.804 9040.01,809.488 9039.44,808.854C9038.87,808.207 9038.59,807.4 9038.59,806.432C9038.59,805.486 9038.87,804.696 9039.44,804.062C9040,803.424 9040.71,803.105 9041.57,803.105C9042.31,803.105 9042.97,803.409 9043.56,804.017L9043.56,798.626ZM9040.08,806.432C9040.08,807.04 9040.25,807.534 9040.57,807.916C9040.91,808.303 9041.33,808.496 9041.83,808.496C9042.38,808.496 9042.82,808.309 9043.15,807.936C9043.48,807.55 9043.65,807.059 9043.65,806.465C9043.65,805.87 9043.48,805.379 9043.15,804.993C9042.82,804.616 9042.38,804.427 9041.85,804.427C9041.34,804.427 9040.92,804.618 9040.58,805C9040.25,805.386 9040.08,805.863 9040.08,806.432Z" style="fill:white;fill-rule:nonzero;"/>
                <path d="M9048.34,803.281L9048.34,809.622L9046.88,809.622L9046.88,803.281L9048.34,803.281ZM9046.66,800.644C9046.66,800.388 9046.75,800.167 9046.94,799.98C9047.12,799.794 9047.35,799.7 9047.61,799.7C9047.87,799.7 9048.1,799.794 9048.29,799.98C9048.47,800.162 9048.57,800.386 9048.57,800.651C9048.57,800.915 9048.47,801.141 9048.29,801.328C9048.1,801.514 9047.88,801.608 9047.61,801.608C9047.35,801.608 9047.12,801.514 9046.94,801.328C9046.75,801.141 9046.66,800.913 9046.66,800.644Z" style="fill:white;fill-rule:nonzero;"/>
                <path d="M9054.87,803.281L9056.35,803.281L9056.35,809.622L9054.87,809.622L9054.87,808.958C9054.27,809.522 9053.62,809.804 9052.93,809.804C9052.05,809.804 9051.33,809.488 9050.75,808.854C9050.18,808.207 9049.9,807.4 9049.9,806.432C9049.9,805.481 9050.18,804.689 9050.75,804.056C9051.32,803.422 9052.03,803.105 9052.89,803.105C9053.63,803.105 9054.29,803.409 9054.87,804.017L9054.87,803.281ZM9051.4,806.432C9051.4,807.04 9051.56,807.534 9051.89,807.916C9052.22,808.303 9052.64,808.496 9053.15,808.496C9053.69,808.496 9054.13,808.309 9054.46,807.936C9054.8,807.55 9054.97,807.059 9054.97,806.465C9054.97,805.87 9054.8,805.379 9054.46,804.993C9054.13,804.616 9053.7,804.427 9053.16,804.427C9052.66,804.427 9052.24,804.618 9051.9,805C9051.57,805.386 9051.4,805.863 9051.4,806.432Z" style="fill:white;fill-rule:nonzero;"/>
                <path d="M9064.33,809.472C9064.33,809.772 9064.32,810.035 9064.3,810.263C9064.28,810.491 9064.25,810.692 9064.22,810.866C9064.11,811.343 9063.91,811.753 9063.6,812.096C9063.03,812.756 9062.24,813.086 9061.24,813.086C9060.4,813.086 9059.7,812.858 9059.15,812.402C9058.59,811.933 9058.26,811.284 9058.18,810.455L9059.65,810.455C9059.7,810.768 9059.8,811.009 9059.93,811.178C9060.23,811.573 9060.67,811.771 9061.25,811.771C9062.33,811.771 9062.86,811.113 9062.86,809.798L9062.86,808.912C9062.28,809.507 9061.61,809.804 9060.85,809.804C9059.99,809.804 9059.28,809.492 9058.73,808.867C9058.17,808.233 9057.9,807.441 9057.9,806.491C9057.9,805.566 9058.15,804.78 9058.67,804.134C9059.23,803.448 9059.96,803.105 9060.87,803.105C9061.67,803.105 9062.33,803.402 9062.86,803.997L9062.86,803.281L9064.33,803.281L9064.33,809.472ZM9062.92,806.465C9062.92,805.848 9062.76,805.356 9062.43,804.987C9062.09,804.609 9061.67,804.42 9061.14,804.42C9060.59,804.42 9060.15,804.626 9059.83,805.039C9059.54,805.408 9059.39,805.885 9059.39,806.471C9059.39,807.048 9059.54,807.521 9059.83,807.89C9060.15,808.294 9060.58,808.496 9061.14,808.496C9061.7,808.496 9062.15,808.292 9062.47,807.884C9062.77,807.515 9062.92,807.042 9062.92,806.465Z" style="fill:white;fill-rule:nonzero;"/>
            </g>
            <path d="M1905.39,2624.97C1902.28,2622.44 1897.7,2622.92 1895.17,2626.04C1892.65,2629.16 1893.13,2633.74 1896.25,2636.26C1899.36,2638.79 1903.94,2638.3 1906.47,2635.19C1908.99,2632.07 1908.51,2627.49 1905.39,2624.97Z" style="fill:none;stroke:black;stroke-width:1.33px;"/>
        </g>
    </g>
    <g id="Scoop1">
        <g id="Wood1">
            <path d="M1718.64,1447.33C1721.98,1449.56 1722.88,1454.07 1720.66,1457.41C1718.43,1460.75 1713.92,1461.65 1710.58,1459.43C1707.24,1457.2 1706.34,1452.68 1708.56,1449.35C1710.79,1446.01 1715.31,1445.11 1718.64,1447.33Z" style="fill:none;stroke:black;stroke-width:1.33px;"/>
            <path d="M1542.24,1467.94C1540.02,1471.28 1535.5,1472.18 1532.16,1469.96C1528.83,1467.73 1527.92,1463.22 1530.15,1459.88C1532.37,1456.54 1536.89,1455.64 1540.23,1457.86C1543.56,1460.09 1544.47,1464.6 1542.24,1467.94Z" style="fill:none;stroke:black;stroke-width:1.33px;"/>
            <path d="M1691.63,1358.15C1693.05,1356.02 1692.48,1353.13 1690.34,1351.71L1580.65,1278.59C1578.52,1277.17 1575.63,1277.75 1574.21,1279.88L1503.75,1385.58C1502.33,1387.71 1502.91,1390.6 1505.04,1392.03L1614.73,1465.14C1616.87,1466.56 1619.76,1465.99 1621.18,1463.85L1691.63,1358.15Z" style="stroke:black;stroke-width:0.2px;"/>
            <path d="M1580.65,1278.59C1578.52,1277.17 1575.63,1277.75 1574.21,1279.88L1503.75,1385.58C1502.33,1387.71 1502.91,1390.6 1505.04,1392.03L1614.73,1465.14C1616.87,1466.56 1619.76,1465.99 1621.18,1463.85L1691.63,1358.15C1693.05,1356.02 1692.48,1353.13 1690.34,1351.71L1690.38,1351.73C1698,1356.82 1700.07,1367.13 1694.98,1374.76L1631.14,1470.54C1626.06,1478.17 1615.74,1480.23 1608.11,1475.15L1498.35,1401.99C1490.73,1396.9 1488.66,1386.59 1493.74,1378.96L1557.59,1283.18C1562.67,1275.55 1572.99,1273.49 1580.61,1278.57L1580.65,1278.59Z" style="fill:rgb(255,176,5);stroke:black;stroke-width:0.2px;"/>
            <g transform="matrix(0.679719,0.447862,-0.447862,0.679719,-4188.35,-3154.79)">
                <path d="M8937.6,786.38L8937.6,788.177C8936.73,787.443 8935.82,787.077 8934.88,787.077C8933.85,787.077 8932.98,787.448 8932.27,788.19C8931.56,788.928 8931.2,789.83 8931.2,790.898C8931.2,791.953 8931.56,792.843 8932.27,793.567C8932.98,794.292 8933.85,794.655 8934.89,794.655C8935.42,794.655 8935.88,794.568 8936.25,794.394C8936.46,794.307 8936.67,794.19 8936.9,794.043C8937.12,793.895 8937.35,793.717 8937.6,793.509L8937.6,795.338C8936.73,795.829 8935.82,796.074 8934.87,796.074C8933.43,796.074 8932.2,795.573 8931.19,794.57C8930.18,793.559 8929.67,792.339 8929.67,790.911C8929.67,789.631 8930.1,788.489 8930.94,787.487C8931.98,786.258 8933.33,785.644 8934.99,785.644C8935.89,785.644 8936.76,785.889 8937.6,786.38Z" style="fill:white;fill-rule:nonzero;"/>
                <path d="M8941.31,789.772L8945.65,789.772L8945.65,785.84L8947.17,785.84L8947.17,795.892L8945.65,795.892L8945.65,791.198L8941.31,791.198L8941.31,795.892L8939.8,795.892L8939.8,785.84L8941.31,785.84L8941.31,789.772Z" style="fill:white;fill-rule:nonzero;"/>
                <path d="M8955.48,793.45L8951.18,793.45L8950.06,795.892L8948.42,795.892L8953.4,785.208L8958.19,795.892L8956.53,795.892L8955.48,793.45ZM8954.86,792.024L8953.37,788.606L8951.81,792.024L8954.86,792.024Z" style="fill:white;fill-rule:nonzero;"/>
                <path d="M8959.1,795.892L8961.22,785.084L8964.67,792.897L8968.24,785.084L8970.14,795.892L8968.59,795.892L8967.61,789.824L8964.64,796.354L8961.75,789.817L8960.67,795.892L8959.1,795.892Z" style="fill:white;fill-rule:nonzero;"/>
                <path d="M8977.29,787.265L8973.79,787.265L8973.79,789.681L8977.17,789.681L8977.17,791.106L8973.79,791.106L8973.79,795.892L8972.27,795.892L8972.27,785.84L8977.29,785.84L8977.29,787.265Z" style="fill:white;fill-rule:nonzero;"/>
                <path d="M8984.59,787.265L8980.56,787.265L8980.56,789.681L8984.48,789.681L8984.48,791.106L8980.56,791.106L8980.56,794.466L8984.59,794.466L8984.59,795.892L8979.05,795.892L8979.05,785.84L8984.59,785.84L8984.59,787.265Z" style="fill:white;fill-rule:nonzero;"/>
                <path d="M8989.99,791.608L8993.1,795.892L8991.25,795.892L8988.38,791.777L8988.1,791.777L8988.1,795.892L8986.59,795.892L8986.59,785.84L8988.36,785.84C8989.69,785.84 8990.65,786.089 8991.24,786.588C8991.89,787.144 8992.22,787.877 8992.22,788.789C8992.22,789.501 8992.01,790.113 8991.61,790.625C8991.2,791.137 8990.66,791.465 8989.99,791.608ZM8988.1,790.455L8988.59,790.455C8990.02,790.455 8990.74,789.906 8990.74,788.808C8990.74,787.78 8990.04,787.265 8988.64,787.265L8988.1,787.265L8988.1,790.455Z" style="fill:white;fill-rule:nonzero;"/>
                <path d="M9004.27,787.265L9000.25,787.265L9000.25,789.681L9004.16,789.681L9004.16,791.106L9000.25,791.106L9000.25,794.466L9004.27,794.466L9004.27,795.892L8998.73,795.892L8998.73,785.84L9004.27,785.84L9004.27,787.265Z" style="fill:white;fill-rule:nonzero;"/>
                <path d="M9006.27,795.892L9006.27,785.84L9008.38,785.84C9009.39,785.84 9010.19,785.939 9010.77,786.139C9011.4,786.334 9011.97,786.666 9012.49,787.135C9013.52,788.081 9014.04,789.325 9014.04,790.866C9014.04,792.411 9013.5,793.661 9012.42,794.616C9011.88,795.093 9011.31,795.425 9010.71,795.612C9010.16,795.798 9009.37,795.892 9008.35,795.892L9006.27,795.892ZM9007.78,794.466L9008.47,794.466C9009.15,794.466 9009.72,794.394 9010.17,794.251C9010.62,794.099 9011.03,793.858 9011.39,793.528C9012.14,792.847 9012.51,791.959 9012.51,790.866C9012.51,789.763 9012.14,788.869 9011.4,788.183C9010.74,787.571 9009.76,787.265 9008.47,787.265L9007.78,787.265L9007.78,794.466Z" style="fill:white;fill-rule:nonzero;"/>
                <path d="M9021.12,790.657L9025.27,790.657L9025.27,790.989C9025.27,791.744 9025.18,792.413 9025,792.994C9024.83,793.533 9024.54,794.036 9024.13,794.505C9023.19,795.555 9022.01,796.08 9020.56,796.08C9019.16,796.08 9017.95,795.573 9016.95,794.557C9015.95,793.537 9015.45,792.313 9015.45,790.885C9015.45,789.427 9015.96,788.19 9016.98,787.174C9018,786.154 9019.24,785.644 9020.7,785.644C9021.49,785.644 9022.22,785.805 9022.9,786.126C9023.55,786.447 9024.19,786.968 9024.82,787.688L9023.74,788.724C9022.92,787.626 9021.91,787.077 9020.73,787.077C9019.66,787.077 9018.77,787.443 9018.05,788.177C9017.33,788.897 9016.97,789.8 9016.97,790.885C9016.97,792.005 9017.37,792.927 9018.18,793.652C9018.93,794.325 9019.74,794.661 9020.62,794.661C9021.36,794.661 9022.03,794.409 9022.63,793.906C9023.22,793.398 9023.56,792.79 9023.62,792.083L9021.12,792.083L9021.12,790.657Z" style="fill:white;fill-rule:nonzero;"/>
                <path d="M9032.73,787.265L9028.7,787.265L9028.7,789.681L9032.61,789.681L9032.61,791.106L9028.7,791.106L9028.7,794.466L9032.73,794.466L9032.73,795.892L9027.18,795.892L9027.18,785.84L9032.73,785.84L9032.73,787.265Z" style="fill:white;fill-rule:nonzero;"/>
                <path d="M9041.61,787.265L9041.61,795.892L9040.09,795.892L9040.09,787.265L9037.78,787.265L9037.78,785.84L9043.91,785.84L9043.91,787.265L9041.61,787.265Z" style="fill:white;fill-rule:nonzero;"/>
                <path d="M9044.44,790.82C9044.44,789.405 9044.96,788.19 9046,787.174C9047.03,786.159 9048.27,785.651 9049.72,785.651C9051.16,785.651 9052.39,786.163 9053.41,787.187C9054.44,788.211 9054.95,789.442 9054.95,790.879C9054.95,792.324 9054.44,793.55 9053.4,794.557C9052.37,795.568 9051.11,796.074 9049.65,796.074C9048.35,796.074 9047.18,795.625 9046.15,794.726C9045.01,793.732 9044.44,792.43 9044.44,790.82ZM9045.97,790.84C9045.97,791.951 9046.35,792.864 9047.09,793.58C9047.84,794.297 9048.69,794.655 9049.67,794.655C9050.72,794.655 9051.61,794.29 9052.34,793.561C9053.06,792.823 9053.42,791.925 9053.42,790.866C9053.42,789.794 9053.06,788.895 9052.35,788.17C9051.64,787.441 9050.76,787.077 9049.7,787.077C9048.66,787.077 9047.78,787.441 9047.06,788.17C9046.34,788.891 9045.97,789.78 9045.97,790.84Z" style="fill:white;fill-rule:nonzero;"/>
                <path d="M9058.38,791.81L9058.38,795.892L9056.86,795.892L9056.86,785.84L9058.58,785.84C9059.42,785.84 9060.06,785.898 9060.49,786.015C9060.92,786.132 9061.3,786.354 9061.63,786.679C9062.21,787.244 9062.5,787.955 9062.5,788.815C9062.5,789.735 9062.19,790.464 9061.57,791.002C9060.96,791.54 9060.13,791.81 9059.08,791.81L9058.38,791.81ZM9058.38,790.403L9058.94,790.403C9060.34,790.403 9061.03,789.867 9061.03,788.795C9061.03,787.758 9060.32,787.239 9058.88,787.239L9058.38,787.239L9058.38,790.403Z" style="fill:white;fill-rule:nonzero;"/>
                <path d="M8927.73,808.893C8927.73,808.65 8927.82,808.439 8927.99,808.261C8928.17,808.083 8928.38,807.994 8928.63,807.994C8928.88,807.994 8929.09,808.083 8929.27,808.261C8929.45,808.439 8929.54,808.652 8929.54,808.899C8929.54,809.151 8929.45,809.366 8929.27,809.544C8929.09,809.718 8928.88,809.804 8928.63,809.804C8928.38,809.804 8928.16,809.718 8927.99,809.544C8927.81,809.37 8927.73,809.153 8927.73,808.893Z" style="fill:white;fill-rule:nonzero;"/>
                <path d="M8933.23,800.989L8931.5,800.989L8932.33,799.57L8934.75,799.57L8934.75,809.622L8933.23,809.622L8933.23,800.989Z" style="fill:white;fill-rule:nonzero;"/>
                <path d="M8940.14,808.196L8943.88,808.196L8943.88,809.622L8937.13,809.622L8940.62,805.397C8940.96,804.976 8941.25,804.611 8941.48,804.303C8941.71,803.995 8941.89,803.737 8942.01,803.528C8942.26,803.12 8942.38,802.754 8942.38,802.428C8942.38,801.959 8942.22,801.567 8941.89,801.25C8941.56,800.933 8941.15,800.774 8940.66,800.774C8939.65,800.774 8939.07,801.376 8938.92,802.578L8937.41,802.578C8937.65,800.46 8938.72,799.401 8940.62,799.401C8941.53,799.401 8942.3,799.692 8942.92,800.273C8943.55,800.855 8943.86,801.575 8943.86,802.435C8943.86,802.981 8943.71,803.517 8943.42,804.043C8943.27,804.316 8943.06,804.641 8942.77,805.016C8942.49,805.391 8942.13,805.835 8941.7,806.347L8940.14,808.196Z" style="fill:white;fill-rule:nonzero;"/>
                <path d="M8952.04,800.989L8948.94,800.989L8948.44,802.656C8948.52,802.647 8948.59,802.641 8948.65,802.636C8948.72,802.632 8948.78,802.63 8948.84,802.63C8949.82,802.63 8950.62,802.96 8951.24,803.619C8951.87,804.275 8952.18,805.115 8952.18,806.139C8952.18,807.198 8951.83,808.07 8951.12,808.756C8950.41,809.442 8949.51,809.785 8948.43,809.785C8947.1,809.785 8946.05,809.16 8945.28,807.91L8946.42,806.94C8946.74,807.478 8947.06,807.858 8947.38,808.079C8947.7,808.296 8948.09,808.405 8948.56,808.405C8949.17,808.405 8949.68,808.192 8950.09,807.767C8950.5,807.328 8950.71,806.797 8950.71,806.172C8950.71,805.529 8950.5,805.004 8950.1,804.596C8949.69,804.175 8949.18,803.965 8948.57,803.965C8947.88,803.965 8947.3,804.262 8946.8,804.856L8946.3,804.856L8947.88,799.57L8952.04,799.57L8952.04,800.989Z" style="fill:white;fill-rule:nonzero;"/>
                <path d="M8960.26,806.191L8957.98,803.281L8959.72,803.281L8961.14,805.13L8962.58,803.281L8964.37,803.281L8962.03,806.191L8964.74,809.622L8963,809.622L8961.14,807.252L8959.23,809.622L8957.44,809.622L8960.26,806.191Z" style="fill:white;fill-rule:nonzero;"/>
                <path d="M8970.08,808.893C8970.08,808.65 8970.17,808.439 8970.34,808.261C8970.52,808.083 8970.73,807.994 8970.98,807.994C8971.23,807.994 8971.44,808.083 8971.62,808.261C8971.8,808.439 8971.89,808.652 8971.89,808.899C8971.89,809.151 8971.8,809.366 8971.62,809.544C8971.44,809.718 8971.23,809.804 8970.98,809.804C8970.73,809.804 8970.51,809.718 8970.34,809.544C8970.16,809.37 8970.08,809.153 8970.08,808.893Z" style="fill:white;fill-rule:nonzero;"/>
                <path d="M8975.58,800.989L8973.85,800.989L8974.68,799.57L8977.1,799.57L8977.1,809.622L8975.58,809.622L8975.58,800.989Z" style="fill:white;fill-rule:nonzero;"/>
                <path d="M8982.49,808.196L8986.23,808.196L8986.23,809.622L8979.48,809.622L8982.97,805.397C8983.31,804.976 8983.6,804.611 8983.83,804.303C8984.06,803.995 8984.24,803.737 8984.36,803.528C8984.61,803.12 8984.73,802.754 8984.73,802.428C8984.73,801.959 8984.57,801.567 8984.24,801.25C8983.91,800.933 8983.5,800.774 8983.01,800.774C8982,800.774 8981.42,801.376 8981.27,802.578L8979.76,802.578C8980,800.46 8981.07,799.401 8982.97,799.401C8983.88,799.401 8984.65,799.692 8985.27,800.273C8985.9,800.855 8986.21,801.575 8986.21,802.435C8986.21,802.981 8986.06,803.517 8985.77,804.043C8985.62,804.316 8985.41,804.641 8985.12,805.016C8984.84,805.391 8984.48,805.835 8984.05,806.347L8982.49,808.196Z" style="fill:white;fill-rule:nonzero;"/>
                <path d="M8994.39,800.989L8991.29,800.989L8990.79,802.656C8990.87,802.647 8990.94,802.641 8991,802.636C8991.07,802.632 8991.13,802.63 8991.19,802.63C8992.17,802.63 8992.97,802.96 8993.59,803.619C8994.22,804.275 8994.54,805.115 8994.54,806.139C8994.54,807.198 8994.18,808.07 8993.47,808.756C8992.76,809.442 8991.86,809.785 8990.78,809.785C8989.45,809.785 8988.4,809.16 8987.63,807.91L8988.77,806.94C8989.09,807.478 8989.41,807.858 8989.73,808.079C8990.05,808.296 8990.44,808.405 8990.91,808.405C8991.52,808.405 8992.03,808.192 8992.44,807.767C8992.85,807.328 8993.06,806.797 8993.06,806.172C8993.06,805.529 8992.85,805.004 8992.45,804.596C8992.04,804.175 8991.53,803.965 8990.92,803.965C8990.23,803.965 8989.65,804.262 8989.15,804.856L8988.65,804.856L8990.23,799.57L8994.39,799.57L8994.39,800.989Z" style="fill:white;fill-rule:nonzero;"/>
                <path d="M9002.61,806.191L9000.33,803.281L9002.08,803.281L9003.49,805.13L9004.93,803.281L9006.72,803.281L9004.38,806.191L9007.09,809.622L9005.35,809.622L9003.49,807.252L9001.58,809.622L8999.79,809.622L9002.61,806.191Z" style="fill:white;fill-rule:nonzero;"/>
                <path d="M9012.43,808.893C9012.43,808.65 9012.51,808.439 9012.69,808.261C9012.87,808.083 9013.08,807.994 9013.33,807.994C9013.58,807.994 9013.79,808.083 9013.97,808.261C9014.15,808.439 9014.24,808.652 9014.24,808.899C9014.24,809.151 9014.15,809.366 9013.97,809.544C9013.8,809.718 9013.58,809.804 9013.33,809.804C9013.08,809.804 9012.86,809.718 9012.69,809.544C9012.51,809.37 9012.43,809.153 9012.43,808.893Z" style="fill:white;fill-rule:nonzero;"/>
                <path d="M9017.93,800.989L9016.2,800.989L9017.03,799.57L9019.45,799.57L9019.45,809.622L9017.93,809.622L9017.93,800.989Z" style="fill:white;fill-rule:nonzero;"/>
                <path d="M9026.96,800.989L9022,800.989L9022,799.57L9029.5,799.57L9023.16,809.967L9021.95,809.205L9026.96,800.989Z" style="fill:white;fill-rule:nonzero;"/>
                <path d="M9035.38,800.989L9030.42,800.989L9030.42,799.57L9037.92,799.57L9031.57,809.967L9030.37,809.205L9035.38,800.989Z" style="fill:white;fill-rule:nonzero;"/>
                <path d="M9043.56,798.626L9045.03,798.626L9045.03,809.622L9043.56,809.622L9043.56,808.958C9042.98,809.522 9042.33,809.804 9041.6,809.804C9040.73,809.804 9040.01,809.488 9039.44,808.854C9038.87,808.207 9038.59,807.4 9038.59,806.432C9038.59,805.486 9038.87,804.696 9039.44,804.062C9040,803.424 9040.71,803.105 9041.57,803.105C9042.31,803.105 9042.97,803.409 9043.56,804.017L9043.56,798.626ZM9040.08,806.432C9040.08,807.04 9040.25,807.534 9040.57,807.916C9040.91,808.303 9041.33,808.496 9041.83,808.496C9042.38,808.496 9042.82,808.309 9043.15,807.936C9043.48,807.55 9043.65,807.059 9043.65,806.465C9043.65,805.87 9043.48,805.379 9043.15,804.993C9042.82,804.616 9042.38,804.427 9041.85,804.427C9041.34,804.427 9040.92,804.618 9040.58,805C9040.25,805.386 9040.08,805.863 9040.08,806.432Z" style="fill:white;fill-rule:nonzero;"/>
                <path d="M9048.34,803.281L9048.34,809.622L9046.88,809.622L9046.88,803.281L9048.34,803.281ZM9046.66,800.644C9046.66,800.388 9046.75,800.167 9046.94,799.98C9047.12,799.794 9047.35,799.7 9047.61,799.7C9047.87,799.7 9048.1,799.794 9048.29,799.98C9048.47,800.162 9048.57,800.386 9048.57,800.651C9048.57,800.915 9048.47,801.141 9048.29,801.328C9048.1,801.514 9047.88,801.608 9047.61,801.608C9047.35,801.608 9047.12,801.514 9046.94,801.328C9046.75,801.141 9046.66,800.913 9046.66,800.644Z" style="fill:white;fill-rule:nonzero;"/>
                <path d="M9054.87,803.281L9056.35,803.281L9056.35,809.622L9054.87,809.622L9054.87,808.958C9054.27,809.522 9053.62,809.804 9052.93,809.804C9052.05,809.804 9051.33,809.488 9050.75,808.854C9050.18,808.207 9049.9,807.4 9049.9,806.432C9049.9,805.481 9050.18,804.689 9050.75,804.056C9051.32,803.422 9052.03,803.105 9052.89,803.105C9053.63,803.105 9054.29,803.409 9054.87,804.017L9054.87,803.281ZM9051.4,806.432C9051.4,807.04 9051.56,807.534 9051.89,807.916C9052.22,808.303 9052.64,808.496 9053.15,808.496C9053.69,808.496 9054.13,808.309 9054.46,807.936C9054.8,807.55 9054.97,807.059 9054.97,806.465C9054.97,805.87 9054.8,805.379 9054.46,804.993C9054.13,804.616 9053.7,804.427 9053.16,804.427C9052.66,804.427 9052.24,804.618 9051.9,805C9051.57,805.386 9051.4,805.863 9051.4,806.432Z" style="fill:white;fill-rule:nonzero;"/>
                <path d="M9064.33,809.472C9064.33,809.772 9064.32,810.035 9064.3,810.263C9064.28,810.491 9064.25,810.692 9064.22,810.866C9064.11,811.343 9063.91,811.753 9063.6,812.096C9063.03,812.756 9062.24,813.086 9061.24,813.086C9060.4,813.086 9059.7,812.858 9059.15,812.402C9058.59,811.933 9058.26,811.284 9058.18,810.455L9059.65,810.455C9059.7,810.768 9059.8,811.009 9059.93,811.178C9060.23,811.573 9060.67,811.771 9061.25,811.771C9062.33,811.771 9062.86,811.113 9062.86,809.798L9062.86,808.912C9062.28,809.507 9061.61,809.804 9060.85,809.804C9059.99,809.804 9059.28,809.492 9058.73,808.867C9058.17,808.233 9057.9,807.441 9057.9,806.491C9057.9,805.566 9058.15,804.78 9058.67,804.134C9059.23,803.448 9059.96,803.105 9060.87,803.105C9061.67,803.105 9062.33,803.402 9062.86,803.997L9062.86,803.281L9064.33,803.281L9064.33,809.472ZM9062.92,806.465C9062.92,805.848 9062.76,805.356 9062.43,804.987C9062.09,804.609 9061.67,804.42 9061.14,804.42C9060.59,804.42 9060.15,804.626 9059.83,805.039C9059.54,805.408 9059.39,805.885 9059.39,806.471C9059.39,807.048 9059.54,807.521 9059.83,807.89C9060.15,808.294 9060.58,808.496 9061.14,808.496C9061.7,808.496 9062.15,808.292 9062.47,807.884C9062.77,807.515 9062.92,807.042 9062.92,806.465Z" style="fill:white;fill-rule:nonzero;"/>
            </g>
            <path d="M1481.55,1289.3C1478.21,1287.07 1473.7,1287.98 1471.47,1291.31C1469.25,1294.65 1470.15,1299.17 1473.49,1301.39C1476.83,1303.62 1481.34,1302.71 1483.57,1299.38C1485.79,1296.04 1484.89,1291.52 1481.55,1289.3Z" style="fill:none;stroke:black;stroke-width:1.33px;"/>
        </g>
    </g>
    <g id="Side-Wood-Hole">
        <path d="M234.752,529.824L234.752,512.614" style="fill:none;stroke:black;stroke-width:0.74px;stroke-miterlimit:10;"/>
        <path d="M226.557,521.629L243.768,521.629" style="fill:none;stroke:black;stroke-width:0.74px;stroke-miterlimit:10;"/>
        <path d="M235.162,515.073C231.769,515.073 229.014,517.827 229.014,521.22C229.014,524.613 231.769,527.368 235.162,527.368C238.555,527.368 241.31,524.613 241.31,521.22C241.31,517.827 238.555,515.073 235.162,515.073" style="fill:none;stroke:black;stroke-width:0.74px;stroke-miterlimit:10;"/>
    </g>
    <g id="Pop-Bumper">
        <g id="Wood2">
            <path d="M1438.16,813.524C1440.18,813.166 1442.39,812.606 1444.39,811.854C1461.02,805.622 1469.49,786.977 1463.26,770.348C1462.51,768.349 1461.44,766.194 1460.38,764.441" style="fill:none;stroke:rgb(35,31,32);stroke-width:1.11px;stroke-linecap:butt;stroke-linejoin:miter;"/>
            <path d="M1405.76,798.872C1402.51,803.619 1401.76,809.831 1403.81,815.291C1407.29,824.574 1417.7,829.306 1426.98,825.826C1432.44,823.779 1436.6,819.065 1438.04,813.491" style="fill:none;stroke:rgb(35,31,32);stroke-width:1.11px;stroke-linecap:butt;stroke-linejoin:miter;"/>
            <path d="M1473.09,837.141C1464.69,814.67 1430.95,827.312 1439.39,849.777C1447.79,872.247 1481.53,859.606 1473.09,837.141Z" style="fill:none;stroke:rgb(35,31,32);stroke-width:1.11px;stroke-linecap:butt;stroke-linejoin:miter;"/>
            <path d="M1460.38,764.466C1463.64,759.716 1464.39,753.507 1462.34,748.047C1458.86,738.764 1448.45,734.031 1439.16,737.512C1433.7,739.559 1429.54,744.273 1428.1,749.847" style="fill:none;stroke:rgb(35,31,32);stroke-width:1.11px;stroke-linecap:butt;stroke-linejoin:miter;"/>
            <path d="M1426.76,713.561C1418.35,691.091 1384.62,703.738 1393.05,726.197C1401.46,748.667 1435.19,736.026 1426.76,713.561Z" style="fill:none;stroke:rgb(35,31,32);stroke-width:1.11px;stroke-linecap:butt;stroke-linejoin:miter;"/>
            <path d="M1428.1,749.769C1426.09,750.128 1423.76,750.729 1421.76,751.481C1405.13,757.716 1396.65,776.36 1402.88,792.984C1403.64,794.989 1404.71,797.141 1405.78,798.895" style="fill:none;stroke:rgb(35,31,32);stroke-width:1.11px;stroke-linecap:butt;stroke-linejoin:miter;"/>
            <path d="M1393.37,760.469C1391.04,761.342 1389.86,763.937 1390.73,766.27C1391.6,768.595 1394.2,769.784 1396.52,768.911C1398.86,768.038 1400.04,765.45 1399.17,763.11C1398.3,760.784 1395.7,759.596 1393.37,760.469" style="fill:none;stroke:black;stroke-width:0.74px;stroke-miterlimit:10;"/>
            <path d="M1469.54,795.267C1467.2,796.14 1466.02,798.735 1466.89,801.068C1467.76,803.394 1470.36,804.583 1472.69,803.709C1475.02,802.836 1476.2,800.248 1475.34,797.908C1474.46,795.582 1471.87,794.394 1469.54,795.267" style="fill:none;stroke:black;stroke-width:0.74px;stroke-miterlimit:10;"/>
            <path d="M1314.35,802.497L1319.28,800.564L1318.81,802.359L1314.1,804.103L1314.04,804.367L1318.02,805.403L1317.63,806.871L1307.91,804.341L1308.35,802.621C1308.69,801.335 1309.17,800.47 1309.8,800.024C1310.5,799.534 1311.3,799.404 1312.18,799.633C1312.87,799.812 1313.41,800.164 1313.8,800.687C1314.19,801.211 1314.38,801.814 1314.35,802.497ZM1312.76,804.035L1312.88,803.568C1313.24,802.178 1312.89,801.345 1311.83,801.068C1310.83,800.809 1310.16,801.356 1309.8,802.709L1309.67,803.232L1312.76,804.035Z" style="fill-rule:nonzero;"/>
            <path d="M1314.56,798.531C1313.19,798.175 1312.15,797.367 1311.43,796.108C1310.7,794.852 1310.53,793.523 1310.89,792.12C1311.25,790.734 1312.06,789.674 1313.3,788.941C1314.55,788.203 1315.87,788.015 1317.27,788.376C1318.66,788.74 1319.72,789.549 1320.43,790.802C1321.15,792.06 1321.33,793.399 1320.96,794.819C1320.63,796.075 1319.9,797.09 1318.77,797.863C1317.53,798.714 1316.12,798.936 1314.56,798.531ZM1314.97,797.055C1316.04,797.335 1317.02,797.204 1317.9,796.661C1318.78,796.123 1319.34,795.384 1319.59,794.443C1319.85,793.422 1319.73,792.469 1319.2,791.584C1318.67,790.697 1317.89,790.12 1316.87,789.854C1315.83,789.584 1314.87,789.704 1313.99,790.215C1313.1,790.72 1312.53,791.481 1312.26,792.498C1312,793.51 1312.13,794.457 1312.66,795.338C1313.17,796.216 1313.94,796.789 1314.97,797.055Z" style="fill-rule:nonzero;"/>
            <path d="M1313.25,783.794L1319.11,785.318C1319.94,785.535 1320.59,785.557 1321.05,785.385C1321.71,785.123 1322.14,784.622 1322.34,783.883C1322.53,783.139 1322.4,782.491 1321.95,781.938C1321.64,781.568 1321.07,781.273 1320.22,781.052L1314.36,779.528L1314.74,778.06L1321,779.689C1322.03,779.955 1322.79,780.494 1323.29,781.305C1323.84,782.216 1323.98,783.194 1323.71,784.24C1323.44,785.286 1322.84,786.07 1321.91,786.592C1321.08,787.058 1320.16,787.157 1319.13,786.891L1312.87,785.262L1313.25,783.794Z" style="fill-rule:nonzero;"/>
            <path d="M1317.42,773.403L1325.77,775.574L1325.39,777.043L1317.04,774.872L1316.46,777.108L1315.08,776.75L1316.62,770.814L1318.01,771.173L1317.42,773.403Z" style="fill-rule:nonzero;"/>
            <path d="M1319.74,764.494L1318.73,768.394L1321.07,769.002L1322.05,765.215L1323.43,765.574L1322.44,769.361L1325.7,770.206L1326.71,766.306L1328.09,766.665L1326.69,772.033L1316.97,769.504L1318.36,764.135L1319.74,764.494Z" style="fill-rule:nonzero;"/>
            <path d="M1328.91,760.622C1328.67,760.561 1328.49,760.421 1328.36,760.204C1328.24,759.987 1328.2,759.759 1328.27,759.52C1328.33,759.28 1328.47,759.097 1328.69,758.97C1328.9,758.842 1329.13,758.809 1329.37,758.872C1329.61,758.935 1329.8,759.075 1329.93,759.292C1330.05,759.504 1330.08,759.732 1330.02,759.975C1329.95,760.223 1329.82,760.409 1329.6,760.534C1329.39,760.658 1329.16,760.687 1328.91,760.622Z" style="fill-rule:nonzero;"/>
            <path d="M1325.58,756.109C1324.03,755.706 1322.88,755.023 1322.15,754.06C1321.48,753.196 1321.26,752.304 1321.5,751.384C1321.74,750.464 1322.36,749.789 1323.37,749.36C1324.48,748.877 1325.83,748.843 1327.42,749.257C1329.01,749.67 1330.17,750.358 1330.91,751.321C1331.58,752.185 1331.79,753.075 1331.55,753.991C1331.32,754.907 1330.69,755.583 1329.69,756.021C1328.58,756.504 1327.2,756.533 1325.58,756.109ZM1325.96,754.668C1327.04,754.948 1327.98,754.995 1328.79,754.806C1329.59,754.615 1330.07,754.23 1330.22,753.65C1330.37,753.074 1330.14,752.506 1329.54,751.946C1328.94,751.387 1328.11,750.969 1327.04,750.692C1325.98,750.416 1325.05,750.376 1324.25,750.571C1323.45,750.768 1322.98,751.154 1322.83,751.73C1322.68,752.301 1322.91,752.866 1323.51,753.425C1324.1,753.984 1324.92,754.398 1325.96,754.668Z" style="fill-rule:nonzero;"/>
            <path d="M1325.84,741.015L1325.06,744.015L1326.55,744.913C1326.56,744.839 1326.57,744.769 1326.58,744.703C1326.6,744.637 1326.61,744.577 1326.62,744.522C1326.87,743.577 1327.39,742.885 1328.19,742.446C1328.98,742.002 1329.87,741.909 1330.86,742.167C1331.89,742.433 1332.64,742.997 1333.13,743.859C1333.61,744.72 1333.72,745.674 1333.44,746.72C1333.11,748.009 1332.24,748.869 1330.84,749.297L1330.19,747.944C1330.79,747.773 1331.24,747.56 1331.53,747.305C1331.82,747.049 1332.03,746.696 1332.14,746.246C1332.3,745.658 1332.22,745.111 1331.91,744.605C1331.59,744.096 1331.13,743.762 1330.52,743.605C1329.9,743.443 1329.34,743.509 1328.84,743.801C1328.33,744.09 1328,744.53 1327.85,745.123C1327.67,745.782 1327.82,746.426 1328.27,747.055L1328.14,747.54L1323.42,744.678L1324.47,740.658L1325.84,741.015Z" style="fill-rule:nonzero;"/>
            <path d="M1329.72,740.18C1328.17,739.777 1327.02,739.094 1326.29,738.131C1325.62,737.267 1325.41,736.375 1325.64,735.455C1325.88,734.535 1326.51,733.861 1327.51,733.431C1328.62,732.949 1329.97,732.915 1331.57,733.329C1333.15,733.742 1334.32,734.43 1335.05,735.392C1335.72,736.257 1335.93,737.147 1335.7,738.062C1335.46,738.978 1334.84,739.655 1333.83,740.093C1332.72,740.575 1331.35,740.604 1329.72,740.18ZM1330.1,738.739C1331.18,739.02 1332.12,739.066 1332.93,738.878C1333.73,738.686 1334.21,738.301 1334.36,737.721C1334.51,737.146 1334.28,736.578 1333.68,736.017C1333.08,735.458 1332.25,735.04 1331.19,734.764C1330.12,734.487 1329.19,734.447 1328.39,734.643C1327.6,734.839 1327.12,735.225 1326.97,735.801C1326.83,736.372 1327.05,736.938 1327.65,737.497C1328.25,738.055 1329.06,738.469 1330.1,738.739Z" style="fill-rule:nonzero;"/>
            <path d="M1330.26,724.043L1338.61,726.214L1338.23,727.682L1329.88,725.511L1329.3,727.747L1327.92,727.389L1329.46,721.453L1330.84,721.812L1330.26,724.043Z" style="fill-rule:nonzero;"/>
            <path d="M1334.42,722.19C1333.05,721.834 1332,721.026 1331.28,719.767C1330.56,718.511 1330.38,717.182 1330.74,715.779C1331.1,714.393 1331.91,713.333 1333.16,712.599C1334.41,711.862 1335.73,711.674 1337.12,712.035C1338.52,712.399 1339.57,713.207 1340.29,714.46C1341.01,715.719 1341.18,717.058 1340.81,718.478C1340.48,719.734 1339.76,720.749 1338.62,721.522C1337.38,722.373 1335.97,722.595 1334.42,722.19ZM1334.82,720.714C1335.89,720.994 1336.87,720.863 1337.75,720.32C1338.63,719.782 1339.2,719.043 1339.44,718.102C1339.71,717.081 1339.58,716.128 1339.05,715.243C1338.52,714.356 1337.74,713.779 1336.72,713.513C1335.68,713.243 1334.72,713.363 1333.84,713.874C1332.95,714.379 1332.38,715.14 1332.12,716.157C1331.85,717.169 1331.98,718.116 1332.51,718.996C1333.02,719.875 1333.8,720.448 1334.82,720.714Z" style="fill-rule:nonzero;"/>
            <path d="M1338.88,708.955L1342.83,709.983L1342.45,711.451L1332.72,708.921L1333.15,707.257C1333.37,706.442 1333.58,705.842 1333.8,705.455C1334.03,705.065 1334.34,704.751 1334.73,704.514C1335.42,704.097 1336.19,703.997 1337.02,704.213C1337.91,704.445 1338.54,704.926 1338.9,705.658C1339.27,706.39 1339.32,707.262 1339.06,708.275L1338.88,708.955ZM1337.52,708.601L1337.66,708.053C1338.01,706.705 1337.67,705.896 1336.63,705.626C1335.63,705.365 1334.94,705.929 1334.58,707.32L1334.46,707.805L1337.52,708.601Z" style="fill-rule:nonzero;"/>
            <path d="M1349.07,698.128C1340.58,713.965 1364.37,726.699 1372.84,710.843C1381.33,695.005 1357.54,682.271 1349.07,698.132L1349.07,698.128ZM1355.03,701.313C1350.8,709.211 1362.66,715.555 1366.88,707.653C1371.11,699.765 1359.25,693.421 1355.04,701.318L1355.03,701.313Z" style="fill:rgb(255,166,80);stroke:black;stroke-width:1.11px;"/>
            <path d="M1317.53,813.665C1309.04,829.507 1332.83,842.241 1341.29,826.385C1349.79,810.548 1326,797.814 1317.53,813.665ZM1323.48,816.86C1319.26,824.753 1331.11,831.092 1335.33,823.195C1339.56,815.302 1327.7,808.963 1323.49,816.86L1323.48,816.86Z" style="fill:rgb(255,166,80);stroke:black;stroke-width:1.11px;"/>
            <path d="M1416.68,880.853C1408.19,896.695 1431.98,909.429 1440.45,893.573C1448.94,877.731 1425.15,865.002 1416.68,880.858L1416.68,880.853ZM1422.64,884.043C1418.41,891.936 1430.26,898.28 1434.49,890.383C1438.71,882.49 1426.86,876.146 1422.65,884.048L1422.64,884.043Z" style="fill:rgb(255,166,80);stroke:black;stroke-width:1.11px;"/>
        </g>
    </g>
    <g id="Pop-Bumper1">
        <g id="Wood3">
            <path d="M1590.48,1134.58C1591.86,1133.07 1593.27,1131.28 1594.4,1129.46C1603.77,1114.38 1599.11,1094.43 1584.03,1085.06C1582.21,1083.94 1580.05,1082.88 1578.14,1082.14" style="fill:none;stroke:rgb(35,31,32);stroke-width:1.11px;stroke-linecap:butt;stroke-linejoin:miter;"/>
            <path d="M1555.87,1142.74C1556.19,1148.49 1559.39,1153.87 1564.34,1156.94C1572.76,1162.18 1583.9,1159.57 1589.13,1151.15C1592.21,1146.2 1592.63,1139.92 1590.37,1134.63" style="fill:none;stroke:rgb(35,31,32);stroke-width:1.11px;stroke-linecap:butt;stroke-linejoin:miter;"/>
            <path d="M1632.57,1131.99C1612.2,1119.31 1593.18,1149.91 1613.57,1162.56C1633.94,1175.23 1652.96,1144.64 1632.57,1131.99Z" style="fill:none;stroke:rgb(35,31,32);stroke-width:1.11px;stroke-linecap:butt;stroke-linejoin:miter;"/>
            <path d="M1578.16,1082.15C1577.84,1076.41 1574.64,1071.03 1569.69,1067.95C1561.27,1062.72 1550.13,1065.32 1544.9,1073.75C1541.83,1078.7 1541.4,1084.97 1543.66,1090.27" style="fill:none;stroke:rgb(35,31,32);stroke-width:1.11px;stroke-linecap:butt;stroke-linejoin:miter;"/>
            <path d="M1520.46,1062.34C1500.09,1049.66 1481.08,1080.27 1501.46,1092.91C1521.83,1105.59 1540.85,1074.99 1520.46,1062.34Z" style="fill:none;stroke:rgb(35,31,32);stroke-width:1.11px;stroke-linecap:butt;stroke-linejoin:miter;"/>
            <path d="M1543.62,1090.21C1542.24,1091.72 1540.76,1093.62 1539.63,1095.43C1530.26,1110.52 1534.92,1130.46 1550,1139.83C1551.82,1140.96 1553.99,1142.01 1555.9,1142.75" style="fill:none;stroke:rgb(35,31,32);stroke-width:1.11px;stroke-linecap:butt;stroke-linejoin:miter;"/>
            <path d="M1522.62,1119.88C1521.31,1121.99 1521.96,1124.77 1524.07,1126.08C1526.18,1127.4 1528.96,1126.75 1530.27,1124.64C1531.59,1122.53 1530.95,1119.75 1528.83,1118.43C1526.72,1117.12 1523.94,1117.76 1522.62,1119.88" style="fill:none;stroke:black;stroke-width:0.74px;stroke-miterlimit:10;"/>
            <path d="M1604.2,1100.98C1602.89,1103.09 1603.54,1105.87 1605.65,1107.18C1607.76,1108.5 1610.54,1107.85 1611.85,1105.74C1613.17,1103.62 1612.52,1100.86 1610.41,1099.53C1608.3,1098.22 1605.52,1098.86 1604.2,1100.98" style="fill:none;stroke:black;stroke-width:0.74px;stroke-miterlimit:10;"/>
            <path d="M1485.65,1201.39L1488.38,1196.85L1489.11,1198.56L1486.44,1202.81L1486.55,1203.06L1490.34,1201.45L1490.93,1202.85L1481.68,1206.78L1480.98,1205.14C1480.46,1203.92 1480.32,1202.94 1480.55,1202.2C1480.8,1201.38 1481.35,1200.8 1482.19,1200.44C1482.85,1200.16 1483.49,1200.11 1484.12,1200.29C1484.75,1200.46 1485.26,1200.83 1485.65,1201.39ZM1485.33,1203.58L1485.14,1203.13C1484.58,1201.81 1483.8,1201.36 1482.79,1201.79C1481.84,1202.2 1481.64,1203.04 1482.19,1204.33L1482.4,1204.82L1485.33,1203.58Z" style="fill-rule:nonzero;"/>
            <path d="M1483.41,1198.11C1482.11,1198.67 1480.78,1198.66 1479.44,1198.11C1478.11,1197.55 1477.15,1196.61 1476.59,1195.28C1476.03,1193.96 1476.02,1192.63 1476.56,1191.28C1477.1,1189.93 1478.03,1188.98 1479.35,1188.42C1480.68,1187.85 1482.01,1187.85 1483.34,1188.41C1484.68,1188.97 1485.63,1189.92 1486.21,1191.27C1486.72,1192.46 1486.76,1193.71 1486.34,1195.02C1485.87,1196.45 1484.89,1197.48 1483.41,1198.11ZM1482.83,1196.7C1483.85,1196.26 1484.55,1195.56 1484.91,1194.6C1485.28,1193.63 1485.28,1192.7 1484.89,1191.81C1484.48,1190.84 1483.8,1190.16 1482.84,1189.78C1481.88,1189.4 1480.91,1189.42 1479.94,1189.83C1478.95,1190.25 1478.27,1190.93 1477.88,1191.88C1477.49,1192.82 1477.49,1193.77 1477.9,1194.74C1478.31,1195.7 1479,1196.37 1479.95,1196.75C1480.89,1197.13 1481.85,1197.11 1482.83,1196.7Z" style="fill-rule:nonzero;"/>
            <path d="M1473.38,1187.24L1478.95,1184.87C1479.74,1184.53 1480.27,1184.15 1480.53,1183.74C1480.89,1183.13 1480.93,1182.47 1480.63,1181.77C1480.33,1181.06 1479.83,1180.62 1479.13,1180.46C1478.67,1180.35 1478.03,1180.47 1477.22,1180.81L1471.65,1183.18L1471.06,1181.79L1477.01,1179.25C1477.99,1178.84 1478.92,1178.8 1479.81,1179.14C1480.8,1179.53 1481.51,1180.21 1481.93,1181.21C1482.36,1182.2 1482.36,1183.19 1481.95,1184.17C1481.57,1185.04 1480.9,1185.69 1479.92,1186.1L1473.97,1188.63L1473.38,1187.24Z" style="fill-rule:nonzero;"/>
            <path d="M1470.34,1176.46L1478.28,1173.08L1478.88,1174.48L1470.94,1177.85L1471.84,1179.98L1470.53,1180.54L1468.13,1174.89L1469.44,1174.34L1470.34,1176.46Z" style="fill-rule:nonzero;"/>
            <path d="M1466.74,1167.99L1468.32,1171.69L1470.54,1170.75L1469.01,1167.15L1470.33,1166.59L1471.86,1170.19L1474.95,1168.88L1473.37,1165.17L1474.68,1164.61L1476.85,1169.72L1467.6,1173.65L1465.43,1168.54L1466.74,1167.99Z" style="fill-rule:nonzero;"/>
            <path d="M1471.64,1159.33C1471.42,1159.42 1471.19,1159.42 1470.96,1159.33C1470.73,1159.23 1470.56,1159.07 1470.46,1158.84C1470.37,1158.62 1470.37,1158.38 1470.46,1158.15C1470.55,1157.92 1470.71,1157.75 1470.94,1157.66C1471.17,1157.56 1471.41,1157.56 1471.64,1157.65C1471.87,1157.74 1472.03,1157.9 1472.13,1158.13C1472.23,1158.37 1472.23,1158.6 1472.14,1158.83C1472.05,1159.06 1471.88,1159.22 1471.64,1159.33Z" style="fill-rule:nonzero;"/>
            <path d="M1466.25,1157.78C1464.78,1158.41 1463.45,1158.57 1462.28,1158.25C1461.23,1157.97 1460.51,1157.4 1460.14,1156.52C1459.77,1155.65 1459.85,1154.74 1460.38,1153.78C1460.97,1152.72 1462.02,1151.87 1463.54,1151.23C1465.05,1150.58 1466.38,1150.42 1467.56,1150.73C1468.61,1151.01 1469.33,1151.59 1469.69,1152.46C1470.07,1153.33 1469.99,1154.24 1469.45,1155.2C1468.87,1156.27 1467.8,1157.12 1466.25,1157.78ZM1465.67,1156.41C1466.7,1155.97 1467.48,1155.43 1468.01,1154.79C1468.52,1154.15 1468.66,1153.55 1468.43,1153C1468.19,1152.45 1467.67,1152.14 1466.85,1152.07C1466.03,1151.99 1465.12,1152.16 1464.11,1152.6C1463.1,1153.02 1462.34,1153.56 1461.82,1154.2C1461.31,1154.85 1461.17,1155.44 1461.4,1155.99C1461.64,1156.53 1462.16,1156.84 1462.98,1156.92C1463.79,1157 1464.69,1156.83 1465.67,1156.41Z" style="fill-rule:nonzero;"/>
            <path d="M1457.25,1145.66L1458.46,1148.51L1460.19,1148.32C1460.15,1148.25 1460.12,1148.19 1460.09,1148.13C1460.06,1148.07 1460.03,1148.01 1460.01,1147.96C1459.63,1147.06 1459.62,1146.2 1459.98,1145.36C1460.34,1144.53 1460.99,1143.91 1461.93,1143.51C1462.91,1143.1 1463.85,1143.08 1464.76,1143.47C1465.67,1143.86 1466.33,1144.55 1466.76,1145.54C1467.28,1146.77 1467.11,1147.98 1466.26,1149.17L1464.92,1148.5C1465.29,1148 1465.52,1147.56 1465.6,1147.17C1465.67,1146.79 1465.62,1146.39 1465.44,1145.96C1465.2,1145.4 1464.8,1145.02 1464.25,1144.8C1463.69,1144.6 1463.12,1144.61 1462.54,1144.86C1461.95,1145.11 1461.55,1145.5 1461.33,1146.04C1461.1,1146.58 1461.11,1147.13 1461.35,1147.69C1461.61,1148.32 1462.12,1148.74 1462.86,1148.97L1463.05,1149.43L1457.57,1150.04L1455.94,1146.22L1457.25,1145.66Z" style="fill-rule:nonzero;"/>
            <path d="M1459.81,1142.63C1458.34,1143.26 1457.02,1143.42 1455.85,1143.1C1454.79,1142.83 1454.08,1142.25 1453.7,1141.38C1453.33,1140.5 1453.41,1139.59 1453.95,1138.63C1454.53,1137.57 1455.58,1136.72 1457.1,1136.08C1458.61,1135.44 1459.95,1135.27 1461.12,1135.59C1462.18,1135.86 1462.89,1136.44 1463.26,1137.31C1463.63,1138.18 1463.55,1139.1 1463.02,1140.06C1462.43,1141.12 1461.36,1141.98 1459.81,1142.63ZM1459.24,1141.26C1460.26,1140.82 1461.04,1140.28 1461.57,1139.64C1462.08,1139 1462.23,1138.41 1461.99,1137.86C1461.76,1137.31 1461.23,1137 1460.41,1136.92C1459.6,1136.84 1458.68,1137.02 1457.67,1137.45C1456.66,1137.88 1455.9,1138.41 1455.38,1139.06C1454.88,1139.7 1454.74,1140.29 1454.97,1140.84C1455.2,1141.38 1455.72,1141.69 1456.54,1141.77C1457.35,1141.85 1458.25,1141.68 1459.24,1141.26Z" style="fill-rule:nonzero;"/>
            <path d="M1450.4,1129.52L1458.34,1126.14L1458.93,1127.54L1450.99,1130.91L1451.9,1133.04L1450.58,1133.6L1448.18,1127.95L1449.5,1127.4L1450.4,1129.52Z" style="fill-rule:nonzero;"/>
            <path d="M1452.56,1125.52C1451.26,1126.07 1449.94,1126.07 1448.6,1125.51C1447.26,1124.95 1446.31,1124.01 1445.74,1122.68C1445.18,1121.36 1445.17,1120.03 1445.71,1118.68C1446.25,1117.34 1447.18,1116.38 1448.51,1115.82C1449.84,1115.26 1451.16,1115.25 1452.5,1115.81C1453.83,1116.37 1454.79,1117.32 1455.36,1118.67C1455.87,1119.87 1455.91,1121.12 1455.49,1122.42C1455.02,1123.85 1454.04,1124.88 1452.56,1125.52ZM1451.98,1124.1C1453,1123.66 1453.7,1122.96 1454.06,1122C1454.43,1121.03 1454.43,1120.1 1454.05,1119.21C1453.63,1118.24 1452.95,1117.56 1452,1117.18C1451.03,1116.8 1450.07,1116.82 1449.09,1117.23C1448.1,1117.65 1447.42,1118.33 1447.03,1119.28C1446.64,1120.22 1446.65,1121.17 1447.06,1122.14C1447.47,1123.1 1448.15,1123.77 1449.1,1124.15C1450.05,1124.53 1451.01,1124.51 1451.98,1124.1Z" style="fill-rule:nonzero;"/>
            <path d="M1448.02,1112.31L1451.78,1110.71L1452.37,1112.11L1443.12,1116.04L1442.45,1114.45C1442.12,1113.68 1441.92,1113.07 1441.87,1112.63C1441.8,1112.18 1441.86,1111.75 1442.03,1111.32C1442.32,1110.56 1442.86,1110.02 1443.65,1109.68C1444.5,1109.32 1445.29,1109.32 1446.03,1109.68C1446.77,1110.04 1447.34,1110.69 1447.75,1111.66L1448.02,1112.31ZM1446.73,1112.86L1446.51,1112.33C1445.96,1111.05 1445.2,1110.62 1444.21,1111.04C1443.26,1111.44 1443.06,1112.31 1443.62,1113.63L1443.82,1114.09L1446.73,1112.86Z" style="fill-rule:nonzero;"/>
            <path d="M1449.49,1097.51C1452.43,1115.24 1479.05,1110.81 1476.08,1093.08C1473.15,1075.35 1446.53,1079.78 1449.49,1097.51L1449.49,1097.51ZM1456.16,1096.39C1457.62,1105.23 1470.89,1103.03 1469.41,1094.19C1467.95,1085.36 1454.68,1087.57 1456.16,1096.4L1456.16,1096.39Z" style="fill:rgb(255,166,80);stroke:black;stroke-width:1.11px;"/>
            <path d="M1494.99,1208.3C1497.93,1226.03 1524.55,1221.6 1521.58,1203.87C1518.65,1186.14 1492.03,1190.57 1494.99,1208.3ZM1501.66,1207.19C1503.12,1216.03 1516.38,1213.82 1514.91,1204.98C1513.44,1196.15 1500.18,1198.36 1501.66,1207.19L1501.66,1207.19Z" style="fill:rgb(255,166,80);stroke:black;stroke-width:1.11px;"/>
            <path d="M1614.54,1201.04C1617.48,1218.77 1644.1,1214.34 1641.13,1196.61C1638.19,1178.88 1611.58,1183.31 1614.55,1201.04L1614.54,1201.04ZM1621.21,1199.93C1622.68,1208.76 1635.94,1206.56 1634.46,1197.72C1633,1188.89 1619.74,1191.09 1621.22,1199.93L1621.21,1199.93Z" style="fill:rgb(255,166,80);stroke:black;stroke-width:1.11px;"/>
        </g>
    </g>
    <g id="Pop-Bumper2">
        <g id="Wood4">
            <path d="M1761.16,812.141C1760.1,813.896 1759.07,815.93 1758.31,817.935C1752.08,834.556 1760.54,853.203 1777.17,859.445C1779.17,860.195 1781.5,860.806 1783.52,861.159" style="fill:none;stroke:rgb(35,31,32);stroke-width:1.11px;stroke-linecap:butt;stroke-linejoin:miter;"/>
            <path d="M1793.5,797.373C1792.06,791.804 1787.88,787.151 1782.42,785.102C1773.14,781.618 1762.73,786.346 1759.24,795.628C1757.19,801.087 1758.01,807.323 1761.26,812.073" style="fill:none;stroke:rgb(35,31,32);stroke-width:1.11px;stroke-linecap:butt;stroke-linejoin:miter;"/>
            <path d="M1720.39,822.919C1742.85,831.368 1755.51,797.643 1733.04,789.222C1710.59,780.773 1697.92,814.498 1720.39,822.919Z" style="fill:none;stroke:rgb(35,31,32);stroke-width:1.11px;stroke-linecap:butt;stroke-linejoin:miter;"/>
            <path d="M1783.49,861.15C1784.93,866.725 1789.12,871.371 1794.57,873.42C1803.86,876.905 1814.27,872.176 1817.75,862.895C1819.8,857.435 1818.99,851.2 1815.74,846.449" style="fill:none;stroke:rgb(35,31,32);stroke-width:1.11px;stroke-linecap:butt;stroke-linejoin:miter;"/>
            <path d="M1843.95,869.3C1866.41,877.75 1879.07,844.022 1856.6,835.604C1834.15,827.154 1821.48,860.879 1843.95,869.3Z" style="fill:none;stroke:rgb(35,31,32);stroke-width:1.11px;stroke-linecap:butt;stroke-linejoin:miter;"/>
            <path d="M1815.79,846.5C1816.85,844.744 1817.93,842.598 1818.68,840.594C1824.92,823.967 1816.45,805.319 1799.83,799.08C1797.83,798.327 1795.5,797.723 1793.48,797.37" style="fill:none;stroke:rgb(35,31,32);stroke-width:1.11px;stroke-linecap:butt;stroke-linejoin:miter;"/>
            <path d="M1830.58,813.299C1831.46,810.968 1830.28,808.371 1827.95,807.494C1825.63,806.617 1823.02,807.795 1822.15,810.122C1821.27,812.453 1822.44,815.045 1824.78,815.932C1827.1,816.804 1829.7,815.631 1830.58,813.299" style="fill:none;stroke:black;stroke-width:0.74px;stroke-miterlimit:10;"/>
            <path d="M1754.27,847.784C1755.15,845.452 1753.97,842.856 1751.64,841.979C1749.32,841.102 1746.71,842.28 1745.84,844.606C1744.96,846.938 1746.13,849.529 1748.47,850.417C1750.79,851.289 1753.39,850.116 1754.27,847.784" style="fill:none;stroke:black;stroke-width:0.74px;stroke-miterlimit:10;"/>
            <path d="M1850.9,726.131L1849.11,731.116L1848.07,729.583L1849.85,724.893L1849.69,724.667L1846.3,726.985L1845.44,725.732L1853.75,720.068L1854.75,721.536C1855.5,722.634 1855.83,723.567 1855.75,724.335C1855.66,725.186 1855.24,725.869 1854.48,726.382C1853.89,726.783 1853.27,726.96 1852.62,726.911C1851.97,726.863 1851.39,726.603 1850.9,726.131ZM1850.79,723.922L1851.06,724.32C1851.87,725.507 1852.73,725.791 1853.63,725.172C1854.48,724.593 1854.52,723.726 1853.73,722.571L1853.42,722.125L1850.79,723.922Z" style="fill-rule:nonzero;"/>
            <path d="M1853.74,728.904C1854.91,728.106 1856.21,727.85 1857.63,728.135C1859.05,728.416 1860.17,729.155 1860.99,730.353C1861.8,731.536 1862.07,732.839 1861.8,734.263C1861.53,735.69 1860.8,736.808 1859.62,737.618C1858.42,738.432 1857.12,738.696 1855.7,738.41C1854.28,738.123 1853.16,737.373 1852.33,736.161C1851.6,735.089 1851.32,733.873 1851.48,732.514C1851.66,731.014 1852.41,729.811 1853.74,728.904ZM1854.59,730.179C1853.67,730.805 1853.13,731.628 1852.96,732.648C1852.78,733.665 1852.97,734.575 1853.52,735.378C1854.11,736.249 1854.91,736.779 1855.92,736.967C1856.94,737.15 1857.89,736.943 1858.77,736.346C1859.65,735.742 1860.19,734.94 1860.39,733.94C1860.59,732.941 1860.39,732.008 1859.8,731.14C1859.21,730.276 1858.41,729.752 1857.4,729.567C1856.4,729.378 1855.46,729.582 1854.59,730.179Z" style="fill-rule:nonzero;"/>
            <path d="M1865.71,737.607L1860.71,741.019C1859.99,741.506 1859.55,741.978 1859.38,742.436C1859.14,743.109 1859.24,743.761 1859.67,744.392C1860.1,745.027 1860.67,745.356 1861.39,745.378C1861.86,745.393 1862.47,745.154 1863.19,744.66L1868.19,741.249L1869.05,742.502L1863.7,746.148C1862.83,746.745 1861.92,746.964 1860.98,746.805C1859.93,746.623 1859.1,746.085 1858.49,745.192C1857.88,744.299 1857.69,743.333 1857.9,742.293C1858.1,741.361 1858.63,740.597 1859.51,740L1864.85,736.354L1865.71,737.607Z" style="fill-rule:nonzero;"/>
            <path d="M1870.79,747.586L1863.66,752.447L1862.81,751.194L1869.93,746.333L1868.63,744.424L1869.81,743.62L1873.27,748.687L1872.09,749.49L1870.79,747.586Z" style="fill-rule:nonzero;"/>
            <path d="M1875.98,755.192L1873.7,751.862L1871.71,753.223L1873.91,756.456L1872.74,757.259L1870.53,754.027L1867.76,755.92L1870.03,759.249L1868.85,760.052L1865.72,755.47L1874.03,749.806L1877.15,754.388L1875.98,755.192Z" style="fill-rule:nonzero;"/>
            <path d="M1872.86,764.643C1873.06,764.506 1873.29,764.461 1873.54,764.508C1873.78,764.555 1873.98,764.68 1874.12,764.885C1874.26,765.089 1874.3,765.315 1874.26,765.562C1874.21,765.81 1874.08,766.003 1873.88,766.142C1873.67,766.284 1873.44,766.332 1873.19,766.285C1872.95,766.239 1872.76,766.113 1872.62,765.905C1872.48,765.693 1872.43,765.467 1872.47,765.225C1872.52,764.984 1872.65,764.79 1872.86,764.643Z" style="fill-rule:nonzero;"/>
            <path d="M1878.45,765.101C1879.78,764.198 1881.05,763.786 1882.25,763.865C1883.34,763.931 1884.16,764.356 1884.69,765.141C1885.23,765.927 1885.33,766.839 1884.99,767.877C1884.62,769.032 1883.76,770.073 1882.4,771C1881.05,771.924 1879.76,772.347 1878.55,772.269C1877.46,772.203 1876.65,771.779 1876.12,770.998C1875.59,770.216 1875.48,769.302 1875.82,768.256C1876.18,767.101 1877.06,766.05 1878.45,765.101ZM1879.29,766.336C1878.37,766.965 1877.71,767.646 1877.32,768.381C1876.94,769.109 1876.92,769.72 1877.25,770.215C1877.59,770.706 1878.17,770.909 1878.99,770.823C1879.8,770.74 1880.66,770.389 1881.57,769.77C1882.48,769.151 1883.12,768.476 1883.5,767.745C1883.87,767.016 1883.89,766.407 1883.56,765.915C1883.23,765.428 1882.65,765.225 1881.84,765.309C1881.02,765.39 1880.18,765.732 1879.29,766.336Z" style="fill-rule:nonzero;"/>
            <path d="M1889.65,775.228L1887.9,772.668L1886.25,773.198C1886.3,773.254 1886.34,773.309 1886.38,773.362C1886.42,773.415 1886.46,773.465 1886.49,773.512C1887.04,774.319 1887.22,775.166 1887.03,776.054C1886.84,776.943 1886.33,777.676 1885.48,778.254C1884.61,778.85 1883.68,779.048 1882.72,778.846C1881.75,778.645 1880.96,778.097 1880.35,777.205C1879.6,776.104 1879.53,774.884 1880.12,773.545L1881.57,773.945C1881.31,774.51 1881.17,774.987 1881.17,775.377C1881.17,775.765 1881.3,776.151 1881.57,776.534C1881.91,777.036 1882.37,777.338 1882.95,777.439C1883.55,777.532 1884.1,777.403 1884.62,777.051C1885.15,776.689 1885.47,776.225 1885.58,775.658C1885.69,775.083 1885.58,774.544 1885.24,774.038C1884.85,773.475 1884.28,773.157 1883.51,773.083L1883.22,772.669L1888.48,770.997L1890.82,774.428L1889.65,775.228Z" style="fill-rule:nonzero;"/>
            <path d="M1887.73,778.698C1889.05,777.795 1890.32,777.383 1891.53,777.462C1892.62,777.527 1893.43,777.953 1893.97,778.738C1894.5,779.523 1894.6,780.435 1894.27,781.474C1893.9,782.629 1893.03,783.67 1891.67,784.597C1890.32,785.521 1889.04,785.944 1887.83,785.865C1886.74,785.8 1885.92,785.376 1885.39,784.595C1884.86,783.813 1884.76,782.899 1885.09,781.853C1885.46,780.698 1886.34,779.646 1887.73,778.698ZM1888.56,779.933C1887.64,780.561 1886.99,781.243 1886.59,781.978C1886.21,782.706 1886.19,783.317 1886.53,783.812C1886.86,784.303 1887.44,784.506 1888.26,784.42C1889.07,784.337 1889.94,783.986 1890.84,783.367C1891.75,782.748 1892.39,782.073 1892.77,781.342C1893.15,780.613 1893.17,780.003 1892.83,779.512C1892.5,779.024 1891.92,778.822 1891.11,778.906C1890.3,778.986 1889.45,779.329 1888.56,779.933Z" style="fill-rule:nonzero;"/>
            <path d="M1899.53,789.722L1892.4,794.582L1891.55,793.329L1898.67,788.468L1897.37,786.559L1898.55,785.756L1902,790.822L1900.83,791.626L1899.53,789.722Z" style="fill-rule:nonzero;"/>
            <path d="M1898.19,794.07C1899.36,793.272 1900.65,793.016 1902.08,793.301C1903.5,793.582 1904.62,794.321 1905.44,795.519C1906.24,796.702 1906.51,798.005 1906.24,799.429C1905.98,800.856 1905.25,801.974 1904.06,802.783C1902.87,803.598 1901.56,803.862 1900.15,803.576C1898.73,803.289 1897.61,802.539 1896.78,801.327C1896.05,800.255 1895.76,799.039 1895.92,797.68C1896.1,796.18 1896.86,794.977 1898.19,794.07ZM1899.04,795.344C1898.12,795.971 1897.57,796.794 1897.4,797.814C1897.23,798.831 1897.42,799.741 1897.96,800.544C1898.56,801.415 1899.36,801.945 1900.37,802.133C1901.39,802.316 1902.34,802.109 1903.21,801.512C1904.1,800.908 1904.64,800.106 1904.83,799.106C1905.03,798.107 1904.84,797.174 1904.25,796.306C1903.66,795.442 1902.86,794.918 1901.85,794.733C1900.85,794.544 1899.91,794.748 1899.04,795.344Z" style="fill-rule:nonzero;"/>
            <path d="M1905.22,806.137L1901.85,808.437L1901,807.184L1909.3,801.52L1910.27,802.94C1910.74,803.636 1911.05,804.194 1911.2,804.615C1911.35,805.039 1911.38,805.48 1911.3,805.936C1911.15,806.73 1910.73,807.37 1910.02,807.854C1909.26,808.373 1908.48,808.529 1907.69,808.323C1906.9,808.117 1906.21,807.582 1905.62,806.718L1905.22,806.137ZM1906.38,805.345L1906.7,805.813C1907.49,806.964 1908.32,807.237 1909.21,806.633C1910.07,806.049 1910.09,805.163 1909.28,803.976L1909,803.562L1906.38,805.345Z" style="fill-rule:nonzero;"/>
            <path d="M1906.68,820.931C1900.33,804.123 1875.09,813.668 1881.47,830.474C1887.81,847.29 1913.05,837.744 1906.67,820.931L1906.68,820.931ZM1900.36,823.33C1897.19,814.949 1884.61,819.708 1887.79,828.082C1890.95,836.457 1903.53,831.698 1900.35,823.331L1900.36,823.33Z" style="fill:rgb(255,166,80);stroke:black;stroke-width:1.11px;"/>
            <path d="M1840.4,721.181C1834.05,704.366 1808.81,713.911 1815.18,730.717C1821.52,747.533 1846.76,737.987 1840.4,721.181ZM1834.07,723.567C1830.9,715.192 1818.33,719.95 1821.51,728.325C1824.67,736.7 1837.24,731.941 1834.06,723.574L1834.07,723.567Z" style="fill:rgb(255,166,80);stroke:black;stroke-width:1.11px;"/>
            <path d="M1724.57,751.676C1718.22,734.861 1692.98,744.407 1699.36,761.213C1705.7,778.028 1730.94,768.483 1724.56,751.677L1724.57,751.676ZM1718.25,754.069C1715.08,745.694 1702.51,750.446 1705.68,758.82C1708.85,767.195 1721.42,762.443 1718.24,754.069L1718.25,754.069Z" style="fill:rgb(255,166,80);stroke:black;stroke-width:1.11px;"/>
        </g>
    </g>
</svg>
