<?xml version="1.0" encoding="UTF-8" standalone="no"?>
<!DOCTYPE svg PUBLIC "-//W3C//DTD SVG 1.1//EN" "http://www.w3.org/Graphics/SVG/1.1/DTD/svg11.dtd">
<svg width="1027067px" height="1302084px" version="1.1" xmlns="http://www.w3.org/2000/svg" xmlns:xlink="http://www.w3.org/1999/xlink" xml:space="preserve" xmlns:serif="http://www.serif.com/" style="fill-rule:evenodd;clip-rule:evenodd;stroke-linecap:round;stroke-linejoin:round;stroke-miterlimit:2.613;">
    <g transform="matrix(4.16667,0,0,4.16667,0,0)">
        <g id="IPD" transform="matrix(402.763,0,0,394.572,0.325522,-0.43403)">
            <g id="Playfield-Outline---Top-Bottom-WoodWalls-Habitrails-Sticker-Drill-Rout-Plastic-Bevel-Art-Assembly-Rubber-Todo" serif:id="Playfield Outline - Top Bottom WoodWalls Habitrails Sticker Drill Rout Plastic Bevel Art Assembly Rubber Todo" transform="matrix(1,0,0,0.866669,0,17.9763)">
                <g id="PF-Outline" serif:id="PF Outline" transform="matrix(0.750103,0,4.21225e-33,0.883468,-586.674,-986.887)">
                    <path d="M827.024,1179.78L1176.1,1179.78L1176.1,1903.64L1165.33,1903.64L1165.33,1885.32C1165.33,1884.14 1164.36,1883.17 1163.17,1883.17L1157.8,1883.17L1157.81,1851.75C1157.81,1850.86 1157.08,1850.13 1156.19,1850.13C1155.3,1850.13 1154.58,1850.86 1154.58,1851.75L1154.59,1883.17L1143.78,1883.17C1142.59,1883.17 1141.63,1884.14 1141.63,1885.32L1141.63,1955.57L983.96,1955.57L943.665,1907.54L943.663,1907.54C942.855,1906.58 941.626,1906.01 940.364,1906.01L920.759,1906.01C918.386,1906.01 916.449,1907.94 916.449,1910.31L916.449,1955.57L881.116,1955.57L849.469,1928.2L849.469,1910.59C849.469,1908.22 847.533,1906.28 845.159,1906.28L827.024,1906.28L827.024,1179.78Z" style="fill:none;stroke:rgb(35,31,32);stroke-width:0.2px;"/>
                </g>
                <g id="Guidemarks">
                    <g transform="matrix(0.750103,0,4.21225e-33,0.883468,-628.983,-986.887)">
                        <path d="M916.449,1955.57L878.956,1955.57" style="fill:none;stroke:black;stroke-width:0.2px;"/>
                    </g>
                    <g transform="matrix(0.750103,0,4.21225e-33,0.883468,-371.974,-986.887)">
                        <path d="M892.931,1955.57L872.923,1955.57" style="fill:none;stroke:black;stroke-width:0.2px;"/>
                    </g>
                    <g transform="matrix(1.00014,0,0,1.17796,-153.867,-17.0334)">
                        <path d="M449.348,658.327L449.348,638.487" style="fill:none;stroke:black;stroke-width:0.1px;stroke-miterlimit:10;"/>
                    </g>
                    <g transform="matrix(1.00014,0,0,0.4476,-153.867,444.547)">
                        <path d="M187.536,701.957L187.536,647.213" style="fill:none;stroke:black;stroke-width:0.1px;stroke-miterlimit:10;"/>
                    </g>
                    <g transform="matrix(0.116723,0,0,0.137476,-898.582,-175.651)">
                        <path d="M9030.7,6763.28L9048.69,6763.28L9048.69,6770.14L9016.24,6770.14L9033.01,6749.82C9034.66,6747.8 9036.04,6746.05 9037.16,6744.57C9038.28,6743.08 9039.13,6741.84 9039.71,6740.84C9040.9,6738.88 9041.49,6737.12 9041.49,6735.55C9041.49,6733.3 9040.7,6731.41 9039.12,6729.89C9037.53,6728.36 9035.57,6727.6 9033.23,6727.6C9028.35,6727.6 9025.55,6730.49 9024.84,6736.27L9017.58,6736.27C9018.75,6726.09 9023.89,6721 9033.01,6721C9037.42,6721 9041.11,6722.4 9044.09,6725.19C9047.1,6727.99 9048.6,6731.45 9048.6,6735.58C9048.6,6738.21 9047.9,6740.79 9046.5,6743.31C9045.79,6744.63 9044.76,6746.19 9043.39,6747.99C9042.02,6749.8 9040.3,6751.93 9038.21,6754.39L9030.7,6763.28Z" style="fill-rule:nonzero;"/>
                        <path d="M9056.93,6745.66C9056.93,6737.96 9058.72,6731.82 9062.31,6727.23C9065.52,6723.07 9069.41,6721 9073.98,6721C9078.55,6721 9082.44,6723.07 9085.66,6727.23C9089.25,6731.82 9091.04,6738.07 9091.04,6745.97C9091.04,6753.86 9089.25,6760.1 9085.66,6764.69C9082.44,6768.84 9078.56,6770.92 9074.01,6770.92C9069.47,6770.92 9065.56,6768.84 9062.31,6764.69C9058.72,6760.1 9056.93,6753.76 9056.93,6745.66ZM9064.09,6745.69C9064.09,6751.06 9065.02,6755.51 9066.88,6759.06C9068.74,6762.54 9071.1,6764.28 9073.98,6764.28C9076.84,6764.28 9079.21,6762.54 9081.09,6759.06C9082.97,6755.59 9083.91,6751.22 9083.91,6745.94C9083.91,6740.66 9082.97,6736.28 9081.09,6732.8C9079.21,6729.33 9076.84,6727.6 9073.98,6727.6C9071.15,6727.6 9068.79,6729.33 9066.91,6732.8C9065.03,6736.24 9064.09,6740.54 9064.09,6745.69Z" style="fill-rule:nonzero;"/>
                        <path d="M9099.3,6766.63C9099.3,6765.46 9099.73,6764.45 9100.59,6763.6C9101.44,6762.74 9102.47,6762.31 9103.65,6762.31C9104.84,6762.31 9105.87,6762.74 9106.72,6763.6C9107.58,6764.45 9108.01,6765.47 9108.01,6766.66C9108.01,6767.87 9107.58,6768.91 9106.72,6769.76C9105.89,6770.6 9104.86,6771.01 9103.65,6771.01C9102.42,6771.01 9101.39,6770.6 9100.56,6769.76C9099.72,6768.93 9099.3,6767.88 9099.3,6766.63Z" style="fill-rule:nonzero;"/>
                        <path d="M9129.6,6763.28L9147.6,6763.28L9147.6,6770.14L9115.14,6770.14L9131.92,6749.82C9133.57,6747.8 9134.95,6746.05 9136.06,6744.57C9137.18,6743.08 9138.03,6741.84 9138.61,6740.84C9139.81,6738.88 9140.4,6737.12 9140.4,6735.55C9140.4,6733.3 9139.61,6731.41 9138.02,6729.89C9136.43,6728.36 9134.47,6727.6 9132.14,6727.6C9127.25,6727.6 9124.46,6730.49 9123.75,6736.27L9116.49,6736.27C9117.66,6726.09 9122.8,6721 9131.92,6721C9136.32,6721 9140.01,6722.4 9143,6725.19C9146,6727.99 9147.5,6731.45 9147.5,6735.58C9147.5,6738.21 9146.81,6740.79 9145.41,6743.31C9144.7,6744.63 9143.66,6746.19 9142.29,6747.99C9140.93,6749.8 9139.2,6751.93 9137.11,6754.39L9129.6,6763.28Z" style="fill-rule:nonzero;"/>
                        <path d="M9186.82,6728.63L9171.92,6728.63L9169.54,6736.65C9169.89,6736.61 9170.23,6736.57 9170.56,6736.55C9170.88,6736.53 9171.18,6736.52 9171.45,6736.52C9176.14,6736.52 9179.99,6738.11 9183,6741.28C9186.02,6744.43 9187.54,6748.47 9187.54,6753.39C9187.54,6758.48 9185.83,6762.68 9182.4,6765.97C9178.98,6769.27 9174.67,6770.92 9169.48,6770.92C9163.07,6770.92 9158.02,6767.91 9154.33,6761.9L9159.84,6757.24C9161.36,6759.83 9162.89,6761.65 9164.44,6762.72C9165.98,6763.76 9167.87,6764.28 9170.1,6764.28C9173.02,6764.28 9175.48,6763.26 9177.46,6761.22C9179.44,6759.11 9180.43,6756.55 9180.43,6753.55C9180.43,6750.46 9179.45,6747.94 9177.49,6745.97C9175.53,6743.95 9173.08,6742.94 9170.13,6742.94C9166.86,6742.94 9164.03,6744.37 9161.65,6747.23L9159.24,6747.23L9166.85,6721.81L9186.82,6721.81L9186.82,6728.63Z" style="fill-rule:nonzero;"/>
                        <path d="M9202.75,6741.25L9197.43,6741.25L9196.08,6721.81L9204.09,6721.81L9202.75,6741.25ZM9214.2,6741.25L9208.88,6741.25L9207.54,6721.81L9215.55,6721.81L9214.2,6741.25Z" style="fill-rule:nonzero;"/>
                    </g>
                    <g transform="matrix(0.136291,0,0,0.216494,-780.931,-1557.69)">
                        <path d="M5997.85,10694.6L5997.85,10704.8L5979.49,10691.2L5997.85,10677.6L5997.85,10687.8L7876.13,10687.8L7876.13,10677.6L7894.49,10691.2L7876.13,10704.8L7876.13,10694.6L5997.85,10694.6Z" style="fill-opacity:0.713726;"/>
                    </g>
                </g>
            </g>
            <g id="Top-Bottom-WoodWalls-Habitrails-Sticker-Drill-Rout-Plastic-Bevel-Art-Assembly-Rubber-Todo" serif:id="Top Bottom WoodWalls Habitrails Sticker Drill Rout Plastic Bevel Art Assembly Rubber Todo" transform="matrix(1,0,0,1,-354.252,118.8)">
                <g transform="matrix(0.0756179,0,0,0.1375,-250.985,-770.161)">
                    <path d="M8705.99,9345.17L8877,9345.17" style="fill:none;stroke:black;stroke-width:1.44px;stroke-miterlimit:10;"/>
                </g>
                <g transform="matrix(4.63026e-18,0.0771876,-0.134704,8.41945e-18,1672.64,-163.795)">
                    <path d="M8705.99,9345.17L8877,9345.17" style="fill:none;stroke:black;stroke-width:1.44px;stroke-miterlimit:10;"/>
                </g>
            </g>
            <g id="Top-Bottom-WoodWalls-Habitrails-Sticker-Drill-Rout-Plastic-Bevel-Art-Assembly-Rubber-Todo1" serif:id="Top Bottom WoodWalls Habitrails Sticker Drill Rout Plastic Bevel Art Assembly Rubber Todo" transform="matrix(1,0,0,1,-367.184,-435.6)">
                <g transform="matrix(0.0756179,0,0,0.1375,-250.985,-770.161)">
                    <path d="M8705.99,9345.17L8877,9345.17" style="fill:none;stroke:black;stroke-width:1.44px;stroke-miterlimit:10;"/>
                </g>
                <g transform="matrix(4.63026e-18,0.0771876,-0.134704,8.41945e-18,1672.64,-163.795)">
                    <path d="M8705.99,9345.17L8877,9345.17" style="fill:none;stroke:black;stroke-width:1.44px;stroke-miterlimit:10;"/>
                </g>
            </g>
            <g id="Top-Bottom-WoodWalls-Habitrails-Sticker-Drill-Rout-Plastic-Bevel-Art-Assembly-Rubber-Todo2" serif:id="Top Bottom WoodWalls Habitrails Sticker Drill Rout Plastic Bevel Art Assembly Rubber Todo" transform="matrix(1,0,0,1,-134.416,-435.6)">
                <g transform="matrix(0.0756179,0,0,0.1375,-250.985,-770.161)">
                    <path d="M8705.99,9345.17L8877,9345.17" style="fill:none;stroke:black;stroke-width:1.44px;stroke-miterlimit:10;"/>
                </g>
                <g transform="matrix(4.63026e-18,0.0771876,-0.134704,8.41945e-18,1672.64,-163.795)">
                    <path d="M8705.99,9345.17L8877,9345.17" style="fill:none;stroke:black;stroke-width:1.44px;stroke-miterlimit:10;"/>
                </g>
            </g>
            <g id="Top-Bottom-WoodWalls-Habitrails-Sticker-Drill-Rout-Plastic-Bevel-Art-Assembly-Rubber-Todo3" serif:id="Top Bottom WoodWalls Habitrails Sticker Drill Rout Plastic Bevel Art Assembly Rubber Todo" transform="matrix(1,0,0,1,-173.21,118.8)">
                <g transform="matrix(0.0756179,0,0,0.1375,-250.985,-770.161)">
                    <path d="M8705.99,9345.17L8877,9345.17" style="fill:none;stroke:black;stroke-width:1.44px;stroke-miterlimit:10;"/>
                </g>
                <g transform="matrix(4.63026e-18,0.0771876,-0.134704,8.41945e-18,1672.64,-163.795)">
                    <path d="M8705.99,9345.17L8877,9345.17" style="fill:none;stroke:black;stroke-width:1.44px;stroke-miterlimit:10;"/>
                </g>
            </g>
            <g id="Drill" transform="matrix(1.65541,0,0,1.68978,-15588.9,-2966.32)">
                <circle cx="9472.33" cy="1887.84" r="0.762"/>
            </g>
            <g id="Drill1" serif:id="Drill" transform="matrix(1.65541,0,0,1.68978,-15562.1,-2972.41)">
                <circle cx="9472.33" cy="1887.84" r="0.762"/>
            </g>
            <g id="Sides">
                <g id="Drill2" serif:id="Drill" transform="matrix(1.65541,0,0,1.68978,-15388.3,-2589.49)">
                    <circle cx="9472.33" cy="1887.84" r="0.762"/>
                </g>
                <g id="Drill3" serif:id="Drill" transform="matrix(1.65541,0,0,1.68978,-15388.3,-2696.88)">
                    <circle cx="9472.33" cy="1887.84" r="0.762"/>
                </g>
                <g id="Drill4" serif:id="Drill" transform="matrix(1.65541,0,0,1.68978,-15388.3,-2776.08)">
                    <circle cx="9472.33" cy="1887.84" r="0.762"/>
                </g>
                <g id="Drill5" serif:id="Drill" transform="matrix(1.65541,0,0,1.68978,-15388.3,-2855.28)">
                    <circle cx="9472.33" cy="1887.84" r="0.762"/>
                </g>
                <g id="Drill6" serif:id="Drill" transform="matrix(1.65541,0,0,1.68978,-15643.6,-2645.22)">
                    <circle cx="9472.33" cy="1887.84" r="0.762"/>
                </g>
                <g id="Drill7" serif:id="Drill" transform="matrix(1.65541,0,0,1.68978,-15643.6,-2724.42)">
                    <circle cx="9472.33" cy="1887.84" r="0.762"/>
                </g>
                <g id="Drill8" serif:id="Drill" transform="matrix(1.65541,0,0,1.68978,-15643.6,-2803.62)">
                    <circle cx="9472.33" cy="1887.84" r="0.762"/>
                </g>
                <g id="Drill9" serif:id="Drill" transform="matrix(1.65541,0,0,1.68978,-15643.6,-2882.82)">
                    <circle cx="9472.33" cy="1887.84" r="0.762"/>
                </g>
            </g>
            <g id="Drill10" serif:id="Drill" transform="matrix(0.134704,0,0,0.1375,-1155.63,315.445)">
                <path d="M8910.19,942.862C8912.78,941.462 8915.74,940.667 8918.88,940.667C8922.02,940.667 8924.98,941.462 8927.57,942.862L8927.57,1044.2C8924.98,1045.6 8922.02,1046.4 8918.88,1046.4C8915.74,1046.4 8912.78,1045.6 8910.19,1044.2L8910.19,942.862Z"/>
            </g>
            <g id="Slingshots">
                <g id="Drill11" serif:id="Drill" transform="matrix(0.0221447,-0.000749866,-0.00125341,-0.0385679,68.7835,0.343629)">
                    <g transform="matrix(-43.1571,8.87335,-15.5732,-26.0182,62544.3,19091.2)">
                        <path d="M779.672,1326.51C779.672,1324.66 778.133,1323.17 776.238,1323.17L765.832,1323.17C763.937,1323.17 762.399,1324.66 762.399,1326.51C762.399,1328.35 763.937,1329.84 765.832,1329.84L776.238,1329.84C778.133,1329.84 779.672,1328.35 779.672,1326.51Z"/>
                    </g>
                    <g transform="matrix(-36.8587,7.59763,-12.1121,-20.1844,52851.5,12268.8)">
                        <path d="M772.264,1302.76C772.264,1301.63 771.401,1300.7 770.338,1300.7L765.945,1300.7C764.881,1300.7 764.018,1301.63 764.018,1302.76L764.018,1306.89C764.018,1308.03 764.881,1308.95 765.945,1308.95L770.338,1308.95C771.401,1308.95 772.264,1308.03 772.264,1306.89L772.264,1302.76Z"/>
                    </g>
                    <g transform="matrix(-37.0563,7.63836,-12.6342,-21.0544,53282.1,12703.9)">
                        <path d="M772.264,1302.76C772.264,1301.63 771.369,1300.7 770.266,1300.7L766.017,1300.7C764.914,1300.7 764.018,1301.63 764.018,1302.76L764.018,1306.89C764.018,1308.03 764.914,1308.95 766.017,1308.95L770.266,1308.95C771.369,1308.95 772.264,1308.03 772.264,1306.89L772.264,1302.76Z"/>
                    </g>
                    <g transform="matrix(3.06143,2.96694e-16,3.37482e-16,-1.79429,-19779.7,-3263.98)">
                        <circle cx="9218.95" cy="3043.63" r="13.478"/>
                    </g>
                </g>
                <g id="Drill12" serif:id="Drill" transform="matrix(0.0221569,0,0,-0.0385891,30.8983,162.439)">
                    <g transform="matrix(-43.1571,8.87335,-15.5732,-26.0182,62544.3,19091.2)">
                        <path d="M779.672,1326.51C779.672,1324.66 778.133,1323.17 776.238,1323.17L765.832,1323.17C763.937,1323.17 762.399,1324.66 762.399,1326.51C762.399,1328.35 763.937,1329.84 765.832,1329.84L776.238,1329.84C778.133,1329.84 779.672,1328.35 779.672,1326.51Z"/>
                    </g>
                    <g transform="matrix(-36.8587,7.59763,-12.1121,-20.1844,52851.5,12268.8)">
                        <path d="M772.264,1302.76C772.264,1301.63 771.401,1300.7 770.338,1300.7L765.945,1300.7C764.881,1300.7 764.018,1301.63 764.018,1302.76L764.018,1306.89C764.018,1308.03 764.881,1308.95 765.945,1308.95L770.338,1308.95C771.401,1308.95 772.264,1308.03 772.264,1306.89L772.264,1302.76Z"/>
                    </g>
                    <g transform="matrix(-37.0563,7.63836,-12.6342,-21.0544,53282.1,12703.9)">
                        <path d="M772.264,1302.76C772.264,1301.63 771.369,1300.7 770.266,1300.7L766.017,1300.7C764.914,1300.7 764.018,1301.63 764.018,1302.76L764.018,1306.89C764.018,1308.03 764.914,1308.95 766.017,1308.95L770.266,1308.95C771.369,1308.95 772.264,1308.03 772.264,1306.89L772.264,1302.76Z"/>
                    </g>
                    <g transform="matrix(3.06143,2.96694e-16,3.37482e-16,-1.79429,-19779.7,-3263.98)">
                        <circle cx="9218.95" cy="3043.63" r="13.478"/>
                    </g>
                </g>
                <g id="Drill13" serif:id="Drill" transform="matrix(1,0,0,1.2707,0,17.9763)">
                    <g transform="matrix(0.968383,-0.272895,0.345053,0.790131,-1100.4,-463.439)">
                        <path d="M779.672,1326.51C779.672,1324.66 778.153,1323.17 776.282,1323.17L765.789,1323.17C763.918,1323.17 762.399,1324.66 762.399,1326.51C762.399,1328.35 763.918,1329.84 765.789,1329.84L776.282,1329.84C778.153,1329.84 779.672,1328.35 779.672,1326.51Z"/>
                    </g>
                    <g transform="matrix(0.836919,-0.236448,0.268366,0.612968,-891.836,-254.494)">
                        <path d="M772.264,1302.76C772.264,1301.63 771.422,1300.7 770.385,1300.7L765.898,1300.7C764.861,1300.7 764.018,1301.63 764.018,1302.76L764.018,1306.89C764.018,1308.03 764.861,1308.95 765.898,1308.95L770.385,1308.95C771.422,1308.95 772.264,1308.03 772.264,1306.89L772.264,1302.76Z"/>
                    </g>
                    <g transform="matrix(0.828997,-0.234209,0.279934,0.63939,-891.977,-270.363)">
                        <path d="M772.264,1302.76C772.264,1301.63 771.378,1300.7 770.285,1300.7L765.998,1300.7C764.905,1300.7 764.018,1301.63 764.018,1302.76L764.018,1306.89C764.018,1308.03 764.905,1308.95 765.998,1308.95L770.285,1308.95C771.378,1308.95 772.264,1308.03 772.264,1306.89L772.264,1302.76Z"/>
                    </g>
                    <g transform="matrix(0.0678319,-3.00338e-18,7.47756e-18,0.0544897,-522.038,203.025)">
                        <circle cx="9218.95" cy="3043.63" r="13.478"/>
                    </g>
                </g>
            </g>
            <g transform="matrix(-0.104691,0.2196,-0.215134,-0.106864,3026.34,-770.74)">
                <g id="Drill14" serif:id="Drill">
                    <circle cx="8696.2" cy="8608.11" r="13.726"/>
                </g>
            </g>
            <g transform="matrix(-0.0679155,0.234175,-0.229413,-0.0693254,2835.32,-987.339)">
                <g id="Drill15" serif:id="Drill">
                    <circle cx="8696.2" cy="8608.11" r="13.726"/>
                </g>
            </g>
            <g transform="matrix(0.128165,-0.0755693,0.0659478,0.11654,-1830.62,99.2517)">
                <g id="Drill16" serif:id="Drill">
                    <path d="M10695,10969.2C10695,10962.5 10690.1,10957 10684.1,10957L9858.87,10957C9852.87,10957 9848,10962.5 9848,10969.2L9848,11087.8C9848,11094.5 9852.87,11100 9858.87,11100L10684.1,11100C10690.1,11100 10695,11094.5 10695,11087.8L10695,10969.2Z" style="fill-opacity:0.756863;"/>
                </g>
            </g>
            <g id="Drill17" serif:id="Drill" transform="matrix(1.53409,4.24822,-0.735318,0.276672,-275.238,-2285.86)">
                <path d="M599.938,494.41C599.938,493.232 599.769,492.275 599.561,492.275L589.678,492.275C589.469,492.275 589.3,493.232 589.3,494.41L589.3,499.831C589.3,501.009 589.469,501.966 589.678,501.966L599.561,501.966C599.769,501.966 599.938,501.009 599.938,499.831L599.938,494.41Z" style="stroke:black;stroke-width:0.03px;stroke-miterlimit:1.5;"/>
            </g>
            <g id="Hangers">
                <g id="Hanger" transform="matrix(1,0,0,0.866669,0,17.9763)">
                    <g id="Drill18" serif:id="Drill" transform="matrix(1.91009,0,0,2.2497,-17997.2,-3516.73)">
                        <circle cx="9472.33" cy="1887.84" r="0.762"/>
                    </g>
                    <g id="Drill19" serif:id="Drill" transform="matrix(1.91009,0,0,2.24969,-17997.1,-3531.96)">
                        <circle cx="9472.33" cy="1887.84" r="0.762"/>
                    </g>
                </g>
                <g id="Hanger1" serif:id="Hanger" transform="matrix(1,0,0,0.866669,109.917,17.9763)">
                    <g id="Drill20" serif:id="Drill" transform="matrix(1.91009,0,0,2.2497,-17997.2,-3516.73)">
                        <circle cx="9472.33" cy="1887.84" r="0.762"/>
                    </g>
                    <g id="Drill21" serif:id="Drill" transform="matrix(1.91009,0,0,2.24969,-17997.1,-3531.96)">
                        <circle cx="9472.33" cy="1887.84" r="0.762"/>
                    </g>
                </g>
            </g>
            <g id="_30-Deg-Eject-L" serif:id="30 Deg Eject L">
                <g id="Drill22" serif:id="Drill" transform="matrix(0.628802,-0.417468,0.408978,0.641856,-1223.37,-269.235)">
                    <path d="M981.341,1633.29L975.983,1638.63C975.431,1639.19 975.214,1640.03 975.445,1640.78C975.546,1641.11 975.74,1641.43 975.982,1641.68L983.58,1649.31C984.136,1649.86 984.98,1650.08 985.737,1649.85C986.067,1649.75 986.386,1649.56 986.629,1649.31L994.266,1641.71C994.817,1641.16 995.035,1640.32 994.803,1639.56C994.702,1639.23 994.508,1638.91 994.266,1638.67L989.065,1633.44C988.823,1633.2 988.633,1632.88 988.532,1632.55C988.47,1632.35 988.436,1632.12 988.436,1631.92L988.44,1629.91L988.444,1623.1C988.444,1622.8 988.395,1622.45 988.303,1622.15C987.782,1620.45 985.968,1619.49 984.267,1620.01C982.915,1620.42 981.968,1621.69 981.977,1623.1L981.974,1629.91L981.975,1631.77C981.982,1632.34 981.748,1632.9 981.341,1633.29Z"/>
                </g>
            </g>
            <g id="_30-Deg-Eject-R" serif:id="30 Deg Eject R">
                <g id="Drill23" serif:id="Drill" transform="matrix(0.651075,0.380231,-0.372496,0.664592,204.956,-1193.54)">
                    <path d="M981.341,1633.29L975.983,1638.63C975.431,1639.19 975.214,1640.03 975.445,1640.78C975.546,1641.11 975.74,1641.43 975.982,1641.68L983.58,1649.31C984.136,1649.86 984.98,1650.08 985.737,1649.85C986.067,1649.75 986.386,1649.56 986.629,1649.31L994.266,1641.71C994.817,1641.16 995.035,1640.32 994.803,1639.56C994.702,1639.23 994.508,1638.91 994.266,1638.67L989.065,1633.44C988.823,1633.2 988.633,1632.88 988.532,1632.55C988.47,1632.35 988.436,1632.12 988.436,1631.92L988.429,1617.56C988.429,1617.56 986.754,1604.09 985.807,1596.47C985.768,1596.15 985.498,1595.92 985.178,1595.92C984.858,1595.92 984.589,1596.15 984.55,1596.47C983.616,1604.09 981.964,1617.56 981.964,1617.56L981.975,1631.77C981.982,1632.34 981.748,1632.9 981.341,1633.29Z"/>
                </g>
            </g>
            <g id="Magnets">
                <g transform="matrix(0.0855643,-0.0429125,0.0420398,0.0873403,-687.274,480.315)">
                    <g id="Drill24" serif:id="Drill">
                        <circle cx="8804.75" cy="3660.99" r="45.631"/>
                    </g>
                </g>
                <g transform="matrix(0.090014,0.0320546,-0.0314027,0.0918824,-444.178,-238.958)">
                    <g id="Drill25" serif:id="Drill">
                        <circle cx="8804.75" cy="3660.99" r="45.631"/>
                    </g>
                </g>
                <g transform="matrix(-8.2871e-18,-0.097313,0.0953342,7.04402e-17,-283.825,1116.94)">
                    <g id="Drill26" serif:id="Drill">
                        <circle cx="8804.75" cy="3660.99" r="45.631"/>
                    </g>
                </g>
            </g>
            <g transform="matrix(0.12249,0.0493246,-0.0490805,0.126997,-835.866,-379.151)">
                <g id="Drill27" serif:id="Drill">
                    <path d="M8880.22,1071.22C8880.22,1068.64 8878.09,1066.54 8875.47,1066.54L8740.61,1066.54C8737.99,1066.54 8735.86,1068.64 8735.86,1071.22L8735.86,1199.16C8735.86,1201.74 8737.99,1203.84 8740.61,1203.84L8875.47,1203.84C8878.09,1203.84 8880.22,1201.74 8880.22,1199.16L8880.22,1071.22Z"/>
                </g>
            </g>
            <g id="Captive-Balls" serif:id="Captive Balls">
                <g id="Drill28" serif:id="Drill" transform="matrix(0.409103,-0.126399,0.0584867,0.197239,-3222.1,1352.44)">
                    <g transform="matrix(0.315153,0,0,0.667242,5447.2,-833.013)">
                        <circle cx="8513.82" cy="579.336" r="9.6"/>
                    </g>
                    <g transform="matrix(-0.315153,0,0,0.667242,10840.1,-833.013)">
                        <circle cx="8513.82" cy="579.336" r="9.6"/>
                    </g>
                    <g transform="matrix(-0.315153,0,0,0.667242,10826.8,-787.855)">
                        <circle cx="8513.82" cy="579.336" r="9.6"/>
                    </g>
                </g>
                <g id="Drill29" serif:id="Drill" transform="matrix(0.399354,0.15553,-0.0719662,0.192539,-3079.11,-970.797)">
                    <g transform="matrix(0.315153,0,0,0.667242,5447.2,-833.013)">
                        <circle cx="8513.82" cy="579.336" r="9.6"/>
                    </g>
                    <g transform="matrix(-0.315153,0,0,0.667242,10840.1,-833.013)">
                        <circle cx="8513.82" cy="579.336" r="9.6"/>
                    </g>
                    <g transform="matrix(-0.315153,0,0,0.667242,10826.8,-787.855)">
                        <circle cx="8513.82" cy="579.336" r="9.6"/>
                    </g>
                </g>
            </g>
            <g id="Pop-Bumpers" serif:id="Pop Bumpers">
                <g id="Drill30" serif:id="Drill" transform="matrix(0.30987,-0.116832,0.0466733,0.128982,-2476.86,1189.92)">
                    <g transform="matrix(1.52274,-1.01913,0.415581,3.73421,-6680.55,-5068.89)">
                        <circle cx="9034.96" cy="3726.74" r="4.649"/>
                    </g>
                    <g transform="matrix(1.52274,-1.01913,0.415581,3.73421,-6680.81,-5200.87)">
                        <circle cx="9034.96" cy="3726.74" r="4.649"/>
                    </g>
                    <g transform="matrix(0.393395,-0.263287,0.107364,0.964718,5090.62,908.268)">
                        <path d="M8700.81,1024.05C8700.81,1024.05 8704.86,1025.86 8706.93,1026.41C8724.08,1031 8741.81,1020.75 8746.41,1003.6C8746.96,1001.54 8747.49,997.142 8747.49,997.142C8752.9,995.168 8757.11,990.55 8758.62,984.917C8761.18,975.34 8755.46,965.439 8745.89,962.875C8740.25,961.367 8734.13,962.784 8729.72,966.483C8729.72,966.483 8725.67,964.677 8723.6,964.124C8706.44,959.532 8688.71,969.777 8684.12,986.926C8683.57,988.994 8683.04,993.389 8683.04,993.389C8677.64,995.364 8673.41,999.981 8671.9,1005.61C8669.34,1015.19 8675.06,1025.09 8684.64,1027.66C8690.27,1029.16 8696.4,1027.75 8700.81,1024.05Z"/>
                    </g>
                    <g transform="matrix(0.381397,-0.255257,0.104089,0.935295,4780.01,-1634.7)">
                        <circle cx="9034.96" cy="3726.74" r="4.649"/>
                    </g>
                    <g transform="matrix(0.381397,-0.255257,0.104089,0.935295,4804.23,-1575.67)">
                        <circle cx="9034.96" cy="3726.74" r="4.649"/>
                    </g>
                    <g transform="matrix(0.198099,-0.132582,0.0540645,0.485797,6618.49,-779.904)">
                        <circle cx="9218.95" cy="3043.63" r="13.478"/>
                    </g>
                    <g transform="matrix(0.20404,0.0566677,-0.0231081,0.500365,6798.66,-2374.04)">
                        <circle cx="9218.95" cy="3043.63" r="13.478"/>
                    </g>
                    <g transform="matrix(0.078782,-0.465028,0.18963,0.193196,7277.48,3272.98)">
                        <circle cx="9218.95" cy="3043.63" r="13.478"/>
                    </g>
                </g>
                <g id="Drill31" serif:id="Drill" transform="matrix(0.175683,-0.285548,0.114073,0.0731276,-1269.22,2665.71)">
                    <g transform="matrix(1.52274,-1.01913,0.415581,3.73421,-6680.55,-5068.89)">
                        <circle cx="9034.96" cy="3726.74" r="4.649"/>
                    </g>
                    <g transform="matrix(1.52274,-1.01913,0.415581,3.73421,-6680.81,-5200.87)">
                        <circle cx="9034.96" cy="3726.74" r="4.649"/>
                    </g>
                    <g transform="matrix(0.393395,-0.263287,0.107364,0.964718,5090.62,908.268)">
                        <path d="M8700.81,1024.05C8700.81,1024.05 8704.86,1025.86 8706.93,1026.41C8724.08,1031 8741.81,1020.75 8746.41,1003.6C8746.96,1001.54 8747.49,997.142 8747.49,997.142C8752.9,995.168 8757.11,990.55 8758.62,984.917C8761.18,975.34 8755.46,965.439 8745.89,962.875C8740.25,961.367 8734.13,962.784 8729.72,966.483C8729.72,966.483 8725.67,964.677 8723.6,964.124C8706.44,959.532 8688.71,969.777 8684.12,986.926C8683.57,988.994 8683.04,993.389 8683.04,993.389C8677.64,995.364 8673.41,999.981 8671.9,1005.61C8669.34,1015.19 8675.06,1025.09 8684.64,1027.66C8690.27,1029.16 8696.4,1027.75 8700.81,1024.05Z"/>
                    </g>
                    <g transform="matrix(0.381397,-0.255257,0.104089,0.935295,4780.01,-1634.7)">
                        <circle cx="9034.96" cy="3726.74" r="4.649"/>
                    </g>
                    <g transform="matrix(0.381397,-0.255257,0.104089,0.935295,4804.23,-1575.67)">
                        <circle cx="9034.96" cy="3726.74" r="4.649"/>
                    </g>
                    <g transform="matrix(0.198099,-0.132582,0.0540645,0.485797,6618.49,-779.904)">
                        <circle cx="9218.95" cy="3043.63" r="13.478"/>
                    </g>
                    <g transform="matrix(0.20404,0.0566677,-0.0231081,0.500365,6798.66,-2374.04)">
                        <circle cx="9218.95" cy="3043.63" r="13.478"/>
                    </g>
                    <g transform="matrix(0.078782,-0.465028,0.18963,0.193196,7277.48,3272.98)">
                        <circle cx="9218.95" cy="3043.63" r="13.478"/>
                    </g>
                </g>
                <g id="Drill32" serif:id="Drill" transform="matrix(-0.117598,0.315099,-0.125879,-0.0489499,1188.19,-2606.44)">
                    <g transform="matrix(1.52274,-1.01913,0.415581,3.73421,-6680.55,-5068.89)">
                        <circle cx="9034.96" cy="3726.74" r="4.649"/>
                    </g>
                    <g transform="matrix(1.52274,-1.01913,0.415581,3.73421,-6680.81,-5200.87)">
                        <circle cx="9034.96" cy="3726.74" r="4.649"/>
                    </g>
                    <g transform="matrix(0.393395,-0.263287,0.107364,0.964718,5090.62,908.268)">
                        <path d="M8700.81,1024.05C8700.81,1024.05 8704.86,1025.86 8706.93,1026.41C8724.08,1031 8741.81,1020.75 8746.41,1003.6C8746.96,1001.54 8747.49,997.142 8747.49,997.142C8752.9,995.168 8757.11,990.55 8758.62,984.917C8761.18,975.34 8755.46,965.439 8745.89,962.875C8740.25,961.367 8734.13,962.784 8729.72,966.483C8729.72,966.483 8725.67,964.677 8723.6,964.124C8706.44,959.532 8688.71,969.777 8684.12,986.926C8683.57,988.994 8683.04,993.389 8683.04,993.389C8677.64,995.364 8673.41,999.981 8671.9,1005.61C8669.34,1015.19 8675.06,1025.09 8684.64,1027.66C8690.27,1029.16 8696.4,1027.75 8700.81,1024.05Z"/>
                    </g>
                    <g transform="matrix(0.381397,-0.255257,0.104089,0.935295,4780.01,-1634.7)">
                        <circle cx="9034.96" cy="3726.74" r="4.649"/>
                    </g>
                    <g transform="matrix(0.381397,-0.255257,0.104089,0.935295,4804.23,-1575.67)">
                        <circle cx="9034.96" cy="3726.74" r="4.649"/>
                    </g>
                    <g transform="matrix(0.198099,-0.132582,0.0540645,0.485797,6618.49,-779.904)">
                        <circle cx="9218.95" cy="3043.63" r="13.478"/>
                    </g>
                    <g transform="matrix(0.20404,0.0566677,-0.0231081,0.500365,6798.66,-2374.04)">
                        <circle cx="9218.95" cy="3043.63" r="13.478"/>
                    </g>
                    <g transform="matrix(0.078782,-0.465028,0.18963,0.193196,7277.48,3272.98)">
                        <circle cx="9218.95" cy="3043.63" r="13.478"/>
                    </g>
                </g>
            </g>
            <g id="Drill33" serif:id="Drill" transform="matrix(0.145061,0,0,0.148073,-1043.32,-1063.99)">
                <circle cx="8796.68" cy="8936.14" r="10.341"/>
            </g>
            <g id="Drill34" serif:id="Drill" transform="matrix(0.145061,0,0,0.148073,-1029.2,-1055.75)">
                <circle cx="8796.68" cy="8936.14" r="10.341"/>
            </g>
            <g id="Drill35" serif:id="Drill" transform="matrix(0.145061,0,0,0.148073,-1061.81,-1142.52)">
                <circle cx="8796.68" cy="8936.14" r="10.341"/>
            </g>
            <g id="Drill36" serif:id="Drill" transform="matrix(0.145061,0,0,0.148073,-1035.65,-1133.44)">
                <circle cx="8796.68" cy="8936.14" r="10.341"/>
            </g>
            <g id="Drill37" serif:id="Drill" transform="matrix(0.145061,0,0,0.148073,-1005.91,-858.192)">
                <circle cx="8796.68" cy="8936.14" r="10.341"/>
            </g>
            <g id="T-8-Posts" serif:id="T-8 Posts">
                <g id="Drill38" serif:id="Drill" transform="matrix(1.91009,0,0,1.94974,-18009.6,-3053.19)">
                    <circle cx="9472.33" cy="1887.84" r="0.762"/>
                </g>
                <g id="Drill39" serif:id="Drill" transform="matrix(1.91009,0,0,1.94974,-17867.5,-3053.19)">
                    <circle cx="9472.33" cy="1887.84" r="0.762"/>
                </g>
                <g id="Drill40" serif:id="Drill" transform="matrix(1.91009,0,0,1.94974,-17852.9,-3036.4)">
                    <circle cx="9472.33" cy="1887.84" r="0.762"/>
                </g>
                <g id="Drill41" serif:id="Drill" transform="matrix(1.91009,0,0,1.94974,-18024.9,-3036.46)">
                    <circle cx="9472.33" cy="1887.84" r="0.762"/>
                </g>
            </g>
            <g id="T-6-R-PlasMet-Posts" serif:id="T-6 R PlasMet Posts">
                <g id="Drill42" serif:id="Drill" transform="matrix(1.65541,0,0,1.68978,-15475.4,-3120)">
                    <circle cx="9472.33" cy="1887.84" r="0.762"/>
                </g>
                <g id="Drill43" serif:id="Drill" transform="matrix(1.65541,0,0,1.68978,-15572.9,-3081.54)">
                    <circle cx="9472.33" cy="1887.84" r="0.762"/>
                </g>
                <g id="Drill44" serif:id="Drill" transform="matrix(1.65541,0,0,1.68978,-15548.1,-3093.11)">
                    <circle cx="9472.33" cy="1887.84" r="0.762"/>
                </g>
                <g id="Drill45" serif:id="Drill" transform="matrix(1.65541,0,0,1.68978,-15611.5,-3017.6)">
                    <circle cx="9472.33" cy="1887.84" r="0.762"/>
                </g>
                <g id="Drill46" serif:id="Drill" transform="matrix(1.65541,0,0,1.68978,-15618.8,-3015.29)">
                    <circle cx="9472.33" cy="1887.84" r="0.762"/>
                </g>
                <g id="Drill47" serif:id="Drill" transform="matrix(1.65541,0,0,1.68978,-15408.1,-2836.68)">
                    <circle cx="9472.33" cy="1887.84" r="0.762"/>
                </g>
                <g id="Drill48" serif:id="Drill" transform="matrix(1.65541,0,0,1.68978,-15481,-2999.39)">
                    <circle cx="9472.33" cy="1887.84" r="0.762"/>
                </g>
                <g id="Drill49" serif:id="Drill" transform="matrix(1.65541,0,0,1.68978,-15441.4,-3077.52)">
                    <circle cx="9472.33" cy="1887.84" r="0.762"/>
                </g>
                <g id="Drill50" serif:id="Drill" transform="matrix(1.65541,0,0,1.68978,-15471.5,-3093.89)">
                    <circle cx="9472.33" cy="1887.84" r="0.762"/>
                </g>
                <g id="Drill51" serif:id="Drill" transform="matrix(1.65541,0,0,1.68978,-15525.7,-3073.51)">
                    <circle cx="9472.33" cy="1887.84" r="0.762"/>
                </g>
                <g id="Drill52" serif:id="Drill" transform="matrix(1.65541,0,0,1.68978,-15541.8,-3053)">
                    <circle cx="9472.33" cy="1887.84" r="0.762"/>
                </g>
                <g id="Drill53" serif:id="Drill" transform="matrix(1.65541,0,0,1.68978,-15543.3,-3037.66)">
                    <circle cx="9472.33" cy="1887.84" r="0.762"/>
                </g>
                <g id="Drill54" serif:id="Drill" transform="matrix(1.65541,0,0,1.68978,-15570.7,-3022.64)">
                    <circle cx="9472.33" cy="1887.84" r="0.762"/>
                </g>
                <g id="Drill55" serif:id="Drill" transform="matrix(1.65541,0,0,1.68978,-15575.2,-3046.82)">
                    <circle cx="9472.33" cy="1887.84" r="0.762"/>
                </g>
                <g id="Drill56" serif:id="Drill" transform="matrix(1.65541,0,0,1.68978,-15560.4,-3087.28)">
                    <circle cx="9472.33" cy="1887.84" r="0.762"/>
                </g>
                <g id="Drill57" serif:id="Drill" transform="matrix(1.65541,0,0,1.68978,-15611.1,-3057.47)">
                    <circle cx="9472.33" cy="1887.84" r="0.762"/>
                </g>
                <g id="Drill58" serif:id="Drill" transform="matrix(1.65541,0,0,1.68978,-15617.2,-3024.84)">
                    <circle cx="9472.33" cy="1887.84" r="0.762"/>
                </g>
                <g id="Drill59" serif:id="Drill" transform="matrix(1.65541,0,0,1.68978,-15641.3,-2968.75)">
                    <circle cx="9472.33" cy="1887.84" r="0.762"/>
                </g>
                <g id="Drill60" serif:id="Drill" transform="matrix(1.65541,0,0,1.68978,-15642.7,-3055)">
                    <circle cx="9472.33" cy="1887.84" r="0.762"/>
                </g>
                <g id="Drill61" serif:id="Drill" transform="matrix(1.65541,0,0,1.68978,-15631.7,-3083.1)">
                    <circle cx="9472.33" cy="1887.84" r="0.762"/>
                </g>
                <g id="Drill62" serif:id="Drill" transform="matrix(1.65541,0,0,1.68978,-15630.6,-3109.8)">
                    <circle cx="9472.33" cy="1887.84" r="0.762"/>
                </g>
                <g id="Drill63" serif:id="Drill" transform="matrix(1.65541,0,0,1.68978,-15567.8,-3120)">
                    <circle cx="9472.33" cy="1887.84" r="0.762"/>
                </g>
                <g id="Drill64" serif:id="Drill" transform="matrix(1.65541,0,0,1.68978,-15556.6,-3120)">
                    <circle cx="9472.33" cy="1887.84" r="0.762"/>
                </g>
                <g id="Drill65" serif:id="Drill" transform="matrix(1.65541,0,0,1.68978,-15450.2,-3118.43)">
                    <circle cx="9472.33" cy="1887.84" r="0.762"/>
                </g>
                <g id="Drill66" serif:id="Drill" transform="matrix(1.65541,0,0,1.68978,-15405.4,-3112.43)">
                    <circle cx="9472.33" cy="1887.84" r="0.762"/>
                </g>
                <g id="Drill67" serif:id="Drill" transform="matrix(1.65541,0,0,1.68978,-15389.7,-3037.18)">
                    <circle cx="9472.33" cy="1887.84" r="0.762"/>
                </g>
                <g id="Drill68" serif:id="Drill" transform="matrix(1.65541,0,0,1.68978,-15445.8,-3037.19)">
                    <circle cx="9472.33" cy="1887.84" r="0.762"/>
                </g>
                <g id="Drill69" serif:id="Drill" transform="matrix(1.65541,0,0,1.68978,-15434.4,-3023.03)">
                    <circle cx="9472.33" cy="1887.84" r="0.762"/>
                </g>
                <g id="Drill70" serif:id="Drill" transform="matrix(1.65541,0,0,1.68978,-15412.5,-2995.58)">
                    <circle cx="9472.33" cy="1887.84" r="0.762"/>
                </g>
                <g id="Drill71" serif:id="Drill" transform="matrix(1.65541,0,0,1.68978,-15436.7,-2955.01)">
                    <circle cx="9472.33" cy="1887.84" r="0.762"/>
                </g>
                <g id="Drill72" serif:id="Drill" transform="matrix(1.65541,0,0,1.68978,-15427.3,-2929.63)">
                    <circle cx="9472.33" cy="1887.84" r="0.762"/>
                </g>
                <g id="Drill73" serif:id="Drill" transform="matrix(1.65541,0,0,1.68978,-15393.2,-2943.29)">
                    <circle cx="9472.33" cy="1887.84" r="0.762"/>
                </g>
                <g id="Drill74" serif:id="Drill" transform="matrix(1.65541,0,0,1.68978,-15397.5,-2901.58)">
                    <circle cx="9472.33" cy="1887.84" r="0.762"/>
                </g>
                <g id="Drill75" serif:id="Drill" transform="matrix(1.65541,0,0,1.68978,-15635.3,-2814.66)">
                    <circle cx="9472.33" cy="1887.84" r="0.762"/>
                </g>
                <g id="Drill76" serif:id="Drill" transform="matrix(1.65541,0,0,1.68978,-15625.2,-2902.09)">
                    <circle cx="9472.33" cy="1887.84" r="0.762"/>
                </g>
                <g id="Drill77" serif:id="Drill" transform="matrix(1.65541,0,0,1.68978,-15636.6,-2884.88)">
                    <circle cx="9472.33" cy="1887.84" r="0.762"/>
                </g>
                <g id="Drill78" serif:id="Drill" transform="matrix(1.65541,0,0,1.68978,-15401.4,-2751.49)">
                    <circle cx="9472.33" cy="1887.84" r="0.762"/>
                </g>
                <g id="Drill79" serif:id="Drill" transform="matrix(1.65541,0,0,1.68978,-15395.1,-2744.37)">
                    <circle cx="9472.33" cy="1887.84" r="0.762"/>
                </g>
                <g id="Drill80" serif:id="Drill" transform="matrix(1.65541,0,0,1.68978,-15574.3,-2641.77)">
                    <circle cx="9472.33" cy="1887.84" r="0.762"/>
                </g>
                <g id="Drill81" serif:id="Drill" transform="matrix(1.65541,0,0,1.68978,-15461.3,-2641.77)">
                    <circle cx="9472.33" cy="1887.84" r="0.762"/>
                </g>
                <g id="Drill82" serif:id="Drill" transform="matrix(1.65541,0,0,1.68978,-15617,-2672.43)">
                    <circle cx="9472.33" cy="1887.84" r="0.762"/>
                </g>
                <g id="Drill83" serif:id="Drill" transform="matrix(1.65541,0,0,1.68978,-15418.5,-2672.43)">
                    <circle cx="9472.33" cy="1887.84" r="0.762"/>
                </g>
            </g>
            <g id="T-6-Posts" serif:id="T-6 Posts">
                <g id="Drill84" serif:id="Drill" transform="matrix(1.65541,0,0,1.68978,-15635.2,-2778.45)">
                    <circle cx="9472.33" cy="1887.84" r="0.762"/>
                </g>
                <g id="Drill85" serif:id="Drill" transform="matrix(1.65541,0,0,1.68978,-15624.1,-2757.6)">
                    <circle cx="9472.33" cy="1887.84" r="0.762"/>
                </g>
                <g id="Drill86" serif:id="Drill" transform="matrix(1.65541,0,0,1.68978,-15629.6,-2750.62)">
                    <circle cx="9472.33" cy="1887.84" r="0.762"/>
                </g>
                <g id="Drill87" serif:id="Drill" transform="matrix(1.65541,0,0,1.68978,-15584.1,-2719.18)">
                    <circle cx="9472.33" cy="1887.84" r="0.762"/>
                </g>
                <g id="Drill88" serif:id="Drill" transform="matrix(1.65541,0,0,1.68978,-15584.1,-2682.89)">
                    <circle cx="9472.33" cy="1887.84" r="0.762"/>
                </g>
                <g id="Drill89" serif:id="Drill" transform="matrix(1.65541,0,0,1.68978,-15568,-2671.4)">
                    <circle cx="9472.33" cy="1887.84" r="0.762"/>
                </g>
                <g id="Drill90" serif:id="Drill" transform="matrix(1.65541,0,0,1.68978,-15451.5,-2719.18)">
                    <circle cx="9472.33" cy="1887.84" r="0.762"/>
                </g>
                <g id="Drill91" serif:id="Drill" transform="matrix(1.65541,0,0,1.68978,-15451.6,-2682.94)">
                    <circle cx="9472.33" cy="1887.84" r="0.762"/>
                </g>
                <g id="Drill92" serif:id="Drill" transform="matrix(1.65541,0,0,1.68978,-15467.7,-2671.4)">
                    <circle cx="9472.33" cy="1887.84" r="0.762"/>
                </g>
                <g id="Drill93" serif:id="Drill" transform="matrix(1.65541,0,0,1.68978,-15396.4,-2775.56)">
                    <circle cx="9472.33" cy="1887.84" r="0.762"/>
                </g>
                <g id="Drill94" serif:id="Drill" transform="matrix(1.65541,0,0,1.68978,-15408.4,-2756.7)">
                    <circle cx="9472.33" cy="1887.84" r="0.762"/>
                </g>
                <g id="Drill95" serif:id="Drill" transform="matrix(1.65541,0,0,1.68978,-15418.2,-2841.34)">
                    <circle cx="9472.33" cy="1887.84" r="0.762"/>
                </g>
                <g id="Drill96" serif:id="Drill" transform="matrix(1.65541,0,0,1.68978,-15409.4,-2847.01)">
                    <circle cx="9472.33" cy="1887.84" r="0.762"/>
                </g>
                <g id="Drill97" serif:id="Drill" transform="matrix(1.65541,0,0,1.68978,-15403,-2890.71)">
                    <circle cx="9472.33" cy="1887.84" r="0.762"/>
                </g>
                <g id="Drill98" serif:id="Drill" transform="matrix(1.65541,0,0,1.68978,-15609.7,-2845.67)">
                    <circle cx="9472.33" cy="1887.84" r="0.762"/>
                </g>
                <g id="Drill99" serif:id="Drill" transform="matrix(1.60635,-0.408347,0.400042,1.6397,-15787.2,928.236)">
                    <circle cx="9472.33" cy="1887.84" r="0.762"/>
                </g>
                <g id="Drill100" serif:id="Drill" transform="matrix(1.65541,0,0,1.68978,-15452.6,-3079.2)">
                    <circle cx="9472.33" cy="1887.84" r="0.762"/>
                </g>
                <g id="Drill101" serif:id="Drill" transform="matrix(1.65541,0,0,1.68978,-15401.3,-2782.91)">
                    <circle cx="9472.33" cy="1887.84" r="0.762"/>
                </g>
                <g id="Drill102" serif:id="Drill" transform="matrix(1.65541,0,0,1.68978,-15463.1,-3092.17)">
                    <circle cx="9472.33" cy="1887.84" r="0.762"/>
                </g>
                <g id="Drill103" serif:id="Drill" transform="matrix(1.60635,-0.408347,0.400042,1.6397,-15795.8,918.615)">
                    <circle cx="9472.33" cy="1887.84" r="0.762"/>
                </g>
            </g>
            <g id="Targets">
                <g transform="matrix(0.62109,-0.4315,0.440948,0.661306,-513.782,280.807)">
                    <g id="Drill104" serif:id="Drill">
                        <path d="M599.938,494.41C599.938,493.232 598.94,492.275 597.711,492.275L591.528,492.275C590.298,492.275 589.3,493.232 589.3,494.41L589.3,499.831C589.3,501.009 590.298,501.966 591.528,501.966L597.711,501.966C598.94,501.966 599.938,501.009 599.938,499.831L599.938,494.41Z"/>
                    </g>
                </g>
                <g transform="matrix(0.701869,0.273581,-0.279569,0.747317,-65.3122,-345.557)">
                    <g id="Drill105" serif:id="Drill">
                        <path d="M599.938,494.41C599.938,493.232 598.94,492.275 597.711,492.275L591.528,492.275C590.298,492.275 589.3,493.232 589.3,494.41L589.3,499.831C589.3,501.009 590.298,501.966 591.528,501.966L597.711,501.966C598.94,501.966 599.938,501.009 599.938,499.831L599.938,494.41Z"/>
                    </g>
                </g>
                <g transform="matrix(0.6525,0.38015,-0.38847,0.694752,61.4332,-337.581)">
                    <g id="Drill106" serif:id="Drill">
                        <path d="M599.938,494.41C599.938,493.232 598.94,492.275 597.711,492.275L591.528,492.275C590.298,492.275 589.3,493.232 589.3,494.41L589.3,499.831C589.3,501.009 590.298,501.966 591.528,501.966L597.711,501.966C598.94,501.966 599.938,501.009 599.938,499.831L599.938,494.41Z"/>
                    </g>
                </g>
                <g transform="matrix(0.719233,-0.221658,0.226509,0.765809,-472.28,-66.6576)">
                    <g id="Drill107" serif:id="Drill">
                        <path d="M599.938,494.41C599.938,493.232 598.94,492.275 597.711,492.275L591.528,492.275C590.298,492.275 589.3,493.232 589.3,494.41L589.3,499.831C589.3,501.009 590.298,501.966 591.528,501.966L597.711,501.966C598.94,501.966 599.938,501.009 599.938,499.831L599.938,494.41Z"/>
                    </g>
                </g>
                <g transform="matrix(0.565006,-1.2616,0.712737,0.332589,-641.893,984.356)">
                    <g id="Drill108" serif:id="Drill">
                        <path d="M599.938,494.41C599.938,493.232 599.386,492.275 598.707,492.275L590.532,492.275C589.852,492.275 589.3,493.232 589.3,494.41L589.3,499.831C589.3,501.009 589.852,501.966 590.532,501.966L598.707,501.966C599.386,501.966 599.938,501.009 599.938,499.831L599.938,494.41Z"/>
                    </g>
                </g>
                <g transform="matrix(0.312752,-0.697288,0.71255,0.333003,-485.607,634.801)">
                    <g id="Drill109" serif:id="Drill">
                        <path d="M599.938,494.41C599.938,493.232 598.94,492.275 597.711,492.275L591.528,492.275C590.298,492.275 589.3,493.232 589.3,494.41L589.3,499.831C589.3,501.009 590.298,501.966 591.528,501.966L597.711,501.966C598.94,501.966 599.938,501.009 599.938,499.831L599.938,494.41Z"/>
                    </g>
                </g>
            </g>
            <g id="Switches">
                <g transform="matrix(1.13991,-2.23529e-47,-3.30462e-47,2.25032,-853.531,-1241.54)">
                    <g id="Drill110" serif:id="Drill">
                        <path d="M792.179,771.519C792.179,771.215 791.702,770.968 791.113,770.968C790.525,770.968 790.047,771.215 790.047,771.519L790.047,780.323C790.047,780.627 790.525,780.874 791.113,780.874C791.702,780.874 792.179,780.627 792.179,780.323L792.179,771.519Z"/>
                    </g>
                </g>
                <g transform="matrix(1.13991,-2.23529e-47,-3.30462e-47,2.25032,-835.204,-1261.27)">
                    <g id="Drill111" serif:id="Drill">
                        <path d="M792.179,771.519C792.179,771.215 791.702,770.968 791.113,770.968C790.525,770.968 790.047,771.215 790.047,771.519L790.047,780.323C790.047,780.627 790.525,780.874 791.113,780.874C791.702,780.874 792.179,780.627 792.179,780.323L792.179,771.519Z"/>
                    </g>
                </g>
                <g transform="matrix(1.13991,-2.23529e-47,-3.30462e-47,2.25032,-817.875,-1261.27)">
                    <g id="Drill112" serif:id="Drill">
                        <path d="M792.179,771.519C792.179,771.215 791.702,770.968 791.113,770.968C790.525,770.968 790.047,771.215 790.047,771.519L790.047,780.323C790.047,780.627 790.525,780.874 791.113,780.874C791.702,780.874 792.179,780.627 792.179,780.323L792.179,771.519Z"/>
                    </g>
                </g>
                <g transform="matrix(-1.13991,1.42497e-16,-2.69981e-16,-2.25032,1143.46,2230.87)">
                    <g id="Drill113" serif:id="Drill">
                        <path d="M792.179,771.519C792.179,771.215 791.702,770.968 791.113,770.968C790.525,770.968 790.047,771.215 790.047,771.519L790.047,780.323C790.047,780.627 790.525,780.874 791.113,780.874C791.702,780.874 792.179,780.627 792.179,780.323L792.179,771.519Z"/>
                    </g>
                </g>
                <g transform="matrix(1.13991,-2.23529e-47,-3.30462e-47,2.25032,-642.797,-1261.27)">
                    <g id="Drill114" serif:id="Drill">
                        <path d="M792.179,771.519C792.179,771.215 791.702,770.968 791.113,770.968C790.525,770.968 790.047,771.215 790.047,771.519L790.047,780.323C790.047,780.627 790.525,780.874 791.113,780.874C791.702,780.874 792.179,780.627 792.179,780.323L792.179,771.519Z"/>
                    </g>
                </g>
                <g transform="matrix(-1.13991,1.42497e-16,-2.69981e-16,-2.25032,950.481,1906.73)">
                    <g id="Drill115" serif:id="Drill">
                        <path d="M792.179,771.519C792.179,771.215 791.702,770.968 791.113,770.968C790.525,770.968 790.047,771.215 790.047,771.519L790.047,780.323C790.047,780.627 790.525,780.874 791.113,780.874C791.702,780.874 792.179,780.627 792.179,780.323L792.179,771.519Z"/>
                    </g>
                </g>
                <g transform="matrix(6.97991e-17,-1.16357,2.20456,1.37792e-16,-1562.46,1000.92)">
                    <g id="Drill116" serif:id="Drill">
                        <path d="M792.179,771.519C792.179,771.215 791.702,770.968 791.113,770.968C790.525,770.968 790.047,771.215 790.047,771.519L790.047,780.323C790.047,780.627 790.525,780.874 791.113,780.874C791.702,780.874 792.179,780.627 792.179,780.323L792.179,771.519Z"/>
                    </g>
                </g>
            </g>
            <g id="Flippers">
                <g id="Mechs">
                    <g transform="matrix(0.122832,0.0491234,-0.0481244,0.125382,-763.864,-400.839)">
                        <g id="Drill117" serif:id="Drill">
                            <circle cx="8628.11" cy="599.279" r="22.545"/>
                        </g>
                    </g>
                    <g transform="matrix(-0.099671,-0.0882199,0.0864255,-0.10174,870.746,1129.38)">
                        <g id="Drill118" serif:id="Drill">
                            <circle cx="8628.11" cy="599.279" r="22.545"/>
                        </g>
                    </g>
                    <g transform="matrix(0.131923,0,0,0.134661,-1019.05,477.24)">
                        <g id="Drill119" serif:id="Drill">
                            <circle cx="8628.11" cy="599.279" r="22.545"/>
                        </g>
                    </g>
                    <g transform="matrix(0.131923,3.47856e-08,-3.8977e-08,0.134661,-931.733,477.247)">
                        <g id="Drill120" serif:id="Drill">
                            <circle cx="8628.11" cy="599.279" r="22.545"/>
                        </g>
                    </g>
                </g>
                <g id="Bats">
                    <g id="Drill121" serif:id="Drill" transform="matrix(0.14017,0,5.98205e-17,0.143079,-733.733,-580.687)">
                        <circle cx="6315.71" cy="8095.88" r="4.331"/>
                    </g>
                    <g id="Drill122" serif:id="Drill" transform="matrix(0.115917,0.0804447,-0.0788089,0.118323,-15.6242,-1123.88)">
                        <circle cx="6315.71" cy="8095.88" r="4.331"/>
                    </g>
                    <g id="Drill123" serif:id="Drill" transform="matrix(0.14017,0,5.98205e-17,0.143079,-711.096,-580.681)">
                        <circle cx="6315.71" cy="8095.88" r="4.331"/>
                    </g>
                </g>
            </g>
            <g transform="matrix(0.131677,0,0,0.136522,-1001.92,5.17762)">
                <g id="Drill124" serif:id="Drill">
                    <path d="M8880.22,1071.22C8880.22,1068.64 8878.09,1066.54 8875.47,1066.54L8740.61,1066.54C8737.99,1066.54 8735.86,1068.64 8735.86,1071.22L8735.86,1199.16C8735.86,1201.74 8737.99,1203.84 8740.61,1203.84L8875.47,1203.84C8878.09,1203.84 8880.22,1201.74 8880.22,1199.16L8880.22,1071.22Z"/>
                </g>
            </g>
            <g transform="matrix(0.832599,1.09633,-0.61937,0.49011,-9.42361,-718.349)">
                <g id="Drill125" serif:id="Drill">
                    <path d="M599.938,494.41C599.938,493.232 599.386,492.275 598.707,492.275L590.532,492.275C589.852,492.275 589.3,493.232 589.3,494.41L589.3,499.831C589.3,501.009 589.852,501.966 590.532,501.966L598.707,501.966C599.386,501.966 599.938,501.009 599.938,499.831L599.938,494.41Z"/>
                </g>
            </g>
            <g id="Drop-Targets" serif:id="Drop Targets">
                <g transform="matrix(0.13106,-0.037856,0.0391592,0.141258,-1595.41,-330.014)">
                    <g id="Drill126" serif:id="Drill">
                        <path d="M10820.7,7140.79C10820.7,7136.08 10816.6,7132.25 10811.7,7132.25L10711.5,7132.25C10706.5,7132.25 10702.5,7136.08 10702.5,7140.79L10702.5,7168.4C10702.5,7173.11 10706.5,7176.94 10711.5,7176.94L10811.7,7176.94C10816.6,7176.94 10820.7,7173.11 10820.7,7168.4L10820.7,7140.79Z"/>
                    </g>
                </g>
                <g transform="matrix(0.13106,-0.037856,0.0391592,0.141258,-1567.65,-354.022)">
                    <g id="Drill127" serif:id="Drill">
                        <path d="M10820.7,7140.79C10820.7,7136.08 10816.6,7132.25 10811.7,7132.25L10711.5,7132.25C10706.5,7132.25 10702.5,7136.08 10702.5,7140.79L10702.5,7168.4C10702.5,7173.11 10706.5,7176.94 10711.5,7176.94L10811.7,7176.94C10816.6,7176.94 10820.7,7173.11 10820.7,7168.4L10820.7,7140.79Z"/>
                    </g>
                </g>
                <g transform="matrix(0.13106,-0.037856,0.0391592,0.141258,-1539.88,-378.016)">
                    <g id="Drill128" serif:id="Drill">
                        <path d="M10820.7,7140.79C10820.7,7136.08 10816.6,7132.25 10811.7,7132.25L10711.5,7132.25C10706.5,7132.25 10702.5,7136.08 10702.5,7140.79L10702.5,7168.4C10702.5,7173.11 10706.5,7176.94 10711.5,7176.94L10811.7,7176.94C10816.6,7176.94 10820.7,7173.11 10820.7,7168.4L10820.7,7140.79Z"/>
                    </g>
                </g>
            </g>
            <g id="Drill129" serif:id="Drill" transform="matrix(0.112934,0,0,0.119549,-619.208,-496.487)">
                <path d="M7059.75,8137.04C7059.75,8121.28 7046.48,8108.48 7030.13,8108.48L6818.83,8108.48C6802.49,8108.48 6789.21,8121.28 6789.21,8137.04L6789.21,8236.31C6789.21,8252.07 6802.49,8264.87 6818.83,8264.87L7030.13,8264.87C7046.48,8264.87 7059.75,8252.07 7059.75,8236.31L7059.75,8137.04Z"/>
            </g>
            <g id="Drill130" serif:id="Drill" transform="matrix(0.112934,0,0,0.119549,-619.208,-519.405)">
                <path d="M7059.75,8137.04C7059.75,8121.28 7046.48,8108.48 7030.13,8108.48L6818.83,8108.48C6802.49,8108.48 6789.21,8121.28 6789.21,8137.04L6789.21,8236.31C6789.21,8252.07 6802.49,8264.87 6818.83,8264.87L7030.13,8264.87C7046.48,8264.87 7059.75,8252.07 7059.75,8236.31L7059.75,8137.04Z"/>
            </g>
            <g id="Drill131" serif:id="Drill" transform="matrix(0.112934,0,0,0.119549,-619.208,-542.323)">
                <path d="M7059.75,8137.04C7059.75,8121.28 7046.48,8108.48 7030.13,8108.48L6818.83,8108.48C6802.49,8108.48 6789.21,8121.28 6789.21,8137.04L6789.21,8236.31C6789.21,8252.07 6802.49,8264.87 6818.83,8264.87L7030.13,8264.87C7046.48,8264.87 7059.75,8252.07 7059.75,8236.31L7059.75,8137.04Z"/>
            </g>
            <g id="Drill132" serif:id="Drill" transform="matrix(0.112934,0,0,0.119549,-619.208,-565.242)">
                <path d="M7059.75,8137.04C7059.75,8121.28 7046.48,8108.48 7030.13,8108.48L6818.83,8108.48C6802.49,8108.48 6789.21,8121.28 6789.21,8137.04L6789.21,8236.31C6789.21,8252.07 6802.49,8264.87 6818.83,8264.87L7030.13,8264.87C7046.48,8264.87 7059.75,8252.07 7059.75,8236.31L7059.75,8137.04Z"/>
            </g>
            <g id="Drill133" serif:id="Drill" transform="matrix(0.112934,0,0,0.119549,-619.208,-588.16)">
                <path d="M7059.75,8137.04C7059.75,8121.28 7046.48,8108.48 7030.13,8108.48L6818.83,8108.48C6802.49,8108.48 6789.21,8121.28 6789.21,8137.04L6789.21,8236.31C6789.21,8252.07 6802.49,8264.87 6818.83,8264.87L7030.13,8264.87C7046.48,8264.87 7059.75,8252.07 7059.75,8236.31L7059.75,8137.04Z"/>
            </g>
            <g id="Drill134" serif:id="Drill" transform="matrix(0.112934,0,0,0.119549,-619.208,-611.078)">
                <path d="M7059.75,8137.04C7059.75,8121.28 7046.48,8108.48 7030.13,8108.48L6818.83,8108.48C6802.49,8108.48 6789.21,8121.28 6789.21,8137.04L6789.21,8236.31C6789.21,8252.07 6802.49,8264.87 6818.83,8264.87L7030.13,8264.87C7046.48,8264.87 7059.75,8252.07 7059.75,8236.31L7059.75,8137.04Z"/>
            </g>
            <g id="Drill135" serif:id="Drill" transform="matrix(0.112934,0,0,0.119549,-619.208,-633.996)">
                <path d="M7059.75,8137.04C7059.75,8121.28 7046.48,8108.48 7030.13,8108.48L6818.83,8108.48C6802.49,8108.48 6789.21,8121.28 6789.21,8137.04L6789.21,8236.31C6789.21,8252.07 6802.49,8264.87 6818.83,8264.87L7030.13,8264.87C7046.48,8264.87 7059.75,8252.07 7059.75,8236.31L7059.75,8137.04Z"/>
            </g>
            <g id="Drill136" serif:id="Drill" transform="matrix(0.112934,0,0,0.119549,-619.208,-656.914)">
                <path d="M7059.75,8137.04C7059.75,8121.28 7046.48,8108.48 7030.13,8108.48L6818.83,8108.48C6802.49,8108.48 6789.21,8121.28 6789.21,8137.04L6789.21,8236.31C6789.21,8252.07 6802.49,8264.87 6818.83,8264.87L7030.13,8264.87C7046.48,8264.87 7059.75,8252.07 7059.75,8236.31L7059.75,8137.04Z"/>
            </g>
            <g id="_-Curve-" serif:id="(Curve)" transform="matrix(0.0419897,0.0132144,-0.0349498,0.115713,181.693,-713.719)">
                <path d="M8291.29,7891.54C8276.66,7891.54 8264.81,7895.93 8264.81,7901.35C8264.81,7907.53 8264.81,7915.81 8264.81,7923.71C8264.81,7927.74 8258.15,7931.36 8248.03,7932.84C8237.91,7934.32 8226.38,7933.35 8218.96,7930.41C8174.6,7912.81 8108.79,7886.7 8071.68,7871.97C8055.84,7865.69 8055.84,7855.94 8071.68,7849.66C8108.79,7834.93 8174.6,7808.82 8218.96,7791.22C8226.38,7788.28 8237.91,7787.31 8248.03,7788.79C8258.15,7790.27 8264.81,7793.89 8264.81,7797.92C8264.81,7805.82 8264.81,7814.1 8264.81,7820.28C8264.81,7825.7 8276.66,7830.09 8291.29,7830.09C8299.84,7830.09 8309.55,7830.09 8319.01,7830.09C8330.72,7830.09 8341.95,7831.81 8350.23,7834.88C8358.51,7837.95 8363.16,7842.11 8363.16,7846.44C8363.16,7855.33 8363.16,7866.3 8363.16,7875.19C8363.16,7879.52 8358.51,7883.68 8350.23,7886.75C8341.95,7889.82 8330.72,7891.54 8319.01,7891.54C8309.55,7891.54 8299.84,7891.54 8291.29,7891.54Z"/>
            </g>
            <g id="_-Curve-1" serif:id="(Curve)" transform="matrix(0.0419897,0.0132144,-0.0349498,0.115713,173.624,-687.658)">
                <path d="M8291.29,7891.54C8276.66,7891.54 8264.81,7895.93 8264.81,7901.35C8264.81,7907.53 8264.81,7915.81 8264.81,7923.71C8264.81,7927.74 8258.15,7931.36 8248.03,7932.84C8237.91,7934.32 8226.38,7933.35 8218.96,7930.41C8174.6,7912.81 8108.79,7886.7 8071.68,7871.97C8055.84,7865.69 8055.84,7855.94 8071.68,7849.66C8108.79,7834.93 8174.6,7808.82 8218.96,7791.22C8226.38,7788.28 8237.91,7787.31 8248.03,7788.79C8258.15,7790.27 8264.81,7793.89 8264.81,7797.92C8264.81,7805.82 8264.81,7814.1 8264.81,7820.28C8264.81,7825.7 8276.66,7830.09 8291.29,7830.09C8299.84,7830.09 8309.55,7830.09 8319.01,7830.09C8330.72,7830.09 8341.95,7831.81 8350.23,7834.88C8358.51,7837.95 8363.16,7842.11 8363.16,7846.44C8363.16,7855.33 8363.16,7866.3 8363.16,7875.19C8363.16,7879.52 8358.51,7883.68 8350.23,7886.75C8341.95,7889.82 8330.72,7891.54 8319.01,7891.54C8309.55,7891.54 8299.84,7891.54 8291.29,7891.54Z"/>
            </g>
            <g id="Drill137" serif:id="Drill" transform="matrix(0.146908,0,0,0.149957,-862.597,-954.117)">
                <circle cx="6735.86" cy="9105.08" r="62.339"/>
            </g>
            <g id="Drill138" serif:id="Drill" transform="matrix(0.146908,0,0,0.149957,-868.987,-977.594)">
                <circle cx="6735.86" cy="9105.08" r="62.339"/>
            </g>
            <g id="Drill139" serif:id="Drill" transform="matrix(0.146908,0,0,0.149957,-870.202,-1001.9)">
                <circle cx="6735.86" cy="9105.08" r="62.339"/>
            </g>
            <g id="Drill140" serif:id="Drill" transform="matrix(0.146908,0,0,0.149957,-866.048,-1025.88)">
                <circle cx="6735.86" cy="9105.08" r="62.339"/>
            </g>
            <g id="Drill141" serif:id="Drill" transform="matrix(0.146908,0,0,0.149957,-856.73,-1048.3)">
                <circle cx="6735.86" cy="9105.08" r="62.339"/>
            </g>
            <g id="Drill142" serif:id="Drill" transform="matrix(0.146908,0,0,0.149957,-842.727,-1068)">
                <circle cx="6735.86" cy="9105.08" r="62.339"/>
            </g>
            <g id="Drill143" serif:id="Drill" transform="matrix(0.146908,0,0,0.149957,-824.805,-1084.04)">
                <circle cx="6735.86" cy="9105.08" r="62.339"/>
            </g>
            <g id="Drill144" serif:id="Drill" transform="matrix(0.146908,0,0,0.149957,-803.854,-1095.64)">
                <circle cx="6735.86" cy="9105.08" r="62.339"/>
            </g>
            <g id="Drill145" serif:id="Drill" transform="matrix(0.110472,-0.0786787,0.0770785,0.112765,-1437.2,160.428)">
                <path d="M8359.2,7832.98C8358.12,7838.38 8360.7,7843.84 8365.55,7846.43C8370.39,7849.03 8376.37,7848.14 8380.26,7844.26C8382.54,7841.98 8384.79,7839.73 8386.94,7837.57C8396.31,7828.2 8411.51,7828.2 8420.88,7837.57C8423.04,7839.73 8425.29,7841.98 8427.57,7844.26C8431.45,7848.14 8437.43,7849.03 8442.28,7846.43C8447.13,7843.84 8449.71,7838.38 8448.63,7832.98C8440.11,7790.38 8426.57,7722.69 8416.62,7672.94C8415.41,7666.89 8410.09,7662.52 8403.91,7662.52C8397.74,7662.52 8392.42,7666.89 8391.2,7672.94C8381.25,7722.69 8367.72,7790.38 8359.2,7832.98Z"/>
            </g>
            <g id="Drill146" serif:id="Drill" transform="matrix(0.10207,-0.089727,0.0879021,0.104189,-1472.3,361.213)">
                <path d="M8359.2,7832.98C8358.12,7838.38 8360.7,7843.84 8365.55,7846.43C8370.39,7849.03 8376.37,7848.14 8380.26,7844.26C8382.54,7841.98 8384.79,7839.73 8386.94,7837.57C8396.31,7828.2 8411.51,7828.2 8420.88,7837.57C8423.04,7839.73 8425.29,7841.98 8427.57,7844.26C8431.45,7848.14 8437.43,7849.03 8442.28,7846.43C8447.13,7843.84 8449.71,7838.38 8448.63,7832.98C8440.11,7790.38 8426.57,7722.69 8416.62,7672.94C8415.41,7666.89 8410.09,7662.52 8403.91,7662.52C8397.74,7662.52 8392.42,7666.89 8391.2,7672.94C8381.25,7722.69 8367.72,7790.38 8359.2,7832.98Z"/>
            </g>
            <g id="Drill147" serif:id="Drill" transform="matrix(0.10207,-0.089727,0.0879021,0.104189,-1466.01,347.201)">
                <path d="M8359.2,7832.98C8358.12,7838.38 8360.7,7843.84 8365.55,7846.43C8370.39,7849.03 8376.37,7848.14 8380.26,7844.26C8382.54,7841.98 8384.79,7839.73 8386.94,7837.57C8396.31,7828.2 8411.51,7828.2 8420.88,7837.57C8423.04,7839.73 8425.29,7841.98 8427.57,7844.26C8431.45,7848.14 8437.43,7849.03 8442.28,7846.43C8447.13,7843.84 8449.71,7838.38 8448.63,7832.98C8440.11,7790.38 8426.57,7722.69 8416.62,7672.94C8415.41,7666.89 8410.09,7662.52 8403.91,7662.52C8397.74,7662.52 8392.42,7666.89 8391.2,7672.94C8381.25,7722.69 8367.72,7790.38 8359.2,7832.98Z"/>
            </g>
            <g id="Drill148" serif:id="Drill" transform="matrix(0.104983,0.0861543,-0.0844019,0.107162,5.00925,-1332.81)">
                <path d="M8359.2,7832.98C8358.12,7838.38 8360.7,7843.84 8365.55,7846.43C8370.39,7849.03 8376.37,7848.14 8380.26,7844.26C8382.54,7841.98 8384.79,7839.73 8386.94,7837.57C8396.31,7828.2 8411.51,7828.2 8420.88,7837.57C8423.04,7839.73 8425.29,7841.98 8427.57,7844.26C8431.45,7848.14 8437.43,7849.03 8442.28,7846.43C8447.13,7843.84 8449.71,7838.38 8448.63,7832.98C8440.11,7790.38 8426.57,7722.69 8416.62,7672.94C8415.41,7666.89 8410.09,7662.52 8403.91,7662.52C8397.74,7662.52 8392.42,7666.89 8391.2,7672.94C8381.25,7722.69 8367.72,7790.38 8359.2,7832.98Z"/>
            </g>
            <g id="Drill149" serif:id="Drill" transform="matrix(0.132683,-0.0237266,0.0232441,0.135438,-1166.16,-661.168)">
                <path d="M8359.2,7832.98C8358.12,7838.38 8360.7,7843.84 8365.55,7846.43C8370.39,7849.03 8376.37,7848.14 8380.26,7844.26C8382.54,7841.98 8384.79,7839.73 8386.94,7837.57C8396.31,7828.2 8411.51,7828.2 8420.88,7837.57C8423.04,7839.73 8425.29,7841.98 8427.57,7844.26C8431.45,7848.14 8437.43,7849.03 8442.28,7846.43C8447.13,7843.84 8449.71,7838.38 8448.63,7832.98C8440.11,7790.38 8426.57,7722.69 8416.62,7672.94C8415.41,7666.89 8410.09,7662.52 8403.91,7662.52C8397.74,7662.52 8392.42,7666.89 8391.2,7672.94C8381.25,7722.69 8367.72,7790.38 8359.2,7832.98Z"/>
            </g>
            <g id="Drill150" serif:id="Drill" transform="matrix(0.230289,0.0719515,-0.0338273,0.11281,-1409.2,-1197.65)">
                <path d="M8363.96,7820.72C8362.57,7828.1 8363.79,7836.5 8366.92,7841.01C8370.05,7845.52 8374.26,7844.94 8377.08,7839.61C8379.07,7835.85 8381.06,7832.09 8383.01,7828.4C8394.87,7806 8412.95,7806 8424.81,7828.4C8426.76,7832.09 8428.76,7835.85 8430.75,7839.61C8433.57,7844.94 8437.77,7845.52 8440.9,7841.01C8444.03,7836.5 8445.26,7828.1 8443.86,7820.72C8432.49,7760.57 8416.52,7676.07 8408.66,7634.5C8407.89,7630.44 8406.01,7627.77 8403.91,7627.77C8401.82,7627.77 8399.93,7630.44 8399.17,7634.5C8391.31,7676.07 8375.33,7760.57 8363.96,7820.72Z"/>
            </g>
            <g id="Drill151" serif:id="Drill" transform="matrix(0.225174,0.0872067,-0.0409993,0.110304,-1398.6,-1358.24)">
                <path d="M8363.96,7820.72C8362.57,7828.1 8363.79,7836.5 8366.92,7841.01C8370.05,7845.52 8374.26,7844.94 8377.08,7839.61C8379.07,7835.85 8381.06,7832.09 8383.01,7828.4C8394.87,7806 8412.95,7806 8424.81,7828.4C8426.76,7832.09 8428.76,7835.85 8430.75,7839.61C8433.57,7844.94 8437.77,7845.52 8440.9,7841.01C8444.03,7836.5 8445.26,7828.1 8443.86,7820.72C8432.49,7760.57 8416.52,7676.07 8408.66,7634.5C8407.89,7630.44 8406.01,7627.77 8403.91,7627.77C8401.82,7627.77 8399.93,7630.44 8399.17,7634.5C8391.31,7676.07 8375.33,7760.57 8363.96,7820.72Z"/>
            </g>
            <g id="Drill152" serif:id="Drill" transform="matrix(0.240836,0,0,0.117977,-1866.05,-722.034)">
                <path d="M8363.96,7820.72C8362.57,7828.1 8363.79,7836.5 8366.92,7841.01C8370.05,7845.52 8374.26,7844.94 8377.08,7839.61C8379.07,7835.85 8381.06,7832.09 8383.01,7828.4C8394.87,7806 8412.95,7806 8424.81,7828.4C8426.76,7832.09 8428.76,7835.85 8430.75,7839.61C8433.57,7844.94 8437.77,7845.52 8440.9,7841.01C8444.03,7836.5 8445.26,7828.1 8443.86,7820.72C8432.49,7760.57 8416.52,7676.07 8408.66,7634.5C8407.89,7630.44 8406.01,7627.77 8403.91,7627.77C8401.82,7627.77 8399.93,7630.44 8399.17,7634.5C8391.31,7676.07 8375.33,7760.57 8363.96,7820.72Z"/>
            </g>
            <g id="Drill153" serif:id="Drill" transform="matrix(0.23236,-0.0646472,0.0303933,0.113824,-2133.3,-126.071)">
                <path d="M8363.96,7820.72C8362.57,7828.1 8363.79,7836.5 8366.92,7841.01C8370.05,7845.52 8374.26,7844.94 8377.08,7839.61C8379.07,7835.85 8381.06,7832.09 8383.01,7828.4C8394.87,7806 8412.95,7806 8424.81,7828.4C8426.76,7832.09 8428.76,7835.85 8430.75,7839.61C8433.57,7844.94 8437.77,7845.52 8440.9,7841.01C8444.03,7836.5 8445.26,7828.1 8443.86,7820.72C8432.49,7760.57 8416.52,7676.07 8408.66,7634.5C8407.89,7630.44 8406.01,7627.77 8403.91,7627.77C8401.82,7627.77 8399.93,7630.44 8399.17,7634.5C8391.31,7676.07 8375.33,7760.57 8363.96,7820.72Z"/>
            </g>
            <g id="Drill154" serif:id="Drill" transform="matrix(0.0470218,0.128851,-0.12623,0.0479978,799.116,-1190.23)">
                <path d="M8359.2,7832.98C8358.12,7838.38 8360.7,7843.84 8365.55,7846.43C8370.39,7849.03 8376.37,7848.14 8380.26,7844.26C8382.54,7841.98 8384.79,7839.73 8386.94,7837.57C8396.31,7828.2 8411.51,7828.2 8420.88,7837.57C8423.04,7839.73 8425.29,7841.98 8427.57,7844.26C8431.45,7848.14 8437.43,7849.03 8442.28,7846.43C8447.13,7843.84 8449.71,7838.38 8448.63,7832.98C8440.11,7790.38 8426.57,7722.69 8416.62,7672.94C8415.41,7666.89 8410.09,7662.52 8403.91,7662.52C8397.74,7662.52 8392.42,7666.89 8391.2,7672.94C8381.25,7722.69 8367.72,7790.38 8359.2,7832.98Z"/>
            </g>
            <g id="Drill155" serif:id="Drill" transform="matrix(0.0948501,0.0976341,-0.0956483,0.0968188,160.584,-1286.63)">
                <path d="M8359.2,7832.98C8358.12,7838.38 8360.7,7843.84 8365.55,7846.43C8370.39,7849.03 8376.37,7848.14 8380.26,7844.26C8382.54,7841.98 8384.79,7839.73 8386.94,7837.57C8396.31,7828.2 8411.51,7828.2 8420.88,7837.57C8423.04,7839.73 8425.29,7841.98 8427.57,7844.26C8431.45,7848.14 8437.43,7849.03 8442.28,7846.43C8447.13,7843.84 8449.71,7838.38 8448.63,7832.98C8440.11,7790.38 8426.57,7722.69 8416.62,7672.94C8415.41,7666.89 8410.09,7662.52 8403.91,7662.52C8397.74,7662.52 8392.42,7666.89 8391.2,7672.94C8381.25,7722.69 8367.72,7790.38 8359.2,7832.98Z"/>
            </g>
            <g id="Drill156" serif:id="Drill" transform="matrix(0.134704,0,0,0.1375,-1033.54,-544.66)">
                <circle cx="8166.95" cy="7333.87" r="33.493"/>
            </g>
            <g id="Drill157" serif:id="Drill" transform="matrix(0.134704,0,0,0.1375,-1051.83,-524.77)">
                <circle cx="8166.95" cy="7333.87" r="33.493"/>
            </g>
            <g id="Drill158" serif:id="Drill" transform="matrix(0.134704,0,0,0.1375,-1000.64,-719.658)">
                <circle cx="8166.95" cy="7333.87" r="33.493"/>
            </g>
            <g id="Drill159" serif:id="Drill" transform="matrix(0.134704,0,0,0.1375,-1016.23,-544.66)">
                <circle cx="8166.95" cy="7333.87" r="33.493"/>
            </g>
            <g id="Drill160" serif:id="Drill" transform="matrix(0.134704,0,0,0.1375,-858.707,-544.66)">
                <circle cx="8166.95" cy="7333.87" r="33.493"/>
            </g>
            <g id="Drill161" serif:id="Drill" transform="matrix(0.134704,0,0,0.1375,-841.123,-544.66)">
                <circle cx="8166.95" cy="7333.87" r="33.493"/>
            </g>
            <g id="Drill162" serif:id="Drill" transform="matrix(0.134704,0,0,0.1375,-972.823,-743.869)">
                <circle cx="8166.95" cy="7333.87" r="33.493"/>
            </g>
            <g id="Drill163" serif:id="Drill" transform="matrix(0.134704,0,0,0.1375,-945.095,-767.739)">
                <circle cx="8166.95" cy="7333.87" r="33.493"/>
            </g>
            <g id="Drill164" serif:id="Drill" transform="matrix(0.134704,0,0,0.1375,-964.704,-793.451)">
                <path d="M8292.09,7265.66L8375.54,7265.66C8394.07,7265.7 8409.03,7280.69 8409.03,7299.15C8409.03,7317.61 8394.07,7332.6 8375.54,7332.64L8292.09,7332.64C8273.6,7332.64 8258.59,7317.64 8258.59,7299.15C8258.59,7280.66 8273.6,7265.66 8292.09,7265.66Z"/>
            </g>
            <g id="Drill165" serif:id="Drill" transform="matrix(0.130957,-0.0322075,0.0315524,0.133675,-1214.66,-478.892)">
                <path d="M8292.09,7265.66L8375.54,7265.66C8394.07,7265.7 8409.03,7280.69 8409.03,7299.15C8409.03,7317.61 8394.07,7332.6 8375.54,7332.64L8292.09,7332.64C8273.6,7332.64 8258.59,7317.64 8258.59,7299.15C8258.59,7280.66 8273.6,7265.66 8292.09,7265.66Z"/>
            </g>
            <g id="_-Curve-2" serif:id="(Curve)" transform="matrix(2.69055e-18,0.0448522,-0.118625,-7.75808e-17,1095.29,208.201)">
                <path d="M8291.29,7891.54C8276.66,7891.54 8264.81,7895.93 8264.81,7901.35C8264.81,7907.53 8264.81,7915.81 8264.81,7923.71C8264.81,7927.74 8258.15,7931.36 8248.03,7932.84C8237.91,7934.32 8226.38,7933.35 8218.96,7930.41C8174.6,7912.81 8108.79,7886.7 8071.68,7871.97C8055.84,7865.69 8055.84,7855.94 8071.68,7849.66C8108.79,7834.93 8174.6,7808.82 8218.96,7791.22C8226.38,7788.28 8237.91,7787.31 8248.03,7788.79C8258.15,7790.27 8264.81,7793.89 8264.81,7797.92C8264.81,7805.82 8264.81,7814.1 8264.81,7820.28C8264.81,7825.7 8276.66,7830.09 8291.29,7830.09C8299.84,7830.09 8309.55,7830.09 8319.01,7830.09C8330.72,7830.09 8341.95,7831.81 8350.23,7834.88C8358.51,7837.95 8363.16,7842.11 8363.16,7846.44C8363.16,7855.33 8363.16,7866.3 8363.16,7875.19C8363.16,7879.52 8358.51,7883.68 8350.23,7886.75C8341.95,7889.82 8330.72,7891.54 8319.01,7891.54C8309.55,7891.54 8299.84,7891.54 8291.29,7891.54Z"/>
            </g>
            <g transform="matrix(-1.13991,-1.42497e-16,2.69981e-16,-2.25032,1182.37,2250.6)">
                <g id="Drill166" serif:id="Drill">
                    <path d="M792.179,771.519C792.179,771.215 791.702,770.968 791.113,770.968C790.525,770.968 790.047,771.215 790.047,771.519L790.047,780.323C790.047,780.627 790.525,780.874 791.113,780.874C791.702,780.874 792.179,780.627 792.179,780.323L792.179,771.519Z"/>
                </g>
            </g>
            <g id="Drill167" serif:id="Drill" transform="matrix(1.65541,0,0,1.68978,-15503.1,-3022.65)">
                <circle cx="9472.33" cy="1887.84" r="0.762"/>
            </g>
            <g id="Drill168" serif:id="Drill" transform="matrix(0.134704,0,0,0.1375,-902.966,-777.558)">
                <circle cx="8166.95" cy="7333.87" r="33.493"/>
            </g>
            <g id="Drill169" serif:id="Drill" transform="matrix(0.134704,0,0,0.1375,-1010.21,-752.188)">
                <circle cx="8166.95" cy="7333.87" r="33.493"/>
            </g>
            <g id="Drill170" serif:id="Drill" transform="matrix(1.65541,0,0,1.68978,-15408.8,-2648.26)">
                <circle cx="9472.33" cy="1887.84" r="0.762"/>
            </g>
            <g id="Drill171" serif:id="Drill" transform="matrix(0.424643,0,0,0.433458,-3242.59,-2868.85)">
                <circle cx="8166.95" cy="7333.87" r="33.493"/>
            </g>
            <g id="Drill172" serif:id="Drill" transform="matrix(0.424643,0,0,0.433458,-3343.97,-2720.04)">
                <circle cx="8166.95" cy="7333.87" r="33.493"/>
            </g>
        </g>
    </g>
</svg>
