<?xml version="1.0" encoding="UTF-8" standalone="no"?>
<!DOCTYPE svg PUBLIC "-//W3C//DTD SVG 1.1//EN" "http://www.w3.org/Graphics/SVG/1.1/DTD/svg11.dtd">
<svg width="1027067px" height="1302084px" version="1.1" xmlns="http://www.w3.org/2000/svg" xmlns:xlink="http://www.w3.org/1999/xlink" xml:space="preserve" xmlns:serif="http://www.serif.com/" style="fill-rule:evenodd;clip-rule:evenodd;stroke-linecap:round;stroke-linejoin:round;stroke-miterlimit:2.613;">
    <g id="IPD">
        <g id="Playfield-Outline---Top-Bottom-WoodWalls-Habitrails-Sticker-Drill-Rout-Plastic-Bevel-Art-Assembly-Rubber-Todo" serif:id="Playfield Outline - Top Bottom WoodWalls Habitrails Sticker Drill Rout Plastic Bevel Art Assembly Rubber Todo">
            <path id="PF-Outline" serif:id="PF Outline" d="M56521.1,108504L495941,108504L495941,1.0197e+06L482383,1.0197e+06L482383,996644C482383,995158 481162,993937 479664,993937L472905,993937L472917,954385C472917,953265 471998,952346 470878,952346C469758,952346 468851,953265 468851,954385L468864,993937L455256,993937C453758,993937 452550,995158 452550,996644L452550,1.08507e+06L254073,1.08507e+06L203350,1.02461e+06L203347,1.02461e+06C202330,1.02341e+06 200783,1.02269e+06 199194,1.02269e+06L174515,1.02269e+06C171528,1.02269e+06 169090,1.02512e+06 169090,1.0281e+06L169090,1.08507e+06L124613,1.08507e+06L84775.1,1.05062e+06L84775.1,1.02845e+06C84775.1,1.02547e+06 82338,1.02303e+06 79349.6,1.02303e+06L56521.1,1.02303e+06L56521.1,108504Z" style="fill:none;stroke:rgb(35,31,32);stroke-width:251.76px;"/>
            <g id="Guidemarks">
                <path d="M98087.9,1.08507e+06L50891.4,1.08507e+06" style="fill:none;stroke:black;stroke-width:251.76px;"/>
                <path d="M499791,1.08507e+06L474604,1.08507e+06" style="fill:none;stroke:black;stroke-width:251.76px;"/>
                <path d="M495977,1.11023e+06L495977,1.07693e+06" style="fill:none;stroke:black;stroke-width:167.84px;stroke-miterlimit:10;"/>
                <path d="M56548.1,1.11065e+06L56548.1,1.07573e+06" style="fill:none;stroke:black;stroke-width:126.96px;stroke-miterlimit:10;"/>
                <g>
                    <path d="M260973,1.10408e+06L264496,1.10408e+06L264496,1.10543e+06L258140,1.10543e+06L261425,1.10145e+06C261748,1.10105e+06 262019,1.10071e+06 262238,1.10042e+06C262457,1.10013e+06 262624,1.09988e+06 262737,1.09969e+06C262971,1.0993e+06 263086,1.09896e+06 263086,1.09865e+06C263086,1.09821e+06 262931,1.09784e+06 262622,1.09754e+06C262310,1.09724e+06 261926,1.09709e+06 261468,1.09709e+06C260512,1.09709e+06 259964,1.09766e+06 259825,1.09879e+06L258403,1.09879e+06C258632,1.0968e+06 259639,1.0958e+06 261425,1.0958e+06C262289,1.0958e+06 263012,1.09608e+06 263595,1.09662e+06C264185,1.09717e+06 264479,1.09785e+06 264479,1.09866e+06C264479,1.09917e+06 264342,1.09968e+06 264067,1.10017e+06C263928,1.10043e+06 263727,1.10074e+06 263458,1.10109e+06C263190,1.10144e+06 262853,1.10186e+06 262444,1.10234e+06L260973,1.10408e+06Z" style="fill-rule:nonzero;"/>
                    <path d="M266111,1.10063e+06C266111,1.09912e+06 266461,1.09792e+06 267164,1.09702e+06C267793,1.09621e+06 268555,1.0958e+06 269450,1.0958e+06C270345,1.0958e+06 271107,1.09621e+06 271738,1.09702e+06C272441,1.09792e+06 272792,1.09915e+06 272792,1.10069e+06C272792,1.10224e+06 272441,1.10346e+06 271738,1.10436e+06C271107,1.10517e+06 270347,1.10558e+06 269456,1.10558e+06C268567,1.10558e+06 267801,1.10517e+06 267164,1.10436e+06C266461,1.10346e+06 266111,1.10222e+06 266111,1.10063e+06ZM267513,1.10064e+06C267513,1.10169e+06 267695,1.10256e+06 268060,1.10326e+06C268424,1.10394e+06 268886,1.10428e+06 269450,1.10428e+06C270011,1.10428e+06 270475,1.10394e+06 270843,1.10326e+06C271211,1.10258e+06 271395,1.10172e+06 271395,1.10069e+06C271395,1.09965e+06 271211,1.0988e+06 270843,1.09811e+06C270475,1.09743e+06 270011,1.09709e+06 269450,1.09709e+06C268896,1.09709e+06 268434,1.09743e+06 268065,1.09811e+06C267697,1.09879e+06 267513,1.09963e+06 267513,1.10064e+06Z" style="fill-rule:nonzero;"/>
                    <path d="M274410,1.10474e+06C274410,1.10451e+06 274494,1.10431e+06 274663,1.10415e+06C274829,1.10398e+06 275031,1.10389e+06 275262,1.10389e+06C275495,1.10389e+06 275697,1.10398e+06 275863,1.10415e+06C276032,1.10431e+06 276116,1.10451e+06 276116,1.10475e+06C276116,1.10498e+06 276032,1.10519e+06 275863,1.10535e+06C275701,1.10552e+06 275499,1.1056e+06 275262,1.1056e+06C275021,1.1056e+06 274819,1.10552e+06 274657,1.10535e+06C274492,1.10519e+06 274410,1.10499e+06 274410,1.10474e+06Z" style="fill-rule:nonzero;"/>
                    <path d="M280345,1.10408e+06L283871,1.10408e+06L283871,1.10543e+06L277513,1.10543e+06L280800,1.10145e+06C281123,1.10105e+06 281393,1.10071e+06 281611,1.10042e+06C281830,1.10013e+06 281997,1.09988e+06 282110,1.09969e+06C282345,1.0993e+06 282461,1.09896e+06 282461,1.09865e+06C282461,1.09821e+06 282306,1.09784e+06 281995,1.09754e+06C281683,1.09724e+06 281299,1.09709e+06 280843,1.09709e+06C279885,1.09709e+06 279338,1.09766e+06 279199,1.09879e+06L277777,1.09879e+06C278006,1.0968e+06 279013,1.0958e+06 280800,1.0958e+06C281662,1.0958e+06 282384,1.09608e+06 282970,1.09662e+06C283558,1.09717e+06 283852,1.09785e+06 283852,1.09866e+06C283852,1.09917e+06 283716,1.09968e+06 283442,1.10017e+06C283303,1.10043e+06 283099,1.10074e+06 282831,1.10109e+06C282565,1.10144e+06 282226,1.10186e+06 281816,1.10234e+06L280345,1.10408e+06Z" style="fill-rule:nonzero;"/>
                    <path d="M291554,1.0973e+06L288635,1.0973e+06L288169,1.09887e+06C288237,1.09886e+06 288304,1.09885e+06 288369,1.09885e+06C288431,1.09884e+06 288490,1.09884e+06 288543,1.09884e+06C289462,1.09884e+06 290216,1.09915e+06 290805,1.09977e+06C291397,1.10039e+06 291695,1.10118e+06 291695,1.10215e+06C291695,1.10314e+06 291360,1.10397e+06 290688,1.10461e+06C290018,1.10526e+06 289174,1.10558e+06 288157,1.10558e+06C286901,1.10558e+06 285912,1.10499e+06 285189,1.10381e+06L286269,1.1029e+06C286566,1.10341e+06 286866,1.10376e+06 287170,1.10397e+06C287471,1.10418e+06 287842,1.10428e+06 288279,1.10428e+06C288850,1.10428e+06 289332,1.10408e+06 289720,1.10368e+06C290108,1.10327e+06 290302,1.10277e+06 290302,1.10218e+06C290302,1.10157e+06 290110,1.10108e+06 289726,1.10069e+06C289342,1.1003e+06 288862,1.1001e+06 288284,1.1001e+06C287644,1.1001e+06 287089,1.10038e+06 286623,1.10094e+06L286151,1.10094e+06L287642,1.09596e+06L291554,1.09596e+06L291554,1.0973e+06Z" style="fill-rule:nonzero;"/>
                    <path d="M294674,1.09977e+06L293632,1.09977e+06L293368,1.09596e+06L294937,1.09596e+06L294674,1.09977e+06ZM296917,1.09977e+06L295875,1.09977e+06L295612,1.09596e+06L297181,1.09596e+06L296917,1.09977e+06Z" style="fill-rule:nonzero;"/>
                </g>
                <path d="M61291.8,1.10906e+06L61291.8,1.1122e+06L57092.5,1.10801e+06L61291.8,1.10381e+06L61291.8,1.10696e+06L490894,1.10696e+06L490894,1.10381e+06L495093,1.10801e+06L490894,1.1122e+06L490894,1.10906e+06L61291.8,1.10906e+06Z" style="fill-opacity:0.713726;"/>
            </g>
        </g>
        <g id="Top-Bottom-WoodWalls-Habitrails-Sticker-Drill-Rout-Plastic-Bevel-Art-Assembly-Rubber-Todo" serif:id="Top Bottom WoodWalls Habitrails Sticker Drill Rout Plastic Bevel Art Assembly Rubber Todo">
            <path d="M89098.8,1.04167e+06L110800,1.04167e+06" style="fill:none;stroke:black;stroke-width:263.97px;stroke-miterlimit:10;"/>
            <path d="M99947.4,1.03082e+06L99947.4,1.05252e+06" style="fill:none;stroke:black;stroke-width:263.97px;stroke-miterlimit:10;"/>
        </g>
        <g id="Top-Bottom-WoodWalls-Habitrails-Sticker-Drill-Rout-Plastic-Bevel-Art-Assembly-Rubber-Todo1" serif:id="Top Bottom WoodWalls Habitrails Sticker Drill Rout Plastic Bevel Art Assembly Rubber Todo">
            <path d="M67396.6,130207L89097.8,130207" style="fill:none;stroke:black;stroke-width:263.97px;stroke-miterlimit:10;"/>
            <path d="M78245.2,119355L78245.2,141057" style="fill:none;stroke:black;stroke-width:263.97px;stroke-miterlimit:10;"/>
        </g>
        <g id="Top-Bottom-WoodWalls-Habitrails-Sticker-Drill-Rout-Plastic-Bevel-Art-Assembly-Rubber-Todo2" serif:id="Top Bottom WoodWalls Habitrails Sticker Drill Rout Plastic Bevel Art Assembly Rubber Todo">
            <path d="M458023,130207L479725,130207" style="fill:none;stroke:black;stroke-width:263.97px;stroke-miterlimit:10;"/>
            <path d="M468872,119355L468872,141057" style="fill:none;stroke:black;stroke-width:263.97px;stroke-miterlimit:10;"/>
        </g>
        <g id="Top-Bottom-WoodWalls-Habitrails-Sticker-Drill-Rout-Plastic-Bevel-Art-Assembly-Rubber-Todo3" serif:id="Top Bottom WoodWalls Habitrails Sticker Drill Rout Plastic Bevel Art Assembly Rubber Todo">
            <path d="M392920,1.04167e+06L414621,1.04167e+06" style="fill:none;stroke:black;stroke-width:263.97px;stroke-miterlimit:10;"/>
            <path d="M403769,1.03082e+06L403769,1.05252e+06" style="fill:none;stroke:black;stroke-width:263.97px;stroke-miterlimit:10;"/>
        </g>
        <g id="Drill">
            <path d="M393587,1.00565e+06C393572,1.00509e+06 393105,1.00465e+06 392541,1.00466e+06C391979,1.00468e+06 391535,1.00514e+06 391550,1.00571e+06C391566,1.00627e+06 392034,1.00671e+06 392596,1.0067e+06C393160,1.00668e+06 393602,1.00622e+06 393587,1.00565e+06" style="fill:rgb(52,94,242);"/>
            <circle cx="432007" cy="933589" r="1186.87" style="fill:rgb(52,94,242);"/>
            <circle cx="452393" cy="968638" r="1186.87" style="fill:rgb(52,94,242);"/>
            <circle cx="420623" cy="989552" r="1186.87" style="fill:rgb(52,94,242);"/>
            <circle cx="392619" cy="1.0057e+06" r="1186.87" style="fill:rgb(52,94,242);"/>
            <circle cx="333061" cy="1.0401e+06" r="1186.87" style="fill:rgb(52,94,242);"/>
            <circle cx="309089" cy="1.05376e+06" r="1186.87" style="fill:rgb(52,94,242);"/>
            <circle cx="214153" cy="1.01622e+06" r="1186.87" style="fill:rgb(52,94,242);"/>
            <circle cx="208249" cy="1.01212e+06" r="1186.87" style="fill:rgb(52,94,242);"/>
        </g>
        <g id="Drill-Rout" serif:id="Drill Rout">
            <g>
                <path d="M464096,1.13611e+06L464096,1.12704e+06L466000,1.12704e+06C466913,1.12704e+06 467634,1.12713e+06 468163,1.12731e+06C468732,1.12748e+06 469247,1.12778e+06 469709,1.12821e+06C470646,1.12906e+06 471114,1.13018e+06 471114,1.13157e+06C471114,1.13297e+06 470627,1.1341e+06 469651,1.13496e+06C469161,1.13539e+06 468648,1.13569e+06 468111,1.13586e+06C467609,1.13603e+06 466898,1.13611e+06 465977,1.13611e+06L464096,1.13611e+06ZM465467,1.13482e+06L466083,1.13482e+06C466699,1.13482e+06 467209,1.13476e+06 467617,1.13463e+06C468024,1.13449e+06 468392,1.13427e+06 468723,1.13398e+06C469395,1.13336e+06 469733,1.13256e+06 469733,1.13157e+06C469733,1.13058e+06 469399,1.12977e+06 468734,1.12915e+06C468133,1.1286e+06 467251,1.12832e+06 466083,1.12832e+06L465467,1.12832e+06L465467,1.13482e+06Z" style="fill-rule:nonzero;"/>
                <path d="M472584,1.13039e+06L473906,1.13039e+06L473906,1.1309e+06C474148,1.13064e+06 474364,1.13047e+06 474552,1.13037e+06C474745,1.13028e+06 474973,1.13023e+06 475234,1.13023e+06C475583,1.13023e+06 475947,1.13034e+06 476329,1.13057e+06L475722,1.13178e+06C475472,1.1316e+06 475226,1.13151e+06 474988,1.13151e+06C474267,1.13151e+06 473906,1.13205e+06 473906,1.13314e+06L473906,1.13611e+06L472584,1.13611e+06L472584,1.13039e+06Z" style="fill-rule:nonzero;"/>
                <path d="M478591,1.13039e+06L478591,1.13611e+06L477267,1.13611e+06L477267,1.13039e+06L478591,1.13039e+06ZM477068,1.12801e+06C477068,1.12777e+06 477153,1.12757e+06 477320,1.12741e+06C477489,1.12724e+06 477692,1.12715e+06 477927,1.12715e+06C478165,1.12715e+06 478370,1.12724e+06 478537,1.12741e+06C478706,1.12757e+06 478790,1.12777e+06 478790,1.12801e+06C478790,1.12825e+06 478706,1.12845e+06 478537,1.12862e+06C478374,1.12879e+06 478171,1.12888e+06 477932,1.12888e+06C477694,1.12888e+06 477489,1.12879e+06 477320,1.12862e+06C477153,1.12845e+06 477068,1.12825e+06 477068,1.12801e+06Z" style="fill-rule:nonzero;"/>
                <rect x="480267" y="1.12618e+06" width="1322.43" height="9927.42"/>
                <rect x="483264" y="1.12618e+06" width="1322.43" height="9927.42"/>
                <path d="M491598,1.12704e+06L491598,1.13482e+06L494266,1.13482e+06L494266,1.13611e+06L490229,1.13611e+06L490229,1.12704e+06L491598,1.12704e+06Z" style="fill-rule:nonzero;"/>
                <path d="M500525,1.13356e+06L496424,1.13356e+06C496458,1.13403e+06 496612,1.1344e+06 496882,1.13468e+06C497153,1.13496e+06 497500,1.13509e+06 497923,1.13509e+06C498251,1.13509e+06 498524,1.13502e+06 498740,1.13486e+06C498952,1.1347e+06 499192,1.13441e+06 499463,1.13399e+06L500580,1.13461e+06C500407,1.13491e+06 500225,1.13516e+06 500033,1.13537e+06C499840,1.13558e+06 499635,1.13575e+06 499416,1.13588e+06C499196,1.13602e+06 498959,1.13612e+06 498704,1.13618e+06C498450,1.13624e+06 498172,1.13627e+06 497876,1.13627e+06C497021,1.13627e+06 496336,1.136e+06 495818,1.13545e+06C495301,1.1349e+06 495042,1.13417e+06 495042,1.13325e+06C495042,1.13235e+06 495294,1.13162e+06 495795,1.13106e+06C496300,1.1305e+06 496971,1.13023e+06 497804,1.13023e+06C498648,1.13023e+06 499314,1.1305e+06 499802,1.13103e+06C500289,1.13156e+06 500533,1.1323e+06 500533,1.13325e+06L500525,1.13356e+06ZM499168,1.13248e+06C498984,1.13177e+06 498539,1.13142e+06 497834,1.13142e+06C497673,1.13142e+06 497523,1.13144e+06 497382,1.13149e+06C497241,1.13154e+06 497111,1.13161e+06 496997,1.13171e+06C496880,1.1318e+06 496783,1.13191e+06 496700,1.13204e+06C496618,1.13217e+06 496556,1.13231e+06 496512,1.13248e+06L499168,1.13248e+06Z" style="fill-rule:nonzero;"/>
                <path d="M507509,1.13598e+06C507509,1.13625e+06 507500,1.13648e+06 507483,1.13669e+06C507464,1.1369e+06 507440,1.13708e+06 507410,1.13723e+06C507314,1.13766e+06 507130,1.13803e+06 506856,1.13834e+06C506340,1.13894e+06 505628,1.13924e+06 504723,1.13924e+06C503958,1.13924e+06 503329,1.13903e+06 502837,1.13862e+06C502326,1.1382e+06 502033,1.13761e+06 501955,1.13686e+06L503282,1.13686e+06C503335,1.13715e+06 503417,1.13736e+06 503536,1.13752e+06C503810,1.13787e+06 504210,1.13805e+06 504734,1.13805e+06C505703,1.13805e+06 506187,1.13746e+06 506187,1.13627e+06L506187,1.13547e+06C505662,1.13601e+06 505057,1.13627e+06 504370,1.13627e+06C503590,1.13627e+06 502952,1.13599e+06 502454,1.13543e+06C501953,1.13486e+06 501701,1.13414e+06 501701,1.13328e+06C501701,1.13245e+06 501934,1.13174e+06 502402,1.13116e+06C502903,1.13054e+06 503566,1.13023e+06 504388,1.13023e+06C505109,1.13023e+06 505709,1.1305e+06 506187,1.13103e+06L506187,1.13039e+06L507509,1.13039e+06L507509,1.13598e+06ZM506240,1.13326e+06C506240,1.1327e+06 506090,1.13226e+06 505793,1.13193e+06C505491,1.13159e+06 505106,1.13141e+06 504634,1.13141e+06C504133,1.13141e+06 503737,1.1316e+06 503448,1.13197e+06C503185,1.13231e+06 503053,1.13274e+06 503053,1.13327e+06C503053,1.13379e+06 503185,1.13421e+06 503448,1.13455e+06C503733,1.13491e+06 504129,1.13509e+06 504634,1.13509e+06C505140,1.13509e+06 505540,1.13491e+06 505834,1.13454e+06C506105,1.13421e+06 506240,1.13378e+06 506240,1.13326e+06Z" style="fill-rule:nonzero;"/>
                <path d="M514392,1.13356e+06L510289,1.13356e+06C510324,1.13403e+06 510477,1.1344e+06 510747,1.13468e+06C511017,1.13496e+06 511365,1.13509e+06 511787,1.13509e+06C512118,1.13509e+06 512390,1.13502e+06 512604,1.13486e+06C512816,1.1347e+06 513057,1.13441e+06 513327,1.13399e+06L514445,1.13461e+06C514272,1.13491e+06 514090,1.13516e+06 513898,1.13537e+06C513707,1.13558e+06 513500,1.13575e+06 513280,1.13588e+06C513061,1.13602e+06 512824,1.13612e+06 512570,1.13618e+06C512315,1.13624e+06 512039,1.13627e+06 511740,1.13627e+06C510886,1.13627e+06 510201,1.136e+06 509684,1.13545e+06C509166,1.1349e+06 508909,1.13417e+06 508909,1.13325e+06C508909,1.13235e+06 509158,1.13162e+06 509660,1.13106e+06C510165,1.1305e+06 510835,1.13023e+06 511671,1.13023e+06C512512,1.13023e+06 513179,1.1305e+06 513669,1.13103e+06C514155,1.13156e+06 514398,1.1323e+06 514398,1.13325e+06L514392,1.13356e+06ZM513034,1.13248e+06C512850,1.13177e+06 512405,1.13142e+06 511699,1.13142e+06C511539,1.13142e+06 511387,1.13144e+06 511247,1.13149e+06C511106,1.13154e+06 510978,1.13161e+06 510862,1.13171e+06C510747,1.1318e+06 510647,1.13191e+06 510565,1.13204e+06C510484,1.13217e+06 510420,1.13231e+06 510377,1.13248e+06L513034,1.13248e+06Z" style="fill-rule:nonzero;"/>
                <path d="M515838,1.13039e+06L517166,1.13039e+06L517166,1.13091e+06C517628,1.13046e+06 518150,1.13023e+06 518730,1.13023e+06C519397,1.13023e+06 519915,1.13044e+06 520287,1.13086e+06C520608,1.13121e+06 520769,1.13179e+06 520769,1.1326e+06L520769,1.13611e+06L519440,1.13611e+06L519440,1.13291e+06C519440,1.13235e+06 519363,1.13196e+06 519205,1.13174e+06C519053,1.13152e+06 518775,1.13141e+06 518371,1.13141e+06C517932,1.13141e+06 517620,1.13156e+06 517436,1.13185e+06C517256,1.13214e+06 517166,1.13264e+06 517166,1.13335e+06L517166,1.13611e+06L515838,1.13611e+06L515838,1.13039e+06Z" style="fill-rule:nonzero;"/>
                <path d="M526659,1.12618e+06L527986,1.12618e+06L527986,1.13611e+06L526659,1.13611e+06L526659,1.13551e+06C526138,1.13602e+06 525547,1.13627e+06 524890,1.13627e+06C524106,1.13627e+06 523455,1.13599e+06 522938,1.13542e+06C522424,1.13483e+06 522168,1.1341e+06 522168,1.13323e+06C522168,1.13238e+06 522424,1.13166e+06 522938,1.13109e+06C523447,1.13051e+06 524088,1.13023e+06 524860,1.13023e+06C525530,1.13023e+06 526129,1.1305e+06 526659,1.13105e+06L526659,1.12618e+06ZM523521,1.13323e+06C523521,1.13378e+06 523667,1.13423e+06 523960,1.13457e+06C524262,1.13492e+06 524642,1.13509e+06 525102,1.13509e+06C525590,1.13509e+06 525986,1.13492e+06 526289,1.13459e+06C526591,1.13424e+06 526741,1.1338e+06 526741,1.13326e+06C526741,1.13272e+06 526591,1.13228e+06 526289,1.13193e+06C525986,1.13159e+06 525594,1.13142e+06 525113,1.13142e+06C524659,1.13142e+06 524277,1.13159e+06 523973,1.13194e+06C523671,1.13229e+06 523521,1.13272e+06 523521,1.13323e+06Z" style="fill-rule:nonzero;"/>
            </g>
            <g>
                <path d="M467745,1.15412e+06L467745,1.15013e+06L468345,1.15013e+06C468612,1.15013e+06 468825,1.15015e+06 468983,1.15019e+06C469144,1.15023e+06 469279,1.1503e+06 469390,1.1504e+06C469502,1.1505e+06 469591,1.15063e+06 469656,1.15078e+06C469723,1.15093e+06 469757,1.15109e+06 469757,1.15124e+06C469757,1.15153e+06 469647,1.15177e+06 469428,1.15197e+06C469640,1.15204e+06 469808,1.15217e+06 469931,1.15235e+06C470054,1.15253e+06 470116,1.15274e+06 470116,1.15298e+06C470116,1.15329e+06 470006,1.15355e+06 469785,1.15377e+06C469653,1.1539e+06 469503,1.15399e+06 469338,1.15405e+06C469157,1.15409e+06 468930,1.15412e+06 468658,1.15412e+06L467745,1.15412e+06ZM468347,1.15184e+06L468536,1.15184e+06C468760,1.15184e+06 468925,1.15179e+06 469029,1.15169e+06C469133,1.15159e+06 469185,1.15145e+06 469185,1.15125e+06C469185,1.15107e+06 469131,1.15092e+06 469025,1.15083e+06C468918,1.15073e+06 468763,1.15068e+06 468560,1.15068e+06L468347,1.15068e+06L468347,1.15184e+06ZM468347,1.15355e+06L468720,1.15355e+06C468992,1.15355e+06 469193,1.1535e+06 469320,1.15339e+06C469455,1.15328e+06 469521,1.15313e+06 469521,1.15295e+06C469521,1.15278e+06 469457,1.15264e+06 469327,1.15252e+06C469202,1.1524e+06 468977,1.15235e+06 468653,1.15235e+06L468347,1.15235e+06L468347,1.15355e+06Z" style="fill-rule:nonzero;"/>
                <path d="M470647,1.15284e+06C470647,1.15248e+06 470777,1.15217e+06 471037,1.15191e+06C471297,1.15166e+06 471615,1.15153e+06 471989,1.15153e+06C472365,1.15153e+06 472684,1.15166e+06 472946,1.15192e+06C473205,1.15217e+06 473334,1.15249e+06 473334,1.15286e+06C473334,1.15324e+06 473204,1.15356e+06 472943,1.15381e+06C472682,1.15407e+06 472360,1.15419e+06 471979,1.15419e+06C471601,1.15419e+06 471285,1.15406e+06 471030,1.1538e+06C470774,1.15355e+06 470647,1.15323e+06 470647,1.15284e+06ZM471242,1.15285e+06C471242,1.1531e+06 471309,1.1533e+06 471444,1.15345e+06C471582,1.1536e+06 471763,1.15367e+06 471989,1.15367e+06C472216,1.15367e+06 472399,1.1536e+06 472535,1.15345e+06C472671,1.15331e+06 472739,1.15311e+06 472739,1.15287e+06C472739,1.15262e+06 472671,1.15243e+06 472535,1.15228e+06C472397,1.15213e+06 472215,1.15206e+06 471989,1.15206e+06C471767,1.15206e+06 471587,1.15213e+06 471449,1.15228e+06C471311,1.15243e+06 471242,1.15262e+06 471242,1.15285e+06Z" style="fill-rule:nonzero;"/>
                <path d="M474580,1.15214e+06L474580,1.15412e+06L473999,1.15412e+06L473999,1.15214e+06L473751,1.15214e+06L473751,1.1516e+06L473999,1.1516e+06L473999,1.15068e+06L474580,1.15068e+06L474580,1.1516e+06L475033,1.1516e+06L475033,1.15214e+06L474580,1.15214e+06Z" style="fill-rule:nonzero;"/>
                <path d="M476029,1.15214e+06L476029,1.15412e+06L475447,1.15412e+06L475447,1.15214e+06L475199,1.15214e+06L475199,1.1516e+06L475447,1.1516e+06L475447,1.15068e+06L476029,1.15068e+06L476029,1.1516e+06L476482,1.1516e+06L476482,1.15214e+06L476029,1.15214e+06Z" style="fill-rule:nonzero;"/>
                <path d="M476794,1.15284e+06C476794,1.15248e+06 476925,1.15217e+06 477185,1.15191e+06C477446,1.15166e+06 477763,1.15153e+06 478137,1.15153e+06C478513,1.15153e+06 478832,1.15166e+06 479094,1.15192e+06C479353,1.15217e+06 479482,1.15249e+06 479482,1.15286e+06C479482,1.15324e+06 479352,1.15356e+06 479092,1.15381e+06C478830,1.15407e+06 478508,1.15419e+06 478126,1.15419e+06C477749,1.15419e+06 477433,1.15406e+06 477178,1.1538e+06C476922,1.15355e+06 476794,1.15323e+06 476794,1.15284e+06ZM477389,1.15285e+06C477389,1.1531e+06 477457,1.1533e+06 477591,1.15345e+06C477729,1.1536e+06 477911,1.15367e+06 478137,1.15367e+06C478364,1.15367e+06 478546,1.1536e+06 478683,1.15345e+06C478819,1.15331e+06 478888,1.15311e+06 478888,1.15287e+06C478888,1.15262e+06 478819,1.15243e+06 478683,1.15228e+06C478545,1.15213e+06 478363,1.15206e+06 478137,1.15206e+06C477915,1.15206e+06 477735,1.15213e+06 477597,1.15228e+06C477459,1.15243e+06 477389,1.15262e+06 477389,1.15285e+06Z" style="fill-rule:nonzero;"/>
                <path d="M480097,1.1516e+06L480679,1.1516e+06L480679,1.15183e+06C480791,1.15172e+06 480887,1.15164e+06 480967,1.1516e+06C481051,1.15155e+06 481158,1.15153e+06 481285,1.15153e+06C481569,1.15153e+06 481794,1.15166e+06 481960,1.1519e+06C482143,1.15166e+06 482391,1.15153e+06 482702,1.15153e+06C483270,1.15153e+06 483553,1.15188e+06 483553,1.15256e+06L483553,1.15412e+06L482969,1.15412e+06L482969,1.15272e+06C482969,1.15248e+06 482939,1.15231e+06 482881,1.15221e+06C482820,1.15211e+06 482721,1.15206e+06 482583,1.15206e+06C482423,1.15206e+06 482306,1.15212e+06 482233,1.15224e+06C482159,1.15236e+06 482123,1.15255e+06 482123,1.15282e+06L482123,1.15412e+06L481539,1.15412e+06L481539,1.15273e+06C481539,1.15228e+06 481409,1.15206e+06 481150,1.15206e+06C480987,1.15206e+06 480868,1.15212e+06 480792,1.15224e+06C480717,1.15236e+06 480679,1.15256e+06 480679,1.15282e+06L480679,1.15412e+06L480097,1.15412e+06L480097,1.1516e+06Z" style="fill-rule:nonzero;"/>
                <path d="M485834,1.15211e+06C485834,1.15154e+06 486041,1.15106e+06 486453,1.15066e+06C486863,1.15025e+06 487356,1.15005e+06 487932,1.15005e+06C488501,1.15005e+06 488989,1.15026e+06 489396,1.15066e+06C489805,1.15107e+06 490009,1.15156e+06 490009,1.15213e+06C490009,1.1527e+06 489804,1.15319e+06 489393,1.15359e+06C488982,1.15399e+06 488484,1.15419e+06 487901,1.15419e+06C487385,1.15419e+06 486922,1.15401e+06 486512,1.15366e+06C486060,1.15326e+06 485834,1.15275e+06 485834,1.15211e+06ZM486442,1.15211e+06C486442,1.15255e+06 486590,1.15292e+06 486887,1.1532e+06C487182,1.15349e+06 487522,1.15363e+06 487909,1.15363e+06C488328,1.15363e+06 488681,1.15348e+06 488969,1.15319e+06C489257,1.1529e+06 489401,1.15254e+06 489401,1.15212e+06C489401,1.1517e+06 489258,1.15134e+06 488974,1.15105e+06C488692,1.15076e+06 488341,1.15062e+06 487924,1.15062e+06C487509,1.15062e+06 487158,1.15076e+06 486871,1.15105e+06C486585,1.15134e+06 486442,1.15169e+06 486442,1.15211e+06Z" style="fill-rule:nonzero;"/>
                <path d="M490656,1.1516e+06L491240,1.1516e+06L491240,1.15183e+06C491443,1.15163e+06 491673,1.15153e+06 491928,1.15153e+06C492221,1.15153e+06 492450,1.15162e+06 492614,1.15181e+06C492755,1.15196e+06 492826,1.15222e+06 492826,1.15258e+06L492826,1.15412e+06L492241,1.15412e+06L492241,1.15271e+06C492241,1.15247e+06 492206,1.15229e+06 492138,1.1522e+06C492071,1.1521e+06 491948,1.15205e+06 491771,1.15205e+06C491577,1.15205e+06 491440,1.15212e+06 491359,1.15224e+06C491280,1.15237e+06 491240,1.15259e+06 491240,1.1529e+06L491240,1.15412e+06L490656,1.15412e+06L490656,1.1516e+06Z" style="fill-rule:nonzero;"/>
                <rect x="493561" y="1.14975e+06" width="581.93" height="4368.52"/>
                <path d="M495720,1.15365e+06L494587,1.1516e+06L495262,1.1516e+06L496033,1.15305e+06L496752,1.1516e+06L497409,1.1516e+06L495402,1.15549e+06L494737,1.15549e+06L495720,1.15365e+06Z" style="fill-rule:nonzero;"/>
                <path d="M497936,1.15337e+06L498453,1.15357e+06L497716,1.15505e+06L497323,1.15489e+06L497936,1.15337e+06Z" style="fill-rule:nonzero;"/>
                <path d="M500704,1.1521e+06C500704,1.15146e+06 500852,1.15095e+06 501149,1.15057e+06C501414,1.15023e+06 501736,1.15006e+06 502113,1.15006e+06C502491,1.15006e+06 502813,1.15023e+06 503079,1.15057e+06C503375,1.15095e+06 503523,1.15147e+06 503523,1.15212e+06C503523,1.15278e+06 503375,1.15329e+06 503079,1.15367e+06C502813,1.15401e+06 502492,1.15418e+06 502116,1.15418e+06C501740,1.15418e+06 501418,1.15401e+06 501149,1.15367e+06C500852,1.15329e+06 500704,1.15277e+06 500704,1.1521e+06ZM501296,1.1521e+06C501296,1.15254e+06 501373,1.15291e+06 501527,1.1532e+06C501680,1.15349e+06 501875,1.15364e+06 502113,1.15364e+06C502350,1.15364e+06 502546,1.15349e+06 502701,1.1532e+06C502856,1.15292e+06 502933,1.15256e+06 502933,1.15212e+06C502933,1.15168e+06 502856,1.15132e+06 502701,1.15103e+06C502546,1.15075e+06 502350,1.15061e+06 502113,1.15061e+06C501879,1.15061e+06 501684,1.15075e+06 501529,1.15103e+06C501374,1.15132e+06 501296,1.15167e+06 501296,1.1521e+06Z" style="fill-rule:nonzero;"/>
                <path d="M504206,1.15383e+06C504206,1.15373e+06 504241,1.15365e+06 504312,1.15358e+06C504383,1.15351e+06 504467,1.15347e+06 504565,1.15347e+06C504664,1.15347e+06 504748,1.15351e+06 504819,1.15358e+06C504890,1.15365e+06 504925,1.15373e+06 504925,1.15383e+06C504925,1.15393e+06 504890,1.15402e+06 504819,1.15409e+06C504750,1.15416e+06 504665,1.15419e+06 504565,1.15419e+06C504464,1.15419e+06 504379,1.15416e+06 504309,1.15409e+06C504241,1.15402e+06 504206,1.15393e+06 504206,1.15383e+06Z" style="fill-rule:nonzero;"/>
                <path d="M507996,1.15301e+06L508420,1.15301e+06L508420,1.15355e+06L507996,1.15355e+06L507996,1.15412e+06L507392,1.15412e+06L507392,1.15355e+06L505432,1.15355e+06L507996,1.14983e+06L507996,1.15301e+06ZM507392,1.15301e+06L507392,1.15167e+06L506472,1.15301e+06L507392,1.15301e+06Z" style="fill-rule:nonzero;"/>
                <path d="M509485,1.15173e+06L509045,1.15173e+06L508934,1.15013e+06L509596,1.15013e+06L509485,1.15173e+06ZM510432,1.15173e+06L509992,1.15173e+06L509881,1.15013e+06L510543,1.15013e+06L510432,1.15173e+06Z" style="fill-rule:nonzero;"/>
                <path d="M514683,1.14975e+06L515268,1.14975e+06L515268,1.15412e+06L514683,1.15412e+06L514683,1.15386e+06C514454,1.15408e+06 514195,1.15419e+06 513905,1.15419e+06C513560,1.15419e+06 513274,1.15407e+06 513046,1.15381e+06C512821,1.15356e+06 512708,1.15324e+06 512708,1.15285e+06C512708,1.15248e+06 512821,1.15216e+06 513046,1.15191e+06C513271,1.15166e+06 513553,1.15153e+06 513893,1.15153e+06C514188,1.15153e+06 514451,1.15165e+06 514683,1.15189e+06L514683,1.14975e+06ZM513303,1.15285e+06C513303,1.15309e+06 513367,1.15329e+06 513497,1.15344e+06C513630,1.1536e+06 513797,1.15367e+06 513998,1.15367e+06C514214,1.15367e+06 514388,1.1536e+06 514521,1.15345e+06C514654,1.1533e+06 514720,1.1531e+06 514720,1.15287e+06C514720,1.15263e+06 514654,1.15243e+06 514521,1.15228e+06C514388,1.15213e+06 514216,1.15206e+06 514003,1.15206e+06C513803,1.15206e+06 513636,1.15213e+06 513502,1.15228e+06C513369,1.15244e+06 513303,1.15263e+06 513303,1.15285e+06Z" style="fill-rule:nonzero;"/>
                <path d="M518297,1.153e+06L516491,1.153e+06C516507,1.1532e+06 516574,1.15337e+06 516693,1.15349e+06C516812,1.15361e+06 516965,1.15367e+06 517151,1.15367e+06C517296,1.15367e+06 517416,1.15364e+06 517510,1.15357e+06C517604,1.1535e+06 517710,1.15337e+06 517829,1.15319e+06L518320,1.15346e+06C518244,1.15359e+06 518164,1.1537e+06 518080,1.15379e+06C517995,1.15389e+06 517905,1.15396e+06 517808,1.15402e+06C517712,1.15408e+06 517607,1.15412e+06 517496,1.15415e+06C517383,1.15418e+06 517262,1.15419e+06 517130,1.15419e+06C516755,1.15419e+06 516453,1.15407e+06 516225,1.15383e+06C515997,1.15359e+06 515884,1.15327e+06 515884,1.15286e+06C515884,1.15247e+06 515994,1.15214e+06 516215,1.1519e+06C516438,1.15165e+06 516732,1.15153e+06 517100,1.15153e+06C517470,1.15153e+06 517763,1.15165e+06 517979,1.15189e+06C518193,1.15212e+06 518300,1.15245e+06 518300,1.15286e+06L518297,1.153e+06ZM517700,1.15252e+06C517619,1.15221e+06 517423,1.15206e+06 517112,1.15206e+06C517042,1.15206e+06 516976,1.15207e+06 516913,1.15209e+06C516851,1.15211e+06 516795,1.15214e+06 516744,1.15218e+06C516693,1.15222e+06 516649,1.15227e+06 516613,1.15233e+06C516577,1.15239e+06 516549,1.15245e+06 516530,1.15252e+06L517700,1.15252e+06Z" style="fill-rule:nonzero;"/>
                <path d="M521227,1.153e+06L519422,1.153e+06C519437,1.1532e+06 519505,1.15337e+06 519624,1.15349e+06C519743,1.15361e+06 519895,1.15367e+06 520082,1.15367e+06C520227,1.15367e+06 520347,1.15364e+06 520442,1.15357e+06C520534,1.1535e+06 520641,1.15337e+06 520760,1.15319e+06L521251,1.15346e+06C521175,1.15359e+06 521094,1.1537e+06 521010,1.15379e+06C520926,1.15389e+06 520835,1.15396e+06 520739,1.15402e+06C520642,1.15408e+06 520537,1.15412e+06 520426,1.15415e+06C520313,1.15418e+06 520192,1.15419e+06 520061,1.15419e+06C519685,1.15419e+06 519384,1.15407e+06 519156,1.15383e+06C518928,1.15359e+06 518814,1.15327e+06 518814,1.15286e+06C518814,1.15247e+06 518924,1.15214e+06 519146,1.1519e+06C519368,1.15165e+06 519662,1.15153e+06 520030,1.15153e+06C520401,1.15153e+06 520694,1.15165e+06 520909,1.15189e+06C521123,1.15212e+06 521230,1.15245e+06 521230,1.15286e+06L521227,1.153e+06ZM520630,1.15252e+06C520549,1.15221e+06 520353,1.15206e+06 520043,1.15206e+06C519972,1.15206e+06 519906,1.15207e+06 519844,1.15209e+06C519781,1.15211e+06 519725,1.15214e+06 519675,1.15218e+06C519623,1.15222e+06 519580,1.15227e+06 519544,1.15233e+06C519508,1.15239e+06 519480,1.15245e+06 519461,1.15252e+06L520630,1.15252e+06Z" style="fill-rule:nonzero;"/>
                <path d="M522445,1.15549e+06L521864,1.15549e+06L521864,1.1516e+06L522445,1.1516e+06L522445,1.15188e+06C522675,1.15165e+06 522936,1.15153e+06 523227,1.15153e+06C523573,1.15153e+06 523859,1.15166e+06 524083,1.15191e+06C524311,1.15217e+06 524425,1.15249e+06 524425,1.15287e+06C524425,1.15325e+06 524311,1.15357e+06 524086,1.15382e+06C523861,1.15407e+06 523578,1.15419e+06 523237,1.15419e+06C522942,1.15419e+06 522679,1.15407e+06 522445,1.15384e+06L522445,1.15549e+06ZM523830,1.15288e+06C523830,1.15263e+06 523764,1.15244e+06 523633,1.15229e+06C523500,1.15213e+06 523333,1.15206e+06 523131,1.15206e+06C522917,1.15206e+06 522744,1.15213e+06 522612,1.15228e+06C522479,1.15243e+06 522412,1.15262e+06 522412,1.15286e+06C522412,1.1531e+06 522479,1.15329e+06 522612,1.15345e+06C522742,1.1536e+06 522915,1.15367e+06 523129,1.15367e+06C523331,1.15367e+06 523497,1.1536e+06 523628,1.15345e+06C523762,1.15329e+06 523830,1.1531e+06 523830,1.15288e+06Z" style="fill-rule:nonzero;"/>
            </g>
            <path d="M466283,1.15212e+06C466268,1.15156e+06 465801,1.15112e+06 465237,1.15113e+06C464675,1.15115e+06 464231,1.15162e+06 464246,1.15218e+06C464261,1.15274e+06 464730,1.15319e+06 465292,1.15317e+06C465856,1.15316e+06 466298,1.15269e+06 466283,1.15212e+06" style="fill:rgb(251,0,85);fill-rule:nonzero;"/>
            <g>
                <path d="M468846,1.15754e+06L468846,1.16097e+06L468244,1.16097e+06L468244,1.15754e+06L467326,1.15754e+06L467326,1.15698e+06L469762,1.15698e+06L469762,1.15754e+06L468846,1.15754e+06Z" style="fill-rule:nonzero;"/>
                <path d="M469832,1.15969e+06C469832,1.15933e+06 469962,1.15902e+06 470222,1.15876e+06C470483,1.15851e+06 470800,1.15838e+06 471174,1.15838e+06C471550,1.15838e+06 471869,1.15851e+06 472131,1.15877e+06C472390,1.15902e+06 472520,1.15934e+06 472520,1.15971e+06C472520,1.16009e+06 472389,1.16041e+06 472129,1.16066e+06C471867,1.16092e+06 471545,1.16104e+06 471164,1.16104e+06C470787,1.16104e+06 470470,1.16091e+06 470215,1.16066e+06C469959,1.1604e+06 469832,1.16008e+06 469832,1.15969e+06ZM470427,1.1597e+06C470427,1.15996e+06 470494,1.16015e+06 470629,1.1603e+06C470767,1.16045e+06 470949,1.16052e+06 471174,1.16052e+06C471402,1.16052e+06 471584,1.16045e+06 471720,1.1603e+06C471856,1.16016e+06 471925,1.15996e+06 471925,1.15972e+06C471925,1.15947e+06 471856,1.15928e+06 471720,1.15913e+06C471582,1.15898e+06 471401,1.15891e+06 471174,1.15891e+06C470952,1.15891e+06 470772,1.15898e+06 470634,1.15913e+06C470496,1.15928e+06 470427,1.15947e+06 470427,1.1597e+06Z" style="fill-rule:nonzero;"/>
                <path d="M473717,1.16234e+06L473135,1.16234e+06L473135,1.15845e+06L473717,1.15845e+06L473717,1.15873e+06C473946,1.1585e+06 474206,1.15838e+06 474498,1.15838e+06C474845,1.15838e+06 475130,1.15851e+06 475354,1.15876e+06C475582,1.15902e+06 475695,1.15934e+06 475695,1.15972e+06C475695,1.1601e+06 475582,1.16042e+06 475356,1.16067e+06C475133,1.16092e+06 474850,1.16104e+06 474509,1.16104e+06C474214,1.16104e+06 473950,1.16093e+06 473717,1.16069e+06L473717,1.16234e+06ZM475100,1.15973e+06C475100,1.15949e+06 475035,1.15929e+06 474904,1.15914e+06C474771,1.15898e+06 474604,1.15891e+06 474402,1.15891e+06C474189,1.15891e+06 474015,1.15898e+06 473882,1.15913e+06C473750,1.15928e+06 473683,1.15947e+06 473683,1.15971e+06C473683,1.15995e+06 473750,1.16014e+06 473882,1.1603e+06C474014,1.16045e+06 474185,1.16052e+06 474400,1.16052e+06C474601,1.16052e+06 474768,1.16045e+06 474899,1.1603e+06C475033,1.16014e+06 475100,1.15995e+06 475100,1.15973e+06Z" style="fill-rule:nonzero;"/>
                <path d="M477858,1.15896e+06C477858,1.15839e+06 478064,1.15791e+06 478476,1.15751e+06C478887,1.1571e+06 479379,1.1569e+06 479955,1.1569e+06C480525,1.1569e+06 481012,1.15711e+06 481420,1.15751e+06C481828,1.15792e+06 482033,1.15841e+06 482033,1.15898e+06C482033,1.15955e+06 481827,1.16004e+06 481417,1.16044e+06C481005,1.16084e+06 480507,1.16104e+06 479925,1.16104e+06C479409,1.16104e+06 478946,1.16086e+06 478536,1.16051e+06C478083,1.16011e+06 477858,1.1596e+06 477858,1.15896e+06ZM478465,1.15896e+06C478465,1.15941e+06 478614,1.15977e+06 478911,1.16005e+06C479205,1.16034e+06 479546,1.16048e+06 479932,1.16048e+06C480351,1.16048e+06 480705,1.16033e+06 480992,1.16004e+06C481281,1.15975e+06 481424,1.1594e+06 481424,1.15897e+06C481424,1.15855e+06 481282,1.15819e+06 480997,1.1579e+06C480715,1.15761e+06 480365,1.15747e+06 479948,1.15747e+06C479532,1.15747e+06 479181,1.15761e+06 478895,1.1579e+06C478609,1.15819e+06 478465,1.15854e+06 478465,1.15896e+06Z" style="fill-rule:nonzero;"/>
                <path d="M482679,1.15845e+06L483263,1.15845e+06L483263,1.15868e+06C483467,1.15848e+06 483696,1.15838e+06 483952,1.15838e+06C484245,1.15838e+06 484473,1.15847e+06 484637,1.15866e+06C484778,1.15882e+06 484849,1.15907e+06 484849,1.15943e+06L484849,1.16097e+06L484265,1.16097e+06L484265,1.15956e+06C484265,1.15932e+06 484230,1.15914e+06 484161,1.15905e+06C484094,1.15895e+06 483971,1.1589e+06 483794,1.1589e+06C483600,1.1589e+06 483463,1.15897e+06 483382,1.1591e+06C483303,1.15922e+06 483263,1.15944e+06 483263,1.15976e+06L483263,1.16097e+06L482679,1.16097e+06L482679,1.15845e+06Z" style="fill-rule:nonzero;"/>
                <rect x="485584" y="1.1566e+06" width="581.93" height="4368.52"/>
                <path d="M487743,1.1605e+06L486610,1.15845e+06L487285,1.15845e+06L488056,1.1599e+06L488775,1.15845e+06L489432,1.15845e+06L487425,1.16234e+06L486760,1.16234e+06L487743,1.1605e+06Z" style="fill-rule:nonzero;"/>
                <path d="M489960,1.16022e+06L490477,1.16043e+06L489740,1.1619e+06L489347,1.16174e+06L489960,1.16022e+06Z" style="fill-rule:nonzero;"/>
                <path d="M492728,1.15895e+06C492728,1.15831e+06 492875,1.1578e+06 493172,1.15743e+06C493437,1.15708e+06 493760,1.15691e+06 494137,1.15691e+06C494514,1.15691e+06 494836,1.15708e+06 495102,1.15743e+06C495398,1.1578e+06 495546,1.15832e+06 495546,1.15897e+06C495546,1.15963e+06 495398,1.16014e+06 495102,1.16052e+06C494836,1.16086e+06 494515,1.16104e+06 494140,1.16104e+06C493764,1.16104e+06 493441,1.16086e+06 493172,1.16052e+06C492875,1.16014e+06 492728,1.15962e+06 492728,1.15895e+06ZM493319,1.15895e+06C493319,1.15939e+06 493396,1.15976e+06 493550,1.16006e+06C493704,1.16034e+06 493899,1.16049e+06 494137,1.16049e+06C494373,1.16049e+06 494569,1.16034e+06 494724,1.16006e+06C494879,1.15977e+06 494957,1.15941e+06 494957,1.15897e+06C494957,1.15854e+06 494879,1.15817e+06 494724,1.15789e+06C494569,1.1576e+06 494373,1.15746e+06 494137,1.15746e+06C493903,1.15746e+06 493708,1.1576e+06 493552,1.15789e+06C493397,1.15817e+06 493319,1.15853e+06 493319,1.15895e+06Z" style="fill-rule:nonzero;"/>
                <path d="M496229,1.16068e+06C496229,1.16058e+06 496264,1.1605e+06 496336,1.16043e+06C496406,1.16036e+06 496491,1.16032e+06 496589,1.16032e+06C496688,1.16032e+06 496772,1.16036e+06 496842,1.16043e+06C496913,1.1605e+06 496949,1.16059e+06 496949,1.16068e+06C496949,1.16078e+06 496913,1.16087e+06 496842,1.16094e+06C496773,1.16101e+06 496689,1.16104e+06 496589,1.16104e+06C496488,1.16104e+06 496402,1.16101e+06 496333,1.16094e+06C496264,1.16087e+06 496229,1.16078e+06 496229,1.16068e+06Z" style="fill-rule:nonzero;"/>
                <path d="M500019,1.15986e+06L500443,1.15986e+06L500443,1.1604e+06L500019,1.1604e+06L500019,1.16097e+06L499416,1.16097e+06L499416,1.1604e+06L497455,1.1604e+06L500019,1.15668e+06L500019,1.15986e+06ZM499416,1.15986e+06L499416,1.15852e+06L498495,1.15986e+06L499416,1.15986e+06Z" style="fill-rule:nonzero;"/>
                <path d="M501509,1.15858e+06L501069,1.15858e+06L500957,1.15698e+06L501619,1.15698e+06L501509,1.15858e+06ZM502455,1.15858e+06L502015,1.15858e+06L501904,1.15698e+06L502566,1.15698e+06L502455,1.15858e+06Z" style="fill-rule:nonzero;"/>
                <path d="M506707,1.1566e+06L507292,1.1566e+06L507292,1.16097e+06L506707,1.16097e+06L506707,1.16071e+06C506478,1.16093e+06 506218,1.16104e+06 505929,1.16104e+06C505583,1.16104e+06 505297,1.16092e+06 505070,1.16067e+06C504844,1.16041e+06 504731,1.16009e+06 504731,1.1597e+06C504731,1.15933e+06 504844,1.15901e+06 505070,1.15876e+06C505294,1.15851e+06 505576,1.15838e+06 505916,1.15838e+06C506211,1.15838e+06 506474,1.1585e+06 506707,1.15874e+06L506707,1.1566e+06ZM505326,1.1597e+06C505326,1.15994e+06 505391,1.16014e+06 505520,1.16029e+06C505653,1.16045e+06 505820,1.16052e+06 506021,1.16052e+06C506237,1.16052e+06 506411,1.16045e+06 506544,1.1603e+06C506677,1.16015e+06 506744,1.15995e+06 506744,1.15972e+06C506744,1.15948e+06 506677,1.15929e+06 506544,1.15913e+06C506411,1.15898e+06 506239,1.15891e+06 506027,1.15891e+06C505827,1.15891e+06 505659,1.15898e+06 505525,1.15913e+06C505393,1.15929e+06 505326,1.15948e+06 505326,1.1597e+06Z" style="fill-rule:nonzero;"/>
                <path d="M510320,1.15985e+06L508515,1.15985e+06C508530,1.16006e+06 508598,1.16022e+06 508717,1.16034e+06C508836,1.16046e+06 508988,1.16052e+06 509175,1.16052e+06C509319,1.16052e+06 509439,1.16049e+06 509534,1.16042e+06C509628,1.16035e+06 509733,1.16022e+06 509852,1.16004e+06L510344,1.16031e+06C510268,1.16044e+06 510188,1.16055e+06 510103,1.16064e+06C510019,1.16074e+06 509928,1.16081e+06 509832,1.16087e+06C509735,1.16093e+06 509631,1.16097e+06 509519,1.161e+06C509406,1.16103e+06 509285,1.16104e+06 509154,1.16104e+06C508778,1.16104e+06 508477,1.16092e+06 508248,1.16068e+06C508021,1.16044e+06 507907,1.16012e+06 507907,1.15971e+06C507907,1.15932e+06 508018,1.15899e+06 508239,1.15875e+06C508461,1.1585e+06 508756,1.15838e+06 509123,1.15838e+06C509494,1.15838e+06 509787,1.1585e+06 510002,1.15874e+06C510216,1.15897e+06 510323,1.1593e+06 510323,1.15971e+06L510320,1.15985e+06ZM509723,1.15937e+06C509642,1.15906e+06 509446,1.15891e+06 509136,1.15891e+06C509065,1.15891e+06 508999,1.15892e+06 508937,1.15894e+06C508875,1.15896e+06 508818,1.15899e+06 508767,1.15903e+06C508716,1.15907e+06 508672,1.15912e+06 508637,1.15918e+06C508600,1.15924e+06 508573,1.1593e+06 508554,1.15937e+06L509723,1.15937e+06Z" style="fill-rule:nonzero;"/>
                <path d="M513251,1.15985e+06L511446,1.15985e+06C511461,1.16006e+06 511528,1.16022e+06 511647,1.16034e+06C511766,1.16046e+06 511919,1.16052e+06 512105,1.16052e+06C512250,1.16052e+06 512370,1.16049e+06 512465,1.16042e+06C512558,1.16035e+06 512664,1.16022e+06 512783,1.16004e+06L513274,1.16031e+06C513198,1.16044e+06 513118,1.16055e+06 513034,1.16064e+06C512949,1.16074e+06 512859,1.16081e+06 512762,1.16087e+06C512665,1.16093e+06 512561,1.16097e+06 512449,1.161e+06C512337,1.16103e+06 512216,1.16104e+06 512084,1.16104e+06C511708,1.16104e+06 511407,1.16092e+06 511179,1.16068e+06C510952,1.16044e+06 510837,1.16012e+06 510837,1.15971e+06C510837,1.15932e+06 510948,1.15899e+06 511169,1.15875e+06C511391,1.1585e+06 511686,1.15838e+06 512053,1.15838e+06C512424,1.15838e+06 512717,1.1585e+06 512933,1.15874e+06C513146,1.15897e+06 513254,1.1593e+06 513254,1.15971e+06L513251,1.15985e+06ZM512653,1.15937e+06C512572,1.15906e+06 512377,1.15891e+06 512066,1.15891e+06C511995,1.15891e+06 511929,1.15892e+06 511867,1.15894e+06C511805,1.15896e+06 511749,1.15899e+06 511698,1.15903e+06C511646,1.15907e+06 511604,1.15912e+06 511567,1.15918e+06C511531,1.15924e+06 511504,1.1593e+06 511485,1.15937e+06L512653,1.15937e+06Z" style="fill-rule:nonzero;"/>
                <path d="M514469,1.16234e+06L513887,1.16234e+06L513887,1.15845e+06L514469,1.15845e+06L514469,1.15873e+06C514698,1.1585e+06 514959,1.15838e+06 515250,1.15838e+06C515597,1.15838e+06 515882,1.15851e+06 516106,1.15876e+06C516334,1.15902e+06 516448,1.15934e+06 516448,1.15972e+06C516448,1.1601e+06 516334,1.16042e+06 516109,1.16067e+06C515885,1.16092e+06 515602,1.16104e+06 515260,1.16104e+06C514966,1.16104e+06 514702,1.16093e+06 514469,1.16069e+06L514469,1.16234e+06ZM515853,1.15973e+06C515853,1.15949e+06 515787,1.15929e+06 515656,1.15914e+06C515524,1.15898e+06 515356,1.15891e+06 515154,1.15891e+06C514940,1.15891e+06 514768,1.15898e+06 514635,1.15913e+06C514502,1.15928e+06 514435,1.15947e+06 514435,1.15971e+06C514435,1.15995e+06 514502,1.16014e+06 514635,1.1603e+06C514766,1.16045e+06 514938,1.16052e+06 515152,1.16052e+06C515354,1.16052e+06 515520,1.16045e+06 515651,1.1603e+06C515786,1.16014e+06 515853,1.15995e+06 515853,1.15973e+06Z" style="fill-rule:nonzero;"/>
            </g>
            <path d="M466283,1.15896e+06C466268,1.1584e+06 465801,1.15796e+06 465237,1.15797e+06C464675,1.15799e+06 464231,1.15846e+06 464246,1.15902e+06C464261,1.15958e+06 464730,1.16003e+06 465292,1.16001e+06C465856,1.15999e+06 466298,1.15953e+06 466283,1.15896e+06" style="fill:rgb(52,94,242);fill-rule:nonzero;"/>
            <g>
                <path d="M470896,1.1428e+06L470896,1.14351e+06C470548,1.14322e+06 470188,1.14307e+06 469815,1.14307e+06C469405,1.14307e+06 469059,1.14322e+06 468778,1.14352e+06C468496,1.14381e+06 468354,1.14417e+06 468354,1.14459e+06C468354,1.14501e+06 468496,1.14536e+06 468778,1.14565e+06C469061,1.14594e+06 469407,1.14608e+06 469818,1.14608e+06C470030,1.14608e+06 470210,1.14605e+06 470358,1.14598e+06C470441,1.14595e+06 470527,1.1459e+06 470616,1.14584e+06C470704,1.14578e+06 470798,1.14571e+06 470896,1.14563e+06L470896,1.14636e+06C470552,1.14655e+06 470190,1.14665e+06 469810,1.14665e+06C469239,1.14665e+06 468753,1.14645e+06 468348,1.14605e+06C467947,1.14565e+06 467746,1.14516e+06 467746,1.1446e+06C467746,1.14409e+06 467914,1.14363e+06 468250,1.14324e+06C468664,1.14275e+06 469200,1.1425e+06 469857,1.1425e+06C470215,1.1425e+06 470561,1.1426e+06 470896,1.1428e+06Z" style="fill-rule:nonzero;"/>
                <path d="M471427,1.1453e+06C471427,1.14493e+06 471556,1.14462e+06 471818,1.14437e+06C472078,1.14411e+06 472395,1.14399e+06 472769,1.14399e+06C473145,1.14399e+06 473464,1.14412e+06 473726,1.14437e+06C473984,1.14463e+06 474114,1.14494e+06 474114,1.14532e+06C474114,1.1457e+06 473983,1.14601e+06 473723,1.14627e+06C473461,1.14652e+06 473140,1.14665e+06 472759,1.14665e+06C472381,1.14665e+06 472065,1.14652e+06 471809,1.14626e+06C471554,1.146e+06 471427,1.14568e+06 471427,1.1453e+06ZM472022,1.14531e+06C472022,1.14556e+06 472089,1.14576e+06 472223,1.14591e+06C472361,1.14605e+06 472543,1.14613e+06 472769,1.14613e+06C472997,1.14613e+06 473179,1.14606e+06 473315,1.14591e+06C473450,1.14576e+06 473519,1.14557e+06 473519,1.14532e+06C473519,1.14508e+06 473450,1.14488e+06 473315,1.14473e+06C473177,1.14459e+06 472995,1.14451e+06 472769,1.14451e+06C472546,1.14451e+06 472366,1.14459e+06 472228,1.14473e+06C472090,1.14488e+06 472022,1.14507e+06 472022,1.14531e+06Z" style="fill-rule:nonzero;"/>
                <path d="M474730,1.14406e+06L475311,1.14406e+06L475311,1.14429e+06C475424,1.14417e+06 475519,1.14409e+06 475598,1.14405e+06C475683,1.14401e+06 475789,1.14399e+06 475916,1.14399e+06C476201,1.14399e+06 476426,1.14411e+06 476591,1.14436e+06C476775,1.14411e+06 477022,1.14399e+06 477334,1.14399e+06C477901,1.14399e+06 478185,1.14433e+06 478185,1.14502e+06L478185,1.14658e+06L477600,1.14658e+06L477600,1.14518e+06C477600,1.14493e+06 477572,1.14476e+06 477513,1.14466e+06C477452,1.14456e+06 477353,1.14451e+06 477215,1.14451e+06C477054,1.14451e+06 476938,1.14457e+06 476865,1.14469e+06C476791,1.14481e+06 476755,1.14501e+06 476755,1.14527e+06L476755,1.14658e+06L476170,1.14658e+06L476170,1.14518e+06C476170,1.14474e+06 476041,1.14451e+06 475782,1.14451e+06C475618,1.14451e+06 475499,1.14457e+06 475424,1.1447e+06C475349,1.14482e+06 475311,1.14501e+06 475311,1.14527e+06L475311,1.14658e+06L474730,1.14658e+06L474730,1.14406e+06Z" style="fill-rule:nonzero;"/>
                <path d="M479566,1.14795e+06L478984,1.14795e+06L478984,1.14406e+06L479566,1.14406e+06L479566,1.14433e+06C479795,1.1441e+06 480056,1.14399e+06 480347,1.14399e+06C480694,1.14399e+06 480979,1.14411e+06 481203,1.14437e+06C481431,1.14462e+06 481545,1.14494e+06 481545,1.14533e+06C481545,1.14571e+06 481432,1.14602e+06 481206,1.14627e+06C480982,1.14652e+06 480699,1.14665e+06 480357,1.14665e+06C480063,1.14665e+06 479799,1.14653e+06 479566,1.14629e+06L479566,1.14795e+06ZM480950,1.14533e+06C480950,1.14509e+06 480884,1.14489e+06 480753,1.14474e+06C480621,1.14459e+06 480453,1.14451e+06 480251,1.14451e+06C480037,1.14451e+06 479865,1.14459e+06 479732,1.14473e+06C479599,1.14488e+06 479533,1.14508e+06 479533,1.14532e+06C479533,1.14555e+06 479599,1.14575e+06 479732,1.1459e+06C479863,1.14605e+06 480035,1.14613e+06 480249,1.14613e+06C480451,1.14613e+06 480618,1.14605e+06 480748,1.1459e+06C480883,1.14575e+06 480950,1.14556e+06 480950,1.14533e+06Z" style="fill-rule:nonzero;"/>
                <rect x="482160" y="1.14221e+06" width="581.93" height="4368.52"/>
                <path d="M485773,1.14545e+06L483968,1.14545e+06C483984,1.14566e+06 484051,1.14582e+06 484170,1.14595e+06C484289,1.14607e+06 484441,1.14613e+06 484628,1.14613e+06C484773,1.14613e+06 484892,1.14609e+06 484987,1.14602e+06C485081,1.14596e+06 485187,1.14583e+06 485306,1.14564e+06L485797,1.14592e+06C485721,1.14605e+06 485641,1.14616e+06 485557,1.14625e+06C485472,1.14634e+06 485382,1.14642e+06 485285,1.14648e+06C485188,1.14654e+06 485084,1.14658e+06 484972,1.14661e+06C484860,1.14663e+06 484738,1.14665e+06 484607,1.14665e+06C484231,1.14665e+06 483930,1.14653e+06 483702,1.14629e+06C483474,1.14604e+06 483360,1.14572e+06 483360,1.14532e+06C483360,1.14492e+06 483471,1.1446e+06 483692,1.14435e+06C483914,1.14411e+06 484209,1.14399e+06 484576,1.14399e+06C484947,1.14399e+06 485240,1.14411e+06 485455,1.14434e+06C485669,1.14458e+06 485777,1.1449e+06 485777,1.14532e+06L485773,1.14545e+06ZM485176,1.14498e+06C485095,1.14467e+06 484900,1.14451e+06 484589,1.14451e+06C484518,1.14451e+06 484452,1.14452e+06 484390,1.14454e+06C484328,1.14457e+06 484271,1.1446e+06 484221,1.14464e+06C484169,1.14468e+06 484126,1.14473e+06 484090,1.14478e+06C484054,1.14484e+06 484026,1.14491e+06 484007,1.14498e+06L485176,1.14498e+06Z" style="fill-rule:nonzero;"/>
                <path d="M487057,1.1446e+06L487057,1.14658e+06L486475,1.14658e+06L486475,1.1446e+06L486226,1.1446e+06L486226,1.14406e+06L486475,1.14406e+06L486475,1.14313e+06L487057,1.14313e+06L487057,1.14406e+06L487509,1.14406e+06L487509,1.1446e+06L487057,1.1446e+06Z" style="fill-rule:nonzero;"/>
                <path d="M490246,1.14545e+06L488440,1.14545e+06C488456,1.14566e+06 488523,1.14582e+06 488642,1.14595e+06C488761,1.14607e+06 488913,1.14613e+06 489100,1.14613e+06C489245,1.14613e+06 489365,1.14609e+06 489460,1.14602e+06C489552,1.14596e+06 489659,1.14583e+06 489778,1.14564e+06L490269,1.14592e+06C490193,1.14605e+06 490113,1.14616e+06 490028,1.14625e+06C489944,1.14634e+06 489853,1.14642e+06 489757,1.14648e+06C489661,1.14654e+06 489556,1.14658e+06 489444,1.14661e+06C489332,1.14663e+06 489210,1.14665e+06 489080,1.14665e+06C488704,1.14665e+06 488401,1.14653e+06 488174,1.14629e+06C487947,1.14604e+06 487833,1.14572e+06 487833,1.14532e+06C487833,1.14492e+06 487942,1.1446e+06 488164,1.14435e+06C488386,1.14411e+06 488681,1.14399e+06 489048,1.14399e+06C489419,1.14399e+06 489712,1.14411e+06 489927,1.14434e+06C490141,1.14458e+06 490248,1.1449e+06 490248,1.14532e+06L490246,1.14545e+06ZM489648,1.14498e+06C489567,1.14467e+06 489371,1.14451e+06 489061,1.14451e+06C488990,1.14451e+06 488924,1.14452e+06 488862,1.14454e+06C488799,1.14457e+06 488743,1.1446e+06 488692,1.14464e+06C488642,1.14468e+06 488598,1.14473e+06 488562,1.14478e+06C488526,1.14484e+06 488498,1.14491e+06 488479,1.14498e+06L489648,1.14498e+06Z" style="fill-rule:nonzero;"/>
                <rect x="490882" y="1.14221e+06" width="581.93" height="4368.52"/>
                <path d="M493042,1.14611e+06L491909,1.14406e+06L492584,1.14406e+06L493354,1.1455e+06L494073,1.14406e+06L494730,1.14406e+06L492724,1.14795e+06L492059,1.14795e+06L493042,1.14611e+06Z" style="fill-rule:nonzero;"/>
                <path d="M497361,1.1446e+06L497361,1.14658e+06L496779,1.14658e+06L496779,1.1446e+06L496531,1.1446e+06L496531,1.14406e+06L496779,1.14406e+06L496779,1.14313e+06L497361,1.14313e+06L497361,1.14406e+06L497813,1.14406e+06L497813,1.1446e+06L497361,1.1446e+06Z" style="fill-rule:nonzero;"/>
                <path d="M498315,1.14221e+06L498898,1.14221e+06L498898,1.14427e+06C499104,1.14408e+06 499333,1.14399e+06 499583,1.14399e+06C499867,1.14399e+06 500095,1.14408e+06 500265,1.14426e+06C500411,1.14442e+06 500483,1.14468e+06 500483,1.14503e+06L500483,1.14658e+06L499901,1.14658e+06L499901,1.14509e+06C499901,1.14488e+06 499865,1.14474e+06 499793,1.14465e+06C499722,1.14456e+06 499607,1.14451e+06 499448,1.14451e+06C499245,1.14451e+06 499102,1.14457e+06 499019,1.1447e+06C498938,1.14483e+06 498898,1.14505e+06 498898,1.14536e+06L498898,1.14658e+06L498315,1.14658e+06L498315,1.14221e+06Z" style="fill-rule:nonzero;"/>
                <path d="M501220,1.14406e+06L501802,1.14406e+06L501802,1.14428e+06C501909,1.14417e+06 502004,1.14409e+06 502087,1.14405e+06C502171,1.14401e+06 502271,1.14399e+06 502387,1.14399e+06C502539,1.14399e+06 502701,1.14404e+06 502868,1.14414e+06L502601,1.14467e+06C502491,1.14459e+06 502383,1.14455e+06 502278,1.14455e+06C501960,1.14455e+06 501802,1.14479e+06 501802,1.14527e+06L501802,1.14658e+06L501220,1.14658e+06L501220,1.14406e+06Z" style="fill-rule:nonzero;"/>
                <path d="M503035,1.1453e+06C503035,1.14493e+06 503166,1.14462e+06 503426,1.14437e+06C503686,1.14411e+06 504004,1.14399e+06 504378,1.14399e+06C504754,1.14399e+06 505073,1.14412e+06 505335,1.14437e+06C505594,1.14463e+06 505723,1.14494e+06 505723,1.14532e+06C505723,1.1457e+06 505593,1.14601e+06 505333,1.14627e+06C505071,1.14652e+06 504749,1.14665e+06 504367,1.14665e+06C503990,1.14665e+06 503674,1.14652e+06 503419,1.14626e+06C503163,1.146e+06 503035,1.14568e+06 503035,1.1453e+06ZM503630,1.14531e+06C503630,1.14556e+06 503698,1.14576e+06 503833,1.14591e+06C503970,1.14605e+06 504152,1.14613e+06 504378,1.14613e+06C504605,1.14613e+06 504787,1.14606e+06 504924,1.14591e+06C505060,1.14576e+06 505128,1.14557e+06 505128,1.14532e+06C505128,1.14508e+06 505060,1.14488e+06 504924,1.14473e+06C504786,1.14459e+06 504604,1.14451e+06 504378,1.14451e+06C504156,1.14451e+06 503976,1.14459e+06 503838,1.14473e+06C503700,1.14488e+06 503630,1.14507e+06 503630,1.14531e+06Z" style="fill-rule:nonzero;"/>
                <path d="M506921,1.14406e+06L506921,1.1455e+06C506921,1.14592e+06 507085,1.14613e+06 507414,1.14613e+06C507744,1.14613e+06 507908,1.14592e+06 507908,1.1455e+06L507908,1.14406e+06L508490,1.14406e+06L508490,1.14551e+06C508490,1.14572e+06 508465,1.14589e+06 508416,1.14604e+06C508367,1.14617e+06 508284,1.14629e+06 508165,1.14639e+06C507968,1.14656e+06 507718,1.14665e+06 507414,1.14665e+06C507113,1.14665e+06 506864,1.14656e+06 506667,1.14639e+06C506547,1.14629e+06 506461,1.14617e+06 506411,1.14604e+06C506363,1.14592e+06 506338,1.14575e+06 506338,1.14551e+06L506338,1.14406e+06L506921,1.14406e+06Z" style="fill-rule:nonzero;"/>
                <path d="M511662,1.14652e+06C511662,1.14664e+06 511658,1.14674e+06 511650,1.14683e+06C511642,1.14692e+06 511631,1.147e+06 511618,1.14707e+06C511576,1.14726e+06 511495,1.14742e+06 511374,1.14756e+06C511147,1.14782e+06 510834,1.14795e+06 510435,1.14795e+06C510099,1.14795e+06 509822,1.14786e+06 509605,1.14768e+06C509381,1.14749e+06 509252,1.14724e+06 509217,1.14691e+06L509802,1.14691e+06C509824,1.14703e+06 509861,1.14713e+06 509913,1.14719e+06C510034,1.14735e+06 510210,1.14743e+06 510440,1.14743e+06C510867,1.14743e+06 511079,1.14717e+06 511079,1.14665e+06L511079,1.14629e+06C510849,1.14653e+06 510582,1.14665e+06 510280,1.14665e+06C509937,1.14665e+06 509656,1.14652e+06 509437,1.14628e+06C509217,1.14602e+06 509106,1.14571e+06 509106,1.14533e+06C509106,1.14496e+06 509209,1.14465e+06 509414,1.1444e+06C509635,1.14412e+06 509926,1.14399e+06 510288,1.14399e+06C510606,1.14399e+06 510869,1.14411e+06 511079,1.14434e+06L511079,1.14406e+06L511662,1.14406e+06L511662,1.14652e+06ZM511103,1.14532e+06C511103,1.14508e+06 511037,1.14488e+06 510906,1.14473e+06C510773,1.14458e+06 510604,1.14451e+06 510397,1.14451e+06C510176,1.14451e+06 510002,1.14459e+06 509874,1.14475e+06C509759,1.1449e+06 509701,1.14509e+06 509701,1.14532e+06C509701,1.14555e+06 509759,1.14574e+06 509874,1.14589e+06C510000,1.14605e+06 510174,1.14613e+06 510397,1.14613e+06C510619,1.14613e+06 510795,1.14605e+06 510925,1.14589e+06C511044,1.14574e+06 511103,1.14555e+06 511103,1.14532e+06Z" style="fill-rule:nonzero;"/>
                <path d="M512396,1.14221e+06L512978,1.14221e+06L512978,1.14427e+06C513185,1.14408e+06 513414,1.14399e+06 513663,1.14399e+06C513948,1.14399e+06 514176,1.14408e+06 514347,1.14426e+06C514491,1.14442e+06 514563,1.14468e+06 514563,1.14503e+06L514563,1.14658e+06L513981,1.14658e+06L513981,1.14509e+06C513981,1.14488e+06 513946,1.14474e+06 513874,1.14465e+06C513803,1.14456e+06 513688,1.14451e+06 513529,1.14451e+06C513325,1.14451e+06 513182,1.14457e+06 513100,1.1447e+06C513019,1.14483e+06 512978,1.14505e+06 512978,1.14536e+06L512978,1.14658e+06L512396,1.14658e+06L512396,1.14221e+06Z" style="fill-rule:nonzero;"/>
            </g>
            <path d="M466283,1.14463e+06C466268,1.14406e+06 465801,1.14362e+06 465237,1.14364e+06C464675,1.14365e+06 464231,1.14412e+06 464246,1.14468e+06C464261,1.14525e+06 464730,1.14569e+06 465292,1.14567e+06C465856,1.14566e+06 466298,1.14519e+06 466283,1.14463e+06" style="fill-rule:nonzero;"/>
            <rect x="461735" y="1.12466e+06" width="68636.3" height="42385.5" style="fill:none;stroke:black;stroke-width:1206.29px;stroke-miterlimit:10;"/>
        </g>
        <g id="Drill1" serif:id="Drill">
            <path d="M76556.4,406281C75930.7,406475 75265.4,406124 75071.7,405499C74878,404873 75228.7,404208 75854.5,404014C76480.2,403820 77145.5,404171 77339.2,404797C77533,405422 77182.2,406088 76556.4,406281Z" style="fill:rgb(52,94,242);"/>
            <path d="M73329.9,395858C72704.2,396052 72038.9,395701 71845.2,395076C71651.5,394450 72002.3,393784 72628,393591C73253.8,393397 73919.1,393748 74112.8,394374C74306.5,394999 73955.7,395665 73329.9,395858Z" style="fill:rgb(52,94,242);"/>
        </g>
        <g id="Spinners">
            <g id="Drill2" serif:id="Drill">
                <path d="M482621,417463C483260,417604 483666,418237 483525,418877C483384,419517 482751,419922 482111,419781C481471,419641 481066,419007 481207,418367C481347,417728 481981,417322 482621,417463Z" style="fill:rgb(52,94,242);"/>
                <path d="M480278,428120C480917,428260 481323,428894 481182,429534C481041,430173 480408,430579 479768,430438C479128,430297 478723,429664 478864,429024C479004,428384 479638,427979 480278,428120Z" style="fill:rgb(52,94,242);"/>
            </g>
            <g id="Drill3" serif:id="Drill">
                <path d="M443815,337152C444362,337512 444513,338249 444153,338796C443793,339343 443056,339494 442509,339134C441962,338774 441810,338037 442171,337490C442531,336943 443268,336791 443815,337152Z" style="fill:rgb(52,94,242);"/>
                <path d="M437813,346264C438360,346624 438512,347361 438151,347908C437791,348455 437054,348606 436507,348246C435960,347886 435809,347149 436169,346602C436529,346055 437266,345903 437813,346264Z" style="fill:rgb(52,94,242);"/>
            </g>
        </g>
        <g id="Round-Holes" serif:id="Round Holes">
            <circle id="Drill4" serif:id="Drill" cx="125695" cy="385108" r="1342.3" style="fill:rgb(52,94,242);"/>
            <circle id="Drill5" serif:id="Drill" cx="151916" cy="377812" r="1342.3" style="fill:rgb(52,94,242);"/>
            <circle id="Drill6" serif:id="Drill" cx="126277" cy="292972" r="1342.3" style="fill:rgb(52,94,242);"/>
            <circle id="Drill7" serif:id="Drill" cx="100056" cy="300270" r="1342.3" style="fill:rgb(52,94,242);"/>
            <circle id="Drill8" serif:id="Drill" cx="367902" cy="320045" r="1342.3" style="fill:rgb(52,94,242);"/>
            <circle id="Drill9" serif:id="Drill" cx="359883" cy="341065" r="1342.3" style="fill:rgb(52,94,242);"/>
            <circle id="Drill10" serif:id="Drill" cx="334687" cy="330793" r="1342.3" style="fill:rgb(52,94,242);"/>
            <circle id="Drill11" serif:id="Drill" cx="342700" cy="309781" r="1342.3" style="fill:rgb(52,94,242);"/>
        </g>
        <g id="M-Shapes">
            <g id="Drill12" serif:id="Drill">
                <circle cx="96390" cy="809817" r="1342.3" style="fill:rgb(52,94,242);"/>
                <circle cx="96390" cy="777241" r="1342.3" style="fill:rgb(52,94,242);"/>
            </g>
            <g id="Drill13" serif:id="Drill">
                <circle cx="125185" cy="817889" r="1342.3" style="fill:rgb(52,94,242);"/>
                <circle cx="125185" cy="785312" r="1342.3" style="fill:rgb(52,94,242);"/>
            </g>
            <g id="Drill14" serif:id="Drill">
                <circle cx="421204" cy="817886" r="1342.3" style="fill:rgb(52,94,242);"/>
                <circle cx="421204" cy="785310" r="1342.3" style="fill:rgb(52,94,242);"/>
            </g>
            <g id="Drill15" serif:id="Drill">
                <circle cx="450022" cy="809786" r="1342.3" style="fill:rgb(52,94,242);"/>
                <circle cx="450022" cy="777210" r="1342.3" style="fill:rgb(52,94,242);"/>
            </g>
            <g id="Drill16" serif:id="Drill">
                <circle cx="456679" cy="809787" r="1342.3" style="fill:rgb(52,94,242);"/>
                <circle cx="456679" cy="777210" r="1342.3" style="fill:rgb(52,94,242);"/>
            </g>
            <g id="Drill17" serif:id="Drill">
                <circle cx="456679" cy="850127" r="1342.3" style="fill:rgb(52,94,242);"/>
                <circle cx="456679" cy="817551" r="1342.3" style="fill:rgb(52,94,242);"/>
            </g>
            <g id="Drill18" serif:id="Drill">
                <circle cx="457403" cy="928811" r="1342.3" style="fill:rgb(52,94,242);"/>
                <circle cx="457403" cy="896235" r="1342.3" style="fill:rgb(52,94,242);"/>
            </g>
            <g id="Drill19" serif:id="Drill">
                <path d="M449649,897935C449230,897324 449387,896488 449998,896069C450609,895651 451445,895807 451864,896419C452282,897030 452126,897866 451515,898285C450903,898703 450067,898547 449649,897935Z" style="fill:rgb(52,94,242);"/>
                <path d="M422770,916340C422351,915729 422507,914892 423119,914474C423730,914055 424566,914212 424985,914823C425403,915434 425247,916271 424635,916689C424024,917108 423188,916951 422770,916340Z" style="fill:rgb(52,94,242);"/>
            </g>
            <g id="Drill20" serif:id="Drill">
                <path d="M91973.6,618760C92591.4,618351 93424.9,618521 93833.8,619139C94242.7,619756 94073.1,620590 93455.3,620999C92837.5,621408 92004,621238 91595.1,620620C91186.2,620002 91355.8,619169 91973.6,618760Z" style="fill:rgb(52,94,242);"/>
                <path d="M73993.5,591595C74611.3,591186 75444.8,591356 75853.7,591974C76262.6,592591 76093,593425 75475.2,593834C74857.5,594243 74023.9,594073 73615,593455C73206.1,592838 73375.7,592004 73993.5,591595Z" style="fill:rgb(52,94,242);"/>
            </g>
            <g id="Drill21" serif:id="Drill">
                <circle cx="74729.4" cy="586058" r="1342.3" style="fill:rgb(52,94,242);"/>
                <circle cx="74729.4" cy="553482" r="1342.3" style="fill:rgb(52,94,242);"/>
            </g>
            <g id="Drill22" serif:id="Drill">
                <path d="M120014,555971C120659,555605 121479,555831 121845,556475C122210,557119 121985,557940 121340,558305C120696,558671 119876,558445 119510,557801C119144,557157 119370,556337 120014,555971Z" style="fill:rgb(52,94,242);"/>
                <path d="M103924,527646C104568,527280 105388,527506 105754,528150C106120,528795 105894,529615 105250,529981C104605,530346 103785,530121 103419,529476C103054,528832 103279,528012 103924,527646Z" style="fill:rgb(52,94,242);"/>
            </g>
            <g id="Drill23" serif:id="Drill">
                <path d="M75913.5,547415C76425.3,547950 76405.8,548801 75870.1,549312C75334.4,549824 74484,549805 73972.3,549269C73460.6,548733 73480,547883 74015.7,547371C74551.4,546859 75401.8,546879 75913.5,547415Z" style="fill:rgb(52,94,242);"/>
                <path d="M99469.4,524913C99981.2,525448 99961.7,526299 99426,526810C98890.3,527322 98039.9,527303 97528.2,526767C97016.5,526231 97035.9,525381 97571.6,524869C98107.3,524357 98957.7,524377 99469.4,524913Z" style="fill:rgb(52,94,242);"/>
            </g>
        </g>
        <g id="Drill-TODO--Group---Group-" serif:id="Drill TODO (Group) (Group)">
            <path d="M156771,335477C157135,335388 157502,335611 157591,335975C157680,336338 157457,336706 157094,336795C156730,336884 156363,336661 156274,336297C156185,335933 156408,335566 156771,335477Z" style="fill:rgb(52,94,242);"/>
            <path d="M180897,329572C181261,329483 181628,329706 181717,330070C181806,330433 181583,330801 181219,330890C180856,330979 180488,330756 180399,330392C180310,330028 180533,329661 180897,329572Z" style="fill:rgb(52,94,242);"/>
        </g>
        <g id="Drill24" serif:id="Drill">
            <path d="M135337,963144C134712,963338 134046,962987 133853,962361C133659,961736 134010,961070 134635,960877C135261,960683 135927,961034 136120,961659C136314,962285 135963,962950 135337,963144Z" style="fill:rgb(52,94,242);"/>
            <path d="M148670,972477C148044,972671 147379,972320 147185,971694C146992,971068 147342,970403 147968,970209C148594,970016 149259,970366 149453,970992C149647,971618 149296,972283 148670,972477Z" style="fill:rgb(52,94,242);"/>
            <path d="M122004,953808C121378,954002 120713,953651 120519,953026C120325,952400 120676,951735 121302,951541C121928,951347 122593,951698 122787,952324C122980,952949 122629,953615 122004,953808Z" style="fill:rgb(52,94,242);"/>
        </g>
        <g id="Drill25" serif:id="Drill">
            <path d="M377955,963144C378581,963338 379246,962987 379440,962361C379634,961736 379283,961070 378657,960877C378031,960683 377366,961034 377172,961659C376979,962285 377330,962950 377955,963144Z" style="fill:rgb(52,94,242);"/>
            <path d="M364623,972477C365248,972671 365914,972320 366107,971694C366301,971068 365950,970403 365324,970209C364699,970016 364033,970366 363840,970992C363646,971618 363997,972283 364623,972477Z" style="fill:rgb(52,94,242);"/>
            <path d="M391289,953808C391915,954002 392580,953651 392774,953026C392967,952400 392617,951735 391991,951541C391365,951347 390700,951698 390506,952324C390312,952949 390663,953615 391289,953808Z" style="fill:rgb(52,94,242);"/>
        </g>
    </g>
</svg>
