<?xml version="1.0" encoding="UTF-8" standalone="no"?>
<!DOCTYPE svg PUBLIC "-//W3C//DTD SVG 1.1//EN" "http://www.w3.org/Graphics/SVG/1.1/DTD/svg11.dtd">
<svg width="1027067px" height="1302084px" version="1.1" xmlns="http://www.w3.org/2000/svg" xmlns:xlink="http://www.w3.org/1999/xlink" xml:space="preserve" xmlns:serif="http://www.serif.com/" style="fill-rule:evenodd;clip-rule:evenodd;stroke-linecap:round;stroke-linejoin:round;stroke-miterlimit:2.613;">
    <g id="IPD">
        <g id="Playfield-Outline---Top-Bottom-WoodWalls-Habitrails-Sticker-Drill-Rout-Plastic-Bevel-Art-Assembly-Rubber-Todo" serif:id="Playfield Outline - Top Bottom WoodWalls Habitrails Sticker Drill Rout Plastic Bevel Art Assembly Rubber Todo">
            <path id="PF-Outline" serif:id="PF Outline" d="M56521.1,108504L495941,108504L495941,1.0197e+06L482383,1.0197e+06L482383,996644C482383,995158 481162,993937 479664,993937L472905,993937L472917,954385C472917,953265 471998,952346 470878,952346C469758,952346 468851,953265 468851,954385L468864,993937L455256,993937C453758,993937 452550,995158 452550,996644L452550,1.08507e+06L254073,1.08507e+06L203350,1.02461e+06L203347,1.02461e+06C202330,1.02341e+06 200783,1.02269e+06 199194,1.02269e+06L174515,1.02269e+06C171528,1.02269e+06 169090,1.02512e+06 169090,1.0281e+06L169090,1.08507e+06L124613,1.08507e+06L84775.1,1.05062e+06L84775.1,1.02845e+06C84775.1,1.02547e+06 82338,1.02303e+06 79349.6,1.02303e+06L56521.1,1.02303e+06L56521.1,108504Z" style="fill:none;stroke:rgb(35,31,32);stroke-width:251.76px;"/>
            <g id="Guidemarks">
                <path d="M98087.9,1.08507e+06L50891.4,1.08507e+06" style="fill:none;stroke:black;stroke-width:251.76px;"/>
                <path d="M499791,1.08507e+06L474604,1.08507e+06" style="fill:none;stroke:black;stroke-width:251.76px;"/>
                <path d="M495977,1.11023e+06L495977,1.07693e+06" style="fill:none;stroke:black;stroke-width:167.84px;stroke-miterlimit:10;"/>
                <path d="M56548.1,1.11065e+06L56548.1,1.07573e+06" style="fill:none;stroke:black;stroke-width:126.96px;stroke-miterlimit:10;"/>
                <g>
                    <path d="M260973,1.10408e+06L264496,1.10408e+06L264496,1.10543e+06L258140,1.10543e+06L261425,1.10145e+06C261748,1.10105e+06 262019,1.10071e+06 262238,1.10042e+06C262457,1.10013e+06 262624,1.09988e+06 262737,1.09969e+06C262971,1.0993e+06 263086,1.09896e+06 263086,1.09865e+06C263086,1.09821e+06 262931,1.09784e+06 262622,1.09754e+06C262310,1.09724e+06 261926,1.09709e+06 261468,1.09709e+06C260512,1.09709e+06 259964,1.09766e+06 259825,1.09879e+06L258403,1.09879e+06C258632,1.0968e+06 259639,1.0958e+06 261425,1.0958e+06C262289,1.0958e+06 263012,1.09608e+06 263595,1.09662e+06C264185,1.09717e+06 264479,1.09785e+06 264479,1.09866e+06C264479,1.09917e+06 264342,1.09968e+06 264067,1.10017e+06C263928,1.10043e+06 263727,1.10074e+06 263458,1.10109e+06C263190,1.10144e+06 262853,1.10186e+06 262444,1.10234e+06L260973,1.10408e+06Z" style="fill-rule:nonzero;"/>
                    <path d="M266111,1.10063e+06C266111,1.09912e+06 266461,1.09792e+06 267164,1.09702e+06C267793,1.09621e+06 268555,1.0958e+06 269450,1.0958e+06C270345,1.0958e+06 271107,1.09621e+06 271738,1.09702e+06C272441,1.09792e+06 272792,1.09915e+06 272792,1.10069e+06C272792,1.10224e+06 272441,1.10346e+06 271738,1.10436e+06C271107,1.10517e+06 270347,1.10558e+06 269456,1.10558e+06C268567,1.10558e+06 267801,1.10517e+06 267164,1.10436e+06C266461,1.10346e+06 266111,1.10222e+06 266111,1.10063e+06ZM267513,1.10064e+06C267513,1.10169e+06 267695,1.10256e+06 268060,1.10326e+06C268424,1.10394e+06 268886,1.10428e+06 269450,1.10428e+06C270011,1.10428e+06 270475,1.10394e+06 270843,1.10326e+06C271211,1.10258e+06 271395,1.10172e+06 271395,1.10069e+06C271395,1.09965e+06 271211,1.0988e+06 270843,1.09811e+06C270475,1.09743e+06 270011,1.09709e+06 269450,1.09709e+06C268896,1.09709e+06 268434,1.09743e+06 268065,1.09811e+06C267697,1.09879e+06 267513,1.09963e+06 267513,1.10064e+06Z" style="fill-rule:nonzero;"/>
                    <path d="M274410,1.10474e+06C274410,1.10451e+06 274494,1.10431e+06 274663,1.10415e+06C274829,1.10398e+06 275031,1.10389e+06 275262,1.10389e+06C275495,1.10389e+06 275697,1.10398e+06 275863,1.10415e+06C276032,1.10431e+06 276116,1.10451e+06 276116,1.10475e+06C276116,1.10498e+06 276032,1.10519e+06 275863,1.10535e+06C275701,1.10552e+06 275499,1.1056e+06 275262,1.1056e+06C275021,1.1056e+06 274819,1.10552e+06 274657,1.10535e+06C274492,1.10519e+06 274410,1.10499e+06 274410,1.10474e+06Z" style="fill-rule:nonzero;"/>
                    <path d="M280345,1.10408e+06L283871,1.10408e+06L283871,1.10543e+06L277513,1.10543e+06L280800,1.10145e+06C281123,1.10105e+06 281393,1.10071e+06 281611,1.10042e+06C281830,1.10013e+06 281997,1.09988e+06 282110,1.09969e+06C282345,1.0993e+06 282461,1.09896e+06 282461,1.09865e+06C282461,1.09821e+06 282306,1.09784e+06 281995,1.09754e+06C281683,1.09724e+06 281299,1.09709e+06 280843,1.09709e+06C279885,1.09709e+06 279338,1.09766e+06 279199,1.09879e+06L277777,1.09879e+06C278006,1.0968e+06 279013,1.0958e+06 280800,1.0958e+06C281662,1.0958e+06 282384,1.09608e+06 282970,1.09662e+06C283558,1.09717e+06 283852,1.09785e+06 283852,1.09866e+06C283852,1.09917e+06 283716,1.09968e+06 283442,1.10017e+06C283303,1.10043e+06 283099,1.10074e+06 282831,1.10109e+06C282565,1.10144e+06 282226,1.10186e+06 281816,1.10234e+06L280345,1.10408e+06Z" style="fill-rule:nonzero;"/>
                    <path d="M291554,1.0973e+06L288635,1.0973e+06L288169,1.09887e+06C288237,1.09886e+06 288304,1.09885e+06 288369,1.09885e+06C288431,1.09884e+06 288490,1.09884e+06 288543,1.09884e+06C289462,1.09884e+06 290216,1.09915e+06 290805,1.09977e+06C291397,1.10039e+06 291695,1.10118e+06 291695,1.10215e+06C291695,1.10314e+06 291360,1.10397e+06 290688,1.10461e+06C290018,1.10526e+06 289174,1.10558e+06 288157,1.10558e+06C286901,1.10558e+06 285912,1.10499e+06 285189,1.10381e+06L286269,1.1029e+06C286566,1.10341e+06 286866,1.10376e+06 287170,1.10397e+06C287471,1.10418e+06 287842,1.10428e+06 288279,1.10428e+06C288850,1.10428e+06 289332,1.10408e+06 289720,1.10368e+06C290108,1.10327e+06 290302,1.10277e+06 290302,1.10218e+06C290302,1.10157e+06 290110,1.10108e+06 289726,1.10069e+06C289342,1.1003e+06 288862,1.1001e+06 288284,1.1001e+06C287644,1.1001e+06 287089,1.10038e+06 286623,1.10094e+06L286151,1.10094e+06L287642,1.09596e+06L291554,1.09596e+06L291554,1.0973e+06Z" style="fill-rule:nonzero;"/>
                    <path d="M294674,1.09977e+06L293632,1.09977e+06L293368,1.09596e+06L294937,1.09596e+06L294674,1.09977e+06ZM296917,1.09977e+06L295875,1.09977e+06L295612,1.09596e+06L297181,1.09596e+06L296917,1.09977e+06Z" style="fill-rule:nonzero;"/>
                </g>
                <path d="M61291.8,1.10906e+06L61291.8,1.1122e+06L57092.5,1.10801e+06L61291.8,1.10381e+06L61291.8,1.10696e+06L490894,1.10696e+06L490894,1.10381e+06L495093,1.10801e+06L490894,1.1122e+06L490894,1.10906e+06L61291.8,1.10906e+06Z" style="fill-opacity:0.713726;"/>
            </g>
        </g>
        <g id="Top-Bottom-WoodWalls-Habitrails-Sticker-Drill-Rout-Plastic-Bevel-Art-Assembly-Rubber-Todo" serif:id="Top Bottom WoodWalls Habitrails Sticker Drill Rout Plastic Bevel Art Assembly Rubber Todo">
            <path d="M89098.8,1.04167e+06L110800,1.04167e+06" style="fill:none;stroke:black;stroke-width:263.97px;stroke-miterlimit:10;"/>
            <path d="M99947.4,1.03082e+06L99947.4,1.05252e+06" style="fill:none;stroke:black;stroke-width:263.97px;stroke-miterlimit:10;"/>
        </g>
        <g id="Top-Bottom-WoodWalls-Habitrails-Sticker-Drill-Rout-Plastic-Bevel-Art-Assembly-Rubber-Todo1" serif:id="Top Bottom WoodWalls Habitrails Sticker Drill Rout Plastic Bevel Art Assembly Rubber Todo">
            <path d="M67396.6,130207L89097.8,130207" style="fill:none;stroke:black;stroke-width:263.97px;stroke-miterlimit:10;"/>
            <path d="M78245.2,119355L78245.2,141057" style="fill:none;stroke:black;stroke-width:263.97px;stroke-miterlimit:10;"/>
        </g>
        <g id="Top-Bottom-WoodWalls-Habitrails-Sticker-Drill-Rout-Plastic-Bevel-Art-Assembly-Rubber-Todo2" serif:id="Top Bottom WoodWalls Habitrails Sticker Drill Rout Plastic Bevel Art Assembly Rubber Todo">
            <path d="M458023,130207L479725,130207" style="fill:none;stroke:black;stroke-width:263.97px;stroke-miterlimit:10;"/>
            <path d="M468872,119355L468872,141057" style="fill:none;stroke:black;stroke-width:263.97px;stroke-miterlimit:10;"/>
        </g>
        <g id="Top-Bottom-WoodWalls-Habitrails-Sticker-Drill-Rout-Plastic-Bevel-Art-Assembly-Rubber-Todo3" serif:id="Top Bottom WoodWalls Habitrails Sticker Drill Rout Plastic Bevel Art Assembly Rubber Todo">
            <path d="M392920,1.04167e+06L414621,1.04167e+06" style="fill:none;stroke:black;stroke-width:263.97px;stroke-miterlimit:10;"/>
            <path d="M403769,1.03082e+06L403769,1.05252e+06" style="fill:none;stroke:black;stroke-width:263.97px;stroke-miterlimit:10;"/>
        </g>
        <g id="Rout-Bottom" serif:id="Rout Bottom">
            <ellipse cx="490429" cy="987337" rx="5970.72" ry="5970.74" style="fill:rgb(255,0,89);fill-opacity:0.509804;"/>
            <g>
                <path d="M485975,978294L486430,978914L486151,978914L485740,978319L485696,978319L485696,978914L485475,978914L485475,977460L485740,977460C485931,977460 486063,977496 486151,977568C486254,977648 486298,977754 486298,977886C486298,977989 486269,978078 486210,978152C486151,978226 486078,978273 485975,978294ZM485696,978127L485769,978127C485975,978127 486078,978048 486078,977889C486078,977740 485975,977666 485784,977666L485696,977666L485696,978127Z" style="fill-rule:nonzero;"/>
                <path d="M486533,978180C486533,977975 486607,977800 486768,977653C486915,977506 487091,977432 487297,977432C487503,977432 487679,977506 487841,977655C487988,977803 488061,977981 488061,978189C488061,978398 487988,978575 487826,978721C487679,978867 487503,978940 487282,978940C487106,978940 486930,978875 486783,978745C486621,978601 486533,978413 486533,978180ZM486753,978183C486753,978344 486812,978476 486915,978579C487033,978683 487150,978735 487297,978735C487444,978735 487576,978682 487679,978577C487782,978470 487841,978340 487841,978187C487841,978032 487782,977902 487679,977797C487576,977691 487444,977639 487297,977639C487150,977639 487018,977691 486915,977797C486812,977901 486753,978030 486753,978183Z" style="fill-rule:nonzero;"/>
                <path d="M488546,977460L488546,978336C488546,978460 488575,978552 488619,978610C488678,978693 488766,978735 488869,978735C488987,978735 489075,978693 489134,978610C489163,978554 489192,978462 489192,978336L489192,977460L489413,977460L489413,978396C489413,978549 489369,978675 489266,978774C489163,978885 489031,978940 488869,978940C488722,978940 488590,978885 488473,978774C488384,978675 488340,978549 488340,978396L488340,977460L488546,977460Z" style="fill-rule:nonzero;"/>
                <path d="M490162,977666L490162,978914L489942,978914L489942,977666L489604,977666L489604,977460L490500,977460L490500,977666L490162,977666Z" style="fill-rule:nonzero;"/>
                <path d="M491279,978808C491279,978773 491294,978743 491308,978717C491338,978691 491367,978678 491411,978678C491440,978678 491470,978691 491499,978717C491529,978743 491543,978774 491543,978809C491543,978846 491529,978877 491499,978903C491470,978928 491440,978940 491411,978940C491367,978940 491338,978928 491308,978903C491294,978877 491279,978846 491279,978808Z" style="fill-rule:nonzero;"/>
                <path d="M491793,978177C491793,977946 491837,977761 491955,977623C492043,977498 492160,977435 492307,977435C492440,977435 492557,977498 492645,977623C492763,977761 492807,977949 492807,978187C492807,978424 492763,978612 492645,978750C492557,978875 492440,978937 492307,978937C492160,978937 492043,978875 491955,978750C491837,978612 491793,978421 491793,978177ZM491999,978178C491999,978340 492028,978474 492087,978580C492146,978685 492219,978738 492307,978738C492381,978738 492454,978685 492513,978580C492572,978476 492601,978345 492601,978186C492601,978027 492572,977895 492513,977790C492454,977686 492381,977634 492307,977634C492219,977634 492146,977686 492087,977790C492028,977894 491999,978023 491999,978178Z" style="fill-rule:nonzero;"/>
                <path d="M493659,977409L493821,977529L493468,978002C493483,978000 493498,977998 493512,977996C493527,977995 493542,977995 493542,977995C493659,977995 493762,978040 493850,978130C493938,978219 493982,978327 493982,978452C493982,978585 493938,978700 493835,978795C493747,978890 493630,978937 493498,978937C493365,978937 493248,978891 493145,978797C493057,978703 492998,978593 492998,978465C492998,978350 493057,978228 493145,978099L493659,977409ZM493762,978466C493762,978389 493733,978324 493689,978271C493630,978217 493571,978190 493498,978190C493409,978190 493351,978216 493292,978270C493248,978323 493218,978388 493218,978464C493218,978540 493248,978604 493292,978658C493351,978711 493409,978738 493498,978738C493571,978738 493630,978711 493689,978658C493733,978604 493762,978540 493762,978466Z" style="fill-rule:nonzero;"/>
                <path d="M494570,978708L495114,978708L495114,978914L494129,978914L494644,978303C494688,978242 494732,978189 494761,978144C494790,978100 494820,978062 494835,978032C494879,977973 494893,977920 494893,977873C494893,977805 494864,977748 494820,977703C494776,977657 494717,977634 494644,977634C494497,977634 494408,977721 494394,977895L494173,977895C494217,977588 494364,977435 494644,977435C494776,977435 494879,977477 494967,977561C495070,977645 495114,977750 495114,977874C495114,977953 495084,978031 495040,978107C495026,978146 494996,978193 494952,978248C494908,978302 494864,978366 494790,978440L494570,978708Z" style="fill-rule:nonzero;"/>
                <path d="M483756,980900L483756,979446L484065,979446C484212,979446 484329,979460 484417,979489C484505,979518 484579,979566 484652,979634C484814,979770 484887,979950 484887,980173C484887,980397 484799,980578 484652,980716C484564,980785 484491,980833 484403,980860C484329,980887 484212,980900 484065,980900L483756,980900ZM483976,980694L484079,980694C484182,980694 484256,980684 484329,980663C484388,980641 484447,980606 484505,980558C484608,980460 484667,980331 484667,980173C484667,980014 484608,979884 484505,979785C484403,979697 484270,979652 484079,979652L483976,979652L483976,980694Z" style="fill-rule:nonzero;"/>
                <path d="M485960,979652L485372,979652L485372,980002L485945,980002L485945,980208L485372,980208L485372,980694L485960,980694L485960,980900L485167,980900L485167,979446L485960,979446L485960,979652Z" style="fill-rule:nonzero;"/>
                <path d="M487047,979652L486474,979652L486474,980002L487033,980002L487033,980208L486474,980208L486474,980694L487047,980694L487047,980900L486254,980900L486254,979446L487047,979446L487047,979652Z" style="fill-rule:nonzero;"/>
                <path d="M487562,980310L487562,980900L487341,980900L487341,979446L487591,979446C487708,979446 487811,979455 487870,979471C487929,979489 487988,979521 488032,979568C488120,979649 488164,979752 488164,979877C488164,980010 488120,980115 488017,980193C487929,980271 487811,980310 487664,980310L487562,980310ZM487562,980106L487650,980106C487841,980106 487944,980029 487944,979874C487944,979724 487841,979649 487635,979649L487562,979649L487562,980106Z" style="fill-rule:nonzero;"/>
                <path d="M488972,980900L488972,979446L489192,979446C489295,979446 489369,979454 489428,979469C489486,979484 489530,979509 489574,979545C489619,979582 489648,979628 489677,979683C489692,979739 489707,979796 489707,979853C489707,979957 489677,980045 489589,980118C489663,980144 489736,980190 489780,980256C489824,980321 489839,980397 489839,980484C489839,980598 489795,980694 489721,980772C489677,980821 489619,980854 489560,980873C489486,980891 489413,980900 489310,980900L488972,980900ZM489192,980070L489266,980070C489354,980070 489413,980052 489442,980016C489486,979980 489501,979927 489501,979857C489501,979788 489486,979736 489442,979701C489413,979665 489354,979648 489281,979648L489192,979648L489192,980070ZM489192,980694L489339,980694C489428,980694 489501,980675 489545,980636C489604,980594 489619,980540 489619,980476C489619,980413 489604,980360 489560,980317C489516,980275 489428,980254 489310,980254L489192,980254L489192,980694Z" style="fill-rule:nonzero;"/>
                <path d="M490030,980167C490030,979962 490103,979786 490265,979639C490412,979492 490588,979419 490794,979419C491000,979419 491191,979493 491338,979641C491485,979789 491558,979967 491558,980175C491558,980384 491485,980562 491338,980707C491176,980854 491000,980927 490794,980927C490603,980927 490427,980862 490280,980732C490118,980588 490030,980400 490030,980167ZM490250,980169C490250,980330 490309,980462 490412,980566C490530,980670 490647,980721 490794,980721C490941,980721 491073,980669 491176,980563C491279,980456 491338,980326 491338,980173C491338,980018 491279,979888 491176,979783C491073,979678 490956,979625 490794,979625C490647,979625 490515,979678 490412,979783C490309,979888 490250,980016 490250,980169Z" style="fill-rule:nonzero;"/>
                <path d="M492175,979652L492175,980900L491955,980900L491955,979652L491632,979652L491632,979446L492513,979446L492513,979652L492175,979652Z" style="fill-rule:nonzero;"/>
                <path d="M493115,979652L493115,980900L492895,980900L492895,979652L492557,979652L492557,979446L493439,979446L493439,979652L493115,979652Z" style="fill-rule:nonzero;"/>
                <path d="M493527,980167C493527,979962 493600,979786 493747,979639C493894,979492 494071,979419 494291,979419C494497,979419 494673,979493 494820,979641C494967,979789 495040,979967 495040,980175C495040,980384 494967,980562 494820,980707C494673,980854 494482,980927 494276,980927C494085,980927 493924,980862 493762,980732C493600,980588 493527,980400 493527,980167ZM493747,980169C493747,980330 493791,980462 493909,980566C494012,980670 494144,980721 494276,980721C494423,980721 494555,980669 494658,980563C494776,980456 494820,980326 494820,980173C494820,980018 494776,979888 494673,979783C494570,979678 494438,979625 494276,979625C494129,979625 493997,979678 493894,979783C493791,979888 493747,980016 493747,980169Z" style="fill-rule:nonzero;"/>
                <path d="M495261,980900L495569,979337L496069,980467L496583,979337L496862,980900L496642,980900L496495,980022L496069,980967L495657,980022L495496,980900L495261,980900Z" style="fill-rule:nonzero;"/>
            </g>
        </g>
        <g id="Hangers">
            <g id="Rout-Bottom1" serif:id="Rout Bottom">
                <ellipse cx="160884" cy="1.04851e+06" rx="6513.53" ry="6513.51" style="fill:rgb(255,0,89);fill-opacity:0.509804;"/>
                <g>
                    <path d="M156390,1.03877e+06L156844,1.0394e+06L156573,1.0394e+06L156155,1.0388e+06L156116,1.0388e+06L156116,1.0394e+06L155895,1.0394e+06L155895,1.03793e+06L156154,1.03793e+06C156346,1.03793e+06 156486,1.03797e+06 156572,1.03804e+06C156666,1.03812e+06 156714,1.03823e+06 156714,1.03836e+06C156714,1.03847e+06 156685,1.03856e+06 156625,1.03863e+06C156566,1.0387e+06 156487,1.03875e+06 156390,1.03877e+06ZM156116,1.0386e+06L156186,1.0386e+06C156394,1.0386e+06 156499,1.03852e+06 156499,1.03836e+06C156499,1.03821e+06 156397,1.03814e+06 156195,1.03814e+06L156116,1.03814e+06L156116,1.0386e+06Z" style="fill-rule:nonzero;"/>
                    <path d="M156957,1.03866e+06C156957,1.03845e+06 157031,1.03827e+06 157183,1.03813e+06C157333,1.03798e+06 157514,1.0379e+06 157725,1.0379e+06C157933,1.0379e+06 158112,1.03798e+06 158261,1.03813e+06C158411,1.03828e+06 158485,1.03846e+06 158485,1.03867e+06C158485,1.03888e+06 158411,1.03906e+06 158261,1.0392e+06C158110,1.03935e+06 157926,1.03942e+06 157714,1.03942e+06C157525,1.03942e+06 157356,1.03936e+06 157205,1.03923e+06C157040,1.03908e+06 156957,1.03889e+06 156957,1.03866e+06ZM157180,1.03866e+06C157180,1.03882e+06 157234,1.03896e+06 157343,1.03906e+06C157450,1.03916e+06 157576,1.03922e+06 157717,1.03922e+06C157869,1.03922e+06 157999,1.03916e+06 158105,1.03906e+06C158210,1.03895e+06 158262,1.03882e+06 158262,1.03866e+06C158262,1.03851e+06 158211,1.03838e+06 158107,1.03827e+06C158003,1.03817e+06 157875,1.03811e+06 157723,1.03811e+06C157570,1.03811e+06 157442,1.03817e+06 157337,1.03827e+06C157232,1.03838e+06 157180,1.03851e+06 157180,1.03866e+06Z" style="fill-rule:nonzero;"/>
                    <path d="M158984,1.03793e+06L158984,1.03881e+06C158984,1.03894e+06 159004,1.03903e+06 159045,1.03909e+06C159106,1.03917e+06 159194,1.03922e+06 159304,1.03922e+06C159416,1.03922e+06 159502,1.03917e+06 159563,1.03909e+06C159605,1.03903e+06 159626,1.03894e+06 159626,1.03881e+06L159626,1.03793e+06L159845,1.03793e+06L159845,1.03888e+06C159845,1.03903e+06 159797,1.03916e+06 159701,1.03926e+06C159594,1.03937e+06 159461,1.03942e+06 159304,1.03942e+06C159147,1.03942e+06 159015,1.03937e+06 158907,1.03926e+06C158811,1.03916e+06 158763,1.03903e+06 158763,1.03888e+06L158763,1.03793e+06L158984,1.03793e+06Z" style="fill-rule:nonzero;"/>
                    <path d="M160601,1.03814e+06L160601,1.0394e+06L160379,1.0394e+06L160379,1.03814e+06L160043,1.03814e+06L160043,1.03793e+06L160935,1.03793e+06L160935,1.03814e+06L160601,1.03814e+06Z" style="fill-rule:nonzero;"/>
                    <path d="M161724,1.03929e+06C161724,1.03925e+06 161737,1.03922e+06 161762,1.0392e+06C161788,1.03917e+06 161818,1.03916e+06 161855,1.03916e+06C161891,1.03916e+06 161922,1.03917e+06 161948,1.0392e+06C161974,1.03922e+06 161987,1.03926e+06 161987,1.03929e+06C161987,1.03933e+06 161974,1.03936e+06 161948,1.03938e+06C161923,1.03941e+06 161891,1.03942e+06 161855,1.03942e+06C161818,1.03942e+06 161786,1.03941e+06 161762,1.03938e+06C161735,1.03936e+06 161724,1.03933e+06 161724,1.03929e+06Z" style="fill-rule:nonzero;"/>
                    <path d="M162237,1.03866e+06C162237,1.03842e+06 162291,1.03824e+06 162399,1.0381e+06C162496,1.03797e+06 162614,1.03791e+06 162752,1.03791e+06C162891,1.03791e+06 163009,1.03797e+06 163106,1.0381e+06C163215,1.03824e+06 163269,1.03842e+06 163269,1.03866e+06C163269,1.0389e+06 163215,1.03909e+06 163106,1.03923e+06C163009,1.03936e+06 162892,1.03942e+06 162754,1.03942e+06C162616,1.03942e+06 162498,1.03936e+06 162399,1.03923e+06C162291,1.03909e+06 162237,1.0389e+06 162237,1.03866e+06ZM162454,1.03866e+06C162454,1.03882e+06 162482,1.03895e+06 162539,1.03906e+06C162594,1.03917e+06 162667,1.03922e+06 162752,1.03922e+06C162840,1.03922e+06 162911,1.03917e+06 162968,1.03906e+06C163025,1.03896e+06 163054,1.03882e+06 163054,1.03866e+06C163054,1.0385e+06 163025,1.03837e+06 162968,1.03827e+06C162911,1.03816e+06 162840,1.03811e+06 162752,1.03811e+06C162667,1.03811e+06 162595,1.03816e+06 162539,1.03827e+06C162482,1.03837e+06 162454,1.0385e+06 162454,1.03866e+06Z" style="fill-rule:nonzero;"/>
                    <path d="M164113,1.03788e+06L164276,1.038e+06L163925,1.03848e+06C163944,1.03848e+06 163962,1.03847e+06 163975,1.03847e+06C163988,1.03847e+06 163998,1.03847e+06 164005,1.03847e+06C164125,1.03847e+06 164226,1.03852e+06 164314,1.03861e+06C164400,1.0387e+06 164442,1.03881e+06 164442,1.03893e+06C164442,1.03907e+06 164394,1.03918e+06 164298,1.03928e+06C164203,1.03937e+06 164088,1.03942e+06 163954,1.03942e+06C163822,1.03942e+06 163706,1.03937e+06 163605,1.03928e+06C163508,1.03918e+06 163458,1.03907e+06 163458,1.03894e+06C163458,1.03883e+06 163506,1.03871e+06 163602,1.03858e+06L164113,1.03788e+06ZM164226,1.03895e+06C164226,1.03887e+06 164200,1.0388e+06 164146,1.03875e+06C164093,1.03869e+06 164027,1.03867e+06 163950,1.03867e+06C163873,1.03867e+06 163807,1.03869e+06 163755,1.03875e+06C163701,1.0388e+06 163674,1.03887e+06 163674,1.03894e+06C163674,1.03902e+06 163701,1.03908e+06 163755,1.03914e+06C163807,1.03919e+06 163874,1.03922e+06 163951,1.03922e+06C164027,1.03922e+06 164093,1.03919e+06 164145,1.03914e+06C164200,1.03908e+06 164226,1.03902e+06 164226,1.03895e+06Z" style="fill-rule:nonzero;"/>
                    <path d="M165035,1.03919e+06L165580,1.03919e+06L165580,1.0394e+06L164597,1.0394e+06L165105,1.03878e+06C165155,1.03872e+06 165197,1.03867e+06 165230,1.03862e+06C165264,1.03858e+06 165290,1.03854e+06 165307,1.03851e+06C165344,1.03845e+06 165361,1.0384e+06 165361,1.03835e+06C165361,1.03828e+06 165338,1.03822e+06 165290,1.03818e+06C165242,1.03813e+06 165182,1.03811e+06 165113,1.03811e+06C164964,1.03811e+06 164880,1.0382e+06 164858,1.03837e+06L164638,1.03837e+06C164673,1.03806e+06 164829,1.03791e+06 165105,1.03791e+06C165238,1.03791e+06 165350,1.03795e+06 165440,1.03804e+06C165532,1.03812e+06 165577,1.03822e+06 165577,1.03835e+06C165577,1.03843e+06 165556,1.03851e+06 165514,1.03858e+06C165492,1.03862e+06 165460,1.03867e+06 165420,1.03873e+06C165377,1.03878e+06 165325,1.03884e+06 165262,1.03892e+06L165035,1.03919e+06Z" style="fill-rule:nonzero;"/>
                    <path d="M154164,1.04139e+06L154164,1.03993e+06L154471,1.03993e+06C154618,1.03993e+06 154734,1.03994e+06 154818,1.03997e+06C154910,1.04e+06 154993,1.04005e+06 155067,1.04012e+06C155218,1.04026e+06 155294,1.04044e+06 155294,1.04066e+06C155294,1.04089e+06 155216,1.04107e+06 155058,1.04121e+06C154980,1.04128e+06 154897,1.04133e+06 154810,1.04135e+06C154730,1.04138e+06 154615,1.04139e+06 154466,1.04139e+06L154164,1.04139e+06ZM154383,1.04119e+06L154484,1.04119e+06C154583,1.04119e+06 154666,1.04118e+06 154731,1.04116e+06C154796,1.04113e+06 154856,1.0411e+06 154909,1.04105e+06C155018,1.04095e+06 155071,1.04082e+06 155071,1.04066e+06C155071,1.0405e+06 155018,1.04037e+06 154910,1.04027e+06C154814,1.04018e+06 154671,1.04014e+06 154484,1.04014e+06L154383,1.04014e+06L154383,1.04119e+06Z" style="fill-rule:nonzero;"/>
                    <path d="M156380,1.04014e+06L155792,1.04014e+06L155792,1.04049e+06L156362,1.04049e+06L156362,1.0407e+06L155792,1.0407e+06L155792,1.04119e+06L156380,1.04119e+06L156380,1.04139e+06L155572,1.04139e+06L155572,1.03993e+06L156380,1.03993e+06L156380,1.04014e+06Z" style="fill-rule:nonzero;"/>
                    <path d="M157475,1.04014e+06L156889,1.04014e+06L156889,1.04049e+06L157459,1.04049e+06L157459,1.0407e+06L156889,1.0407e+06L156889,1.04119e+06L157475,1.04119e+06L157475,1.04139e+06L156669,1.04139e+06L156669,1.03993e+06L157475,1.03993e+06L157475,1.04014e+06Z" style="fill-rule:nonzero;"/>
                    <path d="M157986,1.0408e+06L157986,1.04139e+06L157766,1.04139e+06L157766,1.03993e+06L158016,1.03993e+06C158139,1.03993e+06 158230,1.03994e+06 158293,1.03996e+06C158357,1.03997e+06 158412,1.04001e+06 158460,1.04005e+06C158545,1.04014e+06 158585,1.04024e+06 158585,1.04036e+06C158585,1.0405e+06 158542,1.0406e+06 158451,1.04068e+06C158361,1.04076e+06 158240,1.0408e+06 158089,1.0408e+06L157986,1.0408e+06ZM157986,1.0406e+06L158069,1.0406e+06C158271,1.0406e+06 158373,1.04052e+06 158373,1.04036e+06C158373,1.04021e+06 158268,1.04013e+06 158059,1.04013e+06L157986,1.04013e+06L157986,1.0406e+06Z" style="fill-rule:nonzero;"/>
                    <path d="M159412,1.04139e+06L159412,1.03993e+06L159631,1.03993e+06C159730,1.03993e+06 159808,1.03994e+06 159866,1.03995e+06C159924,1.03997e+06 159973,1.03999e+06 160014,1.04003e+06C160055,1.04007e+06 160088,1.04011e+06 160112,1.04017e+06C160136,1.04023e+06 160149,1.04028e+06 160149,1.04034e+06C160149,1.04045e+06 160109,1.04053e+06 160029,1.04061e+06C160106,1.04063e+06 160168,1.04068e+06 160212,1.04075e+06C160257,1.04081e+06 160280,1.04089e+06 160280,1.04097e+06C160280,1.04109e+06 160240,1.04119e+06 160160,1.04126e+06C160110,1.04131e+06 160056,1.04135e+06 159995,1.04137e+06C159930,1.04138e+06 159847,1.04139e+06 159746,1.04139e+06L159412,1.04139e+06ZM159633,1.04056e+06L159701,1.04056e+06C159784,1.04056e+06 159844,1.04054e+06 159882,1.0405e+06C159921,1.04047e+06 159940,1.04041e+06 159940,1.04034e+06C159940,1.04028e+06 159920,1.04022e+06 159880,1.04019e+06C159841,1.04015e+06 159784,1.04013e+06 159710,1.04013e+06L159633,1.04013e+06L159633,1.04056e+06ZM159633,1.04119e+06L159770,1.04119e+06C159869,1.04119e+06 159941,1.04117e+06 159989,1.04113e+06C160037,1.04109e+06 160062,1.04103e+06 160062,1.04097e+06C160062,1.0409e+06 160039,1.04085e+06 159992,1.04081e+06C159946,1.04077e+06 159863,1.04074e+06 159745,1.04074e+06L159633,1.04074e+06L159633,1.04119e+06Z" style="fill-rule:nonzero;"/>
                    <path d="M160475,1.04066e+06C160475,1.04045e+06 160551,1.04027e+06 160701,1.04013e+06C160851,1.03998e+06 161033,1.0399e+06 161244,1.0399e+06C161452,1.0399e+06 161631,1.03998e+06 161779,1.04013e+06C161929,1.04028e+06 162003,1.04046e+06 162003,1.04066e+06C162003,1.04087e+06 161929,1.04105e+06 161779,1.0412e+06C161628,1.04135e+06 161444,1.04142e+06 161232,1.04142e+06C161043,1.04142e+06 160873,1.04135e+06 160723,1.04122e+06C160557,1.04108e+06 160475,1.04089e+06 160475,1.04066e+06ZM160698,1.04066e+06C160698,1.04082e+06 160752,1.04095e+06 160861,1.04106e+06C160969,1.04116e+06 161092,1.04121e+06 161235,1.04121e+06C161388,1.04121e+06 161517,1.04116e+06 161623,1.04105e+06C161728,1.04095e+06 161781,1.04082e+06 161781,1.04066e+06C161781,1.04051e+06 161730,1.04038e+06 161625,1.04027e+06C161522,1.04016e+06 161394,1.04011e+06 161241,1.04011e+06C161088,1.04011e+06 160960,1.04016e+06 160855,1.04027e+06C160750,1.04038e+06 160698,1.0405e+06 160698,1.04066e+06Z" style="fill-rule:nonzero;"/>
                    <path d="M162633,1.04014e+06L162633,1.04139e+06L162412,1.04139e+06L162412,1.04014e+06L162076,1.04014e+06L162076,1.03993e+06L162968,1.03993e+06L162968,1.04014e+06L162633,1.04014e+06Z" style="fill-rule:nonzero;"/>
                    <path d="M163569,1.04014e+06L163569,1.04139e+06L163348,1.04139e+06L163348,1.04014e+06L163011,1.04014e+06L163011,1.03993e+06L163903,1.03993e+06L163903,1.04014e+06L163569,1.04014e+06Z" style="fill-rule:nonzero;"/>
                    <path d="M163982,1.04066e+06C163982,1.04045e+06 164058,1.04027e+06 164208,1.04013e+06C164359,1.03998e+06 164539,1.0399e+06 164750,1.0399e+06C164958,1.0399e+06 165137,1.03998e+06 165286,1.04013e+06C165436,1.04028e+06 165511,1.04046e+06 165511,1.04066e+06C165511,1.04087e+06 165436,1.04105e+06 165286,1.0412e+06C165134,1.04135e+06 164952,1.04142e+06 164739,1.04142e+06C164549,1.04142e+06 164381,1.04135e+06 164229,1.04122e+06C164065,1.04108e+06 163982,1.04089e+06 163982,1.04066e+06ZM164205,1.04066e+06C164205,1.04082e+06 164258,1.04095e+06 164368,1.04106e+06C164475,1.04116e+06 164600,1.04121e+06 164741,1.04121e+06C164894,1.04121e+06 165024,1.04116e+06 165130,1.04105e+06C165235,1.04095e+06 165289,1.04082e+06 165289,1.04066e+06C165289,1.04051e+06 165236,1.04038e+06 165131,1.04027e+06C165028,1.04016e+06 164900,1.04011e+06 164747,1.04011e+06C164595,1.04011e+06 164466,1.04016e+06 164362,1.04027e+06C164257,1.04038e+06 164205,1.0405e+06 164205,1.04066e+06Z" style="fill-rule:nonzero;"/>
                    <path d="M165737,1.04139e+06L166045,1.03982e+06L166547,1.04096e+06L167067,1.03982e+06L167343,1.04139e+06L167118,1.04139e+06L166976,1.04051e+06L166543,1.04146e+06L166122,1.04051e+06L165965,1.04139e+06L165737,1.04139e+06Z" style="fill-rule:nonzero;"/>
                </g>
            </g>
            <g id="Rout-Bottom2" serif:id="Rout Bottom">
                <ellipse cx="345344" cy="1.04851e+06" rx="6513.53" ry="6513.51" style="fill:rgb(255,0,89);fill-opacity:0.509804;"/>
                <g>
                    <path d="M340850,1.03877e+06L341304,1.0394e+06L341034,1.0394e+06L340616,1.0388e+06L340577,1.0388e+06L340577,1.0394e+06L340356,1.0394e+06L340356,1.03793e+06L340615,1.03793e+06C340807,1.03793e+06 340946,1.03797e+06 341032,1.03804e+06C341127,1.03812e+06 341175,1.03823e+06 341175,1.03836e+06C341175,1.03847e+06 341146,1.03856e+06 341086,1.03863e+06C341026,1.0387e+06 340948,1.03875e+06 340850,1.03877e+06ZM340577,1.0386e+06L340647,1.0386e+06C340855,1.0386e+06 340959,1.03852e+06 340959,1.03836e+06C340959,1.03821e+06 340858,1.03814e+06 340655,1.03814e+06L340577,1.03814e+06L340577,1.0386e+06Z" style="fill-rule:nonzero;"/>
                    <path d="M341418,1.03866e+06C341418,1.03845e+06 341492,1.03827e+06 341643,1.03813e+06C341793,1.03798e+06 341975,1.0379e+06 342186,1.0379e+06C342394,1.0379e+06 342573,1.03798e+06 342721,1.03813e+06C342871,1.03828e+06 342946,1.03846e+06 342946,1.03867e+06C342946,1.03888e+06 342871,1.03906e+06 342721,1.0392e+06C342570,1.03935e+06 342387,1.03942e+06 342174,1.03942e+06C341985,1.03942e+06 341816,1.03936e+06 341665,1.03923e+06C341501,1.03908e+06 341418,1.03889e+06 341418,1.03866e+06ZM341640,1.03866e+06C341640,1.03882e+06 341694,1.03896e+06 341803,1.03906e+06C341911,1.03916e+06 342036,1.03922e+06 342177,1.03922e+06C342330,1.03922e+06 342460,1.03916e+06 342566,1.03906e+06C342671,1.03895e+06 342723,1.03882e+06 342723,1.03866e+06C342723,1.03851e+06 342672,1.03838e+06 342567,1.03827e+06C342464,1.03817e+06 342336,1.03811e+06 342183,1.03811e+06C342030,1.03811e+06 341902,1.03817e+06 341798,1.03827e+06C341693,1.03838e+06 341640,1.03851e+06 341640,1.03866e+06Z" style="fill-rule:nonzero;"/>
                    <path d="M343445,1.03793e+06L343445,1.03881e+06C343445,1.03894e+06 343465,1.03903e+06 343506,1.03909e+06C343567,1.03917e+06 343654,1.03922e+06 343765,1.03922e+06C343877,1.03922e+06 343963,1.03917e+06 344024,1.03909e+06C344066,1.03903e+06 344086,1.03894e+06 344086,1.03881e+06L344086,1.03793e+06L344306,1.03793e+06L344306,1.03888e+06C344306,1.03903e+06 344258,1.03916e+06 344162,1.03926e+06C344054,1.03937e+06 343922,1.03942e+06 343765,1.03942e+06C343608,1.03942e+06 343475,1.03937e+06 343367,1.03926e+06C343271,1.03916e+06 343223,1.03903e+06 343223,1.03888e+06L343223,1.03793e+06L343445,1.03793e+06Z" style="fill-rule:nonzero;"/>
                    <path d="M345061,1.03814e+06L345061,1.0394e+06L344840,1.0394e+06L344840,1.03814e+06L344504,1.03814e+06L344504,1.03793e+06L345396,1.03793e+06L345396,1.03814e+06L345061,1.03814e+06Z" style="fill-rule:nonzero;"/>
                    <path d="M346184,1.03929e+06C346184,1.03925e+06 346197,1.03922e+06 346222,1.0392e+06C346248,1.03917e+06 346279,1.03916e+06 346315,1.03916e+06C346352,1.03916e+06 346382,1.03917e+06 346408,1.0392e+06C346435,1.03922e+06 346448,1.03926e+06 346448,1.03929e+06C346448,1.03933e+06 346435,1.03936e+06 346408,1.03938e+06C346384,1.03941e+06 346352,1.03942e+06 346315,1.03942e+06C346279,1.03942e+06 346247,1.03941e+06 346222,1.03938e+06C346196,1.03936e+06 346184,1.03933e+06 346184,1.03929e+06Z" style="fill-rule:nonzero;"/>
                    <path d="M346698,1.03866e+06C346698,1.03842e+06 346752,1.03824e+06 346859,1.0381e+06C346957,1.03797e+06 347075,1.03791e+06 347213,1.03791e+06C347351,1.03791e+06 347469,1.03797e+06 347567,1.0381e+06C347676,1.03824e+06 347730,1.03842e+06 347730,1.03866e+06C347730,1.0389e+06 347676,1.03909e+06 347567,1.03923e+06C347469,1.03936e+06 347353,1.03942e+06 347215,1.03942e+06C347076,1.03942e+06 346958,1.03936e+06 346859,1.03923e+06C346752,1.03909e+06 346698,1.0389e+06 346698,1.03866e+06ZM346915,1.03866e+06C346915,1.03882e+06 346942,1.03895e+06 346999,1.03906e+06C347054,1.03917e+06 347127,1.03922e+06 347213,1.03922e+06C347300,1.03922e+06 347372,1.03917e+06 347428,1.03906e+06C347485,1.03896e+06 347514,1.03882e+06 347514,1.03866e+06C347514,1.0385e+06 347485,1.03837e+06 347428,1.03827e+06C347372,1.03816e+06 347300,1.03811e+06 347213,1.03811e+06C347127,1.03811e+06 347056,1.03816e+06 346999,1.03827e+06C346942,1.03837e+06 346915,1.0385e+06 346915,1.03866e+06Z" style="fill-rule:nonzero;"/>
                    <path d="M348573,1.03788e+06L348736,1.038e+06L348386,1.03848e+06C348405,1.03848e+06 348422,1.03847e+06 348435,1.03847e+06C348448,1.03847e+06 348459,1.03847e+06 348466,1.03847e+06C348585,1.03847e+06 348687,1.03852e+06 348774,1.03861e+06C348860,1.0387e+06 348902,1.03881e+06 348902,1.03893e+06C348902,1.03907e+06 348854,1.03918e+06 348758,1.03928e+06C348664,1.03937e+06 348549,1.03942e+06 348415,1.03942e+06C348282,1.03942e+06 348166,1.03937e+06 348066,1.03928e+06C347968,1.03918e+06 347919,1.03907e+06 347919,1.03894e+06C347919,1.03883e+06 347967,1.03871e+06 348063,1.03858e+06L348573,1.03788e+06ZM348687,1.03895e+06C348687,1.03887e+06 348661,1.0388e+06 348607,1.03875e+06C348553,1.03869e+06 348488,1.03867e+06 348411,1.03867e+06C348333,1.03867e+06 348268,1.03869e+06 348216,1.03875e+06C348162,1.0388e+06 348134,1.03887e+06 348134,1.03894e+06C348134,1.03902e+06 348162,1.03908e+06 348216,1.03914e+06C348268,1.03919e+06 348335,1.03922e+06 348412,1.03922e+06C348488,1.03922e+06 348553,1.03919e+06 348606,1.03914e+06C348661,1.03908e+06 348687,1.03902e+06 348687,1.03895e+06Z" style="fill-rule:nonzero;"/>
                    <path d="M349496,1.03919e+06L350040,1.03919e+06L350040,1.0394e+06L349058,1.0394e+06L349566,1.03878e+06C349615,1.03872e+06 349657,1.03867e+06 349691,1.03862e+06C349724,1.03858e+06 349751,1.03854e+06 349768,1.03851e+06C349804,1.03845e+06 349822,1.0384e+06 349822,1.03835e+06C349822,1.03828e+06 349799,1.03822e+06 349751,1.03818e+06C349703,1.03813e+06 349643,1.03811e+06 349573,1.03811e+06C349425,1.03811e+06 349340,1.0382e+06 349318,1.03837e+06L349099,1.03837e+06C349134,1.03806e+06 349289,1.03791e+06 349566,1.03791e+06C349698,1.03791e+06 349810,1.03795e+06 349900,1.03804e+06C349992,1.03812e+06 350037,1.03822e+06 350037,1.03835e+06C350037,1.03843e+06 350017,1.03851e+06 349975,1.03858e+06C349953,1.03862e+06 349921,1.03867e+06 349880,1.03873e+06C349838,1.03878e+06 349786,1.03884e+06 349723,1.03892e+06L349496,1.03919e+06Z" style="fill-rule:nonzero;"/>
                    <path d="M338624,1.04139e+06L338624,1.03993e+06L338931,1.03993e+06C339078,1.03993e+06 339194,1.03994e+06 339279,1.03997e+06C339371,1.04e+06 339453,1.04005e+06 339528,1.04012e+06C339679,1.04026e+06 339755,1.04044e+06 339755,1.04066e+06C339755,1.04089e+06 339676,1.04107e+06 339519,1.04121e+06C339440,1.04128e+06 339357,1.04133e+06 339270,1.04135e+06C339190,1.04138e+06 339075,1.04139e+06 338927,1.04139e+06L338624,1.04139e+06ZM338844,1.04119e+06L338944,1.04119e+06C339043,1.04119e+06 339126,1.04118e+06 339192,1.04116e+06C339257,1.04113e+06 339317,1.0411e+06 339369,1.04105e+06C339478,1.04095e+06 339532,1.04082e+06 339532,1.04066e+06C339532,1.0405e+06 339478,1.04037e+06 339371,1.04027e+06C339275,1.04018e+06 339132,1.04014e+06 338944,1.04014e+06L338844,1.04014e+06L338844,1.04119e+06Z" style="fill-rule:nonzero;"/>
                    <path d="M340840,1.04014e+06L340252,1.04014e+06L340252,1.04049e+06L340823,1.04049e+06L340823,1.0407e+06L340252,1.0407e+06L340252,1.04119e+06L340840,1.04119e+06L340840,1.04139e+06L340033,1.04139e+06L340033,1.03993e+06L340840,1.03993e+06L340840,1.04014e+06Z" style="fill-rule:nonzero;"/>
                    <path d="M341936,1.04014e+06L341349,1.04014e+06L341349,1.04049e+06L341920,1.04049e+06L341920,1.0407e+06L341349,1.0407e+06L341349,1.04119e+06L341936,1.04119e+06L341936,1.04139e+06L341130,1.04139e+06L341130,1.03993e+06L341936,1.03993e+06L341936,1.04014e+06Z" style="fill-rule:nonzero;"/>
                    <path d="M342446,1.0408e+06L342446,1.04139e+06L342227,1.04139e+06L342227,1.03993e+06L342477,1.03993e+06C342599,1.03993e+06 342691,1.03994e+06 342753,1.03996e+06C342817,1.03997e+06 342873,1.04001e+06 342921,1.04005e+06C343005,1.04014e+06 343046,1.04024e+06 343046,1.04036e+06C343046,1.0405e+06 343002,1.0406e+06 342912,1.04068e+06C342822,1.04076e+06 342701,1.0408e+06 342550,1.0408e+06L342446,1.0408e+06ZM342446,1.0406e+06L342529,1.0406e+06C342732,1.0406e+06 342833,1.04052e+06 342833,1.04036e+06C342833,1.04021e+06 342729,1.04013e+06 342519,1.04013e+06L342446,1.04013e+06L342446,1.0406e+06Z" style="fill-rule:nonzero;"/>
                    <path d="M343872,1.04139e+06L343872,1.03993e+06L344092,1.03993e+06C344191,1.03993e+06 344268,1.03994e+06 344326,1.03995e+06C344385,1.03997e+06 344434,1.03999e+06 344475,1.04003e+06C344515,1.04007e+06 344549,1.04011e+06 344572,1.04017e+06C344597,1.04023e+06 344610,1.04028e+06 344610,1.04034e+06C344610,1.04045e+06 344569,1.04053e+06 344489,1.04061e+06C344566,1.04063e+06 344629,1.04068e+06 344673,1.04075e+06C344718,1.04081e+06 344741,1.04089e+06 344741,1.04097e+06C344741,1.04109e+06 344700,1.04119e+06 344620,1.04126e+06C344571,1.04131e+06 344517,1.04135e+06 344456,1.04137e+06C344390,1.04138e+06 344307,1.04139e+06 344207,1.04139e+06L343872,1.04139e+06ZM344094,1.04056e+06L344162,1.04056e+06C344245,1.04056e+06 344304,1.04054e+06 344342,1.0405e+06C344382,1.04047e+06 344401,1.04041e+06 344401,1.04034e+06C344401,1.04028e+06 344380,1.04022e+06 344341,1.04019e+06C344302,1.04015e+06 344245,1.04013e+06 344171,1.04013e+06L344094,1.04013e+06L344094,1.04056e+06ZM344094,1.04119e+06L344230,1.04119e+06C344329,1.04119e+06 344402,1.04117e+06 344450,1.04113e+06C344498,1.04109e+06 344523,1.04103e+06 344523,1.04097e+06C344523,1.0409e+06 344499,1.04085e+06 344453,1.04081e+06C344406,1.04077e+06 344323,1.04074e+06 344206,1.04074e+06L344094,1.04074e+06L344094,1.04119e+06Z" style="fill-rule:nonzero;"/>
                    <path d="M344936,1.04066e+06C344936,1.04045e+06 345012,1.04027e+06 345161,1.04013e+06C345311,1.03998e+06 345493,1.0399e+06 345704,1.0399e+06C345912,1.0399e+06 346091,1.03998e+06 346240,1.04013e+06C346390,1.04028e+06 346464,1.04046e+06 346464,1.04066e+06C346464,1.04087e+06 346390,1.04105e+06 346240,1.0412e+06C346088,1.04135e+06 345905,1.04142e+06 345693,1.04142e+06C345503,1.04142e+06 345333,1.04135e+06 345183,1.04122e+06C345017,1.04108e+06 344936,1.04089e+06 344936,1.04066e+06ZM345159,1.04066e+06C345159,1.04082e+06 345212,1.04095e+06 345322,1.04106e+06C345429,1.04116e+06 345553,1.04121e+06 345695,1.04121e+06C345848,1.04121e+06 345978,1.04116e+06 346084,1.04105e+06C346189,1.04095e+06 346241,1.04082e+06 346241,1.04066e+06C346241,1.04051e+06 346190,1.04038e+06 346085,1.04027e+06C345982,1.04016e+06 345854,1.04011e+06 345701,1.04011e+06C345549,1.04011e+06 345420,1.04016e+06 345316,1.04027e+06C345211,1.04038e+06 345159,1.0405e+06 345159,1.04066e+06Z" style="fill-rule:nonzero;"/>
                    <path d="M347094,1.04014e+06L347094,1.04139e+06L346873,1.04139e+06L346873,1.04014e+06L346536,1.04014e+06L346536,1.03993e+06L347428,1.03993e+06L347428,1.04014e+06L347094,1.04014e+06Z" style="fill-rule:nonzero;"/>
                    <path d="M348029,1.04014e+06L348029,1.04139e+06L347808,1.04139e+06L347808,1.04014e+06L347472,1.04014e+06L347472,1.03993e+06L348364,1.03993e+06L348364,1.04014e+06L348029,1.04014e+06Z" style="fill-rule:nonzero;"/>
                    <path d="M348443,1.04066e+06C348443,1.04045e+06 348518,1.04027e+06 348668,1.04013e+06C348819,1.03998e+06 349000,1.0399e+06 349211,1.0399e+06C349419,1.0399e+06 349598,1.03998e+06 349746,1.04013e+06C349896,1.04028e+06 349972,1.04046e+06 349972,1.04066e+06C349972,1.04087e+06 349896,1.04105e+06 349746,1.0412e+06C349595,1.04135e+06 349413,1.04142e+06 349199,1.04142e+06C349010,1.04142e+06 348841,1.04135e+06 348690,1.04122e+06C348525,1.04108e+06 348443,1.04089e+06 348443,1.04066e+06ZM348665,1.04066e+06C348665,1.04082e+06 348719,1.04095e+06 348828,1.04106e+06C348936,1.04116e+06 349061,1.04121e+06 349202,1.04121e+06C349355,1.04121e+06 349484,1.04116e+06 349591,1.04105e+06C349695,1.04095e+06 349749,1.04082e+06 349749,1.04066e+06C349749,1.04051e+06 349697,1.04038e+06 349592,1.04027e+06C349489,1.04016e+06 349361,1.04011e+06 349208,1.04011e+06C349055,1.04011e+06 348927,1.04016e+06 348822,1.04027e+06C348718,1.04038e+06 348665,1.0405e+06 348665,1.04066e+06Z" style="fill-rule:nonzero;"/>
                    <path d="M350197,1.04139e+06L350506,1.03982e+06L351008,1.04096e+06L351527,1.03982e+06L351804,1.04139e+06L351578,1.04139e+06L351437,1.04051e+06L351003,1.04146e+06L350583,1.04051e+06L350426,1.04139e+06L350197,1.04139e+06Z" style="fill-rule:nonzero;"/>
                </g>
            </g>
        </g>
        <g id="Magnets">
            <g id="Rout-Bottom3" serif:id="Rout Bottom">
                <path d="M354850,664959C370975,657036 390498,663696 398421,679821C406344,695946 399684,715469 383559,723392C367434,731314 347911,724655 339988,708530C332066,692405 338725,672882 354850,664959Z" style="fill:rgb(255,2,91);fill-opacity:0.466667;"/>
                <g>
                    <path d="M370666,720965L371842,721588L371424,721793L370324,721181L370256,721214L370712,722143L370373,722310L369258,720039L369653,719844C369958,719695 370200,719646 370392,719692C370600,719745 370749,719878 370850,720084C370929,720244 370952,720405 370919,720565C370885,720726 370797,720860 370666,720965ZM370109,720915L370222,720860C370538,720704 370647,720497 370525,720249C370411,720016 370195,719978 369879,720133L369755,720194L370109,720915Z" style="fill-rule:nonzero;"/>
                    <path d="M371460,720354C371303,720034 371281,719704 371406,719358C371519,719018 371745,718764 372072,718603C372400,718442 372740,718419 373079,718540C373430,718654 373680,718877 373839,719201C374000,719528 374011,719866 373898,720205C373772,720550 373546,720803 373218,720964C372925,721108 372603,721140 372278,721047C371908,720951 371639,720717 371460,720354ZM371801,720192C371924,720442 372116,720605 372365,720683C372614,720761 372846,720748 373061,720643C373298,720526 373461,720344 373549,720096C373626,719852 373605,719610 373487,719370C373368,719128 373189,718964 372951,718878C372712,718791 372468,718808 372230,718925C371993,719041 371830,719224 371753,719466C371675,719707 371683,719952 371801,720192Z" style="fill-rule:nonzero;"/>
                    <path d="M374048,717685L374720,719053C374816,719249 374920,719375 375032,719432C375186,719517 375354,719516 375524,719433C375704,719344 375808,719212 375834,719037C375859,718917 375823,718757 375726,718559L375053,717191L375392,717025L376111,718487C376228,718726 376246,718963 376176,719190C376091,719446 375930,719631 375681,719754C375444,719870 375199,719884 374944,719795C374721,719712 374545,719553 374427,719314L373709,717852L374048,717685Z" style="fill-rule:nonzero;"/>
                    <path d="M376714,716775L377672,718724L377333,718890L376375,716941L375856,717197L375697,716875L377087,716192L377245,716514L376714,716775Z" style="fill-rule:nonzero;"/>
                    <path d="M379343,717700C379315,717644 379315,717586 379329,717528C379354,717467 379390,717424 379446,717396C379502,717368 379558,717367 379622,717384C379676,717408 379722,717444 379750,717501C379778,717557 379779,717617 379765,717674C379739,717736 379703,717777 379647,717805C379590,717833 379536,717836 379471,717819C379418,717796 379371,717758 379343,717700Z" style="fill-rule:nonzero;"/>
                    <path d="M380351,716099L380208,715806C380354,715734 380448,715667 380477,715613C380539,715511 380540,715399 380479,715273C380431,715176 380358,715114 380260,715086C380173,715051 380068,715065 379966,715115C379876,715160 379808,715221 379786,715290C379752,715365 379757,715461 379790,715584L379451,715750C379380,715520 379370,715330 379434,715175C379499,715020 379621,714898 379824,714798C380016,714704 380215,714679 380397,714735C380578,714791 380709,714914 380800,715099C380902,715306 380902,715507 380801,715701C381036,715723 381226,715853 381348,716101C381449,716306 381452,716512 381380,716707C381308,716904 381170,717051 380955,717157C380673,717296 380420,717295 380197,717155C380099,717098 380008,716998 379912,716860L380251,716694C380316,716798 380403,716860 380499,716884C380596,716910 380700,716895 380813,716839C380926,716784 380998,716702 381030,716595C381072,716481 381059,716369 381002,716253C380927,716100 380817,716020 380672,716010C380597,716000 380487,716032 380351,716099Z" style="fill-rule:nonzero;"/>
                    <path d="M381549,714398L381154,714592L381188,714177L381731,713910L382846,716181L382507,716348L381549,714398Z" style="fill-rule:nonzero;"/>
                    <path d="M383908,715260L384756,714844L384914,715166L383377,715920L383699,714577C383732,714443 383759,714328 383782,714231C383792,714139 383809,714058 383808,714000C383819,713880 383813,713781 383777,713707C383725,713601 383636,713534 383533,713496C383419,713464 383311,713472 383198,713528C382972,713639 382903,713841 383003,714130L382664,714296C382485,713790 382604,713434 383034,713223C383248,713117 383450,713099 383650,713165C383862,713224 384009,713353 384105,713548C384165,713671 384191,713809 384182,713961C384178,714039 384169,714135 384143,714253C384128,714365 384087,714510 384054,714671L383908,715260Z" style="fill-rule:nonzero;"/>
                    <path d="M386371,714449L385256,712179L385730,711945C385956,711834 386148,711768 386306,711747C386463,711724 386635,711732 386800,711783C387143,711880 387394,712106 387565,712454C387736,712803 387751,713146 387619,713479C387548,713648 387461,713784 387346,713892C387243,713996 387072,714105 386835,714222L386371,714449ZM386552,713961L386710,713883C386857,713811 386985,713729 387071,713646C387156,713562 387219,713463 387262,713350C387356,713113 387347,712868 387226,712620C387104,712372 386914,712214 386668,712142C386453,712075 386205,712112 385911,712256L385753,712334L386552,713961Z" style="fill-rule:nonzero;"/>
                    <path d="M388848,710813L387945,711257L388213,711803L389094,711370L389252,711692L388371,712125L388744,712884L389648,712440L389806,712762L388552,713378L387436,711107L388690,710491L388848,710813Z" style="fill-rule:nonzero;"/>
                    <path d="M390554,709975L389651,710419L389919,710965L390800,710532L390958,710854L390077,711287L390450,712046L391354,711602L391512,711924L390258,712540L389142,710269L390396,709653L390554,709975Z" style="fill-rule:nonzero;"/>
                    <path d="M391850,710613L392303,711535L391964,711702L390848,709431L391232,709242C391424,709148 391578,709089 391692,709065C391796,709048 391911,709053 392015,709093C392213,709154 392360,709281 392455,709476C392557,709684 392559,709887 392484,710076C392407,710264 392245,710419 392008,710536L391850,710613ZM391694,710296L391829,710229C392146,710074 392233,709881 392114,709638C391999,709404 391783,709364 391455,709525L391343,709581L391694,710296Z" style="fill-rule:nonzero;"/>
                    <path d="M373378,724686L372262,722414L372601,722248C372748,722175 372878,722127 372980,722105C373082,722084 373180,722085 373264,722114C373360,722138 373441,722188 373529,722252C373606,722323 373672,722400 373716,722489C373795,722652 373795,722823 373727,722997C373871,722977 373997,723005 374126,723069C374244,723137 374336,723239 374403,723375C374490,723552 374496,723736 374432,723919C374401,724028 374337,724125 374261,724199C374173,724277 374045,724359 373887,724436L373378,724686ZM373080,723223L373182,723173C373317,723106 373394,723033 373423,722950C373452,722866 373444,722766 373391,722656C373338,722549 373264,722484 373180,722456C373097,722429 372993,722446 372869,722507L372756,722563L373080,723223ZM373558,724196L373773,724091C373920,724019 374018,723933 374068,723834C374114,723730 374107,723629 374057,723528C374010,723431 373935,723365 373823,723337C373723,723304 373582,723332 373390,723426L373221,723510L373558,724196Z" style="fill-rule:nonzero;"/>
                    <path d="M374464,722729C374307,722409 374285,722079 374410,721733C374523,721393 374749,721139 375077,720978C375404,720817 375733,720800 376084,720915C376423,721036 376684,721252 376844,721577C377004,721903 377016,722241 376902,722580C376777,722925 376550,723178 376223,723339C375929,723483 375608,723515 375282,723423C374912,723326 374643,723093 374464,722729ZM374805,722567C374929,722818 375121,722980 375370,723058C375608,723143 375850,723124 376065,723018C376302,722902 376465,722719 376542,722477C376630,722227 376609,721985 376492,721745C376373,721504 376194,721339 375955,721253C375705,721171 375473,721184 375235,721301C374998,721418 374835,721599 374758,721841C374668,722087 374688,722327 374805,722567Z" style="fill-rule:nonzero;"/>
                    <path d="M377414,720282L378372,722233L378033,722399L377075,720449L376555,720704L376397,720382L377775,719705L377934,720027L377414,720282Z" style="fill-rule:nonzero;"/>
                    <path d="M378871,719566L379829,721516L379479,721689L378521,719738L378001,719994L377843,719672L379233,718989L379391,719311L378871,719566Z" style="fill-rule:nonzero;"/>
                    <path d="M379910,720053C379753,719734 379731,719404 379856,719058C379969,718717 380195,718463 380522,718302C380850,718141 381178,718124 381529,718239C381880,718354 382130,718577 382289,718901C382450,719228 382473,719560 382348,719905C382222,720250 381996,720502 381668,720663C381375,720808 381054,720839 380728,720747C380358,720651 380089,720417 379910,720053ZM380251,719891C380374,720142 380566,720304 380815,720383C381053,720468 381296,720448 381511,720343C381748,720226 381911,720044 381999,719795C382076,719552 382055,719309 381937,719070C381819,718828 381640,718664 381401,718577C381162,718490 380918,718509 380681,718625C380444,718742 380280,718923 380203,719166C380114,719412 380133,719652 380251,719891Z" style="fill-rule:nonzero;"/>
                    <path d="M383196,719862L382471,717186L384118,718569L384064,716404L385693,718635L385343,718808L384443,717547L384501,719350L383121,718195L383546,719690L383196,719862Z" style="fill-rule:nonzero;"/>
                    <path d="M387432,715381L387242,715678C387141,715617 387067,715580 386997,715580C386936,715570 386872,715583 386793,715622C386692,715672 386625,715737 386595,715819C386554,715905 386553,715989 386592,716069C386646,716180 386781,716225 386972,716215L387244,716196C387472,716176 387653,716201 387785,716270C387928,716333 388037,716442 388114,716597C388217,716807 388223,717018 388154,717222C388086,717425 387939,717583 387735,717683C387532,717782 387345,717801 387164,717746C386971,717696 386811,717570 386684,717370L386985,717127C387074,717249 387142,717330 387212,717359C387328,717424 387454,717423 387589,717356C387691,717306 387763,717226 387796,717121C387840,717011 387829,716903 387775,716793C387754,716749 387722,716714 387693,716684C387664,716652 387636,716623 387587,716610C387549,716590 387501,716577 387443,716573C387395,716562 387326,716564 387258,716568L386998,716582C386618,716606 386376,716486 386252,716233C386168,716063 386154,715891 386234,715711C386301,715533 386442,715392 386634,715298C386894,715170 387160,715198 387432,715381Z" style="fill-rule:nonzero;"/>
                    <path d="M388083,714641L387740,714809L388856,717080L389198,716912L388083,714641Z"/>
                    <path d="M389749,716643L388633,714371L389107,714137C389333,714026 389525,713960 389683,713939C389840,713916 390013,713925 390178,713975C390520,714072 390771,714298 390942,714646C391113,714995 391128,715338 390997,715671C390926,715840 390838,715976 390724,716085C390620,716188 390450,716298 390212,716415L389749,716643ZM389929,716153L390087,716075C390234,716003 390362,715921 390448,715838C390533,715754 390596,715655 390639,715542C390733,715305 390724,715060 390603,714812C390481,714564 390291,714406 390057,714329C389830,714267 389582,714304 389288,714448L389130,714526L389929,716153Z" style="fill-rule:nonzero;"/>
                    <path d="M392226,713005L391322,713449L391590,713995L392471,713562L392630,713885L391749,714318L392121,715076L393025,714632L393184,714955L391930,715571L390813,713299L392067,712683L392226,713005Z" style="fill-rule:nonzero;"/>
                </g>
            </g>
            <g id="Rout-Bottom4" serif:id="Rout Bottom">
                <path d="M402417,593434C419380,599352 428348,617928 422430,634892C416512,651855 397935,660823 380972,654905C364008,648987 355040,630410 360958,613447C366876,596483 385453,587516 402417,593434Z" style="fill:rgb(255,2,91);fill-opacity:0.466667;"/>
                <g>
                    <path d="M373646,644021L374028,645296L373588,645142L373252,643929L373180,643904L372839,644881L372483,644757L373316,642368L373732,642513C374053,642625 374258,642763 374360,642932C374468,643117 374478,643317 374403,643533C374344,643702 374245,643832 374108,643920C373970,644009 373813,644041 373646,644021ZM373290,643589L373409,643631C373742,643747 373966,643678 374057,643418C374142,643173 374018,642993 373686,642876L373555,642831L373290,643589Z" style="fill-rule:nonzero;"/>
                    <path d="M374639,644157C374756,643821 374976,643573 375309,643419C375631,643261 375971,643243 376315,643363C376660,643484 376915,643710 377067,644036C377232,644366 377249,644701 377130,645042C377010,645385 376778,645631 376456,645788C376123,645941 375784,645958 375439,645837C375130,645730 374882,645523 374719,645226C374528,644895 374505,644540 374639,644157ZM374994,644286C374902,644550 374921,644801 375040,645033C375159,645265 375331,645421 375557,645500C375806,645587 376051,645575 376289,645463C376517,645347 376675,645162 376762,644910C376851,644655 376843,644413 376736,644182C376631,643951 376447,643789 376197,643702C375948,643615 375703,643627 375476,643743C375250,643856 375081,644034 374994,644286Z" style="fill-rule:nonzero;"/>
                    <path d="M378356,644126L377854,645565C377782,645771 377765,645933 377804,646053C377851,646223 377970,646342 378148,646404C378338,646470 378505,646451 378647,646347C378751,646281 378839,646142 378912,645934L379414,644495L379770,644619L379234,646157C379146,646409 378990,646588 378779,646697C378537,646817 378292,646832 378030,646741C377780,646654 377598,646489 377483,646245C377385,646028 377375,645791 377463,645539L377999,644001L378356,644126Z" style="fill-rule:nonzero;"/>
                    <path d="M380876,645385L380161,647435L379804,647311L380520,645261L379973,645070L380091,644731L381553,645241L381435,645580L380876,645385Z" style="fill-rule:nonzero;"/>
                    <path d="M382063,647906C382084,647847 382125,647806 382176,647776C382238,647750 382293,647746 382352,647766C382411,647787 382452,647825 382485,647883C382505,647939 382512,647997 382491,648056C382470,648116 382429,648158 382378,648189C382316,648214 382261,648217 382202,648197C382142,648176 382102,648139 382069,648081C382048,648027 382042,647968 382063,647906Z" style="fill-rule:nonzero;"/>
                    <path d="M383912,647500L384019,647192C384173,647246 384287,647265 384346,647249C384462,647221 384543,647143 384589,647011C384624,646909 384618,646813 384569,646724C384532,646638 384448,646573 384341,646535C384246,646502 384155,646497 384090,646529C384013,646558 383949,646629 383884,646738L383527,646614C383641,646402 383770,646261 383926,646198C384081,646135 384254,646137 384468,646211C384670,646282 384826,646406 384914,646575C385002,646743 385006,646923 384938,647117C384862,647336 384720,647476 384511,647541C384660,647724 384701,647950 384610,648211C384535,648427 384390,648573 384200,648659C384010,648746 383808,648752 383582,648673C383285,648569 383108,648389 383051,648132C383023,648022 383030,647887 383061,647722L383417,647846C383389,647966 383406,648071 383456,648157C383505,648243 383590,648308 383709,648349C383827,648390 383936,648384 384035,648332C384145,648281 384216,648194 384259,648072C384315,647911 384295,647776 384200,647666C384154,647606 384054,647550 383912,647500Z" style="fill-rule:nonzero;"/>
                    <path d="M385964,647159L385548,647013L385868,646746L386438,646945L385605,649334L385248,649210L385964,647159Z" style="fill-rule:nonzero;"/>
                    <path d="M387006,649444L387898,649755L387780,650093L386163,649529L387346,648815C387464,648744 387565,648683 387650,648631C387723,648574 387792,648528 387833,648488C387927,648411 387992,648337 388019,648260C388058,648148 388044,648037 387998,647938C387941,647834 387860,647763 387741,647721C387503,647638 387311,647731 387175,648005L386818,647881C387054,647397 387391,647233 387843,647390C388069,647469 388223,647600 388317,647789C388423,647981 388435,648177 388364,648381C388318,648511 388238,648627 388123,648727C388065,648778 387991,648839 387888,648903C387798,648972 387666,649044 387528,649133L387006,649444Z" style="fill-rule:nonzero;"/>
                    <path d="M389313,650628L390146,648239L390646,648413C390883,648496 391065,648586 391191,648684C391318,648780 391433,648908 391513,649061C391684,649373 391700,649710 391572,650076C391444,650444 391209,650695 390881,650835C390710,650904 390552,650936 390394,650931C390247,650930 390050,650885 389800,650798L389313,650628ZM389788,650414L389954,650472C390109,650526 390257,650559 390376,650562C390495,650563 390610,650539 390721,650490C390956,650391 391125,650212 391215,649952C391307,649690 391286,649445 391164,649220C391061,649019 390860,648868 390551,648760L390385,648702L389788,650414Z" style="fill-rule:nonzero;"/>
                    <path d="M393641,649838L392691,649507L392490,650081L393417,650404L393299,650743L392372,650419L392094,651218L393044,651550L392926,651889L391607,651428L392440,649039L393760,649500L393641,649838Z" style="fill-rule:nonzero;"/>
                    <path d="M395436,650465L394485,650133L394285,650707L395212,651030L395094,651369L394167,651046L393888,651844L394839,652176L394721,652515L393402,652055L394235,649666L395554,650126L395436,650465Z" style="fill-rule:nonzero;"/>
                    <path d="M395891,651835L395553,652805L395196,652681L396030,650292L396434,650433C396636,650503 396785,650571 396883,650636C396968,650698 397045,650783 397089,650885C397185,651069 397197,651263 397126,651467C397050,651686 396906,651831 396719,651909C396532,651987 396307,651980 396058,651893L395891,651835ZM396008,651501L396150,651551C396483,651667 396682,651594 396771,651338C396857,651092 396734,650911 396389,650790L396270,650749L396008,651501Z" style="fill-rule:nonzero;"/>
                    <path d="M372901,648565L373735,646175L374091,646299C374246,646353 374372,646412 374459,646469C374545,646527 374614,646597 374653,646678C374703,646763 374724,646856 374740,646963C374743,647068 374735,647169 374702,647263C374642,647434 374520,647554 374348,647627C374464,647716 374532,647825 374578,647962C374612,648094 374604,648231 374554,648374C374489,648560 374363,648694 374187,648776C374088,648831 373973,648854 373868,648851C373750,648844 373602,648810 373436,648751L372901,648565ZM373733,647325L373840,647362C373983,647412 374089,647415 374168,647378C374248,647339 374315,647264 374355,647148C374394,647035 374389,646937 374349,646858C374310,646779 374225,646718 374094,646672L373976,646631L373733,647325ZM373376,648349L373602,648428C373756,648482 373886,648491 373992,648457C374099,648418 374165,648342 374203,648235C374238,648133 374233,648034 374174,647934C374127,647839 374009,647759 373806,647689L373628,647627L373376,648349Z" style="fill-rule:nonzero;"/>
                    <path d="M375057,647964C375174,647628 375394,647380 375728,647226C376050,647068 376389,647050 376734,647170C377078,647291 377321,647512 377486,647843C377638,648170 377667,648508 377548,648849C377428,649192 377196,649438 376874,649595C376541,649748 376202,649765 375857,649644C375548,649536 375300,649330 375137,649033C374946,648702 374924,648347 375057,647964ZM375412,648093C375320,648357 375339,648608 375458,648840C375565,649069 375749,649228 375975,649307C376225,649394 376469,649382 376696,649266C376935,649154 377093,648969 377181,648717C377270,648462 377261,648219 377155,647989C377037,647753 376865,647597 376615,647510C376366,647423 376122,647434 375895,647550C375657,647659 375500,647841 375412,648093Z" style="fill-rule:nonzero;"/>
                    <path d="M378870,648346L378154,650398L377798,650273L378513,648222L377967,648031L378085,647692L379535,648198L379417,648537L378870,648346Z" style="fill-rule:nonzero;"/>
                    <path d="M380403,648881L379688,650933L379319,650804L380035,648753L379488,648562L379606,648223L381068,648733L380950,649072L380403,648881Z" style="fill-rule:nonzero;"/>
                    <path d="M380786,649962C380903,649626 381123,649379 381457,649225C381779,649066 382118,649049 382463,649169C382807,649289 383050,649511 383214,649842C383379,650173 383396,650506 383277,650848C383157,651191 382937,651441 382603,651594C382270,651747 381931,651763 381586,651643C381277,651535 381029,651329 380866,651032C380675,650701 380652,650345 380786,649962ZM381141,650092C381049,650355 381068,650606 381187,650838C381294,651068 381478,651227 381704,651305C381954,651392 382198,651380 382437,651269C382664,651152 382822,650967 382910,650715C382998,650461 382990,650218 382884,649988C382778,649756 382594,649596 382344,649509C382094,649422 381851,649433 381624,649548C381386,649657 381229,649840 381141,650092Z" style="fill-rule:nonzero;"/>
                    <path d="M383230,652168L384625,649773L384797,651916L386301,650357L385856,653085L385488,652956L385753,651430L384511,652738L384363,650944L383598,652297L383230,652168Z" style="fill-rule:nonzero;"/>
                    <path d="M389394,652038L389049,652111C389022,651996 388996,651918 388947,651867C388911,651817 388857,651781 388774,651752C388667,651715 388574,651713 388495,651749C388404,651780 388344,651838 388315,651922C388274,652039 388336,652166 388478,652295L388682,652476C388856,652625 388965,652771 389009,652913C389065,653059 389064,653213 389007,653377C388930,653597 388784,653750 388591,653844C388398,653938 388183,653944 387969,653870C387755,653795 387610,653675 387522,653507C387422,653335 387399,653132 387453,652902L387838,652945C387813,653094 387803,653200 387831,653270C387867,653398 387956,653486 388098,653536C388205,653573 388314,653569 388411,653519C388521,653473 388590,653389 388630,653274C388646,653227 388649,653180 388651,653138C388652,653095 388653,653055 388628,653010C388616,652970 388591,652927 388553,652882C388528,652841 388478,652793 388427,652747L388235,652572C387950,652318 387866,652062 387959,651796C388022,651616 388134,651486 388318,651416C388492,651339 388691,651340 388893,651411C389167,651506 389334,651715 389394,652038Z" style="fill-rule:nonzero;"/>
                    <path d="M390378,651981L390018,651855L389185,654244L389545,654370L390378,651981Z"/>
                    <path d="M390123,654573L390957,652183L391456,652357C391694,652440 391876,652530 392002,652627C392128,652724 392243,652853 392323,653005C392495,653317 392510,653654 392383,654020C392254,654387 392020,654639 391691,654779C391521,654847 391363,654880 391204,654876C391058,654874 390860,654830 390610,654743L390123,654573ZM390598,654358L390765,654416C390919,654470 391068,654503 391187,654506C391306,654507 391421,654483 391532,654434C391766,654334 391935,654156 392026,653896C392117,653634 392096,653388 391987,653167C391871,652963 391671,652812 391362,652704L391195,652646L390598,654358Z" style="fill-rule:nonzero;"/>
                    <path d="M394452,653782L393501,653450L393301,654025L394228,654348L394109,654688L393182,654364L392904,655162L393855,655494L393736,655834L392417,655373L393251,652983L394570,653443L394452,653782Z" style="fill-rule:nonzero;"/>
                </g>
            </g>
            <g id="Rout-Bottom5" serif:id="Rout Bottom">
                <path d="M76854.2,427664C76854.2,409698 91440.4,395112 109407,395112C127373,395112 141959,409698 141959,427664C141959,445630 127373,460217 109407,460217C91440.4,460217 76854.2,445630 76854.2,427664Z" style="fill:rgb(255,2,91);fill-opacity:0.466667;"/>
                <g>
                    <path d="M134095,438166L135173,437386L135173,437851L134138,438569L134138,438644L135173,438644L135173,439022L132643,439022L132643,438581C132643,438242 132706,438002 132832,437851C132971,437688 133156,437612 133386,437612C133564,437612 133719,437662 133848,437763C133977,437864 134059,438002 134095,438166ZM133805,438644L133805,438518C133805,438166 133666,437977 133391,437977C133131,437977 133002,438153 133002,438506L133002,438644L133805,438644Z" style="fill-rule:nonzero;"/>
                    <path d="M133897,437184C133540,437184 133234,437058 132979,436794C132723,436542 132595,436227 132595,435862C132595,435497 132725,435183 132983,434931C133240,434667 133550,434541 133912,434541C134276,434541 134584,434679 134838,434931C135092,435195 135220,435510 135220,435875C135220,436202 135106,436504 134880,436756C134630,437046 134302,437184 133897,437184ZM133902,436806C134181,436806 134411,436706 134591,436517C134771,436328 134862,436114 134862,435875C134862,435611 134770,435384 134586,435195C134401,435019 134175,434931 133908,434931C133639,434931 133412,435019 133229,435195C133046,435371 132954,435598 132954,435862C132954,436127 133046,436353 133229,436530C133411,436706 133635,436806 133902,436806Z" style="fill-rule:nonzero;"/>
                    <path d="M132643,433685L134167,433685C134385,433685 134544,433647 134644,433571C134789,433471 134862,433320 134862,433131C134862,432929 134789,432778 134644,432678C134547,432602 134388,432564 134167,432564L132643,432564L132643,432187L134272,432187C134539,432187 134759,432275 134931,432438C135124,432627 135220,432854 135220,433131C135220,433395 135124,433622 134931,433811C134759,433974 134539,434062 134272,434062L132643,434062L132643,433685Z" style="fill-rule:nonzero;"/>
                    <path d="M133002,430890L135173,430890L135173,431268L133002,431268L133002,431847L132643,431847L132643,430298L133002,430298L133002,430890Z" style="fill-rule:nonzero;"/>
                    <path d="M134991,428939C134929,428939 134876,428914 134831,428876C134787,428826 134764,428775 134764,428712C134764,428649 134787,428599 134831,428549C134876,428511 134929,428486 134992,428486C135055,428486 135109,428511 135154,428549C135198,428599 135220,428649 135220,428712C135220,428775 135198,428826 135154,428876C135110,428914 135056,428939 134991,428939Z" style="fill-rule:nonzero;"/>
                    <path d="M133999,427328L133673,427328C133673,427164 133654,427051 133618,427000C133554,426900 133454,426849 133314,426849C133206,426849 133117,426887 133049,426963C132980,427026 132946,427126 132946,427240C132946,427340 132971,427428 133023,427479C133076,427542 133164,427579 133289,427605L133289,427982C133051,427944 132876,427869 132765,427743C132654,427617 132599,427454 132599,427227C132599,427013 132664,426824 132795,426686C132925,426547 133093,426484 133299,426484C133530,426484 133710,426572 133840,426749C133963,426547 134163,426434 134440,426434C134668,426434 134855,426522 134998,426673C135143,426824 135215,427013 135215,427252C135215,427567 135103,427793 134878,427932C134784,427995 134654,428033 134488,428058L134488,427680C134610,427668 134705,427617 134769,427542C134834,427466 134867,427365 134867,427240C134867,427114 134826,427013 134744,426937C134659,426849 134554,426812 134424,426812C134254,426812 134133,426874 134060,427000C134019,427063 133999,427177 133999,427328Z" style="fill-rule:nonzero;"/>
                    <path d="M133000,425502L133000,425943L132643,425729L132643,425125L135173,425125L135173,425502L133000,425502Z" style="fill-rule:nonzero;"/>
                    <path d="M134814,423765L134814,422821L135173,422821L135173,424533L134109,423652C134004,423564 133912,423488 133835,423425C133757,423375 133691,423325 133640,423299C133537,423237 133445,423199 133363,423199C133245,423199 133145,423249 133066,423325C132986,423413 132946,423513 132946,423639C132946,423891 133097,424042 133401,424080L133401,424458C132867,424395 132600,424130 132600,423652C132600,423413 132673,423224 132820,423073C132966,422909 133148,422834 133364,422834C133501,422834 133637,422871 133769,422947C133837,422985 133919,423035 134014,423111C134108,423174 134220,423274 134350,423375L134814,423765Z" style="fill-rule:nonzero;"/>
                    <path d="M135173,421197L132643,421197L132643,420669C132643,420417 132668,420215 132718,420064C132767,419913 132851,419762 132969,419636C133207,419372 133520,419246 133908,419246C134297,419246 134612,419385 134852,419649C134973,419787 135056,419926 135103,420077C135150,420215 135173,420417 135173,420681L135173,421197ZM134814,420820L134814,420643C134814,420480 134797,420329 134760,420215C134722,420102 134662,420001 134579,419913C134408,419724 134184,419624 133908,419624C133631,419624 133406,419724 133233,419913C133078,420077 133002,420316 133002,420643L133002,420820L134814,420820Z" style="fill-rule:nonzero;"/>
                    <path d="M133002,417371L133002,418378L133610,418378L133610,417396L133968,417396L133968,418378L134814,418378L134814,417371L135173,417371L135173,418768L132643,418768L132643,417371L133002,417371Z" style="fill-rule:nonzero;"/>
                    <path d="M133002,415470L133002,416477L133610,416477L133610,415495L133968,415495L133968,416477L134814,416477L134814,415470L135173,415470L135173,416867L132643,416867L132643,415470L133002,415470Z" style="fill-rule:nonzero;"/>
                    <path d="M134146,414589L135173,414589L135173,414966L132643,414966L132643,414538C132643,414324 132658,414161 132687,414047C132717,413947 132772,413846 132854,413770C132997,413619 133175,413544 133392,413544C133623,413544 133807,413632 133943,413783C134078,413934 134146,414148 134146,414412L134146,414589ZM133792,414589L133792,414437C133792,414085 133657,413921 133387,413921C133126,413921 132995,414098 132995,414463L132995,414589L133792,414589Z" style="fill-rule:nonzero;"/>
                    <path d="M138631,437373L136100,437373L136100,436995C136100,436832 136113,436693 136139,436592C136165,436492 136209,436404 136272,436341C136336,436265 136417,436215 136512,436164C136611,436127 136709,436102 136808,436102C136990,436102 137143,436177 137269,436316C137314,436177 137395,436076 137509,435988C137623,435913 137755,435875 137906,435875C138104,435875 138271,435950 138407,436089C138491,436164 138550,436265 138583,436366C138615,436479 138631,436630 138631,436806L138631,437373ZM137186,436995L137186,436882C137186,436731 137154,436630 137093,436567C137030,436504 136937,436467 136815,436467C136695,436467 136604,436504 136543,436567C136481,436630 136451,436731 136451,436869L136451,436995L137186,436995ZM138271,436995L138271,436756C138271,436592 138237,436467 138170,436378C138097,436290 138004,436253 137891,436253C137783,436253 137691,436290 137616,436378C137542,436454 137506,436592 137506,436806L137506,436995L138271,436995Z" style="fill-rule:nonzero;"/>
                    <path d="M137353,435535C136997,435535 136691,435409 136436,435145C136180,434893 136052,434578 136052,434213C136052,433848 136181,433546 136439,433282C136697,433030 137007,432892 137368,432892C137732,432892 138041,433030 138295,433282C138549,433546 138676,433861 138676,434226C138676,434553 138563,434855 138336,435107C138087,435397 137759,435535 137353,435535ZM137358,435157C137638,435157 137868,435057 138048,434868C138229,434692 138319,434465 138319,434226C138319,433962 138227,433735 138043,433559C137858,433370 137631,433282 137365,433282C137095,433282 136869,433370 136686,433546C136502,433735 136412,433949 136412,434213C136412,434478 136502,434704 136686,434881C136867,435069 137091,435157 137358,435157Z" style="fill-rule:nonzero;"/>
                    <path d="M136458,431809L138631,431809L138631,432187L136458,432187L136458,432766L136100,432766L136100,431230L136458,431230L136458,431809Z" style="fill-rule:nonzero;"/>
                    <path d="M136458,430185L138631,430185L138631,430575L136458,430575L136458,431154L136100,431154L136100,429606L136458,429606L136458,430185Z" style="fill-rule:nonzero;"/>
                    <path d="M137353,429468C136997,429468 136691,429342 136436,429077C136180,428826 136052,428511 136052,428146C136052,427781 136181,427479 136439,427214C136697,426950 137007,426824 137368,426824C137732,426824 138041,426950 138295,427214C138549,427479 138676,427793 138676,428158C138676,428486 138563,428788 138336,429040C138087,429329 137759,429468 137353,429468ZM137358,429090C137638,429090 137868,428989 138048,428800C138229,428624 138319,428398 138319,428158C138319,427894 138227,427668 138043,427479C137858,427302 137631,427214 137365,427214C137095,427214 136869,427302 136686,427479C136502,427655 136412,427882 136412,428146C136412,428410 136502,428637 136686,428813C136867,429002 137091,429090 137358,429090Z" style="fill-rule:nonzero;"/>
                    <path d="M138631,426434L135909,425905L137877,425037L135909,424130L138631,423652L138631,424042L137103,424294L138747,425037L137102,425767L138631,426044L138631,426434Z" style="fill-rule:nonzero;"/>
                    <path d="M136477,420656L136660,420958C136560,421021 136495,421071 136463,421134C136428,421185 136412,421248 136412,421336C136412,421449 136441,421537 136501,421600C136560,421676 136635,421713 136724,421713C136847,421713 136947,421613 137022,421436L137125,421185C137209,420971 137310,420820 137430,420732C137550,420631 137696,420580 137869,420580C138102,420580 138295,420669 138447,420820C138600,420971 138676,421172 138676,421399C138676,421625 138611,421802 138481,421940C138352,422091 138168,422179 137932,422204L137847,421827C137995,421802 138099,421776 138155,421726C138265,421650 138319,421537 138319,421386C138319,421273 138279,421172 138199,421097C138120,421008 138018,420971 137896,420971C137847,420971 137801,420983 137761,420996C137720,421008 137682,421021 137648,421059C137614,421084 137581,421122 137551,421172C137521,421210 137492,421273 137465,421336L137363,421575C137217,421927 137003,422091 136721,422091C136531,422091 136371,422028 136244,421877C136115,421739 136050,421550 136050,421336C136050,421046 136193,420820 136477,420656Z" style="fill-rule:nonzero;"/>
                    <path d="M136100,419746L136100,420127L138630,420127L138630,419746L136100,419746Z"/>
                    <path d="M138631,419133L136100,419133L136100,418604C136100,418352 136125,418151 136175,418000C136224,417849 136308,417698 136426,417572C136663,417308 136977,417182 137365,417182C137754,417182 138068,417320 138309,417585C138430,417723 138513,417861 138560,418012C138607,418151 138631,418352 138631,418617L138631,419133ZM138271,418755L138271,418579C138271,418415 138253,418264 138217,418151C138179,418038 138119,417937 138036,417849C137864,417660 137640,417559 137365,417559C137088,417559 136862,417660 136690,417836C136535,418012 136458,418252 136458,418579L136458,418755L138271,418755Z" style="fill-rule:nonzero;"/>
                    <path d="M136458,415306L136458,416313L137066,416313L137066,415331L137426,415331L137426,416313L138271,416313L138271,415306L138631,415306L138631,416703L136100,416703L136100,415306L136458,415306Z" style="fill-rule:nonzero;"/>
                </g>
            </g>
        </g>
    </g>
</svg>
